<!-- by TradingView --><svg width="56" height="56" viewBox="0 0 56 56" xmlns="http://www.w3.org/2000/svg"><path fill="url(#a3sinzh3v)" d="M0 0h56v56H0z"/><path d="m29 22 3-3h9l3 3v12l-3 3h-9l-3-3V22Zm4 0v9.75L38.73 22H33Zm1.27 12H40v-9.75L34.27 34ZM12 22.1l3-3.1h9l3 3.1V34l-3 3h-9l-3-3V22.1Zm4-.1v9.75L21.73 22H16Zm1.27 12H23v-9.75L17.27 34Z" fill="#fff"/><defs><linearGradient id="a3sinzh3v" x1="10.42" y1="9.71" x2="68.15" y2="76.02" gradientUnits="userSpaceOnUse"><stop stop-color="#1A1E21"/><stop offset="1" stop-color="#06060A"/></linearGradient></defs></svg>