<!-- by TradingView --><svg width="56" height="56" xmlns="http://www.w3.org/2000/svg"><path fill="url(#paint0_linear)" d="M0 0h56v56H0z"/><path fill-rule="evenodd" d="M27.998 10l15.998 9v18l-15.998 8.999-15.998-9V19L27.998 10zm14.498 9.281l-13.998-7.874v15.749l13.998-7.875zm.5.844L28.998 28l13.998 7.874V20.125zm-.5 16.593l-13.998-7.875v15.75l13.998-7.875zm-14.998 7.874L13.5 36.718l13.998-7.874v15.748zm0-17.437L13.5 19.281l13.998-7.874v15.748zM13 20.125L26.998 28 13 35.873V20.125z" fill="#000"/><path d="M27.999 18.306l8.432 14.23-8.433 4.744-8.431-4.743 8.432-14.23zm0 1.95L20.933 32.18l7.065 3.975 7.067-3.975-7.066-11.924z" fill="#000"/><defs><linearGradient id="paint0_linear" x1="0" y1="28" x2="56" y2="28" gradientUnits="userSpaceOnUse"><stop stop-color="#06EFA0"/><stop offset="1" stop-color="#01FAFC"/></linearGradient></defs></svg>