<!-- by TradingView --><svg width="56" height="56" xmlns="http://www.w3.org/2000/svg"><path fill="#DE3F6B" d="M0 0h56v56H0z"/><path d="M16.636 19h1.637c2.582.234 4.963 1.476 6.727 3.258 3.636 3.672 5.636 8.856 10.29 11.574 3.364 1.98 8.074.36 9.71-2.97h2.545a9.513 9.513 0 01-3.215 4.256A9.657 9.657 0 0139.31 37h-1.364a10.97 10.97 0 01-6.182-2.466c-2.491-2.016-4.091-4.788-6.037-7.254-1.654-2.178-3.363-4.644-6.109-5.634a7.23 7.23 0 00-5.172.282 7.126 7.126 0 00-3.628 3.66 6.526 6.526 0 00-.201 4.227 6.588 6.588 0 002.438 3.477c1.818 1.35 4.363 1.854 6.563 1.08a11.785 11.785 0 005.637-4.806l1.618 2.286c-2.182 2.592-5.164 4.842-8.728 5.148h-1.454a9.463 9.463 0 01-5.86-2.582A9.289 9.289 0 018 28.72v-1.404a9.27 9.27 0 012.796-5.708A9.443 9.443 0 0116.636 19zm21.237 0h1.363a9.59 9.59 0 015.895 2.608C46.73 23.128 47.744 25.82 48 28v2H37v-2h8.636c0-1.699-.542-2.658-1.181-3.654a7.236 7.236 0 00-3.74-2.602 7.305 7.305 0 00-4.57.136 11.678 11.678 0 00-5.436 4.572 91.714 91.714 0 01-1.527-2.16c2.127-2.664 5.09-4.95 8.69-5.274V19z" fill="#fff"/></svg>