<!-- by TradingView --><svg width="56" height="56" viewBox="0 0 56 56" xmlns="http://www.w3.org/2000/svg"><path fill="#F0F3FA" d="M0 0h56v56H0z"/><path d="M13.5 39a1.5 1.5 0 1 0 0-3 1.5 1.5 0 0 0 0 3Z" fill="#259ECC"/><path d="M43.5 21a1.5 1.5 0 1 0 0-3 1.5 1.5 0 0 0 0 3Z" fill="#E30A7D"/><path d="M42.27 13.72a1.63 1.63 0 0 0-1.15-.5 1.57 1.57 0 0 0-1.16.5l-2.44 2.55-2.3 2.43a1.6 1.6 0 0 1-2.32 0 1.76 1.76 0 0 1 0-2.43l1.27-1.34a1.72 1.72 0 0 0 .48-1.21 1.79 1.79 0 0 0-.48-1.22A1.6 1.6 0 0 0 33 12c-.44 0-.85.18-1.16.5L15.6 29.51a1.76 1.76 0 0 0 0 2.44 1.6 1.6 0 0 0 2.32 0l1.8-1.88c.3-.33.72-.5 1.15-.5.44 0 .86.17 1.16.5a1.76 1.76 0 0 1 0 2.43l-8.16 8.57a1.72 1.72 0 0 0-.48 1.21 1.79 1.79 0 0 0 .48 1.22 1.63 1.63 0 0 0 1.16.5 1.57 1.57 0 0 0 1.16-.5l2.75-2.89a1.6 1.6 0 0 1 2.32 0 1.6 1.6 0 0 0 2.32 0L26 38.07a1.6 1.6 0 0 1 2.32 0 1.63 1.63 0 0 0 1.16.5 1.57 1.57 0 0 0 1.16-.5l11.53-12.1a1.72 1.72 0 0 0 .48-1.21 1.79 1.79 0 0 0-.48-1.22 1.63 1.63 0 0 0-1.16-.5 1.57 1.57 0 0 0-1.15.5l-.12.13-1.63 1.7a1.63 1.63 0 0 1-1.16.5 1.57 1.57 0 0 1-1.16-.5 1.72 1.72 0 0 1-.48-1.22 1.79 1.79 0 0 1 .48-1.22l2.02-2.11 4.45-4.67a1.76 1.76 0 0 0 0-2.43Z" fill="url(#atbyc1fxa)"/><defs><linearGradient id="atbyc1fxa" x1="8.62" y1="32.98" x2="51.08" y2="20.47" gradientUnits="userSpaceOnUse"><stop offset=".2" stop-color="#279ECC"/><stop offset=".81" stop-color="#E4097D"/></linearGradient></defs></svg>