<!-- by TradingView --><svg xmlns="http://www.w3.org/2000/svg" width="56" height="56"><path fill="#311879" d="M0 0h56v56H0z"/><path d="M26.12 11.14C24.61 12.4 22 15.25 22 18.46c0 3.99 4.78 6.7 7.27 8.15l.8.48c2.08 1.28 6.93 4.48 6.93 9.6 0 4.86-4.2 8.07-6.42 9.25-.2.1-.45.07-.62-.09a.5.5 0 01.02-.74c1.6-1.4 4.02-4.42 4.02-7.45 0-4.17-3.58-6.4-6.35-8l-.33-.2C23.87 27.47 19 24.66 19 19.09c0-4.27 4.06-7.68 6.4-9 .3-.17.67-.08.86.18.2.28.13.65-.14.87z" fill="#fff"/><path d="M34 18.3c0-3.26-2.58-6.05-4.06-7.26-.22-.18-.28-.5-.1-.72a.56.56 0 01.7-.15c2.3 1.26 6.23 4.48 6.23 8.81 0 2.55-1.1 4.62-2.58 6.27-.48.28-1.03.37-1.6.05-1.09-.61-.56-1.86-.03-2.83A7 7 0 0034 18.29zM23.4 33.64h.06A6.94 6.94 0 0022 37.61c0 3.04 2.53 6.12 4.07 7.52.21.2.23.52.02.71a.57.57 0 01-.66.07l-.03-.01c-1.6-.9-6.16-3.45-6.16-8.93 0-2.25.96-4.14 2.22-5.67.6-.52 1.3-.86 1.94-.5 1.2.69.49 2.14 0 2.83z" fill="#fff"/></svg>