<!-- by TradingView --><svg width="56" height="56" xmlns="http://www.w3.org/2000/svg"><path fill="url(#paint0_linear)" d="M0 0h56v56H0z"/><path d="M26.504 10.45a3 3 0 012.992 0l13 7.48A3 3 0 0144 20.53v14.94a3 3 0 01-1.504 2.6l-13 7.48a3 3 0 01-2.992 0l-13-7.48A3 3 0 0112 35.47V20.53a3 3 0 011.504-2.6l13-7.48z" fill="#fff"/><path d="M25 17.35V25h-7.767c-.752 0-2.166 1.16-2.23 3.026C14.936 29.893 16.4 31 17.232 31H25v7.523c0 1.003 1.202 2.514 3.121 2.471 1.92-.042 2.88-1.656 2.879-2.471V31h7.814c.84 0 2.186-1.093 2.186-2.974 0-1.88-1.426-3.023-2.186-3.026-1.825-.007-5.186 0-6.566 0C30.1 25 29 27.268 29 27.873V29h-2v-2h1.29C29 27 31 25 31 24.016v-6.667c0-.833-1.15-2.354-3.024-2.354-1.873 0-2.976 1.457-2.976 2.354z" fill="#000"/><path d="M27 17.982V25h1.196c.494 0 .804-.552.804-1.084v-5.934c0-.342-.325-.982-1.028-.982-.703 0-.972.64-.972.982zM27 38.018V31h1.196c.494 0 .804.552.804 1.084v5.934c0 .342-.325.982-1.028.982-.703 0-.972-.64-.972-.982zM38.018 29H31v-1.196c0-.494.552-.804 1.084-.804h5.934c.342 0 .982.325.982 1.028 0 .703-.64.972-.982.972zM17.982 29H25v-1.196c0-.494-.552-.804-1.084-.804h-5.934c-.342 0-.982.325-.982 1.028 0 .703.64.972.982.972z" fill="#fff"/><defs><linearGradient id="paint0_linear" x1="10.418" y1="9.712" x2="68.147" y2="76.017" gradientUnits="userSpaceOnUse"><stop stop-color="#1A1E21"/><stop offset="1" stop-color="#06060A"/></linearGradient></defs></svg>