<!-- by TradingView --><svg width="56" height="56" viewBox="0 0 56 56" xmlns="http://www.w3.org/2000/svg"><path fill="url(#a4skvcswb)" d="M0 0h56v56H0z"/><path d="M28 44a16 16 0 1 0 0-32 16 16 0 0 0 0 32Zm3.02-8.45V24.13L20.4 36.52c-.25.27-.62.46-.98.48A1.36 1.36 0 0 1 18 35.66v-.04c0-.31.12-.62.33-.87l13-15.23c.29-.33.71-.52 1.16-.52.83 0 1.51.66 1.51 1.47v15.08c0 .8-.67 1.45-1.5 1.45-.82 0-1.48-.65-1.48-1.45Z" fill="#fff"/><defs><linearGradient id="a4skvcswb" x1="10.42" y1="9.71" x2="68.15" y2="76.02" gradientUnits="userSpaceOnUse"><stop stop-color="#1A1E21"/><stop offset="1" stop-color="#06060A"/></linearGradient></defs></svg>