<!-- by TradingView --><svg width="56" height="56" viewBox="0 0 56 56" xmlns="http://www.w3.org/2000/svg"><path fill="url(#acs1vxjc2)" d="M0 0h56v56H0z"/><path d="M38.7 22.84c-.1.29-4.67-2.62-8.84-.63a7.31 7.31 0 0 0-4.28 6.61c0 1.88.64 3.3 1.35 4.22 1.14 1.5 2.2 2.07 3.13 2.58 1.48.8 4 .83 4.76.8 1.42-.08 3.1-.5 4.5-1.17.55-.25 1.42-.8 2.19-1.42 1.3-1.06 2.51-2.38 2.49-2.28-.03.16-.02.3-.67 1.45a12.83 12.83 0 0 1-5.17 4.95 11.66 11.66 0 0 1-9.35.87 11.3 11.3 0 0 1-5.65-4.62c-.68-1.29-1.9-6.04-.26-9.81a9.25 9.25 0 0 1 4.34-4.3c5.03-2.13 11.57 2.49 11.47 2.75Z" fill="url(#bcs1vxjc2)"/><path d="M38.85 22.6c-.2.2-1.67-1.6-4.02-2.88a13.3 13.3 0 0 0-6.38-1.62c-5.2.11-8.65 3.97-9.27 4.69-3.08 3.58-4.53 9.09-2.8 13.37 2.25 5.57 9.79 8.78 9.21 8.84l-.66-.21c-.8-.32-10.55-4.77-10.9-13.64-.2-5 1.4-9.04 2.35-10.14a14.47 14.47 0 0 1 4.16-3.48c2.28-1.23 6.57-2.28 9.75-1.8 3.57.54 5.81 3.07 6.9 4.3.99 1.1 1.83 2.41 1.66 2.57Z" fill="url(#ccs1vxjc2)"/><path d="M38.83 22.84c.24-.11-.08-3.43-2.21-5.95a10.93 10.93 0 0 0-2.97-2.6c-4.79-2.63-10.68-.51-11.96 0-1.3.53-4.1 1.97-6.43 4.92a15.62 15.62 0 0 0-3.18 8.48c-.64 6.68 2.79 11.92 3.03 11.84.15-.04-1.41-3.38-1.08-8.38.13-1.9.39-5.38 2.77-8.73a14.7 14.7 0 0 1 5.3-4.7c1.26-.63 5.77-2.66 10.29-1.04 1.37.5 2.64 1.26 3.73 2.25 1.97 1.82 2.5 4 2.7 3.9Z" fill="url(#dcs1vxjc2)"/><path d="M31.89 41.55c-.12.2-7.93-2.06-10.87-7.63-.44-.83-2.48-5.3-1.14-8.77a14.8 14.8 0 0 1 2.1-3.58 9.93 9.93 0 0 1 3.5-2.22c.69-.29 1.96-.6 2.7-.7.75-.09 1.89-.07 2.63 0 1.44.15 3.4 1.85 3.34 1.85-.02 0-1.55-.5-3.14-.6a9.44 9.44 0 0 0-3.24.4 8.59 8.59 0 0 0-3.53 2.37 8.5 8.5 0 0 0-1.8 4.75c-.12 1.53.04 3.76.7 5.5.31.84.85 1.9 1.9 3.3 2.2 2.98 6.93 5.19 6.85 5.33Z" fill="url(#ecs1vxjc2)"/><path d="M27.65 17.96a10.8 10.8 0 0 1 3.86 0c1.54.31 2.4.63 3.45 1.18 1.8.93 4.07 3.31 3.9 3.67-.32.64-5.1-4.49-11.67-2.72-1.86.64-3 1.24-4.2 2.15a10.76 10.76 0 0 0-4.09 8.24c0 2.06.38 3.26.85 4.57.65 1.87 1.88 4 1.68 3.86-2.25-1.58-3.66-6.46-3.81-7.47-.16-1.01-.82-5.4 2.04-9.04 2.6-3.33 6.98-4.3 7.99-4.44Z" fill="url(#fcs1vxjc2)"/><defs><linearGradient id="acs1vxjc2" x1="10.42" y1="9.71" x2="68.15" y2="76.02" gradientUnits="userSpaceOnUse"><stop stop-color="#1A1E21"/><stop offset="1" stop-color="#06060A"/></linearGradient><linearGradient id="bcs1vxjc2" x1="35.85" y1="19.64" x2="35.85" y2="39.5" gradientUnits="userSpaceOnUse"><stop stop-color="#FAB961"/><stop offset="1" stop-color="#20180D"/></linearGradient><linearGradient id="ccs1vxjc2" x1="26.44" y1="15.61" x2="26.44" y2="45.05" gradientUnits="userSpaceOnUse"><stop stop-color="#FAB961"/><stop offset="1" stop-color="#20180D"/></linearGradient><linearGradient id="dcs1vxjc2" x1="25.45" y1="13.16" x2="25.45" y2="39.54" gradientUnits="userSpaceOnUse"><stop/><stop offset=".41" stop-color="#FAB961"/></linearGradient><linearGradient id="ecs1vxjc2" x1="25.77" y1="19.56" x2="25.77" y2="41.01" gradientUnits="userSpaceOnUse"><stop/><stop offset="1" stop-color="#FAB961"/></linearGradient><linearGradient id="fcs1vxjc2" x1="28.15" y1="18.3" x2="28.15" y2="38.92" gradientUnits="userSpaceOnUse"><stop stop-color="#20180D"/><stop offset="1" stop-color="#FAB961"/></linearGradient></defs></svg>