<!-- by TradingView --><svg width="56" height="56" xmlns="http://www.w3.org/2000/svg"><path fill="url(#paint0_linear)" d="M0 0h56v56H0z"/><path d="M28.004 11c.837 0 1.63.24 2.379.617l11.239 6.253c.719.39 1.318.959 1.736 1.648.418.69.64 1.475.642 2.276v12.455c0 1.628-.907 3.127-2.378 3.932l-11.24 6.202a4.68 4.68 0 01-2.378.617 4.68 4.68 0 01-2.378-.617L14.378 38.18a4.577 4.577 0 01-1.74-1.655A4.412 4.412 0 0112 34.24V21.794c0-1.628.907-3.127 2.378-3.932l11.248-6.245c.731-.429 1.524-.617 2.378-.617zm0 2a3.17 3.17 0 00-1.585.417L15.733 19.3c-1.08.554-1.733 1.55-1.733 2.494v12.404c0 1.139.747 1.925 1.733 2.49l10.681 5.906A3.16 3.16 0 0028 43c.573 0 1.185-.128 1.682-.406l10.626-5.906c.977-.55 1.668-1.333 1.692-2.43V21.794c0-1.131-.697-1.929-1.692-2.494l-10.674-5.883a3.346 3.346 0 00-1.63-.417zm0 3.002c.44 0 .881.094 1.286.376l8.078 5.039C38.16 21.845 39 22.65 39 23.55v8.9c0 .857-.84 1.705-1.633 2.133l-8.076 5.097c-.396.231-.846.32-1.286.32-.45 0-.899-.089-1.295-.328l-8.069-5.097C17.857 34.157 17 33.319 17 32.45v-8.952c0-.856.849-1.704 1.641-2.133l8.069-5.038a2.55 2.55 0 011.294-.326zm0 1.994c-.202 0-.449.043-.643.188l-7.068 4.26c-.71.364-1.293 1.054-1.293 1.687v7.856c0 .48.574.95.97 1.19l7.395 4.642c.202.146.388.181.635.181s.448-.078.65-.18l7.565-4.643c.396-.232.776-.744.785-1.19v-7.856c0-.821-.621-1.24-1.204-1.686l-7.149-4.26a1.024 1.024 0 00-.643-.19zM28 20.999c.247 0 .457.051.66.197l4.668 2.935c.397.231.663.642.672 1.088v5.68c0 .471-.275.857-.672 1.088l-4.632 2.826c-.203.137-.45.188-.696.188-.203 0-.396-.094-.599-.188l-4.684-2.826c-.384-.229-.707-.65-.717-1.088v-5.68c0-.471.32-.857.717-1.088l4.648-2.927A.989.989 0 0128 21zm.004 2.025L24 25.623v4.694L28 33l4-2.52v-4.695l-3.996-2.76z" fill="#fff"/><defs><linearGradient id="paint0_linear" x1="0" y1="26.813" x2="56" y2="26.682" gradientUnits="userSpaceOnUse"><stop stop-color="#D93CEF"/><stop offset="1" stop-color="#544CF2"/></linearGradient></defs></svg>