<!-- by TradingView --><svg xmlns="http://www.w3.org/2000/svg" width="56" height="56"><path fill="#0055FE" d="M0 0h56v56H0z"/><path fill-rule="evenodd" d="M40.64 37.82a16 16 0 00-23.5-21.57l1.35 1.35a1.33 1.33 0 01-1.88 1.89l-1.27-1.27a16 16 0 009.33 25.43c.05-.26.19-.5.4-.71l4.23-4.24a1.5 1.5 0 112.12 2.12L28.24 44a15.94 15.94 0 0010.59-4.22l-1.1-1.1a1.33 1.33 0 111.88-1.9l1.03 1.04zM24 22.5a2.5 2.5 0 11-5 0 2.5 2.5 0 015 0zm1.39-5.22a1.33 1.33 0 101.88 1.88l3.77-3.77a1.33 1.33 0 10-1.88-1.88l-3.77 3.77zm-.11 8.1a1.33 1.33 0 011.88 0l3.78 3.78a1.33 1.33 0 11-1.89 1.88l-3.77-3.77a1.33 1.33 0 010-1.88zM37 34.5a2.5 2.5 0 11-5 0 2.5 2.5 0 015 0z" fill="#fff"/></svg>