<!-- by TradingView --><svg width="56" height="56" viewBox="0 0 56 56" fill="none" xmlns="http://www.w3.org/2000/svg">
<rect width="56" height="56" fill="#F0F3FA"/>
<path fill-rule="evenodd" clip-rule="evenodd" d="M35.4952 42.2068C40.5546 39.5133 44 34.1778 44 28.0358C44 19.1795 36.8365 12 28 12C19.1634 12 12 19.1795 12 28.0358C12 34.5454 15.8701 40.1491 21.4302 42.6617L21.8311 41.9965L22.0278 41.7666C16.7152 39.4581 13 34.1644 13 28.0031C13 19.7188 19.7165 13.0031 28.0018 13.0031C36.287 13.0031 43.0035 19.7188 43.0035 28.0031C43.0035 33.723 39.8016 38.6952 35.0921 41.2253L35.4559 41.9965L35.4952 42.2068ZM34.6868 40.3661C39.0824 38.0339 42.0034 33.4308 42.0034 28.0031C42.0034 20.1372 35.8686 14.0031 28.0018 14.0031C20.135 14.0031 14.0001 20.1372 14.0001 28.0031C14.0001 35.3835 19.4011 41.2394 26.5661 41.934L28.3173 41.8658L30.293 41.4735L34.0766 40.1472L34.4867 39.9417L34.6868 40.3661ZM25.6281 39.6425L27.8549 40.8349L28.343 40.5292L29.0598 40.7126L31.1799 39.2145L33.1017 37.2426V31.4032L32.8424 29.7828L32.9644 28.4071L32.8424 26.4963L32.7051 23.7753V23.3778L33.5287 21.6658L34.2151 20.1065L34.5049 18.1805L34.0778 17.5996L32.8729 18.1805L30.9816 20.2747L30.3868 21.1307L29.3801 20.7791H27.4126L25.7806 21.1307L24.2706 19.1588L22.8979 17.9359L21.9828 17.7677L21.4947 18.5473L21.815 20.2747L23.3402 23.225L23.7063 23.5918L23.1877 25.4415L23.0809 28.8504L23.3402 30.3178L23.0809 31.7242V33.0847L22.9589 35.1636L22.7454 36.7228L22.9589 37.6553L25.6281 39.6425Z" fill="#32C67F"/>
<path fill-rule="evenodd" clip-rule="evenodd" d="M38 38L41 36.5L42.9269 32.9301L43.4601 29.9289V29.235L41.2411 30.1718L39.6757 35.2894L38 38ZM21.7808 40.0407L22.0369 41.4427L23.5368 41.9776L26.9234 42.1287L25.1831 40.8339L21.7808 40.0407Z" fill="#32C67F"/>
<path fill-rule="evenodd" clip-rule="evenodd" d="M30.1587 20.7584C29.4074 20.4244 28.5425 20.364 27.764 20.4202C26.9923 20.476 26.2746 20.6486 25.7783 20.8151C25.2592 20.0402 24.5022 19.0376 23.7704 18.3359C23.3766 17.9584 22.9665 17.6445 22.5882 17.5172C22.3954 17.4524 22.1923 17.4296 21.9985 17.4908C21.7999 17.5536 21.6429 17.6943 21.5288 17.8948C21.3085 18.2819 21.2866 18.7783 21.3635 19.2907C21.4413 19.8086 21.6255 20.3782 21.8585 20.9407C22.2841 21.9683 22.8856 23.0031 23.3541 23.7102C22.7955 25.054 22.7626 26.3071 22.8635 26.9346C22.9612 27.5421 22.9197 27.9798 22.8866 28.33C22.8726 28.4775 22.8601 28.6096 22.8601 28.7322C22.8601 28.9333 22.9088 29.1715 22.9518 29.3771L22.9608 29.4198C23.0035 29.6232 23.0407 29.8005 23.0503 29.9457C23.0596 30.0856 23.0196 30.411 22.9505 30.7867C22.8833 31.152 22.7968 31.5225 22.7303 31.7347C22.637 32.0327 22.6807 32.3495 22.7318 32.6104C22.7492 32.6992 22.7671 32.7809 22.7838 32.8572C22.8214 33.0289 22.8532 33.1737 22.8604 33.3132C22.8648 33.3969 22.8511 33.5519 22.8209 33.7648C22.7917 33.9709 22.7502 34.2102 22.7072 34.4525L22.6838 34.5842C22.6488 34.7806 22.6141 34.9748 22.5868 35.1451C22.5544 35.3472 22.5282 35.5389 22.5282 35.6659V37.0313C22.1297 37.2248 21.8466 37.4521 21.6678 37.7095C21.4684 37.9965 21.4116 38.3025 21.4495 38.5939C21.4821 38.8446 21.5835 39.0794 21.7148 39.2865C21.5008 39.6267 21.3108 40.1065 21.3544 40.6018C21.3801 40.8934 21.487 41.1864 21.7111 41.4471C21.7375 41.4777 21.7652 41.5077 21.7945 41.537L21.3146 42.7175C21.2696 42.8281 21.3555 42.8571 21.4619 42.8932H21.4619C21.489 42.9024 21.5175 42.912 21.5455 42.9236C21.5748 42.9357 21.6011 42.9489 21.625 42.9609C21.7136 43.0053 21.7686 43.0329 21.813 42.9236L22.2415 41.8697C22.3783 41.9462 22.5319 42.015 22.703 42.0752C23.5661 42.379 24.6201 42.4794 25.5727 42.4866C26.5288 42.4938 27.4052 42.407 27.9253 42.3235C27.9458 42.3203 27.9653 42.3147 27.9838 42.3072C28.1419 42.379 28.3313 42.4211 28.5535 42.4211C28.9456 42.4211 29.2176 42.2707 29.3779 42.0346C29.3951 42.0352 29.4127 42.0341 29.4304 42.0311C30.3547 41.8785 31.7709 41.5612 33.0211 41.1024C33.5151 40.9211 33.9897 40.7154 34.4003 40.4856L35.2124 42.2926C35.2845 42.4907 35.3935 42.4358 35.5095 42.3774L35.5095 42.3774L35.5096 42.3773L35.5096 42.3773L35.5097 42.3773C35.5274 42.3684 35.5452 42.3594 35.5631 42.3512L35.5962 42.3364C35.7151 42.2838 35.798 42.2471 35.7031 42.0684L34.8618 40.1965C35.2143 39.9469 35.508 39.6569 35.6618 39.3211C36.0513 39.1977 36.5391 39.0311 36.9971 38.8504C37.295 38.7329 37.5852 38.6076 37.8295 38.4825C38.0644 38.3622 38.2894 38.2261 38.4289 38.0793C38.4915 38.0134 38.6636 37.8964 38.9486 37.741C39.2205 37.5927 39.561 37.4272 39.9262 37.2602C40.2803 37.0982 40.6296 36.8963 40.9554 36.7081C41.301 36.5083 41.62 36.3239 41.8903 36.2187L42.071 35.7898C41.8933 35.8591 41.6498 35.945 41.3766 36.0414L41.3765 36.0414L41.3765 36.0414L41.3764 36.0415L41.3763 36.0415L41.3762 36.0415C40.8308 36.234 40.167 36.4683 39.6719 36.6947C39.3006 36.8646 38.9455 37.0368 38.6557 37.1948C38.3789 37.3458 38.1231 37.5038 37.9844 37.6497C37.9226 37.7148 37.7798 37.8116 37.5507 37.9289C37.331 38.0414 37.0611 38.1585 36.7729 38.2722C36.3926 38.4222 35.9892 38.5628 35.6431 38.6755C35.5222 38.3347 35.2542 37.9351 34.7359 37.6881C34.8082 37.4029 34.8327 37.0218 34.5865 36.7307C34.3611 36.4642 34.038 36.3732 33.7671 36.3516C33.6672 36.3436 33.5686 36.3445 33.4755 36.3513C33.4698 36.1429 33.4618 35.9134 33.4522 35.6747C33.4358 35.2648 33.4149 34.8253 33.3937 34.4146C33.9146 34.0176 34.6608 33.4946 35.4425 33.0114C36.3278 32.4642 37.2324 31.9844 37.9002 31.7849C39.342 31.3541 42.5341 29.9632 43.9583 29.3184L44 28.6291C42.565 29.2789 39.1194 30.773 37.7253 31.1896C36.9752 31.4137 36.0127 31.9307 35.1208 32.482C34.4749 32.8813 33.8523 33.3073 33.3534 33.6723L33.3381 33.4091C33.3786 33.0654 33.426 32.5518 33.4402 32.0912C33.4474 31.8556 33.4463 31.6252 33.4292 31.4354C33.4207 31.341 33.4075 31.248 33.3863 31.1656C33.3677 31.0933 33.3326 30.9854 33.2538 30.9006L33.2558 30.9027L33.2551 30.9015C33.2525 30.8974 33.2429 30.8818 33.2292 30.8481C33.2108 30.8032 33.1915 30.7418 33.1728 30.6649C33.1355 30.5114 33.1062 30.3176 33.0889 30.1145C33.0717 29.9118 33.0672 29.7083 33.0769 29.5363C33.0872 29.3528 33.1118 29.2423 33.1309 29.2004C33.2481 28.9425 33.2846 28.5901 33.2803 28.2986C33.2781 28.1477 33.2647 27.9985 33.2399 27.8684C33.222 27.7748 33.1933 27.6626 33.1413 27.5659C33.141 27.5429 33.1416 27.5106 33.1434 27.4667C33.1466 27.3933 33.1523 27.3064 33.1591 27.2025L33.1592 27.2023L33.1592 27.2018L33.1592 27.2016C33.1637 27.1332 33.1687 27.0575 33.1737 26.9734C33.1986 26.5597 33.2213 25.9967 33.1721 25.3749C33.1306 24.8515 33.0372 24.2772 32.8464 23.71C33.059 23.434 33.2918 22.9985 33.5133 22.5048C33.7757 21.9201 34.0349 21.2248 34.2386 20.5468C34.4416 19.8711 34.593 19.201 34.6339 18.6695C34.6542 18.4054 34.6487 18.1595 34.5995 17.9591C34.551 17.7618 34.4466 17.56 34.2316 17.4746C34.0713 17.4109 33.8976 17.4313 33.7418 17.4797C33.583 17.529 33.4139 17.6162 33.2425 17.7248C32.8991 17.9424 32.511 18.2688 32.1225 18.6354C31.4098 19.3078 30.6699 20.1402 30.1587 20.7584ZM23.4523 18.6734C24.1477 19.3402 24.8804 20.3075 25.3894 21.0663C25.3619 21.1358 25.3592 21.2154 25.3874 21.2909C25.4475 21.4512 25.6252 21.5321 25.7842 21.4715C26.2234 21.3041 26.983 21.0991 27.808 21.0395C28.6376 20.9796 29.4927 21.0697 30.1555 21.4508C30.3032 21.5357 30.4912 21.4838 30.5754 21.3349C30.6366 21.2266 30.6261 21.0968 30.5591 21.0014C31.0599 20.3994 31.764 19.6113 32.4379 18.9754C32.8184 18.6164 33.1815 18.3134 33.4882 18.1191C33.6418 18.0218 33.7725 17.9574 33.8777 17.9247C33.9859 17.8911 34.0406 17.8992 34.0624 17.9078C34.075 17.9129 34.1185 17.9376 34.1513 18.071C34.1833 18.2014 34.1923 18.3904 34.1736 18.6335C34.1364 19.1165 33.9955 19.7499 33.7967 20.4118C33.5985 21.0713 33.3463 21.7475 33.0926 22.3128C32.9339 22.6665 32.7792 22.9663 32.6413 23.1901C32.5572 23.0064 32.461 22.8254 32.3511 22.6491C32.5981 22.1499 32.915 21.4656 33.1538 20.8511C33.2874 20.5073 33.3988 20.1799 33.4588 19.9168C33.4887 19.7858 33.5075 19.6638 33.5078 19.5603C33.508 19.4651 33.4931 19.3469 33.4144 19.2645C33.321 19.1668 33.1976 19.1742 33.1076 19.2044C33.0193 19.2339 32.9278 19.2943 32.8395 19.3652C32.6603 19.5092 32.4495 19.7344 32.235 19.9891C31.8269 20.4737 31.3845 21.0905 31.0834 21.5375C31.0428 21.5568 31.0058 21.5854 30.9756 21.623C30.8688 21.7564 30.8893 21.9519 31.0216 22.0596C32.1083 22.9454 32.466 24.2597 32.5584 25.4244C32.5638 25.4935 32.5684 25.5619 32.572 25.6294L30.3041 26.2365C30.1809 26.2695 30.1075 26.397 30.1402 26.5213C30.1729 26.6456 30.2993 26.7196 30.4226 26.6866L30.5587 26.6501C30.7156 26.9993 31.0661 27.4973 31.5893 27.4973C32.0444 27.4973 32.3715 27.2425 32.554 27.0207L32.5457 27.1484L32.5456 27.1493L32.5456 27.1496C32.5383 27.2607 32.5317 27.3605 32.5283 27.4399C32.5256 27.5045 32.5242 27.5684 32.5273 27.6232C32.5288 27.6504 32.5319 27.6837 32.539 27.7179C32.5447 27.7453 32.5597 27.8081 32.6048 27.8688C32.6024 27.8656 32.6025 27.8658 32.6043 27.8705C32.6085 27.8814 32.622 27.9158 32.6353 27.9857C32.652 28.0731 32.6629 28.1852 32.6647 28.3079C32.6685 28.5636 32.6322 28.8075 32.5712 28.9417C32.5012 29.0958 32.4732 29.3058 32.4622 29.5012C32.4506 29.7079 32.4563 29.9414 32.4755 30.1675C32.4947 30.3932 32.5281 30.62 32.5748 30.8126C32.5982 30.9087 32.6261 31.0018 32.6598 31.0843C32.6884 31.1545 32.7281 31.2347 32.7851 31.303C32.7865 31.3075 32.7883 31.3135 32.7904 31.3214C32.7999 31.3584 32.8091 31.4146 32.816 31.4916C32.8298 31.6448 32.8317 31.8465 32.8248 32.072C32.811 32.5211 32.7634 33.0308 32.7236 33.3626L32.7203 33.3904L32.7219 33.4184C32.757 34.008 32.8054 34.91 32.837 35.6997C32.8529 36.0949 32.8644 36.4598 32.868 36.7428C32.8697 36.8845 32.8695 37.0031 32.867 37.0935C32.8657 37.1387 32.864 37.1746 32.8619 37.2015L32.8615 37.207C32.8468 37.2265 32.8244 37.2539 32.7924 37.2897C32.7191 37.372 32.612 37.481 32.4756 37.6126C32.2036 37.8749 31.8307 38.2119 31.4158 38.5764C30.6407 39.2574 29.7289 40.0258 29.0786 40.5648C28.9099 40.4503 28.6973 40.3728 28.4511 40.3823C28.0931 40.396 27.8365 40.5376 27.6658 40.7422C26.9044 40.3424 25.8681 39.7567 24.9624 39.1568C24.4558 38.8213 23.9964 38.4855 23.65 38.1786C23.4768 38.0251 23.3366 37.883 23.2339 37.7556C23.1434 37.6433 23.0916 37.5541 23.0669 37.488V35.6659C23.0669 35.5897 23.0851 35.4408 23.1186 35.2319C23.1451 35.0667 23.1786 34.8785 23.2136 34.6824L23.2136 34.6823L23.2375 34.5482C23.2804 34.3063 23.3234 34.0584 23.3542 33.8417C23.384 33.6317 23.4059 33.428 23.3984 33.2846C23.3886 33.0974 23.3418 32.8834 23.3002 32.6935C23.2857 32.627 23.2718 32.5635 23.2603 32.505C23.2107 32.2519 23.1951 32.0546 23.244 31.8983C23.3198 31.6563 23.4111 31.2616 23.4802 30.8858C23.5474 30.5202 23.6023 30.1284 23.5878 29.9096C23.5755 29.7235 23.5302 29.5082 23.4899 29.3173L23.4789 29.2648C23.4331 29.046 23.3988 28.8658 23.3988 28.7322C23.3988 28.6698 23.4072 28.5796 23.4179 28.4657C23.4445 28.1828 23.4847 27.7538 23.4429 27.2419C23.6449 27.4509 23.9849 27.6801 24.4333 27.6801C24.975 27.6801 25.4345 27.18 25.6599 26.8371L25.7298 26.8583C25.8519 26.8953 25.9807 26.8255 26.0174 26.7023C26.0541 26.5792 25.9848 26.4494 25.8627 26.4123L23.3951 25.6644C23.4544 25.1516 23.59 24.5488 23.8503 23.9222C23.8807 23.8863 23.8989 23.8424 23.9039 23.7969C24.167 23.1992 24.5454 22.584 25.0804 22.008C25.1821 21.8985 25.1766 21.7266 25.068 21.6241C24.9959 21.556 24.8965 21.5356 24.8081 21.5616C24.5805 21.1418 24.2414 20.5803 23.8869 20.12C23.6912 19.866 23.4856 19.636 23.2867 19.478C23.097 19.3274 22.8711 19.2086 22.651 19.2678C22.5151 19.3044 22.437 19.4073 22.4034 19.5262C22.3722 19.6366 22.3759 19.7681 22.3957 19.9025C22.4356 20.174 22.5518 20.5216 22.7012 20.8878C22.9856 21.5843 23.4071 22.3865 23.7274 22.9464C23.6769 23.0355 23.629 23.1246 23.5835 23.2137C23.1553 22.5418 22.6509 21.6456 22.2846 20.7613C22.0592 20.2171 21.89 19.6866 21.8201 19.221C21.7493 18.75 21.7853 18.3796 21.9293 18.1266C21.9973 18.0071 22.0695 17.9564 22.1365 17.9352C22.2082 17.9126 22.3071 17.9135 22.4421 17.959C22.7195 18.0523 23.0685 18.3054 23.4523 18.6734ZM31.1356 26.4957L31.4551 26.4102C31.5369 26.4515 31.593 26.5368 31.593 26.6353C31.593 26.7744 31.4812 26.8871 31.3433 26.8871C31.2055 26.8871 31.0937 26.7744 31.0937 26.6353C31.0937 26.5837 31.1091 26.5357 31.1356 26.4957ZM23.9312 26.6353C23.9312 26.5016 24.0347 26.3921 24.1654 26.3841L24.3312 26.4343C24.3915 26.4803 24.4305 26.5532 24.4305 26.6353C24.4305 26.7744 24.3187 26.8871 24.1809 26.8871C24.043 26.8871 23.9312 26.7744 23.9312 26.6353ZM31.4223 21.588C31.7079 21.8227 31.9488 22.0815 32.1516 22.3556C32.3823 21.8811 32.6564 21.2803 32.8672 20.7378C32.999 20.3988 33.1038 20.088 33.1588 19.8471C33.1864 19.7261 33.1998 19.6297 33.2 19.5596C33.2 19.5335 33.1983 19.5149 33.1962 19.502C33.1594 19.5163 33.1045 19.5492 33.0314 19.6079C32.8763 19.7326 32.6811 19.9389 32.4696 20.19C32.1073 20.6203 31.7143 21.1613 31.4223 21.588ZM33.4824 37.1108C33.4842 37.048 33.4849 36.9757 33.4848 36.8955C33.5607 36.8886 33.6426 36.8867 33.7246 36.8932C33.9244 36.9092 34.0819 36.9713 34.1766 37.0832C34.2492 37.1691 34.2729 37.3235 34.2132 37.5566C34.1563 37.7786 34.0402 38.0001 33.9515 38.1322C33.8681 38.2564 33.9004 38.4253 34.0236 38.5094C34.1468 38.5935 34.3142 38.561 34.3976 38.4368C34.4417 38.3711 34.4909 38.289 34.539 38.1958C35.0184 38.4405 35.1638 38.8591 35.1855 39.0639C35.0829 39.3128 34.8278 39.5768 34.4199 39.8416C33.9947 40.1176 33.4425 40.3697 32.8369 40.5919C31.7175 41.0027 30.4511 41.2989 29.5538 41.4588C29.5556 41.4283 29.5564 41.4008 29.5569 41.3774C29.5592 41.264 29.5298 41.147 29.4793 41.0363C30.1319 40.4954 31.0432 39.7272 31.8202 39.0446C32.2374 38.678 32.6187 38.3336 32.9011 38.0613C33.0417 37.9257 33.1617 37.8042 33.2504 37.7047C33.2944 37.6553 33.3348 37.6068 33.3671 37.5616C33.3913 37.5277 33.4399 37.4576 33.459 37.3728C33.4748 37.3025 33.4799 37.2029 33.4824 37.1108ZM22.7303 19.5678C22.798 19.5496 22.9169 19.5795 23.0963 19.722C23.2665 19.8571 23.4543 20.0645 23.6438 20.3105C24.0015 20.7749 24.3468 21.3523 24.5687 21.7676C24.3163 22.0532 24.0981 22.3467 23.9099 22.6426C23.6069 22.1024 23.2393 21.3901 22.9859 20.7696C22.8386 20.4088 22.7344 20.0897 22.7002 19.8569C22.6828 19.739 22.686 19.659 22.6995 19.6112C22.7102 19.5731 22.7216 19.5701 22.7296 19.568L22.7303 19.5678ZM21.891 40.5537C21.8665 40.2763 21.953 39.9829 22.0798 39.7353C22.1421 39.7968 22.2041 39.8522 22.2632 39.9007C22.3787 39.9953 22.5484 39.9775 22.6421 39.8611C22.7359 39.7446 22.7183 39.5735 22.6028 39.479C22.3182 39.2459 22.0299 38.8789 21.9837 38.5233C21.9621 38.3576 21.9918 38.1898 22.1089 38.0213C22.1944 37.8982 22.3325 37.7664 22.5478 37.6364C22.5989 37.7962 22.6981 37.9521 22.8158 38.0982C22.9439 38.2572 23.1079 38.4214 23.2945 38.5867C23.6677 38.9174 24.1504 39.269 24.6666 39.6109C25.5954 40.2261 26.6534 40.8235 27.4276 41.2297C27.4084 41.3044 27.3961 41.3732 27.3873 41.4306L27.3815 41.469L27.3852 41.5076C27.3945 41.6054 27.4255 41.7209 27.485 41.8367C26.9884 41.8974 26.307 41.9488 25.5767 41.9433C24.6478 41.9363 23.6621 41.8373 22.8805 41.5623C22.6716 41.4887 22.5055 41.4046 22.3741 41.3155C22.3466 41.2552 22.2973 41.2049 22.2317 41.1778C22.2167 41.1716 22.2015 41.1669 22.1862 41.1635C22.1616 41.1395 22.139 41.1154 22.1182 41.0912C21.9739 40.9233 21.9074 40.7405 21.891 40.5537ZM28.4745 41.0027C28.6094 40.9975 28.7274 41.0569 28.8177 41.1493C28.8628 41.1956 28.8964 41.2459 28.9175 41.2906C28.928 41.3128 28.9344 41.3315 28.9379 41.3456L28.9394 41.3524L28.9403 41.3569L28.9409 41.3609L28.9413 41.3649L28.9413 41.365L28.9413 41.3647C28.939 41.4824 28.9245 41.5943 28.8771 41.6725C28.8473 41.7219 28.7817 41.8003 28.5535 41.8003C28.3056 41.8003 28.1753 41.7213 28.1056 41.6521C28.0444 41.5914 28.015 41.5233 28.0036 41.4784C28.025 41.3595 28.0591 41.2482 28.1194 41.1645C28.175 41.0873 28.2679 41.0106 28.4745 41.0027ZM28.8742 26.8273C29.1029 26.8001 29.3063 26.9046 29.5194 27.0755C29.7478 27.2587 29.7741 27.5716 29.7495 27.8258C29.7289 28.0385 29.669 28.2526 29.6089 28.4153C29.7945 28.5692 30.0167 28.7765 30.1533 29.0187C30.2345 29.1626 30.29 29.3267 30.2842 29.5044C30.2783 29.6844 30.21 29.8634 30.0687 30.0353C30.017 30.0983 29.9585 30.1485 29.8952 30.1876C29.8457 30.3894 29.732 30.6468 29.5286 30.8649C29.2887 31.1223 28.9274 31.3206 28.4179 31.3102C27.4498 31.2906 27.057 30.5833 26.9647 30.1674C26.8511 30.1186 26.7419 30.0452 26.6427 29.9418C26.5053 29.7984 26.4466 29.6329 26.4496 29.4628C26.4525 29.2983 26.5127 29.14 26.593 29.0006C26.7245 28.7726 26.9258 28.5674 27.0996 28.4234C27.023 28.2715 26.9484 28.0725 26.922 27.8662C26.8876 27.597 26.9335 27.285 27.2044 27.0741C27.4583 26.8765 27.7255 26.8584 27.9496 26.918C28.1012 26.9583 28.2332 27.0337 28.3332 27.1112C28.5168 26.9548 28.6897 26.8493 28.8742 26.8273ZM29.3043 30.6523C29.4079 30.5412 29.4823 30.4166 29.5325 30.3006C29.4063 30.3107 29.2769 30.2971 29.1549 30.2687C28.8493 30.1972 28.5431 30.0239 28.344 29.8137C28.1812 29.9973 27.9061 30.1618 27.6081 30.2225C27.5114 30.2422 27.4104 30.2513 27.3086 30.246C27.4295 30.5671 27.7507 30.9862 28.4241 30.9999C28.8417 31.0083 29.1206 30.8493 29.3043 30.6523ZM29.2244 29.9662C29.3904 30.005 29.5373 30.0031 29.654 29.9607C29.6776 29.9372 29.7084 29.9217 29.742 29.9172C29.7759 29.8953 29.8059 29.8687 29.8317 29.8373C29.9353 29.7111 29.9732 29.5966 29.9765 29.4942C29.98 29.3895 29.9477 29.2821 29.8857 29.1722C29.7588 28.9472 29.527 28.7445 29.3281 28.5859L29.2351 28.5118L29.2824 28.4022C29.3457 28.2557 29.4214 28.0202 29.4431 27.7957C29.466 27.5599 29.4246 27.3961 29.3277 27.3184C29.1342 27.1632 29.0143 27.1232 28.9103 27.1356C28.7966 27.1492 28.6573 27.2292 28.4373 27.4325L28.3267 27.5347L28.2225 27.4258C28.1532 27.3534 28.0235 27.2587 27.8711 27.2182C27.7255 27.1795 27.56 27.1894 27.3925 27.3198C27.2422 27.4369 27.2003 27.6156 27.2273 27.8265C27.2545 28.0388 27.3496 28.2526 27.4293 28.3824L27.5045 28.5048L27.3892 28.5896C27.2172 28.716 26.99 28.9297 26.8592 29.1567C26.7942 29.2695 26.759 29.3752 26.7574 29.4683C26.7558 29.556 26.7834 29.6419 26.864 29.7259C27.0562 29.9263 27.304 29.9678 27.5471 29.9183C27.7958 29.8676 28.0185 29.7245 28.1292 29.5896C28.1844 29.5223 28.2648 29.4953 28.3312 29.4919C28.3973 29.4885 28.4845 29.5072 28.5465 29.5773C28.6979 29.7486 28.9605 29.9046 29.2244 29.9662ZM27.9503 27.9538C28.0333 28.0826 28.0463 28.2227 27.9793 28.2666C27.9124 28.3104 27.7908 28.2416 27.7078 28.1128C27.6247 27.9839 27.6117 27.8439 27.6787 27.8C27.7457 27.7561 27.8673 27.825 27.9503 27.9538ZM28.6226 28.2261C28.5557 28.1822 28.5687 28.0422 28.6517 27.9134C28.7347 27.7845 28.8563 27.7157 28.9233 27.7596C28.9902 27.8035 28.9772 27.9435 28.8942 28.0723C28.8112 28.2011 28.6896 28.27 28.6226 28.2261Z" fill="black"/>
</svg>
