<!-- by TradingView --><svg width="56" height="56" viewBox="0 0 56 56" xmlns="http://www.w3.org/2000/svg"><path fill="#000749" d="M0 0h56v56H0z"/><path d="M28 11v11.97l2.2 5.4-2.2-1.83v5.75l.07.07A42.9 42.9 0 0 0 41 43L28 11Z" fill="url(#awg1banz2)"/><path d="M28 11v11.97l-2.2 5.4 2.2-1.83v5.75l-.07.07A42.9 42.9 0 0 1 15 43l13-32Z" fill="url(#bwg1banz2)"/><path d="M28 40a3 3 0 1 0 0-6 3 3 0 0 0 0 6Z" fill="#F5CC02"/><defs><linearGradient id="awg1banz2" x1="34.5" y1="11" x2="34.5" y2="43" gradientUnits="userSpaceOnUse"><stop stop-color="#F5F6F8"/><stop offset=".73" stop-color="#B6B8CB"/></linearGradient><linearGradient id="bwg1banz2" x1="16.54" y1="40.8" x2="27.73" y2="17.12" gradientUnits="userSpaceOnUse"><stop stop-color="#F8F8FA"/><stop offset="1" stop-color="#A6A8BF"/></linearGradient></defs></svg>