<!-- by TradingView --><svg width="56" height="56" viewBox="0 0 56 56" xmlns="http://www.w3.org/2000/svg"><path fill="#F0F3FA" d="M0 0h56v56H0z"/><path d="M30.09 12.03c.46.02.9.23 1.21.55l14.07 14.04c.62.63.79 1.32.48 2.08-.1.23-.27.48-.54.75-4.52 4.54-9.18 9.16-13.97 13.96a1.83 1.83 0 0 1-1.28.56.09.09 0 0 1-.06-.08V12.1c0-.06.03-.08.09-.08Z" fill="#6667AA"/><path d="M27 17.96c-.54.04-.97.17-1.3.37l-10.56 6.62c-.03.01-.04.04-.03.08 0 .03.02.06.05.08a6113.69 6113.69 0 0 0 4.53 2.84.1.1 0 0 1 0 .1 318.53 318.53 0 0 1-4.26 2.68l-.25.2a.12.12 0 0 0 .02.18l10.5 6.58c.31.2.75.32 1.3.38v5.84a.09.09 0 0 1-.03.07.09.09 0 0 1-.06.02 2.59 2.59 0 0 1-1.46-.47L11.8 34.98l-.45-.3c-.58-.45-.36-1.15.18-1.49a762.8 762.8 0 0 1 3.42-2.15.08.08 0 0 0 0-.08 2018.65 2018.65 0 0 1-3.24-2.02c-.5-.31-.94-.75-.58-1.34.1-.16.25-.32.48-.46a3928.09 3928.09 0 0 1 3.36-2.1.06.06 0 0 0-.02-.07l-3.43-2.14c-.62-.4-.72-1.16-.07-1.57 4.7-2.93 9.38-5.87 14.04-8.8a2.6 2.6 0 0 1 1.45-.45.09.09 0 0 1 .05.04l.01.03v5.88Z" fill="#B3B3D5"/><path d="M27 17.96v6c-.48 0-.9.11-1.22.31a1001.89 1001.89 0 0 0-5.84 3.69.12.12 0 0 0 .04.16l5.5 3.45c.2.13.56.32.75.36l.77.15v6a3.12 3.12 0 0 1-1.3-.4 25613.95 25613.95 0 0 1-10.54-6.6.12.12 0 0 1 0-.1c0-.02 0-.04.02-.05l.25-.2a317.23 317.23 0 0 0 4.26-2.68.1.1 0 0 0 0-.1 5912.27 5912.27 0 0 1-4.53-2.85.12.12 0 0 1-.05-.07c-.01-.04 0-.07.03-.08l10.57-6.62c.32-.2.75-.33 1.29-.37Z" fill="#8B8DC0"/><path d="M27 23.95v8.13l-.77-.15c-.2-.04-.54-.23-.75-.36a6051.14 6051.14 0 0 0-5.54-3.5.12.12 0 0 1 0-.11 1003.92 1003.92 0 0 1 5.84-3.68c.33-.21.73-.32 1.21-.33Z" fill="#787AB5"/></svg>