<!-- by TradingView --><svg width="56" height="56" viewBox="0 0 56 56" xmlns="http://www.w3.org/2000/svg"><path fill="#F0F3FA" d="M0 0h56v56H0z"/><path d="M18.2 43.93a.44.44 0 0 1-.6-.13l-.52-.77a.47.47 0 0 1 .1-.63 20.11 20.11 0 0 0 4.18-4.5 17.54 17.54 0 0 0 0-19.8 20.11 20.11 0 0 0-4.18-4.5.47.47 0 0 1-.1-.63l.51-.77c.14-.2.4-.26.6-.13l22.85 14.2a2.05 2.05 0 0 1 0 3.47L18.2 43.94Z" fill="url(#a2zwbuwop)"/><defs><linearGradient id="a2zwbuwop" x1="44.92" y1="28.28" x2="7.81" y2="28.28" gradientUnits="userSpaceOnUse"><stop stop-color="#3568DD"/><stop offset="1" stop-color="#3568DD" stop-opacity=".6"/></linearGradient></defs></svg>