<!-- by TradingView --><svg width="56" height="56" xmlns="http://www.w3.org/2000/svg"><path fill="url(#paint0_linear)" d="M0 0h56v56H0z"/><path fill-rule="evenodd" d="M21.798 15.546a11.32 11.32 0 014.458-.94l-1.481-1.512s5.96-1.027 13.58 3.715c0 0 .109.242 0 .933 0 0 3.612 1.606 3.9 4.704.308 3.1-1.588 4.873-3.123 5.115 0 0 .794-1.269-.434-1.96a1.598 1.598 0 00-.885-.186c-2.347 0-2.618 2.744-2.618 2.744.09 4.35 7.06 4.35 8.807 4.35C42.52 38.27 35.84 43 29.18 43 22.979 43 13 38.562 13 27.841c0-3.414 2.71-9.652 8.798-12.295zm14.318 1.879c-.38.392-.705.56-.795.616l-.036.018c-2.149-.485-2.925-1.605-2.925-1.605a9.85 9.85 0 015.2 1.307s-.722-.243-1.444-.336z" fill="#fff"/><ellipse cx="28.501" cy="20.505" rx="11.14" ry="8.819" fill="url(#paint1_linear)"/><defs><linearGradient id="paint0_linear" x1="28" y1="0" x2="28" y2="56" gradientUnits="userSpaceOnUse"><stop stop-color="#02E8F7"/><stop offset="1" stop-color="#03CCFD"/></linearGradient><linearGradient id="paint1_linear" x1="28.501" y1="11.686" x2="28.501" y2="29.324" gradientUnits="userSpaceOnUse"><stop stop-color="#2CD3E1" stop-opacity="0"/><stop offset="1" stop-color="#01BBED"/></linearGradient></defs></svg>