<!-- by TradingView --><svg width="56" height="56" viewBox="0 0 56 56" xmlns="http://www.w3.org/2000/svg"><path fill="url(#az1toqevo)" d="M0 0h56v56H0z"/><path d="M43.5 21.6c-.1.55-.21.82-.35 1.13-.14.34-.3.72-.45 1.48-.06.3-.1.53-.12.73v.02a4.52 4.52 0 0 1-.91 2.28c-.35.45-.93 1.2-1.7 1.3a.7.7 0 0 1-.27-.02c-2.2-1.1-4.08-1.9-4.74-2.09-.76-.2-.66-1.82-.57-3.25.03-.63.07-1.23.04-1.75-.1-1.8-.43-3.77-2.04-4.73a6.7 6.7 0 0 0-3.38-.74c.22-.1.46-.24.73-.39.7-.4 1.57-.88 2.43-.97l.83-.09c1.73-.19 3.22-.35 4.8.17.72.24 2.18 1.04 2.56 1.78.27.52.72.93 1.62 1.74.46.43.77.67 1 .85v.01c.32.26.38.3.48.5.29.57.18 1.19.04 2.04ZM35.46 28.97c.13.05.18.2.1.3-.23.35-.49.81-.8 1.37l-.41.74a3.55 3.55 0 0 0-.49 1.79c-.03.5-.05.73-.36.93-.26.17-.52.23-2.33.5a2.05 2.05 0 0 0-.63.18c-.13.05-.25-.06-.25-.19.02-.24.02-.55.02-.92v-.08c.01-.34 0-.62-.01-.85-.03-.45-.03-.64.1-.83.14-.24.26-.31.46-.43.27-.17.64-.4 1.19-1.13.29-.4.35-.6.4-.78.01-.08.02-.1.24-.27.24-.18.96-.71 1.89-.56.24.04.55.12.88.23ZM28.31 37.11a.19.19 0 0 1-.15.08c-.19 0-.32-.04-.41-.14-.19-.22-.16-.67-.12-.93l.77-.2c.06.4.08.97-.09 1.2ZM28.37 34.43l-.02.35v.15l-.01.4c-.24.09-.44.09-.71.08v-.62c0-.14 0-.38.04-.45.07 0 .15-.02.23-.04.15-.03.36-.08.5-.06l-.03.19ZM26.96 36.89c-.04.38-.16.85-.53.92-.16.03-.24-.01-.3-.06-.24-.22-.28-.9-.25-1.39.17 0 .39-.03.64-.08l.44-.09c.01.18.02.44 0 .7ZM26.78 35.51l-.82.29c.04-.32.1-.76.11-1.05.02-.2.08-.27.1-.28 0-.01 0-.02.04-.02h.03l.53-.02c.02.24.02.76.01 1.08ZM25.44 35.26c-.04.12-.1.47-.13.71l-1.04-.03c.06-.31.14-.63.23-.89.09-.25.18-.44.27-.5.1-.05.34-.07.48.05.23.19.3.4.2.66ZM25.06 38.36a.39.39 0 0 1-.28.18c-.12 0-.2-.02-.28-.08-.32-.3-.3-1.26-.28-1.72.43-.1.9-.18 1.11-.19.04.39.05 1.39-.27 1.81ZM23.7 35.91l-.14.37c-.12.04-.49 0-.86-.08l.26-1.59c.42-.11.92-.15 1.04-.02.15.16-.16.98-.3 1.32ZM23.23 38.6c-.2.25-.5.36-.93.36-.29 0-.4-.12-.44-.2-.24-.36 0-1.21.22-1.75l1.4.08.04.34c.02.38-.03.87-.29 1.18Z" fill="#fff"/><path d="M34.86 27.04c-1.27-.35-1.16-2.16-1.05-3.9.04-.62.07-1.2.04-1.68-.1-1.64-.38-3.41-1.72-4.22-1.45-.86-3.83-.67-5.29-.49a4.6 4.6 0 0 1-1.43.25c-.87-.05-1.54-.4-2.13-.71a2.93 2.93 0 0 0-1.3-.46c-1.14.08-1.66.35-2.14.76-.11.1-.26.4-.74 1.73-.24.68-.28 1.05-.32 1.4-.04.34-.09.67-.26 1.18-.13.34-.22.64-.31.93a5.73 5.73 0 0 1-.98 2.1l-.24.34c-.12.2-.28.44-.49.72-.14.2-.48.93-.46 1.16.03.35.15.57.28.83.14.26.3.55.32.95v.06c.06.63-.04.95-1.27 2.02-.79.7-1.35 1.36-1.73 1.84-.03.05.01.1.07.1h.03a.94.94 0 0 1 .22 0c.3.04.59.16.8.38.03.03.09.04.14.02.2-.08.42-.06.63-.05.25.03.5.1.68.25.06.06.15.09.24.07.2-.04.4-.03.6.04a1 1 0 0 1 .35.22c.1.1.26.11.37.05l.15-.07c.27-.08.56-.03.83.06.12.04.26.08.37.16.2.12.32.3.4.5.07.15.28.2.41.1.17-.11.3-.13.44-.07.06.03.1.06.13.1.1.1.26.21.4.18.41-.1.9-.03 1.26.16.13.07.26.17.36.33l.01-.07c0-.04.03-.06.06-.07l.09-.03c.2-.06 1.25-.35 1.66.06.01.02.05.02.06 0 .06-.05.1-.09.13-.1a.94.94 0 0 1 1.02.08c.07.05.16.03.21-.03a.55.55 0 0 1 .49-.23l.57-.03a8.37 8.37 0 0 0 .77-.07c.06 0 .13-.02.2-.04.28-.06.6-.12.86 0 .25.1.22.38.19.63-.01.1-.03.2-.02.3v.14c0 .2 0 .4-.04.55l.03.12c.03.11.15.18.26.12a1.95 1.95 0 0 0 .47-.38l.04-.17c.04-.21.07-.63.08-1.5v-.09c0-.31 0-.57-.02-.8-.02-.46-.04-.83.2-1.2.23-.37.45-.5.67-.64.25-.15.53-.32 1-.96.24-.31.27-.44.3-.54.04-.24.12-.38.48-.65.3-.21 1.2-.87 2.4-.67a10.07 10.07 0 0 1 1.77.55c.54.21 1.07.45 1.43.64.1.06.22.02.3-.06.1-.13.22-.21.35-.29l.13-.08c.12-.1.12-.3-.02-.37a22.09 22.09 0 0 0-3.79-1.46Zm-12.07.38c-.4 1.67-3.05 3.5-4.26 3.5h-.02a.58.58 0 0 1-.14-.01l-.04-.02a2.05 2.05 0 0 1-.75-.45 1.05 1.05 0 0 1-.33-.52l-.02-.1a1.7 1.7 0 0 1 .11-1.22l.1-.22.03-.06a12.97 12.97 0 0 0 .19-.48c.07-.2.08-.27.1-.35a8.68 8.68 0 0 0 .2-1.06c.05-.42.1-.8.34-1.13a.94.94 0 0 1 .13-.15l.05-.05.06-.04a1.15 1.15 0 0 1 .4-.18 4.76 4.76 0 0 1 2.37.38c.04.03.09.04.13.06l.14.06.04.02a2.9 2.9 0 0 1 .77.52c.51.52.48 1.13.4 1.5Zm1.23-6.34-.05.3c-.12.69-.4 1.62-1.4 1.87-.98.23-1.2.28-1.9.3h-.05c-.5 0-1.47-.3-1.64-1.07-.11-.5.11-.86.48-1.45l.2-.33c.49-.8.68-1.38.84-1.85.15-.45.27-.83.6-1.14a1.79 1.79 0 0 1 .74-.43c.22-.07.47-.11.71-.11.47 0 .94.13 1.28.4.15.11.36.35.49 1.04.06.36-.05 1.02-.3 2.47Zm7.2 1.95c-.35.58-.54.9-.84 1.14-.6.47-1.29.6-1.86.6-.41 0-.76-.07-.97-.1-.59-.11-1.69-.3-2.05-1.15a.89.89 0 0 1-.08-.4c0-.14 0-.37-.06-.9v-.03a2.51 2.51 0 0 1 0-.87l.01-.04c.21-1.03.27-1.18.31-1.27.11-.2.36-.28.57-.18.2.1.29.34.2.54-.03.06-.09.27-.25 1.07v.04c-.05.23-.03.4 0 .61v.04c.07.58.07.84.07.98V23.2c.07.14.2.25.36.34.14.08.29-.06.26-.2-.18-.9-.16-1.92.19-2.56.11-.22.33-.57.53-.9l.07-.1.05-.09.24-.39.03-.04a.4.4 0 0 1 .02-.03l.04-.06.01-.03.03-.04.02-.03v-.01l.16-.2c.1-.16-.02-.35-.2-.27-.29.13-.49.27-.53.3a.43.43 0 0 1-.6-.06.4.4 0 0 1 .07-.58 3.28 3.28 0 0 1 2.75-.6c1 .28 1.52 1.02 1.71 1.3.16.22.65.9.63 1.87-.01.73-.32 1.25-.9 2.2Z" fill="#fff"/><path d="m22.26 18.02-.25.6c-.2.51-.45 1.1-.56 1.32-.2.36-.36.6-.48.78-.14.22-.26.39-.34.63a2.6 2.6 0 0 0-.08 1.38c-.27-.03-.7-.2-.75-.43-.03-.16.07-.35.38-.85l.2-.33c.55-.88.76-1.53.92-2.01.17-.53.26-.74.53-.93.12-.08.27-.13.43-.16ZM21.74 36.5c-.3.59-.66 1.13-.89 1.4a6.52 6.52 0 0 1-.42-2.63c.04-.28.11-.54.25-.75.1-.13.34-.22.62-.22.21 0 .44.05.64.15.1.06.25.17.26.49.02.43-.19 1.02-.46 1.57Z" fill="#fff"/><path d="M37.77 29.98c.03.01.04.04.03.07-.09.17-.2.29-.32.43-.15.17-.32.37-.48.67-.22.44-.3.84-.33 1.85-.05 1.2 0 1.86.03 2.35.04.47.06.76-.03 1.22a5.95 5.95 0 0 1-1.1 2.32c-.64.97-1.3 1.97-2.41 2.3-.1.03-.1.03-.4.03-.25 0-.67 0-1.46.03-1.44.05-2.16.07-2.78.19-.65.12-1 .26-1.32.39-.3.11-.58.22-1.12.33-.32.06-.8.13-2.43.14-1.7 0-2.72 0-4.07-.15-1.86-.2-2.79-.31-3.4-.63-1.46-.76-2.08-2.13-3.1-4.38v-.02c-.02-.02.02-.05.04-.04a.73.73 0 0 0 .3.1.89.89 0 0 0 .33 0h.01c.02-.02.04 0 .05 0 .06.18.16.34.34.43.17.09.37.1.56.09.2 0 .4-.01.6-.04.1 0 .2.04.25.14.18.43.4.74.74.78h.07c.07 0 .17-.01.3-.09.16-.09.4-.03.53.1.07.1.15.15.22.2.35.36 1.2.52 1.9.52.39 0 .73-.05.94-.14.29-.14.29-.35.27-.44l-.06-.46c0-.01.02-.02.03 0 .04.09.1.2.23.22h.06c.2 0 .5.07.55.25.03.1.07.19.12.27.12.18.36.4.84.4h.04c.54 0 .97-.17 1.25-.52l.06-.07c.1-.14.4-.14.54-.03a.79.79 0 0 0 .64.2.87.87 0 0 0 .61-.37c.1-.14.18-.31.24-.5.02-.06.1-.07.14-.04.1.1.27.2.51.2.06 0 .13 0 .2-.02.47-.1.71-.48.82-.91 0-.02.03-.02.04-.01.12.14.34.3.73.3h.06c.2 0 .38-.09.5-.25.15-.18.21-.46.23-.73 0-.1.07-.2.17-.24.4-.17.88-.52 1.02-.76a.3.3 0 0 1 .2-.15c.3-.06.44-.12.56-.17.1-.04.18-.08.42-.11 1.83-.28 2.19-.34 2.58-.6.6-.38.63-.91.66-1.42.02-.44.05-.93.4-1.51l.42-.76c.27-.47.63-1.14.9-1.5.06-.08.18-.11.27-.07.62.26 1.15.52 1.26.6Z" fill="#fff"/><path d="M19.96 35.3a11.71 11.71 0 0 0 .1 3.45c-.08.05-.34.11-.8.1-.67 0-1.31-.17-1.5-.37l-.04-.03c-.16-.13-.27-.21-.28-.44 0-.07.03-.15.1-.25l.16-.22c.1-.15.25-.33.39-.56a11.75 11.75 0 0 1 .82-1.23c.12-.16.26-.34.46-.65a13.23 13.23 0 0 1 .76-.99c0 .11-.03.26-.06.4-.03.21-.08.47-.11.78ZM19.65 25.68v.02c-.1.12-.2.25-.31.5-.32.69-.32 1.08-.33 1.39 0 .16 0 .3-.05.44l-.14.35c-.19.42-.43.96-.32 1.7-.15-.07-.39-.23-.42-.32l-.02-.12c-.06-.23-.1-.38.06-.71a4.5 4.5 0 0 0 .5-1.5c.08-.34.13-.64.16-.88.05-.37.09-.6.22-.79.04-.06.17-.1.36-.1.07 0 .15 0 .24.02h.05ZM19.13 34.4a2.32 2.32 0 0 0-.13-.63l-.04-.07-.04-.07-.03-.03a.56.56 0 0 0-.08-.06l-.04-.03-.03-.01h-.02v-.01h-.01c-.13-.05-.26-.1-.4-.12h-.15l-.1.03-.03.02-.04.02-.05.04a.55.55 0 0 0-.03.04l-.01.02a11.7 11.7 0 0 1-.53.77l-.35.49-.19.27c0 .02-.02.03-.03.05l.23.04.5.08a6.5 6.5 0 0 0 1.14.06 18.45 18.45 0 0 0 .52-.75.34.34 0 0 1-.06-.15ZM17.87 35.83a4.68 4.68 0 0 1-1.5 2.3c-.2-.03-.39-.5-.54-.96l-.16-.53c-.1-.35-.12-.82-.1-1.11.4.21 1.1.27 2.1.28l.2.02ZM17.16 33.63l-.01.02a40.73 40.73 0 0 0-.78 1.11l-.17.23-.42-.1a3.67 3.67 0 0 1-.4-.14.28.28 0 0 0-.08-.1l.12-.24c.08-.15.15-.3.24-.43a1.99 1.99 0 0 1 .63-.71c.1-.06.2-.1.32-.12h.18l.09.03.03.02.08.05.05.05c.08.1.1.2.12.33ZM15.81 32.93c-.32.26-.55.6-.74.95l-.3.59-.04.06a3.14 3.14 0 0 1-.7-.25 7.22 7.22 0 0 1 .81-1.18c.06-.08.13-.17.23-.22.1-.05.21-.04.32-.04.12.01.24.01.35.06a.4.4 0 0 1 .07.03ZM15.3 37.07a.24.24 0 0 0-.03.05h-.03a5.66 5.66 0 0 1-.68.03c-.08 0-.16-.01-.19-.07-.05-.08-.07-.22-.1-.33a5.21 5.21 0 0 1-.03-1.6c.28.1.57.17.87.22a4.39 4.39 0 0 0 .2 1.7ZM14.4 32.76c-.25.3-.48.62-.68.95-.09.13-.18.27-.25.41-.1-.02-.19-.06-.28-.12l-.21-.14-.1-.08-.02-.01.1-.18a4.57 4.57 0 0 1 .56-.9c.05-.07.1-.16.19-.18a.76.76 0 0 1 .7.25ZM12.47 34.06h.04c.06.09.15.16.25.24l.13.1v.01c-.1.4-.16.84-.17 1.27 0 .02-.03.02-.04 0a5.07 5.07 0 0 1-.2-1.62ZM13.7 34.97a5.97 5.97 0 0 0 0 1.7.38.38 0 0 0-.14 0l-.03-.01h-.02l-.1-.05a.5.5 0 0 1-.15-.16 1.2 1.2 0 0 1-.13-.56c-.01-.38.02-.76.1-1.12l.2.08.27.12Z" fill="#fff"/><path d="M43.37-3.34c-1.9-.46-3.92-.94-6.26-1.04-2.72-.12-5.87.27-9.84 1.78-2.62.99-5.13.85-7.72.7-2.58-.15-5.23-.3-7.98.79C4.9 1.5 2.07 5.19 1.1 9.25a25.5 25.5 0 0 1-2.87 7.45 22.9 22.9 0 0 0-2.38 5.79c-.26.87-.44 1.49-.69 2.07-.33.79-.77 1.5-1.68 2.64-2.68 3.34-2.89 6.26-2.89 9.65 0 .97.29 2.22.6 3.34l.44 1.49c.16.52.3.96.37 1.3A21.87 21.87 0 0 0 2 56.64c5.25 3.28 11.04 4.76 17.7 4.76a41.47 41.47 0 0 0 8.57-.85c1.48-.27 2.7-.5 4.03-.5 3.33 0 8.02-.64 11.41-2.74 3.21-1.98 5.02-4.53 6.83-7.08l.29-.4c.86-1.21 1.32-1.87 1.79-2.84.45-.96.9-2.22 1.76-4.64l.02-.08c.78-2.2 1.11-3.14 1.58-3.88.4-.63.9-1.1 1.91-2.05l.58-.55a8.86 8.86 0 0 0 2.34-3.9c.16-.44.3-.91.46-1.41.37-1.19.8-2.55 1.5-4.21 1.41-3.4 2-5.65 1.42-8.95-.7-4.02-1.18-6.06-2.88-8.23l-.33-.43c-.83-1.06-1.32-1.69-1.88-2.3-.62-.7-1.34-1.38-2.73-2.68-3.49-3.27-7.6-5.77-12.08-6.8l-.9-.22ZM27.55-1.85a23.42 23.42 0 0 1 9.53-1.73c2.25.1 4.19.56 6.1 1.01l.92.22c4.32 1 8.3 3.41 11.72 6.61 1.4 1.3 2.08 1.97 2.68 2.63.53.6 1 1.2 1.84 2.27l.33.42c1.57 2 2.02 3.85 2.72 7.88.54 3.08.01 5.17-1.37 8.5a47.8 47.8 0 0 0-1.53 4.31c-.16.5-.3.95-.45 1.37a8.08 8.08 0 0 1-2.13 3.57l-.56.54c-1.01.95-1.6 1.5-2.05 2.21-.52.81-.89 1.85-1.61 3.9l-.08.22a51.93 51.93 0 0 1-1.73 4.56c-.42.9-.85 1.5-1.72 2.72l-.27.39c-1.82 2.56-3.54 4.99-6.6 6.88-3.22 1.99-7.73 2.63-11 2.63-1.4 0-2.7.24-4.19.5l-.94.18c-1.9.33-4.2.66-7.46.66-6.54 0-12.19-1.45-17.29-4.64A21.07 21.07 0 0 1-7.21 42.8l-.26.06.26-.06c-.08-.34-.23-.83-.4-1.39l-.42-1.42a13.02 13.02 0 0 1-.57-3.13c0-3.33.2-6.02 2.71-9.15a11.43 11.43 0 0 0 1.8-2.83c.26-.62.46-1.3.73-2.2l.34-1.14c.59-1.9 1.25-3.13 1.96-4.44l.4-.75A26.3 26.3 0 0 0 1.9 9.43c.88-3.75 3.5-7.25 9.97-9.8 2.57-1 5.05-.88 7.64-.73h.06c2.56.15 5.22.3 7.99-.75Zm15.24.43.85.2c4.18.96 8.01 3.26 11.26 6.28a43.3 43.3 0 0 1 2.55 2.48c.52.57.97 1.14 1.74 2.13l.32.4c1.59 2 2.03 3.89 2.69 7.6.53 3.06-.02 5.15-1.33 8.28-.65 1.54-1.05 2.8-1.4 3.88l-.42 1.32a8.2 8.2 0 0 1-2.19 3.6l-.54.51c-.95.88-1.4 1.31-1.78 1.89-.43.67-.74 1.54-1.47 3.58l-.02.06c-.8 2.23-1.21 3.4-1.64 4.29a16.45 16.45 0 0 1-1.94 3c-1.68 2.35-3.37 4.7-6.37 6.55-3.16 1.94-7.53 2.53-10.64 2.53-1.23 0-2.37.2-3.74.45l-.9.16a39 39 0 0 1-7.09.63c-6.21 0-11.61-1.37-16.5-4.4a20.24 20.24 0 0 1-9.31-12.63l-.35-1.2c-.13-.4-.27-.87-.4-1.37a12.6 12.6 0 0 1-.57-3.1c0-3.12.2-5.83 2.7-8.92a9.8 9.8 0 0 0 2.2-4.34l.33-1.1C-.6 19.5.06 18.3.73 17.1l.36-.68a23.39 23.39 0 0 0 2.3-6.2c.89-3.75 3.55-7.15 9.76-9.57 2.57-1 5.04-.87 7.44-.73 2.42.13 4.75.26 7.18-.65a22.77 22.77 0 0 1 9.18-1.64c2.18.1 4.06.54 5.84.96Zm-5.87-.16c-2.43-.1-5.26.24-8.86 1.6-2.6.96-5.07.82-7.45.69h-.06c-2.42-.14-4.73-.26-7.11.67-6.02 2.35-8.45 5.57-9.27 9.02A24.18 24.18 0 0 1 1.8 16.8l-.38.7C.76 18.68.14 19.81-.4 21.57l-.32 1.05a10.57 10.57 0 0 1-2.36 4.66c-2.33 2.87-2.52 5.35-2.52 8.41 0 .79.24 1.85.53 2.89l.4 1.31c.15.51.29.97.36 1.28a19.44 19.44 0 0 0 8.95 12.14c4.75 2.94 10 4.28 16.09 4.28 3.04 0 5.18-.3 6.95-.61l.87-.16c1.38-.25 2.6-.47 3.91-.47 3.05 0 7.24-.59 10.23-2.42 2.85-1.75 4.45-3.99 6.15-6.35l.25-.35c.8-1.13 1.2-1.68 1.6-2.5.4-.85.8-1.97 1.6-4.22l.08-.2c.67-1.9 1.01-2.85 1.5-3.6.43-.67.98-1.18 1.91-2.05l.53-.5a7.41 7.41 0 0 0 1.98-3.29l.41-1.25c.35-1.1.77-2.42 1.43-3.99 1.29-3.06 1.78-4.99 1.28-7.83-.65-3.71-1.08-5.41-2.53-7.25l-.31-.4a37.97 37.97 0 0 0-1.71-2.08c-.56-.62-1.2-1.22-2.5-2.43-3.18-2.95-6.89-5.17-10.9-6.1l-.86-.2c-1.78-.42-3.58-.84-5.68-.93ZM42.27.7 41.5.5c-1.62-.39-3.34-.8-5.34-.9-2.32-.1-5 .25-8.38 1.54-2.2.85-4.33.73-6.53.6-2.19-.12-4.46-.25-6.8.69C8.76 4.7 6.33 7.88 5.52 11.4a22.12 22.12 0 0 1-2.43 6.4 19.92 19.92 0 0 0-2.03 5 9.15 9.15 0 0 1-2 4.04c-2.29 2.9-2.47 5.43-2.47 8.35 0 .85.25 1.93.51 2.9l.37 1.28c.14.45.25.83.32 1.11 1.27 5.4 4.5 9.28 8.5 11.81 4.47 2.83 9.4 4.11 15.07 4.11a34.8 34.8 0 0 0 7.3-.73c1.25-.24 2.28-.43 3.4-.43 2.84 0 6.83-.55 9.72-2.37 2.74-1.72 4.28-3.92 5.82-6.11v-.01l.24-.35a15.44 15.44 0 0 0 1.53-2.45c.39-.83.77-1.92 1.5-4l.01-.06c.67-1.9.95-2.71 1.34-3.34.34-.53.76-.93 1.62-1.76l.5-.47a7.71 7.71 0 0 0 1.99-3.38l.4-1.23c.3-1.01.67-2.18 1.26-3.62 1.2-2.92 1.7-4.87 1.21-7.73-.59-3.47-1-5.23-2.45-7.11l-.29-.37c-.7-.92-1.12-1.46-1.6-2-.53-.6-1.13-1.18-2.31-2.3C49.59 3.76 46.09 1.6 42.26.7Zm-14.2 1.2A19.58 19.58 0 0 1 36.13.42c1.9.08 3.55.48 5.17.87l.78.19c3.66.85 7.03 2.93 9.93 5.68a39.27 39.27 0 0 1 2.27 2.26c.45.51.85 1.02 1.56 1.95l.29.36c1.31 1.71 1.7 3.3 2.3 6.76.45 2.65 0 4.44-1.17 7.3-.6 1.47-.98 2.7-1.3 3.72l-.38 1.18a6.92 6.92 0 0 1-2.27 3.51c-.86.82-1.36 1.3-1.76 1.92-.44.7-.75 1.6-1.36 3.37l-.07.2c-.73 2.1-1.1 3.14-1.47 3.92a14.7 14.7 0 0 1-1.45 2.33l-.23.33c-1.55 2.2-3 4.3-5.6 5.92-2.71 1.7-6.53 2.25-9.3 2.25-1.2 0-2.32.21-3.57.44l-.8.15a34 34 0 0 1-6.33.57c-5.54 0-10.32-1.24-14.65-3.98A18.08 18.08 0 0 1-1.42 40.3c-.07-.3-.2-.72-.34-1.2-.12-.39-.24-.8-.35-1.22-.27-.97-.49-1.96-.49-2.69 0-2.86.18-5.17 2.3-7.84a9.92 9.92 0 0 0 1.53-2.46c.22-.54.4-1.13.62-1.9l.29-.98c.5-1.64 1.06-2.69 1.66-3.81l.34-.65c.74-1.41 1.49-3.05 2.17-5.97.74-3.21 2.95-6.21 8.43-8.4 2.16-.87 4.26-.75 6.46-.63h.06c2.17.13 4.44.26 6.8-.65Zm12.5.56.7.17c3.49.85 6.68 2.87 9.39 5.52a36.99 36.99 0 0 1 2.11 2.17c.44.5.82 1 1.46 1.86l.26.35c1.33 1.77 1.7 3.43 2.24 6.68.45 2.68-.01 4.52-1.1 7.26a38.28 38.28 0 0 0-1.16 3.4L54.1 31a7.3 7.3 0 0 1-2.27 3.62 8.94 8.94 0 0 0-1.48 1.64c-.35.59-.61 1.35-1.21 3.14l-.02.04c-.66 1.96-1 2.98-1.36 3.76-.36.79-.73 1.33-1.4 2.3l-.22.33c-1.4 2.06-2.8 4.13-5.3 5.74-2.65 1.71-6.3 2.24-8.89 2.24-1.02 0-1.95.17-3.1.4l-.75.13c-1.49.28-3.31.55-5.9.55-5.18 0-9.68-1.2-13.76-3.86A17.7 17.7 0 0 1 .69 39.96c-.06-.27-.16-.63-.28-1.05l-.34-1.2c-.24-.9-.47-1.92-.47-2.72 0-2.74.16-5.11 2.25-7.83a8.6 8.6 0 0 0 1.82-3.78l.28-.97a18.98 18.98 0 0 1 1.57-3.72l.3-.6a21.1 21.1 0 0 0 1.92-5.4c.74-3.3 2.96-6.3 8.14-8.43 2.15-.88 4.23-.76 6.21-.64h.01c2.01.12 3.93.23 5.93-.56a18.15 18.15 0 0 1 7.66-1.44c1.82.08 3.4.47 4.87.84Zm-4.91-.04c-2-.1-4.35.2-7.33 1.38-2.17.86-4.25.74-6.22.62h-.06c-2-.12-3.9-.22-5.87.58-4.98 2.05-6.99 4.85-7.66 7.86a21.9 21.9 0 0 1-1.98 5.6l-.31.6c-.55 1.06-1.06 2.05-1.51 3.58l-.27.91a9.37 9.37 0 0 1-1.97 4.1C.56 30.15.4 32.3.4 34.99c0 .68.2 1.6.44 2.51.1.4.22.79.32 1.15.13.45.25.85.31 1.13a16.9 16.9 0 0 0 7.42 10.6c3.93 2.56 8.28 3.72 13.32 3.72 2.52 0 4.3-.27 5.76-.54l.72-.13a17.2 17.2 0 0 1 3.27-.41c2.52 0 5.99-.52 8.45-2.1 2.36-1.53 3.69-3.48 5.1-5.55l.2-.3c.67-1 1-1.47 1.33-2.2.33-.73.67-1.7 1.33-3.67l.06-.18c.56-1.66.85-2.5 1.25-3.16.36-.6.82-1.04 1.6-1.8l.44-.44a6.51 6.51 0 0 0 1.63-2.86l.34-1.1c.3-.96.64-2.1 1.2-3.49 1.06-2.68 1.46-4.35 1.05-6.83-.54-3.25-.9-4.73-2.1-6.33l-.25-.34c-.65-.87-1-1.35-1.42-1.83-.46-.53-1-1.06-2.07-2.12-2.64-2.57-5.7-4.51-9.03-5.31l-.71-.18c-1.48-.37-2.97-.74-4.7-.81Zm3.79 2.03c-1.37-.34-2.82-.7-4.5-.77-1.97-.1-4.23.2-7.09 1.33-1.84.73-3.6.62-5.46.51-1.84-.1-3.76-.22-5.75.6-4.8 1.97-6.85 4.73-7.54 7.8a19.43 19.43 0 0 1-1.76 4.98l-.28.54c-.5.98-1.02 1.96-1.45 3.45l-.26.89a7.9 7.9 0 0 1-1.68 3.48C1.75 29.77 1.6 31.97 1.6 34.5c0 .74.21 1.68.43 2.52l.32 1.1.26.97a16.37 16.37 0 0 0 7.17 10.25c3.77 2.45 7.94 3.56 12.72 3.56 2.39 0 4.08-.25 5.46-.5l.69-.14c1.05-.2 1.91-.36 2.85-.36 2.4 0 5.77-.48 8.22-2.06 2.3-1.5 3.61-3.41 4.9-5.3l.21-.31c.61-.9.95-1.4 1.29-2.13.33-.72.65-1.67 1.26-3.47l.01-.04c.56-1.66.8-2.35 1.12-2.89.28-.46.63-.8 1.36-1.5v-.01l.41-.4c.9-.9 1.33-1.83 1.7-2.95l.33-1.06c.26-.89.57-1.9 1.06-3.13 1.01-2.53 1.44-4.23 1.02-6.72-.5-3-.84-4.53-2.07-6.17l-.24-.32c-.6-.8-.94-1.26-1.34-1.72-.45-.52-.97-1.04-1.96-2-2.5-2.45-5.46-4.33-8.69-5.1l-.64-.17Zm-11.3 1.3a16 16 0 0 1 6.76-1.28c1.6.08 2.97.42 4.34.76l.66.16c3.05.74 5.88 2.52 8.31 4.9 1 .97 1.49 1.46 1.91 1.95.38.44.71.88 1.31 1.68l.24.32c1.1 1.47 1.43 2.82 1.93 5.83.37 2.27 0 3.81-.98 6.28a36.83 36.83 0 0 0-1.1 3.23l-.31 1a5.98 5.98 0 0 1-1.5 2.64l-.4.4a8.99 8.99 0 0 0-1.49 1.66c-.37.62-.64 1.4-1.15 2.92l-.06.17a39.66 39.66 0 0 1-1.23 3.4c-.3.65-.6 1.1-1.22 2l-.2.29c-1.3 1.9-2.51 3.7-4.69 5.1-2.26 1.47-5.46 1.94-7.78 1.94-1.02 0-1.96.18-3.02.38l-.67.13c-1.35.24-2.98.49-5.31.49-4.65 0-8.66-1.07-12.28-3.44-3.22-2.1-5.8-5.3-6.83-9.75-.06-.26-.17-.63-.29-1.04l-.3-1.06a10 10 0 0 1-.4-2.31c0-2.47.15-4.45 1.92-6.76a8.68 8.68 0 0 0 1.82-3.78l.24-.85c.42-1.4.89-2.31 1.4-3.29l.29-.56a20.23 20.23 0 0 0 1.82-5.17c.62-2.77 2.47-5.34 7.06-7.23 1.8-.74 3.55-.65 5.4-.54h.06c1.82.11 3.74.23 5.75-.57Zm-.3 1.38c5.12-2.05 9.95-1.18 12.78-.49 2.72.67 4.68 2.62 6.68 4.6l.47.48c.44.43.77.72 1.04.96l.08.07.08.06.54.49c.42.42.75.9 1.33 2.01.16.3.32.57.49.84.67 1.13 1.36 2.26 1.06 4.4-.08.54-.1 1-.14 1.48-.08 1.37-.17 2.74-1.4 5.63-1.36 3.2-2.53 5.07-4.08 6.62-.44.45-.67.7-.79.9a.71.71 0 0 0-.13.39v.16c-.01.16-.02.4-.06.68-.05.4-.16.95-.42 1.72-.54 1.63-.9 2.62-1.26 3.4-.37.8-.74 1.37-1.29 2.2-1.27 1.88-2.5 2.73-4.61 4.1-2.2 1.44-5.57 2.07-7.72 2.07-.82 0-1.48.16-2.32.36l-.55.13c-1.11.25-2.49.51-4.63.51-4.24 0-8.83-.83-12.22-3.07-1.53-1-3.02-2.66-4.24-4.57a20.18 20.18 0 0 1-2.68-6.23 9.11 9.11 0 0 1-.08-4.53c.14-.71.24-1.25.41-1.75.25-.73.66-1.4 1.5-2.5.92-1.22 1.22-2.3 1.63-3.82l.3-1.04c.39-1.34.9-2.38 1.43-3.44l.3-.6a20.52 20.52 0 0 0 1.76-4.94c.3-1.39.93-2.52 2.02-3.54 1.08-1 2.6-1.86 4.72-2.74 1.78-.74 3.5-.64 5.14-.54H23c1.66.1 3.22.19 4.85-.46Zm12.59.29c-2.78-.68-7.41-1.5-12.3.45-1.8.72-3.52.62-5.14.52h-.05c-1.65-.1-3.2-.18-4.8.48-2.07.86-3.5 1.68-4.48 2.59-.96.9-1.5 1.89-1.78 3.13-.5 2.29-1.17 3.8-1.82 5.1l-.3.63c-.54 1.06-1.02 2.02-1.39 3.3l-.27.99c-.42 1.53-.76 2.78-1.8 4.13a8.23 8.23 0 0 0-1.36 2.27c-.16.44-.24.9-.37 1.57l-.19 1a8.37 8.37 0 0 0 .25 3.28 19.39 19.39 0 0 0 2.57 5.97 14.8 14.8 0 0 0 4.01 4.34c3.2 2.11 7.61 2.93 11.78 2.93 2.07 0 3.38-.24 4.45-.49l.52-.12c.84-.2 1.6-.39 2.53-.39 2.06 0 5.27-.62 7.28-1.93 2.1-1.38 3.22-2.16 4.39-3.9.54-.8.88-1.34 1.22-2.07.34-.74.69-1.7 1.23-3.33a8.35 8.35 0 0 0 .43-2.1l.01-.26c.02-.26.07-.49.26-.78a7 7 0 0 1 .9-1.01c1.45-1.45 2.57-3.22 3.91-6.38a13.5 13.5 0 0 0 1.33-5.32c.03-.48.06-.98.14-1.58.26-1.84-.26-2.72-.91-3.8-.18-.3-.36-.6-.54-.96a6.66 6.66 0 0 0-1.2-1.81l-.48-.44h-.01v-.01c-.06-.04-.1-.1-.17-.14-.28-.24-.62-.55-1.07-1l-.42-.41-.01-.01c-2.05-2.04-3.85-3.83-6.35-4.44Zm-.84 1.2-.3-.08a26.07 26.07 0 0 0-4.99-.86c-2.1-.11-4.43.17-6.52 1.48-1.3.8-2.63.65-4.14.38l-.28-.04c-1.4-.25-2.96-.53-4.53.13-1.92.8-3.2 1.57-4.09 2.49a6.57 6.57 0 0 0-1.64 3.29c-.74 3.2-1.6 4.8-2.27 5.96l-.14.24c-.62 1.06-1.1 1.9-1.1 3.39 0 1.37-.5 1.98-1.27 2.94-.2.24-.42.51-.65.82-.36.49-.64.79-.84 1.01l-.05.05-.03.03c-.17.18-.32.35-.44.53-.14.24-.22.49-.28.84a17.47 17.47 0 0 0 .07 5.36c.87 3.88 3.4 7.9 6.17 9.75 3.1 2.07 7.38 2.57 11.22 2.57 1.98 0 3.17-.39 4.12-.78l.48-.2c.69-.3 1.2-.52 1.9-.52l.85.01c.73.02 1.53.03 2.31-.03a6.91 6.91 0 0 0 3.32-1.03c.46-.3.85-.54 1.2-.75a6.76 6.76 0 0 0 2.65-2.38l.59-.84a15.6 15.6 0 0 0 2.46-4.75c.33-1 .34-1.78.34-2.36l.01-.42c.02-.3.06-.54.19-.75.12-.22.35-.47.8-.77 1.01-.66 1.45-1.2 1.87-1.9l.3-.5c.33-.57.71-1.24 1.43-2.19a6.7 6.7 0 0 0 1.38-3.69l.05-.8v-.11l.04-.64c.03-.49.1-.93.24-1.36.68-2.04.08-3.86-.67-5.32-.8-1.55-1.52-2.2-2.46-3.05-.34-.3-.7-.64-1.12-1.05-2-2-3.52-3.45-6.18-4.1ZM28.2 9.83c1.9-1.2 4.05-1.47 6.06-1.36 1.87.1 3.58.52 4.85.84l.28.07c2.44.6 3.82 1.9 5.82 3.9.46.46.86.82 1.2 1.13.9.82 1.5 1.35 2.22 2.76.72 1.4 1.21 2.96.63 4.7a6.16 6.16 0 0 0-.28 1.56l-.03.66-.01.11c-.01.26-.02.52-.05.78a5.9 5.9 0 0 1-1.22 3.27c-.75.99-1.17 1.72-1.5 2.29l-.27.47c-.37.6-.73 1.05-1.63 1.65-.51.33-.85.66-1.06 1.03-.2.37-.27.74-.29 1.1v.5c-.01.58-.02 1.2-.3 2.07a14.74 14.74 0 0 1-2.35 4.53l-.61.88a5.76 5.76 0 0 1-2.32 2.08c-.36.22-.79.48-1.31.82-.88.58-1.9.82-2.94.9-.74.06-1.47.05-2.18.03L30 46.6c-.88 0-1.56.3-2.26.6l-.43.18c-.87.36-1.96.72-3.81.72-3.81 0-7.88-.5-10.78-2.43-2.57-1.72-5-5.55-5.83-9.26a16.8 16.8 0 0 1-.06-5.06c.05-.3.1-.44.17-.55.07-.1.17-.2.34-.4l.08-.08c.22-.24.51-.57.9-1.08l.58-.73c.8-.98 1.5-1.83 1.5-3.51 0-1.28.38-1.94 1-3l.13-.23c.7-1.21 1.6-2.88 2.36-6.18a5.78 5.78 0 0 1 1.44-2.91c.77-.8 1.94-1.52 3.83-2.31 1.34-.57 2.67-.33 4.12-.08l.23.04c1.5.26 3.12.5 4.7-.5Zm5.77.13a12.4 12.4 0 0 1 4.12.14c2.34.58 4.52 1.86 5.73 3.67.5.73 1.04 1.16 1.6 1.61l.15.11c.62.5 1.27 1.05 1.78 2.04.7 1.37.97 3.6.36 5.4a6.05 6.05 0 0 0-.3 1.65c-.03.3-.06.6-.11.9a6.76 6.76 0 0 1-1.36 3.22 35 35 0 0 0-.96 1.33l-.11.17c-.19.27-.34.5-.5.7-.4.5-.79.85-1.66 1.42-.82.55-1.1.91-1.23 1.35-.06.24-.09.52-.1.9v.74l.01.68a6.8 6.8 0 0 1-1.1 3.85c-.14.27-.3.54-.44.83-.85 1.7-2.55 2.82-4.22 3.92l-.05.04c-.95.63-2.04.77-3.07.77-.52 0-1.03-.04-1.51-.07h-.05c-.47-.04-.9-.07-1.3-.07-.6 0-.94.15-1.42.38l-.34.15c-.69.3-1.6.6-3.37.6-.68 0-1.33.02-1.97.04-2.55.08-4.94.16-8.2-1.07-1.47-.55-2.84-2.04-3.92-3.76a18.54 18.54 0 0 1-2.33-5.52 10.4 10.4 0 0 1-.2-1.78c-.02-.7.03-1.51.3-2.06.59-1.17 1.75-2.9 2.93-4.07.28-.27.42-.45.5-.6a.59.59 0 0 0 .1-.31c0-.11-.02-.22-.05-.4l-.02-.18c-.04-.26-.08-.6-.08-1.05 0-.9.16-1.41.5-1.92.13-.2.28-.38.45-.59l.04-.04.06-.09c.21-.26.45-.56.73-.98.53-.79.65-1.29.72-1.87l.04-.44c.04-.53.1-1.19.32-2.08a9.82 9.82 0 0 1 1.33-3.3 7.74 7.74 0 0 1 3.56-2.7c1.42-.6 2.38-.6 3.32-.38.37.09.74.22 1.12.34l.23.08c.47.16.97.32 1.57.44.68.13 1.06.14 1.3.1.2-.05.31-.13.45-.27l.1-.1c.13-.15.3-.35.55-.53.33-.23.77-.44 1.44-.58 1.5-.31 3.07-.61 4.56-.76Zm.08.8c-1.44.14-2.98.43-4.48.74-.58.13-.9.3-1.13.45-.17.12-.27.24-.4.37l-.15.17c-.2.2-.45.4-.87.49-.39.07-.9.05-1.6-.1a13.1 13.1 0 0 1-1.67-.46l-.25-.08c-.38-.13-.7-.24-1.04-.32a4.16 4.16 0 0 0-2.81.34 6.95 6.95 0 0 0-3.22 2.4c-.63.91-.93 1.92-1.21 3.05-.2.83-.26 1.4-.3 1.93l-.05.5c-.07.69-.24 1.31-.85 2.22-.29.44-.55.77-.77 1.04l-.03.04-.08.1c-.16.2-.3.36-.4.52-.23.34-.36.68-.36 1.47a6.55 6.55 0 0 0 .09 1.08c.03.19.05.38.05.55 0 .24-.05.47-.2.72-.13.23-.34.47-.63.76a16.8 16.8 0 0 0-2.77 3.86c-.18.35-.24.98-.22 1.67.02.67.1 1.31.18 1.63.37 1.65 1.18 3.6 2.22 5.27 1.06 1.68 2.31 2.99 3.53 3.45 3.1 1.16 5.32 1.09 7.84 1.01.66-.02 1.34-.04 2.05-.04a6.91 6.91 0 0 0 3.34-.67c.5-.23 1-.46 1.8-.46.42 0 .88.03 1.34.07h.06c.48.04.97.07 1.45.07.96 0 1.87-.14 2.63-.64 1.73-1.15 3.25-2.16 4-3.65.16-.34.33-.63.48-.9.55-1 .97-1.74.97-3.42V34.57c0-.4.03-.76.12-1.1.2-.71.67-1.22 1.56-1.8a5.3 5.3 0 0 0 1.47-1.26c.14-.18.28-.38.46-.65l.12-.17c.24-.35.55-.8.98-1.36a5.96 5.96 0 0 0 1.2-2.86c.05-.29.08-.56.11-.84l.06-.48c.05-.45.13-.9.28-1.36.54-1.6.3-3.6-.32-4.78a5.23 5.23 0 0 0-1.56-1.78l-.07-.05-.08-.07c-.57-.45-1.2-.95-1.76-1.79-1.07-1.59-3.05-2.78-5.27-3.33-1.07-.27-2.4-.27-3.84-.13Zm-.08 1.02c1.29-.07 2.58.06 3.62.32a7.68 7.68 0 0 1 4.73 3.17c.48.71.95 1.19 1.45 1.69s1.03 1.03 1.55 1.8c1.11 1.67.55 3.34.07 4.8l-.02.06a5.33 5.33 0 0 0-.26 1.44l-.1.8c-.13.86-.4 1.8-1.2 2.87a5.24 5.24 0 0 1-1.9 1.74c-.19.1-.36.17-.54.25-.34.14-.68.28-1.16.6-.36.24-.56.43-.69.6a.98.98 0 0 0-.2.5c-.02.2 0 .44.01.8l.01.08c.02.33.05.72.05 1.19 0 1.55-.3 2.29-.65 3.15-.12.3-.25.61-.37.98-.54 1.62-2.13 3.18-3.66 4.2-.84.57-1.81.7-2.72.7-.45 0-.9-.04-1.33-.07h-.04c-.4-.03-.78-.06-1.13-.06-.53 0-.8.13-1.22.33l-.3.14c-.62.27-1.42.53-2.98.53-3 0-4.53 0-8.55-.5a4.2 4.2 0 0 1-2.43-1.35 11.2 11.2 0 0 1-1.82-2.64 25.4 25.4 0 0 1-2.09-5.82L10.1 34c0-.38.1-1.31.54-2.18a15.59 15.59 0 0 1 2.58-3.6c.24-.25.37-.4.43-.52.06-.1.07-.17.07-.26 0-.1 0-.19-.03-.34l-.02-.16a6.56 6.56 0 0 1-.07-.94c0-.8.14-1.27.44-1.72l.4-.53.1-.1c.18-.24.39-.51.63-.87.46-.7.56-1.13.62-1.64l.04-.38c.03-.47.08-1.06.28-1.86.26-1.01.64-2.2 1.3-3.18.67-1 1.63-1.84 3.01-2.11a4.93 4.93 0 0 1 2.7.07l.23.07a6.3 6.3 0 0 0 2.15.35c1.22 0 1.92-.12 2.55-.35.45-.16.86-.38 1.4-.66l.87-.45a9.4 9.4 0 0 1 3.66-.85Zm.04.8a8.6 8.6 0 0 0-4.14 1.18c-.58.3-1.06.55-1.56.73-.74.27-1.54.4-2.82.4a7.1 7.1 0 0 1-2.39-.38l-.22-.07a4.14 4.14 0 0 0-2.31-.06c-1.12.23-1.91.9-2.5 1.77a9.51 9.51 0 0 0-1.2 2.94c-.17.73-.22 1.23-.25 1.7l-.04.43a4.06 4.06 0 0 1-.76 2c-.26.38-.48.67-.67.91l-.1.12c-.15.18-.26.32-.35.46-.2.3-.31.59-.31 1.28a5.8 5.8 0 0 0 .08.95c.02.16.04.33.04.49 0 .22-.04.43-.17.66-.12.2-.31.43-.57.68a14.8 14.8 0 0 0-2.42 3.4c-.35.7-.45 1.46-.46 1.78a24.6 24.6 0 0 0 2 5.58c.5.96 1.07 1.81 1.7 2.45a3.4 3.4 0 0 0 1.95 1.11c3.97.5 5.46.5 8.44.5H25c1.44 0 2.14-.24 2.65-.47l.25-.11c.44-.2.88-.42 1.6-.42.38 0 .78.03 1.18.06h.05c.43.03.85.07 1.27.07a4 4 0 0 0 2.28-.56c1.47-.98 2.88-2.42 3.34-3.8.15-.44.29-.78.41-1.1.33-.8.57-1.39.57-2.77 0-.44-.03-.8-.05-1.13v-.1a5.08 5.08 0 0 1 0-.94c.03-.32.13-.6.34-.88.2-.27.5-.52.89-.78.54-.37 1-.56 1.37-.72l.42-.18c.43-.22.89-.55 1.61-1.51.7-.94.93-1.74 1.05-2.5l.09-.74.05-.44c.05-.39.11-.8.25-1.2.51-1.54.92-2.84.05-4.16a10.5 10.5 0 0 0-1.45-1.69c-.5-.5-1.03-1.03-1.55-1.8a6.88 6.88 0 0 0-4.27-2.84c-.96-.24-2.17-.36-3.38-.3Z" fill="url(#bz1toqevo)" fill-opacity=".6"/><defs><linearGradient id="az1toqevo" x1="28" y1="56" x2="28" y2="0" gradientUnits="userSpaceOnUse"><stop stop-color="#073183"/><stop offset="1" stop-color="#0054F9"/></linearGradient><linearGradient id="bz1toqevo" x1="2" y1=".5" x2="56" y2="54.5" gradientUnits="userSpaceOnUse"><stop offset=".17" stop-color="#8CCFFC"/><stop offset=".4" stop-color="#EABF9E"/><stop offset=".63" stop-color="#E882CF"/><stop offset=".81" stop-color="#A182F9"/></linearGradient></defs></svg>