<!-- by TradingView --><svg xmlns="http://www.w3.org/2000/svg" width="56" height="56"><path fill="url(#as04gcc4g)" d="M0 0h56v56H0z"/><path d="M24.26 14.87L10 40l9.33-.17c6.3-1.77 8.03-4.72 9.05-6.47l.27-.45-4.24-4.55c-2.86-4.14-1.25-9.7-.26-13.13.04-.12.08-.24.1-.36z" fill="url(#bs04gcc4g)"/><path d="M41.87 33.05l-.13-.12c-5.98-6.35-10.07-6.65-11.36-6.01l-1.69 5.87c-2.46 4.85-8.35 7.08-17.09 7.21H46l-4.13-6.95zM10 40z" fill="url(#cs04gcc4g)"/><path d="M24.13 15.1L27.59 9l14.57 24.6c-2.49-2.74-7.98-7.4-11.75-6.71l-5.92 1.64c-.8-.98-3.13-4.77-.45-12.95l.09-.48z" fill="url(#ds04gcc4g)"/><defs><linearGradient id="as04gcc4g" x1="10.42" y1="9.71" x2="68.15" y2="76.02" gradientUnits="userSpaceOnUse"><stop stop-color="#1A1E21"/><stop offset="1" stop-color="#06060A"/></linearGradient><linearGradient id="bs04gcc4g" x1="13.94" y1="29.13" x2="23.41" y2="37.69" gradientUnits="userSpaceOnUse"><stop offset=".39" stop-color="#DFDFDF"/><stop offset="1" stop-color="#ACACAC"/></linearGradient><linearGradient id="cs04gcc4g" x1="31.55" y1="24.86" x2="33.12" y2="46.21" gradientUnits="userSpaceOnUse"><stop stop-color="#979797"/><stop offset=".57" stop-color="#E0E0E0"/></linearGradient><linearGradient id="ds04gcc4g" x1="40.55" y1="20.84" x2="21.37" y2="26.8" gradientUnits="userSpaceOnUse"><stop offset=".43" stop-color="#DFDFDF"/><stop offset="1" stop-color="#9E9E9E"/></linearGradient></defs></svg>