<!-- by TradingView --><svg width="56" height="56" viewBox="0 0 56 56" xmlns="http://www.w3.org/2000/svg"><path fill="url(#a4ypft1ci)" d="M0 0h56v56H0z"/><path d="m33.98 28.5 1.91 4.93c.11.28.17.61.23.95 0 .28-.06.61-.23.9-.18.23-.38.43-.62.6-.28.18-.56.23-.9.23-.7 0-1.48-.5-1.7-1.28L31.72 32h-7.27l-.93 2.83a1.71 1.71 0 0 1-1.72 1.28c-.5 0-.96-.17-1.35-.5a1.79 1.79 0 0 1-.57-1.23c.06-.39.12-.73.23-.95l1.95-4.93h-1.25c-.44 0-.8-.45-.8-.96s.36-1.04.8-1.04h1.95l.18-.5H20.8c-.44 0-.8-.49-.8-1s.36-1 .8-1h2.82l1.7-3.96A2.92 2.92 0 0 1 28.07 18c1.35 0 2.28.83 2.77 2.04l1.6 3.96h2.75c.45 0 .8.49.8 1s-.35 1-.8 1h-2.07l.17.5h1.9c.59 0 .8.53.8 1.04s-.35.96-.8.96h-1.22ZM44 28a16 16 0 1 1-32 0 16 16 0 0 1 32 0Zm-2 0c0-7.81-6.19-14-14-14s-14 6.19-14 14 6.19 14 14 14 14-6.19 14-14Zm-14-6.32L25.45 29h5.1L28 21.68Z" fill="#fff"/><defs><linearGradient id="a4ypft1ci" x1="14.72" y1="4.21" x2="42.22" y2="51.72" gradientUnits="userSpaceOnUse"><stop stop-color="#FF9B23"/><stop offset="1" stop-color="#FF6477"/></linearGradient></defs></svg>