<!-- by TradingView --><svg width="56" height="56" viewBox="0 0 56 56" xmlns="http://www.w3.org/2000/svg"><path fill="url(#aiareeos3)" d="M0 0h56v56H0z"/><path d="M34 18H15l1.72-5h15.6c.02.01.02.01 0 0L34 18ZM39.12 13.11l4.8 14.58a.1.1 0 0 1-.04.11l-4.2 3.03a.1.1 0 0 1-.16-.06l-5.79-17.6a.1.1 0 0 1 .05-.12.1.1 0 0 1 .05-.01h5.18a.1.1 0 0 1 .1.07ZM20.16 19.62l-5.76 17.5a.09.09 0 0 1-.13.04l-4.24-3.04a.08.08 0 0 1-.03-.09l4.77-14.47a.09.09 0 0 1 .09-.06h5.21a.09.09 0 0 1 .07.04.08.08 0 0 1 .02.08ZM21.56 19.5h6.17a.09.09 0 0 1 .09.06l1.6 4.83a.09.09 0 0 1-.01.08.09.09 0 0 1-.07.04h-9.39a.09.09 0 0 1-.07-.04.09.09 0 0 1-.01-.08l1.6-4.83a.09.09 0 0 1 .09-.06ZM34.52 19.57l1.9 5.71a.1.1 0 0 1-.04.12l-4.19 3.02a.11.11 0 0 1-.1.01.1.1 0 0 1-.07-.07l-2.9-8.72a.1.1 0 0 1 .06-.13.1.1 0 0 1 .05-.01h5.18a.1.1 0 0 1 .1.07ZM24.79 25.88l-2.89 8.8a.1.1 0 0 1-.06.06.1.1 0 0 1-.09 0l-4.21-3.02a.1.1 0 0 1-.04-.11l1.9-5.8a.1.1 0 0 1 .1-.06h5.19a.1.1 0 0 1 .1.08.1.1 0 0 1 0 .05ZM38.47 31.7l-5 3.58a.09.09 0 0 1-.1 0l-4.22-3.02a.09.09 0 0 1 0-.14l7.6-5.48a.09.09 0 0 1 .07-.02.09.09 0 0 1 .06.06l1.62 4.93a.09.09 0 0 1-.03.1ZM45.96 34.1 33.5 43.08a.09.09 0 0 1-.1 0l-4.24-3.03a.09.09 0 0 1 0-.15l15.09-10.85a.09.09 0 0 1 .14.04L46 34a.09.09 0 0 1-.04.1ZM24.68 30.56l7.6 5.45a.1.1 0 0 1 .03.07.1.1 0 0 1-.04.08l-4.2 3.03a.1.1 0 0 1-.12 0l-4.99-3.58a.1.1 0 0 1-.03-.1l1.6-4.9a.1.1 0 0 1 .15-.05ZM17.18 32.96 32.3 43.8a.08.08 0 0 1 0 .13l-4.23 3.04a.08.08 0 0 1-.1 0l-12.5-8.96a.08.08 0 0 1-.03-.1L17.05 33a.08.08 0 0 1 .06-.05.08.08 0 0 1 .07 0Z" fill="#fff"/><defs><linearGradient id="aiareeos3" x1="10.42" y1="9.71" x2="68.15" y2="76.02" gradientUnits="userSpaceOnUse"><stop stop-color="#1A1E21"/><stop offset="1" stop-color="#06060A"/></linearGradient></defs></svg>