<!-- by TradingView --><svg width="56" height="56" xmlns="http://www.w3.org/2000/svg"><path fill="#222326" d="M0 0h56v56H0z"/><path d="M27.914 13.657c-7.874 0-14.257 6.383-14.257 14.257 0 7.873 6.383 14.256 14.257 14.256 7.873 0 14.256-6.383 14.256-14.256 0-7.874-6.383-14.257-14.256-14.257zM11 27.914C11 18.573 18.573 11 27.914 11c9.34 0 16.913 7.573 16.913 16.914 0 9.34-7.572 16.913-16.913 16.913C18.573 44.827 11 37.255 11 27.914z" fill="#fff"/><path d="M30.297 33.005a2.786 2.786 0 01-.192-.523 6.949 6.949 0 01-.137-.624 4.14 4.14 0 01-.601.534c-.227.166-.48.314-.761.442a4.397 4.397 0 01-.908.284 4.86 4.86 0 01-1.079.114 5.317 5.317 0 01-1.737-.273 4.122 4.122 0 01-1.35-.76 3.479 3.479 0 01-.886-1.158 3.447 3.447 0 01-.318-1.476c0-1.294.48-2.293 1.442-2.997.969-.712 2.41-1.109 4.325-1.109h1.385v-.685c0-1.065-.808-1.919-1.873-1.919-.643 0-1.113.223-1.408.503-.295.272-.443.64-.443 1.101h-3.155c0-.522.113-1.018.34-1.487.235-.47.572-.964 1.01-1.32.447-.356.988-.636 1.624-.84.643-.212 1.377-.318 2.202-.318.742 0 1.43.091 2.066.273.644.181 1.2.45 1.67.806.468.355.836.806 1.1 1.35.265.538.398 1.162.398 1.874v5.267c0 .659.041 1.204.125 1.635.083.431.204.802.363 1.113v.193h-3.202zm-1.765-2.623c.444-.245.763-.571.943-.885v-2.038h-1.232c-.94 0-2.17.1-2.6 1.084-.272.602-.21 1.36.284 1.828.738.682 1.826.441 2.605.011z" fill="#fff"/></svg>