<!-- by TradingView --><svg xmlns="http://www.w3.org/2000/svg" width="56" height="56"><path fill="#F6B817" d="M0 0h56v56H0z"/><path d="M13.19 28a29.82 29.82 0 007.87 14.74 31.37 31.37 0 006.67 5.21c.1.06.18.07.28 0a31.72 31.72 0 006.86-5.41A30.1 30.1 0 0042.55 28h-.6l.02.07c.02.2.05.43-.02.43-.4 0-.83-.13-1.25-.25a4.6 4.6 0 00-1.24-.25h-.77l-.03.1-.22.74c-.03.12-.08.24-.14.35a.47.47 0 01-.6.2c-.05-.02-.1-.14-.1-.21 0-.1.02-.24.18-.25.27-.03.29-.04.3-.3V28h-1.85l-.09.23c0 .03-.03.07-.04.1l-.02.05h-.03l-.02-.02.08-.33V28h-2.29l.04.07.12.23c.04.1.03.21-.08.27-.04.02-.08.02-.12.02a.6.6 0 00-.06 0 1 1 0 000-.05v-.1a11.71 11.71 0 01.06-.44h-.1a4.58 4.58 0 01-.03.32v.08c-.03.12-.1.2-.22.23-.36.11-.53.03-.61-.34l-.05-.29h-.82c0 .09 0 .17.02.26l.02.14c0 .15-.06.22-.22.2a29.5 29.5 0 01-.5-.06.24.24 0 00-.02-.14c-.03-.08-.06-.17.08-.25.02 0 0-.1-.02-.14V28h-1.42l.02.01c.07.08.16.13.25.18l.09.05c.18.11.24.27.18.48v.12c.13-.08.12-.18.11-.28v-.08l-.02-.08c-.03-.08-.05-.16.09-.18.26-.04.42.04.44.23 0 .11 0 .23-.02.35v.07a2.74 2.74 0 01-.05.34c-.02.16-.12.22-.26.14a29.5 29.5 0 00-.2-.1l-.63-.36a.936.936 0 01-.27-.29c-.05-.07-.1-.08-.18-.07h-.59c-.1 0-.17-.08-.13-.2l.14-.33h-.14a3 3 0 00-.14.39c-.02.07-.04.14-.14.15-.12.02-.15-.06-.19-.14l-.01-.03a17.64 17.64 0 01-.18-.37h-.13c.07.14.13.3.18.45v.03l-.01.04-.15-.24-.18-.28h-.14l.24.35.23.34c.1.15.02.3-.15.32-.1.02-.2.03-.28.09-.16.11-.3.05-.45-.01-.04-.02-.06-.12-.06-.18l.03-.09v-.01l.57-.33-.01-.04v-.01l-.42.15-.19-.18-.4-.4h-.2l-.14.02-.14.02c-.2 0-.42 0-.63-.02l-.54-.02h-.99v.04l-.08.32-.21.85c-.03.11-.06.21-.22.1a.337.337 0 00-.2 0h-.12l.1-.4-.02-.03-.04.03-.07.07c-.04.06-.09.13-.12.2-.12.27-.34.35-.66.32.08-.1.14-.23.2-.35.09-.21.18-.42.42-.54.08-.03.14-.14.16-.22l.04-.2.04-.19H13.19zm22.18.51l.08.04-.07.07a.5.5 0 01-.12.1.52.52 0 01-.15.04l-.06.01v-.08c0-.07 0-.14.02-.2.01-.03.13-.03.2-.02.03 0 .06.02.1.04zm2.06.31l-.08.58c-.1.02-.14-.03-.14-.13-.02-.35 0-.4.22-.45zm-2.64-.12h-.04v-.06a.23.23 0 01-.01-.11c.04-.1.09-.21.27-.2l-.18.38h-.04z" fill="#971A2E"/><path d="M23.66 23.38l.14.36.15.34.06-.01c-.02-.14-.02-.29-.06-.42-.1-.3-.2-.62-.35-.9a3.22 3.22 0 01-.34-2.05c.05-.35.1-.7.2-1.03.22-.75.72-1.3 1.41-1.65.31-.17.64-.1.83.2.13.2.2.44.3.63.07-.24.04-.64-.21-1.04h1.1c.71.01 1.42.01 2.13.04.98.04 1.96-.07 2.95-.14a7.03 7.03 0 013.59.59c.47.22.81.58 1.06 1.03.35.61.51 1.29.58 1.98.06.55.07 1.11.06 1.67L37 21.44a6.35 6.35 0 00-.55-1.83 3.33 3.33 0 00-1.22-1.23.24.24 0 00-.16-.03l.05.06c.8.6 1.25 1.45 1.49 2.41.2.86.34 1.73.52 2.6.03.1.08.23.15.32.54.64 1.07 1.28 1.63 1.9.25.29.33.56.2.93-.25.75-.45 1.51-.68 2.27-.03.12-.08.24-.14.35a.47.47 0 01-.6.2c-.05-.02-.1-.14-.1-.21 0-.1.02-.24.18-.25.27-.03.29-.04.3-.3l.02-2.22v-.14c.2.1.37.2.55.28l.05-.04c-.08-.13-.14-.28-.25-.38l-1.36-1.15c-.78-.64-1.56-1.29-2.2-2.08-.23-.29-.42-.61-.62-.92-.48-.74-.95-1.47-1.4-2.22a2.7 2.7 0 01-.3-.76c-.08-.3 0-.6.2-.88-.53.23-.8.9-.55 1.38l1.02 1.83.05.1c-.87-.53-1.71-.38-2.55 0-.32.15-.63.28-.98.3-.2 0-.35-.05-.45-.22-.18-.31-.35-.64-.52-.96l-.16-.34c.03.58.26 1.1.5 1.63-.17 0-.3-.1-.37-.22-.2-.35-.42-.7-.58-1.06-.15-.35-.24-.72-.36-1.08-.08.36.18 1.35.63 2.37a.9.9 0 01-.58-.4 3.38 3.38 0 01-.54-1.43c-.05-.28-.2-.46-.45-.55l-.81-.26.05.34c.08.6-.06 1.16-.23 1.72-.28.92-.7 1.79-1.12 2.65a.75.75 0 00-.09.26l.53-.6h.05c0 .12.01.24-.02.34-.15.55-.3 1.1-.47 1.65a5.6 5.6 0 00-.27 1.77l-.02.43-.05.02c-.27 0-.27 0-.33.25l-.28 1.17c-.03.1-.06.22-.22.1-.07-.04-.2 0-.32 0l.1-.4c0-.02-.01-.02-.02-.03-.04.03-.08.06-.1.1a.69.69 0 00-.13.2c-.12.27-.34.35-.66.32.23-.3.25-.7.62-.89.08-.03.14-.14.16-.23.08-.39.16-.78.19-1.18.08-1.17.13-2.34.2-3.51v-.3h.02z" fill="#C6C1C0"/><path d="M27.46 25.74v.47l.03.5c-.13-.17-.04-.42-.27-.48.12.13.15.27.03.4-.05.06-.15.12-.23.11-.06 0-.1-.1-.18-.17l-.12.07.06-.26.3-.07a1 1 0 000-.03h-.43v-.07l.49-.08c.1-.65.6-.59 1.1-.5v-.05c-.12-.02-.26-.06-.4-.07-.15 0-.24-.07-.2-.23 0-.1.06-.21.11-.32 0 .24.12.37.32.45-.04-.04-.1-.08-.11-.14-.04-.08-.11-.2-.08-.27a.67.67 0 01.3-.26c.08-.04.2-.01.3.02.21.08.25.17.28.51l.07-.32c.08.06.2.3.16.4-.03.07-.12.12-.18.14l-.45.1.7.01c.07 0 .15.07.2.13.14.14.27.29.43.41-.3-.41-.61-.8-.79-1.29.02 0 .04-.02.05-.03l.1.13c.09-.07.07-.3-.02-.47h.1c.14.14.32.25.26.5-.01.04.03.12.07.16.15.18.32.33.45.52.08.1.14.3.1.4-.04.09-.24.13-.37.15-.13.02-.28.01-.38-.05-.08-.05-.08-.21-.11-.33l-.04-.11c-.07.24-.1.53-.5.28l.03.09.25.14c.12.05.19.14.16.27-.08.36.06.7.07 1.05 0 .04.05.1.1.11.25.07.49.16.68.35.1.1.23.16.35.23.18.11.24.27.18.48v.12c.16-.1.1-.24.1-.36 0-.09-.12-.23.08-.26.26-.04.42.04.43.23.02.14 0 .28-.02.42 0 .12-.03.23-.04.34-.02.16-.12.22-.26.14-.28-.15-.57-.3-.84-.46-.1-.07-.19-.18-.26-.29-.05-.07-.1-.08-.18-.07h-.6c-.1 0-.16-.08-.12-.2l.25-.63c-.05.04-.14.09-.18.16-.08.16-.15.32-.2.49-.03.09-.04.18-.16.2-.13 0-.15-.09-.2-.18-.1-.22-.2-.45-.33-.65-.11-.18-.26-.32-.42-.51.2-.27.08-.63.09-.95l.4-.16-.02-.04c-.1-.01-.24.01-.32-.04-.07-.05-.1-.18-.15-.28h-.02z" fill="#C6C1C0"/><path d="M36.69 35.95c.19-.06.17-.15.12-.27-.14-.35-.28-.7-.41-1.07-.04-.11-.1-.16-.23-.16l-1.16.01c-.13 0-.16.05-.18.1-.13.3-.25.6-.36.92-.12.35 0 .43.36.47V36h-2.99c.01-.14.05-.3.04-.42-.11-.84-.4-2.68-.4-2.68-.51 1.06-1.03 2.06-1.53 3.1h-.08c-.56-.98-1.02-2.15-1.54-3.2l-.36 2.65v.15c-.01.32.24.32.5.34V36H27v-.06c.22 0 .42 0 .49-.35l.17-1.05.43-2.81.05-.32c.03-.11.13-.15.2-.04l.36.74 1.3 2.66.08.13c.05-.09.1-.15.12-.22l1.56-3.23c.05-.1.2-.23.23-.04l.1.62.49 3.31c.07.5.22.61.73.61.38 0 .58-.2.72-.54.5-1.28 1.63-4.02 1.67-4.08.04-.06.06-.06.11 0 .04.05 1.53 3.67 1.53 3.67.18.44.33.84.86.95V36h-1.52v-.05zm-1.7-1.79h1.04c.15 0 .19-.04.13-.18-.18-.48-.49-1.68-.49-1.68l-.69 1.86zm-12.77.21c-.36-1.34.4-2.91 2.07-3.07 1.52-.14 2.96.71 2.86 2.42a2.38 2.38 0 01-2.11 2.37 2.45 2.45 0 01-2.82-1.73zm2.75 1.46c1.08-.07 1.38-1.39 1.32-2.36-.06-1.05-.88-2.04-2-1.9-1.15.13-1.42 1.4-1.3 2.36.12 1 .89 1.98 1.98 1.9zm-7.43-4.46h1.96c.17 0 .35.02.52.06.86.19 1.07 1.02.74 1.66a3 3 0 01-.66.77l.34.44c.3.38.6.74.92 1.11.24.28.52.49.9.52.08 0 .05.07-.01.07h-.9c-.32 0-.54-.18-.72-.41-.32-.4-.6-.8-.9-1.21a1.91 1.91 0 00-.18-.19c-.14-.14-.71-.23-.7.04 0 .45 0 .9.03 1.35.02.28.08.31.35.36.08 0 .16.02.23.03V36h-1.83v-.04c.27-.04.44-.09.46-.39l.05-3.38c0-.32.02-.71-.39-.74h-.21v-.09zm1.3 1.34v.87c0 .12.05.2.18.21h.44c.38 0 .7-.46.73-.91.05-.7-.31-1.3-1.13-1.24-.16 0-.23.07-.22.23v.84z" fill="#F6B817"/><path d="M19.53 17.48c.22.07.37-.08.52-.17.05.13.07.3.16.37.13.1.31.14.47.15a9.4 9.4 0 002.44-.18 3.44 3.44 0 011.28.03l-.37.06-.41.1.21.15c0 .02 0 .03-.02.04h-.57l.12.46c-.25.06-.54-.06-.53-.25l-.15.13-.12-.2c-.02.25.05.36.2.36l.16.4c-.3-.01-.5-.16-.47-.37l-.16.13-.14-.26c.01.2-.04.37.16.45.02 0 .03.04.04.06l.1.4a.41.41 0 01-.37-.44c-.06 0-.17.04-.17.03-.05-.1-.07-.2-.1-.3l-.1.07-.15-.22.02.25c0 .05.02.1 0 .14-.04.08-.1.14-.15.2l-.19-.2h-.03l.16.54.14-.12.04.18-.07.05c-.21.24-.21.24-.38-.09 0 .2.01.36-.17.46l-.16-.19-.04.03.2.4.2-.33.1.17.16-.13c.07.16.02.3-.16.47l-.16-.27c-.01.13-.02.24-.05.35-.02.11-.1.13-.17.04-.07-.07-.12-.15-.18-.23 0 .34.17.6.37.54l.09.41c-.26-.12-.37-.36-.5-.58-.22.26-.46.46-.85.48.27-.28.3-.6.27-.93-.15.36-.3.7-.7.86.3-.31.37-.7.37-1.1 0-.08-.06-.16-.1-.23-.05-.11-.21-.22 0-.33.02 0 .03-.05.03-.07-.01-.3 0-.6-.06-.87-.12-.6-.56-.86-1.12-.96-.17-.03-.35-.04-.48-.05.46-.08.94-.01 1.37.3.42.3.63.73.74 1.23l.05-.02c-.03-.15-.05-.31-.1-.47-.1-.33-.23-.64-.5-.87l-.02-.06zm12.29 7.24l.22.01c.07.02.13.06.22.07l-.23-.19c.16-.18.16-.24.03-.47-.1-.16-.07-.3.07-.4l.3-.27c.11-.1.22-.14.35-.09.05.03.08.09.12.14.04.05.06.12.11.17.1.1.11.25-.01.35l.09.07c-.16.11-.3.23-.19.46-.2.07-.41.06-.54.27l.38-.12-.07.58-.34-.2c.05.23.2.31.35.36.16.04.25.13.32.27.1.23.23.45.35.67l.06.1c.03.23.14.42.24.62.04.1.02.24.03.36v.6c0 .1-.02.2-.04.32s-.09.2-.21.23c-.36.11-.53.03-.61-.34-.07-.32-.1-.63.03-.94.1-.23.2-.44.52-.4-.2-.15-.39-.13-.48.06-.07.15-.12.32-.17.48-.06.22-.16.25-.33.11a2.4 2.4 0 01-.58-1.45c0-.26.03-.53 0-.79a1.3 1.3 0 01.04-.64h-.03z" fill="#C6C1C0"/><path d="M17.31 19.02l.44-.78c.02-.05.04-.1.04-.15 0-.25.17-.46.43-.5.47-.07.91.23 1.06.74-.1-.06-.19-.1-.26-.16-.13-.09-.25-.2-.38-.28-.27-.15-.45-.09-.61.22.2-.14.4-.22.59 0-.13.04-.13.04-.34.4.35.01.69.03 1.04-.12l.06.52c0 .09-.05.1-.13.07l-.07-.04c-.07-.01-.17-.04-.2 0-.05.03-.06.14-.04.2.08.16.17.32.28.46.22.29.25.5.08.82-.07.13-.17.24-.33.23-.5-.05-.95.12-1.4.24-.24.06-.46.16-.7.07l-.1-.04c-.02 0-.03-.02-.05-.04.08-.05.07-.22.24-.12.06.04.16-.01.24-.02l.2-.02c.02-.05.03-.14.04-.27.04.07.05.12.08.14.06.04.13.1.19.1.13-.03.26-.07.37-.14a.62.62 0 01.45-.1c.1.01.18-.02.2-.13.02-.11-.03-.18-.14-.19-.3-.01-.6-.04-.9-.03-.06 0-.12.14-.19.22l-.05-.11c-.02-.03-.05-.08-.08-.08-.31 0-.42-.26-.63-.46.17-.07.34-.1.26-.35.12.08.21.12.28.18.08.1.17.1.27.05a.45.45 0 01.38 0l.83.31c.17.06.26.16.18.35v.1c.22-.17.22-.38 0-.53a4.64 4.64 0 00-1.63-.76zm14.83 8.51l-.7-.56-.03.02c.08.1.15.22.24.3.21.19.33.4.3.68-.01.14.02.29.04.43 0 .15-.06.22-.22.2l-.5-.06c.03-.13-.16-.27.06-.4.02 0 0-.09-.02-.13-.13-.29-.29-.56-.4-.85-.1-.26-.02-.37.24-.46.13-.05.27-.09.4-.12.05 0 .13.03.15.06l.46.86-.02.03zm-4.04.99c-.25-.38-.43-.8-.84-1.01a.34.34 0 00-.16-.03c.46.3.69.79 1 1.2.1.16.02.3-.15.33-.1.02-.2.03-.28.09-.16.11-.3.05-.45-.01-.04-.02-.06-.12-.06-.18 0-.04.03-.1.04-.1l.56-.33-.02-.05-.4.15c-.22-.2-.46-.42-.68-.65-.13-.14-.1-.26.04-.38.2-.16.43-.22.67-.2.06 0 .13.06.18.1.28.29.44.63.56 1l-.01.07zm-1.17 11.61c-.15.2-.44.27-.71.19a.6.6 0 01-.43-.5c-.05-.33.04-.6.33-.78.3-.2.64-.2.96-.03.32.2.41.52.4.88-.02.66-.6 1.45-1.22 1.67l-.14.01.18-.15c.6-.45.9-1.22.71-1.88a.9.9 0 00-.2-.37c-.18-.2-.46-.14-.59.1a.75.75 0 00.08.77c.12.14.27.2.45.14l.18-.05zm2.59.77c0 .18-.03.38-.12.56-.01.03-.07.04-.1.04h-1.54s.52-.51.78-.8c.3-.33.5-.71.43-1.19-.05-.3-.23-.46-.5-.44-.3 0-.4.25-.46.5-.1-.5.37-.7.74-.66.54.06.8.47.63 1-.13.42-.42.71-.73 1l-.35.29.9-.03c.12-.02.32-.27.32-.27zm1.72-1.63h-.96c-.18.01-.2.04-.4.28.03-.16-.01-.53.18-.55h1.5c.07 0 0 .12-.01.14-.35.63-.7 1.33-.83 2.05-.05.27-.16.36-.5.37.23-.81.62-1.53 1.02-2.29zm-6.73.03c-.18.08-.37.2-.52.25 0-.02-.02-.04-.03-.05l.94-.64v.2l-.01 1.98c0 .4.38.48.38.47h-1.2s.44-.18.44-.47v-1.73zm7.31-14.58c-.23.13-.2.35-.2.56 0 .14.03.27.05.4.03.12-.01.18-.1.23-.1.05-.2.09-.27 0-.14-.18-.3-.36-.4-.55-.1-.22-.22-.36-.49-.33-.17.03-.29-.08-.39-.2-.02-.03-.02-.08-.03-.12h.12c.11.02.22.07.33.08.06 0 .12-.05.19-.08l-.12-.13-.05-.08c.22.08.43.06.52.29 0 .02.02.03.03.04.3.21.39.53.44.87l.02.05h.03c0-.1 0-.2-.02-.28-.07-.27.06-.47.2-.67.02-.04.1-.05.14-.08zm1.91.98l-.29-.44a.32.32 0 01-.05-.19c.02-.15 0-.25-.16-.3-.03-.02-.04-.06-.06-.1.32.01.44.1.51.41l.15.57c.04.19 0 .36-.12.5-.11.14-.3.13-.38-.02l-.42-.78c.17 0 .33-.05.45 0 .13.06.23.2.37.34zm-3.45-2.11l-.25-.96c-.03-.1.03-.16.13-.18.11-.02.22-.03.34-.03.17 0 .26.09.24.26-.05.34-.2.64-.4.9h-.06zm-1.95-.01l-.2-.9c0-.05.08-.14.12-.14.15-.03.3-.04.44-.03.15.02.27.23.19.36-.15.24-.32.47-.49.7h-.06zm3.9-.37c-.2-.28-.36-.55-.45-.86 0-.03.05-.13.08-.13.16-.03.32-.05.48-.04.14.02.21.16.2.29-.03.26-.16.49-.3.74zm-12.7-5.73c-.14 0-.15-.08-.14-.19 0-.14.02-.3 0-.44-.01-.24.1-.5.3-.6.05-.03.13-.04.17-.01.15.08.27.21.3.39l-.33-.2-.04.03c.01.06.04.12.04.17-.01.2-.01.4-.05.58-.02.07-.14.12-.22.15-.07.04-.13.05-.03.12zm16.5 10.88l.27-1.11.26-1c.03-.12.08-.3.23-.25.16.04.06.21.03.32l-.68 1.9c-.01.06-.04.11-.06.16l-.05-.02zm-2.93-4.08l.08.12.08-.28c.04-.2-.21-.77-.48-.88.3-.06.45.1.6.34.1.18.2.34.16.54-.03.13-.08.27-.15.4-.03.07-.27.06-.35-.04-.03-.04 0-.14 0-.2h.06zm-6.7-.33l-.13-.8.03-.06c.13-.01.27-.06.37-.01.08.03.15.2.12.28-.07.21-.2.4-.3.6l-.1-.01zm-4.77-5.05l.14.03c.08.07.02.28.23.22l.04.07.27.67-.32-.27c-.15-.11-.02-.24-.01-.4l-.2.26c-.22-.14-.25-.25-.15-.58zm5.25 1.24l.63 1.5c-.33-.16-.7-1.07-.63-1.5zm-9.63-2.54l.3-.83.04-.01.15.64-.5.2z" fill="#C6C1C0"/><path d="M32.8 24.99l.15.09-.11-.32.02-.02.19.2h.03l-.09-.37.32.42c0 .16-.13.26-.48.29l-.04-.3zM21.79 20l.37.91c-.19-.15-.37-.36-.35-.71l-.13.28c-.24-.15-.27-.22-.2-.38l.19.18.12-.27zm.07-.14l-.02.02c-.08.03-.17.11-.22.1-.12-.05-.17-.25-.12-.37l.05-.14.07.13c.06.1.13.14.25.02v.23zm11.93 8.08l.19.36c.04.1.03.21-.08.27-.05.02-.12.01-.18.02v-.15l.07-.5zm-6.91-1.14c.23.07.31.05.47-.14.1.22.08.3-.08.38-.13.06-.26-.01-.39-.24zm-5.28-5.52c-.28-.17-.38-.45-.45-.77l.17.06.28.7zm13.85 7.27c-.08.07-.13.13-.19.17-.06.03-.14.03-.21.05 0-.1 0-.2.02-.29.01-.02.13-.02.19-.01.05 0 .1.04.19.08zm1.9.85c-.1.02-.14-.03-.14-.13-.02-.35 0-.4.22-.45l-.08.58zM21.9 21.16l-.45-.59.03-.03.23.2c.04-.05.06-.09.1-.12l.13.51-.04.03z" fill="#C6C1C0"/><path d="M21.86 19.86l.01-.01.08.01.17.26.17.23-.03.04-.47-.38.07-.15zm-5.06-.42c-.15.03-.25-.02-.28-.16 0-.02.07-.1.11-.1.12-.01.18.08.17.26zm17.95 9.26c0-.06-.03-.12-.01-.17.04-.1.09-.21.27-.2l-.18.38h-.08zm-17.99-8.5c.07.04.16.06.2.12.01.04-.05.13-.08.2l-.06-.01-.11-.26.05-.05z" fill="#C6C1C0"/><path fill-rule="evenodd" d="M16.04 15.16l.43-.14 1.9.08c-.77.3-1.56.59-2.36.83l.03-.77zM15.58 28l-.03 1h6.78l.15.48c.08-.1.13-.21.18-.33.1-.21.2-.42.43-.54.08-.03.14-.14.16-.22l.04-.2c.06-.32.13-.65.15-.99a155.44 155.44 0 00.2-3.51V23.39h.02l.04.1.1.25a12.04 12.04 0 00.15.34l.06-.01-.01-.14a1.2 1.2 0 00-.1-.41 4.7 4.7 0 00-.3-.78 3.22 3.22 0 01-.34-2.04l.01-.08c.04-.32.09-.64.18-.95.23-.75.73-1.3 1.42-1.65.32-.16.64-.1.83.2.1.14.16.3.22.45l.07.18c.08-.24.05-.64-.2-1.04h1.59l1.64.04c.8.03 1.6-.03 2.4-.1l.55-.04a7.03 7.03 0 013.59.59c.47.22.81.58 1.06 1.03.35.61.51 1.29.58 1.98.06.55.07 1.11.06 1.67l-.08-.47c-.05-.36-.1-.71-.17-1.07a6.35 6.35 0 00-.55-1.83 3.33 3.33 0 00-1.22-1.23.24.24 0 00-.16-.03l.01.02.04.04c.8.6 1.25 1.45 1.49 2.42a36.24 36.24 0 01.52 2.58c.03.12.08.24.15.33l.07.08c.51.61 1.03 1.23 1.56 1.83.26.28.33.55.2.92-.17.5-.32 1.01-.46 1.52l-.22.75c-.03.12-.08.24-.14.35a.47.47 0 01-.6.2c-.05-.02-.1-.14-.1-.21 0-.1.02-.24.18-.25.27-.03.29-.04.3-.3a148.7 148.7 0 00.03-2.22v-.14a432.48 432.48 0 00.55.28l.04-.04a2.23 2.23 0 01-.07-.13.98.98 0 00-.18-.25l-1.33-1.12-.03-.03-.04-.02c-.76-.64-1.53-1.28-2.16-2.06-.19-.23-.35-.49-.51-.74l-.11-.18-.22-.33c-.4-.63-.8-1.25-1.18-1.89a2.7 2.7 0 01-.3-.76c-.08-.3.01-.6.2-.87-.52.22-.8.9-.54 1.37.22.43.46.85.7 1.28a105.98 105.98 0 01.33.6l.03.04c-.86-.52-1.71-.37-2.55.02-.32.14-.63.27-.98.29-.2 0-.35-.05-.45-.22l-.48-.9-.03-.06a2.5 2.5 0 01-.07-.15 1.84 1.84 0 00-.1-.19c.03.58.26 1.1.5 1.63-.17 0-.3-.1-.37-.22l-.03-.04c-.2-.34-.4-.67-.55-1.02-.1-.24-.18-.5-.26-.75a14.3 14.3 0 00-.1-.33c-.08.36.18 1.35.63 2.37-.26-.04-.44-.2-.58-.4a3.38 3.38 0 01-.54-1.43c-.05-.28-.2-.46-.45-.55a25.47 25.47 0 00-.81-.26l.02.13.03.21c.08.6-.06 1.16-.23 1.72-.28.92-.7 1.79-1.12 2.65a.74.74 0 00-.09.26l.36-.41.17-.2.05.01v.11c0 .08 0 .16-.02.23 0 .04-.02.07-.03.1-.14.52-.28 1.04-.44 1.55a5.58 5.58 0 00-.28 2.07l-.01.13-.03.01-.02.01c-.13 0-.2 0-.24.03-.04.03-.06.1-.09.22a157.9 157.9 0 00-.28 1.17c-.03.11-.06.21-.22.1a.337.337 0 00-.2 0h-.12l.1-.4-.02-.03-.04.03-.07.07c-.04.06-.09.13-.12.2-.12.26-.33.35-.64.33l.03.09.5-.1.8.03.2-.53h2.88l.3.3h.65l.65-.3h1l.99.5h.5l.5-.5h5.48v.5h1.49l.3-.5h1.7v-1h-1.39l.12-.4.1-.32.04-.16.18-.56c.09-.33 0-.62-.22-.88l-.79-1.02-.67-.86a.58.58 0 01-.13-.38c0-.99-.05-1.97-.24-2.95A3.31 3.31 0 0035 17.76a8.83 8.83 0 00-3.2-.36 41.9 41.9 0 01-2.66.09l-1.6.02c-1.09 0-2.16-.06-3.25-.16-.42-.04-.86 0-1.3.04l-.43.04-.88.08-.69.07-.32-.03h-.02c-.17-.04-.25-.12-.2-.3.15-.5-.08-.88-.4-1.22-.2-.21-.23-.2-.47-.04a1 1 0 00-.49.93c.01.12-.04.15-.15.15h-.98l-.2-.55-.2-.54h-.02l-.23.35c-.18.28-.36.56-.5.86-.05.1-.09.22-.13.34-.05.18-.11.37-.22.54-.06.08-.05.2-.04.33.01.06.02.13.01.2 0 .06-.02.16-.06.2-.34.27-.4.4-.27.82.04.14.1.27.17.4.17.27.26.56.15.89-.05.15.02.26.17.3.16.05.32.09.48.1l1.9.15c1.35.1 2.53.68 3.72 1.26l.01.01c.45.22.6.53.6 1 0 1.28-.09 2.56-.24 3.84-.05.4-.07.43-.46.43h-7.03zm24.87-11.85V16l-.58-.02.58.17zM21.8 20a27 27 0 01.07-.15l-.02.02c-.03 0-.05.02-.07.04-.06.03-.11.06-.15.05-.12-.04-.17-.24-.12-.36a1.4 1.4 0 00.05-.14l.07.13c.06.1.13.14.26.02v.23h.02l.05.01.09.14.08.12.12.17.05.06-.03.04-.24-.2-.23-.18zm0 0a255.83 255.83 0 00.37.9c-.19-.15-.37-.36-.35-.71l-.1.2c0 .03-.02.06-.03.08-.24-.15-.27-.22-.2-.38l.12.11.07.07.06-.15.06-.12zm-.24-.54h-.02a.28.28 0 00-.05.05c-.1.11-.16.17-.2.17-.05 0-.1-.09-.18-.26v.06c0 .16 0 .31-.17.4l-.16-.19-.04.02.2.4.2-.32.1.16.15-.12c.08.16.03.3-.15.46l-.15-.25v-.01l-.02.11-.04.24c-.02.11-.1.12-.17.04l-.13-.16-.05-.07c0 .34.17.6.37.54l.09.41c-.22-.1-.33-.3-.44-.48a7.8 7.8 0 00-.06-.1c-.22.26-.46.45-.85.48.27-.28.3-.6.27-.94-.15.36-.3.71-.7.87.3-.31.37-.7.37-1.11 0-.05-.03-.1-.06-.16a.96.96 0 01-.04-.07l-.05-.07c-.06-.08-.12-.17.05-.25.02 0 .03-.05.03-.08V19c-.01-.2-.02-.42-.06-.62-.12-.6-.56-.85-1.12-.95l-.35-.04-.13-.01c.46-.08.94-.01 1.37.3.42.3.63.73.74 1.23l.02-.01.03-.01-.03-.15a2.3 2.3 0 00-.07-.32c-.1-.33-.23-.64-.5-.88l-.01-.04c.18.05.31-.05.44-.13l.07-.05.04.13c.03.1.06.2.12.24.13.1.31.14.48.15.81.05 1.62-.02 2.43-.18a3.43 3.43 0 011.28.02 13.63 13.63 0 01-.37.07l-.26.07c-.04 0-.1.02-.15.04l.22.14a3.7 3.7 0 01-.02.04h-.58l.12.46c-.25.06-.53-.06-.53-.25l-.15.13-.04-.07-.08-.14c-.02.25.05.37.2.37l.16.4c-.3-.01-.5-.16-.47-.37l-.16.12-.05-.1-.1-.15.01.12c0 .14 0 .26.16.32.02.01.03.05.04.07l.08.3.03.1a.41.41 0 01-.38-.44l-.07.01-.1.02a1.4 1.4 0 01-.08-.23l-.02-.07a8.38 8.38 0 00-.1.07l-.07-.1-.08-.12a37.44 37.44 0 00.02.25v.04c.01.04.02.08 0 .1a.45.45 0 01-.1.14l-.05.06-.1-.1-.09-.1h-.03l.16.53.14-.1.04.17zm-2.03-2c-.08-.05-.04-.07.02-.1h.02l.02-.02c.08-.03.19-.08.2-.14.03-.16.04-.32.04-.49v-.09c0-.04 0-.08-.02-.12l-.01-.05.04-.03.33.2a.56.56 0 00-.3-.4c-.04-.02-.12-.01-.16.01-.21.11-.32.37-.3.61v.36l-.01.08c0 .1 0 .2.13.18zm12.28 7.26l-.03.01c-.04.02-.08.04-.1.07-.13.2-.26.4-.2.66.02.06.03.13.03.2a2 2 0 000 .09h-.02l-.01-.01-.02-.05c-.05-.34-.14-.66-.44-.87-.02 0-.02-.02-.03-.04-.06-.17-.2-.2-.34-.24a1.43 1.43 0 01-.18-.05l.03.05.02.03.08.1.04.03a.7.7 0 00-.06.04c-.05.02-.1.05-.13.04-.07 0-.14-.02-.2-.05-.05 0-.09-.02-.13-.03H30v.04l.03.08c.1.12.22.23.39.2.27-.03.39.1.5.33.08.17.2.32.33.47l.06.07c.07.1.17.06.27.01.09-.05.12-.11.1-.22a2.22 2.22 0 01-.04-.49c0-.17 0-.35.17-.47zm.05 0h.19l.07.03c.04.02.1.04.15.04l-.23-.19c.16-.18.16-.24.03-.47-.1-.16-.07-.3.07-.4l.3-.27c.11-.1.22-.14.35-.09.04.02.07.06.1.1 0 .02 0 .03.02.04l.04.07.07.1c.1.1.11.25-.01.35l.09.07c-.16.11-.3.23-.19.46l-.15.05c-.15.03-.3.07-.39.22l.38-.12-.04.3-.03.29-.34-.2c.05.22.2.3.35.35.16.04.25.13.32.27.07.16.16.31.24.46l.11.2.02.04.04.08c.03.18.1.34.19.51l.05.1c.03.07.03.17.03.26v.7a1.76 1.76 0 01-.04.33c-.02.12-.09.2-.21.23-.36.11-.53.03-.61-.34-.07-.32-.1-.63.03-.94.1-.23.2-.44.52-.4-.2-.15-.39-.13-.48.06-.07.15-.12.3-.16.46l-.01.02c-.06.22-.16.25-.33.11a2.41 2.41 0 01-.57-1.66c0-.2.01-.39-.02-.58a1.3 1.3 0 01.05-.64zm-.78-1.84a29.87 29.87 0 00.25.38l.05.08c.02.04.04.09.08.12v.01c.06.07.14.15.21.15.06 0 .11-.06.16-.12l.05-.05.04-.07.02-.05.05.06.04.04-.1.14c-.06.1-.13.2-.15.3-.02.1.01.21.04.33l.04.15-.54.43-.04-.04-.12-.15c-.12-.21-.32-.26-.52-.3l-.12-.04h-.04a.82.82 0 01-.33.17c-.11.04-.22.07-.31.14-.16.13-.17.3-.02.44.16.16.34.29.58.27.15 0 .23.06.29.2.04.1.1.21.17.31.19.25.38.5.77.38l.01.05a.98.98 0 00-.05.04.41.41 0 01-.1.08l-.25.09c-.1.03-.2.06-.28.1-.27.12-.37.3-.3.58a3.65 3.65 0 00.3.78l.06.1a1.17 1.17 0 00-.37-.01c-.18 0-.34.02-.48-.09a9.54 9.54 0 01-.1-.06c-.2-.15-.4-.3-.66-.36-.03 0-.06-.06-.07-.1l-.05-.69-.03-.25h.12l.18.02c.22.03.42-.04.6-.16.18-.13.17-.34.1-.5a3.38 3.38 0 00-.46-.63l-.01-.02c-.1-.11-.17-.2-.16-.37.02-.2-.35-.54-.56-.55-.17 0-.23.05-.3.31l-.1-.04-.18-.08c-.21-.13-.4-.06-.57.06-.3.2-.49.48-.53.85a6.4 6.4 0 01-.36.46.8.8 0 01-.2.15c-.04.03-.1.04-.14.06-.04.01-.09.02-.13.05-.17.08-.2.18-.12.35.02.03.02.07.03.1l.01.08.01.04c.01.05.02.1.05.15l.23.29.1.12c-.31.17-.58.38-.43.83H24.9c-.13 0-.18-.07-.18-.2a6.92 6.92 0 01.55-2.94c.14-.4.3-.81.32-1.3l.1.07c.06.05.11.08.14.12l.14.2.14.2c.16.19.32.2.5.02.07-.08.13-.18.2-.28a4.84 4.84 0 01.18-.32c.19-.3.36-.34.65-.13.1.09.2.2.29.31.25.33.5.32.73-.03l.35-.57c.07-.12.16-.14.27-.04l.6.54c.42.37.55.34.8-.15a394.4 394.4 0 01.32-.62h.07zm-3.58 2.85h-.03v.47a8.39 8.39 0 00.03.5.54.54 0 01-.08-.22c-.03-.12-.05-.22-.19-.26.13.13.16.27.03.4-.05.06-.15.12-.22.11-.04 0-.08-.05-.12-.1l-.06-.07-.13.08.06-.27.3-.07v-.03h-.43v-.07l.3-.05.19-.03c.11-.65.6-.59 1.1-.5l.01-.05-.12-.02-.28-.05c-.16 0-.24-.07-.22-.23.02-.1.07-.21.13-.31-.02.23.11.36.31.45l-.04-.05a.36.36 0 01-.1-.14c-.03-.08-.07-.18-.04-.23a.67.67 0 01.29-.26c.08-.04.21-.01.3.02.22.08.25.17.28.51l.03-.15.04-.17c.08.06.2.3.16.4-.03.07-.11.12-.18.14l-.2.04-.25.06h.2l.5.01c.07 0 .15.07.2.13l.13.12.3.3-.14-.2c-.25-.35-.5-.7-.64-1.1l.02-.01.02-.02.11.13c.08-.07.07-.3-.03-.47h.1l.06.07c.12.1.24.22.19.42-.01.05.03.13.07.17l.17.2c.1.1.2.2.28.32.08.1.14.3.1.4-.04.09-.23.13-.37.15-.12.02-.28.02-.38-.05-.05-.04-.07-.13-.08-.22l-.03-.1v-.03a.49.49 0 00-.04-.1l-.02.06c-.05.23-.1.46-.47.23l.02.09.08.04.18.1c.12.05.18.14.15.27-.05.22-.01.44.02.66.02.13.05.26.05.4 0 .03.06.1.1.1.25.07.5.16.69.35.07.08.16.13.25.18l.09.05c.18.11.24.27.18.48v.12c.13-.08.12-.18.11-.28v-.08l-.02-.08c-.03-.08-.05-.16.09-.18.26-.04.42.04.44.23 0 .11 0 .23-.02.35v.07a2.74 2.74 0 01-.05.34c-.02.16-.12.22-.26.14a29.5 29.5 0 00-.2-.1l-.63-.36a.936.936 0 01-.27-.29c-.05-.07-.1-.08-.18-.07h-.59c-.1 0-.17-.08-.13-.2l.18-.44.08-.2-.06.05a.41.41 0 00-.13.12 2.78 2.78 0 00-.21.53c-.02.07-.04.14-.14.15-.12.02-.15-.06-.19-.14l-.01-.03-.04-.07c-.09-.2-.18-.4-.3-.58a2.12 2.12 0 00-.27-.34l-.15-.17c.14-.2.12-.43.1-.66l-.01-.3.4-.15-.01-.04h-.1c-.09 0-.17 0-.22-.04-.06-.03-.09-.1-.11-.18a1.08 1.08 0 00-.04-.1zm-8.54-5.96a4.65 4.65 0 00-1.64-.76l.1-.18.34-.6c.02-.05.04-.1.04-.15 0-.26.17-.46.43-.5.47-.07.91.23 1.06.74a7.41 7.41 0 00-.1-.06l-.16-.1-.14-.1-.24-.18c-.27-.15-.45-.09-.61.22.2-.14.4-.22.59 0-.13.04-.13.04-.34.4h.06c.33.01.65.03.98-.12l.02.15.04.37c0 .09-.05.1-.13.07l-.02-.02-.05-.02-.05-.01c-.06 0-.13-.02-.16 0-.04.04-.05.15-.03.2.08.17.17.33.28.47.22.29.25.5.08.82-.07.13-.17.24-.33.23-.4-.04-.76.06-1.12.16l-.29.08-.11.03c-.2.06-.39.11-.59.04l-.03-.01-.07-.03-.02-.02a.4.4 0 00-.02-.02.2.2 0 00.05-.07c.04-.06.07-.12.19-.05.04.02.1 0 .16 0l.08-.02a2.8 2.8 0 01.2-.02c.02-.05.03-.15.04-.27l.03.06.05.08.02.01c.05.04.12.1.17.08.13-.02.26-.06.37-.13a.62.62 0 01.45-.1c.1.01.18-.02.2-.13.02-.11-.03-.18-.14-.19l-.2-.01a7.5 7.5 0 00-.7-.02c-.04 0-.08.07-.12.13l-.07.09v-.02a.79.79 0 00-.05-.1c-.02-.02-.05-.07-.08-.07-.24 0-.36-.15-.49-.3l-.14-.16.05-.02c.15-.05.28-.1.21-.33l.11.07c.07.04.12.07.16.11.1.1.18.1.28.05a.45.45 0 01.38 0 27.6 27.6 0 00.83.31c.17.06.26.16.18.35-.01.02 0 .04 0 .07v.04c.22-.18.22-.39 0-.54zm14.74 4.69l.1-.04.35.37.78.83c.56.66.55 1.43.38 2.23-.02.04-.1.14-.16.14h-.91c-.15 0-.21-.14-.26-.25v-.02a.35.35 0 01-.03-.22c.07-.26-.03-.47-.15-.68-.13-.23-.13-.25.05-.43.2-.22.3-.47.24-.77-.06-.25-.12-.5-.2-.75a.68.68 0 00-.09-.17 1.16 1.16 0 01-.06-.1.34.34 0 01-.03-.1v-.04zM37.5 28h-1.04l.17-.5.2-.57.09-.23.1-.25a.84.84 0 00-.17-.88 10.47 10.47 0 01-.64-.88 62.75 62.75 0 001.1.84c.37.3.52.69.46 1.17-.04.3-.05.6-.06.9l-.01.2c0 .13-.06.2-.2.2zm-5.35-.48l-.01.01-.18-.14-.52-.42-.03.02.07.1c.06.07.1.15.17.2.21.19.33.4.3.68 0 .1 0 .2.02.29l.02.14c0 .15-.06.22-.22.2a29.5 29.5 0 01-.5-.06.24.24 0 00-.02-.14c-.03-.08-.06-.17.08-.25.02 0 0-.1-.02-.14l-.14-.3c-.1-.18-.19-.36-.26-.55-.1-.26-.02-.37.24-.46.13-.05.27-.09.4-.12.05 0 .13.03.15.06l.35.65.1.21v.02zm-4.04.96l-.01.04-.15-.24c-.19-.3-.36-.6-.69-.77a.34.34 0 00-.16-.03c.34.22.55.55.77.87l.22.34c.12.15.03.3-.14.32-.1.02-.2.03-.28.09-.16.11-.31.05-.45-.01-.04-.02-.06-.12-.06-.18l.03-.09v-.01l.57-.33v-.03l-.02-.02-.4.15-.2-.18-.48-.47c-.13-.14-.1-.26.04-.38.2-.16.43-.22.67-.2.06 0 .13.06.18.1.28.29.44.63.56 1v.03zm5.5-2.92l.12.13a20.47 20.47 0 00-.29-.43.32.32 0 01-.05-.19c.02-.15 0-.25-.16-.3-.02-.01-.03-.03-.04-.06a.37.37 0 00-.02-.03c.32 0 .44.1.51.4a17.61 17.61 0 00.15.57c.04.19 0 .36-.12.5-.11.14-.3.13-.38-.02l-.29-.53-.13-.25.15-.01c.12-.01.22-.02.3.02.1.03.16.11.25.2zm-3.26-1.97h-.07l-.06-.24-.2-.72c-.02-.1.04-.16.14-.18.1-.02.22-.03.34-.03.17 0 .26.09.24.26-.05.34-.2.64-.4.9zm-2-.01h-.02l-.05-.2-.14-.7c0-.05.07-.14.11-.14.15-.03.3-.04.44-.03.15.02.27.23.19.36-.1.17-.23.34-.34.5l-.15.2h-.03zm4.19-1.11c-.03.26-.16.49-.3.74-.21-.28-.37-.55-.46-.86 0-.03.05-.13.08-.13.16-.03.32-.05.48-.04.14.02.21.16.2.29zm3.54 5.91l-.05-.02.08-.33.19-.78.26-1c.04-.13.09-.3.23-.25.14.04.09.17.05.27l-.02.05-.57 1.61-.1.3a1.08 1.08 0 01-.07.15zm-3.04-4.1h.06l.08.12.03-.1.05-.18c.04-.2-.21-.77-.48-.88.3-.06.45.1.6.34v.02c.1.17.2.32.16.52-.03.13-.08.27-.15.4-.04.07-.27.06-.35-.04-.02-.03-.01-.08 0-.14v-.07zm-6.6-.33h-.04a34.92 34.92 0 01-.13-.8l.03-.06.1-.02c.1-.01.2-.03.27 0 .08.04.15.21.12.29-.05.15-.13.3-.21.43a7.2 7.2 0 00-.1.17h-.04zm-4.65-4.47c-.23-.14-.26-.25-.16-.58l.14.03c.03.02.04.06.05.1.02.08.04.16.18.12l.04.07.22.53.05.14-.11-.1-.21-.17c-.1-.08-.08-.16-.04-.26a.58.58 0 00.03-.14l-.08.1-.11.16zm5.72 2.16c-.33-.16-.7-1.07-.63-1.5l.33.79.3.71zm-9.77-4.24l-.5.2.07-.16.25-.67h.01l.02-.01.15.64zm15.1 7.88l-.05-.3.16.1-.06-.18-.05-.14.02-.02.19.2h.03l-.01-.08-.08-.29.05.06.27.36c0 .16-.13.26-.48.29zm.92 2.83l.03-.17.07.13.12.23c.04.1.03.21-.08.27-.04.02-.08.02-.12.02a.6.6 0 00-.06 0 1 1 0 000-.05 11.66 11.66 0 01.05-.43zm-6.49-1.07c-.13.06-.26-.01-.39-.24.23.07.31.05.47-.14.1.22.08.3-.08.38zm-5.95-6.47l.28.7c-.28-.16-.38-.44-.45-.76l.17.06zm14.05 7.94l.08.04-.07.07a.5.5 0 01-.12.1.52.52 0 01-.15.04l-.06.01v-.08c0-.07 0-.14.02-.2.01-.03.13-.03.19-.02.04 0 .07.02.11.04zm2.06.31l-.08.58c-.1.02-.14-.03-.14-.13-.02-.35 0-.4.22-.45zm-15.49-7.69l-.04.03-.45-.59a1.04 1.04 0 01.03-.03l.03.03.2.16.1-.11.13.51zm-5.3-1.95c.11-.01.17.08.16.26-.15.03-.25-.02-.28-.16 0-.02.07-.1.11-.1zm18.13 9.52h-.02v-.06a.145.145 0 01-.01-.11c.04-.1.09-.21.27-.2l-.18.38h-.06zm-18.03-8.48l.02-.02.07.03c.05.03.1.05.12.09.02.03-.01.08-.04.13a.73.73 0 00-.03.06h-.06l-.11-.26.03-.03z" fill="#1D1C1A"/><path fill="#1D1C1A" d="M13.5 28h3v1h-3zm26.95 0h1.5v1h-1.5v-1z"/><path d="M28 7.7l.39.49c.45.57 1.28 1.29 2.38 2.07 1.09.77 2.4 1.59 3.8 2.35 2.8 1.53 5.85 2.83 7.96 3.22l.33.06.07.33c1.52 7.22 1 22.13-14.66 32.3l-.27.18-.27-.18c-15.67-10.17-16.18-25.08-14.66-32.3l.07-.33.33-.06c2.11-.39 5.17-1.69 7.97-3.22 1.39-.76 2.7-1.58 3.8-2.35 1.09-.78 1.92-1.5 2.37-2.07L28 7.7zm-14.02 9.05C12.6 23.77 13.28 37.78 28 47.5c14.72-9.73 15.4-23.74 14.02-30.76-2.24-.48-5.24-1.78-7.93-3.26a39.69 39.69 0 01-3.9-2.41A16.07 16.07 0 0128 9.26c-.55.57-1.31 1.19-2.2 1.82a39.7 39.7 0 01-3.89 2.41c-2.69 1.48-5.7 2.78-7.93 3.26z" fill="#1D1C1A"/></svg>