<!-- by TradingView --><svg width="56" height="56" viewBox="0 0 56 56" fill="none" xmlns="http://www.w3.org/2000/svg">
<rect width="56" height="56" fill="#F0F3FA"/>
<path fill-rule="evenodd" clip-rule="evenodd" d="M28 45C37.3888 45 45 37.3888 45 28C45 18.6112 37.3888 11 28 11C18.6112 11 11 18.6112 11 28C11 37.3888 18.6112 45 28 45ZM28 41.1674C35.2722 41.1674 41.1674 35.2722 41.1674 28C41.1674 20.7278 35.2722 14.8326 28 14.8326C20.7278 14.8326 14.8326 20.7278 14.8326 28C14.8326 35.2722 20.7278 41.1674 28 41.1674Z" fill="url(#paint0_linear_2363_47881)"/>
<circle cx="33.8334" cy="35.3263" r="2.87903" fill="url(#paint1_linear_2363_47881)"/>
<path d="M32.1112 11.6576C34.881 11.8555 38.1564 14.2956 39.4479 15.4909L41.0966 17.2632C38.0877 15.8618 35.4498 14.2956 32.1112 14.378C28.7725 14.4604 24.4859 17.8403 24.8156 24.1466C25.1454 30.4529 30.0091 33.8739 33.5126 35.028C36.3154 35.9513 36.5992 34.682 36.3519 33.9126C37.4819 36.1117 35.9856 38.2842 33.5126 38.4903C31.5341 38.6552 28.9511 37.2126 27.907 36.4707C25.1042 34.5059 19.7953 28.8207 20.9824 21.7972C22.4662 13.0178 28.6489 11.4103 32.1112 11.6576Z" fill="url(#paint2_linear_2363_47881)"/>
<circle cx="18.6668" cy="29.6363" r="2.904" transform="rotate(118.455 18.6668 29.6363)" fill="url(#paint3_linear_2363_47881)"/>
<path d="M40.3305 39.3895C38.8369 41.7305 35.1225 43.5423 33.4562 44.1082L31.1124 44.7133C33.7782 42.7356 36.4206 41.0679 37.9388 38.0934C39.4571 35.1188 38.528 29.7396 32.8264 27.0248C27.1248 24.31 21.7997 26.9561 19.1157 29.4864C16.9685 31.5107 17.9721 32.3754 18.7664 32.5246C16.337 32.5246 15.0746 30.1093 16.0717 27.8368C16.8694 26.0188 19.3684 24.4352 20.5182 23.8707C23.581 22.3426 31.109 20.3839 36.7184 24.774C43.7302 30.2617 42.1976 36.4633 40.3305 39.3895Z" fill="url(#paint4_linear_2363_47881)"/>
<circle cx="31.35" cy="19.2577" r="2.904" transform="rotate(-120.996 31.35 19.2577)" fill="url(#paint5_linear_2363_47881)"/>
<path d="M11.9393 32.9571C10.6825 30.4809 10.9388 26.3576 11.2983 24.6349L11.9685 22.3089C12.3168 25.6099 12.4812 28.7367 14.2712 31.5562C16.0612 34.3756 21.1659 36.3096 26.4019 32.7793C31.6379 29.2491 32.0657 23.3181 31.2508 19.7206C30.5989 16.8425 29.307 17.2958 28.7748 17.904C30.0459 15.6978 32.7685 15.9238 34.2187 17.9376C35.3789 19.5486 35.4724 22.5057 35.3742 23.7828C35.1334 27.1972 32.9939 34.6757 26.362 37.2751C18.0722 40.5243 13.5103 36.0523 11.9393 32.9571Z" fill="url(#paint6_linear_2363_47881)"/>
<path d="M37.4871 15.5869C31.0918 12.438 27.2758 16.0039 26.1672 18.1804C29.7066 13.5426 34.4563 15.9225 36.3887 17.6922L37.4871 15.5869Z" fill="url(#paint7_linear_2363_47881)"/>
<path d="M33.7729 42.5838C39.9401 38.6138 38.9163 33.6063 37.6864 31.496C39.6699 36.9825 35.0835 39.7197 32.5495 40.3865L33.7729 42.5838Z" fill="url(#paint8_linear_2363_47881)"/>
<path d="M12.5505 25.3863C12.6253 32.7204 17.219 34.595 19.8819 34.6569C14.182 33.413 14.5126 28.0893 14.9965 25.5544L12.5505 25.3863Z" fill="url(#paint9_linear_2363_47881)"/>
<path d="M30.9856 16.3757C32.4027 17.5981 34.358 21.1425 32.6298 27.4034C30.3098 35.8078 22.8246 36.9897 19.0601 36.5082L19.2322 34.5811C21.3482 34.9194 23.8597 34.4936 26.4021 32.7794C31.6381 29.2491 32.066 23.3182 31.251 19.7207C30.5991 16.8426 29.307 17.3134 28.7748 17.9216C29.3756 16.8366 30.1454 16.4945 30.9856 16.3757Z" fill="url(#paint10_linear_2363_47881)"/>
<path d="M38.0481 32.3498C37.2744 30.3325 35.6255 28.3575 32.8264 27.0247C27.1249 24.3099 21.7997 26.956 19.1157 29.4864C16.9686 31.5107 18.0034 32.3832 18.7976 32.5324C17.7522 32.5433 16.9533 32.0917 16.4219 31.4648C16.5133 29.8467 18.0565 26.7425 23.8746 24.687C31.7952 21.8887 37.8817 26.8054 39.6635 31.0927L38.0481 32.3498Z" fill="url(#paint11_linear_2363_47881)"/>
<path d="M27.2539 16.6813C25.6933 18.3254 24.6429 20.8436 24.8156 24.1466C25.1454 30.4529 30.0091 33.874 33.5126 35.0281C36.3154 35.9513 36.5992 34.6919 36.3519 33.9225C36.8703 34.8556 36.8256 35.733 36.5069 36.5088C34.26 37.1432 29.7471 36.7714 25.4094 31.1484C19.7926 23.8674 24.1341 17.8007 25.5933 15.7617C25.6964 15.6177 25.785 15.4938 25.8548 15.391L27.2539 16.6813Z" fill="url(#paint12_linear_2363_47881)"/>
<path fill-rule="evenodd" clip-rule="evenodd" d="M33.1921 24.5924C37.458 26.1924 39.6436 30.3153 40.2077 32.1801L39.8248 32.2959C39.2806 30.4967 37.1567 26.5066 33.0517 24.967C28.3053 23.1868 21.2332 24.5022 17.5016 29.2183C17.3435 29.418 17.1365 29.7861 16.9746 30.1869C16.8107 30.5926 16.7084 30.9942 16.7282 31.2672L16.3293 31.2961C16.3026 30.9279 16.4348 30.4552 16.6037 30.0371C16.7745 29.6142 16.9987 29.2091 17.1879 28.9701C21.0394 24.1024 28.302 22.7583 33.1921 24.5924Z" fill="url(#paint13_linear_2363_47881)"/>
<path fill-rule="evenodd" clip-rule="evenodd" d="M22.5029 24.984C21.8771 20.4712 24.4605 16.5851 25.8313 15.2007L26.1155 15.4821C24.793 16.8179 22.2968 20.5862 22.8991 24.929C23.5955 29.9502 28.1216 35.5412 34.0459 36.5749C34.2955 36.6185 34.7301 36.6219 35.1737 36.5697C35.6225 36.5168 36.0372 36.4117 36.2677 36.2643L36.4832 36.6013C36.1722 36.8002 35.6805 36.9127 35.2205 36.9669C34.7554 37.0217 34.2788 37.0216 33.9772 36.969C27.8624 35.902 23.2204 30.1572 22.5029 24.984Z" fill="url(#paint14_linear_2363_47881)"/>
<path fill-rule="evenodd" clip-rule="evenodd" d="M28.3109 34.3305C24.7648 37.191 20.1033 36.9776 18.2106 36.5156L18.3055 36.127C20.1316 36.5728 24.6473 36.7719 28.0597 34.0192C32.0053 30.8365 34.4671 24.0774 32.3023 18.4667C32.2121 18.2329 31.9847 17.863 31.7026 17.512C31.4182 17.158 31.1057 16.8578 30.8585 16.735L31.0364 16.3768C31.365 16.5399 31.7225 16.8981 32.0145 17.2615C32.3089 17.6279 32.5643 18.0345 32.6755 18.3227C34.9098 24.1138 32.3759 31.0514 28.3109 34.3305Z" fill="url(#paint15_linear_2363_47881)"/>
<defs>
<linearGradient id="paint0_linear_2363_47881" x1="40.7567" y1="17.3561" x2="16.3083" y2="40.5238" gradientUnits="userSpaceOnUse">
<stop stop-color="#0AE2FF"/>
<stop offset="0.189164" stop-color="#047DA5"/>
<stop offset="0.277706" stop-color="#0279C2"/>
<stop offset="0.420448" stop-color="#018AF6"/>
<stop offset="0.552795" stop-color="#0076ED"/>
<stop offset="0.744311" stop-color="#4350D3"/>
<stop offset="0.873359" stop-color="#910659"/>
<stop offset="1" stop-color="#CB006D"/>
</linearGradient>
<linearGradient id="paint1_linear_2363_47881" x1="33.8334" y1="32.4473" x2="33.8334" y2="38.2053" gradientUnits="userSpaceOnUse">
<stop stop-color="#016FD8"/>
<stop offset="1" stop-color="#003A72"/>
</linearGradient>
<linearGradient id="paint2_linear_2363_47881" x1="39.7017" y1="16.1778" x2="30.9543" y2="38.5033" gradientUnits="userSpaceOnUse">
<stop stop-color="#09DEFC"/>
<stop offset="0.269368" stop-color="#028DF7"/>
<stop offset="0.482538" stop-color="#0056AF"/>
<stop offset="0.794521" stop-color="#3AA7F7"/>
<stop offset="1" stop-color="#086EE8"/>
</linearGradient>
<linearGradient id="paint3_linear_2363_47881" x1="18.6668" y1="26.7323" x2="18.6668" y2="32.5403" gradientUnits="userSpaceOnUse">
<stop stop-color="#344ABE"/>
<stop offset="1" stop-color="#392470"/>
</linearGradient>
<linearGradient id="paint4_linear_2363_47881" x1="33.0207" y1="44.1517" x2="15.7405" y2="28.0664" gradientUnits="userSpaceOnUse">
<stop stop-color="#3458D8"/>
<stop offset="0.131183" stop-color="#0187F5"/>
<stop offset="0.463208" stop-color="#0271C2"/>
<stop offset="0.809863" stop-color="#01BCF8"/>
<stop offset="1" stop-color="#534BCF"/>
</linearGradient>
<linearGradient id="paint5_linear_2363_47881" x1="28.6424" y1="17.6311" x2="33.6596" y2="20.6453" gradientUnits="userSpaceOnUse">
<stop stop-color="#027ED5"/>
<stop offset="1" stop-color="#02517B"/>
</linearGradient>
<linearGradient id="paint6_linear_2363_47881" x1="12.6066" y1="33.7382" x2="35.5473" y2="20.1238" gradientUnits="userSpaceOnUse">
<stop stop-color="#BD1493"/>
<stop offset="0.527861" stop-color="#005AB9"/>
<stop offset="0.760102" stop-color="#03DEFE"/>
<stop offset="1" stop-color="#06C1FD"/>
</linearGradient>
<linearGradient id="paint7_linear_2363_47881" x1="37.2345" y1="15.7816" x2="33.2502" y2="19.7863" gradientUnits="userSpaceOnUse">
<stop stop-color="#08CDED"/>
<stop offset="0.330098" stop-color="#06ACCF"/>
<stop offset="1" stop-color="#03618E"/>
</linearGradient>
<linearGradient id="paint8_linear_2363_47881" x1="33.426" y1="40.8138" x2="37.8876" y2="35.5367" gradientUnits="userSpaceOnUse">
<stop stop-color="#2660DE"/>
<stop offset="1" stop-color="#004988"/>
</linearGradient>
<linearGradient id="paint9_linear_2363_47881" x1="12.7245" y1="26.654" x2="15.6858" y2="27.4203" gradientUnits="userSpaceOnUse">
<stop stop-color="#4C46C3"/>
<stop offset="0.244184" stop-color="#4250D3"/>
<stop offset="0.585267" stop-color="#3B54D6"/>
<stop offset="1" stop-color="#4F1964"/>
</linearGradient>
<linearGradient id="paint10_linear_2363_47881" x1="28.2454" y1="16.3871" x2="20.0342" y2="35.5394" gradientUnits="userSpaceOnUse">
<stop stop-color="#05B2FC"/>
<stop offset="1" stop-color="#7E2B9F"/>
</linearGradient>
<linearGradient id="paint11_linear_2363_47881" x1="17.2557" y1="31.1473" x2="38.8764" y2="31.4214" gradientUnits="userSpaceOnUse">
<stop stop-color="#6340C6"/>
<stop offset="0.179021" stop-color="#1F61E0"/>
<stop offset="1" stop-color="#0184EF"/>
</linearGradient>
<linearGradient id="paint12_linear_2363_47881" x1="26.8452" y1="16.1366" x2="35.1528" y2="36.0034" gradientUnits="userSpaceOnUse">
<stop stop-color="#04A9F0"/>
<stop offset="0.312086" stop-color="#0167C3"/>
<stop offset="0.576658" stop-color="#066DE9"/>
<stop offset="1" stop-color="#007AEF"/>
</linearGradient>
<linearGradient id="paint13_linear_2363_47881" x1="37.1569" y1="27.1838" x2="16.1587" y2="30.2434" gradientUnits="userSpaceOnUse">
<stop stop-color="#03B0FB"/>
<stop offset="0.423794" stop-color="#02DFFC"/>
<stop offset="1" stop-color="#AF75F4"/>
</linearGradient>
<linearGradient id="paint14_linear_2363_47881" x1="29.5213" y1="15.3414" x2="29.5213" y2="36.8072" gradientUnits="userSpaceOnUse">
<stop stop-color="#03AFFA"/>
<stop offset="1" stop-color="#00C2F9"/>
</linearGradient>
<linearGradient id="paint15_linear_2363_47881" x1="20.3821" y1="36.2901" x2="34.8315" y2="22.2256" gradientUnits="userSpaceOnUse">
<stop stop-color="#BB46D6"/>
<stop offset="0.672224" stop-color="#02E8FD"/>
<stop offset="1" stop-color="#08DDFE"/>
</linearGradient>
</defs>
</svg>
