<!-- by TradingView --><svg xmlns="http://www.w3.org/2000/svg" width="56" height="56"><path fill="#F0F3FA" d="M0 0h56v56H0z"/><path d="M36.02 15.46a11.07 11.07 0 00-17.7 2.2l-4.89 8.68c-.25.43-.46.88-.64 1.32l.02.04c.49 2.07 1.9 6.9 7.93 7.63.33.04.63.06.92.06a2.77 2.77 0 01-2.39-4.14l6.76-11.78c.23-.4.74-.9 1.08-1.13 1.67-1.8 4.54-3.59 8.91-2.88z" fill="url(#ac3kcyitc)"/><path d="M36.02 15.46c.61.64 1.21 1.37 1.68 2.2l4.9 8.68c3.39 6.02.3 13.42-5.5 15.87l-1.39.39c4.15-4.43 3.18-9.26 2.02-11.28a2.9 2.9 0 00-.16-.33L30.84 19.4a2.79 2.79 0 00-3.77-1.02 8.91 8.91 0 018.95-2.92z" fill="url(#bc3kcyitc)"/><path d="M35.76 42.57c4.15-4.43 3.24-9.02 2.09-11.05.75 1.78-.67 3.48-2.68 3.48H20.99c-6.03-.74-7.64-5.06-8.14-7.13l-.04-.22C9.9 34.75 15.1 43 23.1 43h9.48c1.27 0 2.25-.23 3.17-.43z" fill="url(#cc3kcyitc)"/><defs><linearGradient id="ac3kcyitc" x1="27.47" y1="12.89" x2="13.79" y2="32" gradientUnits="userSpaceOnUse"><stop stop-color="#FCCA02"/><stop offset="1" stop-color="#AB1414"/></linearGradient><linearGradient id="bc3kcyitc" x1="30.95" y1="15.21" x2="45.22" y2="39.12" gradientUnits="userSpaceOnUse"><stop offset=".05" stop-color="#AA1215"/><stop offset=".93" stop-color="#FDCB02"/></linearGradient><linearGradient id="cc3kcyitc" x1="11.99" y1="37.38" x2="38.16" y2="37.38" gradientUnits="userSpaceOnUse"><stop offset=".16" stop-color="#FCCA02"/><stop offset="1" stop-color="#AB1414"/></linearGradient></defs></svg>