<!-- by TradingView --><svg xmlns="http://www.w3.org/2000/svg" width="56" height="56" viewBox="0 0 56 56"><path fill="url(#apb3xe44c)" d="M0 0h56v56H0z"/><path d="M28 22l-7.1 16.07c-.23.51-.36.93-.87.93h-4.7c-.67 0-1.04-.19-.7-.93l11.46-26.31c.23-.44.38-.76.9-.76h2.03c.51 0 .65.32.9.76l11.46 26.3c.33.75-.05.94-.72.94h-4.69c-.51 0-.65-.42-.87-.93L28 21.99z" fill="#fff"/><path d="M28.01 46l-4.69-9h9.22l-4.53 9z" fill="#3FF"/><defs><linearGradient id="apb3xe44c" x1="10.42" y1="9.71" x2="68.15" y2="76.02" gradientUnits="userSpaceOnUse"><stop stop-color="#1A1E21"/><stop offset="1" stop-color="#06060A"/></linearGradient></defs></svg>