<!-- by TradingView --><svg xmlns="http://www.w3.org/2000/svg" width="56" height="56"><path fill="#F0F3FA" d="M0 0h56v56H0z"/><path d="M17 14c0-1.1.92-2 2.06-2h6.88c1.14 0 2.06.9 2.06 2s-.92 2-2.06 2h-6.88c-1.14 0-2.06-.9-2.06-2zm21.87 1.98a1.98 1.98 0 01-1.22 2.56l-17.87 6.39a2.08 2.08 0 01-2.65-1.19 1.98 1.98 0 011.22-2.56l17.87-6.39a2.08 2.08 0 012.65 1.19zm0 16.28a1.98 1.98 0 01-1.22 2.56l-17.87 6.39a2.08 2.08 0 01-2.65-1.19 1.98 1.98 0 011.22-2.56l17.87-6.39a2.08 2.08 0 012.65 1.19zM28 42c0-1.1.92-2 2.06-2h6.88c1.14 0 2.06.9 2.06 2s-.92 2-2.06 2h-6.88c-1.14 0-2.06-.9-2.06-2zm10.86-18.05a1.98 1.98 0 01-1.18 2.58L19.8 33.2a2.08 2.08 0 01-2.66-1.15 1.98 1.98 0 011.18-2.58L36.2 22.8c1.06-.4 2.25.12 2.66 1.15z"/></svg>