<!-- by TradingView --><svg width="56" height="56" viewBox="0 0 56 56" xmlns="http://www.w3.org/2000/svg"><path fill="#F0F3FA" d="M0 0h56v56H0z"/><path d="m29.86 25.47 9.77-9.76-3.7-3.71L28 19.92 20.09 12l-3.7 3.7 9.76 9.77a2.61 2.61 0 0 0 3.71 0ZM44 35.91l-7.91-7.92 7.9-7.91-3.7-3.7-9.76 9.76a2.61 2.61 0 0 0 0 3.7l9.76 9.77 3.71-3.7Zm-16 .17L35.9 44l3.71-3.7-9.76-9.77a2.62 2.62 0 0 0-3.71 0l-9.77 9.76 3.7 3.71L28 36.08Zm-2.53-6.22a2.61 2.61 0 0 0 0-3.7l-9.76-9.77-3.71 3.7 7.92 7.92L12 35.92l3.7 3.7 9.77-9.76Z"/></svg>