<!-- by TradingView --><svg xmlns="http://www.w3.org/2000/svg" width="56" height="56"><path fill="url(#aswrcy2vt)" d="M0 0h56v56H0z"/><path fill-rule="evenodd" d="M16.23 16c1.07-.01 2.77-.03 2.77 1.84V43h1.78c.28-.47 1.1-1.43 2.12-1.48.5-.02 1.12.2 1.91.48 1.22.43 2.83 1 4.92 1 3.45 0 10.54-2.38 11.19-9.19.64-6.66-2.57-10.97-8.71-11.34-1.85-.11-4.42.07-6.21 2.1V11h-1.93c-2.34 1.05-6.42 2.85-8.07 3v2h.23zM26 27.42V38.9c.05.7.73 2.1 3.08 2.1 2.94 0 5.12-3.82 4.9-9.18-.2-5.35-2.03-6.88-4.2-6.82-2.17.07-3.78 1.4-3.78 2.42z" fill="#fff"/><defs><linearGradient id="aswrcy2vt" x1="28" y1="0" x2="28" y2="56" gradientUnits="userSpaceOnUse"><stop stop-color="#FA9588"/><stop offset="1" stop-color="#D45390"/></linearGradient></defs></svg>