<!-- by TradingView --><svg xmlns="http://www.w3.org/2000/svg" width="56" height="56"><path fill="#FFF2E0" d="M0 0h56v56H0z"/><path fill-rule="evenodd" d="M46 28v-.37c-.13-.83-.67-2.28-1.92-2.64a10.28 10.28 0 01-13.52-12.51c-.16-1.26-.85-2.36-2.58-2.43-.19 0-.35-.02-.5-.04A18 18 0 1046 28zm-18 7a7 7 0 100-14 7 7 0 000 14z" fill="#AD5428"/><path fill-rule="evenodd" d="M19.54 13.25A17 17 0 1039.2 40.78c-.75-.37-1.45-.88-1.66-1.52-.47-1.46 0-2.46.83-4.07.83-1.61.57-2.74-.43-3.38-.65-.41-1.28-.29-1.81.03a9 9 0 11-13.18-11.3 5.36 5.36 0 01-3.42-7.29zM15 26a1 1 0 100-2 1 1 0 000 2zm14 13a1 1 0 11-2 0 1 1 0 012 0zm-6.5 3a1.5 1.5 0 100-3 1.5 1.5 0 000 3z" fill="url(#atzfpxlmi)"/><defs><linearGradient id="atzfpxlmi" x1="25.11" y1="28.14" x2="11.26" y2="43.88" gradientUnits="userSpaceOnUse"><stop stop-color="#FEC773"/><stop offset="1" stop-color="#FFA92C"/></linearGradient></defs></svg>