<!-- by TradingView --><svg width="56" height="56" xmlns="http://www.w3.org/2000/svg"><path fill="#21222C" d="M0 0h56v56H0z"/><path d="M34.873 30.354C40.838 31.236 45 33.23 45 35.55c0 3.137-7.611 5.68-17 5.68s-17-2.543-17-5.68c0-2.32 4.162-4.315 10.127-5.197 2.049.416 4.388.652 6.873.652 2.422 0 4.707-.224 6.719-.621l.154-.031zm-2.571-9.34c5.403.601 9.298 2.304 9.298 4.312 0 2.51-6.089 4.544-13.6 4.544-7.511 0-13.6-2.035-13.6-4.544 0-2.008 3.895-3.711 9.297-4.313 1.324.217 2.777.336 4.303.336 1.472 0 2.877-.11 4.163-.313l.14-.023z" fill="#fff"/><path d="M28 20.44c5.633 0 10.2-1.525 10.2-3.408 0-1.882-4.567-3.408-10.2-3.408-5.633 0-10.2 1.526-10.2 3.408 0 1.883 4.567 3.409 10.2 3.409z" fill="#fff"/></svg>