<!-- by TradingView --><svg width="56" height="56" viewBox="0 0 56 56" xmlns="http://www.w3.org/2000/svg"><path fill="#4521E7" d="M0 0h56v56H0z"/><path d="M39 21.8a7.14 7.14 0 0 0-2.95-5.8L41 11l-2.88.01-4.04 4.27a5.59 5.59 0 0 0-2.03-.28H19v18.6l15.73-16.2A5.12 5.12 0 0 1 37 21.8a5.04 5.04 0 0 1-4.95 5.17h-.42L14 45h2.86l3.88-4h11.3c3.92 0 6.96-2.79 6.96-6.78a7.16 7.16 0 0 0-3.31-6.2A7.2 7.2 0 0 0 39 21.79Zm-18 6.8V17h11.05c.2 0 .06.03.24.05L21 28.61Zm16 5.6c0 2.86-2.16 4.8-4.95 4.8h-9.38l9.76-9.93A5.03 5.03 0 0 1 37 34.21Z" fill="#fff"/></svg>