<!-- by TradingView --><svg width="56" height="56" xmlns="http://www.w3.org/2000/svg"><path fill="#F0F3FA" d="M0 0h56v56H0z"/><path fill-rule="evenodd" d="M39.137 38.435c4.589-3.511 5.463-10.077 1.953-14.666-3.511-4.589-10.077-5.463-14.666-1.953-5.212 3.988-6.69 11.702-7.445 17.954a.986.986 0 00.838 1.096c6.192.902 14.135 1.535 19.32-2.431zm-1.473-1.482a8.393 8.393 0 00-10.2-13.332c-4.128 3.159-5.336 9.232-5.95 14.213a.985.985 0 00.84 1.096c4.939.71 11.203 1.164 15.31-1.977z" fill="#70B1C7"/><path fill-rule="evenodd" d="M34.936 29.044c4.006-4.164 3.877-10.787-.287-14.792-4.165-4.005-10.788-3.876-14.793.288-4.549 4.73-4.843 12.579-4.644 18.873.017.537.457.96.994.957 6.257-.045 14.205-.62 18.73-5.326zm-1.68-1.242a8.393 8.393 0 00-12.098-11.636c-3.603 3.747-3.879 9.934-3.732 14.95a.985.985 0 00.995.957c4.99-.047 11.25-.544 14.835-4.27z" fill="#FF3838"/></svg>