<!-- by TradingView --><svg width="56" height="56" viewBox="0 0 56 56" xmlns="http://www.w3.org/2000/svg"><path fill="#F1EEE9" d="M0 0h56v56H0z"/><path d="M21.43 25.25C16.4 22.53 15.05 16.62 15 14h6.43a6.42 6.42 0 0 0 4.8 6.38l-4.8 4.87ZM40.98 14h-6.45a5.71 5.71 0 0 1-1.46 4.35l-14.5 14.82A13.51 13.51 0 0 0 15.06 42h6.44c.02-2.5 1.76-4.73 2.63-5.52l13.3-13.52A12.44 12.44 0 0 0 40.98 14ZM41 42c-.05-2.62-1.4-8.53-6.43-11.25l-4.8 4.87a6.42 6.42 0 0 1 4.8 6.38H41Zm-16.25 0c0-1.66 1.45-3 3.21-3s3.21 1.34 3.21 3h-6.42Zm3.21-25c-1.76 0-3.21-1.34-3.21-3h6.42c0 1.66-1.45 3-3.2 3Z"/></svg>