<!-- by TradingView --><svg width="56" height="56" xmlns="http://www.w3.org/2000/svg"><path fill="url(#paint0_linear)" d="M0 0h56v56H0z"/><path d="M20.88 14h14.176l6.567 2.984 6.342 8.317-19.998 22.05-19.704-22.05 6.22-8.314L20.88 14zm.223 1l-5.15 2.404L21.112 20h13.721l5.299-2.596L34.84 15H21.103zm20.05 3.017l-5.61 2.749 2.337 8.29 8.659-3.977-5.386-7.062zm4.15 8.73l-7.39 3.395-7.262 12.762 14.652-16.157zm-17.336 18.85L37.02 29.69 34.57 21H21.365l-2.557 8.69 9.158 15.908zM17.955 29.05l2.44-8.29-5.438-2.738-5.284 7.063 8.282 3.965zm-7.01-2.247L25.134 42.68l-7.22-12.541-6.967-3.336z" fill="#fff"/><path d="M32.483 26.193c-.152-1.558-1.786-2.069-3.483-2.207V22h-1v2h-1v-2h-1v1.986l-3 .028v1.987s1.25-.028 1.223 0c.538 0 .722.29.777.565v5.032c-.008.271-.216.402-.474.402H23l-.006 2H26v2h1v-2h1v2h1v-2c2.207-.138 4.104-.8 4.283-2.883.138-1.669-.648-2.413-1.903-2.717.758-.4 1.241-1.076 1.103-2.22v.013zm-1.807 4.524C30.69 32.233 27.896 32 27 32v-2.538c.896 0 3.663-.441 3.676 1.256zm-.857-3.873C29.819 28.495 27 28 27 28v-2c.731 0 2.819-.177 2.819.844z" fill="#FDC337"/><defs><linearGradient id="paint0_linear" x1="10.418" y1="9.712" x2="68.147" y2="76.017" gradientUnits="userSpaceOnUse"><stop stop-color="#1A1E21"/><stop offset="1" stop-color="#06060A"/></linearGradient></defs></svg>