<!-- by TradingView --><svg width="56" height="56" xmlns="http://www.w3.org/2000/svg"><path fill="#F04086" d="M0 0h56v56H0z"/><path d="M41.02 29.313a7.612 7.612 0 00-4.76-2.275v-.035a6.58 6.58 0 004.2-2.223 6.51 6.51 0 001.523-4.2 6.65 6.65 0 00-2.538-5.67C37.748 13.545 35.193 13 31.71 13H19v12h-8v5h20.622c1.628 0 2.836.065 3.64.712.806.648 1.208 1.47 1.208 2.713 0 2.772-2.308 3.575-4.848 3.575H24v-3h-5v8h13.148c2.805.122 5.573-.544 7.874-2.153a7.124 7.124 0 002.696-5.985 6.668 6.668 0 00-1.698-4.55zM30.87 25H24v-7h6.887c3.22 0 4.83 1.023 4.83 3.508 0 2.485-1.61 3.492-4.847 3.492z" fill="#fff"/></svg>