<!-- by TradingView --><svg width="56" height="56" xmlns="http://www.w3.org/2000/svg"><path fill="#4B4A48" d="M0 0h56v56H0z"/><path d="M32.926 23c0 2.254-1.95 3-3.9 3H26v-6h4c1.494 0 2.926 1.118 2.926 3zm1.716 10c0 2.457-2.691 3-4.641 3H26v-6c.82.002 3.026 0 4 0 1.745 0 4.642.605 4.642 3zm4.226-10.842C38.526 18.505 36 16.5 33.5 16l1-3h-3l-1 3H25l-1-3h-3l1 3h-6v4h2.237c.738 0 1.763.1 1.763 1.686V34.88c0 .02-.05 1.12-1.182 1.12H16.95l-.6 4H22l-1 3h3l1-3h5.5l1 3h3l-1-3c1.5 0 6.66-1.402 7.105-6.275.36-3.922-2.105-5.725-4.33-6.379 1.225-.846 2.856-2.515 2.593-5.188z" fill="#F2C81E"/></svg>