<!-- by TradingView --><svg xmlns="http://www.w3.org/2000/svg" width="56" height="56" viewBox="0 0 56 56"><path fill="url(#agzhz2ukw)" d="M0 0h56v56H0z"/><path d="M28 45a17 17 0 1 0 0-34 17 17 0 0 0 0 34z" fill="#231F20"/><path d="M33.89 27.24c-.2-.05-.36.18-.23.34.33.42.51.87.51 1.33 0 2.46-4.98 4.45-11.13 4.45-1.76 0-3.43-.16-4.9-.45-.2-.04-.3.2-.13.3 1.95 1.28 5.47 2.13 9.48 2.13 6.15 0 11.13-2 11.13-4.45 0-1.51-1.87-2.84-4.73-3.65z" fill="url(#bgzhz2ukw)"/><path d="M31.97 20.65c-.17-.05-.3.15-.19.29.28.36.44.74.44 1.14 0 2.1-4.27 3.8-9.53 3.8-1.5 0-2.93-.13-4.2-.38-.16-.03-.24.18-.1.26 1.67 1.1 4.68 1.82 8.11 1.82 5.26 0 9.53-1.7 9.53-3.81 0-1.3-1.6-2.43-4.06-3.12z" fill="url(#cgzhz2ukw)"/><defs><linearGradient id="agzhz2ukw" x1="54.5" y1="19" x2="5" y2="47" gradientUnits="userSpaceOnUse"><stop stop-color="#CD9CBC"/><stop offset="1" stop-color="#AD8BD4"/></linearGradient><linearGradient id="bgzhz2ukw" x1="17.93" y1="31.29" x2="38.62" y2="31.29" gradientUnits="userSpaceOnUse"><stop stop-color="#8077F2"/><stop offset="1" stop-color="#FFB29B"/></linearGradient><linearGradient id="cgzhz2ukw" x1="18.32" y1="24.11" x2="36.03" y2="24.11" gradientUnits="userSpaceOnUse"><stop stop-color="#8077F2"/><stop offset="1" stop-color="#FFB29B"/></linearGradient></defs></svg>