<!-- by TradingView --><svg width="56" height="56" xmlns="http://www.w3.org/2000/svg"><path fill="#2E3488" d="M0 0h56v56H0z"/><path d="M28 43.257c8.426 0 15.257-6.83 15.257-15.257S36.427 12.742 28 12.742 12.742 19.573 12.742 28c0 8.426 6.831 15.257 15.258 15.257z" fill="#fff"/><path d="M28 13.485c-8.016 0-14.515 6.499-14.515 14.515 0 8.016 6.499 14.515 14.515 14.515 8.016 0 14.515-6.499 14.515-14.515 0-8.016-6.499-14.515-14.515-14.515zM12 28c0-8.837 7.163-16 16-16s16 7.163 16 16-7.163 16-16 16-16-7.163-16-16z" fill="#6D2B7F"/><path fill-rule="evenodd" d="M19.004 21.468v13.064c0 .248.215.468.459.468h2.966c.88 0 1.591-.726 1.591-1.623V28.5c0-.603-.367-.975-.805-1.318a.234.234 0 010-.363c.428-.36.805-.729.805-1.337v-2.858c0-.889-.711-1.624-1.591-1.624h-2.966a.464.464 0 00-.46.468zM21 22.69a.231.231 0 01.136-.22c.357-.155.864.172.864.564v2.396c0 .267-.267.573-.541.573h-.234a.224.224 0 01-.225-.23V22.69zm.004 10.448a.23.23 0 00.225.239l.234-.01c.31 0 .537-.266.537-.573v-4.208c0-.315-.229-.582-.537-.582h-.234c-.131 0-.225.105-.225.238v4.896zM26 21.468v13.064h.01c0 .245.204.463.44.468h1.115c.236-.005.435-.223.435-.468V28.25c-.005-.127.101-.25.227-.25h1.328c.236 0 .44-.203.445-.448v-1.076c0-.258-.197-.476-.435-.476h-1.33c-.128 0-.235-.097-.235-.22v-2.543a.233.233 0 01.227-.239h1.328c.236 0 .44-.213.445-.458v-1.072c0-.258-.197-.468-.435-.468h-3.106c-.257 0-.459.21-.459.468zm5 0v1.072a.484.484 0 00.454.458h1.34c.127 0 .225.114.22.239v11.295c0 .248.211.468.45.468h1.093c.239 0 .443-.22.443-.468V23.237a.233.233 0 01.228-.239h1.324c.236 0 .446-.213.45-.458v-1.072a.46.46 0 00-.45-.468h-5.098a.463.463 0 00-.454.468z" fill="#2E3488"/></svg>