<!-- by TradingView --><svg width="56" height="56" viewBox="0 0 56 56" fill="none" xmlns="http://www.w3.org/2000/svg">
<rect width="56" height="56" fill="url(#paint0_linear_2352_47555)"/>
<path fill-rule="evenodd" clip-rule="evenodd" d="M12.4599 17C12.2059 17 12 17.2059 12 17.4599V26.5C12 26.7761 12.2239 27 12.5 27L20.5 27C21.5337 27 22.5008 27.2852 23.327 27.7812C24.1349 27.2087 24.485 26.5733 24.5858 26.2096C23.4103 25.4445 22.0071 25 20.5 25H14.5C14.2239 25 14 24.7761 14 24.5V19.6705C14 19.3002 14.3002 19 14.6705 19H20.5C23.5376 19 26 21.4624 26 24.5C26 27.5376 23.5376 30 20.5 30H12.5C12.2239 30 12 30.2239 12 30.5V39.5401C12 39.7941 12.2059 40 12.4599 40H20.5C24.6421 40 28 36.6421 28 32.5C28 31.4782 27.7956 30.504 27.4256 29.6163C26.723 29.9326 26.1604 30.476 25.7803 30.9559C25.9233 31.4458 26 31.9639 26 32.5C26 35.5376 23.5376 38 20.5 38H14.3449C14.1544 38 14 37.8456 14 37.6551V32.5C14 32.2239 14.2239 32 14.5 32H20.5C24.6421 32 28 28.6421 28 24.5C28 20.3579 24.6421 17 20.5 17H12.4599ZM32.5 17C32.2239 17 32 17.2239 32 17.5V18.5C32 18.7761 32.2239 19 32.5 19H46.5C46.7761 19 47 18.7761 47 18.5V17.5C47 17.2239 46.7761 17 46.5 17H32.5ZM32.5 26C32.2239 26 32 26.2239 32 26.5V27.5V39.5C32 39.7761 32.2239 40 32.5 40H33.5C33.7761 40 34 39.7761 34 39.5V28H44.5C44.7761 28 45 27.7761 45 27.5V26.5C45 26.2239 44.7761 26 44.5 26H32.5Z" fill="white"/>
<defs>
<linearGradient id="paint0_linear_2352_47555" x1="50.3511" y1="10.3733" x2="7.41702" y2="49.6378" gradientUnits="userSpaceOnUse">
<stop stop-color="#32C2FE"/>
<stop offset="1" stop-color="#3C5AC2"/>
</linearGradient>
</defs>
</svg>
