<!-- by TradingView --><svg width="56" height="56" viewBox="0 0 56 56" xmlns="http://www.w3.org/2000/svg"><path fill="#ACFE00" d="M0 0h56v56H0z"/><path d="M13 16v24h10.02c2.31-.25 3.7-2.1 3.98-4.33v-5.44c-.1-1.55-.9-2.73-2.4-3.17v-.28c.88-.32 1.22-1.01 1.4-1.9v-4.66c0-2.25-1.75-4.22-3.99-4.22H13Zm16 0v3h3v-3h-3Zm7 0v7h-7v17h3V26h4v14h7v-3h-4V26h4v-3h-4v-7h-3Zm-14.49 3c.73.18 1.41.81 1.49 1.56v4.33c-.14.68-.82.98-1.52 1.11H16v-7h5.51Zm1.15 10c.68.17 1.24.54 1.34 1.23v5.29c-.11.73-.63 1.3-1.34 1.48H16v-8h6.66Z"/></svg>