<!-- by TradingView --><svg width="56" height="56" viewBox="0 0 56 56" xmlns="http://www.w3.org/2000/svg"><path fill="url(#agqc2njhr)" d="M0 0h56v56H0z"/><path d="M25.4 11.13 11.14 25.19c-.82.8-1.15 1.8-1.14 2.81a4 4 0 0 0 1.14 2.81L25.4 44.88c.81.8 1.83 1.12 2.85 1.12s2.04-.32 2.85-1.13l9.1-8.96c-2.34-.21-3.13.3-4.06.88-.61.39-1.29.82-2.5 1.1-.61.14-1.12.23-1.54.23-1.03 0-1.54-.35-1.99-.66-.35-.25-.65-.46-1.13-.46h-5.3c.86-1.32.28-1.74.28-1.74s-1.84-.44-1.41-5.01c-3.75-4.09-3.42-9-3.42-9s1.25 4.04 6.84 6.19c-.24-3.08.61-4.3 1-4.84l.14-.23.19.4c.51 1.12 1.22 2.68 4.94 3.54 1.2-1.5 1.67-1.87 2.67-2.66l.19-.15c-.86-2.86-.71-4.45 0-5.63l.24.6c.8 2 2.08 5.22 7.66 4.39L31.1 11.13A3.96 3.96 0 0 0 28.25 10c-1.02 0-2.04.32-2.85 1.13Z" fill="url(#bgqc2njhr)"/><path d="M29.94 29.95c-.2.11-.4.2-.55.3 2.2 1.87 4.42-1.63 3.42-2.25a12.24 12.24 0 0 1-2.87 1.95Z" fill="url(#cgqc2njhr)"/><defs><linearGradient id="agqc2njhr" x1="10.42" y1="9.71" x2="68.15" y2="76.02" gradientUnits="userSpaceOnUse"><stop stop-color="#1A1E21"/><stop offset="1" stop-color="#06060A"/></linearGradient><linearGradient id="bgqc2njhr" x1="27.68" y1="9.44" x2="28.24" y2="47.13" gradientUnits="userSpaceOnUse"><stop stop-color="#F15F3E"/><stop offset="1" stop-color="#EF2357"/></linearGradient><linearGradient id="cgqc2njhr" x1="27.68" y1="9.44" x2="28.24" y2="47.13" gradientUnits="userSpaceOnUse"><stop stop-color="#F15F3E"/><stop offset="1" stop-color="#EF2357"/></linearGradient></defs></svg>