<!-- by TradingView --><svg xmlns="http://www.w3.org/2000/svg" width="56" height="56"><path fill="#192A3E" d="M0 0h56v56H0z"/><path fill-rule="evenodd" d="M10 16h36v25H10V16zm3 3h30v19H13V19zm28 17h-.16a7.3 7.3 0 01-6.23-3.53c-.7.74-2.04 1.76-3.55 1.76-1.77 0-2.89-1.54-3.13-2.11-.24-.55-.47-1.25-.72-1.98-.69-2.03-1.46-4.3-2.54-4.3-.84 0-1.72 2.03-2.25 3.7A7.39 7.39 0 0115 36v-2.75h.15a4.7 4.7 0 004.66-4.75A4.7 4.7 0 0015 23.75V21h.15a7.3 7.3 0 016.38 3.79c.57-.87 1.66-1.98 3.14-1.98 1.83 0 3.16.9 3.55 2l.44 1.3c.75 2.3 1.66 5.08 2.95 5.08 1.17 0 1.67-2.23 1.98-3.84A7.39 7.39 0 0141 21v2.75h-.16a4.7 4.7 0 00-4.65 4.75A4.7 4.7 0 0041 33.25V36z" fill="url(#akclohqi1)"/><defs><linearGradient id="akclohqi1" x1="41" y1="28.5" x2="15" y2="28.5" gradientUnits="userSpaceOnUse"><stop stop-color="#1EF6AD"/><stop offset="1" stop-color="#5DF6BD"/></linearGradient></defs></svg>