<!-- by TradingView --><svg width="56" height="56" viewBox="0 0 56 56" xmlns="http://www.w3.org/2000/svg"><path fill="#383838" d="M0 0h56v56H0z"/><path d="M33.96 15.73a4.76 4.76 0 0 1 3.63-.6c1.19.27 2.26.94 3.22 1.99 2.22 2.43 3.28 5.93 3.18 10.5a20.24 20.24 0 0 1-1.21 6.52 11.37 11.37 0 0 1-2 3.53 6.42 6.42 0 0 1-3.3 2.19c-1.11.28-2.22.14-3.34-.43a6.8 6.8 0 0 1-2.55-2.29 36.51 36.51 0 0 1-2.02-3.47 8.17 8.17 0 0 0-1.54-2 4.09 4.09 0 0 0-3.78-.78c-1.06.27-2.07 1.07-3.02 2.41l-.2.3a26.03 26.03 0 0 1-1.74 2.28 3.86 3.86 0 0 1-2.28 1.33c-.75.12-1.47 0-2.16-.34-1.14-.57-2.05-1.77-2.73-3.6-.59-1.6-.95-3.29-1.09-5.1-.13-1.79.13-3.54.77-5.25.36-.94.84-1.7 1.46-2.31a4.16 4.16 0 0 1 2.39-1.19c1.4-.19 2.82.31 4.25 1.5.79.66 1.48 1.2 2.08 1.62a5.82 5.82 0 0 0 5.19.78 4.65 4.65 0 0 0 2.48-2.05l1.18-2.06a8.96 8.96 0 0 1 3.13-3.48Zm4.41 1.17c-1.4-.8-2.8-.7-4.17.3a7.53 7.53 0 0 0-1.98 2.34l-.44.77a21.35 21.35 0 0 1-1.5 2.39 5.47 5.47 0 0 1-3.09 2.03c-2.41.57-4.57.1-6.48-1.42l-1.87-1.48a4.5 4.5 0 0 0-2.1-1.03c-1.33-.2-2.4.33-3.18 1.6a8.98 8.98 0 0 0-1.14 3.67 16 16 0 0 0 1.28 7.45c.53 1.18 1.2 1.92 1.99 2.23a2 2 0 0 0 1.9-.2c.39-.26.84-.72 1.35-1.38l1.34-1.87c.11-.17.37-.47.78-.93a5.58 5.58 0 0 1 5.42-1.88c.68.11 1.31.37 1.91.76.93.63 1.8 1.69 2.6 3.18l.39.7c.6 1.13 1.1 1.96 1.5 2.48.35.47.76.87 1.23 1.21a3.51 3.51 0 0 0 4.35.11 7.68 7.68 0 0 0 2.82-3.69c1.16-2.89 1.58-6 1.27-9.32-.16-1.67-.55-3.19-1.18-4.53a7.45 7.45 0 0 0-3-3.5Z" fill="url(#a)"/><path d="M34.9 27.5v.03a3790.83 3790.83 0 0 0 1.97 2.17c.25.5.15.91-.3 1.23a.28.28 0 0 1-.08.03c-.34.09-.6.02-.8-.19a599.6 599.6 0 0 0-2.5-2.72.78.78 0 0 1-.19-.55c0-.23.07-.41.2-.55l2.5-2.72c.2-.21.45-.28.79-.2l.08.04c.45.32.55.73.3 1.23a3790.83 3790.83 0 0 0-1.98 2.2ZM17.87 25h-.05c-.45 0-.81.4-.81.89v4.22c-.01.5.35.9.8.9h.05c.45 0 .81-.4.81-.9l.01-4.22c0-.49-.36-.89-.8-.89Z" fill="#E2FAF6"/><defs><linearGradient id="a" x1="44" y1="26.59" x2="12.17" y2="26.59" gradientUnits="userSpaceOnUse"><stop stop-color="#40B8D8"/><stop offset=".59" stop-color="#F4ABFE"/><stop offset="1" stop-color="#E1F7F5"/></linearGradient></defs></svg>