<!-- by TradingView --><svg width="56" height="56" viewBox="0 0 56 56" xmlns="http://www.w3.org/2000/svg"><path fill="#00C454" d="M0 0h56v56H0z"/><path d="M14.28 39.14c.66.48 1.66.81 2.61 1a.13.13 0 0 1 .1.12v2.68a.06.06 0 0 0 .03.05l.03.01h.03c.63-.36 1.26-.75 1.95-1.18a97.38 97.38 0 0 1 2.5-1.51c.23-.15.48-.31.7-.31h16.09c1.02 0 1.84.01 2.7-.45A5.46 5.46 0 0 0 44 34.51v-2.44c0-.02-.02-.04-.04-.05-.02-.02-.04-.02-.06-.02h-1.95c-2.18 0-3.3-.51-4.18-1.77A3.98 3.98 0 0 1 40.89 24h3c.03 0 .05 0 .07-.02.02-.02.04-.04.04-.06v-2.36a5.55 5.55 0 0 0-.97-3.18 5.29 5.29 0 0 0-3.69-2.31c-.29-.05-1.24-.07-2.86-.07H18.03a9.1 9.1 0 0 0-1.75.12 5.42 5.42 0 0 0-4.08 3.95c-.14.5-.2 1.46-.2 2.85v11.7a5.57 5.57 0 0 0 2.28 4.52ZM43 28a2 2 0 1 1-4 0 2 2 0 0 1 4 0Z" fill="#fff"/></svg>