<!-- by TradingView --><svg width="56" height="56" viewBox="0 0 56 56" xmlns="http://www.w3.org/2000/svg"><path fill="#F0F3FA" d="M0 0h56v56H0z"/><path d="M27.2 12h1.05c4.95 1.8 9.9 3.6 14.81 5.43.45.16.76.56.94 1.2v10.16L28.8 44h-1.07l-14.82-5.42c-.4-.14-.7-.55-.91-1.21V27.23l15.2-15.24Z"/><path d="M42 19.05 28.35 32.8a9.57 9.57 0 0 0-.57-.03c-.2 0-.38-.04-.55-.1A950.26 950.26 0 0 1 14.9 28.2c-.4-.15-.57-.43-.54-.82l13.38-13.36c.04-.04.1-.07.16-.09a.31.31 0 0 1 .18.01L42 19.04Z" fill="#D36853"/><path d="M31.28 22.94c-2.02-1.39-2.26-3.74-2.5-4.46a6.26 6.26 0 0 1 4.31.2c1.62.65 2.06 2.25.65 3.41-.7.58-1.51.86-2.46.85Z" fill="#8E3216"/><path d="M28.77 18.48a6.56 6.56 0 0 0 3.03 3.79.3.3 0 0 1 .15.26.3.3 0 0 1-.14.25c-.16.1-.33.15-.52.16-1.65.18-5.34-.86-4.12-3.14.28-.54.82-.97 1.6-1.32Z" fill="#681C0A"/><path d="M42 19.02v8.61c0 .3.03.58-.18.78L28 42.03V32.8l14-13.78ZM26.5 28.3c-1.8-1.23-2.92-2.66-3.38-4.28a5.44 5.44 0 0 1 4.05.1c1.76.75 2.4 2.46.52 3.69-.56.36-.96.53-1.18.5Z" fill="#8E3216"/><path d="M23.12 24.02c.46 1.62 1.59 3.05 3.39 4.29-1.64.4-3.06.22-4.27-.54-1.88-1.17-.93-3.14.88-3.75Z" fill="#681C0A"/><path d="M14.37 27.38c-.03.4.15.67.54.82 2.55.95 6.65 2.44 12.32 4.46.17.07.35.1.55.1H28v9.27c-4.53-1.67-9.34-3.36-13.81-4.95-.26-.1-.19-.28-.19-.55v-8.54c0-.22.02-.42.37-.61Z" fill="#AA472D"/></svg>