<!-- by TradingView --><svg width="56" height="56" viewBox="0 0 56 56" xmlns="http://www.w3.org/2000/svg"><path fill="#F0F3FA" d="M0 0h56v56H0z"/><path d="M40.4 18.02c-1.12.22-2.17.53-3.04.72a5.44 5.44 0 0 0-4.26 4.76c-.36 2.49.48 3.56.11 6.46-.64 5.05-5.5 6.8-7.76 7.85-1.3.6-4.49 2-6.94 3.07a16 16 0 0 0 22-22.84l-.12-.02Z" fill="url(#acv2fof0e)"/><path d="M26.2 25.65c1.23-2.66.79-2.67 1.72-5.17A3.59 3.59 0 0 1 31.5 18c.92 0 1.88.29 2.29.34 1.67.23 2.1-.37 5.63-.93l.5-.07a15.99 15.99 0 0 0-26.37 3.77c5.29 1.3 10.99 4.15 12.65 4.54ZM22.7 14.8c.47.07 2.73 2.87 3.15 10.08 0 0-2.9-.7-3.53-2.2-.51-1.22.16-2.84.38-7.88ZM40.5 18l.03.03-.13-.01c.04-.02.07-.02.1-.02ZM12 28c0-1.28.15-2.52.43-3.7.58.48 1.2 1.02 1.86 1.63 4.17 3.86 10.95 6.91 13.42 4.08h.01c-.45.6-2.08 2.34-5.37 1.75l-5.3 7.91A15.96 15.96 0 0 1 12 28Z" fill="url(#bcv2fof0e)"/><defs><linearGradient id="acv2fof0e" x1="37.61" y1="22.21" x2="33.83" y2="43.01" gradientUnits="userSpaceOnUse"><stop stop-color="#FF496A"/><stop offset="1" stop-color="#E42648"/></linearGradient><linearGradient id="bcv2fof0e" x1="19.72" y1="35.57" x2="28.07" y2="12" gradientUnits="userSpaceOnUse"><stop offset="0" stop-color="#1158F1"/><stop offset="1" stop-color="#119BED"/></linearGradient></defs></svg>