<!-- by TradingView --><svg xmlns="http://www.w3.org/2000/svg" width="56" height="56"><path fill="url(#a2j0e2wfz)" d="M0 0h56v56H0z"/><path fill-rule="evenodd" d="M28 41a13 13 0 100-26 13 13 0 000 26zm0 2a15 15 0 100-30 15 15 0 000 30z" fill="#D39F6A"/><path fill="#D39F6A" d="M27 8h2v3h-2zm0 37h2v3h-2zm15.22-7.63l1-1.73 2.6 1.5-1 1.73zm-32.04-18.5l1-1.73 2.6 1.5-1 1.73zm2.6 16.76l1 1.74-2.6 1.5-1-1.74zm32.04-18.5l1 1.73-2.6 1.5-1-1.73zM24 18h2v2h2v-2h2v2h1a4 4 0 012.2 7.34A4.5 4.5 0 0131.5 36H30v2h-2v-2h-2v2h-2v-2h-3v-2h.5c.83 0 1.5-.67 1.5-1.5v-9c0-.83-.67-1.5-1.5-1.5H21v-2h3v-2zm2 4v5h2.5c1.38 0 3-.81 3-2.5s-1.62-2.5-3-2.5H26zm0 7v5h3.5c1.38 0 3-1 3-2.5 0-1.68-1.62-2.5-3-2.5H26z"/><defs><linearGradient id="a2j0e2wfz" x1="28" y1="0" x2="28" y2="56" gradientUnits="userSpaceOnUse"><stop stop-color="#940933"/><stop offset="1" stop-color="#20001D"/></linearGradient></defs></svg>