<!-- by TradingView --><svg width="56" height="56" xmlns="http://www.w3.org/2000/svg"><path fill="#EBA809" d="M0 0h56v56H0z"/><path fill-rule="evenodd" d="M27.983 41.5v-2.865H26.95v2.825c.341.026.686.04 1.033.04zm-4.133-.65v-2.215h-4.166a13.467 13.467 0 004.166 2.215zm-6.446-4.484v-1.277h1.182S21.996 35.066 22 33a13.66 13.66 0 010-.5v-10c.03-.556-.55-1.3-1.122-1.406-.569-.114-.913-.179-1.516-.188h-1.958v-1.272A13.442 13.442 0 0014.5 28c0 3.16 1.085 6.066 2.904 8.366zM19.69 17.36H24v-2.258a13.464 13.464 0 00-4.31 2.258zM27 14.537v2.823h1V14.5c-.336 0-.67.012-1 .037zM41.5 28c0 6.395-4.447 11.752-10.417 13.146v-2.51h1.205c4.388 0 7.562-4.597 6.62-8.653-.376-1.624-1.909-2.647-3.456-3.008 2.584-1.369 2.87-5.578.766-7.473-.968-1.015-2.172-1.57-3.024-1.859-.704-.238-1.45-.283-2.194-.283v-2.536c6.1 1.344 10.5 6.72 10.5 13.176zm2.5 0c0 8.837-7.163 16-16 16s-16-7.163-16-16 7.163-16 16-16c9 0 16 7.163 16 16zm-16.02 7.094c-.348.006-.598.011-.98.037v-5.96c.378.006.564.005.95 0l.474-.01c1.488-.029 2.988-.059 4.293.717 1.352.752 1.57 3.339.232 4.211-1.334.93-3.003.965-4.6.997l-.154.003-.215.005zM27 26.3h.327c1.503.01 3.08.022 4.368-.83 1.247-.811 1.172-2.887-.12-3.609-1.194-.717-2.596-.703-3.95-.69h-.003c-.275.003-.352.004-.622 0V26.3z" fill="#fff"/></svg>