<!-- by TradingView --><svg width="56" height="56" xmlns="http://www.w3.org/2000/svg"><path fill="#6C5A5A" d="M0 0h56v56H0z"/><path d="M20.254 27.071l-2.622 5.544 1.213 4.54 3.102.824 3.835 3.835-1.153 1.169-9.155-2.457-2.457-9.155 1.843-1.843 8-8-2.606 5.543-2.622 5.544 8.15-8.166-2.921-2.922-2.607 5.544zm4.195 3.146l8.15 8.151 4.556-1.213.824-3.102 3.835-3.835 1.169 1.153-2.457 9.155-9.155 2.457-9.844-9.844 2.922-2.922zm7.102-4.434l-8.15-8.151-4.556 1.213-.824 3.102-3.835 3.835-1.169-1.153 2.457-9.155 9.155-2.457 1.843 1.843 8 8-2.921 2.922zm2.502-7.762l-3.835-3.835 1.153-1.169 9.155 2.457 2.457 9.155-9.844 9.844-2.922-2.922 8.151-8.166-1.213-4.54-3.102-.824z" fill="#fff"/></svg>