<!-- by TradingView --><svg xmlns="http://www.w3.org/2000/svg" width="56" height="56" viewBox="0 0 56 56"><path fill="#E6ECEC" d="M0 0h56v56H0z"/><path d="M21.2 13.5c.9-.42 1.86-.76 2.85-1.01a4.52 4.52 0 0 0 7.9 0c.99.25 1.94.59 2.85 1.01a7.53 7.53 0 0 1-13.6 0zm14.22 5.6c0-1.66.54-3.2 1.46-4.44.84.56 1.62 1.2 2.34 1.9a4.5 4.5 0 0 0 4.2 7c.28.95.47 1.94.56 2.95a7.5 7.5 0 0 1-8.56-7.42zM44 29.26a7.5 7.5 0 0 0-7.09 12c.84-.55 1.62-1.19 2.34-1.89a4.5 4.5 0 0 1 4.23-7.16c.26-.95.44-1.94.52-2.95zm-16 9a7.53 7.53 0 0 1 6.76 4.2c-.9.43-1.87.77-2.86 1.02a4.52 4.52 0 0 0-7.8 0 16 16 0 0 1-2.87-1.01A7.53 7.53 0 0 1 28 38.27zm-9 2.95a7.5 7.5 0 0 0-7-11.88c.09 1.01.27 2 .54 2.95l.41-.01a4.5 4.5 0 0 1 3.73 7.03c.7.7 1.49 1.34 2.32 1.9zm-6-14.49c-.34 0-.67-.02-1-.06.08-1.02.26-2 .53-2.96a4.5 4.5 0 0 0 4.16-7.07c.7-.7 1.49-1.34 2.32-1.9a7.5 7.5 0 0 1-6.01 12zm15.02 9.24a8 8 0 1 0-4.03-14.91 7.93 7.93 0 0 0-3.74 4.85 7.9 7.9 0 0 0 .8 6.07 8.03 8.03 0 0 0 6.97 4zm5-7.99A5 5 0 1 1 23 27.96a5 5 0 0 1 10.02.02z" fill="#0E0E11"/></svg>