<!-- by TradingView --><svg width="56" height="56" xmlns="http://www.w3.org/2000/svg"><path fill="url(#paint0_linear)" d="M0 0h56v56H0z"/><path d="M12.002 28c0-8.688 7.408-15.998 16.023-15.998 11.272 0 19.087 12.035 14.767 22.213a16.294 16.294 0 01-14.767 9.783A16.281 16.281 0 0112.002 28zm2.043.012A13.992 13.992 0 1042.029 28a13.993 13.993 0 00-27.984.025v-.013zm5.833 6.215c2.006 4.332 6.756 6.325 11.371 6.178-6.03 1.477-12.786-1.526-14.201-7.938a11.73 11.73 0 0111.789-14.312v2.178c-2.929 0-5.735 1.194-7.642 3.446a9.538 9.538 0 00-2.252 6.104c-.015 1.5.304 2.983.935 4.344zm9.574 4.184c-3.384-.603-6.288-2.67-7.359-5.784a7.138 7.138 0 019.538-8.947l.922-1.944A9.29 9.29 0 0022.032 36.59c2.584 2.793 6.485 3.446 10.115 3.446l.123-.037c1.059-.382 2.339-.85 3.15-1.6-1.98.344-3.974.381-5.968.024v-.012zm-.369-2.732c2.388.8 5.415.652 6.83.554l1.674-.148.418-.049a12.336 12.336 0 01-1.969 1.957c-2.449.529-5.255.517-7.63-.259a9.254 9.254 0 01-5.525-4.713 6.62 6.62 0 01-.062-5.206 6.769 6.769 0 018.713-3.605 6.683 6.683 0 013.323 3.002l-1.945.973a4.516 4.516 0 00-3.938-2.302 4.553 4.553 0 00-4.491 4.492c0 2.498 2.227 4.517 4.602 5.292v.012z" fill="#fff"/><defs><linearGradient id="paint0_linear" x1="10.418" y1="9.712" x2="68.147" y2="76.017" gradientUnits="userSpaceOnUse"><stop stop-color="#1A1E21"/><stop offset="1" stop-color="#06060A"/></linearGradient></defs></svg>