<!-- by TradingView --><svg xmlns="http://www.w3.org/2000/svg" width="56" height="56"><path fill="url(#aftbet3zw)" d="M0 0h56v56H0z"/><path fill-rule="evenodd" d="M9.88 30.12a3 3 0 010-4.24l16-16a3 3 0 014.24 0l16 16a3 3 0 010 4.24l-16 16a3 3 0 01-4.24 0l-16-16zm8.17-3.62c-.22-2.15 1.38-6.47 9.5-6.56 9.79-.1 10.25 4.7 10.41 6.38l.02.18c0 .08-.16.24-.82.24-.65 0-2.03-.3-2.64-.45-.16-.22-.58-.67-.97-.74-.36-.07-.57.23-.7.42-.07.08-.1.14-.14.14l-.4-.02c-1.14-.07-4.46-.3-7.83.02-.03-.36-.27-1.08-1.06-1.03-.78.05-1.15.78-1.24 1.14a28.7 28.7 0 00-4.13.28zm4.02-4.74c.1.11.36.27.68 0 .36-.32.22-.5.16-.56v-.01c-.05-.05-.6-.17-.72 0s-.17.3-.12.57zm2.87-.21c.18.38-.04.59-.18.65a.61.61 0 01-.51-.27c-.13-.16.13-.66.19-.68h.01v-.01c.08-.04.28-.13.5.3zm2.44.24c.14.08.5.16.79-.22.34-.43.13-.56.04-.6l-.01-.02c-.06-.04-.74.02-.84.23-.09.2-.12.35.02.6zm2.78-.85c-.3.38-.65.3-.79.21-.14-.25-.1-.4-.01-.6.09-.22.77-.27.83-.23h.02c.08.06.3.18-.05.62zm.6 1.21c.17 0 .5-.13.54-.6.05-.56-.2-.55-.3-.55-.07 0-.61.42-.57.65.03.23.08.36.34.5zm2.46-.96c.48.06.6.4.59.56-.15.25-.29.3-.51.33-.23.03-.63-.53-.63-.6v-.02c0-.1 0-.34.55-.27zm-7.46.09c.13.1.49.23.86-.09.44-.37.24-.52.16-.58l-.01-.01c-.06-.05-.78-.1-.92.1-.13.18-.2.31-.09.58zm-7.38 8.62c4.31.43 14.16.96 19.12-.4.12-.04.36 0 .32.4-.04.48-2.78 1.55-10.47 1.4l-2.82-.06c-5.18-.1-6.1-.12-6.33-.36-.26-.28 0-.84.19-.98zm5.86 2.13c-1.06.02-4.32-.16-5.82-.26-.48-.03-.33.73-.2 1.1.52 1.99 2.94 3.35 10.22 3.27 7.09-.09 8.47-2.2 9.12-3.19l.05-.07c.5-.77.1-1.4-.16-1.63-1.04.6-7.05.88-9.93.93-.4.46-1.37 1.37-1.93 1.37-.56 0-1.13-1.01-1.35-1.52zm-7.35-3.58c-.06-.1 0-.42.67-.82.85-.51 15.26-1.83 21.27.25.25.12.5.5-.54 1.07-.77-.44-2.39-1.27-2.68-1.07l-.26.2c-.23.2-.43.37-.81.37-.25 0-.43-.1-.6-.2-.2-.11-.38-.21-.64-.2-.22.01-.45.15-.7.28-.32.19-.66.38-.97.28a1.9 1.9 0 01-.53-.32c-.33-.25-.66-.5-1.07-.24-.2.13-.33.23-.42.31-.19.16-.24.2-.54.09-.19-.07-.32-.22-.45-.35-.18-.2-.35-.37-.6-.25l-.3.16c-.3.18-.6.35-1.1.31-.33-.02-.56-.16-.77-.28-.2-.13-.38-.23-.6-.2-.17.04-.42.21-.7.41-.44.33-.99.71-1.46.66a2.1 2.1 0 01-.84-.35c-.3-.18-.56-.34-.9-.24-.25.08-.4.18-.54.27-.2.12-.33.2-.6.12a1.75 1.75 0 01-.46-.28c-.25-.2-.48-.37-.78-.27-.21.07-.46.2-.69.34-.3.16-.56.3-.72.3-.28 0-.67-.19-.67-.35z" fill="#F6B744"/><defs><linearGradient id="aftbet3zw" x1="10.42" y1="9.71" x2="68.15" y2="76.02" gradientUnits="userSpaceOnUse"><stop stop-color="#1A1E21"/><stop offset="1" stop-color="#06060A"/></linearGradient></defs></svg>