<!-- by TradingView --><svg width="56" height="56" viewBox="0 0 56 56" xmlns="http://www.w3.org/2000/svg"><path fill="#F0F3FA" d="M0 0h56v56H0z"/><path d="M35.55 41.39a15.68 15.68 0 0 1-8.7 2.61A15.93 15.93 0 0 1 11 28c0-8.84 7.1-16 15.86-16 3.1 0 5.98.9 8.42 2.44l-2.6 3.07A11.76 11.76 0 0 0 26.89 16C20.32 16 15 21.37 15 28s5.32 12 11.9 12c2.7 0 5.2-.91 7.2-2.46l1.45 3.85Z" fill="url(#azk04iir3)"/><path d="M27.26 19 15 44l4.59-1.7 7.67-15.09L35.48 42l2.3-2.12L27.26 19Z" fill="url(#bzk04iir3)"/><path d="m43.5 22-8.03 20h3.44L45 26.8 43.5 22Z" fill="#F53A3E"/><defs><linearGradient id="azk04iir3" x1="23.27" y1="12" x2="23.27" y2="44" gradientUnits="userSpaceOnUse"><stop stop-color="#D8B588"/><stop offset="1" stop-color="#976C3B"/></linearGradient><linearGradient id="bzk04iir3" x1="26.29" y1="19" x2="26.29" y2="44" gradientUnits="userSpaceOnUse"><stop stop-color="#F53B45"/><stop offset="1" stop-color="#CC101C"/></linearGradient></defs></svg>