<!-- by TradingView --><svg width="56" height="56" xmlns="http://www.w3.org/2000/svg"><path fill="#0723A1" d="M0 0h56v56H0z"/><path fill-rule="evenodd" d="M23.995 11H20v6.046a12.99 12.99 0 00-6 10.956 12.99 12.99 0 006 10.956V45h3.995v-4.347c.965.228 1.97.35 3.005.35 1.032 0 2.037-.121 3-.349V45h4v-6.041c.718-.46 1.388-.988 2-1.576v3.62h4V28.028v-.027V16h-4v2.621a13.056 13.056 0 00-2-1.575V11h-4v4.35a13.041 13.041 0 00-3-.348c-1.034 0-2.04.12-3.005.35V11zM36 28a9 9 0 10-18 0 9 9 0 0018 0z" fill="#fff"/></svg>