<!-- by TradingView --><svg width="56" height="56" viewBox="0 0 56 56" xmlns="http://www.w3.org/2000/svg"><path fill="url(#a5ejchxro)" d="M0 0h56v56H0z"/><path fill-rule="evenodd" d="M43 27a5 5 0 1 0 0-10 5 5 0 0 0 0 10Zm0-3a2 2 0 1 0 0-4 2 2 0 0 0 0 4Z" fill="#fff"/><path d="M28 15a13 13 0 1 0 9.77 21.57c.37-.41.99-.5 1.43-.17l1.6 1.2c.44.33.53.96.18 1.38a17 17 0 1 1-2.17-24.1c.42.35.44.98.07 1.39l-1.36 1.46c-.38.4-1 .43-1.44.08A12.94 12.94 0 0 0 28 15Z" fill="#fff"/><defs><linearGradient id="a5ejchxro" x1="0" y1="52" x2="52.5" y2="0" gradientUnits="userSpaceOnUse"><stop stop-color="#382AB5"/><stop offset="1" stop-color="#F13AAC"/></linearGradient></defs></svg>