<!-- by TradingView --><svg width="56" height="56" viewBox="0 0 56 56" xmlns="http://www.w3.org/2000/svg"><path fill="url(#azar2flfd)" d="M0 0h56v56H0z"/><path d="M49 26.3c.38-1 1.58-1.3 2.56-1.3H52v2c-.56 0-1.13-.02-1.66.15-.37.12-.7.33-.95.62-.46.6-.35 1.01-.39 1.56V35h-3V25h3v1.3Zm-31.62 6.14C15.54 34.17 13.96 35 11.35 35 7 35 4 32.09 4 27.98 4 23.77 7.4 21 11.39 21c2.32 0 4.53.98 6.05 2.67l-1.86 2.34C14.32 24.72 12.95 24 11.33 24c-2.7 0-4.44 1.75-4.33 3.98.1 2.23 1.64 4.02 4.39 4.02 1.72 0 2.88-.67 4.2-1.93l1.79 2.37Zm11 .37c-1.1 1.5-2.55 2.17-4.71 2.17-3.27 0-5.67-1.95-5.67-5.03 0-3.07 2.33-4.95 5.63-4.95 3.25 0 5.37 2.17 5.37 4.95V31h-8c.25 1.47 1.2 2 2.67 2 1.1 0 2-.33 2.7-1l2.02.8ZM26 29c0-.86-.9-2-2.47-2-1.56 0-2.53 1.2-2.53 2h5Zm4-8h3v14h-3V21Zm14.35 11.8c-1.1 1.51-2.55 2.18-4.72 2.18-3.26 0-5.63-1.98-5.63-5.25 0-2.69 2.33-4.73 5.63-4.73 3.25 0 5.37 2.31 5.37 5.5v.5h-8c.1 1.26 1.16 2 2.63 2a4 4 0 0 0 2.8-1l1.92.8ZM42 29c0-.78-.85-2-2.37-2-1.51 0-2.63 1.22-2.63 2h5Z" fill="#fff"/><defs><linearGradient id="azar2flfd" x1="10.42" y1="9.71" x2="68.15" y2="76.02" gradientUnits="userSpaceOnUse"><stop stop-color="#1A1E21"/><stop offset="1" stop-color="#06060A"/></linearGradient></defs></svg>