<!-- by TradingView --><svg width="56" height="56" viewBox="0 0 56 56" xmlns="http://www.w3.org/2000/svg"><path fill="#54FF29" d="M0 0h56v56H0z"/><path d="M16.72 18.22a.96.96 0 0 0-1.44.07A16 16 0 1 0 27.56 12a.96.96 0 0 0-.88 1.21c.12.48.57.8 1.06.8L28 14a14 14 0 1 1-11.2 5.6c.31-.42.3-1-.08-1.38Z"/><path d="M18.08 26.7a.93.93 0 0 0-1.07.87L17 28a11 11 0 1 0 10.36-10.98.93.93 0 0 0-.86.94c0 .61.55 1.07 1.16 1.05L28 19a9 9 0 1 1-9 8.82 1.1 1.1 0 0 0-.92-1.12Z"/><path d="M27 34.09c0 .48.36.9.84.9L28 35a7 7 0 1 0-.16-14c-.48.01-.84.43-.84.91v.18c0 .52.48.91 1 .91a5 5 0 0 1 0 10c-.52 0-1 .39-1 .9v.19Z"/></svg>