<!-- by TradingView --><svg xmlns="http://www.w3.org/2000/svg" width="56" height="56" viewBox="0 0 56 56"><path fill="url(#apoy2pvy1)" d="M0 0h56v56H0z"/><path fill-rule="evenodd" d="M29.69 13.87a2.39 2.39 0 0 0-3.38 0L13.87 26.3a2.39 2.39 0 0 0 0 3.38L26.3 42.13c.93.93 2.45.93 3.38 0l.76.77-.76-.77L42.13 29.7c.93-.93.93-2.45 0-3.38L29.7 13.87zm1.53-1.54a4.56 4.56 0 0 0-6.44 0L12.33 24.78a4.56 4.56 0 0 0 0 6.44l12.45 12.45a4.56 4.56 0 0 0 6.44 0l12.45-12.45a4.56 4.56 0 0 0 0-6.44L31.22 12.33z" fill="#fff"/><path d="M19.26 19.32l6.22-6.22a3.47 3.47 0 0 1 4.91 0l6.22 6.22L27.94 28l-8.68-8.68zM19.28 36.68L27.96 28l8.67 8.68-6.22 6.22a3.47 3.47 0 0 1-4.9 0l-6.23-6.22z" fill="#fff"/><defs><linearGradient id="apoy2pvy1" x1="10.42" y1="9.71" x2="68.15" y2="76.02" gradientUnits="userSpaceOnUse"><stop stop-color="#1A1E21"/><stop offset="1" stop-color="#06060A"/></linearGradient></defs></svg>