<!-- by TradingView --><svg xmlns="http://www.w3.org/2000/svg" width="56" height="56"><path fill="#F0F3FA" d="M0 0h56v56H0z"/><path d="M15.27 15.27A18.02 18.02 0 0146 28a17.98 17.98 0 01-30.73 12.73 18.02 18.02 0 010-25.46zM28 12c-8.78 0-16 7.14-16 16 0 8.75 7.25 16 16 16s16-7.25 16-16c0-8.86-7.22-16-16-16z" fill="#002E60"/><path d="M28 11a17.02 17.02 0 00-12.02 29.02 17.04 17.04 0 0024.04 0 16.99 16.99 0 000-24.04A17.02 17.02 0 0028 11zm0 .56z" fill="#7BB1DD"/><path d="M28 17a11 11 0 00-7.76 3.24A11 11 0 0017 28a11 11 0 003.24 7.76A11 11 0 0028 39a11 11 0 007.76-3.24A11 11 0 0039 28a11 11 0 00-3.24-7.76A11 11 0 0028 17zm0-1c6.34 0 12 5.66 12 12 0 6.72-5.1 12-12 12a12 12 0 01-12-12c0-6.8 5.66-12 12-12z" fill="#002E60"/><path d="M38 28a10 10 0 11-20 0 10 10 0 0120 0z" fill="#7BB1DD"/><path d="M19.74 20.18a29.45 29.45 0 00-.7 7.51C19 36.04 25.32 38.64 28 39.43c2.67-.79 8.99-3.39 8.94-11.74.02-1.84.02-4.52-.7-7.5-4.14-.71-6.66-.65-8.24-.66-1.58 0-4.1-.05-8.25.65zm5.47 20.72l-.18-.16c-.62-.4-1.34-.01-1.38.74a.9.9 0 00.68.92c.38.06.66-.1.92-.33l.4.4a1.57 1.57 0 01-1.21.53c-.82-.08-1.28-.51-1.4-1.2a1.48 1.48 0 011.2-1.77 1.5 1.5 0 011.39.42l-.42.45zm1.45-.9H26v3h.66v-3zm3.23.63H29V43h-.64v-2.37h-.88v-.6h2.41v.6zm2.86-.6l-1.13 1.8v1.2H31v-1.2l-1.1-1.8h.75l.68 1.23.7-1.23h.73zM16.76 23.06l-.28.55L14 22.29l.31-.6 1.41-.09-.72-1.26.3-.6 2.5 1.34-.3.55-1.64-.88.72 1.32-1.45.14 1.63.85zm3.37-4.62l-.46.48-.64-.25-.82.89.29.63-.43.46-1.24-2.87.39-.43 2.9 1.09zm-1.63.01l-.94-.37.42.93.52-.56zm2.03-.32l-1.46-2.43.48-.32 2.04.83-.9-1.52.52-.31 1.45 2.44-.45.28-2.1-.84.94 1.56-.52.31zm4.24-4.11l-.22-.11c-.68-.2-1.27.36-1.1 1.08.1.43.52.71.89.67.38-.04.58-.28.77-.55l.47.27c-.13.26-.3.52-.7.72-.07.04-.16.08-.3.1-.79.15-1.34-.12-1.65-.75a1.49 1.49 0 01.65-2.02 1.5 1.5 0 011.42.02l-.23.57zm12.73 3.14l-.68-.53-1.35 1.82-.5-.38 1.36-1.8-.68-.54.35-.46 1.85 1.44-.35.45zM26.23 12.9l.06 2.86.6-.02-.02-1.15 1.16-.03.02 1.16.6-.02-.05-2.87-.63.02.03 1.14-1.15.03-.02-1.13-.6.01zm3.92.1l2.07.47-.13.54-1.46-.33-.13.58 1.21.25-.28.5-1.04-.22-.13.6 1.5.33-.12.53-2.09-.45.6-2.8zm3.73 2.48c-.37-.28-.37-.44-.27-.57.09-.11.2-.11.32-.07.2.07.35.2.47.36.07.08.12.17.17.25l.48-.3c-.08-.15-.27-.55-.85-.8-.27-.12-.92-.24-1.2.45-.12.3-.07.48 0 .61.15.27.41.45.63.65.1.08.2.17.24.3.02.09 0 .17-.07.23-.34.3-.94-.33-1.06-.67l-.52.25c.28.54.75 1.03 1.48 1.06a.82.82 0 00.71-.5c.1-.26.12-.5-.01-.7a2.06 2.06 0 00-.52-.55zm4.84 2.07l1.34 1.66-.42.36-.96-1.18-.46.37.83 1-.56.2-.67-.84-.47.38.99 1.2-.42.36-1.37-1.68 2.17-1.83zm2.12 4.17l-.29-.58-.71.37.27.56c.14.3.38.34.56.28.2-.07.33-.34.17-.63zm-1.49 2.1l-.32-.65.53-.96-.23-.45-.8.41-.27-.56 2.5-1.28.54 1.09c.07.14.1.23.14.35a.9.9 0 01.01.62c-.23.57-.98.86-1.51.35l-.59 1.08z" fill="#002E60"/><path d="M43.33 28.56h.22v-.35h-.22V27h-.31l-.9 1.26.05.3H43V29h.33v-.44zm-.32-.95v.62h-.48l.48-.62zm-2.37.5c.2.24.55.3.79.06 0 .3-.24.72-.71.28l-.18.33c.17.15.37.24.64.21a.6.6 0 00.26-.09c.24-.18.35-.54.35-.93 0-.15-.02-.28-.04-.4a.74.74 0 00-.27-.47.62.62 0 00-.68 0 .5.5 0 00-.22.26c-.04.1-.07.2-.08.33 0 .16.05.31.14.42zm.58-.74a.3.3 0 01.23.3c0 .08-.05.3-.28.32a1.47 1.47 0 01-.17-.05c-.11-.04-.2-.28-.08-.46a.24.24 0 01.13-.1.32.32 0 01.17 0zm-28.66-.2l.1.34.34-.11V29h.44v-2h-.35l-.53.17zm2.94 1.28c0-.22-.12-.4-.35-.5.1-.04.18-.1.2-.16a.35.35 0 00.06-.27c-.03-.35-.33-.52-.68-.52-.1 0-.18.02-.26.03a.53.53 0 00-.21.1.36.36 0 00-.15.14c-.15.28-.06.53.18.68-.23.13-.29.23-.3.5.01.4.44.53.75.55.13 0 .23 0 .32-.03.24-.06.44-.24.44-.52zm-.47-.86c0 .06-.03.12-.07.17-.14.09-.3.07-.4 0a.24.24 0 01-.07-.17c0-.07.03-.12.07-.17.05-.04.1-.06.2-.06.07 0 .15.02.2.06.04.05.07.1.07.17zm-.33.56c.15-.01.38.05.38.24 0 .16-.15.28-.34.28-.15 0-.34-.1-.34-.28 0-.13.15-.22.3-.24z" fill="#7BB1DD"/><path d="M20.6 20.67a32.97 32.97 0 00-.77 5.27 24.6 24.6 0 00.2 4.72c.15.76.37 1.56.78 2.38.87 1.6 2.1 3 3.22 3.75a13.46 13.46 0 003.99 2.03c.96-.3 2.49-.92 3.98-2.03a11.09 11.09 0 003.22-3.75c.42-.82.65-1.62.78-2.38.25-1.45.24-3.1.2-4.72-.09-1.5-.32-3.28-.77-5.27-3.73-.67-5.98-.6-7.41-.62-1.43.01-3.69-.05-7.41.62z" fill="#FFBB59"/><path d="M28.02 38.8c.96-.3 2.49-.9 3.98-2.02a11.09 11.09 0 003.22-3.75c.42-.82.65-1.62.78-2.38.25-1.46.24-3.1.2-4.72-.09-1.5-.32-3.28-.77-5.27-3.73-.67-5.98-.6-7.41-.62" fill="#E9AB00"/><path d="M20.4 27.99a20.8 20.8 0 01.04-2.35c.07-1.29.16-2.78.59-4.48 3.3-.54 5.54-.53 6.96-.57 1.41.03 3.65.02 6.96.57.42 1.71.51 3.2.59 4.48.06.83.07 1.6.04 2.36l-15.18-.01z" fill="#F0F3FA"/><path d="M35.55 29c-.35 4.23-2.34 7.16-7.55 9-5.21-1.85-7.2-4.77-7.55-9h15.1z" fill="#7BB1DD"/><path d="M33.03 35.02c-.4.41-.86.8-1.38 1.16l-6-7.17H28l5.03 6.01zm2.13-3.75c-.19.72-.46 1.4-.82 2.02L30.77 29h2.5l1.9 2.27zm-5.4 6c-.54.25-1.13.5-1.77.73l-7.55-9h2.45l6.87 8.26z" fill="#A8C9E8"/><path d="M29.87 26.84c1.06-.05 2.14-.22 2.64-.35-.1.83-.94.74-.46 1.51h-1.07c-.4-.14-.82-.31-1.18-.34a.52.52 0 00-.29.03c-1.12.43-2.02-.06-2.85-.08-.03.1-.2.22-.57.26-.6.08-1.03-.18-1.5-.2-.17 0-.34.06-.48.33-.24-.34-.38-.6-.72-1-.5-.25-.96-.45-1.41-.61l.02-.1c1.44.44 2.52.61 3.5.7 1.2.05 2.5.13 3.67.04.33-.13.46-.18.7-.2z" fill="#FBC24E"/><path d="M32.36 26.6c-.13.53-.92.74-.39 1.4h-.63c-.4-.14-1.1-.45-1.86-.45-.29.22-.8.32-1.59.14-.36-.08-.86-.2-1.37-.2-.12.5-1.74.3-2.32-.46l-.73-.18-.17-.13a20.82 20.82 0 005.87.43c.24-.08.3-.1.42-.16.18-.09.39-.07.57-.07 1.01-.08 1.67-.22 2.2-.31z" fill="#EAAA00"/><path d="M27.4 26.82c.13-.2.33-.32.6-.37v.63h.23l-.02-.67a6.3 6.3 0 012.23.18v.22l.2-.01v-.26l2.14-.75c-.6-.8-.55-1.74-.4-2.7-.11.48-.4 1.37-1.12 2.19-.58.64-.51.78-.61.96l-.04-4.33-.5.16c-.1.03-.03.08-.12.12l-.49.2.57-.03c.07 0 .02-.12.1-.13l.3-.03-.03 4.29c-.33-.53-.93-1.16-.68-2.5-.6 2.27-2.51 2.02-2.37 2.83zm-.84-2.4c-.52 1.77-2.05 1.55-1.96 2.26.23-.2.46-.22.68-.28v.57l.2.03v-.63c.56-.06 1.05 0 1.55.05-.4-.65-.65-1.31-.47-2z" fill="#EAAA00"/><path d="M32.4 23.08c-.12.48-.4 1.37-1.12 2.18-.58.65-.54.88-.65 1.06V23.7l1.76-.62zm-5.32 1.8l2.7-.92C29.2 26.3 27.24 26 27.4 26.8c-.46-.41-.9-1.22-.32-1.92zm-2.75.32l2.23-.78c-.52 1.77-2.05 1.55-1.96 2.26-.51-.51-.53-1.13-.27-1.48z" fill="#FFBB59"/><path d="M28.23 21.36v-.77l-.5.17c-.1.02-.03.07-.12.11l-.49.2.57-.03c.07 0 .02-.12.1-.13l.3-.02v.54l.14-.07zm-2.77 1.91v-.94l-.49.17c-.1.03-.04.08-.13.12l-.47.18.55-.02c.08 0 .03-.11.1-.13l.31-.02v.7l.13-.06z" fill="#EAAA00"/><path d="M29.08 21.07c-.79 1.52-1.86 1.26-1.98 2-.42-.34-.24-1.02.02-1.32l1.96-.68z" fill="#FFBB59"/><path d="M29.3 22.38a1.21 1.21 0 01-.22-1.31c-.79 1.52-1.86 1.26-1.98 2 .45-.61 1.8-.66 2.2-.69z" fill="#EAAA00"/><path d="M27.15 24.74c-.47-.68-.47-1.36-.05-1.56.73-.25 1.68-.56 2.21-.79-.36 1.42-2 1.54-2.16 2.35z" fill="#FFBB59"/><path d="M29.3 22.38c-.37 1.44-2.01 1.57-2.18 2.38.35-.47 1.15-.78 2.65-.83a1.9 1.9 0 01-.46-1.55z" fill="#EAAA00"/><path d="M26.18 23.02c-.63.2-1.2.43-1.7.6-.24.24-.52.88-.1 1.42-.08-.63 1.31-.77 1.8-2.02z" fill="#FFBB59"/><path d="M24.38 25.04c-.08-.63 1.28-.86 1.8-2.02-.02.28-.13.89.38 1.39-.79.04-1.8.16-2.18.63z" fill="#EAAA00"/><path d="M24.16 23.7a5.78 5.78 0 00-2.08 2.41c.35-.03.7-.03 1.2.07-.4-.27-.48-.58.88-2.48z" fill="#FFBB59"/><path d="M23.67 26.27l-.4-.08c-.4-.27-.48-.58.88-2.48-.27.5-.7 1.4-.48 2.56z" fill="#EAAA00"/><path d="M28.14 30.04l.32.4c.04.06.03.1.03.15.22-.02.47.06.62.27.15.23.27.34.4.43.16.13.33.18.48.23.22.07.39.21.5.5.03 0 .06-.02.17.02l.43.14.09.05c.02.04.04.07.04.1 0 .04 0 .08-.02.12l-.32.45c-.02.04-.09.05-.1.05.09.2.1.48-.08.7a1.5 1.5 0 00-.3.54c-.05.11-.06.33-.06.58 0 .19-.1.37-.3.5v.54c0 .06 0 .11-.02.16-.04.07-.1.1-.17.1-.06 0-.11 0-.13-.02l-.46-.15c-.05-.03-.05-.05-.05-.05-.46.37-.85.03-1.22.02-.38.01-.76.35-1.22-.02l-.06.05-.46.15-.13.01a.3.3 0 01-.17-.09.23.23 0 01-.02-.16v-.47l.01-.07c-.22-.13-.3-.31-.3-.5 0-.25-.02-.47-.06-.58a1.4 1.4 0 00-.3-.53c-.19-.23-.16-.5-.08-.7a.18.18 0 01-.1-.06l-.33-.45a.13.13 0 01-.01-.12c0-.03.01-.07.04-.1l.09-.05.42-.14c.12-.04.14-.01.18-.01.1-.31.27-.45.5-.5.15-.04.31-.1.48-.24.13-.09.23-.22.4-.43.15-.21.4-.29.62-.27 0-.04-.03-.1.02-.15l.32-.4c.05-.06.12-.06.14-.07.07.01.12.01.17.07z" fill="#002E60"/><path d="M27.87 31.6c-.1-.1-.28-.18-.47-.02a.34.34 0 00-.08.06c-.17.15-.2.3-.37.39-.25.11-.69.11-.54.59.05.14.05.11-.08.09-.23-.05-.43-.18-.45-.43-.02-.23.1-.4.3-.47.12-.04.26-.05.52-.23.31-.21.35-.48.58-.6a.57.57 0 01.41 0c.22.1.27.34.25.6 0 .09-.04.05-.07.02z" fill="#E41819"/><path d="M27.92 32.86v-.8c.02-.18-.06-.3-.22-.34a.29.29 0 00-.2.02c-.1.05-.14.14-.22.23a.73.73 0 01-.27.22c-.09.04-.2.05-.28.1-.1.06-.18.13-.17.28 0 .07.04.15.1.2.07.05.14.08.23.1l.69.22c.05.02.07 0 .1-.04.08-.11.14-.12.2-.14.04.02.04-.02.04-.05zm.25-1.26c.1-.1.28-.18.47-.02.03 0 .05.03.08.06.17.15.2.3.37.39.25.11.68.11.54.59-.05.14-.05.11.08.09.23-.05.43-.18.45-.43.01-.23-.1-.4-.3-.47-.12-.04-.27-.05-.52-.23-.31-.21-.35-.48-.58-.6a.57.57 0 00-.41 0c-.22.1-.27.34-.25.6 0 .09.04.05.07.02z" fill="#E41819"/><path d="M28.12 32.86v-.8c-.02-.18.06-.3.21-.34a.29.29 0 01.21.02c.09.05.14.14.22.23.08.1.17.18.27.22.09.04.2.05.28.1.1.06.18.13.17.28 0 .07-.04.15-.1.2a.63.63 0 01-.24.1l-.68.22c-.01.02-.04.02-.05.02l-.02-.02c-.1-.15-.16-.15-.25-.18-.02 0-.04-.02-.02-.05zm1.04 1.8c.14.03.33-.02.4-.25 0-.03 0-.07.02-.1.04-.23-.02-.37.08-.55.13-.24.49-.5.09-.8-.12-.07-.12-.06.01-.11.22-.1.45-.1.62.08.14.18.17.38.04.56-.08.12-.18.2-.29.5-.11.35 0 .6-.12.83-.08.13-.2.2-.34.23-.24.05-.41-.12-.55-.35-.04-.06.01-.05.04-.04z" fill="#E41819"/><path d="M28.37 33.68l.48.65c.09.15.23.22.38.15a.22.22 0 00.15-.14c.03-.09.03-.2.03-.32.02-.12.03-.25.1-.34l.16-.24c.05-.1.07-.2-.02-.32a.3.3 0 00-.2-.12c-.1 0-.16.03-.25.05l-.69.24c-.03 0-.06.03-.05.07.02.16-.05.22-.1.26-.01.01 0 .04.01.06zm-1.5.98a.34.34 0 01-.4-.25c-.01-.03-.01-.07-.03-.1-.03-.23.03-.37-.07-.55-.13-.24-.5-.5-.1-.8.12-.07.12-.06 0-.11-.22-.1-.46-.1-.62.08-.15.18-.17.38-.04.56.07.12.18.2.28.5.12.35 0 .6.13.83.08.13.2.2.33.23.25.05.42-.12.56-.35.05-.06 0-.05-.04-.04z" fill="#E41819"/><path d="M27.65 33.68l-.47.65c-.1.15-.23.22-.39.15a.22.22 0 01-.14-.14c-.04-.09-.04-.2-.04-.32-.01-.12-.02-.25-.09-.34-.05-.07-.13-.16-.17-.24-.05-.1-.06-.2.03-.32a.3.3 0 01.2-.12c.1 0 .16.03.25.05l.68.24c.04 0 .05.02.07.05-.03.11.02.19.09.27 0 .02 0 .05-.02.07zm1.28 1.14c-.03.14-.12.3-.38.3h-.1c-.22-.03-.33-.14-.53-.1-.27.05-.63.31-.78-.15-.04-.14-.03-.13-.12-.03-.15.18-.24.4-.1.6.13.2.32.28.53.21.13-.04.24-.11.56-.13.38 0 .57.18.81.13a.48.48 0 00.32-.24c.12-.22.02-.43-.16-.63-.05-.05-.05 0-.05.04z" fill="#E41819"/><path d="M28.23 33.76l.48.65c.11.12.14.28.02.4a.32.32 0 01-.18.1c-.1.02-.2-.02-.32-.05-.11-.03-.23-.06-.35-.03l-.28.08c-.11 0-.22 0-.3-.12-.05-.06-.06-.14-.03-.23.02-.1.07-.14.13-.22l.42-.58c.03-.02.04-.05.08-.04a.3.3 0 00.28 0l.05.04z" fill="#E41819"/><path d="M28.3 33.34c0 .14-.12.27-.27.27a.27.27 0 01-.27-.27c0-.14.11-.27.27-.27.14 0 .27.13.27.27z" fill="#FEBE53"/><path d="M27.77 30.73c-.03-.03-.03-.04.01-.07.08-.09.14-.2.22-.32l.22.32c.02.04.04.04.01.07a.67.67 0 00-.23.33.6.6 0 00-.23-.33zm2.65 1.59c.01-.04.02-.02.06-.01.12.04.23.08.38.11-.1.1-.17.21-.25.31-.02.04-.02.05-.06.03a.6.6 0 00-.39-.12c.16-.1.2-.22.26-.32zm-4.95.43c-.04.02-.04 0-.07-.03-.06-.1-.14-.2-.23-.3l.37-.12c.04-.02.05-.03.07 0 .04.11.1.24.24.33-.17-.01-.3.06-.38.12zm4.25 2.53c.04 0 .04.01.04.06l.01.39a2.44 2.44 0 00-.37-.12c-.04 0-.05 0-.05-.05a.61.61 0 00-.01-.4c.14.1.27.1.38.12zm-3.04.26c0 .04 0 .04-.06.05l-.36.13c.02-.14.02-.27 0-.39 0-.04 0-.05.04-.06.12-.02.25-.03.38-.14a.74.74 0 000 .4z" fill="#E41819"/></svg>