<!-- by TradingView --><svg width="56" height="56" xmlns="http://www.w3.org/2000/svg"><path fill="url(#paint0_linear)" d="M0 0h56v56H0z"/><path d="M20.627 42.505C14.778 39.493 12 34.843 12 27.971c0-5.06 1.14-8.028 4.387-11.347 4.299-4.387 11.01-5.922 16.64-3.7 3.305 1.272 7.384 4.913 7.955 7.077a4.606 4.606 0 01-4.446 5.6c-.57 0-1.9-.789-2.939-1.798-2.632-2.325-3.875-2.954-6.097-2.954-4.138 0-6.975 2.852-6.975 7.122 0 2.164.307 3.173 1.491 4.869 1.916 2.69 5.85 4.49 9.256 4.27l2.37-.146.672-3.437c1.023-5.396 4.284-7.457 7.136-4.489 2.836 2.852.73 7.443-4.709 10.192a10.632 10.632 0 00-2.837 2.003c-1.184 1.536-4.708 2.852-7.486 2.852-1.916 0-3.466-.424-5.79-1.58zm9.037-1.696c1.243-.526 1.301-.628.41-.79-6.084-1.271-9.242-3.333-11.201-7.237-1.185-2.384-1.39-6.873-.41-8.876a10.149 10.149 0 019.037-5.85c3.041 0 4.445.63 7.077 3.218 1.96 1.9 3.246 2.003 3.875.263.249-.644-.424-1.594-2.34-3.378-11.2-10.528-27.826 4.226-19.418 17.21 3.158 4.914 8.73 7.239 12.97 5.44zm9.154-6.287c.716-.892 1.33-2.048 1.33-2.632 0-1.214-1.389-1.901-2.164-1.112-.672.688-1.448 5.381-.877 5.381.205 0 .98-.73 1.696-1.637h.015z" fill="#FBFEFF"/><defs><linearGradient id="paint0_linear" x1="0" y1="28" x2="56" y2="28" gradientUnits="userSpaceOnUse"><stop stop-color="#93EFFC"/><stop offset=".41" stop-color="#4593DB"/><stop offset=".73" stop-color="#3E56C6"/><stop offset="1" stop-color="#754ACD"/></linearGradient></defs></svg>