<!-- by TradingView --><svg width="56" height="56" xmlns="http://www.w3.org/2000/svg"><path fill="url(#paint0_linear)" d="M0 0h56v56H0z"/><path d="M26 14c-1.93.209-5.953 1.123-9.905 5.435l-7.427 7.29c-.504.436-1.21 1.577 0 2.65 1.211 1.073 6.466 6.214 8.942 8.651C18.847 39.243 22.262 41.711 26 42v-5.228c-4.008-.91-7-4.493-7-8.775 0-4.283 2.992-7.866 7-8.776V14zm4 28v-5.228a9.014 9.014 0 005.725-4.156l-4.316-2.524a4 4 0 11-.152-4.414l4.374-2.454A9.012 9.012 0 0030 19.22V14c1.93.209 5.953 1.123 9.905 5.435l7.427 7.29c.504.436 1.21 1.577 0 2.65-1.211 1.073-6.466 6.214-8.942 8.651C37.153 39.243 33.738 41.711 30 42z" fill="#000"/><defs><linearGradient id="paint0_linear" x1="28" y1="0" x2="28" y2="56" gradientUnits="userSpaceOnUse"><stop stop-color="#F3CB7C"/><stop offset="1" stop-color="#CAA557"/></linearGradient></defs></svg>