<!-- by TradingView --><svg width="56" height="56" viewBox="0 0 56 56" xmlns="http://www.w3.org/2000/svg"><path fill="url(#a)" d="M0 0h56v56H0z"/><path d="M19.8 13.01v.1a2504.72 2504.72 0 0 0 10.8 5.96c.1.05.18.04.25-.04l5.8-6.01 8.28 14.7a35 35 0 0 1-2.72-1.51 630.4 630.4 0 0 0-7.77-4.78c-1.23-.74-2.45-1.49-3.66-2.25a.09.09 0 0 0-.1 0l-.14.06a.65.65 0 0 0-.16.04 3579.16 3579.16 0 0 1-13.26 5.33c-.07.03-.19.05-.33.08.03-.4.14-.98.34-1.74l.13-.5a825.67 825.67 0 0 1 1.9-7.82c.02-.4.12-.79.28-1.15a.07.07 0 0 0-.01-.08.11.11 0 0 0-.08-.05c.08-.27.23-.39.45-.34Z" fill="#AED0FE"/><path d="m36.66 13.01-5.81 6.02c-.07.08-.15.09-.24.04a2498.7 2498.7 0 0 1-10.8-5.96.16.16 0 0 1-.01-.1h16.86ZM19.35 13.35c.04 0 .06.02.08.05.02.03.02.05.01.08-.16.36-.25.74-.28 1.14 0 .1-.03.2-.06.28a11 11 0 0 0-.3 1.1l-.2.88a831.79 831.79 0 0 0-1.47 6.07c-.2.76-.3 1.34-.34 1.74a.18.18 0 0 0-.08.09l-5.61 3.29h-.02a.04.04 0 0 1-.03-.03l8.3-14.69Z" fill="#A4FCFF"/><path d="M44.94 27.73c.06.08.07.19.05.32-.22.1-.51.27-.88.51a5761.62 5761.62 0 0 0-11.75 7.75 15.8 15.8 0 0 1-.25-1.72c-.37-4.15-.8-8.99-1.31-14.52a9.44 9.44 0 0 1-.04-.73c0-.04-.02-.06-.06-.07l-.15-.03.14-.07a.1.1 0 0 1 .1 0c1.2.77 2.42 1.52 3.65 2.26a699.92 699.92 0 0 1 7.78 4.78 35 35 0 0 0 2.72 1.52Z" fill="#B0C2F2"/><path d="m30.54 19.25.16.02c.04 0 .06.03.06.07 0 .25.02.49.04.73.5 5.53.94 10.37 1.3 14.52.05.57.14 1.15.25 1.73l-.07.05-15.44-11.5-.13-.09a.18.18 0 0 1 .08-.09c.14-.02.26-.05.33-.08l3.01-1.19c3.42-1.37 6.84-2.76 10.25-4.14a.65.65 0 0 1 .16-.03Z" fill="#B1B3E4"/><path d="m16.7 24.78.15.1-.13.01c-.04 0-.05.03-.04.07a215.76 215.76 0 0 1 1.14 7.2l.16.94.16.85c.4 2.72.78 5.08 1.13 7.06.1.56.11 1.09.04 1.58l-8.3-14.41c-.02-.05 0-.1.04-.14 0 .02.01.03.03.03h.02l5.6-3.29Z" fill="#B7A4DB"/><path d="m16.84 24.88 15.44 11.48-.1.09-1.75.9-1.87.96a826.68 826.68 0 0 1-8.47 4.4c-.09.05-.16.15-.2.29l-.3-.02a.12.12 0 0 1-.1-.05c-.07-.1-.14-.21-.18-.34.07-.5.05-1.02-.04-1.58-.35-1.98-.73-4.34-1.14-7.06-.02-.17-.07-.46-.15-.85l-.17-.93-.22-1.47c-.37-2.48-.67-4.4-.92-5.74 0-.04.01-.06.05-.07l.12-.01Z" fill="#B996CC"/><path d="m44.99 28.05-8.26 14.84c-.04.07-.12.11-.22.11-.1-.3-.3-.69-.62-1.14l-.22-.3-2.9-4.4c-.12-.19-.33-.43-.6-.71l.1-.08.08-.05a5856.3 5856.3 0 0 1 11.75-7.75c.37-.25.67-.42.89-.52Z" fill="#BB86C1"/><path d="M32.17 36.45c.28.28.48.52.6.72a3533.16 3533.16 0 0 0 3.12 4.7c.31.44.52.82.62 1.13H19.89c.05-.14.11-.24.2-.28a828.76 828.76 0 0 0 10.34-5.37l1.74-.9Z" fill="#BC77B3"/><defs><linearGradient id="a" x1="10.42" y1="9.71" x2="68.15" y2="76.02" gradientUnits="userSpaceOnUse"><stop stop-color="#1A1E21"/><stop offset="1" stop-color="#06060A"/></linearGradient></defs></svg>