<!-- by TradingView --><svg width="56" height="56" viewBox="0 0 56 56" xmlns="http://www.w3.org/2000/svg"><path fill="#F5901A" d="M0 0h56v56H0z"/><path d="M19.05 22.89a6.58 6.58 0 0 1 4.97 3.88c1.37 2.94 1.47 6.54 1.12 9.82v.01l.02.01h.02c.31-.42.67-.8 1.08-1.16a17.78 17.78 0 0 1 5.92-3.36c1.99-.67 5.14-.55 4.6 2.5a.07.07 0 0 1-.05.05.07.07 0 0 1-.07 0c-2.6-1.68-3.69.55-4.14 2.72-.5 2.47-1.55 4.73-4.06 5.65-.2.08-.42.12-.63.12a11.1 11.1 0 0 1-3.46-.55.05.05 0 0 0-.03.02v.06c.94 1.05 2.09 1.34 3.45 1.5a.12.12 0 0 1 .08.04.12.12 0 0 1 .03.09c-.23 1.85-1.27 2.75-3.11 2.7-1.3-.02-3.02-.43-3.95-1.4-.88-.91-.65-2.04-.24-3.08a.21.21 0 0 0-.03-.2 33.56 33.56 0 0 1-2.16-3.14c-.73-1.2-1.43-2.71-1.41-4.12.01-.89.28-1.74.82-2.56.49-.74.87-1.35 1.15-1.8 1.05-1.74.95-3.53.65-5.5a9.62 9.62 0 0 0-.63-2.26v-.03l.03-.01h.03Zm7.77 8.93 1.3.42.01.02.01.02v.03l-.02.02-1.46 1.05h-.06a.05.05 0 0 1-.03-.05l.19-1.47v-.02l.02-.01h.04Zm-.89-5.08c.31-.12.65-.12 1.03-.02.42.11 1.74.54 3.97 1.3.55.18.92.53 1.12 1.06.2.56.17 1.5-.52 1.73-.5.17-.98.35-1.44.54a.39.39 0 0 1-.26 0l-3.03-.97a.3.3 0 0 1-.2-.26 12.54 12.54 0 0 0-.73-3.25.1.1 0 0 1 0-.08.1.1 0 0 1 .06-.05Zm7.47 2.3c.99.32 2.25.52 2.65 1.58a.08.08 0 0 1-.05.1h-.05a5.76 5.76 0 0 0-2.16-.36.08.08 0 0 1-.04-.08c.06-.42-.07-.8-.4-1.14a.05.05 0 0 1 .02-.09h.03Zm1.19-4.91c.7.22 1.25.41 1.66.57 2.15.8 1.05 4-1.23 3.3a309.03 309.03 0 0 1-1.64-.55.03.03 0 0 1 .03-.02c1.02-.04 1.4-1.09 1.55-1.94.1-.54-.02-.94-.4-1.3l-.01-.03v-.02l.02-.01h.02Zm-8.19-.9a1.7 1.7 0 0 1 2.16-1.07l3.94 1.3c.9.3 1.38 1.26 1.08 2.15l-.04.13a1.7 1.7 0 0 1-2.16 1.07l-3.95-1.31a1.69 1.69 0 0 1-1.07-2.14l.04-.13Zm-3.32-1.88c1.05-1.03 2.55-.09 3.41.13a.05.05 0 0 1 .02.1h-.03c-.45 0-.73.16-.97.53-.33.5-.51 1.02-.56 1.58-.03.38.09.73.36 1.04a.04.04 0 0 1 0 .05l-.02.02h-.02c-.44-.13-.7-.23-.76-.3a8.64 8.64 0 0 0-1.89-1.6.27.27 0 0 1-.12-.27c.08-.47.23-.93.58-1.28Zm14.2-1.4c2.25.77 1.22 4-1 3.38a39.71 39.71 0 0 1-1.7-.56l.01-.01.02-.01c.53-.08.86-.33 1.11-.82.4-.78.7-1.84-.09-2.48v-.05h.03l1.61.55Zm-8.93-1.17a1.7 1.7 0 0 1 2.15-1.06l3.1 1.04c.9.3 1.37 1.25 1.07 2.13l-.05.15a1.7 1.7 0 0 1-2.15 1.06l-3.1-1.04a1.68 1.68 0 0 1-1.07-2.13l.05-.15Zm-2.56 1.1c-2.15-.8-1.04-4 1.23-3.28a235.75 235.75 0 0 1 1.64.54v.02h-.02c-1.02.04-1.4 1.08-1.56 1.94-.1.54.02.94.4 1.3l.01.03v.02h-.02l-.02.01-1.66-.57Zm10.38-5.37 1.67.57c2.15.8 1.05 4.01-1.23 3.3a350.16 350.16 0 0 1-1.64-.54v-.01l.02-.01c1.02-.04 1.41-1.09 1.56-1.95.09-.53-.03-.93-.4-1.3l-.02-.02a.03.03 0 0 1 .02-.04h.02Zm-5.42-.03a1.66 1.66 0 0 1 2.1-1.04l1.45.49A1.64 1.64 0 0 1 35.34 16l-.07.2a1.66 1.66 0 0 1-2.1 1.03l-1.45-.48a1.64 1.64 0 0 1-1.04-2.08l.07-.2Zm-2.37 1.2c-2.26-.77-1.23-4 .98-3.38a38.56 38.56 0 0 1 1.7.56v.02h-.02c-.53.08-.86.33-1.1.82-.4.78-.71 1.84.08 2.48l.01.01v.02a.03.03 0 0 1-.03.01l-1.62-.53Zm3.83-5.56a1.66 1.66 0 0 1 2.1-1.03l1.43.48c.87.29 1.34 1.22 1.04 2.08l-.07.2a1.66 1.66 0 0 1-2.1 1.04l-1.43-.48a1.64 1.64 0 0 1-1.04-2.09l.07-.2Z" fill="#fff"/></svg>