<!-- by TradingView --><svg width="56" height="56" xmlns="http://www.w3.org/2000/svg"><path fill="#F0F3FA" d="M0 0h56v56H0z"/><path d="M13.806 17.59l11.543-5.55 1.146.657-9.49 4.6 11.419 5.967v2.2L13.806 17.59z" fill="#444340"/><path d="M41.805 17.238l-11.26-5.177-1.54.493 10.222 4.684-10.803 6.026v1.48l13.38-7.506z" fill="#FDFDFC"/><path d="M13.81 19.224v-1.64l14.614 7.868v1.791L13.81 19.224z" fill="#6D6D66"/><path d="M28.424 24.709v2.534l13.963-8.089v-1.766l-.521-.12-13.442 7.44z" fill="#7F7B6E"/><path d="M30.514 12.06l11.375 5.235.495.093L30.708 12l-.194.06z" fill="#7F7B6E"/><path d="M26.542 12.75l-9.514 4.571 2.387 1.242 5.767-2.978v-1.357l1.36-.795v-.683z" fill="#827D70"/><path d="M26.544 13.42l-1.396.808v7.345l1.396.72V13.42z" fill="#49463D"/><path d="M25.433 15.443l-2.044 1.062v4.13l2.044 1.081v-6.273z" fill="#696963"/><path d="M28.996 22.939V12.553l10.152 4.644-2.485 1.342-4.47-2.124v4.753l-3.197 1.771z" fill="#21211E"/><path d="M30 15.357v-1.4l6 2.884v1.4l-6-2.884z" fill="#666660"/><path d="M30 22.394v-6.785l2.193.992v4.572L30 22.394z" fill="#6F6D60"/><path d="M27.007 28.51l-13.508-7.563-1.491.86v.626l12.747 7.323 2.252-1.247z" fill="#44423C"/><path d="M12.734 34.177l-.727-11.796L25 29.606v14.175l-9.654-6.271v-1.45L23 41.174v-10.67l-7.405-4.35.248 5.195-1.273.765v2.546l-.459.335-1.377-.818z" fill="#71716B"/><path d="M14.453 32.034l-.163-6.806 1.27.791.228 5.255-1.335.76z" fill="#716F62"/><path d="M25 43.776V29.593l.561-.312-.084 14.718-.477-.221z" fill="#A09B8E"/><path d="M25.477 40.62l.085-11.372 1.438-.76v12.914l-1.523-.782z" fill="#494943"/><path d="M25.475 44v-3.387l1.525.75v1.593L25.475 44z" fill="#777568"/><path d="M23 31.602l-7.656 4.464L23 41.186v-2.348l-4.743-3.072L23 32.846v-1.243z" fill="#393935"/><path d="M22.997 32.837l-4.752 2.927.787.516L23 33.9l-.003-1.063z" fill="#51504A"/><path d="M20.219 37.043l-1.204-.768 3.982-2.395v1.343l-2.778 1.82z" fill="#777366"/><path d="M19.532 28.409l-3.736 2.166.031.775-1.262.755v2.557l7.815-4.611-1.06-.609-5.293 3.072V31.48l4.381-2.554-.876-.517z" fill="#393833"/><path d="M16 32.532v-1.068l4.395-2.55.93.529L16 32.533z" fill="#56554D"/><path d="M23.375 26.524v-2.069l1.34.744-1.34 1.325z" fill="#6C6B65"/><path d="M24.682 27.267V25.2l-1.31 1.331 1.31.737z" fill="#1E1E1B"/><path d="M24.666 27.26v-2.109l1.789.994v2.11l-1.788-.994z" fill="#757165"/><path d="M27.71 28.877l-.832.537-.038 1.396.825-.727 1.122.76v-1.291l-1.078-.675z" fill="#989FA4"/><path d="M26.834 31.855v-1.079l.828-.728 1.082.728v-1.24l.805.512v2.13l-.805-.539-1.082.701-.828-.485z" fill="#33332E"/><path d="M26.812 32.985l.028-1.159.85.406 1.058-.634.828.563v1.5l-1.887-1.105-.877.429z" fill="#707069"/><path d="M28.823 27.763v-.761l1.374-.799v1.098l-.864.773-.51-.31z" fill="#696862"/><path d="M30.195 27.181v-.984l.858-.503.98.576v.911l-2.1 1.27-.6-.381.862-.889z" fill="#33332D"/><path d="M32.029 26.321v-1.176l-.985.556.985.62z" fill="#7A776B"/><path d="M32.029 27.169v-.876l.873.37-.873.506z" fill="#E7E7E6"/><path d="M41.195 21.773l-11.84 6.965v12.636L31 40.248V29.18l11.11-6.645-.915-.762z" fill="#494841"/><path d="M31.376 29.419l-.381-.326L42.06 22.5l-.715-.596 1.335-.908 1.315.739-12.619 7.683z" fill="#FFFFFE"/><path d="M42.508 20.866l-1.316.908.158.129 1.34-.905-.181-.132z" fill="#494841"/><path d="M29.354 43.023v-1.676L31 40.24V44l-1.646-.977z" fill="#6B6A64"/><path d="M31 44V29.106l1 .648v13.393L31 44z" fill="#9C978A"/><path d="M12 21.822v.558l12.996 7.226.61-.356-13.159-7.7-.447.272z" fill="#575651"/><path d="M31.997 29.754l-.663-.369L44 21.726l-.031.901-11.972 7.128z" fill="#6F6D60"/><path d="M40.438 37.383L32 43.138v-13.42l11.968-7.104-1.045 11.374-1.248.881.791-9.946L33 30.686v9.403l6.682-4.421.756.49v1.224z" fill="#827D70"/><path d="M37.35 35.738l-4.345 3.065v1.289l6.58-4.354-6.228-3.55v1.184l3.992 2.366z" fill="#fff"/><path d="M33.3 34.225v-.826l4.049 2.284-.685.458-3.364-1.916zM33.268 32.31v-.355l6.419 3.713-.3.204-6.12-3.562z" fill="#393833"/><path d="M33 38.579l4.343-2.9.253.14L33 38.87v-.292z" fill="#393833"/><path d="M41.177 34.656c-2.473-1.412-7.467-4.287-7.626-4.353l1.804-1.117 6.009 3.076-.187 2.394z" fill="#282723"/><path d="M39.983 30.523l-3.457-2.05-1.167.725 4.535 2.447.089-1.122z" fill="#fff"/><path d="M39.897 31.584c.142-1.706.436-5.183.481-5.447l1.614-.936-.634 7.061-1.461-.678z" fill="#6C6B65"/><path d="M42.558 24.679l-.566.44-.85 9.518.538.22.878-10.178z" fill="#949083"/><path d="M39.893 32.384l-4.869-2.779-.355.184 5.224 2.894v-.299zM40.001 30.366l-3.375-1.964-.122.074 3.483 2.045.014-.155z" fill="#6C6B65"/></svg>