<!-- by TradingView --><svg width="56" height="56" xmlns="http://www.w3.org/2000/svg"><path fill="#6EB6A3" d="M0 0h56v56H0z"/><path fill-rule="evenodd" d="M13.613 25.022a1.375 1.375 0 00-1.322.348l-4.044 4.102a.356.356 0 10.507.5l4.036-4.094.008-.008a.662.662 0 01.637-.158l5.393 1.39.016.005a.661.661 0 01.437.436l1.436 5.298a.661.661 0 01-.14.638l-.013.014-4.194 4.172a.356.356 0 00.502.505l4.207-4.185a1.373 1.373 0 00.318-1.355l-1.436-5.299a1.374 1.374 0 00-.94-.914l-5.393-1.39-.015-.005zM23.33 34.608a1.375 1.375 0 00-1.321.348l-4.045 4.102a.356.356 0 00.508.5l4.036-4.094.008-.008a.662.662 0 01.637-.158l5.393 1.39.015.005a.661.661 0 01.437.435l1.436 5.3s0-.001 0 0a.661.661 0 01-.152.65c0 .001 0 0 0 0l-4.194 4.173a.356.356 0 00.502.505l4.207-4.185a1.373 1.373 0 00.318-1.355l-1.436-5.3s0 .001 0 0a1.374 1.374 0 00-.94-.913l-5.393-1.39a.7.7 0 00-.016-.005zM42.387 31.06c.471.126.974-.006 1.322-.348l4.044-4.103a.356.356 0 00-.507-.5l-4.036 4.095-.008.007a.662.662 0 01-.637.159l-5.393-1.391a.661.661 0 01-.452-.44l-1.437-5.299a.66.66 0 01.152-.651l4.195-4.172a.356.356 0 00-.502-.505l-4.208 4.185a1.373 1.373 0 00-.317 1.355l1.436 5.299c.138.443.492.787.94.913l5.393 1.391a.88.88 0 00.015.004zM32.751 21.392c.47.126.974-.005 1.322-.348l4.044-4.102a.356.356 0 00-.507-.5l-4.037 4.094-.007.008a.662.662 0 01-.637.158l-5.394-1.39a.661.661 0 01-.452-.44l-1.436-5.3s0 .001 0 0a.661.661 0 01.152-.65c0-.001 0 0 0 0l4.195-4.173a.356.356 0 00-.503-.505l-4.207 4.185a1.373 1.373 0 00-.318 1.355l1.436 5.3s0-.001 0 0c.139.443.492.787.94.913l5.394 1.39a.7.7 0 00.015.005zM42.276 32.664a.356.356 0 01-.187.687l-5.425-1.47a1 1 0 00-.96.25l-3.56 3.48a1 1 0 00-.265.979l1.465 5.365a.356.356 0 01-.688.188L31.03 36.18a.66.66 0 01.175-.646l4.43-4.333a.662.662 0 01.637-.166l6.005 1.628zM13.8 23.49a.356.356 0 11.187-.687l5.425 1.47a1 1 0 00.96-.25l3.56-3.48a1 1 0 00.265-.978l-1.465-5.366a.356.356 0 01.688-.187l1.627 5.961a.66.66 0 01-.175.647l-4.43 4.332a.662.662 0 01-.637.166l-6.004-1.628zM33.621 23.089a1 1 0 00-.707-.707l-6.404-1.72a1.001 1.001 0 00-.966.257L20.85 25.6a.999.999 0 00-.26.966l1.71 6.4a1 1 0 00.707.708l6.404 1.72c.346.093.714-.006.967-.258l4.693-4.68a.999.999 0 00.26-.965l-1.71-6.401zM32.6 24.124a1 1 0 00-.706-.708l-5-1.342a1 1 0 00-.966.257l-3.663 3.654a.999.999 0 00-.26.965l1.335 4.996a1 1 0 00.707.707l4.999 1.343c.345.093.714-.005.967-.258l3.663-3.653a.999.999 0 00.26-.965l-1.336-4.996z" fill="#fff"/></svg>