<!-- by TradingView --><svg width="56" height="56" viewBox="0 0 56 56" xmlns="http://www.w3.org/2000/svg"><path fill="#1C5B95" d="M0 0h56v56H0z"/><path d="M40.87 34.52a14 14 0 1 0-25.77-.07l-2.69 1.34a17 17 0 1 1 31.05.28l-2.6-1.55Z" fill="#fff"/><path d="m14 38.5 3.5-3.5 3.5 3.5-3.5 3.5-3.5-3.5ZM21 38.5l3.5-3.5 3.5 3.5-3.5 3.5-3.5-3.5ZM28 38.5l3.5-3.5 3.5 3.5-3.5 3.5-3.5-3.5ZM35 38.5l3.5-3.5 3.5 3.5-3.5 3.5-3.5-3.5ZM26 34h-3V19h2v-3h2v3h1v-3h2v3c1.33 0 4 .9 4 4.5S30.67 28 29 28h-1l-1-3h2c.67 0 2-.3 2-1.5S29.67 22 29 22h-3v12Z" fill="#fff"/></svg>