<!-- by TradingView --><svg width="56" height="56" xmlns="http://www.w3.org/2000/svg"><path fill="#35C380" d="M0 0h56v56H0z"/><path d="M35.583 33.701c-.502.146-1.004.299-1.56.299h-17.6c-.952 0-1.902.825-2.377 1.727l-2.009 3.808c-.106.203.027.465.238.465h17.469c1.956 0 3.78-1.22 4.757-3.081l1.373-2.782c.132-.232-.053-.523-.291-.436zM43.619 17.027c-1.797.823-5.154.944-6.845.973H25.859c-2.035 0-3.911 1.23-4.916 3.2l-1.416 2.521c-.106.235.053.5.29.441.53-.147 1.084-.162 1.64-.162h16.755c1.427 0 2.87-1.066 3.583-2.418l2.167-4.144c.132-.235-.106-.529-.343-.411zM39.694 25.498h-.052c-.529.141-1.084.502-1.639.502H20.481c-.951 0-1.823.234-2.299 1.111l-2.207 4.605c-.105.199.027.453.238.453h.053c.528-.141 1.083-.169 1.638-.169H34.66c1.427 0 2.815-1.521 3.528-2.823l1.744-3.226c.106-.198-.026-.453-.238-.453z" fill="#fff"/></svg>