<!-- by TradingView --><svg width="56" height="56" xmlns="http://www.w3.org/2000/svg"><path fill="#2992FB" d="M0 0h56v56H0z"/><path d="M36.219 18.907a11.293 11.293 0 00-7.36-2.694A11.68 11.68 0 0017.312 27.2h-1.2A12.84 12.84 0 0128.86 14.987c3 0 5.867 1.106 8.2 3.066l-.84.854zm-.413 4.026a8.534 8.534 0 00-6.934-3.6A8.627 8.627 0 0020.312 28a8.642 8.642 0 008.547 8.733 8.485 8.485 0 006.933-3.6l.854.854a9.694 9.694 0 01-7.787 3.973A9.867 9.867 0 0119.126 28a9.84 9.84 0 019.733-9.893 9.678 9.678 0 017.787 3.973l-.84.853zm1.373-3.12l.84-.853c.293.307.533.613.773.92l-.84.853c-.24-.32-.498-.628-.773-.92zm-8.373 21.254a12.84 12.84 0 01-12.747-12.214h1.2a11.68 11.68 0 0011.547 11c2.693 0 5.266-.933 7.36-2.693l.84.853a12.64 12.64 0 01-8.2 3.067v-.013zm8.373-4.827c.293-.307.533-.6.773-.907l.84.854c-.24.306-.48.6-.773.906l-.84-.853zM14.379 28a14.666 14.666 0 0014.48 14.773c4.307 0 8.373-1.893 11.133-5.373l.84.853A15.334 15.334 0 0128.86 44c-8.667 0-15.667-7.2-15.667-16 0-8.853 7.067-16 15.667-16 4.613 0 8.987 2.08 11.973 5.733l-.84.867a14.268 14.268 0 00-11.133-5.373A14.666 14.666 0 0014.392 28h-.013z" fill="#fff"/></svg>