<!-- by TradingView --><svg xmlns="http://www.w3.org/2000/svg" width="56" height="56"><path fill="url(#acoy4je2d)" d="M0 0h56v56H0z"/><path d="M39.99 40.38l-9.69 5.4c-.54.3-1.22.3-1.76 0l-14.66-8.16a1.7 1.7 0 01-.88-1.47V29.4l8-4.4v6.8c0 .6.3 1.17.85 1.47l6.69 3.86c.54.3 1.22.3 1.76 0l4.14-2.3c1.05-.45 1.92-.33 2.48.02l1.52 1.48L40.17 38c.9.87.52 1.86-.18 2.38z" fill="#fff"/><path d="M28.54 10.23c.54-.3 1.22-.3 1.76 0l9.22 5.12c.04.04.1.07.18.12 1.74.99 1.4 1.71.87 2.2a75.5 75.5 0 00-3 3.15l-.7.75c-.44.47-1.08.32-1.65.04l-.6-.34a33.56 33.56 0 01-.48-.28V21l-3.84-2.14c-.54-.3-1.22-.3-1.76 0-5.24 2.91-10.3 5.9-15.54 8.84v-7.86c0-.6.34-1.17.88-1.47l14.66-8.15z" fill="#F98A16"/><defs><linearGradient id="acoy4je2d" x1="10.42" y1="9.71" x2="68.15" y2="76.02" gradientUnits="userSpaceOnUse"><stop stop-color="#1A1E21"/><stop offset="1" stop-color="#06060A"/></linearGradient></defs></svg>