<!-- by TradingView --><svg width="56" height="56" viewBox="0 0 56 56" fill="none" xmlns="http://www.w3.org/2000/svg"><path fill="#F0F3FA" d="M0 0h56v56H0z"/><path d="M21.35 13.3c-1.31.28-8.6 4.26-7.17 15.84.39 3.08 1 5.55 1.78 7.86 1.6 4.8 4 8 6.98 8 3.34 0 5.17-4.33 5.67-6.5 2.25-1.13 9.05-2.7 12.05-3.42 3-.73 4.27-1.86 4.6-3.1.33-1.25 3.7-8.81-7.3-14.47s-15.1-4.51-16.61-4.2Z" fill="#958982"/><path d="m45.48 25.42-.32-.6-.16.82.3.53.18-.75Z" fill="#EBFF0C"/><path d="m40.65 28.45-.3-.43 1.9-.8.31.45-1.9.78Z" fill="#E7FF0F"/><path d="M39.02 33.02c0-.18.02-.54 0-.57l2.28-.67v.63l-2.28.61Z" fill="#6DFF8A"/><path d="m39.89 35.1-2.02.5-.12.16 1.91-.47.23-.2Z" fill="#00FAF0"/><path d="m35.36 28.9-.31-.32 2.32-.46.3.28-2.3.5Z" fill="#FBF100"/><path d="m30 29.08-.26-.23 2.22-.22c.1.07.3.22.32.22l-2.27.23Z" fill="#FFDB00"/><path d="m29.18 28.55-.37-.04v.29h.67l-.3-.25Z" fill="#FFD900"/><path d="m40.6 25.21-.44.74.4-.21.04-.53Z" fill="#EEFF09"/><path d="m39.9 26.04-.36.27.14-.62.22.35Z" fill="#BAFF3C"/><path d="m38.56 20.31.35-.54 1.42 1.2-.4.4-1.37-1.06Z" fill="#FF9800"/><path d="m36.71 19.22.32-.6 1.78 1.1-.36.53-1.74-1.03Z" fill="#FF8200"/><path d="m36.43 20.06.25-.77 1.75 1.04-.3.68-1.7-.95Z" fill="#FF9800"/><path d="m36.13 21.05.31-.9 1.63.96-.29.8-1.65-.86Z" fill="#FFB600"/><path d="m34.68 18.19.22-.65 2.02 1.01-.28.6-1.96-.96Z" fill="#FF6C00"/><path d="m34.44 19.14.22-.86 1.95.97-.28.77-1.89-.88Z" fill="#FF8200"/><path d="m34.24 20.24.21-.99 1.85.85-.26.89-1.8-.75Z" fill="#FFA300"/><path d="M30.57 16.65v-.85l2 .68-.1.81-1.9-.64Z" fill="#FF3B00"/><path d="M30.55 28.22v-1.38h1.42l.04 1.26-1.46.12Z" fill="#50FFA7"/><path d="m28.04 20.2-.18-1.51 1.12.13.06 1.45-1-.07Z" fill="#FF8900"/><path d="M27.3 20.33 27 18.75l.78-.08.2 1.52-.67.14Z" fill="#FF7E00"/><path d="m26.55 17.07-.42-1.18h1.03l.28 1.18h-.9Z" fill="#F20"/><path d="m26.9 18.66-.4-1.44-.51.15.48 1.53.42-.24Z" fill="#FF3F00"/><path d="m26.86 20.87-.42-1.75-.07.49.49 1.26Z" fill="#FF7300"/><path d="m28.59 15.1-.12-.67 1.95.6v.62l-1.83-.55Z" fill="#FF1300"/><path d="m28.11 13.83-1.95-.45-.1-.11 1.96.44.1.12Z" fill="#D60000"/><path d="m26.17 32.9-.36-1.27.39-.32.4 1.32-.43.27Z" fill="#FFE200"/><path d="m25.76 31.55-.5-1.18.38-.46.54 1.27-.42.37Z" fill="#FFB200"/><path d="M26.6 37.18v-1.3l.43-.12v1.42h-.42ZM27.63 35.6l-.52.2.03 1.4.51-.14-.02-1.46Z" fill="#80FF77"/><path d="m26.2 35.72-.08-1.28h.25l.15 1.32-.32-.04Z" fill="#ADFF49"/><path d="m24.39 29.63-.55-.7v.2l.46.64.09-.14ZM23.9 28.33l-.07.45.56.76.15-.32-.64-.9Z" fill="#FF7E00"/><path d="M25.05 41.18v-.5l.35-.63v.47l-.35.66Z" fill="#00D3FF"/><path d="m24.14 30.65.23-.59.39.55-.62.04Z" fill="#D1FF26"/><path d="m21.37 40.84-.52-.45c.35-.27 1.06-.81 1.08-.81.03 0 .36.28.52.43l-1.08.83Z" fill="#008CFF"/><path d="m23.11 28.43.23.26-1.38-.13.4-.2.75.07Z" fill="#FFB900"/><path d="m20.16 39.75-.77.69.54.61.77-.7-.54-.6Z" fill="#0084FF"/><path d="m22.4 27.95.43.3-.4-.19-.02-.1Z" fill="#FF6400"/><path d="M22.34 27.46v-.56l.69.5-.03.53-.66-.47Z" fill="#F50"/><path d="m25.02 41.34-.03-.53-.44.57v.55l.47-.59Z" fill="#00A0FF"/><path d="M16.66 35.44h-.38l.2 1.3.37-.12-.19-1.18Z" fill="#36FFC1"/><path d="m16.12 28.13-.13-.74-.37 1.37.1.64.4-1.27Z" fill="#FFEA00"/><path d="m23.76 25.8.3-.89.85.89-.35.84-.8-.84Z" fill="#F20"/><path d="M24.43 22.45v-1.12l.94.97v1.13l-.94-.98Z" fill="#D10000"/><path d="m16.04 18.58.15-.75-.41.79-.32.97.58-1Z" fill="#FF4E00"/><path d="m19.92 21.08-.13-1.2 1.03-.14.14 1.22-1.04.12ZM19.72 19.76l-.14-1.14 1.07-.17.16 1.2-1.09.1Z" fill="#AD0000"/><path d="m19.53 18.5-.16-1.13 1.08-.2.19 1.15-1.11.18ZM19.3 17.23l-.12-1.08 1.1-.16.15 1.08-1.12.16ZM19.2 16.05l.06-.95 1.07-.12-.07.95-1.06.12ZM19.73 14.2l-.4.8 1.02-.1.29-.77-.9.08ZM20.54 13.57l-.66.51.79-.03.6-.56-.73.08Z" fill="#8D0000"/><path d="m21.95 13.2-.85.24h.27l.58-.24ZM22.27 13.65l-.68-.22.92-.29.56.18-.8.33Z" fill="#960000"/><path d="m22.21 13.72-.8-.22-.6.52.93.23.47-.53ZM20.45 14.87l.33-.75.94.2-.22.73-1.05-.18ZM20.4 15.9v-.92l1.1.17v.94l-1.1-.18ZM20.53 17.05l-.13-1.08 1.1.22.12 1.06-1.09-.2ZM20.74 18.3l-.21-1.12 1.11.18.16 1.12-1.06-.18Z" fill="#840000"/><path d="m20.9 19.63-.15-1.17 1.05.1.17 1.23-1.07-.16ZM21.05 20.95l-.11-1.2 1.06.16.1 1.24-1.05-.2ZM21.04 22.22v-1.17l1.02.18v1.14l-1.02-.15ZM22.11 19.95l.06 1.19 1.04.45-.05-1.18-1.05-.46ZM22.1 19.82l-.17-1.18 1.1.47.1 1.18-1.03-.47Z" fill="#960000"/><path d="m21.94 18.5-.2-1.09 1.12.43.14 1.14-1.06-.48ZM21.72 17.26l-.1-1.03 1.08.45.12 1.04-1.1-.46ZM21.6 16.08v-.89l1.1.52v.87l-1.1-.5ZM21.58 15.11c.08-.25.24-.75.27-.74l.94.51-.12.7-1.09-.47ZM22.3 13.74l-.45.56.96.52.34-.52-.85-.56Z" fill="#840000"/><path d="m23.2 14.2-.78-.49.77-.32.65.54-.65.27Z" fill="#960000"/><path d="m24.5 13.32-1.18.06.62.49 1.02-.07-.46-.48Z" fill="#A80000"/><path d="m24.1 13.08-1.27.06.48.18 1.02-.1-.23-.14Z" fill="#A40000"/><path d="m25.52 14.67-.5-.8-1 .09.63.8.87-.09Z" fill="#B60000"/><path d="m24.58 14.76-.68-.8-.6.33.79.79.49-.32Z" fill="#A80000"/><path d="m24.03 15.18-.79-.82-.33.51.92.76.2-.45ZM22.77 15.62l.11-.66.91.79v.66l-1.02-.79ZM22.8 16.57v-.82l1 .76.06.84-1.07-.78ZM22.95 17.75l-.11-1.01 1.07.77.1 1.03-1.06-.8ZM24.04 18.7l-1.1-.78.2 1.13 1.02.74-.12-1.1ZM24.2 19.94l-1.05-.78.11 1.16 1.06.8-.12-1.18Z" fill="#920000"/><path d="m25 13.8-.41-.5 1.53.16.28.43-1.4-.1Z" fill="#BF0000"/><path d="m24.44 13.22-.13-.12 1.57.12.1.12-1.54-.12Z" fill="#B00"/><path d="m25.62 14.64-.51-.77 1.37.18.32.65-1.18-.06Z" fill="#CD0000"/><path d="m26.56 13.91-.27-.41 1.86.41.1.4-1.69-.4Z" fill="#D60000"/><path d="m26.92 14.72-.31-.7 1.72.37.16.67-1.57-.34Z" fill="#E40000"/><path d="m28.52 15.2-1.57-.35.32.96 1.37.27-.12-.88Z" fill="#FF1300"/><path d="m26.86 14.84-1.21-.1.45 1.02 1.03.04-.27-.96Z" fill="#E80000"/><path d="m25.57 14.73-.86.13.64 1.02.64-.13-.42-1.02Z" fill="#D60000"/><path d="m24.62 14.86-.48.32.76 1.04.36-.28-.64-1.08Z" fill="#C80000"/><path d="m23.88 15.74.2-.49.77 1.06-.06.5-.91-1.07Z" fill="#B00"/><path d="M23.89 16.48v-.63l.9 1.08.07.6-.97-1.05ZM23.98 17.43l-.1-.79 1 1.03.1.82-1-1.06ZM24.1 18.6l-.08-.95.98.97.12 1.02-1.02-1.05Z" fill="#B20000"/><path d="m24.26 19.83-.12-1.04 1 1 .14 1.11-1.02-1.07Z" fill="#B00"/><path d="m24.4 21.15-.1-1.13 1 1.01.08 1.11-.98-.99Z" fill="#C40000"/><path d="M23.3 21.62v-1.14l1.02.72.04 1.18-1.07-.76Z" fill="#B60000"/><path d="M22.17 22.41v-1.15l1.02.42-.04 1.17-.98-.44Z" fill="#B00"/><path d="m23.24 22.85.09-1.1 1 .72-.13 1.1-.96-.72Z" fill="#C80000"/><path d="m24.3 23.65.1-1.07.95.95-.13 1.07-.92-.95Z" fill="#E40000"/><path d="m20 22.37-.08-1.19 1.04-.14v1.2l-.96.13Z" fill="#C40000"/><path d="m18.99 22.76-.08-1.14.93-.4.05 1.15-.9.4Z" fill="#DA0000"/><path d="m18.05 23.46-.12-1.07.86-.7.06 1.13-.8.64Z" fill="#FF1300"/><path d="m17.23 24.43-.17-1.04.76-.9.13 1.06-.72.88Z" fill="#FF3B00"/><path d="m16.85 22.14.17 1.1.79-.89-.2-1.13-.76.92Z" fill="#FF3000"/><path d="m17.9 22.23-.2-1.1.9-.71.18 1.15-.88.66Z" fill="#F10800"/><path d="m19.69 19.91-1.03.45.23 1.16.95-.41-.15-1.2Z" fill="#C80000"/><path d="m18.66 20.23-.21-1.18 1.02-.44.19 1.2-1 .42Z" fill="#B00"/><path d="m18.44 18.93-.23-1.15 1.03-.44.2 1.14-1 .45Z" fill="#AD0000"/><path d="m18.18 17.7-.09-1.03.98-.47.11 1.03-1 .47Z" fill="#A80000"/><path d="m18.1 16.55.1-.96 1-.46-.13.94-.97.48Z" fill="#A40000"/><path d="m18.74 14.66-.47.79.98-.45.37-.73-.88.4Z" fill="#A80000"/><path d="m19.71 14.15-.3.11.26-.23.4-.19-.36.3Z" fill="#8D0000"/><path d="m18.14 15.5.37-.57-.6.52-.38.57.6-.51ZM17.99 16.57l.15-.92-.89.73-.2.95.94-.76ZM18.1 17.78l-.13-1.06-.9.72.12 1.08.9-.74Z" fill="#D10000"/><path d="m18.32 19.04-.2-1.21-.87.8.19 1.1.88-.7Z" fill="#D60000"/><path d="m18.58 20.29-.25-1.2-.87.75.2 1.19.92-.74Z" fill="#DF0000"/><path d="m16.83 22.03-.27-1.16.8-.92.22 1.07-.75 1.01Z" fill="#FF2500"/><path d="m17.33 19.82-.22-1.13-.78 1.01.18 1.07.82-.95Z" fill="#FF1E00"/><path d="m17.07 18.59-.08-1.05-.8 1 .1 1 .78-.95Z" fill="#FF1A00"/><path d="m16.98 17.37.16-.86-.77 1.02-.16.83.77-.99Z" fill="#FF1600"/><path d="m16.22 19.73-.16-1.04-.64 1.19.1 1 .7-1.15Z" fill="#FF4E00"/><path d="m16.44 20.93-.22-1.05-.63 1.16.17 1.03.68-1.14Z" fill="#FF5200"/><path d="m16.72 22.16-.23-1.08-.64 1.14.19 1.1.68-1.16Z" fill="#FF5900"/><path d="m16.97 23.37-.2-1.03-.64 1.1.15 1.07.7-1.14Z" fill="#FF6000"/><path d="m17.14 24.55-.16-1-.6 1.09.14 1.02.62-1.1Z" fill="#FF6C00"/><path d="m15.33 20.02.04-.32-.39 1.08.35-.76ZM15.45 21.04l-.1-.95-.47 1.35.03 1.07.54-1.47Z" fill="#FF8D00"/><path d="m15.7 22.24-.21-1-.53 1.38.2 1.04.55-1.42Z" fill="#FF9100"/><path d="m16 23.47-.27-1.01-.5 1.31.26 1.08.52-1.38ZM16.3 24.68l-.24-1.02-.53 1.3.23 1.04.53-1.32Z" fill="#FF9400"/><path d="m16.47 25.82-.17-.96-.5 1.25.18.95.49-1.24Z" fill="#FFA300"/><path d="m14.86 22.67-.07-.76-.39 1.5.13.77.33-1.5Z" fill="#FFD000"/><path d="m15.12 23.87-.21-.99-.37 1.5.21.98.37-1.5Z" fill="#FFD300"/><path d="m15.44 25-.26-.97-.36 1.48.26 1.01.36-1.52Z" fill="gold"/><path d="m15.7 26.15-.24-.94-.32 1.42.22.98.34-1.46Z" fill="#FFDB00"/><path d="m15.91 27.22-.15-.87-.35 1.38.18.86.32-1.37Z" fill="#FFE200"/><path d="m14.5 24.5-.14-.73-.2 1.45.09.73.24-1.45ZM14.75 25.58l-.25-.92-.21 1.53.23.94.23-1.55Z" fill="#D7FF1F"/><path d="m15.04 26.67-.25-.9-.24 1.58.27.87.22-1.55Z" fill="#D4FF23"/><path d="m15.32 27.81-.24-.9-.2 1.56.26.87.18-1.53Z" fill="#D1FF26"/><path d="m15.57 28.76-.2-.7-.2 1.38.2.72.2-1.4Z" fill="#CEFF29"/><path d="m14.27 26.34-.1-.52-.04 1.25.1.36.04-1.1ZM14.53 27.5l-.22-.84-.04 1.77.2.57.06-1.5ZM14.83 28.46l-.27-.75-.05 1.43.32 1.04v-1.72Z" fill="#97FF60"/><path d="m15.1 29.49-.24-.63v1.51l.21.74.04-1.62ZM15.38 30.48l-.2-.59-.05 1.41.14.57.1-1.4Z" fill="#94FF63"/><path d="m24.08 24.76.22-.98.92.92-.26 1-.88-.94Z" fill="#FA0F00"/><path d="m24.24 23.7-1-.7L23.1 24l.95.72.2-1.04Z" fill="#DF0000"/><path d="m23.97 24.85-.95-.68-.22.92.87.63.3-.87Z" fill="#FA0F00"/><path d="m21.83 24.64.17-.93.95.39-.24.93-.88-.39Z" fill="#ED0400"/><path d="m20.83 24.48.13-.94.96.12-.18.98-.9-.16Z" fill="#E80000"/><path d="m20.86 23.53-.92.1-.07.96.9-.08.09-.98Z" fill="#F10800"/><path d="m19.84 23.65-.86.37-.03.93.83-.33.06-.97Z" fill="#FF1A00"/><path d="m22.03 23.55.13-1.04 1 .41-.18 1.05-.95-.42Z" fill="#D10000"/><path d="m20.98 23.41.08-1.1 1 .18-.15 1.1-.93-.18Z" fill="#CD0000"/><path d="m20.96 22.33-.96.12-.06 1.09.95-.11.07-1.1Z" fill="#DA0000"/><path d="m19.89 22.47-.9.43v.98l.9-.36v-1.05Z" fill="#F10800"/><path d="m18.11 24.58-.03-1.02.81-.63v1.05l-.78.6Z" fill="#FF2500"/><path d="m17.33 25.48-.06-.94.71-.86.03 1-.68.8Z" fill="#FF4A00"/><path d="m17.24 25.6-.07-.9-.61 1.03.1.89.58-1.01Z" fill="#FF7A00"/><path d="m16.6 26.76-.13-.81-.45 1.2.14.76.44-1.15Z" fill="#FFAE00"/><path d="m18.17 25.6-.06-.89.76-.61v.93l-.7.57Z" fill="#FF3800"/><path d="m18.06 25.67-.05-.85-.65.8.04.81.66-.76Z" fill="#FF5D00"/><path d="m17.33 26.55-.07-.77-.55 1 .05.71.57-.94Z" fill="#FF8600"/><path d="m16.69 27.67-.09-.71-.43 1.06.09.76.43-1.1Z" fill="#FFB900"/><path d="m16.2 28.96-.09-.61-.31 1.09.11.67.3-1.15Z" fill="#FBF100"/><path d="m15.42 30.4.18-1.37.14.62-.2 1.33-.12-.57Z" fill="#CEFF29"/><path d="m15.88 30.28-.12-.45-.18 1.18.12.58.18-1.31Z" fill="#C7FF30"/><path d="M15.54 31.43c-.02-.2-.07-.58-.1-.59l-.12 1.27.17.45.05-1.13ZM15.72 31.95l-.14-.35-.06 1.1.14.41.06-1.16ZM15.87 32.35l-.12-.22-.06 1.19.13.29.05-1.26Z" fill="#94FF63"/><path d="m15.88 33.74.07-1.27.2.15-.06 1.29-.2-.17ZM16.2 33.94l.05-1.25.36.12-.04 1.21-.38-.08Z" fill="#8DFF6A"/><path d="m15.75 31.76.15-1.2.13.35-.17 1.24-.1-.4Z" fill="#C1FF36"/><path d="m16.3 31.31-.22-.27-.16 1.21.26.24.12-1.18Z" fill="#BEFF39"/><path d="m16.08 30.75-.15-.52.3-1.11.12.44-.27 1.19Z" fill="#F4F802"/><path d="m16.41 29.42-.12-.55.43-1.07.09.55-.4 1.07Z" fill="#FFC400"/><path d="m17.29 26.75-.53.94.12.55.5-.92-.1-.57Z" fill="#FF9800"/><path d="m18.04 25.83-.65.76.08.62.59-.72-.02-.66Z" fill="#FF6F00"/><path d="m18.86 25.17-.72.56.03.73.69-.53v-.76Z" fill="#FF4A00"/><path d="m16.25 32.6.13-1.22.37.22-.1 1.16-.4-.17Z" fill="#B7FF40"/><path d="m16.62 30.1-.2-.38-.3 1.2.22.3.28-1.12Z" fill="#EBFF0C"/><path d="m16.63 29.96-.18-.4.37-1.03.22.44-.4.99Z" fill="#FFD300"/><path d="m17.08 28.9-.2-.49.51-.91.15.55-.46.84Z" fill="#FFA700"/><path d="m14.53 29.64-.16-.64.07 1.22.09.37v-.95ZM14.8 30.48l-.22-.63.05 1.15.23.86-.06-1.38ZM15.1 31.47l-.24-.68.08 1.3.21.7-.06-1.32ZM15.32 32.29l-.14-.46.06 1.18.18.63-.1-1.35ZM15.55 33.12l-.13-.44.03 1 .1.53v-1.1ZM15.7 33.61l-.11-.28.05.9.11.56-.04-1.18ZM15.86 33.86l-.1-.17.07 1.27.1.19-.07-1.3ZM16.13 34.05l-.22-.13.06 1.29.23.12-.07-1.28ZM16.56 34.12l-.36-.07.08 1.29h.36l-.08-1.22Z" fill="#56FFA0"/><path d="m15.82 35.22-.97-3.08.2 1.3.52 1.7.55 1.59-.16-1.34-.14-.17Z" fill="#36FFC1"/><path d="m16.23 35.45-.23-.08.21 1.38h.19l-.17-1.3Z" fill="#30FFC7"/><path d="m16.5 38.2-.41-1.46.14.12.34 1.35h-.07ZM16.45 36.85h-.19l.35 1.32.16-.06-.32-1.26Z" fill="#02E8F4"/><path d="m17.1 39.48-.49-1.21.18-.1.44 1.18s-.09.1-.14.13Z" fill="#00B5FF"/><path d="m17.69 40.75-.58-1.16.18-.14.52 1.09-.12.21Z" fill="#0087FF"/><path d="m18.35 41.82-.62-.97.12-.2.6.9-.1.27Z" fill="#005EFF"/><path d="m19.17 42.43-.65-.75-.08.27.7.81.03-.33Z" fill="#0040FF"/><path d="m19.22 42.86.04-.36.72.61-.01.41-.75-.66Z" fill="#0028FF"/><path d="M20.04 43.58v-.42l.74.42.05.42-.79-.42ZM20.12 43.83l-.05-.17.76.43.04.2-.75-.46Z" fill="#0018FF"/><path d="m21.01 44.34-.06-.17.83.27.13.25-.9-.35ZM22.03 44.74l-.16-.3.73.04.27.29-.84-.03Z" fill="#00F"/><path d="m22.97 44.74-.23-.3.73-.17.3.3-.8.17Z" fill="#0008FF"/><path d="m24.15 44.66-.2-.1.76-.41.2.1-.76.4Z" fill="#001AFF"/><path d="m23.87 44.53-.3-.3.72-.36.34.25-.76.41Z" fill="#0008FF"/><path d="m25.04 44.23-.23-.15.67-.6.38.03-.82.72Z" fill="#001AFF"/><path d="m20.93 44.05-.04-.44.71.25.12.46-.8-.27ZM21.83 44.37l-.1-.48.69.04.17.44h-.76ZM22.7 44.37l-.2-.46.72-.17.22.46-.74.17ZM23.55 44.15l-.25-.44.68-.34.27.41-.7.37Z" fill="#0018FF"/><path d="m24.33 43.74-.28-.4.6-.57.34.4-.66.57Z" fill="#0054FF"/><path d="m24.71 44.06-.31-.25.64-.6.37.22-.7.63Z" fill="#0040FF"/><path d="m16.85 38.05-.35-1.23.35-.16.35 1.2-.35.19Z" fill="#0CF4EB"/><path d="m17.29 39.32-.42-1.16.32-.18.4 1.03-.3.3Z" fill="#00C4FF"/><path d="m17.86 40.45-.5-1.03.3-.28.48.94-.28.37Z" fill="#009CFF"/><path d="m18.5 41.45-.6-.88.28-.37.54.83-.23.42Z" fill="#0074FF"/><path d="m19.2 42.29-.63-.7.2-.46.62.7-.19.46Z" fill="#0058FF"/><path d="m19.95 43-.65-.6.17-.46.64.52-.16.54Z" fill="#0040FF"/><path d="m20.05 43.06.17-.52.64.38-.08.58-.73-.44Z" fill="#0034FF"/><path d="m21.61 43.18-.65-.22-.07.58.7.24.02-.6Z" fill="#002CFF"/><path d="m21.67 43.82.04-.62.67.03.03.59h-.74Z" fill="#0030FF"/><path d="m22.51 43.82-.05-.6.66-.16.07.6-.68.16Z" fill="#003CFF"/><path d="m23.29 43.62-.06-.59.58-.33.11.58-.63.34Z" fill="#0050FF"/><path d="m24.02 43.2-.13-.53.56-.5.16.52-.59.52Z" fill="#006CFF"/><path d="m25.91 43.46-.34-.07.62-.8h.36l-.64.87Z" fill="#0054FF"/><path d="m26.64 42.58-.57.78.72-.83-.15.05Z" fill="#001AFF"/><path d="m25.49 43.37-.36-.2.59-.8.41.18-.64.82Z" fill="#0068FF"/><path d="m25.04 43.08-.33-.38.57-.72.34.33-.58.77Z" fill="#007CFF"/><path d="m24.69 42.6-.18-.53.5-.6.2.44-.52.7Z" fill="#0090FF"/><path d="m24.48 41.48-.5.42-.1.66.55-.5.05-.58Z" fill="#0080FF"/><path d="m23.2 42.95.17-.75.55-.25-.11.68-.6.32Z" fill="#0068FF"/><path d="m22.48 43.12.21-.7.58-.17-.18.72-.61.15Z" fill="#0054FF"/><path d="m22.37 43.12-.66-.02.28-.72.6.02-.22.72Z" fill="#004CFF"/><path d="m21.65 43.07-.7-.22.33-.7.64.22-.27.7Z" fill="#0048FF"/><path d="m20.9 42.85-.67-.43.41-.63.56.31-.3.75Z" fill="#004CFF"/><path d="m20.14 42.37-.61-.55.42-.6.6.5-.4.65Z" fill="#005CFF"/><path d="m19.42 41.75-.57-.7.49-.55.53.61-.45.64Z" fill="#0070FF"/><path d="m18.23 39.98-.52-.93.56-.42.44.92-.48.43Z" fill="#00ACFF"/><path d="m17.7 38.96-.4-1.04.55-.35.37 1-.53.39Z" fill="#00D4FF"/><path d="m17.26 37.79-.32-1.13.6-.23.28 1.04-.56.32Z" fill="#16FFE1"/><path d="m16.95 36.57-.21-1.16.62-.16.16 1.1-.57.22Z" fill="#3CFFBA"/><path d="m16.74 35.32-.1-1.2.64-.06.05 1.12-.59.14Z" fill="#63FF94"/><path d="m16.67 34 .02-1.16.61.02-.02 1.1-.61.05Z" fill="#8DFF6A"/><path d="m16.73 32.74.1-1.1.62.11-.15 1.05-.57-.06Z" fill="#B4FF43"/><path d="m16.4 31.25.27-1.07.36.28-.27 1.06-.35-.27Z" fill="#E1FF16"/><path d="m17.04 30.36-.33-.31.38-1 .32.39-.37.92Z" fill="#FFDE00"/><path d="m16.87 31.55.22-1.04.62.22-.26.96-.58-.14Z" fill="#DBFF1C"/><path d="m17.49 29.51-.35.91.58.21.36-.81-.6-.3Z" fill="#FEED00"/><path d="m17.44 29.36-.33-.4.46-.81.33.44-.46.77Z" fill="#FFB600"/><path d="m17.6 27.95-.13-.56.6-.72.14.6-.6.68Z" fill="#FF8200"/><path d="m17.96 28.52-.34-.48.6-.66.27.5-.53.64Z" fill="#FF9400"/><path d="m18.55 27.83-.25-.53.63-.48.21.56-.6.45Z" fill="#F70"/><path d="m18.28 27.2-.12-.64.68-.5.03.65-.6.49Z" fill="#FF6000"/><path d="m19 26.67-.07-.67.73-.3.04.65-.7.32Z" fill="#FF4A00"/><path d="m19.2 27.33-.17-.57.68-.25.15.54-.66.28Z" fill="#FF6000"/><path d="m18.1 29.71-.58-.3.42-.74.56.35-.4.7Z" fill="#FFC800"/><path d="M18.57 28.95 18 28.6l.54-.62.5.4-.47.58Z" fill="#FFA700"/><path d="m19.2 27.47-.59.44.47.39.57-.39-.44-.44Z" fill="#FF8D00"/><path d="m19.76 27.84-.44-.41.58-.29.4.46-.54.24Z" fill="#F70"/><path d="m18.93 25.87.03-.85.77-.28-.03.83-.77.3Z" fill="#FF3000"/><path d="m20.7 24.64-.85.07-.05.83.82-.08.08-.82Z" fill="#F20"/><path d="M19.8 26.37v-.72l.75-.11v.73l-.75.1Z" fill="#FF3800"/><path d="m19.95 27.01-.17-.54.75-.09.1.57-.68.06Z" fill="#FF5200"/><path d="m20.4 27.6-.4-.5.69-.06.3.46-.59.1Z" fill="#FF6C00"/><path d="m21.44 27.17-.62-.1.26.42.6.11-.24-.43Z" fill="#FF6400"/><path d="m20.72 26.94-.08-.56.74.11.03.58-.69-.13Z" fill="#FF4A00"/><path d="M20.65 26.28v-.73l.83.13-.1.71-.73-.11Z" fill="#FF3000"/><path d="m20.71 25.45.12-.85.86.14-.22.86-.76-.15ZM21.62 25.61l.2-.83.86.38-.26.8-.8-.35Z" fill="#FF1A00"/><path d="m21.49 26.42.12-.7.79.33-.15.69-.76-.32Z" fill="#FF3400"/><path d="m21.53 27.1-.05-.57.73.3.03.56-.71-.3Z" fill="#FF4A00"/><path d="m21.8 27.6-.22-.4.65.31.15.37-.59-.27ZM22.99 28.07l-.6-.46.16.32.55.42-.11-.28Z" fill="#FF6400"/><path d="m22.34 26.8.17-.66.78.59-.21.62-.74-.55Z" fill="#FF3B00"/><path d="m22.53 26.02.25-.81.82.58-.27.8-.8-.57Z" fill="#FF2500"/><path d="m23.44 26.67.29-.78.8.82-.35.76-.74-.8Z" fill="#FF3800"/><path d="m23.15 27.44.24-.66.75.77-.26.57-.73-.68Z" fill="#FF4E00"/><path d="m23.06 28.03.07-.52.66.7-.09.48-.64-.66Z" fill="#FF6800"/><path d="m23.2 28.4-.05-.21.54.61.04.2-.54-.6Z" fill="#FF6400"/><path d="m21.8 27.72.45.3-.52-.12-.42-.25.5.07Z" fill="#FF7A00"/><path d="m21.06 27.6-.49.06.63.34.51-.04-.65-.37Z" fill="#FF8200"/><path d="m20.37 27.7-.56.2.79.33.46-.18-.69-.35Z" fill="#FF8D00"/><path d="m19.71 27.97-.53.39.81.31.5-.36-.78-.34Z" fill="#FF9F00"/><path d="m19.92 28.73-.8-.3-.47.54.84.26.43-.5Z" fill="#FFB900"/><path d="m19.46 29.32-.87-.25-.4.68.88.21.39-.64Z" fill="gold"/><path d="m17.82 30.67.36-.83.86.19-.3.77-.92-.13Z" fill="#F4F802"/><path d="m18.74 30.9-.98-.13-.2.92.92.03.26-.83Z" fill="#D1FF26"/><path d="m17.43 32.8.11-1.04.96.04-.12 1h-.95Z" fill="#ADFF49"/><path d="m17.38 33.97.04-1.08.93-.04-.04.99-.93.13Z" fill="#8AFF6D"/><path d="M17.44 35.13c0-.36-.03-1.07-.06-1.09l.96-.15.05.99-.95.25Z" fill="#66FF90"/><path d="m17.64 36.3-.18-1.08.95-.23.18.96-.95.36Z" fill="#40FFB7"/><path d="m17.93 37.42-.25-1.01.9-.35.28.93-.93.43Z" fill="#1FFFD7"/><path d="m18.3 38.53-.35-1.02.9-.4.36.85-.91.57Z" fill="#00E4F8"/><path d="m18.79 39.49-.46-.9.9-.52.4.82-.84.6Z" fill="#00C0FF"/><path d="m18.78 40.98-.52-.86.47-.47.53.75-.48.58Z" fill="#008CFF"/><path d="m19.34 40.31-.49-.76.8-.57.48.7-.79.63Z" fill="#00A0FF"/><path d="m20.56 41.64-.57-.51.76-.7.53.44-.72.77Z" fill="#0074FF"/><path d="m21.26 42-.62-.3c.22-.25.66-.76.69-.76.03 0 .4.2.58.3l-.65.77Z" fill="#0068FF"/><path d="m21.35 42.08.65-.82.53.21-.53.82-.65-.21ZM22.6 42.33l-.52-.04.55-.81h.53l-.55.85Z" fill="#0064FF"/><path d="m23.33 42.12-.58.17.5-.8.5-.08-.42.71Z" fill="#0070FF"/><path d="m23.47 42.09.42-.76.45-.23-.4.74-.47.25Z" fill="#0080FF"/><path d="m24.9 40.8-.48.29-.3.58.35-.31.43-.56Z" fill="#0098FF"/><path d="m22.8 28.28.21.09-.35-.02.13-.07Z" fill="#FFB900"/><path d="m21.78 28.01.88.24-.26.05-1.09-.24.47-.05Z" fill="#FF9B00"/><path d="m21.79 28.52-1.07-.25.47-.17 1 .24-.4.18Z" fill="#FFA300"/><path d="m20.57 28.35-.41.31 1.13.23.36-.29-1.08-.25Z" fill="#FFB600"/><path d="m20.05 28.77-.4.49 1.2.15.36-.44-1.16-.2Z" fill="#FC0"/><path d="m20.77 29.52-1.23-.16-.33.6 1.25.12.31-.56Z" fill="#FFE600"/><path d="m18.85 30.83.3-.78 1.25.09-.28.72-1.27-.03Z" fill="#E7FF0F"/><path d="M18.6 31.72c.08-.27.22-.8.2-.83l1.28.04-.15.79h-1.32Z" fill="#CAFF2C"/><path d="m18.44 32.78.15-.96 1.33-.03-.14.83-1.34.16Z" fill="#AAFF4D"/><path d="M18.44 33.8v-.94l1.32-.15v.85l-1.32.25Z" fill="#8AFF6D"/><path d="m18.5 34.87-.06-.99 1.34-.23.03.89-1.3.33Z" fill="#66FF90"/><path d="m18.7 35.9-.22-.93 1.33-.35.16.86-1.27.42Z" fill="#40FFB7"/><path d="m18.93 36.94-.25-.9 1.3-.4.23.85-1.28.45Z" fill="#1FFFD7"/><path d="m19.3 37.95-.34-.9 1.26-.46.33.77-1.25.59Z" fill="#09F0EE"/><path d="m19.72 38.82-.38-.78 1.22-.56.36.7-1.2.64Z" fill="#00D0FF"/><path d="m20.2 39.63-.44-.68 1.18-.68.43.64-1.17.72Z" fill="#00B4FF"/><path d="m20.74 40.28-.48-.57 1.14-.74.48.56-1.14.75Z" fill="#009CFF"/><path d="m21.98 41.19-.54-.34 1.04-.79.5.28-1 .85Z" fill="#0080FF"/><path d="m22.6 41.4-.53-.18 1-.85.5.16-.97.86ZM23.25 41.4h-.55l.95-.83h.47l-.87.82Z" fill="#007CFF"/><path d="m23.79 41.33-.4.07.83-.82.44-.07-.87.82ZM24.83 40.41l-.73.73.38-.2.65-.7-.3.17Z" fill="#08F"/><path d="m25.3 40.12-.68.76.39-.21.3-.55Z" fill="#00AFFF"/><path d="m24.8 40.38-.3.07.96-.69-.15.25-.52.37Z" fill="#08F"/><path d="M24.23 40.5h-.45l1.32-.84.24.1-1.11.74ZM23.65 40.48l-.5-.16 1.41-.84.4.14-1.31.86ZM23.06 40.27l-.45-.27 1.42-.8.44.26-1.4.81Z" fill="#0094FF"/><path d="m22.5 39.96-.46-.39 1.46-.8.48.37-1.48.82Z" fill="#00A0FF"/><path d="m21.96 39.47-.47-.54 1.55-.71.42.5-1.5.75Z" fill="#00B0FF"/><path d="m21.46 38.86-.42-.63 1.57-.64.35.54-1.5.73Z" fill="#00C4FF"/><path d="m21.02 38.13-.38-.68 1.62-.6.3.63-1.54.65Z" fill="#00E0FB"/><path d="m20.65 37.34-.32-.77 1.6-.56.3.72-1.58.61Z" fill="#13FCE4"/><path d="m20.32 36.44-.24-.84 1.66-.45.2.79-1.62.5Z" fill="#30FFC7"/><path d="m20.07 35.46-.15-.84 1.7-.38.13.82-1.68.4Z" fill="#49FFAD"/><path d="m19.94 34.51-.06-.88 1.67-.27.04.8-1.65.35Z" fill="#6AFF8D"/><path d="m19.9 33.53-.03-.83 1.7-.21v.77l-1.67.27Z" fill="#87FF70"/><path d="m19.9 32.61.13-.85 1.64-.1-.12.73-1.65.22Z" fill="#A7FF50"/><path d="m20.21 30.91-.18.78 1.68-.14.2-.69-1.7.05Z" fill="#C4FF33"/><path d="m20.26 30.83.25-.68h1.67l-.28.65-1.64.03Z" fill="#DEFF19"/><path d="m20.89 29.54-.3.54h1.6l.32-.5-1.62-.04Z" fill="#F8F500"/><path d="m21.31 29-.34.44 1.6.07.35-.42-1.6-.1Z" fill="#FFDB00"/><path d="m21.8 28.63-.32.27 1.5.14.32-.3-1.5-.1Z" fill="#FFC800"/><path d="m23.45 28.78-.32.26.54-.04-.22-.22Z" fill="#FFDB00"/><path d="m22.7 29.5.33-.4.75.02.25.38H22.7Z" fill="#FFEA00"/><path d="m22.3 30.11.3-.54h1.51l.28.32-.11.13-1.98.1Z" fill="#EEFF09"/><path d="m21.98 30.8.3-.64 1.99-.06-.26.57-2.03.13Z" fill="#D7FF1F"/><path d="m21.83 31.56.17-.7 1.99-.12-.12.63-2.04.19Z" fill="#BEFF39"/><path d="m21.7 32.37.1-.72 2.02-.21-.06.67-2.05.26Z" fill="#A4FF53"/><path d="M21.69 33.24v-.74l2.02-.3v.7l-2.02.34Z" fill="#87FF70"/><path d="m21.72 34.15-.04-.8 2.04-.34.04.74-2.04.4Z" fill="#6AFF8D"/><path d="m21.86 35.01-.15-.77 2.04-.4.1.7-1.99.47Z" fill="#50FFA7"/><path d="m22.04 35.88-.17-.74 2-.5.19.7-2.02.54Z" fill="#36FFC1"/><path d="m22.34 36.71-.26-.72 1.97-.56.28.66-1.99.62Z" fill="#1CFFDB"/><path d="m22.7 37.43-.31-.64 1.94-.6.3.6-1.92.64Z" fill="#06ECF1"/><path d="m23.13 38.09-.37-.54 1.89-.68.35.51-1.87.7Z" fill="#00D4FF"/><path d="m23.59 38.65-.4-.46 1.88-.72.36.43-1.84.75Z" fill="#00C0FF"/><path d="m24.08 39.1-.46-.37 1.83-.77.4.38-1.77.76Z" fill="#00B4FF"/><path d="m24.63 39.43-.46-.27 1.72-.76-.16.47-1.1.56ZM25.12 39.55l-.42-.09 1-.46-.1.32-.48.23Z" fill="#00A8FF"/><path d="m25.46 39.72-.24-.11.33-.17-.1.28Z" fill="#00ADFF"/><path d="m23.97 31.36.15-.63.66-.04.26.54-1.07.13Z" fill="#B7FF40"/><path d="m23.84 32.1.13-.7 1.1-.1.31.65-1.54.16Z" fill="#A0FF56"/><path d="m23.8 32.92.05-.72 1.54-.2.23.63-1.81.29Z" fill="#87FF70"/><path d="m23.85 33.73-.03-.72 1.77-.3.2.67-1.94.35Z" fill="#6DFF8A"/><path d="m23.94 34.5-.1-.66 1.95-.4.13.68-1.98.39Z" fill="#53FFA4"/><path d="m24.17 35.31-.2-.65 1.95-.44.07.69-1.82.4Z" fill="#39FFBE"/><path d="m24.44 36.07-.26-.65L26 35l.08.63-1.64.45Z" fill="#23FFD4"/><path d="m24.71 36.76-.25-.58 1.62-.45v.68l-1.37.35Z" fill="#0FF8E7"/><path d="m25.11 37.36-.35-.5 1.32-.4-.02.63-.95.27Z" fill="#00E0FB"/><path d="m25.52 37.87-.37-.43.88-.26-.05.52-.46.17ZM25.94 38.21l-.32-.27.34-.14-.02.41Z" fill="#00D0FF"/><path d="m25.49 40.27-.04-.46.28-.7.05.37-.3.8Z" fill="#00F9F0"/><path d="m25.8 39 .2-.7.04.06-.18.91-.07-.28Z" fill="#29FFCE"/><path d="m26.07 38.25-.07-.07.1-1.23.08.05-.1 1.25Z" fill="#53FFA4"/><path d="m24.96 30.61-.54-.97.17-.32.57.98-.2.31Z" fill="#FF9F00"/><path d="m25.44 31.82-.47-1.11.24-.24.47 1.1-.24.25Z" fill="#FFC400"/><path d="m25.82 33.08-.35-1.2.26-.19.36 1.22-.27.17Z" fill="#FEED00"/><path d="m26.1 34.38-.24-1.23.23-.11.31 1.27-.3.07Z" fill="#D7FF1F"/><path d="M26.21 36.99V35.8l.29.06.06 1.32-.35-.2Z" fill="#80FF77"/><path d="m26.12 38.27.13-1.19.26.16-.07 1.28-.32-.25Z" fill="#53FFA4"/><path d="m25.9 39.4.22-1.02.26.2-.23 1.12-.25-.3Z" fill="#29FFCE"/><path d="m26.14 39.85-.28-.32-.34.89.22.4.4-.97Z" fill="#02E8F4"/><path d="m25.28 41.84-.22-.51.41-.76.24.35-.43.92Z" fill="#00B8FF"/><path d="m26.2 41.2-.38-.3.38-1 .39.2-.39 1.1Z" fill="#00D8FF"/><path d="m26.18 41.3-.38-.27-.46.87.35.35.49-.96Z" fill="#00A8FF"/><path d="m26.7 41.44-.44-.1-.48.97.4.17.53-1.04Z" fill="#0098FF"/><path d="m27.2 41.42-.42.04-.53 1.04h.39l.57-1.08Z" fill="#08F"/><path d="m27.46 41.29-.21.14-.57 1.07.13-.02.65-1.2Z" fill="#001AFF"/><path d="m26.72 41.36-.43-.13.39-1.08.5.02-.46 1.19Z" fill="#0CF"/><path d="m27.2 41.3-.35.06.4-1.22.42-.1-.46 1.27ZM27.78 40.01l-.45 1.26c.1-.12.31-.37.33-.37l.45-1.16-.33.27Z" fill="#00C4FF"/><path d="m26.25 39.79.23-1.18.4.14-.26 1.26-.37-.22Z" fill="#23FFD4"/><path d="M26.98 38.78 26.72 40l.47.04.27-1.29-.48.03Z" fill="#1CFFDB"/><path d="m27.3 40.06.28-1.33.46-.2-.32 1.37-.43.16ZM27.83 39.84l.27-1.34.34-.34-.34 1.43-.27.25Z" fill="#16FFE1"/><path d="m26.9 38.65-.38-.14.05-1.24.46.03-.13 1.35Z" fill="#50FFA7"/><path d="m27.61 37.2-.49.14-.12 1.31.5.04.11-1.5ZM27.6 38.63l.13-1.48.44-.25-.12 1.5-.45.23ZM28.6 37.8l-.46.5.14-1.48.37-.43.21-.44-.1 1.5-.16.36Z" fill="#4DFFAA"/><path d="m28.2 35.2-.49.33v1.5l.45-.27.04-1.57ZM28.62 34.64l-.36.49v1.59l.38-.48-.02-1.6ZM28.73 34.46l-.03 1.6.24-.52v-1.6l-.21.52Z" fill="#80FF77"/><path d="M24.93 28.6c-.23-.3-.7-.93-.7-.95l-.28.54.63.93.35-.52Z" fill="#FF6800"/><path d="m24.98 28.5-.71-.95.34-.72.76 1.03-.4.64Z" fill="#F50"/><path d="m25.4 27.76-.73-1.04.31-.85.8 1.1-.37.79Z" fill="#FF4300"/><path d="m25.84 26.87-.78-1.09.23-.96.82 1.13-.27.92Z" fill="#FF3000"/><path d="m26.16 25.88-.85-1.2.14-1.03.86 1.17-.15 1.06Z" fill="#FF1E00"/><path d="m25.47 23.53.02-1.1.9 1.25-.08 1.06-.84-1.21Z" fill="#FF1300"/><path d="m26.35 23.46-.88-1.19-.04-1.02.89 1.18.03 1.03Z" fill="#F10800"/><path d="M25.37 21.01 25.25 20l.91 1.22.1 1.01-.9-1.2Z" fill="#E40000"/><path d="m26.12 21-.92-1.25-.07-.94.92 1.24.07.96ZM25.1 18.63l-.11-.75.86 1.18.13.78-.88-1.21ZM25.76 18.8l-.81-1.21-.07-.49.73 1.22.15.48Z" fill="#DF0000"/><path d="m24.93 16.49-.05.48.74 1.19v-.4l-.7-1.27Z" fill="#E80000"/><path d="m25.31 16.04-.35.32.7 1.26.19-.29-.54-1.29Z" fill="#F10800"/><path d="m26.06 15.88-.66.1.53 1.28.53-.18-.4-1.2Z" fill="#FF1300"/><path d="m26.36 19.66-.61-1.64.14.94.47.7Z" fill="#EE3400"/><path d="m26.88 21.36-.84-1.9.04.55.8 1.35Z" fill="#FF2000"/><path d="m26.26 21.29-.11-1 .76 1.41.06.81-.71-1.22Z" fill="#FF2900"/><path d="m26.36 22.35-.07-.86.74 1.33.06.9-.73-1.37Z" fill="#FF2D00"/><path d="m27.18 24.08-.78-1.38.05.93.73 1.36v-.91Z" fill="#FF3400"/><path d="m27.2 25.17-.75-1.32-.02 1 .74 1.39.02-1.07Z" fill="#FF3F00"/><path d="m26.24 25.94.19-.89.72 1.33-.16.93-.75-1.37Z" fill="#FF4A00"/><path d="m25.9 26.97.3-.86.73 1.33-.3.85-.74-1.32Z" fill="#FF5900"/><path d="m26.56 28.4-.7-1.31-.4.77.68 1.22.42-.67Z" fill="#FF6800"/><path d="m26.1 29.2-.67-1.22-.4.63.61 1.16.46-.57Z" fill="#FF7A00"/><path d="m25.6 29.83-.6-1.1-.33.46.56 1.04.38-.4Z" fill="#FF8D00"/><path d="m26.23 31.1-.51-1.26.42-.54.57 1.31-.48.5Z" fill="#FFA300"/><path d="m26.76 30.5-.56-1.28.4-.73.6 1.43-.44.59Z" fill="#FF9400"/><path d="m27 27.59-.33.82.57 1.4.38-.71-.61-1.51Z" fill="#FF8900"/><path d="m27.66 28.91-.6-1.45.18-.9.62 1.5-.2.85Z" fill="#FF7E00"/><path d="m27.85 27.86-.6-1.46.08-.91.6 1.43-.08.94Z" fill="#FF7300"/><path d="m27.9 26.67-.58-1.46-.02-.8.6 1.4v.86Z" fill="#FF6C00"/><path d="m27.86 25.47-.6-1.42-.1-.85.59 1.39.1.88Z" fill="#FF6400"/><path d="m27.11 22.88-.08-.85.63 1.53.09.72-.64-1.4Z" fill="#FF6000"/><path d="m26.66 32.55-.4-1.33.48-.47.44 1.42-.52.38Z" fill="#FFD300"/><path d="m27.23 32.15-.4-1.46.4-.61.51 1.51-.5.56Z" fill="#FFC800"/><path d="m27.76 31.5-.45-1.54.35-.77.47 1.59-.37.71Z" fill="#FFC100"/><path d="m28.16 30.66-.44-1.59.2-.81.47 1.6-.23.8Z" fill="#FFB600"/><path d="m28.42 29.66-.47-1.55.07-.85.45 1.53-.05.87Z" fill="#FFAE00"/><path d="M28.04 27.04v-.75l.42 1.4v.76l-.42-1.4ZM27.97 25.82l-.16-1.56.52 2.81-.36-1.25Z" fill="#FFA700"/><path d="m26.48 34.3-.3-1.3.44-.26.26 1.42-.4.13Z" fill="#DEFF19"/><path d="m27 34.11-.28-1.42.47-.38.32 1.5-.52.3Z" fill="#E4FF13"/><path d="m27.58 33.73-.33-1.46.46-.53.32 1.6c-.02-.01-.3.26-.45.4Z" fill="#EBFF0C"/><path d="m28.09 33.2-.3-1.6.37-.66.3 1.7-.37.56Z" fill="#F1FC06"/><path d="m28.5 32.47-.29-1.66.2-.73.38 1.72-.3.67ZM28.5 29.96l.24 1.27.03-1.68-.22-.55-.05.96Z" fill="#F8F500"/><path d="m26.58 35.76-.12-1.35.44-.16.14 1.48-.46.03Z" fill="#B1FF46"/><path d="M27.11 35.68 27 34.21l.52-.32.13 1.56-.53.23Z" fill="#B4FF43"/><path d="m27.58 33.89.14 1.51.5-.36-.14-1.65-.5.5Z" fill="#B7FF40"/><path d="m28.26 34.96-.13-1.67.36-.55.14 1.73-.37.5Z" fill="#BAFF3C"/><path d="m28.69 34.3-.15-1.69.27-.61.12 1.72-.24.57Z" fill="#BEFF39"/><path d="m30.43 14.4-2.27-.66.1.12 2.17.66v-.13ZM32.9 15.27l-2.39-.84v.11l2.36.84.03-.11Z" fill="#F10800"/><path d="M35.47 16.37 33 15.32v.08l2.37 1.08.1-.11Z" fill="#FF3800"/><path d="m37.9 17.59-2.32-1.18-.1.12 2.22 1.14.2-.08Z" fill="#FF4E00"/><path d="m40.17 18.91-2.14-1.27-.26.1 1.92 1.17h.48Z" fill="#FF6700"/><path d="m42.02 20.3-1.7-1.35 1.53 1.35h.17ZM40.23 19l-.46.03 1.59 1.28.36-.03L40.23 19Z" fill="#FF8200"/><path d="m43 21.68-1.04-1.28.32.1 1.04 1.24-.32-.06Z" fill="#FF9C00"/><path d="m42.87 21.63-1.02-1.24h-.4l1.02 1.24h.4Z" fill="#FF9800"/><path d="m43.97 23.12-.46-1.2.4.39.42 1.04-.36-.23ZM44.43 23.38l-.4-.96.29.32.38.91-.27-.27Z" fill="#FFB900"/><path d="m43.5 22.96-.47-1.2.4.12.44 1.2-.37-.12Z" fill="#FFB200"/><path d="m44.24 24.66.2-1.09.3.3-.17 1.1-.33-.3Z" fill="#FFDB00"/><path d="m44.67 25.09.18-1.1.25.55-.12.96-.3-.41Z" fill="#FEED00"/><path d="m43.4 25.75.83-1.01.34.33-.84 1.06-.32-.38Z" fill="#FFE600"/><path d="m43.68 26.24-.35-.38-1.37.91.32.39 1.4-.92Z" fill="#FBF100"/><path d="m40.02 27.6 1.84-.81.33.33-1.9.84-.27-.37Z" fill="#F4F802"/><path d="m38 28.63-.31-.34 2.18-.69.32.38-2.2.65Z" fill="#F1FC06"/><path d="M30.55 15.68v-.57l2.14.77-.11.54-2.03-.74Z" fill="#FF2900"/><path d="m32.72 16.46.12-.54 2.2.96-.22.5-2.1-.92Z" fill="#FF4300"/><path d="M36.96 18.44 34.9 17.4l.24-.47 2.08 1.1-.27.4Z" fill="#FF5900"/><path d="m38.89 19.64-1.8-1.13.26-.42 1.92 1.2-.38.35Z" fill="#FF7300"/><path d="m40.45 20.87-1.47-1.24.33-.3 1.48 1.2-.34.34Z" fill="#FF8900"/><path d="m28.4 14.34-.1-.42 2.1.65.01.37-2.02-.6Z" fill="#F10800"/><path d="M30.52 15v-.38l2.3.83-.09.36-2.2-.8Z" fill="#FF1E00"/><path d="m32.84 15.83.12-.35 2.28 1.04-.17.3-2.23-.99Z" fill="#FF3800"/><path d="m35.16 16.86.23-.28 2.18 1.13-.24.26-2.17-1.11Z" fill="#FF5200"/><path d="m39.6 19-1.92-1.2-.27.22 1.88 1.18.32-.2Z" fill="#FF6C00"/><path d="m40.9 20.5-1.5-1.23.33-.2 1.54 1.26-.37.16Z" fill="#FF8200"/><path d="m42.36 21.65-1.01-1.24-.39.16 1.02 1.21.38-.13Z" fill="#FF9800"/><path d="m41.89 21.83-.99-1.18-.37.32.96 1.1.4-.24Z" fill="#FF9F00"/><path d="m43.36 22.93-.46-1.2h-.39l.49 1.2h.36Z" fill="#FFAB00"/><path d="m42.49 23-.47-1.14.42-.11.45 1.16-.4.1Z" fill="#FFAE00"/><path d="m42.39 23.05-.45-1.13-.4.26.44 1.07.4-.2Z" fill="#FFB200"/><path d="m26.92 18.76-.41.29.41 1.61.31-.26-.3-1.64Z" fill="#FF7300"/><path d="m27.48 22.5-.52-1.75.3-.3.22 2.05Z" fill="#FFAE00"/><path d="m25.73 17.76.18-.3.5 1.46-.11.38-.57-1.54Z" fill="#FF3400"/><path d="m26.97 18.62-.36-1.45h.9l.22 1.4-.76.05Z" fill="#FF4E00"/><path d="m27.54 22.14-.21-1.71.66-.14.12 1.67-.57.18Z" fill="#FFB900"/><path d="m27.6 22.94-.04-.73.6-.18.1 1.72-.35.17-.3-.98Z" fill="#F8F500"/><path d="m28.26 23.86-.33.16.3 1.21.03-1.37Z" fill="#BEFF39"/><path d="m28.78 28.38-.11-1.13.54-.22v1.38l-.43-.03Z" fill="#49FFAD"/><path d="m28.63 27.16-.3-1.55.88-.23v1.53l-.58.25Z" fill="#80FF77"/><path d="M28.34 25.57V23.8l.85-.13v1.62l-.85.28Z" fill="#BAFF3C"/><path d="m28.36 23.7-.12-1.7h.9l.04 1.59-.82.1Z" fill="#F1FC06"/><path d="m28.24 21.93-.16-1.62.96.03.05 1.53-.85.06Z" fill="#FFC100"/><path d="m30.47 26.86-1.17.15v1.36l1.17-.1v-1.4Z" fill="#4DFFAA"/><path d="M29.31 26.93c.01-.49.03-1.49 0-1.54l1.16-.1v1.5l-1.16.14Z" fill="#80FF77"/><path d="m29.33 25.29-.05-1.61h1.2v1.54l-1.15.07Z" fill="#B7FF40"/><path d="M29.28 23.63 29.25 22l1.24.11v1.52h-1.2Z" fill="#EBFF0C"/><path d="M29.2 21.9v-1.53l1.27.22V22l-1.28-.12Z" fill="#FC0"/><path d="m29.14 20.26-.07-1.44 1.4.33v1.36l-1.33-.25Z" fill="#FF9800"/><path d="m27.58 17.07-.26-1.16 1.38.27.15 1.17-1.27-.28Z" fill="#FF3400"/><path d="m27.84 18.58-.24-1.34 1.24.2.1 1.32-1.1-.18Z" fill="#FF5D00"/><path d="m28.72 16.15-.1-.93 1.81.55v.84l-1.7-.46Z" fill="#FF2900"/><path d="m28.94 17.36-.1-1.11 1.63.44v1.05l-1.53-.38Z" fill="#FF4700"/><path d="m29.03 18.7-.09-1.24 1.52.37v1.19l-1.43-.31Z" fill="#FF6C00"/><path d="M30.58 26.77v-1.48l1.43.08-.05 1.36-1.38.04Z" fill="#80FF77"/><path d="M30.58 23.73v1.5l1.42.06.04-1.43-1.46-.13Z" fill="#B4FF43"/><path d="M30.6 23.65v-1.53l1.47.3-.05 1.38-1.42-.15Z" fill="#E4FF13"/><path d="M30.62 22.04v-1.41l1.53.35-.06 1.31-1.47-.25Z" fill="gold"/><path d="m30.62 20.5-.03-1.32 1.62.47-.04 1.25-1.55-.4Z" fill="#FFA700"/><path d="M30.59 19.06v-1.18l1.75.56-.1 1.13-1.65-.5Z" fill="#FF7E00"/><path d="M30.57 17.74V16.7l1.92.66-.13.99-1.79-.62Z" fill="#FF5900"/><path d="m32.6 17.28.12-.73 2.04.92-.19.7-1.97-.89Z" fill="#F50"/><path d="m32.44 18.38.12-.96 1.98.83-.18.86-1.92-.73Z" fill="#FF6F00"/><path d="m32.34 19.58.13-1.08 1.87.68-.2 1.05-1.8-.65Z" fill="#FF9100"/><path d="m32.27 20.9.1-1.24 1.75.65-.15 1.13-1.7-.55Z" fill="#FFB600"/><path d="m32.2 22.3.04-1.33 1.76.55-.1 1.23-1.7-.45Z" fill="#FFE200"/><path d="m32.15 23.82.07-1.37 1.63.36-.09 1.31-1.61-.3Z" fill="#DBFF1C"/><path d="m32.1 25.27.05-1.4 1.58.3v1.34l-1.63-.24Z" fill="#ADFF49"/><path d="M32.1 26.75v-1.38l1.6.2-.05 1.3-1.56-.12Z" fill="#80FF77"/><path d="M32.08 28.07v-1.26l1.59.13.04.95-1.63.18Z" fill="#53FFA4"/><path d="m34.12 21.45.13-1.06 1.77.71-.21 1-1.7-.65Z" fill="#FFC400"/><path d="m35.8 22.21-1.7-.63-.15 1.2 1.67.51.17-1.08Z" fill="#FBF100"/><path d="m33.86 24.13.1-1.27 1.65.54-.11 1.18-1.64-.45Z" fill="#D4FF23"/><path d="M33.83 25.52v-1.3l1.66.43-.08 1.19-1.58-.32Z" fill="#AAFF4D"/><path d="M33.81 26.86v-1.28l1.6.34v1.13l-1.6-.19Z" fill="#80FF77"/><path d="M33.79 27.89v-.97l2.44.43-2.44.54Z" fill="#56FFA0"/><path d="M35.52 25.93v1.16l.88.2.62-.13v-.79l-1.5-.44Z" fill="#80FF77"/><path d="m35.52 25.82.07-1.12 1.53.52-.09 1.05-1.51-.45Z" fill="#A7FF50"/><path d="m35.59 24.55.14-1.14 1.56.61-.14 1.08-1.56-.55Z" fill="#CEFF29"/><path d="m35.76 23.37.16-1.1 1.57.74-.21.95-1.52-.59Z" fill="#F1FC06"/><path d="m35.91 22.16.18-1.05 1.66.87-.26.92-1.58-.74Z" fill="gold"/><path d="M39.9 21.47a151.8 151.8 0 0 0-1.41-1.07l-.3.67 1.37 1.02.35-.62Z" fill="#FFAB00"/><path d="m39.52 22.13-1.38-.95-.27.74 1.33.92.32-.7Z" fill="#FFC400"/><path d="m39.17 22.94-1.3-.86-.27.86 1.32.82.25-.82Z" fill="#FFE600"/><path d="m38.88 23.84-1.3-.79-.2.96 1.28.73.22-.9Z" fill="#E7FF0F"/><path d="m37.23 25.16.15-1.06 1.26.7-.15.95-1.26-.6Z" fill="#C7FF30"/><path d="m37.14 26.3.07-1.06 1.26.58-.05.9-.14.06-1.14-.47Z" fill="#A4FF53"/><path d="M37.12 27.11v-.72l1.1.43-1.1.3Z" fill="#80FF77"/><path d="m39.26 26.4-.76.3.04-.82.72.51Z" fill="#A0FF56"/><path d="m38.73 24.85-.13.96.78.56.23-.77-.88-.75Z" fill="#C1FF36"/><path d="m39.64 25.48-.9-.71.24-.89.9.8-.24.8Z" fill="#DEFF19"/><path d="m39.88 24.6-.9-.82.3-.74.88.84-.28.72Z" fill="#FBF100"/><path d="m39.29 22.93.33-.73.91 1-.31.62-.93-.9Z" fill="gold"/><path d="m40.62 23.12-.96-1.02.35-.54.94 1.05-.33.5Z" fill="#FFC100"/><path d="m41.05 22.51-.97-1.07.35-.4.99 1.1-.37.37Z" fill="#FFAE00"/><path d="m39.98 25.99-.27-.44.23-.73.38.73-.34.44Z" fill="#D4FF23"/><path d="m40.36 25.46-.4-.79.25-.66.45.82-.3.63Z" fill="#EEFF09"/><path d="m41 24.24-.4-.94-.34.59.43.87.31-.52Z" fill="#FFE600"/><path d="m41.05 24.17-.4-.97.36-.5.44 1.01-.4.46Z" fill="#FFD000"/><path d="m41.52 23.63-.43-.99.4-.4.4 1.05-.37.34Z" fill="#FFC100"/><path d="m40.65 25.64.03-.63.3-.52-.06.73-.27.42Z" fill="#F8F500"/><path d="m41 25.15.1-.8.33-.43-.1.88-.32.35Z" fill="#FFDE00"/><path d="m41.42 24.69.11-.89.38-.32-.14.98-.35.23Z" fill="#FFD000"/><path d="m41.86 24.44.15-1.02.37-.2-.11 1-.41.22Z" fill="#FFC400"/><path d="m42.91 23.13-.44.03-.1 1.04h.35l.2-1.07Z" fill="#FFC100"/><path d="M43.42 23.12h-.44l-.15 1.06.42.03.17-1.1Z" fill="#FFBD00"/><path d="m43.89 23.25-.43-.13-.13 1.1.38.16.18-1.13Z" fill="#FFC400"/><path d="m44.34 23.56-.39-.24-.15 1.07.36.23.18-1.06Z" fill="#FC0"/><path d="m41.24 25.01-.43.57.2-.1.56-.76-.33.3ZM41.72 24.63l-.56.75.3-.1.74-.92-.48.27Z" fill="#FFD300"/><path d="M41.92 25.23h-.29l.65-.9.41-.08-.77.98Z" fill="#FFD000"/><path d="m31.56 28.43-2.2.16.22.19 2.3-.19-.32-.16ZM33.96 28.1l-2.19.32.3.14 2.28-.31-.4-.16ZM34.56 28.24l-.53-.24 2.11-.45.73.22-2.31.47Z" fill="#FFD900"/><path d="m36.9 27.68-.4-.11 1.99-.58.45.1-2.04.59Z" fill="#FFEA00"/><path d="m39.1 27.03-.27-.06 1.63-.73.43.05-1.8.74ZM38.71 26.94l-.17-.05 1.35-.62h.4l-1.58.67ZM40.52 26.16h-.3l1.25-.82h.3l-1.25.82Z" fill="#FFE300"/><path d="m41 26.25-.35-.05 1.3-.88.37.04-1.32.9Z" fill="gold"/><path d="m42.07 25.22.74-.96h.4l-.82 1.03-.32-.07Z" fill="#FC0"/><path d="m43.66 24.47-.37-.15-.77.97.38.18.76-1Z" fill="#FFD000"/><path d="M44.16 24.75a7.85 7.85 0 0 0-.4-.26l-.8 1.02.38.26.82-1.02ZM41.44 26.45l-.34-.17 1.35-.9.37.14-1.38.93Z" fill="#FFDB00"/><path d="m39.55 27.24-.33-.16 1.8-.76.34.15-1.81.77Z" fill="#FFE200"/><path d="m43.21 25.82-.32-.25-1.34.88.31.26 1.35-.9Z" fill="#FFE600"/><path d="m39.97 27.5-.34-.23 1.8-.76.37.25-1.83.74Z" fill="#FEED00"/><path d="m37.25 27.9-.3-.19 2.14-.6.32.16-2.16.64Z" fill="#FFE600"/><path d="m37.64 28.21-.3-.26 2.14-.64.32.22-2.16.68Z" fill="#FEED00"/><path d="m36.96 27.8-2.31.5.26.2 2.42-.44-.37-.25Z" fill="#FFEA00"/><path d="m32.43 28.85-.29-.23 2.36-.34.3.26-2.37.3Z" fill="#FFE600"/><path d="M29.61 28.86h-.77l.03.25h1.06l-.32-.25Z" fill="#FFD000"/><path d="m28.92 29.62-.08-.42 1.17-.01.32.33-1.4.1Z" fill="#FFDB00"/><path d="M28.95 30.22v-.56l1.49-.07.3.45-1.8.18Z" fill="#FFEA00"/><path d="M28.98 30.92v-.62l1.83-.18.3.53-2.13.27Z" fill="#F1FC06"/><path d="m29.35 31.62-.28-.68.03.73.25-.05ZM29.45 31.6l-.23-.66 1.88-.22.29.61-1.94.28Z" fill="#DEFF19"/><path d="m29.16 32.5-.03-.75.28-.03.2.7-.45.08Z" fill="#D1FF26"/><path d="m31.4 31.43-1.92.28.2.68 1.93-.34-.21-.62Z" fill="#C7FF30"/><path d="M29.18 33.39v-.8l.43-.11.15.74-.58.17Z" fill="#B7FF40"/><path d="m29.84 33.2-.14-.72 1.93-.36.13.69-1.92.38Z" fill="#B1FF46"/><path d="m33.89 31.78-2.15.35.12.63 2.17-.39-.14-.59Z" fill="#ADFF49"/><path d="m31.72 32.05-.21-.65 2.18-.35.18.6-2.15.4Z" fill="#C4FF33"/><path d="m31.46 31.32-.22-.6 2.2-.32.24.55-2.22.37Z" fill="#DEFF19"/><path d="m31.22 30.6-.3-.5 2.21-.26.28.48-2.2.29Z" fill="#EBFF0C"/><path d="m30.87 30.03-.32-.47 2.22-.23.3.44-2.2.26Z" fill="#F8F500"/><path d="m30.47 29.52-.32-.35 2.25-.23.31.33-2.24.25Z" fill="#FFE600"/><path d="m32.81 29.26-.3-.35 2.37-.32.32.32-2.39.35Z" fill="#FEED00"/><path d="m33.21 29.73-.27-.41 2.34-.34.29.38-2.36.37Z" fill="#F1FC06"/><path d="m35.63 29.37-.24-.39 2.3-.49.33.41-2.39.47Z" fill="#EEFF09"/><path d="m33.53 30.32-.28-.5 2.36-.36.27.45-2.35.41Z" fill="#E4FF13"/><path d="m33.78 30.96-.24-.57 2.36-.41.23.57-2.35.4Z" fill="#D4FF23"/><path d="m33.97 31.62-.16-.58 2.34-.4.18.55-2.36.43Z" fill="#C1FF36"/><path d="M34.12 32.35 34 31.7l2.32-.44.13.63-2.34.46Z" fill="#AAFF4D"/><path d="m29.77 33.32-.61.14v.77l.66-.19-.05-.72Z" fill="#9AFF5D"/><path d="m29.13 35.1.03-.78.65-.2v.76l-.68.22Z" fill="#7DFF7A"/><path d="M29.01 35.94c.03-.23.1-.7.08-.73l.74-.26-.07.7-.75.29Z" fill="#63FF94"/><path d="m28.94 36.66.1-.68.69-.23-.11.64-.68.27Z" fill="#46FFB1"/><path d="m29.57 36.52-.66.27-.08.51.51-.24.23-.54Z" fill="#2CFFCA"/><path d="m28.7 37.87.14-.52.48-.17-.61.95-.45 1.13.3-1.2c-.02-.02.1-.14.15-.2Z" fill="#16FFE1"/><path d="m31.77 32.92-1.9.38.04.7 1.9-.42-.04-.66Z" fill="#97FF60"/><path d="M29.94 34.86v-.76l1.88-.45v.7l-1.88.51Z" fill="#7DFF7A"/><path d="m29.85 35.62.09-.72 1.87-.46-.08.6-1.88.58Z" fill="#63FF94"/><path d="m29.72 36.35.14-.62 1.87-.6-.14.62-1.87.6Z" fill="#4DFFAA"/><path d="m29.48 37.02.21-.57 1.88-.63-.18.56-1.91.64Z" fill="#33FFC4"/><path d="m29.2 37.57.28-.46 1.85-.62c-.07.14-.22.42-.24.43l-1.9.65Z" fill="#1CFFDB"/><path d="M29.15 37.67c-.07.11-.23.35-.26.36l1.8-.63.34-.39-1.88.66Z" fill="#09F0EE"/><path d="M28.71 38.38c-.02.02.08-.23.06-.25l1.8-.64-.13.19c-.57.23-1.7.7-1.73.7Z" fill="#00D7EE"/><path d="m31.9 33.57-.05-.7 2.2-.41.05.63-2.2.48Z" fill="#97FF60"/><path d="M31.93 34.31v-.67l2.18-.47v.62l-2.18.52Z" fill="#7DFF7A"/><path d="m31.84 35.04.04-.62 2.2-.54-.08.65-2.16.51Z" fill="#66FF90"/><path d="m31.69 35.7.16-.57 2.13-.53a10 10 0 0 1-.13.53l-2.16.58Z" fill="#50FFA7"/><path d="m31.5 36.33.16-.5 2.17-.6-.18.5-2.15.6Z" fill="#39FFBE"/><path d="m31.46 36.42-.22.45 2.12-.64.24-.38-2.14.57Z" fill="#23FFD4"/><path d="m31.13 36.98-.25.34 2.2-.65.27-.34-2.22.65Z" fill="#13FCE4"/><path d="m32.72 37-2.1.64.21-.24 2.1-.64-.21.24Z" fill="#00EDFB"/><path d="m34.19 33.09-.04-.67 2.3-.46.07.62-2.33.5Z" fill="#94FF63"/><path d="M34.17 33.77v-.6l2.36-.5-.04.59-2.32.51Z" fill="#7DFF7A"/><path d="m34.12 34.5.08-.63 2.3-.53-.07.6-2.3.56Z" fill="#66FF90"/><path d="m33.96 35.12.15-.54 2.3-.56-.11.56-2.34.54Z" fill="#50FFA7"/><path d="m33.77 35.7.19-.5 2.3-.52-.17.46-2.32.57Z" fill="#3CFFBA"/><path d="m36 35.24-2.27.56-.24.42 2.33-.63.19-.35Z" fill="#29FFCE"/><path d="m33.25 36.6.26-.33 2.25-.61-.28.38-2.23.56Z" fill="#16FFE1"/><path d="m32.94 36.92.26-.26 2.2-.54-.26.24-2.2.56Z" fill="#00EDFB"/><path d="m37.6 35.76-2.2.55.14-.24 2.32-.57-.27.26Z" fill="#00FAF0"/><path d="m35.92 35.63-.26.36 2.31-.57.2-.3-2.25.51Z" fill="#19FFDE"/><path d="m38.41 34.66-2.27.53-.2.36 2.25-.5.22-.4Z" fill="#29FFCE"/><path d="m36.22 35.09.16-.47 2.3-.54-.17.46-2.3.55Z" fill="#3CFFBA"/><path d="m36.42 34.52.08-.51 2.32-.55-.11.55-2.29.51Z" fill="#53FFA4"/><path d="m36.53 33.89.04-.54 2.34-.53-.07.55-2.3.52Z" fill="#66FF90"/><path d="M36.61 33.21v-.55l2.3-.53v.6l-2.3.48Z" fill="#7DFF7A"/><path d="m38.08 29-2.38.47.25.45 2.42-.45-.3-.47Z" fill="#E1FF16"/><path d="M36.24 30.52c-.02 0-.16-.35-.22-.53l2.33-.47.23.56-2.34.44Z" fill="#D1FF26"/><path d="m36.43 31.18-.17-.56 2.35-.48.15.56-2.33.48Z" fill="#BEFF39"/><path d="m36.56 31.86-.12-.6 2.34-.49.12.6-2.34.49Z" fill="#AAFF4D"/><path d="m36.61 32.57-.05-.64 2.32-.47.05.6-2.32.5Z" fill="#94FF63"/><path d="m38.22 35.29-.26.24L40.1 35l.23-.28-2.1.58Z" fill="#0FF8E7"/><path d="m38.47 34.85-.25.36 2.23-.6.2-.35-2.18.6Z" fill="#1FFFD7"/><path d="m38.7 34.32-.2.45 2.24-.6.23-.46-2.28.61Z" fill="#30FFC7"/><path d="m38.71 34.27.16-.5 2.28-.66c-.05.17-.15.51-.17.51l-2.27.65Z" fill="#43FFB4"/><path d="m38.9 33.68.07-.56 2.3-.64-.09.55-2.27.65Z" fill="#5AFF9D"/><path d="m41.33 31.11-2.31.64.02.6 2.29-.64v-.6Z" fill="#83FF73"/><path d="m39.01 31.68-.07-.59 2.28-.68.1.6-2.3.67Z" fill="#9AFF5D"/><path d="m38.93 31-.15-.57 2.28-.66.14.55-2.27.68Z" fill="#B1FF46"/><path d="m38.79 30.33-.2-.54 2.25-.66.22.54-2.27.66Z" fill="#C4FF33"/><path d="m38.59 29.72-.26-.46 2.26-.7.22.5-2.22.66Z" fill="#D7FF1F"/><path d="m38.3 29.13-.28-.42 2.22-.67.31.43-2.25.66Z" fill="#E4FF13"/><path d="m40.95 29.02-.29-.5 1.9-.76.29.49-1.9.77Z" fill="#D7FF1F"/><path d="m41.16 29.65-.2-.56 1.89-.75.23.56-1.92.75Z" fill="#C4FF33"/><path d="m41.32 30.3-.13-.57 1.93-.76.14.6-1.94.73Z" fill="#B1FF46"/><path d="m41.43 31-.12-.62 1.94-.75.1.65-1.92.71Z" fill="#9AFF5D"/><path d="m41.46 31.67-.04-.58 1.93-.75.03.63-1.92.7Z" fill="#83FF73"/><path d="M41.45 32.34v-.57l1.9-.7-.07.63-1.83.64Z" fill="#6DFF8A"/><path d="m41.3 33.01.11-.58 1.88-.68-.1.57-1.9.7Z" fill="#56FFA0"/><path d="m41.11 33.6.13-.5 1.9-.65-.16.53-1.87.62Z" fill="#43FFB4"/><path d="m40.85 34.15.23-.47 1.87-.63-.24.5-1.86.6Z" fill="#2CFFCA"/><path d="m40.83 34.22-.24.35 1.8-.56.27-.37-1.83.58Z" fill="#1CFFDB"/><path d="m40.53 34.63-.25.32 1.74-.53.26-.3-1.75.51ZM40.24 35.02l-.26.2 1.76-.52.14-.17-1.64.49Z" fill="#0BF4EB"/><path d="M42.51 34.06c-.02 0-.27.31-.3.33l1.26-.5.31-.36-1.27.53ZM42.1 34.49l-.1.12.82-.29.58-.36-1.3.53Z" fill="#00EDF3"/><path d="M42.82 33.57c-.08.13-.24.38-.24.4l1.27-.52.28-.41-1.31.53Z" fill="#19FFDE"/><path d="m43.05 33.05-.17.44 1.33-.58.23-.49-1.39.63Z" fill="#29FFCE"/><path d="m43.26 32.4-.14.53 1.35-.6.17-.58-1.38.65Z" fill="#40FFB7"/><path d="m43.3 32.27.09-.54 1.4-.7-.12.61-1.36.63Z" fill="#56FFA0"/><path d="m43.4 31.64.07-.6 1.38-.76-.03.66-1.42.7Z" fill="#6DFF8A"/><path d="m43.43 30.32.04.63 1.42-.77-.02-.66-1.44.8Z" fill="#87FF70"/><path d="m43.43 30.22-.07-.58 1.42-.85.07.65-1.42.78Z" fill="#9DFF5A"/><path d="m43.35 29.54-.16-.62 1.43-.84.14.6-1.41.86Z" fill="#B4FF43"/><path d="m43.18 28.88-.22-.57 1.4-.89.22.57-1.4.89Z" fill="#CAFF2C"/><path d="m42.96 28.2-.28-.48 1.4-.9.26.51-1.38.87Z" fill="#DEFF19"/><path d="m42.65 27.63-.3-.42 1.37-.88.32.4-1.39.9Z" fill="#EEFF09"/><path d="m44.15 26.69-.36-.45.85-.99.29.44-.78 1Z" fill="#F4F802"/><path d="m44.44 27.27-.27-.52.8-.96.3.5-.83.98Z" fill="#E4FF13"/><path d="m44.67 27.93-.21-.58.82-.94.2.57-.8.95Z" fill="#CEFF29"/><path d="m44.87 28.6-.16-.59.78-.92.16.64-.78.87Z" fill="#B7FF40"/><path d="m44.96 29.36-.08-.65.8-.85.07.64-.8.86Z" fill="#A0FF56"/><path d="M44.98 30.1v-.67l.78-.8v.72l-.78.75Z" fill="#87FF70"/><path d="m44.91 30.88.04-.66.82-.77-.08.68-.78.75Z" fill="#6DFF8A"/><path d="m44.78 31.59.12-.65.76-.69-.16.69-.72.65Z" fill="#53FFA4"/><path d="M44.6 32.21c.06-.16.17-.5.16-.54l.7-.6-.18.58-.68.56Z" fill="#3CFFBA"/><path d="m45.2 31.87-.68.51-.18.46.67-.51.2-.46Z" fill="#26FFD1"/><path d="m44.05 33.34.2-.37.62-.44-.24.4-.58.4ZM44.15 33.49l-.45.3.26-.36.46-.27-.27.33Z" fill="#0FF8E7"/><path d="m45.68 26.03-.21-.46-.11.76c.06.15.17.44.17.47l.15-.77Z" fill="#D4FF23"/><path d="m45.84 26.83-.14-.6-.15.8.11.5.18-.7Z" fill="#BEFF39"/><path d="m45.93 27.68-.09-.5-.09.64.05.53.13-.67Z" fill="#A0FF56"/><path d="m45.83 29.2.08-1.01-.1.33.02.67Z" fill="#87FF70"/></svg>