<!-- by TradingView --><svg width="56" height="56" viewBox="0 0 56 56" xmlns="http://www.w3.org/2000/svg"><path fill="#1F1F1F" d="M0 0h56v56H0z"/><path d="M14.9 18.91c-.55.32-.9.92-.9 1.57v7.3l14.22-8.51a1.78 1.78 0 0 1 1.89.03l3.86 2.5c.44.28 1.02.23 1.4-.13l3.12-2.95c.79-.74.64-2.04-.29-2.6l-8.13-4.87a1.78 1.78 0 0 0-1.8-.01L14.9 18.9Z" fill="#FC8B15"/><path d="M14.9 37.09a1.8 1.8 0 0 1-.9-1.57v-6.29l7-4v6.9c0 .17.38.4.53.5l6.7 4.1c.58.35 1.3.34 1.88-.03l3.86-2.5a1.13 1.13 0 0 1 1.4.13l3.12 2.95c.79.74.64 2.04-.29 2.6l-8.13 4.87c-.55.33-1.24.33-1.8.01L14.9 37.1Z" fill="#fff"/></svg>