<!-- by TradingView --><svg width="56" height="56" viewBox="0 0 56 56" xmlns="http://www.w3.org/2000/svg"><path fill="#F0F3FA" d="M0 0h56v56H0z"/><path fill-rule="evenodd" d="M39.79 43H16.32c-.93 0-1.7-.6-1.77-1.51L13 18.39a1.7 1.7 0 0 1 .84-1.58l13.32-7.54c.28-.17.59-.26.9-.27.33 0 .67.09.96.26l13.12 7.15c.57.33.9.94.86 1.59l-1.43 23.48c-.06.9-.84 1.52-1.78 1.52Zm-1.73-4H18.04l-1.4-19.1L28.08 13l11.27 6.57L38.05 39ZM20.7 21.51l.42 7.49h10.4l-.21 3h-6.24l-.16-2h-3.74l.33 6h13.13l.69-10h-10.7l-.2-2.4 3.63-2.6L32 23.6V25h3.39l.24-3.49L28.16 17l-7.46 4.51Z" fill="#E1AB4B"/></svg>