<!-- by TradingView --><svg width="56" height="56" viewBox="0 0 56 56" xmlns="http://www.w3.org/2000/svg"><path fill="url(#agduqmu4h)" d="M0 0h56v56H0z"/><path d="m19.18 22 9.27-9.78c.33-.36.66-.21.76 0L33.12 22h6.28c.4 0 .59.26.63.35 1.18 3.1 3.56 10.06 3.86 10.72.3.66-.13.9-.38.93h-6.6c-3 3.29-9.07 9.64-9.5 9.9-.44.28-.76-.1-.87-.33L22.78 34h-6.23a.65.65 0 0 1-.6-.36c-1.16-3.08-3.54-10.02-3.83-10.73-.28-.7.12-.91.36-.91h6.7Z" fill="#fff"/><path d="M39.2 23h-6.32l-4.34 5.07L30.28 33h12.59L39.2 23ZM25.7 23H13.23l3.45 10h6.3l4.42-5.13L25.7 23Z" fill="#131619"/><path d="m20.44 22 8.22-8.68 3.52 9.3-4 4.52L26.26 22h-5.82ZM35.48 34l-8.24 8.69-3.52-9.3 4-4.52L29.65 34h5.84Z" fill="#131619"/><defs><linearGradient id="agduqmu4h" x1="10.42" y1="9.71" x2="68.15" y2="76.02" gradientUnits="userSpaceOnUse"><stop stop-color="#1A1E21"/><stop offset="1" stop-color="#06060A"/></linearGradient></defs></svg>