<!-- by TradingView --><svg width="56" height="56" viewBox="0 0 56 56" xmlns="http://www.w3.org/2000/svg"><path fill="url(#aegyjv0zw)" d="M0 0h56v56H0z"/><path d="M27.85 12.59c-.21-.49.56-.84.77-.37l14.97 26.27c-.26 0-.52-.09-.77-.13l-13.33-2.7c-.43-.02-.53-.74-.1-.85l5.22-1.46a.43.43 0 0 0 .3-.24.45.45 0 0 0 0-.38l-7.06-20.15Z" fill="url(#begyjv0zw)"/><path d="M27.08 12.63c.05.07.1.15.13.23 1.58 4.56 3.2 9.12 4.77 13.68.14.38-.39.7-.64.41-1.35-1.43-2.63-2.9-3.95-4.34-.21-.2-.52-.07-.66.14L12.99 39.18c-.16.17-.3.43-.56.46-.2 0-.32-.15-.43-.3v-.25c5.03-8.82 10.06-17.63 15.08-26.46Z" fill="url(#cegyjv0zw)"/><path d="M22.88 28.28c.26-.08.6.1.51.42-.53 1.89-1.1 3.77-1.65 5.64-.09.24.13.46.35.47 7.19 1.47 14.38 2.99 21.57 4.45.14.02.23.13.34.22v.3l-.2.22H13.28c3.2-3.9 6.39-7.84 9.6-11.72Z" fill="url(#degyjv0zw)"/><defs><linearGradient id="aegyjv0zw" x1="10.42" y1="9.71" x2="68.15" y2="76.02" gradientUnits="userSpaceOnUse"><stop stop-color="#1A1E21"/><stop offset="1" stop-color="#06060A"/></linearGradient><linearGradient id="begyjv0zw" x1="27.81" y1="12" x2="44" y2="38.24" gradientUnits="userSpaceOnUse"><stop stop-color="#307CC0"/><stop offset="1" stop-color="#58BFDC"/></linearGradient><linearGradient id="cegyjv0zw" x1="29.21" y1="18.59" x2="11.64" y2="39.34" gradientUnits="userSpaceOnUse"><stop stop-color="#388BC7"/><stop offset="1" stop-color="#58BFDC"/></linearGradient><linearGradient id="degyjv0zw" x1="13.28" y1="40" x2="42.34" y2="40" gradientUnits="userSpaceOnUse"><stop stop-color="#ACADAD"/><stop offset=".47" stop-color="#DEDFDF"/><stop offset="1" stop-color="#B1B2B2"/></linearGradient></defs></svg>