<!-- by TradingView --><svg xmlns="http://www.w3.org/2000/svg" width="56" height="56"><path fill="#F0F3FA" d="M0 0h56v56H0z"/><circle cx="28" cy="28" r="17" fill="#1D1D3F"/><path fill-rule="evenodd" d="M28 43a15 15 0 100-30 15 15 0 000 30zm0-1a14 14 0 100-28 14 14 0 000 28z" fill="url(#a51t4vgbz)"/><path fill-rule="evenodd" d="M28 41a13 13 0 100-26 13 13 0 000 26zm0-1a12 12 0 100-24 12 12 0 000 24z" fill="url(#b51t4vgbz)"/><path d="M31.57 16.05c-5.82-1.59-10.38.41-13.22 4.04C4.9 37.26 35.38 39.12 37.88 34.91c1.23-2.08.97-16.88-6.3-18.86z" fill="url(#c51t4vgbz)"/><path fill="#A14AE7" d="M23 34h10v1H23z"/><path d="M33 22H23v10h10v-3h-5v-4h5v-3z" fill="#F0F3FA"/><defs><linearGradient id="a51t4vgbz" x1="39.67" y1="36.72" x2="18.35" y2="16.24" gradientUnits="userSpaceOnUse"><stop stop-color="#9F42E9"/><stop offset=".82" stop-color="#9F42E9" stop-opacity="0"/></linearGradient><linearGradient id="b51t4vgbz" x1="36.82" y1="43.89" x2="32.22" y2="35.39" gradientUnits="userSpaceOnUse"><stop stop-color="#DBDBE2"/><stop offset="1" stop-color="#DBDBE2" stop-opacity="0"/></linearGradient><linearGradient id="c51t4vgbz" x1="17.03" y1="22.57" x2="35.96" y2="29.05" gradientUnits="userSpaceOnUse"><stop stop-color="#717286"/><stop offset="1" stop-color="#717286" stop-opacity="0"/></linearGradient></defs></svg>