<!-- by TradingView --><svg xmlns="http://www.w3.org/2000/svg" width="56" height="56"><path fill="#1B38DA" d="M0 0h56v56H0z"/><path d="M18.23 14.19h4.71l3.4-2.13h-4.31l-3.8 2.13zm1.18 5.41l2.52-4.46h-4.97l-2.4 4.63 4.85-.17zm-.24.93v4.95h-5.08v-4.95h5.08zm10.47 1.88l3.4 2.05h4.45l-3.4-2.05h-4.45zM29.6 44h4.25l3.58-2.1h-4.5L29.6 44zm-6.69-12.27l3.4 2.06h-4.46l-3.4-2.06h4.46zm13.87-1.01v4.95h5.07v-4.95h-5.07zM34 25.33l2.52 4.47 4.85.17-2.4-4.64H34zM19.4 26.4l2.52 4.47h-4.97l-2.4-4.64 4.85.17zM34 41.06l2.52-4.47 4.85-.17-2.4 4.64H34z" fill="#7899F8"/><path d="M33.63 12h-4.92l2.65 4.51h4.97L33.63 12zm1.56.8l2.18 3.96 3.8 1.97-2.1-3.68-3.88-2.26zm-6.28 8.7l2.47-4.26 5.05.24-2.46 4.02H28.9zm5.9.33l2.63-4.1 4.2 2.37-2.54 4.18-4.29-2.45zM11 24.93l2.33-3.62v4.2L11 29.5v-4.56zm2.83 1.74l-2.72 4.38 2.62 4.32 2.42-4.32-2.32-4.38zm.35 9.4l2.7-4.37 4.49 2.54-2.76 4.17-4.43-2.33zm4.36 3.12l-3.66-1.76 2.02 3.64 3.62 2.05-1.98-3.93zm3.53 4.73l-2.48-4.4h5.13l2.36 4.4h-5zm3.9-23.66l-2.07 3.62 4-2.3 1.74-3.41-3.68 2.09zm-2.36-5.48l4.14-2.58 2.6 4.4L26 19.22l-2.4-4.44zm-.63.77l-2.89 4.37 2.64 4.19 2.53-4.2-2.28-4.36zm-2.89 5.94v4.37l2.22 3.56v-4.37l-2.22-3.56zm2.12 13.06l-2.69 3.97h5.25l2.4-3.97h-4.96zm4.04 3.33l2.1-3.5 3.57-2.11-2.27 3.75-3.4 1.86zm3.52-1.02L25.6 39.3l2.66 4.42 4.07-2.54-2.55-4.32zm3.96-10.23l2.2 3.64v4.43l-2.2-3.6v-4.47zm-.54 5.45l2.6 4.11-2.85 4.36-2.53-4.22 2.78-4.25zm9.16-11.38L39.83 25l2.32 4.53L45 25l-2.65-4.3zm.17 9.9l2.4-3.87v4.24l-2.4 3.55V30.6z" fill="#fff"/></svg>