<!-- by TradingView --><svg width="56" height="56" viewBox="0 0 56 56" xmlns="http://www.w3.org/2000/svg"><path fill="#3D1EF8" d="M0 0h56v56H0z"/><path d="M18.63 22.6c1.21-2.04 3.02-3.51 4.73-3.48l.82-.9c1.19-2 .77-4.46-.92-5.45-1.7-.99-4.06-.15-5.25 1.85l-.69 1.16c.86 1.46.73 3.72-.49 5.78-1.2 2.05-3.15 3.25-4.86 3.22l-.68 1.16c-1.2 2-.78 4.45.91 5.44 1.7 1 4.06.16 5.25-1.84l.27-1.24c-.86-1.46-.3-3.66.9-5.7Z" fill="#fff"/><path d="M16.84 34.34c-1.21-2.05-3.16-3.26-4.86-3.23l-.69-1.16c-1.19-2-.78-4.45.92-5.44 1.7-.99 4.05-.16 5.24 1.84l.37 1.26c-.85 1.46-.4 3.63.81 5.68 1.22 2.05 2.93 3.49 4.63 3.46l.92.93c1.19 2 .78 4.45-.92 5.44-1.7.99-4.05.16-5.24-1.85l-.7-1.15c.86-1.47.73-3.74-.48-5.78ZM30.64 34.34c-1.2-2.05-3.15-3.26-4.85-3.23l-.7-1.16c-1.18-2-.77-4.45.93-5.44 1.69-.99 4.05-.16 5.24 1.84l.69 1.16c-.86 1.46-.73 3.73.49 5.78 1.21 2.05 3.15 3.26 4.86 3.23l.69 1.16c1.19 2 .77 4.45-.92 5.44-1.7.99-4.06.16-5.25-1.85l-.68-1.15c.85-1.47.73-3.74-.5-5.78Z" fill="#fff"/><path d="M39.27 34.54c1.22-2.04 3.16-3.26 4.86-3.23l.7-1.16c1.18-2 .77-4.45-.93-5.44-1.7-.99-4.05-.16-5.24 1.85l-.55 1.15c.85 1.46.59 3.73-.63 5.78-1.21 2.06-3.15 3.26-4.86 3.23l-.69 1.16c-1.19 2-.77 4.45.92 5.44 1.7.99 4.06.16 5.25-1.84l.68-1.16c-.86-1.47-.72-3.74.5-5.78ZM21 12a4 4 0 1 0 0 8 4 4 0 0 0 0-8ZM21 36a4 4 0 1 0 0 8 4 4 0 0 0 0-8ZM35 12a4 4 0 1 0 0 8 4 4 0 0 0 0-8Z" fill="#fff"/><path d="M35 36a4 4 0 1 0 0 8 4 4 0 0 0 0-8ZM28 24a4 4 0 1 0 0 8 4 4 0 0 0 0-8ZM42 24a4 4 0 1 0 0 8 4 4 0 0 0 0-8ZM14 24a4 4 0 1 0 0 8 4 4 0 0 0 0-8Z" fill="#fff"/></svg>