<!-- by TradingView --><svg xmlns="http://www.w3.org/2000/svg" width="56" height="56" viewBox="0 0 56 56"><path fill="#3A3A3A" d="M0 0h56v56H0z"/><path d="M42 24.8v-6.4h-3.24v-3.2H32.3V12h-6.47v3.2h-6.48v3.2H16.1v19.2h3.24v3.2h6.47V44h6.48v-3.2h6.47v-3.2H42v-6.4h-6.48v3.2H32.3v3.2h-6.47v-3.2h-3.24V21.6h3.24v-3.2h6.47v3.2h3.23v3.2H42z" fill="#3A3A3A"/><path d="M32 18h-2v4h2v-4zM26 12h-2v3h2v-3z" fill="#1682FE"/><path d="M19 15h-2v4h2v-4z" fill="#60D8A4"/><path d="M16 28h-2v10h2V28z" fill="#F4BB3B"/><path d="M16 18h-2v10h2V18z" fill="#60D8A4"/><path d="M36 21h-2v4h2v-4z" fill="#1682FE"/><path d="M36 31h-2v4h2v-4zM32 34h-2v4h2v-4zM26 41h-2v3h2v-3z" fill="#FF5A5A"/><path d="M19 37h-2v4h2v-4z" fill="#F4BB3B"/><path d="M42 25v-7h-3v-3h-7v-3h-6v3h-7v3h-3v20h3v3h7v3h6v-3h7v-3h3v-7h-6v3h-4v4h-6v-4h-4V22h4v-4h6v4h4v3h6z" fill="#fff"/></svg>