<!-- by TradingView --><svg width="56" height="56" viewBox="0 0 56 56" xmlns="http://www.w3.org/2000/svg"><path fill="#F0F3FA" d="M0 0h56v56H0z"/><path d="M39.12 40.86A16.93 16.93 0 0 1 28 45c-4.25 0-8.14-1.56-11.12-4.14C18.66 36.84 22.98 34 28 34c5.03 0 9.34 2.84 11.12 6.86Z" fill="url(#a42oyrt0x)"/><path d="M42.61 36.7C40.11 32.15 34.51 29 28 29s-12.11 3.16-14.61 7.7a17 17 0 1 1 29.22 0Zm-3.67-7.51a11 11 0 1 0-21.87 0C20.08 27.19 23.88 26 28 26c4.11 0 7.9 1.19 10.94 3.19Z" fill="url(#b42oyrt0x)"/><defs><linearGradient id="a42oyrt0x" x1="28" y1="11" x2="28" y2="45" gradientUnits="userSpaceOnUse"><stop stop-color="#75277D"/><stop offset="1" stop-color="#271137"/></linearGradient><linearGradient id="b42oyrt0x" x1="28" y1="11" x2="28" y2="45" gradientUnits="userSpaceOnUse"><stop stop-color="#75277D"/><stop offset="1" stop-color="#271137"/></linearGradient></defs></svg>