<!-- by TradingView --><svg width="56" height="56" xmlns="http://www.w3.org/2000/svg"><path fill="#E9570F" d="M0 0h56v56H0z"/><path d="M22 24c0-5.523 4.477-10 10-10v-2c-6.627 0-12 5.373-12 12h2zm10-7a7 7 0 00-7 7h-2a9 9 0 019-9v2zm0 3a4 4 0 00-4 4h-2a6 6 0 016-6v2zM23 34c-5.523 0-10-4.477-10-10h-2c0 6.627 5.373 12 12 12v-2zm-7-10a7 7 0 007 7v2a9 9 0 01-9-9h2zm3 0a4 4 0 004 4v2a6 6 0 01-6-6h2zM33 23c5.523 0 10 4.477 10 10h2c0-6.627-5.373-12-12-12v2zm7 10a7 7 0 00-7-7v-2a9 9 0 019 9h-2zm-3 0a4 4 0 00-4-4v-2a6 6 0 016 6h-2zM27 33a4 4 0 01-4 4v2a6 6 0 006-6h-2zm3 0a7 7 0 01-7 7v2a9 9 0 009-9h-2zm-7 10c5.523 0 10-4.477 10-10h2c0 6.627-5.373 12-12 12v-2z" fill="#fff"/></svg>