<!-- by TradingView --><svg width="56" height="56" xmlns="http://www.w3.org/2000/svg"><path fill="url(#paint0_linear)" d="M0 0h56v56H0z"/><path d="M13 27.931L28.883 12 37 20.207v15.655L28.884 44 13 27.931z" fill="#fff"/><path d="M15.47 28.033l11.46-11.639-5.626 17.458-5.834-5.82zM23.825 32.405l4.847-16.956 2.563 8.423-7.41 8.533zM32.642 22.87l-2.079-6.476 4.246 4.302-2.167 2.173zM33.091 24.537L35 22.28v8.779l-1.909-6.523zM24.252 35.002l7.517-8.61 2.741 8.61H24.252zM33.091 37h-8.473l4.237 4.29L33.09 37z" fill="#14171B"/><defs><linearGradient id="paint0_linear" x1="10.418" y1="9.712" x2="68.147" y2="76.017" gradientUnits="userSpaceOnUse"><stop stop-color="#1A1E21"/><stop offset="1" stop-color="#06060A"/></linearGradient></defs></svg>