<!-- by TradingView --><svg width="56" height="56" xmlns="http://www.w3.org/2000/svg"><path fill="#00CEDB" d="M0 0h56v56H0z"/><path d="M23.624 30.066l-2.888 2.91c-.52.522-1.029 1.05-1.55 1.57-.088.088-.212.14-.319.21-.227-.036-.402-.173-.432-.372a27.208 27.208 0 01-.13-.911c-.052-.402-.18-.513-.602-.564-.87-.1-1.737-.21-2.607-.32l-1.985-.248c-.395-.05-.539-.324-.332-.65.476-.739.956-1.475 1.433-2.21l2.923-4.503c.115-.182.245-.307.493-.3.158.003.322-.034.478-.073.185-.043.33.01.46.129.23.207.462.413.69.622l2.639 2.415c.569.52 1.143 1.036 1.711 1.556.294.267.294.459.018.74zM43.03 33.98c.165.132.343.257.378.481.044.287-.075.495-.327.651-1.488.929-2.975 1.862-4.462 2.792L35.744 39.7c-.09.055-.177.116-.259.184a.56.56 0 00-.219.476c.015.345.035.691.04 1.036.006.396-.297.644-.71.599a.577.577 0 01-.376-.208l-1.036-1.156c-.432-.482-.863-.968-1.297-1.45a.772.772 0 01-.236-.665l.06-2.016c.007-.236.152-.388.348-.51l2.376-1.464c1.33-.818 2.664-1.633 3.99-2.46.28-.174.541-.226.849-.075a.997.997 0 00.731.058c.37-.113.653-.014.938.23.683.58 1.392 1.133 2.09 1.7h-.002zM30.26 35.653c.108.102.185.23.222.372.065.315-.065.53-.373.673-1.024.476-1.935.95-2.967 1.41-.186.082-.556.282-.767.292H22.015c-.077.002-.154-.03-.226-.057a.578.578 0 01-.194-.122c-.108-.096-.22-.188-.327-.286-.602-.552-1.193-1.114-1.808-1.654-.343-.3-.348-.704-.02-1.026.736-.732 1.464-1.472 2.196-2.21.789-.797 1.578-1.597 2.366-2.397a.673.673 0 01.48-.229.697.697 0 01.503.182l3.15 3.019c.707.678 1.421 1.35 2.125 2.033zm4.336-13.582c-.337-.503.044-1.198.606-1.288 1.501-.24 2.998-.518 4.497-.769.331-.056.593.091.776.354.314.456.624.913.936 1.37.658.962 1.317 1.924 1.968 2.89.088.13.132.286.197.43l-.039.017c-.01.246-.105.482-.27.671-.917 1.188-1.844 2.371-2.76 3.56a.853.853 0 01-.325.244.885.885 0 01-.798-.052.842.842 0 01-.288-.284c-1.34-2.143-2.692-4.28-4.04-6.417-.152-.243-.3-.49-.46-.726zm-2.633 5.96l-.263 2.253c-.073.624-.152 1.245-.226 1.87l-.259 2.193c-.017.154-.019.31-.052.46-.018.072-.074.164-.137.188-.063.024-.175-.01-.23-.056-.25-.207-.485-.426-.723-.644-.858-.783-1.71-1.568-2.568-2.347-.745-.68-1.492-1.355-2.241-2.03-.249-.223-.25-.294-.011-.535l3.427-3.46 2.34-2.369 1.147-1.164c.033-.034.061-.08.102-.093.082-.029.184-.067.255-.046.06.02.088.124.105.152l-.175 1.485-.226 1.909-.266 2.234zm6.66 1.721c.112.174.13.34.007.52-.134.203-.19.443-.161.682.021.212-.07.342-.257.455-1.465.896-2.923 1.8-4.382 2.7-.459.284-.917.566-1.377.846-.183.111-.37.102-.47-.04-.056-.077-.063-.185-.078-.239l.192-1.363.429-3.007.472-3.29.46-3.219.176-1.198c.003-.032.005-.069.023-.093.045-.055.096-.138.154-.148.063-.01.16.037.2.09.107.138.193.291.288.44l3.421 5.426c.301.48.599.96.903 1.436v.002zm-7.093-8.275c.054.034.16.07.215.142.086.111.011.216-.078.305l-1.19 1.207-3.469 3.5c-.724.733-1.445 1.47-2.17 2.203-.262.264-.472.264-.745.014-.846-.773-1.69-1.55-2.538-2.32-.822-.75-1.648-1.497-2.474-2.245-.11-.101-.198-.21-.186-.366.018-.21.144-.33.394-.371.457-.08.915-.157 1.374-.233l4.401-.742 5.198-.88 1.268-.214zm-11.793 1.067c.816-.539 1.631-1.074 2.448-1.609l7.893-5.183c.262-.173.428-.137.56.136.544 1.124 1.085 2.25 1.627 3.375.07.145.137.292.209.439.057.118.019.214-.055.32-.095.13-.176.27-.241.417a.362.362 0 01-.303.243c-1.162.2-2.322.405-3.483.604L24.273 22l-4.497.78c-.064.01-.128 0-.193 0l-.038-.07c.064-.055.122-.12.192-.166zm-8.207 2.575c-.515-.01-.821-.493-.574-.937.208-.375.439-.736.663-1.102.644-1.061 1.291-2.12 1.932-3.18.104-.174.255-.317.437-.414 1.708-.947 3.413-1.899 5.12-2.847.11-.064.228-.11.352-.135a.63.63 0 01.348.032c.11.043.205.117.272.211a.593.593 0 01.06.657c-.258.53-.526 1.054-.788 1.58-.49.966-.98 1.93-1.465 2.896a.734.734 0 01-.208.277.77.77 0 01-.317.155c-.217.05-.415.157-.573.309-.159.152-.27.343-.323.552a.602.602 0 01-.157.275.634.634 0 01-.279.162c-1.403.476-2.805.962-4.207 1.443-.094.033-.194.044-.292.067l-.002-.002zm7.267-3.082a.567.567 0 01.06-.202l1.834-3.876c.381-.807.768-1.612 1.144-2.42a.45.45 0 01.432-.287c.573-.017 1.145-.046 1.717-.068l3.378-.123c.395-.017.793-.042 1.19-.06.283-.012.477.153.48.421.012.164-.097.27-.237.363l-1.082.71-6.464 4.241-2.065 1.357a.94.94 0 01-.154.091c-.123.05-.24-.02-.233-.147zm-2.385 2.785c-.285.443-.574.884-.861 1.326-1.073 1.654-2.146 3.309-3.22 4.96a.723.723 0 01-.175.209c-.186.128-.432.038-.52-.186-.14-.361-.273-.726-.407-1.088l-1.171-3.176c-.028-.08-.047-.16-.058-.2.002-.214.075-.305.284-.37.622-.195 1.245-.385 1.868-.576l3.527-1.08.463-.138c.11-.034.221-.08.312.038.082.107.014.194-.042.28zm28.206 4.402l.354 1.95c.01.063.017.127.028.21-.017.084-.037.186-.065.284l-.464 1.613c-.132.464-.514.573-.899.26-.79-.642-1.582-1.283-2.375-1.92-.18-.146-.255-.313-.213-.542a1.027 1.027 0 00-.08-.679c-.11-.207-.074-.391.067-.573.648-.838 1.29-1.678 1.936-2.515l.394-.513c.131-.174.304-.258.525-.21.23.05.35.202.388.42l.403 2.215h.002zM31.381 15.82l-.035-.07c-.047-.102-.066-.22.04-.278.094-.04.2-.046.298-.017.154.046.293.13.438.2l5.883 2.833 1.045.506c.117.056.21.122.186.263-.025.14-.135.17-.263.193-1.414.243-2.826.49-4.239.734l-.138.027c-.04-.026-.117-.054-.166-.108a1.399 1.399 0 00-.465-.366 1.45 1.45 0 00-.58-.146c-.157-.006-.238-.096-.297-.222-.249-.52-.502-1.036-.753-1.554l-.954-1.995z" fill="#fff"/></svg>