<!-- by TradingView --><svg width="56" height="56" xmlns="http://www.w3.org/2000/svg"><path fill="#2970FF" d="M0 0h56v56H0z"/><path d="M26.075 30.905h7.915c2.83-.018 5.328-2.302 5.318-5.187.01-2.886-2.487-5.7-5.318-5.718h-2.525l-5.39-4h7.915c2.324.008 4.574.794 6.364 2.226a9.625 9.625 0 013.449 5.624 9.442 9.442 0 01-1.006 6.494c-1.104 1.986-2.887 3.541-5.047 4.4L44 40h-7.163l-10.762-9.095z" fill="#fff"/><path d="M22.028 25h7.88l-10.745-9H12l6.25 5.256c-2.156.858-3.937 2.41-5.04 4.393-2.258 4.056-1.17 9.236 2.438 12.123A10.248 10.248 0 0022.028 40h7.897l-5.39-4h-2.507c-3.597-.012-6.402-4.247-4.936-7.697.797-1.876 2.877-3.296 4.936-3.303z" fill="#fff"/></svg>