<!-- by TradingView --><svg width="56" height="56" viewBox="0 0 56 56" xmlns="http://www.w3.org/2000/svg"><path fill="url(#avn2mplkl)" d="M0 0h56v56H0z"/><path d="m34.08 16.52-5.32 5.3a1.07 1.07 0 0 1-1.52 0l-5.31-5.3L14.32 15l11.12 11.09c1.4 1.42 3.91 1.21 5.33-.2L41.68 15l-7.6 1.52ZM33 39.9v-7.52c0-.57.73-1.37 1.32-1.37h7.36L48 27H32.56C30.6 27 29 28.91 29 30.9V45l4-5.11ZM21.72 31h-7.39L8 27h15.16c1.96 0 3.84 1.63 3.84 3.63V45l-4-5.12v-7.5c0-.58-.7-1.38-1.28-1.38Z" fill="#fff"/><defs><linearGradient id="avn2mplkl" x1="10.42" y1="9.71" x2="68.15" y2="76.02" gradientUnits="userSpaceOnUse"><stop stop-color="#1A1E21"/><stop offset="1" stop-color="#06060A"/></linearGradient></defs></svg>