<!-- by TradingView --><svg width="56" height="56" xmlns="http://www.w3.org/2000/svg"><path fill="#F0F3FA" d="M0 0h56v56H0z"/><path d="M24.921 13.51c.417 1.196 1.549 2.122 2.925 2.122 1.4 0 2.544-.96 2.943-2.183.263-.807 1.008-1.643 1.825-1.409 1.205.346 2.354.824 3.43 1.417.733.404.68 1.488.299 2.232a3.098 3.098 0 004.131 4.187c.75-.37 1.837-.406 2.23.331a16.5 16.5 0 011.253 3.041c.243.813-.587 1.566-1.392 1.837-1.211.407-2.156 1.543-2.156 2.93 0 1.386.945 2.522 2.156 2.93.806.27 1.635 1.023 1.392 1.836a16.513 16.513 0 01-1.451 3.402c-.403.71-1.448.67-2.18.304a3.098 3.098 0 00-4.2 4.072c.346.74.357 1.786-.367 2.166-.96.506-1.977.92-3.037 1.233-.789.232-1.52-.537-1.798-1.31-.427-1.182-1.557-2.088-2.915-2.088s-2.489.906-2.915 2.088c-.28.773-1.01 1.542-1.799 1.31a16.559 16.559 0 01-3.476-1.472c-.664-.376-.678-1.315-.379-2.017a3.098 3.098 0 00-4.026-4.079c-.707.29-1.647.262-2.014-.407a16.51 16.51 0 01-1.358-3.262c-.232-.788.538-1.517 1.312-1.795 1.184-.426 2.09-1.555 2.09-2.911 0-1.357-.906-2.485-2.09-2.911-.774-.278-1.544-1.008-1.312-1.796a16.499 16.499 0 011.2-2.967c.37-.707 1.378-.72 2.11-.402a3.1 3.1 0 001.235.255 3.098 3.098 0 002.788-4.451c-.35-.717-.381-1.723.31-2.123a16.562 16.562 0 013.383-1.48c.812-.251 1.574.569 1.853 1.37zm3.088 24.77c5.677 0 10.28-4.596 10.28-10.265 0-5.67-4.603-10.265-10.28-10.265-5.678 0-10.28 4.596-10.28 10.265 0 5.669 4.602 10.264 10.28 10.264z" fill="#0B8BB1"/><path d="M31.683 21.14a.61.61 0 00.571.416.611.611 0 00.575-.427c.051-.158.197-.321.356-.276.235.068.46.162.67.278.143.079.133.29.058.436a.605.605 0 00.807.819c.147-.073.358-.08.435.064.1.188.183.387.245.595.047.159-.115.306-.272.359a.611.611 0 00-.42.573c0 .271.184.493.42.573.157.053.32.2.272.359-.07.234-.166.457-.283.665-.079.139-.283.13-.426.06a.605.605 0 00-.82.796c.067.145.07.349-.072.423-.187.1-.386.18-.593.241-.154.046-.296-.105-.35-.256a.611.611 0 00-.57-.408.612.612 0 00-.569.408c-.054.151-.197.302-.351.256a3.233 3.233 0 01-.679-.288c-.13-.073-.132-.257-.074-.394a.604.604 0 00-.557-.842.603.603 0 00-.229.045c-.138.056-.322.05-.393-.08-.11-.2-.2-.414-.265-.638-.046-.154.105-.297.256-.351a.611.611 0 00.408-.57.611.611 0 00-.408-.568c-.151-.055-.302-.197-.256-.351a3.23 3.23 0 01.234-.58c.072-.139.27-.141.412-.08a.605.605 0 00.785-.82c-.068-.14-.074-.336.061-.415.207-.12.428-.217.66-.289.159-.05.308.111.362.268zm.598 4.463a1.63 1.63 0 100-3.258 1.63 1.63 0 000 3.258zm-10.862-2.344a.61.61 0 00.57.415.611.611 0 00.575-.427c.052-.158.197-.321.356-.275.236.067.46.16.67.277.143.079.133.29.058.436a.605.605 0 00.807.819c.147-.073.359-.08.435.065.1.188.183.386.245.594.048.159-.115.306-.272.36a.61.61 0 00-.42.572c0 .271.184.493.42.573.157.053.32.2.272.359a3.23 3.23 0 01-.283.665c-.079.14-.283.131-.426.06a.605.605 0 00-.82.796c.068.145.07.349-.071.423-.188.1-.387.18-.593.241-.154.046-.297-.105-.352-.256a.611.611 0 00-.569-.408.611.611 0 00-.569.408c-.054.151-.197.302-.351.256a3.233 3.233 0 01-.679-.288c-.13-.073-.132-.257-.074-.394a.604.604 0 00-.557-.842.603.603 0 00-.229.045c-.138.056-.321.05-.393-.08-.11-.2-.2-.414-.265-.638-.045-.154.105-.296.256-.35a.611.611 0 00.408-.57.611.611 0 00-.408-.57c-.151-.053-.301-.196-.256-.35.06-.203.138-.397.234-.58.072-.139.27-.141.412-.079a.605.605 0 00.785-.82c-.068-.14-.074-.337.061-.415.207-.12.428-.218.66-.29.16-.049.308.111.363.268zm.597 4.462a1.63 1.63 0 100-3.258 1.63 1.63 0 000 3.258zm2.498 2.87a.61.61 0 00.57.415.611.611 0 00.575-.427c.052-.158.197-.321.356-.275.236.067.46.16.67.277.143.079.133.29.058.436a.605.605 0 00.807.819c.147-.073.359-.08.435.064.1.188.183.387.245.595.047.159-.114.306-.272.36a.61.61 0 00-.42.572.61.61 0 00.42.573c.158.053.32.2.272.359a3.23 3.23 0 01-.283.665c-.079.14-.283.131-.426.06a.604.604 0 00-.82.796c.068.145.07.349-.072.423-.187.1-.386.18-.593.241-.154.046-.296-.105-.35-.256a.611.611 0 00-.57-.408.611.611 0 00-.569.408c-.054.151-.197.302-.351.256a3.228 3.228 0 01-.679-.288c-.13-.073-.132-.257-.074-.394a.604.604 0 00-.557-.842.604.604 0 00-.229.045c-.138.056-.321.05-.393-.08-.11-.2-.2-.414-.265-.638-.045-.154.105-.297.256-.35a.611.611 0 00.408-.57.611.611 0 00-.408-.57c-.151-.054-.301-.196-.256-.35a3.23 3.23 0 01.234-.58c.072-.139.27-.141.412-.079a.605.605 0 00.785-.82c-.068-.14-.074-.337.061-.415a3.23 3.23 0 01.66-.29c.16-.049.308.111.363.268zm.597 4.462a1.63 1.63 0 100-3.258 1.63 1.63 0 000 3.258z" fill="#888"/><path d="M28.706 24.752l-3.014.652-.07-.318 3.015-.652.069.318zm-5.069 5.454l-.407-.815.291-.146.408.815-.292.146zm6.629-3.396l-3.013 3.911-.259-.199 3.014-3.91.258.199z" fill="#0B8BB1"/></svg>