<!-- by TradingView --><svg width="56" height="56" xmlns="http://www.w3.org/2000/svg"><path fill="#341A95" d="M0 0h56v56H0z"/><path d="M27 21v-4h5l7.5 6 1.5 6c0 12-12 16-16.5 16S17 42.5 17 42l7.5-1c3.333-2.167 10.1-7.6 10.5-12 0-4.5-5.167-7.167-8-8z" fill="url(#paint0_linear)"/><path d="M27 37h-5V11h4.5c6.935 0 15 6 14.5 19-1-9-10.167-13-14-13v20z" fill="url(#paint1_linear)"/><path d="M22 11l-5 3.5V42h4.5C28.435 42 36 36.5 35 29c-2 7-9.167 8-13 8V11z" fill="url(#paint2_linear)"/><defs><linearGradient id="paint0_linear" x1="29" y1="17" x2="29" y2="45" gradientUnits="userSpaceOnUse"><stop stop-color="#5A3B90"/><stop offset=".292" stop-color="#614397"/><stop offset=".615" stop-color="#8071B3"/><stop offset=".857" stop-color="#AEBADE"/><stop offset="1" stop-color="#C2DCF1"/></linearGradient><linearGradient id="paint1_linear" x1="41" y1="22.989" x2="22" y2="22.989" gradientUnits="userSpaceOnUse"><stop stop-color="#6C5DF4"/><stop offset=".437" stop-color="#8093D6"/><stop offset="1" stop-color="#9DE2AE"/></linearGradient><linearGradient id="paint2_linear" x1="17" y1="28" x2="42" y2="28" gradientUnits="userSpaceOnUse"><stop stop-color="#5B51EF"/><stop offset=".19" stop-color="#8367D3"/><stop offset=".45" stop-color="#B483AA"/><stop offset=".715" stop-color="#E7A081"/></linearGradient></defs></svg>