<!-- by TradingView --><svg width="56" height="56" viewBox="0 0 56 56" xmlns="http://www.w3.org/2000/svg"><path fill="url(#avpcnmuyf)" d="M0 0h56v56H0z"/><path d="M18.16 19C16.45 19 15 20.54 15 22.3V39h-3V22.3c0-3.48 2.76-6.3 6.16-6.3 3.4 0 5.84 2.82 5.84 6.3v11.95c0 .9.75 1.75 1.92 1.75.6 0 1.16-.47 1.43-1.03l7.73-16.29A4.7 4.7 0 0 1 39.3 16c2.6 0 4.7 2.15 4.7 4.8V39h-3V20.8c0-.93-.8-1.8-1.7-1.8-.63 0-1.2.48-1.48 1.06l-7.73 16.3A4.64 4.64 0 0 1 25.92 39C23.35 39 21 36.88 21 34.25V22.3c0-1.76-1.12-3.3-2.84-3.3Z" fill="#fff"/><defs><linearGradient id="avpcnmuyf" x1="10.42" y1="9.71" x2="68.15" y2="76.02" gradientUnits="userSpaceOnUse"><stop stop-color="#1A1E21"/><stop offset="1" stop-color="#06060A"/></linearGradient></defs></svg>