<!-- by TradingView --><svg xmlns="http://www.w3.org/2000/svg" width="56" height="56"><path fill="#1FC0DC" d="M0 0h56v56H0z"/><path d="M41.69 33h-7.26c-3.39-.02-3.15-.44-4.97-2.2a137.62 137.62 0 00-5.33-4.99c-1.06-.91-3.97-.81-3.97-.81h-5.02v16h6.01c1.34 0 3.17-1.6 3.17-1.6l4.66-4.93 1.59 1.68s-3.48 3.72-4.89 5.1C23.76 43.14 21.15 43 21.15 43H13V23h7.16c4.21 0 5.43 1.23 5.43 1.23s5.4 5.15 6.33 5.96c1.27 1.02 2.93.81 2.93.81h6.01V15h-5.02c-.16 0-1.55-.07-2.95.73-1.02.41-5.64 5.44-5.64 5.44l-1.67-1.54s3.72-3.91 4.47-4.63c.75-.72 2.1-2 5.79-2H43v20h-1.3z" fill="#fff"/></svg>