<!-- by TradingView --><svg width="56" height="56" xmlns="http://www.w3.org/2000/svg"><path fill="#0245B2" d="M0 0h56v56H0z"/><path d="M43.743 30.869a16.088 16.088 0 00-.023-5.862L38 23.997v7.981l5.743-1.11zm-.285 1.276l-5.225 1.003v.01l2.039 5.11a15.958 15.958 0 003.186-6.123zm-4.095 7.119l-.046.046-5.488-2.195 3.348-3.349 2.186 5.498zm-1.025.948a15.962 15.962 0 01-6.03 3.201l.922-5.252 5.108 2.05zm-7.305 3.5L32.05 38H24.08l1.112 5.754a16.1 16.1 0 005.842-.041zm-7.116-.238L22.9 38.172l-5.201 2.071a15.956 15.956 0 006.22 3.233zm-8.107-5.11l2.076-5.197-5.32-.933a15.959 15.959 0 003.244 6.13zm-3.536-7.402a16.091 16.091 0 01-.018-5.826L18 24.016v7.972l-5.726-1.026zm.266-7.099l5.337-1.026-2.063-5.205a15.958 15.958 0 00-3.274 6.231zm4.177-7.207l.001-.001 5.554 2.225-3.34 3.348-2.215-5.572zm.985-.902a15.958 15.958 0 016.103-3.198l-.925 5.268-5.178-2.07zm7.367-3.486l-1.01 5.784h7.982l-1.117-5.785A16.089 16.089 0 0028 12c-1.001 0-1.981.092-2.931.268zm7.13.289l1.012 5.257 5.122-2.03a15.959 15.959 0 00-6.133-3.227zm7.108 4.122l.061.062-2.19 5.487-3.349-3.348 5.478-2.2zm.954 1.04a15.958 15.958 0 013.163 6.013l-5.21-.914 2.047-5.098zm-12.206 8.942L31.793 19h-7.467l3.729 7.66zM19 24.264v7.467l7.723-3.738L19 24.263zm17.388-1.142l-3.463-3.453-3.52 6.973 6.983-3.52zM37 31.731v-7.467l-7.623 3.729L37 31.73zm-14.71 5.393l-.006-.007.007-.002v.01zm-.006-.007l-5.568 2.214 2.226-5.555 3.342 3.341zm14.104-4.245l-.006-.003.006-.006v.01zm-6.973-3.52l6.967 3.517-3.447 3.456-3.52-6.972zm-1.36-.037L24.326 37h7.467l-3.738-7.685zm-8.323-6.193l6.972 3.52-3.52-6.973-3.452 3.453zm0 9.74l.006.007-.006.003v-.01zm.006.007l3.447 3.456 3.52-6.972-6.967 3.516z" fill="#fff"/></svg>