<!-- by TradingView --><svg width="56" height="56" xmlns="http://www.w3.org/2000/svg"><path fill="#AFF3F9" d="M0 0h56v56H0z"/><path d="M43.804 24.798a10.821 10.821 0 00-1.183-3.176c-1.149-1.962-3.654-4.817-6.787-7.065 0 0-2.366-1.57-3.48-2.105-4.071-1.927-8.63-2.319-12.528 1.213-6.543 5.96-9.814 14.273-6.543 22.55.07.18 1.88 5.246 12.738 8.636 4.767.142 7.551-.143 10.614-1.963 4.002-2.355 6.334-6.636 7.169-10.99.244-1.32.278-5.78 0-7.1z" fill="#98F7D2"/><path d="M30.911 13.122v7.844l-8.378.534-3.305 3.939-1.302 6.008 3.539 5.608 4.473 1.97h6.075l4.973-.969V15.45s-3.514-2.82-5.811-3.497" fill="#AFF3F9"/><path d="M41.646 32.79c-1.252-.07-.556-2.105-1.113-4.424-.662-2.569.313-4.353 1.6-4.282a3.779 3.779 0 011.671.714 10.821 10.821 0 00-1.183-3.176c-1.149-1.962-3.489-4.817-6.621-7.065v21.261c0 .937-.946 1.922-1.821 2.123-.969.222-1.97-.298-2.381-1.195A8.097 8.097 0 0127.67 38c-4.499.125-8.678-3.18-8.671-8.071.007-4.891 3.93-8.581 8.427-8.592 1.462-.004 2.309.222 3.573.974v-8.26c-.006-.32.092-.638.225-.929a2.09 2.09 0 01.573-.747c-4.072-1.927-8.074-2.242-11.972 1.29-6.543 5.96-9.814 14.273-6.543 22.55.07.18.14.358.21.5.093-.2.223-.382.382-.535 1.705-1.784 3.584 1.856 7.587 3.96 2.54 1.321 4.002 3.07 4.559 4.71 3.723.465 7.551-.142 10.614-1.962 4.002-2.355 6.334-6.636 7.169-10.99a3.49 3.49 0 01-2.158.893zM28.008 15.879c.94-.036 1.81 1.106 1.844 1.641.035.535-.8.321-1.705.642-1.01.357-1.74.036-1.775-.5-.035-.535.658-1.748 1.636-1.783z" fill="#2F3D86"/><path d="M25.978 32.644c2.025 1.092 4.47.662 4.923-1.787.245-1.423.105-3.64-1.222-4.335-4.4-2.383-8.101 3.74-3.701 6.122z" fill="#2F3D86"/></svg>