<!-- by TradingView --><svg width="56" height="56" viewBox="0 0 56 56" xmlns="http://www.w3.org/2000/svg"><path fill="url(#a0jsxnz4l)" d="M0 0h56v56H0z"/><path d="m24.55 24.42 1.61-1.6c-4.41.3-7.16 4.08-7.16 8.47 0 4.63 3.36 7.63 7.66 7.63 5.09 0 7.34-4.19 7.34-8.39 0-5.74-.02-11.48 0-17.23 0-1.33 1.2-2.3 2.5-2.3 1.32 0 2.5.96 2.5 2.3V31.3C39 38.36 33.44 44 26.61 44 19.67 44 14 38.3 14 31.29c0-6.96 5.4-12.5 12.2-12.5l-1.7-1.68a2.26 2.26 0 0 1 0-3.14c.9-.85 2.34-.85 3.19 0L33 19.19c.85.89.85 2.3 0 3.15l-5.28 5.23c-.9.84-2.33.84-3.18 0a2.26 2.26 0 0 1 0-3.15Z" fill="#fff"/><defs><linearGradient id="a0jsxnz4l" x1="10.42" y1="9.71" x2="68.15" y2="76.02" gradientUnits="userSpaceOnUse"><stop stop-color="#1A1E21"/><stop offset="1" stop-color="#06060A"/></linearGradient></defs></svg>