<!-- by TradingView --><svg xmlns="http://www.w3.org/2000/svg" width="56" height="56"><path fill="#FEF704" d="M0 0h56v56H0z"/><path fill-rule="evenodd" d="M24.64 10.76c-.56 1.16-.01 2.43.78 3.46C15.15 15.72 13.36 25.35 13 31h4c.24-5 2.6-12.53 10.98-12.53S38.73 26 38.96 31h4c.32-5.11-1.46-14.94-11.39-16.7.53-1.26.9-3.02.31-3.54-.7-.63-1.5.1-1.82.53-.05-1.14-.48-3.4-1.73-3.29-1.26.12-1.63 2.4-1.65 3.54-1.02-1.56-1.78-1.17-2.04-.78zM24 25a1 1 0 112 0v1a1 1 0 11-2 0v-1zm7-1c-.55 0-1 .38-1 .85v1.3c0 .47.45.85 1 .85s1-.38 1-.85v-1.3c0-.47-.45-.85-1-.85zm-16.87 9H11v8h3.13c2.14 0 3.87-1.8 3.87-4s-1.73-4-3.87-4zm-.47 2H13v4h.66c1.27 0 2.34-.69 2.34-2s-1.07-2-2.34-2zM29 33h3.13c2.14 0 3.87 1.8 3.87 4s-1.73 4-3.87 4H29v-8zm2 2h.66c1.27 0 2.34.69 2.34 2s-1.07 2-2.34 2H31v-4zm-8 6a4 4 0 100-8 4 4 0 000 8zm0-2a2 2 0 100-4 2 2 0 000 4zm22-2a4 4 0 11-8 0 4 4 0 018 0zm-2 0a2 2 0 11-4 0 2 2 0 014 0z"/></svg>