<!-- by TradingView --><svg width="56" height="56" viewBox="0 0 56 56" xmlns="http://www.w3.org/2000/svg"><path fill="#014A7F" d="M0 0h56v56H0z"/><path d="m12 42 4.41-19h4.84l1.12-5h4.84l.91-3.91c14.2-1.04 16.43 7.8 15.78 12.35C41.81 38.58 31.27 42 25.2 42H12Z" fill="#fff"/><path d="M41.55 23.38c-1.6-6.9-8.51-7.77-11.77-7.38l-.51 2c9.85.21 10.37 7.35 9.33 10.77C36.26 35.6 28.74 38 25.74 38h-8l3.03-13h-2.8l-3.38 15H24c5.4 0 8.38-1.4 9.9-2.26 3.31-1.88 9.26-7.45 7.66-14.36Z" fill="#014A7F"/><path d="M30.53 20H23.9l-.65 3h6.79c1.36 0 3.38.71 3.2 3.17-.2 2.63-2.84 3.99-4.14 4.34l1.42 4.36c2.13-.82 6.29-3.9 6.47-8.45.18-4.55-4.46-6.42-6.47-6.42Z" fill="#014A7F"/><path d="m20.24 36 2.62-11h4.63c1.28 0 3.48-.13 3.34 1.5-.15 1.77-2.29 2.11-3.34 2.06h-3.7l-.45 1.92h3.3l1.47 5.22c-.47.15-1.18.3-1.47.3h-6.4Z" fill="#014A7F"/></svg>