<!-- by TradingView --><svg width="56" height="56" viewBox="0 0 56 56" xmlns="http://www.w3.org/2000/svg"><path fill="#008DE4" d="M0 0h56v56H0z"/><path d="M36.59 26.31a25.84 25.84 0 0 1-.75 3.66c-1 3.68-4.64 5.02-8.15 5.03H17.4c-.02 0-.03.03-.03.05l-1.1 5.9c0 .03.02.05.04.05h11.65a27 27 0 0 0 3.57-.22c1.58-.21 3.1-.73 4.53-1.56 3.38-1.95 5.3-5.55 6.2-9.31.44-1.87.7-3.7.73-5.47.07-2.58-.52-5.26-2.48-7.03a9.7 9.7 0 0 0-5.17-2.19 20.27 20.27 0 0 0-2.93-.22H20.78c-.02 0-.03 0-.03.03L19.8 21h10.65c1.61 0 4.54.04 5.49 1.48.72 1.1.79 2.58.64 3.83Zm-21.43-1.2c-1.4.3-2.2 1.33-2.52 2.77A79.93 79.93 0 0 0 12 31V31H23.5c.45 0 .82-.02 1.12-.07a3.1 3.1 0 0 0 2.56-2.2c.1-.29.18-.56.24-.83a97.88 97.88 0 0 0 .57-2.9H16.04c-.28 0-.57.04-.88.1Z" fill="#fff"/></svg>