<!-- by TradingView --><svg width="56" height="56" viewBox="0 0 56 56" xmlns="http://www.w3.org/2000/svg"><path fill="url(#abapdwmek)" d="M0 0h56v56H0z"/><path d="M36.98 24.9 19.9 15.1l3.71-2.1 16.91 9.73-3.55 2.18ZM42 22.74c0-.14-.1-.27-.22-.34L23.8 12.05a.4.4 0 0 0-.39 0l-4.6 2.63a.4.4 0 0 0 0 .67l4.35 2.5.78.48 12.67 7.5v4.14l-12.65-7.25-.01.9 12.85 7.36a.4.4 0 0 0 .4 0l4.6-2.62.2-.34v-5.29Z" fill="#70D463"/><path d="M18.5 40.12 15 37.99V18.32l1.6 1.05 1.9 1.16v19.59Zm5.26-22.82-4.59-2.66a.4.4 0 0 0-.4 0L14.2 17.3l-.04.03-.04.03c0 .02-.02.03-.03.05l-.03.03-.02.06-.02.04a.4.4 0 0 0-.01.1v20.68c0 .14.07.27.2.34l4.58 2.66a.4.4 0 0 0 .4 0c.11-.07.32-.2.32-.33V20.53l1.6-1.01 1.9-1.2v14.84h1V17.64c0-.14-.12-.27-.24-.34Z" fill="#2470D4"/><path d="M42 28.01v5.26c0 .14-.12.27-.24.34L23.78 43.95a.39.39 0 0 1-.3.04l-.03-.02-.06-.02-4.6-2.63c-.13-.07-.3-.2-.29-.34V35.7c0-.14.18-.27.3-.34L31.6 28h.01l.92.53-12.49 7.17 3.36 2.12 12.64-7.28.76.44a.4.4 0 0 0 .2.05h.07L24 38.55v4.25l17-9.83V28.8l.8-.44.2-.35Z" fill="#CED4E0"/><defs><linearGradient id="abapdwmek" x1="10.42" y1="9.71" x2="68.15" y2="76.02" gradientUnits="userSpaceOnUse"><stop stop-color="#1A1E21"/><stop offset="1" stop-color="#06060A"/></linearGradient></defs></svg>