<!-- by TradingView --><svg xmlns="http://www.w3.org/2000/svg" width="56" height="56"><path fill="#F0F3FA" d="M0 0h56v56H0z"/><path d="M35.9 38.3a14.49 14.49 0 006.04-12.69 8.5 8.5 0 00-8.87-12.5 14.5 14.5 0 00-19.48 9.27 8.5 8.5 0 003.58 14.28 14.53 14.53 0 003.7 2.75.93.93 0 00-.12.97 8 8 0 0015.14-2.07z" fill="#EE1A20"/><path d="M42 21a7 7 0 01-6.5 6.98v-2a5 5 0 10-3-.65v2.21A7 7 0 0130 25.9V32h-2V21a7 7 0 1114 0zm-9.1 6.68h.08v-3.3l.02.02V22h2v15a7 7 0 01-13.3 3.05l1.52-1.58a5 5 0 009.74-.83h.02v-.14L33 37v-.01c0-.2-.01-.4-.04-.6l-.02-1.73a7.48 7.48 0 01-10.33.53A7.53 7.53 0 0112 28.43c0-4.1 3.36-7.43 7.5-7.43v2a5.5 5.5 0 101.79 10.7A7.46 7.46 0 0120 29.1V20h2v9.27a5.4 5.4 0 001.02 3.45 5.49 5.49 0 00-.56-8.86V21.6A7.52 7.52 0 0125 23.38V17h2v11h-.01a7.42 7.42 0 01-2.6 6.05A5.53 5.53 0 0033 29.6v-.06c0-.13 0-.26-.02-.39v-1.44l-.08-.03z" fill="#FFFCFF"/></svg>