<!-- by TradingView --><svg width="56" height="56" xmlns="http://www.w3.org/2000/svg"><path fill="url(#paint0_linear)" d="M0 0h56v56H0z"/><path d="M27.018 11.398a2 2 0 011.986.037l5 2.984a2 2 0 01.075 3.388l-6.025 3.97a1 1 0 01-1.1-1.67l6.025-3.97-5-2.985-5.975 3.535v7.517l5.993 3.69 6.408-3.691a2 2 0 011.976-.012l6.108 3.984a1 1 0 01-.978 1.745l-6.108-3.984L29 29.626v7.261l6.404 3.943 6.082-4.242a1 1 0 011.028 1.716l-6.082 4.242a2 2 0 01-2.077-.013l-6.358-3.915-5.993 4.146a2 2 0 01-2.076.002l-5.964-4.173a2 2 0 01-.964-1.71V29.63a2 2 0 011.014-1.74l5.99-3.687v-7.516a2 2 0 011.04-1.754l5.974-3.535zm-6.015 14.538L15 29.63v7.252l5.964 4.174 5.107-3.606-6.067-3.66a1 1 0 111.033-1.713L27 35.674v-6.046l-5.997-3.692z" fill="#fff"/><defs><linearGradient id="paint0_linear" x1="0" y1="28" x2="56" y2="28" gradientUnits="userSpaceOnUse"><stop stop-color="#80E2FF"/><stop offset="1" stop-color="#5858CD"/></linearGradient></defs></svg>