<!-- by TradingView --><svg width="56" height="56" xmlns="http://www.w3.org/2000/svg"><path fill="#F6BE1D" d="M0 0h56v56H0z"/><path fill-rule="evenodd" d="M11 28c0-9.395 7.605-17 17-17 4.492 0 8.575 1.739 11.613 4.58-.448.43-.87.804-1.252 1.128-.988.834-2.032 1.709-3.597 2.57-1.145.632-2.054.965-3.725 1.577l-.056.02c-1.41.514-2.638.903-3.597 1.18-.254.07-.522.14-.776.195a15.042 15.042 0 00-5.29 2.264c-1.326.903-3.978 3.028-5.388 6.736-.424 1.111-1.284 3.458-.776 6.486.122.726.303 1.385.514 1.972A16.943 16.943 0 0111 28zm5.776 12.772A16.937 16.937 0 0028 45c9.395 0 17-7.605 17-17 0-4.206-1.524-8.052-4.05-11.02-.122.32-.256.646-.403.978l-.039.086c-.535 1.175-1.03 2.262-2.035 3.414-2.087 2.403-4.852 3.361-6.065 3.778-.025.01-.034.013-.164.054-.242.077-.898.287-2.84.918-.368.111-1.948.625-2.3.75-1.354.43-4.514 1.64-7.053 4.736-2.76 3.371-3.238 7.068-3.275 9.078zm24.55-24.876A17.935 17.935 0 0146 28c0 9.947-8.053 18-18 18s-18-8.053-18-18 8.053-18 18-18c4.77 0 9.105 1.852 12.325 4.877A28.383 28.383 0 0042 13c-.116.776-.318 1.77-.673 2.896zM31.59 31.347c-1.34-.07-2.892-.07-4.585.097-2.454.237-4.57.723-6.263 1.25.07-.222.197-.527.395-.888.776-1.39 1.975-2.153 3.526-2.931a35.841 35.841 0 015.897-2.361c1.27-.361 2.3-.736 3.06-1.042 1.073-.416 1.778-.694 2.639-1.222a11.712 11.712 0 002.073-1.57 10.795 10.795 0 01-.705 3.653l-.01.029c-.422 1.092-.947 2.453-2.317 3.555-1.369 1.097-2.892 1.36-3.71 1.43zm-7.223 4.792c-2.468-.25-3.09-.195-3.597-.111-.663.11-1.594.389-2.652 1.028a5.35 5.35 0 01.522-1.25c1.194-2.034 3.606-2.648 5.618-3.16l.024-.007a18.455 18.455 0 015.262-.556c.55.028 1.143.028 1.763 0a21.7 21.7 0 002.78-.305 7.292 7.292 0 01-1.651 2.5c-.494.5-1.016.875-1.538 1.166-1.439.82-3.103 1.112-4.74.903a83.038 83.038 0 00-1.79-.208zm-5.15 3.59a5.823 5.823 0 00-1.959.466c.24-.764.62-1.25.916-1.556 1.242-1.278 3.372-1.625 5.544-1.028.07.017.138.035.208.054.157.042.317.084.484.113.79.153 1.452.18 1.96.166.72-.013 1.41-.027 2.229-.347a5.02 5.02 0 001.298-.736c-.155.445-.804 2.111-2.61 3.083a5.565 5.565 0 01-1.298.487c-.62.138-1.255.18-1.89.11a21.625 21.625 0 01-1.227-.166 20.224 20.224 0 01-1.947-.444 5.458 5.458 0 00-1.636-.209l-.073.006z" fill="#FDFFFA"/></svg>