<!-- by TradingView --><svg width="56" height="56" xmlns="http://www.w3.org/2000/svg"><path fill="#F0F3FA" d="M0 0h56v56H0z"/><path d="M16 18.336V15h7.77L19 23l-3-4.664z" fill="url(#paint0_linear)"/><path d="M16 23v-4.678L19 23h-3z" fill="#91D1DC"/><path d="M16 41v-4.92L18.871 41H16z" fill="#7FCDDB"/><path d="M16 23v4.96L19 23h-3z" fill="url(#paint1_linear)"/><path d="M19 23l4.762-8 5.148 8H19z" fill="url(#paint2_linear)"/><path d="M18.86 41L24 32l4.91 9H18.86z" fill="url(#paint3_linear)"/><path d="M16 27.853L19 23l5 9h-8v-4.147z" fill="url(#paint4_linear)"/><path d="M16 36.13L18.867 41 24 32h-8v4.13z" fill="url(#paint5_linear)"/><path d="M27 23h-8l5 9 3-5.713V23z" fill="url(#paint6_linear)"/><path d="M27 15h-3.234l5.144 8 3.324-6H27v-2z" fill="url(#paint7_linear)"/><path d="M27 32h-3.003l4.917 9.004L32.242 35H27v-3z" fill="url(#paint8_linear)"/><path d="M24 32l2.995-6h3.362L34 32H24z" fill="url(#paint9_linear)"/><path d="M28.91 23l3.327-6h3.105L39 23H28.91z" fill="url(#paint10_linear)"/><path d="M28.91 41l3.327-6h2.995l3.653 6H28.91z" fill="url(#paint11_linear)"/><path d="M37.182 26h-6.82L34 32l3.182-6z" fill="url(#paint12_linear)"/><path d="M42 35h-6.79l3.658 6L42 35z" fill="url(#paint13_linear)"/><path d="M39 17h-3.662L39 23v-6z" fill="url(#paint14_linear)"/><path d="M42 41h-3.158L42 35.002V41z" fill="url(#paint15_linear)"/><path d="M38.456 26h-1.297L34 32h4.456v-6z" fill="url(#paint16_linear)"/><defs><linearGradient id="paint0_linear" x1="23.745" y1="15.013" x2="17.336" y2="20.513" gradientUnits="userSpaceOnUse"><stop stop-color="#56BCCF"/><stop offset=".75" stop-color="#00809C"/></linearGradient><linearGradient id="paint1_linear" x1="17.378" y1="27.959" x2="17.378" y2="23.018" gradientUnits="userSpaceOnUse"><stop stop-color="#28A4BB"/><stop offset="1" stop-color="#4CBBCF"/></linearGradient><linearGradient id="paint2_linear" x1="25.298" y1="17.43" x2="19.516" y2="23.016" gradientUnits="userSpaceOnUse"><stop offset=".045" stop-color="#C5E0E7"/><stop offset=".705" stop-color="#01A7C1"/></linearGradient><linearGradient id="paint3_linear" x1="25.597" y1="35.149" x2="19.483" y2="40.937" gradientUnits="userSpaceOnUse"><stop offset=".078" stop-color="#C3E0E8"/><stop offset=".629" stop-color="#01AAC1"/></linearGradient><linearGradient id="paint4_linear" x1="20.334" y1="25.543" x2="16.208" y2="31.511" gradientUnits="userSpaceOnUse"><stop stop-color="#C5E0E7"/><stop offset="1" stop-color="#21ADC4"/></linearGradient><linearGradient id="paint5_linear" x1="17.235" y1="37.517" x2="24.098" y2="32.134" gradientUnits="userSpaceOnUse"><stop stop-color="#027A98"/><stop offset=".773" stop-color="#48BBCE"/></linearGradient><linearGradient id="paint6_linear" x1="27.245" y1="23.604" x2="23.323" y2="32.049" gradientUnits="userSpaceOnUse"><stop offset=".191" stop-color="#3FB9CF"/><stop offset="1" stop-color="#007893"/></linearGradient><linearGradient id="paint7_linear" x1="30.563" y1="14.986" x2="26.587" y2="19.585" gradientUnits="userSpaceOnUse"><stop offset=".26" stop-color="#24A1B6"/><stop offset=".944" stop-color="#017F98"/></linearGradient><linearGradient id="paint8_linear" x1="30.981" y1="32.316" x2="28.017" y2="38.915" gradientUnits="userSpaceOnUse"><stop offset=".295" stop-color="#049EB7"/><stop offset="1" stop-color="#017A96"/></linearGradient><linearGradient id="paint9_linear" x1="31.101" y1="27.404" x2="23.94" y2="31.956" gradientUnits="userSpaceOnUse"><stop offset=".097" stop-color="#B1D8E2"/><stop offset=".623" stop-color="#03ABC5"/></linearGradient><linearGradient id="paint10_linear" x1="36.126" y1="18.842" x2="28.842" y2="22.896" gradientUnits="userSpaceOnUse"><stop offset=".095" stop-color="#A7D6DD"/><stop offset=".639" stop-color="#02A8C2"/></linearGradient><linearGradient id="paint11_linear" x1="36.006" y1="36.461" x2="29.337" y2="40.879" gradientUnits="userSpaceOnUse"><stop offset=".063" stop-color="#AAD9E1"/><stop offset=".761" stop-color="#02A3BD"/></linearGradient><linearGradient id="paint12_linear" x1="37.145" y1="26.079" x2="32.313" y2="28.95" gradientUnits="userSpaceOnUse"><stop offset=".175" stop-color="#18A0B9"/><stop offset="1" stop-color="#007994"/></linearGradient><linearGradient id="paint13_linear" x1="41.569" y1="35.007" x2="37.164" y2="37.859" gradientUnits="userSpaceOnUse"><stop offset=".258" stop-color="#0B9BB0"/><stop offset="1" stop-color="#007B95"/></linearGradient><linearGradient id="paint14_linear" x1="38.956" y1="17.024" x2="36.484" y2="20.629" gradientUnits="userSpaceOnUse"><stop offset=".231" stop-color="#3393A6"/><stop offset="1" stop-color="#037995"/></linearGradient><linearGradient id="paint15_linear" x1="39.34" y1="41.014" x2="41.687" y2="34.885" gradientUnits="userSpaceOnUse"><stop offset=".105" stop-color="#019FBC"/><stop offset=".655" stop-color="#5FC4D5"/></linearGradient><linearGradient id="paint16_linear" x1="38.456" y1="26.079" x2="34.395" y2="31.973" gradientUnits="userSpaceOnUse"><stop offset=".143" stop-color="#90D2DE"/><stop offset=".771" stop-color="#02A6C2"/></linearGradient></defs></svg>