<!-- by TradingView --><svg width="56" height="56" xmlns="http://www.w3.org/2000/svg"><path fill="#2B5EBA" d="M0 0h56v56H0z"/><path d="M28.311 12.115c1.93-.445 3.999 1.25 3.832 3.249.084 1.805-1.708 3.387-3.499 3.151a3.18 3.18 0 01-2.221-1.194 3.25 3.25 0 01-.458-3.304c.388-.972 1.332-1.694 2.36-1.902h-.014zm-12.593 3.332a4.93 4.93 0 015.956 3.43c.43 1.11.944 2.249 1.75 3.151.638.695 1.638.778 2.513.833.583.042 1.138-.125 1.666-.333 1.222-.375 2.596.736 2.457 2 0 1.055-1 1.943-2.04 1.86-.695 0-1.334-.458-1.667-1.055-.625-.93-1.43-1.944-2.624-2.083a4.97 4.97 0 00-3.18.514c-.624.291-1.18.736-1.846.972a4.914 4.914 0 01-4.749-.694 4.874 4.874 0 01-1.819-3.083 4.86 4.86 0 01.667-3.36 5.054 5.054 0 012.916-2.152zm20.521 5.832a6.595 6.595 0 017.678 5.303c.18 1.292.084 2.639-.472 3.833a6.596 6.596 0 01-9.719 2.804 6.595 6.595 0 012.513-11.968v.027zm-8.664 7.608c.445-.07.916-.083 1.333.14a2.02 2.02 0 011.11 1.943c-.096 1.083-1.166 1.944-2.248 1.763-1.07-.236-2.264-.5-3.305-.014a5.526 5.526 0 00-2.61 3.708 4.887 4.887 0 01-7.872 2.844 4.901 4.901 0 01-1.487-2.039 4.916 4.916 0 012.236-6.068 4.887 4.887 0 014.429-.11c1.208.61 2.485 1.124 3.832 1.249.972.07 1.736-.625 2.444-1.194.639-.5.764-1.403 1.416-1.888.208-.167.458-.278.722-.334zm1.07 8.234c1.804-.222 3.582 1.347 3.498 3.166a3.194 3.194 0 01-2.596 3.235c-1.291.278-2.736-.361-3.388-1.514a3.264 3.264 0 01.871-4.274 3.22 3.22 0 011.614-.613z" fill="#fff"/></svg>