<!-- by TradingView --><svg width="56" height="56" viewBox="0 0 56 56" xmlns="http://www.w3.org/2000/svg"><path fill="#F0F3FA" d="M0 0h56v56H0z"/><path d="m14.74 39.61 1.26-.77V26.38l-1.26-.88V39.6Z" fill="#3D00A2"/><path d="m41.3 39.7-1.3-.86V26.37l1.3-.93v14.25Z" fill="#CC512A"/><path d="M27.34 27.6 14.6 20.7l-1.44.88 12.69 6.84v2.03l1.5-1.07V27.6Z" fill="url(#aqikkjtqh)"/><path d="m28.66 27.6 12.74-6.9 1.46.9-12.72 6.81v2.04l-1.48-1.07V27.6Z" fill="url(#bqikkjtqh)"/><path d="m25.88 30.43-1.19.69-9.94-5.36v13.86L12 38.29v-15.9l1.19-.82 12.7 6.8v2.06Z" fill="url(#cqikkjtqh)"/><path d="m30.12 30.43 1.19.69 10-5.44V39.7L44 38.3v-15.9l-1.19-.82-12.7 6.8v2.06Z" fill="url(#dqikkjtqh)"/><path d="m24.74 31.09 1.14-.66v-2.05l-9.24-4.96-.58.89 8.68 4.93v1.85Z" fill="url(#eqikkjtqh)"/><path d="m31.26 31.09-1.14-.66v-2.05l9.24-4.96.58.89-8.68 4.93v1.85Z" fill="url(#fqikkjtqh)"/><path d="m18 32.51 2.56-1.85 6.98 3.89v2l-2.5 1.54-2.82-1.54v1.96l5.32 2.94v1.88L25.04 45 18 41.2V32.5Z" fill="url(#gqikkjtqh)"/><path d="m19.34 31.55 6.95 3.71v2.06l1.25-.77v-2l-6.98-3.89-1.22.89Zm2.88 5.01v1.95l5.32 2.94v1.88l-1.25.83v-1.88L21 39.26v-3.52l1.22.82Z" fill="url(#hqikkjtqh)"/><path d="m26.3 44.16-1.25.83v-1.97l-4.44-2.43.56-1.22 5.13 2.88v1.9Zm-.01-6.84-1.24.77-.05-.02v-1.98l-4.4-2.5 1-.83 4.69 2.47v2.1Z" fill="url(#iqikkjtqh)"/><path d="M28.47 34.4v1.9l2.58 1.74L38 34.28v-3.4l-1.25-.86-8.28 4.38Z" fill="url(#jqikkjtqh)"/><path d="M29.74 37.15V35.3L38 30.9l-1.25-.87-8.28 4.38v1.9l1.27.85Z" fill="url(#kqikkjtqh)"/><path d="m38 32.37-6.95 3.65v2.02L38 34.28v-1.91Z" fill="url(#lqikkjtqh)"/><path d="M28.47 41.36v1.9l2.58 1.73L38 41.24v-3.4l-1.25-.87-8.28 4.39Z" fill="url(#mqikkjtqh)"/><path d="M29.74 44.1v-1.85L38 37.84l-1.25-.87-8.28 4.39v1.9l1.27.85Z" fill="url(#nqikkjtqh)"/><path d="m38 39.32-6.95 3.65V45L38 41.24v-1.92Z" fill="url(#oqikkjtqh)"/><path d="M15 16.09v2.9l13.2 7.09 12.8-7.1v-2.6l-1.47-.94-11.33 6.2-1.59-.9 8.56-4.65v-2.9l-1.58-.94-11.22 6.16-1.58-.94 8.64-4.77v-2.69L27.8 9 15 16.1Z" fill="url(#pqikkjtqh)"/><path d="m31.29 19.94.76 1.25 8.9-4.85-1.42-.9-8.24 4.5Z" fill="url(#qqikkjtqh)"/><path d="m41 17.66-12.88 7L15 17.56v1.41l13.2 7.1 12.8-7.1v-1.32Z" fill="url(#rqikkjtqh)"/><path d="m29.43 11.3-9.87 5.47 1.29.67 8.58-4.74v-1.4Zm5.74 3.27-9.83 5.48 1.29.68 8.54-4.64v-1.52Z" fill="#0073D6"/><path d="m29.42 10-8.08 4.32L20.6 13l7.21-4L29.42 10Zm-3.88 6.67.93 1.2 8.6-4.74-1.48-.88-8.05 4.42Z" fill="url(#sqikkjtqh)"/><defs><linearGradient id="aqikkjtqh" x1="14.56" y1="21.34" x2="26.75" y2="29.06" gradientUnits="userSpaceOnUse"><stop stop-color="#6F00C3"/><stop offset="1" stop-color="#BD00F5"/></linearGradient><linearGradient id="bqikkjtqh" x1="41.44" y1="21.34" x2="29.25" y2="29.06" gradientUnits="userSpaceOnUse"><stop stop-color="#C94D28"/><stop offset="1" stop-color="#DE6B3A"/></linearGradient><linearGradient id="cqikkjtqh" x1="12" y1="26.41" x2="24.51" y2="25.97" gradientUnits="userSpaceOnUse"><stop stop-color="#9202CF"/><stop offset=".55" stop-color="#D64EAE"/><stop offset="1" stop-color="#F691B4"/></linearGradient><linearGradient id="dqikkjtqh" x1="44" y1="26.41" x2="31.49" y2="25.97" gradientUnits="userSpaceOnUse"><stop stop-color="#FE7115"/><stop offset=".55" stop-color="#FE9A37"/><stop offset="1" stop-color="#FFC377"/></linearGradient><linearGradient id="eqikkjtqh" x1="16.7" y1="24.54" x2="26.75" y2="29.3" gradientUnits="userSpaceOnUse"><stop stop-color="#BD31BB"/><stop offset="1" stop-color="#F85683"/></linearGradient><linearGradient id="fqikkjtqh" x1="39.3" y1="24.54" x2="29.25" y2="29.3" gradientUnits="userSpaceOnUse"><stop stop-color="#FF8B2B"/><stop offset="1" stop-color="#FFA429"/></linearGradient><linearGradient id="gqikkjtqh" x1="18" y1="37.13" x2="25.05" y2="37.83" gradientUnits="userSpaceOnUse"><stop stop-color="#BF27AF"/><stop offset=".36" stop-color="#CF34A2"/><stop offset="1" stop-color="#F790B3"/></linearGradient><linearGradient id="hqikkjtqh" x1="21.94" y1="39.85" x2="27.36" y2="35.41" gradientUnits="userSpaceOnUse"><stop stop-color="#5A00B5"/><stop offset="1" stop-color="#A000E3"/></linearGradient><linearGradient id="iqikkjtqh" x1="21.2" y1="39.29" x2="25.88" y2="39.48" gradientUnits="userSpaceOnUse"><stop stop-color="#D036A3"/><stop offset="1" stop-color="#FB5980"/></linearGradient><linearGradient id="jqikkjtqh" x1="37.81" y1="32.15" x2="30.23" y2="36.54" gradientUnits="userSpaceOnUse"><stop stop-color="#FE881E"/><stop offset="1" stop-color="#FFA529"/></linearGradient><linearGradient id="kqikkjtqh" x1="36.94" y1="30.51" x2="29.01" y2="36.56" gradientUnits="userSpaceOnUse"><stop stop-color="#D2592F"/><stop offset="1" stop-color="#DF6B3B"/></linearGradient><linearGradient id="lqikkjtqh" x1="37.62" y1="33.63" x2="31.05" y2="36.79" gradientUnits="userSpaceOnUse"><stop stop-color="#FE8A22"/><stop offset="1" stop-color="#FFC479"/></linearGradient><linearGradient id="mqikkjtqh" x1="37.81" y1="39.1" x2="30.23" y2="43.49" gradientUnits="userSpaceOnUse"><stop stop-color="#FE881E"/><stop offset="1" stop-color="#FFA529"/></linearGradient><linearGradient id="nqikkjtqh" x1="36.94" y1="37.46" x2="29.01" y2="43.51" gradientUnits="userSpaceOnUse"><stop stop-color="#D2592F"/><stop offset="1" stop-color="#DF6B3B"/></linearGradient><linearGradient id="oqikkjtqh" x1="37.62" y1="40.58" x2="31.05" y2="43.75" gradientUnits="userSpaceOnUse"><stop stop-color="#FE8A22"/><stop offset="1" stop-color="#FFC479"/></linearGradient><linearGradient id="pqikkjtqh" x1="16.28" y1="16.97" x2="41" y2="17.5" gradientUnits="userSpaceOnUse"><stop stop-color="#6EE3FA"/><stop offset=".66" stop-color="#2EC2EB"/><stop offset="1" stop-color="#5DC9EB"/></linearGradient><linearGradient id="qqikkjtqh" x1="32.13" y1="20.2" x2="40.57" y2="16.8" gradientUnits="userSpaceOnUse"><stop stop-color="#32C4EB"/><stop offset="1" stop-color="#00AADF"/></linearGradient><linearGradient id="rqikkjtqh" x1="15" y1="21.83" x2="41" y2="21.83" gradientUnits="userSpaceOnUse"><stop stop-color="#00A9DF"/><stop offset="1" stop-color="#0062D4"/></linearGradient><linearGradient id="sqikkjtqh" x1="31.41" y1="10.27" x2="22.66" y2="15.41" gradientUnits="userSpaceOnUse"><stop stop-color="#04ADE0"/><stop offset="1" stop-color="#61DCF6"/></linearGradient></defs></svg>