<!-- by TradingView --><svg width="56" height="56" xmlns="http://www.w3.org/2000/svg"><path fill="url(#paint0_linear)" d="M0 0h56v56H0z"/><path d="M27.946 10.326L43 18.966v17.277l-15.054 8.64L13 36.243V18.965l14.946-8.639z" fill="#fff"/><path d="M27.939 27.503L20 22.947v8.725l7.939 5.11v-9.279z" fill="#065198"/><path d="M28 27.896l8-4.58v8.77l-8 4.97v-9.16z" fill="#21B1F8"/><path d="M28 18.01l8.009 4.967L28 27.425l-7.929-4.447L28 18.01z" fill="#E82E9D"/><path d="M12.411 18.385a.53.53 0 00.192.725l14.872 8.658v16.865a.53.53 0 001.06 0V27.768l14.853-8.623a.53.53 0 10-.533-.916l-14.85 8.62-14.869-8.655a.53.53 0 00-.725.191z" fill="#0C0E15"/><circle cx="28" cy="13.873" r=".853" fill="#0C0E15"/><circle cx="28" cy="16.209" r=".853" fill="#0C0E15"/><circle cx="18.26" cy="32.678" r=".853" fill="#0C0E15"/><circle cx="15.922" cy="34.144" r=".853" fill="#0C0E15"/><circle r=".853" transform="matrix(-1 0 0 1 37.903 32.678)" fill="#0C0E15"/><circle r=".853" transform="matrix(-1 0 0 1 40.241 34.144)" fill="#0C0E15"/><defs><linearGradient id="paint0_linear" x1="10.418" y1="9.712" x2="68.147" y2="76.017" gradientUnits="userSpaceOnUse"><stop stop-color="#1A1E21"/><stop offset="1" stop-color="#06060A"/></linearGradient></defs></svg>