<!-- by TradingView --><svg width="56" height="56" viewBox="0 0 56 56" xmlns="http://www.w3.org/2000/svg"><path fill="url(#axlfn3muw)" d="M0 0h56v56H0z"/><path d="M16.1 24.56c.36.77 1.23 2.27 1.23 2.27L27.43 10l-9.85 6.94c-.59.4-1.07.93-1.4 1.55a7.25 7.25 0 0 0-.07 6.07ZM12.11 30.1a11.4 11.4 0 0 0 4.4 8.24L27.42 46s-6.81-9.9-12.56-19.77a10.02 10.02 0 0 1-1.16-3.36 5.43 5.43 0 0 1 0-1.61l-.44.85c-.58 1.2-.98 2.48-1.17 3.8-.12 1.4-.1 2.8.03 4.2ZM39.9 31.44a40.01 40.01 0 0 0-1.23-2.27L28.58 46l9.85-6.93c.58-.4 1.06-.93 1.4-1.56a7.25 7.25 0 0 0 .06-6.07ZM43.89 25.9a11.4 11.4 0 0 0-4.4-8.24L28.58 10s6.81 9.9 12.56 19.77c.58 1.04.97 2.18 1.15 3.36.08.53.08 1.08 0 1.61l.44-.85c.59-1.2.98-2.48 1.18-3.8.12-1.4.1-2.8-.03-4.2Z" fill="#fff"/><defs><linearGradient id="axlfn3muw" x1="11.5" y1="6" x2="49" y2="56" gradientUnits="userSpaceOnUse"><stop stop-color="#7C97FA"/><stop offset="1" stop-color="#53B1EF"/></linearGradient></defs></svg>