<!-- by TradingView --><svg xmlns="http://www.w3.org/2000/svg" width="56" height="56"><path fill="url(#avvqr4cxj)" d="M0 0h56v56H0z"/><path fill-rule="evenodd" d="M27.84 32.57L30 34.45c2.33 2.2 4.72 3.68 8.24 3.55A9.9 9.9 0 0048 28c0-5.5-4.37-10-9.76-10-2.36 0-4.63.57-6.33 2.1l-2.45 2.4 1.3 1.31 2.24-2.2c1.38-1.24 3.1-1.61 5-1.61 4.35 0 8 3.57 8 8s-3.54 8-7.89 8c-2.84.1-4.7-1.12-6.59-2.9l-2.15-2.21 1.45-1.5v.01l4.2-4.22a4.1 4.1 0 015.73 5.84c-1.59 1.61-4.24 1.1-5.55-.34l-1.65-1.54-1.47 1.54 1.63 1.66c2.18 2.1 6.3 2.35 8.6 0a6.1 6.1 0 00-.08-8.5 6.26 6.26 0 00-8.81-.03l-9.05 9.17c-1.88 1.78-3.64 3.13-6.48 3.02A7.9 7.9 0 0110 28.05 7.98 7.98 0 0117.89 20c1.9 0 3.73.48 5.1 1.72l3.64 3.54-4.59 4.54-1.23 1.26a4.05 4.05 0 01-4.87.7l3.42-3.48 3.5-3.64-.78-.8a5.7 5.7 0 00-8.34 0 6.09 6.09 0 000 8.5 5.82 5.82 0 008.34 0l7.12-7.11-1.25-1.26-3.86-3.76c-1.7-1.54-3.97-2.1-6.33-2.1A9.85 9.85 0 008 28.04c0 5.49 4.37 9.94 9.76 9.94 3.52.13 5.83-1.34 8.16-3.54l1.92-1.88zm-12.73-7.39c-1.39 1.42-1.4 3.28-.37 4.9l5.13-5.3c-1.73-1.15-3.37-1.02-4.76.4z" fill="url(#bvvqr4cxj)"/><defs><linearGradient id="avvqr4cxj" x1="10.42" y1="9.71" x2="68.15" y2="76.02" gradientUnits="userSpaceOnUse"><stop stop-color="#1A1E21"/><stop offset="1" stop-color="#06060A"/></linearGradient><linearGradient id="bvvqr4cxj" x1="49.3" y1="28" x2="9.23" y2="28" gradientUnits="userSpaceOnUse"><stop stop-color="#23ADDD"/><stop offset="1" stop-color="#28A6E1"/></linearGradient></defs></svg>