<!-- by TradingView --><svg width="56" height="56" viewBox="0 0 56 56" xmlns="http://www.w3.org/2000/svg"><path fill="#1B2B3A" d="M0 0h56v56H0z"/><path d="M13.3 24.2a3.19 3.19 0 0 1 1.46-4.21l15.82-7.68a3.06 3.06 0 0 1 4.12 1.5 3.19 3.19 0 0 1-1.46 4.2L17.42 25.7a3.06 3.06 0 0 1-4.12-1.5Z" fill="#37BEC1"/><path d="M14.31 35.08a3.43 3.43 0 0 1 1.52-4.47l10.6-5.28c1.6-.8 3.5-.09 4.26 1.59a3.43 3.43 0 0 1-1.52 4.47l-10.6 5.28c-1.6.8-3.5.09-4.26-1.59Z" fill="#FAB244"/><path d="M22.3 42.2a3.19 3.19 0 0 1 1.46-4.21l15.82-7.68a3.06 3.06 0 0 1 4.12 1.5 3.19 3.19 0 0 1-1.46 4.2L26.42 43.7a3.06 3.06 0 0 1-4.12-1.5Z" fill="#E5615D"/></svg>