<!-- by TradingView --><svg width="56" height="56" viewBox="0 0 56 56" xmlns="http://www.w3.org/2000/svg"><path fill="url(#a2miodetl)" d="M0 0h56v56H0z"/><path d="M45 28a17 17 0 0 1-27.75 13.17.95.95 0 0 1 0-1.45l.76-.69c.38-.33.95-.33 1.35-.01a14 14 0 0 0 20.6-18.3c-.27-.44-.2-1.01.17-1.35l.77-.68a.95.95 0 0 1 1.44.18A16.92 16.92 0 0 1 45 28Zm-8.34-11c.4.31.97.32 1.35-.02l.77-.68a.95.95 0 0 0 0-1.45 17 17 0 0 0-25.1 22.3c.31.5 1 .57 1.44.18l.76-.68c.38-.34.44-.9.18-1.34A14 14 0 0 1 36.66 17Z" fill="#F0F3FA"/><path d="M33.68 32.74c.27.13.38.46.23.72-1.2 2.15-3.12 3.54-5.27 3.54-3.67 0-6.64-4.03-6.64-9s2.97-9 6.64-9c2.16 0 4.08 1.4 5.3 3.58.14.25.03.57-.23.71l-.73.4a.6.6 0 0 1-.8-.28C31.42 21.94 30.32 21 29.1 21c-2.24 0-4.1 3.13-4.1 7s1.86 7 4.1 7c1.21 0 2.3-.91 3.04-2.36a.6.6 0 0 1 .79-.27l.75.37Z" fill="#F0F3FA"/><path d="M20.6 25.27c.09-.16.27-.27.48-.27h8.39c.4 0 .65.4.47.73l-.54 1a.54.54 0 0 1-.48.27h-8.39c-.4 0-.65-.4-.47-.73l.54-1ZM20.6 29.27c.09-.16.27-.27.48-.27h8.39c.4 0 .65.4.47.73l-.54 1a.54.54 0 0 1-.48.27h-8.39c-.4 0-.65-.4-.47-.73l.54-1Z" fill="#F0F3FA"/><defs><linearGradient id="a2miodetl" x1="6.5" y1="10" x2="52.5" y2="47.5" gradientUnits="userSpaceOnUse"><stop stop-color="#1AA3FF"/><stop offset="1" stop-color="#686CF4"/></linearGradient></defs></svg>