<!-- by TradingView --><svg width="56" height="56" viewBox="0 0 56 56" xmlns="http://www.w3.org/2000/svg"><path fill="#3E52B4" d="M0 0h56v56H0z"/><path d="m19.4 29.76-3.82 3.81-1.79 1.79A16.02 16.02 0 0 1 28 12c8.83 0 16.01 7.18 16.01 16a16.02 16.02 0 0 1-25.18 13.1c-.65-.46-1.28-.97-1.86-1.52l1.7-1.7L30.9 25.64a2.36 2.36 0 0 1 4.69-.05l5.63 5.63A13.6 13.6 0 0 0 28 14.4a13.62 13.62 0 0 0-13.27 16.65l3.62-3.62a2.36 2.36 0 0 1 4.64-.05l2.3 2.3-1.68 1.7-1.62-1.63a2.34 2.34 0 0 1-2.6.02Zm12.66-1.9L20.54 39.38a13.63 13.63 0 0 0 19.8-5.65l-5.88-5.89a2.34 2.34 0 0 1-2.4.02Zm1.23-3.08a1.06 1.06 0 1 0-.08 2.12 1.06 1.06 0 0 0 .08-2.12Zm-12.6 1.93a1.06 1.06 0 1 0 0 2.12 1.06 1.06 0 0 0 0-2.12Z" fill="#fff"/></svg>