<!-- by TradingView --><svg width="56" height="56" xmlns="http://www.w3.org/2000/svg"><path fill="#A25CF8" d="M0 0h56v56H0z"/><path d="M42.645 18.412a18.15 18.15 0 00-1.284-2.543c-.426-.688-.92-1.344-1.46-1.794a.194.194 0 00-.202-.028l-1.949.845a.201.201 0 00-.072.315c.386.452 1.293 1.53 1.598 2.022.379.612.758 1.366 1.097 2.179 2.431 5.846 1.403 19.404-6.938 19.052-1.926-.081-3.534-1.048-4.821-2.569-1.3-1.536-2.229-3.597-2.727-5.694-.502-2.108-.536-4.119-.177-5.53.18-.702.435-1.175.7-1.455a1.12 1.12 0 01.87-.38c.848 0 1.374.32 1.745.811.412.545.698 1.398.788 2.518.178 2.203-.572 5.398-1.635 7.351a.202.202 0 00.014.217L29.5 35.5a.196.196 0 00.332-.022c1.289-2.418 2.66-6.842 2.443-9.527-.112-1.397-.488-2.79-1.297-3.861-.85-1.125-2.104-1.793-3.698-1.793-1.061 0-1.962.428-2.643 1.149-.655.693-1.07 1.611-1.317 2.58-.493 1.933-.4 4.39.166 6.772.57 2.395 1.65 4.849 3.262 6.755 1.625 1.921 3.831 3.324 6.585 3.44 10.402.44 12.413-15.125 9.312-22.58zM14.502 37.05c-2.232-3.196-3.19-6.911-3.488-9.903a.198.198 0 01.123-.203l2.065-.842a.202.202 0 01.276.166c.296 2.834 1.193 6.711 3.038 9.353.936 1.34 2.062 2.286 3.408 2.688 1.306.39 3.143.13 5.334-.866a.202.202 0 01.242.057l1.494 1.882c.08.101.045.25-.073.303C24.5 41 21.21 41.282 19.225 40.69c-2.031-.607-3.573-1.993-4.723-3.64z" fill="#fff"/></svg>