<!-- by TradingView --><svg xmlns="http://www.w3.org/2000/svg" width="56" height="56"><path fill="#D5EEEF" d="M0 0h56v56H0z"/><path d="M31.97 29.24c-1-6.5-2-11-3.51-13-1.5-.5-5.91-1.2-7.52 0-1.6 1.2-1.84 6.5-2 9l6.01 2 4.51 5.5h1.5c.5-.17 1.4-1.1 1-3.5z" fill="#B0DEDE"/><path d="M28.28 23.92l1.5 1.5.36-.36-1.5-1.5-.36.36z" fill="#47443D"/><path d="M29.63 22.56a.25.25 0 00-.35.01l-2 2.2c-.1.1-.1.26 0 .36.11.09.27.08.36-.02l2-2.2c.1-.1.1-.26-.01-.35z" fill="#47443D"/><path d="M35.98 17.24v2.83l-.71.71a1 1 0 00-.3.7v1.76h-2v-2.8a.5.5 0 01.15-.34l.01-.01 2.85-2.85z" fill="#A39F99"/><path d="M17.93 25.24c0-2.47 1.03-6.8 1.53-8.63l.96.27c-.5 1.83-1.48 6.04-1.48 8.36h-1zm4.59-4.3c.31-1.73.69-3.4.95-4.33l.96.27c-.24.9-.62 2.53-.93 4.24a29.5 29.5 0 00-.55 4.62h-1c0-1.25.25-3.08.57-4.8zm7.7-1.84a6.91 6.91 0 00-.67-1.58l.83-.55c.29.43.56 1.09.8 1.82a26 26 0 01.65 2.51c.38 1.78.64 3.7.64 4.94h-1c0-1.15-.25-2.98-.62-4.73a25 25 0 00-.63-2.41z" fill="#47443D"/><path d="M17.93 14.24c8.83-.8 13.54.5 14.04 2l-1 2c-2.41-1.2-8.36-1.16-11.03-1l-1.18-.78a1 1 0 01-.42-.6l-.4-1.62z" fill="#FFBC50"/><path d="M18.4 16.14l-.21-.9c1.75-.5 7.4-.35 7.76 0 1 1 1 2.1 1 2.1-2.52-.25-5.38-.2-7.01-.1h-1l-.46-.9a1 1 0 01-.07-.2z" fill="#47443D"/><path d="M30.96 23.74c2.68-.17 8.62-.1 11.03 1.5 1.48.98 2.47 2.2 3 3 0 0 .23 1.22-.74 2l-1.26 1h-6.01l-1.2-1.6a1 1 0 00-.8-.4h-3.6a.88.88 0 01-.7-.3 17.92 17.92 0 01-1.45-2.22.93.93 0 01.01-.95c.44-.72 1.28-2 1.72-2.03z" fill="#FFBC50"/><path d="M33.97 35.24c2-.17 6.62-.9 9.02-2.5.72-.43 1.15-1 1.5-1.5 1-1.5.87-2.52.5-3-2 0-2.83 1.33-3 2l-5.01.5-1.21-1.2a1 1 0 00-.7-.3h-3.1s-.5 3-1 3h-2.51l-2-4.5-5.52-2.5-5.01.5-3.5 2.5 14.53 7h7.01z" fill="#47443D"/><path d="M44.5 31.24c1-1.5.86-2.52.5-3-.88 0-1.54.26-2 .6 0 .9.72 1.97 1.5 2.4z" fill="#FCFAFD"/><path d="M19.77 25.74a8.61 8.61 0 018.7 7.55.5.5 0 00.99-.1c-.5-4.76-4.66-8.45-9.69-8.45a9.82 9.82 0 00-8.27 4.43.5.5 0 00.84.54 8.81 8.81 0 017.43-3.97z" fill="#FFBC50"/><path d="M40.49 30.24a.5.5 0 00-.5-.5 7.51 7.51 0 00-7.45 6.43.5.5 0 001 .14 6.51 6.51 0 016.45-5.57.5.5 0 00.5-.5z" fill="#A6A29C"/><path d="M32 33.5a.5.5 0 00-.5-.5h-2.45v1h2.46a.5.5 0 00.49-.5zm-3.44 0c0 .28.22.5.49.5v-1a.5.5 0 00-.5.5z" fill="#FEBC50"/><path d="M35.48 18.74c0 .83.22 1.5.5 1.5.27 0 .5-.67.5-1.5 0-.82-.23-1.5-.5-1.5-.28 0-.5.68-.5 1.5z" fill="#A09B95"/><path d="M35.98 20.04zm0 0L36 20a.89.89 0 00.13-.26c.08-.24.14-.6.14-1s-.06-.75-.14-1a.9.9 0 00-.13-.25.19.19 0 00-.03-.04l-.04.04a.9.9 0 00-.13.26c-.08.24-.13.6-.13 1s.05.75.13 1c.04.12.09.2.13.25a.2.2 0 00.04.04zm0-2.6zm-.01 0zm0 2.6zm0 .2c-.27 0-.5-.67-.5-1.5 0-.82.23-1.5.5-1.5.28 0 .5.68.5 1.5 0 .83-.22 1.5-.5 1.5z" fill="#B2CCC9"/><path d="M11 35.32l.06.53a.58.58 0 00.42.5c.07.02.15.03.23.02l.63-.07c.1.44.24.86.42 1.27l-.55.32a.58.58 0 00-.21.8l.27.47a.59.59 0 00.8.2l.56-.32c.25.34.54.66.85.95l-.38.51a.58.58 0 00.12.81l.44.32a.59.59 0 00.81-.12l.39-.51c.38.21.78.4 1.2.54l-.15.62a.58.58 0 00.45.7l.53.12a.59.59 0 00.7-.45l.14-.62a7.46 7.46 0 001.41.01l.15.62a.58.58 0 00.47.45.6.6 0 00.23 0l.52-.12a.59.59 0 00.45-.7l-.14-.6c.43-.14.84-.32 1.23-.54l.36.48a.59.59 0 00.82.12l.43-.32a.58.58 0 00.13-.82l-.35-.46c.33-.3.63-.64.9-1l.5.3a.59.59 0 00.81-.2l.28-.46a.58.58 0 00-.2-.8l-.53-.3c.18-.42.32-.85.42-1.29l.63.07a.59.59 0 00.65-.51l.05-.54a.58.58 0 00-.3-.57.6.6 0 00-.21-.07l-.65-.07c0-.47-.05-.94-.15-1.4l.61-.2a.59.59 0 00.4-.52c0-.07 0-.15-.03-.22l-.17-.51a.58.58 0 00-.75-.37l-.6.2c-.19-.38-.4-.75-.66-1.1l.48-.43a.58.58 0 00.04-.83l-.36-.4a.59.59 0 00-.83-.03l-.48.42a7.32 7.32 0 00-1.03-.75l.26-.58a.58.58 0 00-.3-.77l-.48-.22a.59.59 0 00-.78.29l-.26.58a7.3 7.3 0 00-1.37-.29v-.64a.58.58 0 00-.58-.58h-.54a.59.59 0 00-.59.58v.64c-.46.05-.92.15-1.36.29l-.26-.58a.58.58 0 00-.78-.3l-.5.23a.59.59 0 00-.34.55c0 .08.02.15.05.22l.27.58c-.37.22-.71.48-1.04.76l-.47-.43a.59.59 0 00-.83.04l-.36.4a.58.58 0 00.04.82l.47.43v.01c-.25.35-.47.72-.65 1.1l-.61-.2a.6.6 0 00-.74.37l-.18.51a.58.58 0 00.37.74l.61.2c-.1.46-.14.94-.15 1.41l-.64.07a.59.59 0 00-.52.64z" fill="#47443D"/><path d="M13.04 30.04l.47.43v.01l13.26 7.42a.82.82 0 00-.05-.03l-.52-.31c.18-.41.32-.84.42-1.28l.63.07a.59.59 0 00.65-.51l.05-.54a.58.58 0 00-.3-.57.6.6 0 00-.21-.07l-.65-.07c0-.47-.05-.94-.15-1.4l.61-.2a.59.59 0 00.4-.52c0-.07 0-.15-.03-.22l-.17-.51a.58.58 0 00-.75-.37l-.6.2c-.19-.38-.4-.75-.66-1.1l.48-.43a.58.58 0 00.04-.83l-.36-.4a.59.59 0 00-.83-.03l-.48.42a7.32 7.32 0 00-1.03-.75l.26-.58a.58.58 0 00-.3-.77l-.48-.22a.59.59 0 00-.78.29l-.26.58a7.3 7.3 0 00-1.37-.29v-.64a.58.58 0 00-.58-.58h-.54a.59.59 0 00-.59.58v.64c-.46.05-.92.15-1.36.29l-.26-.58a.58.58 0 00-.78-.3l-.5.23a.59.59 0 00-.34.55c0 .08.02.15.05.22l.27.58c-.37.22-.71.48-1.04.76l-.47-.43a.59.59 0 00-.83.04l-.36.4a.58.58 0 00.04.82z" fill="#686259"/><path d="M14.65 34.6a4.81 4.81 0 003.95 4.74 4.89 4.89 0 005.43-2.97 4.8 4.8 0 00-3.62-6.51 4.9 4.9 0 00-5.3 2.68 4.8 4.8 0 00-.46 2.06z" fill="#686259"/><path d="M15.64 31.68l8.39 4.69a4.8 4.8 0 00-2.14-5.98 4.89 4.89 0 00-6.25 1.29z" fill="#47443D"/><path d="M19.48 38.31a3.7 3.7 0 01-3.71-3.69 3.7 3.7 0 013.7-3.69 3.7 3.7 0 013.72 3.69 3.7 3.7 0 01-3.71 3.69z" fill="#FFBC50"/><path d="M19.5 35.36a.76.76 0 01-.76-.76c0-.42.34-.76.77-.76a.76.76 0 110 1.52z" fill="#47443D"/><path d="M19.48 36.87a2.28 2.28 0 002.1-1.39 2.24 2.24 0 00-1.66-3.07 2.28 2.28 0 00-2.33.96 2.24 2.24 0 001.89 3.5zm0-4.12a1.9 1.9 0 011.74 1.16 1.86 1.86 0 01-1.37 2.55 1.9 1.9 0 01-1.94-.8 1.86 1.86 0 011.57-2.9z" fill="#47443D"/><path d="M21.43 32.1l.22.22c.1.1.1.26 0 .36-.1.1-.26.1-.36 0l-.22-.22a.25.25 0 010-.36c.1-.1.26-.1.36 0zm-1.03 1.3l.21.22c.1.1.1.26 0 .36-.1.1-.26.1-.36 0l-.22-.22a.25.25 0 010-.36c.1-.1.26-.1.36 0z" fill="#FFD591"/><path d="M33.94 37.6l.02.13a.54.54 0 00.39.47c.06.02.14.02.2.01l.28-.02c.08.31.18.62.31.92l-.24.14a.54.54 0 00-.2.74l.07.12a.55.55 0 00.75.2l.24-.15c.2.24.4.47.62.68l-.17.23a.54.54 0 00.11.76l.11.08a.55.55 0 00.76-.12l.18-.24c.28.15.57.28.87.38l-.07.3a.54.54 0 00.41.65l.13.03a.55.55 0 00.65-.41l.07-.32a5.44 5.44 0 001.01 0l.08.32a.54.54 0 00.65.41l.13-.03a.55.55 0 00.4-.64l-.07-.33c.3-.1.6-.23.87-.39l.2.26a.55.55 0 00.75.11l.11-.07a.54.54 0 00.12-.76l-.2-.26c.23-.22.44-.45.63-.7l.29.17a.55.55 0 00.75-.19l.06-.11a.54.54 0 00-.18-.74l-.31-.18c.12-.3.22-.6.28-.9l.38.05a.55.55 0 00.6-.48l.02-.13a.54.54 0 00-.48-.6l-.4-.04c0-.33-.03-.65-.1-.97l.37-.12a.55.55 0 00.34-.69l-.04-.12a.54.54 0 00-.69-.34l-.36.12a5.14 5.14 0 00-.45-.78l.28-.25a.54.54 0 00.03-.76l-.09-.1a.55.55 0 00-.77-.04l-.27.25c-.22-.2-.46-.38-.72-.54l.15-.32a.54.54 0 00-.28-.72l-.12-.05a.54.54 0 00-.72.27l-.14.31a5.2 5.2 0 00-.96-.22v-.33a.54.54 0 00-.34-.5.55.55 0 00-.2-.04h-.14a.55.55 0 00-.5.33.53.53 0 00-.04.21v.32c-.33.04-.66.1-.98.2l-.13-.28a.54.54 0 00-.72-.27l-.12.05a.54.54 0 00-.27.71l.12.28c-.26.16-.52.34-.75.54l-.22-.2a.55.55 0 00-.77.04l-.09.1a.54.54 0 00.04.76l.21.2c-.18.25-.34.52-.48.8l-.27-.09a.55.55 0 00-.68.34l-.05.13a.54.54 0 00.35.68l.26.1c-.07.33-.1.67-.1 1.02l-.28.03a.55.55 0 00-.49.6z" fill="#47443D"/><path d="M35.47 33.8l.22.2 9.47 5.35a.55.55 0 00-.13-.12l-.31-.18c.12-.29.22-.59.28-.9l.38.05a.55.55 0 00.6-.48l.02-.13a.54.54 0 00-.48-.6l-.4-.04c0-.33-.03-.65-.1-.97l.37-.12a.55.55 0 00.34-.69l-.04-.12a.54.54 0 00-.69-.34l-.36.12a5.14 5.14 0 00-.45-.78l.28-.25a.54.54 0 00.03-.76l-.09-.1a.55.55 0 00-.77-.04l-.27.25c-.22-.2-.46-.38-.72-.54l.15-.32a.54.54 0 00-.28-.72l-.12-.05a.54.54 0 00-.72.27l-.14.31a5.2 5.2 0 00-.96-.22v-.33a.54.54 0 00-.34-.5.55.55 0 00-.2-.04h-.14a.54.54 0 00-.54.54v.32c-.33.04-.66.1-.98.2l-.13-.28a.54.54 0 00-.72-.27l-.12.05a.54.54 0 00-.27.71l.12.28c-.26.16-.52.34-.75.54l-.22-.2a.55.55 0 00-.77.04l-.09.1a.54.54 0 00.04.76z" fill="#686259"/><path d="M36.27 36.98a3.68 3.68 0 003.11 3.65 3.73 3.73 0 004.12-2.47 3.67 3.67 0 00-1.78-4.43 3.73 3.73 0 00-4.7 1.03 3.67 3.67 0 00-.75 2.22z" fill="#47443D"/><path d="M36.27 36.98a3.68 3.68 0 003 3.62 3.73 3.73 0 004.15-2.23l-6.4-3.61a3.66 3.66 0 00-.75 2.22z" fill="#686259"/><path d="M39.97 39.85c-1.6 0-2.9-1.3-2.9-2.88 0-1.59 1.3-2.88 2.9-2.88 1.6 0 2.9 1.3 2.9 2.88 0 1.59-1.3 2.88-2.9 2.88z" fill="#FFBC50"/><path d="M39.98 37.74a.76.76 0 01-.76-.76.76.76 0 111.53 0c0 .42-.34.76-.77.76z" fill="#47443D"/><path d="M40.98 35.68l.22.22c.1.1.1.26 0 .36-.1.1-.26.1-.36 0l-.22-.22a.25.25 0 010-.36c.1-.1.26-.1.36 0z" fill="#FFD591"/><path d="M29.12 26.34c8.35-1 12.5 1.43 13.8 2.58l.14-.15c-1.36-1.2-5.57-3.63-13.96-2.63l.02.2z" fill="#FFD48F"/><path d="M34.97 23.24s-1-1-2-1.5v8.5h2v-7z" fill="#47443D"/><path d="M34.97 23.24s-.87-.87-1.8-1.4a4.78 4.78 0 00-.2-.1v8.5h2v-7zm-.2 6.8h-1.6v-7.96a8.3 8.3 0 011.6 1.25v6.7z" fill="#9F9C95"/><path d="M35.48 27.24a1 1 0 00-1-1h-1a1 1 0 00-1.01 1v2.5a1 1 0 001 1h1a1 1 0 001-1v-2.5z" fill="#48453E"/><path d="M35.27 27.24a.8.8 0 00-.8-.8h-1a.8.8 0 00-.8.8v2.5c0 .44.36.8.8.8h1a.8.8 0 00.8-.8v-2.5zm-.8-1a1 1 0 011 1v2.5a1 1 0 01-1 1h-1a1 1 0 01-1-1v-2.5a1 1 0 011-1h1z" fill="#A49F98"/></svg>