<!-- by TradingView --><svg width="56" height="56" viewBox="0 0 56 56" xmlns="http://www.w3.org/2000/svg"><path fill="url(#a)" d="M0 0h56v56H0z"/><path d="M15 15h6v6h-6v-6Zm10.5 0h5.7v5.7h-5.7V15ZM41 15h-5.5v5.5H41V15ZM15 35.5h5.5V41H15v-5.5Zm5.7-10.2H15V31h5.7v-5.7Zm5.3.2h5v5h-5v-5ZM28.25 41a2.25 2.25 0 1 0 0-4.5 2.25 2.25 0 0 0 0 4.5ZM41 38.75a2.25 2.25 0 1 1-4.5 0 2.25 2.25 0 0 1 4.5 0Zm-2.25-8.5a2.25 2.25 0 1 0 0-4.5 2.25 2.25 0 0 0 0 4.5Z" fill="#D9D9D9"/><defs><linearGradient id="a" x1="56" y1="16.5" x2="17.59" y2="51.12" gradientUnits="userSpaceOnUse"><stop stop-color="#2C2295"/><stop offset="1" stop-color="#020E3E"/></linearGradient></defs></svg>