<!-- by TradingView --><svg width="56" height="56" xmlns="http://www.w3.org/2000/svg"><path fill="#F0F3FA" d="M0 0h56v56H0z"/><path d="M29 34.34v14.27c0 .758-.476 1.12-1.064.8l-7.858-4.212a2.433 2.433 0 01-1.07-1.96V29.292c.118.095.243.177.375.25L29 34.34z" fill="#425CC7"/><path d="M19.902 27.733l16.205-8.309a1.91 1.91 0 00.89-1.571v-10.1c0-.626-.401-.914-.89-.664l-14.933 7.658c-1.54.827-2.254 1.216-2.167 2.962v9.36c0 .596.407.916.895.665z" fill="#005CB9"/><path d="M19.902 16.175l16.205 8.31c.542.344.876.936.89 1.577v10.094c0 .626-.401.92-.89.67l-16.205-8.31a1.916 1.916 0 01-.895-1.577V16.844c0-.618.407-.92.895-.669z" fill="#3CB4E5"/><path d="M19.902 27.734l11.27-5.78-11.27-5.778a.567.567 0 00-.626 0c-.163.3-.255.633-.269.976v9.786c.006.216.05.427.132.628.148.254.474.34.728.191.01-.008.023-.015.035-.023z" fill="#00A0DF"/></svg>