<!-- by TradingView --><svg width="56" height="56" xmlns="http://www.w3.org/2000/svg"><path fill="url(#paint0_linear)" d="M0 0h56v56H0z"/><path d="M22 20.47l-.178.197-4.074 4.542-1.228 1.37c-.921.921-1.53.302-1.52-.505v-4.307c.034-1.012.418-1.97 1.072-2.673.655-.703 1.528-1.095 2.436-1.094H22l-1.018 1.154-1.18 1.315H22z" fill="url(#paint1_linear)"/><path d="M40.422 22.907v.28a9.84 9.84 0 01-2.581 6.383L25.37 42.041a3.77 3.77 0 01-2.512.96 5.137 5.137 0 01-.75-.07l-.732-.227a17.815 17.815 0 01-2.285-.977l-.157-.087a.521.521 0 01-.21-.436.552.552 0 01.105-.332l13.989-14.006c.068-.073.126-.155.174-.244.087-.167.157-.342.21-.523a2.36 2.36 0 00.052-.349.9.9 0 00.017-.227c0-.62-.246-1.214-.684-1.652-.439-.439-1.033-.871-1.653-.871h-5.11l3.435-3.25a.98.98 0 00.262-.262.898.898 0 00.14-.488.89.89 0 00-.89-.89h-7.306s.713-.767.992-1.046c.628-.68 1.395-1.552 2.233-2.163a9.778 9.778 0 015.825-1.9c1.241 0 2.471.231 3.628.68l.471.191c.838.386 1.618.885 2.32 1.483l.14.122h.017a9.928 9.928 0 013.331 7.413v.017z" fill="url(#paint2_linear)"/><path d="M30.107 18H21.59l-4.427 4.038a.564.564 0 00-.116.618.586.586 0 00.537.344h9.563l3.695-3.643a.762.762 0 00.158-.48.868.868 0 00-.262-.62.902.902 0 00-.631-.257zm-3.678 2.509a.584.584 0 01-.403-.16.562.562 0 01-.175-.39.552.552 0 01.263-.464.555.555 0 01.297-.086.566.566 0 01.399.155.545.545 0 01.012.777.566.566 0 01-.393.168z" fill="#E35CC7"/><path d="M22.666 18.11h-1.203l-4.265 3.843A.61.61 0 0017.634 23H19.5l5.294-4.89h-2.128zm3.977 2.547a.558.558 0 100-1.116.558.558 0 000 1.116z" fill="#8961D0"/><path opacity=".48" d="M26.643 20.657a.558.558 0 100-1.116.558.558 0 000 1.116z" fill="url(#paint3_linear)"/><path opacity=".48" d="M27.184 20.099a.558.558 0 00-.54-.558.595.595 0 00-.49.279.573.573 0 01.591-.099.542.542 0 01.334.5v.017a.462.462 0 01-.07.262.542.542 0 00.175-.401z" fill="#480061"/><path opacity=".75" d="M30.105 18h-8.53l-4.411 4.038c-.34.342-.087.952.403.962h9.575l3.7-3.643a.761.761 0 00.158-.48.867.867 0 00-.262-.62.904.904 0 00-.633-.257zm-3.7 2.509a.57.57 0 01-.396-.161.55.55 0 01-.165-.39.552.552 0 01.263-.464.556.556 0 01.298-.085.567.567 0 01.386.167c.101.103.158.24.158.383a.56.56 0 01-.162.379.583.583 0 01-.382.17z" fill="url(#paint4_linear)"/><path d="M22.749 18H21.57l-4.376 3.969c-.429.391-.35 1.031.306 1.031h2.23L25 18h-2.251z" fill="url(#paint5_linear)"/><path opacity=".43" d="M28.5 23l2.3-3.61L27.14 23h1.36z" fill="url(#paint6_linear)"/><defs><linearGradient id="paint0_linear" x1="10.418" y1="9.712" x2="68.147" y2="76.017" gradientUnits="userSpaceOnUse"><stop stop-color="#1A1E21"/><stop offset="1" stop-color="#06060A"/></linearGradient><linearGradient id="paint1_linear" x1="15" y1="22.5" x2="22" y2="22.5" gradientUnits="userSpaceOnUse"><stop stop-color="#4750D9"/><stop offset=".41" stop-color="#5C45DC"/><stop offset="1" stop-color="#8131E1"/></linearGradient><linearGradient id="paint2_linear" x1="18.724" y1="28" x2="40.422" y2="28" gradientUnits="userSpaceOnUse"><stop stop-color="#E96161"/><stop offset=".2" stop-color="#E65B76"/><stop offset=".61" stop-color="#DF4AAC"/><stop offset="1" stop-color="#D739E6"/></linearGradient><linearGradient id="paint3_linear" x1="26.083" y1="20.099" x2="27.187" y2="20.099" gradientUnits="userSpaceOnUse"><stop stop-color="#B100D3"/><stop offset=".23" stop-color="#9C00C0"/><stop offset=".69" stop-color="#67008E"/><stop offset="1" stop-color="#40006A"/></linearGradient><linearGradient id="paint4_linear" x1="17.001" y1="20.5" x2="31" y2="20.5" gradientUnits="userSpaceOnUse"><stop stop-color="#D0D7D3"/><stop offset=".52" stop-color="#D9C5E8"/><stop offset="1" stop-color="#E3B1FF"/></linearGradient><linearGradient id="paint5_linear" x1="17.011" y1="20.5" x2="24.998" y2="20.5" gradientUnits="userSpaceOnUse"><stop stop-color="#B277EC"/><stop offset=".77" stop-color="#9336E7"/><stop offset="1" stop-color="#8921E6"/></linearGradient><linearGradient id="paint6_linear" x1="27.37" y1="21.381" x2="30.988" y2="21.381" gradientUnits="userSpaceOnUse"><stop stop-opacity=".5"/><stop offset=".1" stop-color="#201322" stop-opacity=".59"/><stop offset=".25" stop-color="#4A2C4E" stop-opacity=".72"/><stop offset=".4" stop-color="#6D4173" stop-opacity=".82"/><stop offset=".55" stop-color="#885190" stop-opacity=".9"/><stop offset=".85" stop-color="#A664B0"/></linearGradient></defs></svg>