<!-- by TradingView --><svg xmlns="http://www.w3.org/2000/svg" width="56" height="56"><path fill="#F0F3FA" d="M0 0h56v56H0z"/><path d="M14 40v-1.36c.47-.14 1.1-.1 1.6-.25l.33-.12c.5-.2.96-.54 1.3-.96.24-.3.44-.63.62-.98.25-.47.47-.96.67-1.45.4-1 .8-2 1.18-3.01l4.05-10.38c1.3-3.36 2.5-6.7 3.82-10.05.45-.13.85-.31 1.3-.44.6 1.52 1.19 3.08 1.73 4.62 1.78 5.04 3.56 10.07 5.38 15.08.5 1.37 1 2.74 1.52 4.11a13.15 13.15 0 001.09 2.29 3.1 3.1 0 001.84 1.35c.52.13 1.04.21 1.56.3V40H31v-1.26s.04-.04.13-.05c.43-.06 1.38-.14 1.8-.25a4.37 4.37 0 00.74-.3c.41-.23.58-.6.54-1.07a3.4 3.4 0 00-.11-.63c-.09-.32-.2-.64-.3-.94-2.18-6.14-4.32-12.28-6.45-18.44-.02-.07-.03-.14-.1-.2l-.06.04a.32.32 0 00-.04.1c-1.04 3.03-2.15 6.03-3.24 9.03a267 267 0 00-2.39 6.68c-.3.9-.6 1.8-.88 2.71-.1.35-.19.7-.24 1.06a2.7 2.7 0 00-.02.73c.03.32.2.6.46.8.55.4 2.57.63 3.16.77V40H14z"/></svg>