<!-- by TradingView --><svg width="56" height="56" viewBox="0 0 56 56" xmlns="http://www.w3.org/2000/svg"><path fill="url(#a4lh0x3cf)" d="M0 0h56v56H0z"/><path d="M32.57 22.11c-.92-3.08-.74-8.03-.53-10.11h-8.16c.74 4.28.12 8.53-.29 10.11-4.3 0-8.47-1.83-10.02-2.75L11 27.14c5.89 1.03 8.89 2.74 9.65 3.47-1.08 3.37-4.23 7.04-5.67 8.46L21.5 44c2.55-4.41 5.4-7.17 6.51-8 3.15 2.13 5.6 6.22 6.42 8l6.54-4.93c-3.4-3.49-5.16-7.1-5.61-8.46 3.27-2.02 7.79-3.15 9.64-3.47l-2.54-7.78c-3.47 1.69-8.04 2.54-9.9 2.75Z" fill="#fff"/><defs><linearGradient id="a4lh0x3cf" x1="10.42" y1="9.71" x2="68.15" y2="76.02" gradientUnits="userSpaceOnUse"><stop stop-color="#1A1E21"/><stop offset="1" stop-color="#06060A"/></linearGradient></defs></svg>