<!-- by TradingView --><svg xmlns="http://www.w3.org/2000/svg" width="56" height="56"><path fill="url(#a4dzoyi3l)" d="M0 0h56v56H0z"/><path d="M40 12l-1.1 2.94c-2.85 7.25-5.06 10.7-7.4 10.7-1.45 0-2.49-.68-3.5-1.63-.75-.71-1.06-.89-1.78-.89-.37 0-1.04.5-1.9 1.65A27.72 27.72 0 0021.36 30h10.08L30 33h-9v11h-3V12h22zm-4 3l-15-.03v10.67c1.88-3.38 4.87-7.22 8.62-3.81.55.51 1.06 1.1 1.87 1.1.66 0 2.32-2.53 4.51-7.93z" fill="#fff"/><defs><linearGradient id="a4dzoyi3l" x1="10.42" y1="9.71" x2="68.15" y2="76.02" gradientUnits="userSpaceOnUse"><stop stop-color="#1A1E21"/><stop offset="1" stop-color="#06060A"/></linearGradient></defs></svg>