<!-- by TradingView --><svg width="56" height="56" viewBox="0 0 56 56" xmlns="http://www.w3.org/2000/svg"><path fill="#F0F3FA" d="M0 0h56v56H0z"/><path d="M24.22 21.1c-4.26 6.6-6.86 15.78-7.88 18.9-.57-5.88 2.46-13.89 4.67-18.62-1.03.04-6 .55-9.01 3.69 0 0 1.19-5.16 10.56-6.7l.03-.06c7.34-10.88 12.86-4.39 12.86-4.39-3.35-.56-6.27 1.14-8.76 3.9 1.21-.06 9.05-.15 11.31 6.13 0 0-4.54-3.3-13.78-2.85Zm5.3 7.56a3.32 3.32 0 0 0-2.4 1 3.47 3.47 0 0 0-.99 2.45 3.42 3.42 0 0 0 4.7 3.2 3.38 3.38 0 0 0 1.84-1.87 3.43 3.43 0 0 0-3.14-4.78Z" fill="#203259"/></svg>