<!-- by TradingView --><svg width="56" height="56" xmlns="http://www.w3.org/2000/svg"><path fill="#B09B5E" d="M0 0h56v56H0z"/><path d="M13.285 24.002H19V25h-6.945l.14-.625C13.862 17.278 20.31 12 28 12c7.69 0 14.138 5.278 15.805 12.375l.14.625H37v-.998h5.715C40.939 17.648 35.029 13 28 13s-12.94 4.648-14.715 11.002zM12 31h7v1h-5.795C14.876 38.507 20.86 43 28 43s13.124-4.493 14.795-11H37v-1h7l-.125.571C42.325 38.824 35.8 44 28 44c-7.8 0-14.325-5.16-15.875-12.413L12 31zm19-10v-2.996l2 1.778V23h-6v2h-2v-4h6zm0 4.366V28h-6v8h-3.002l1.91 1.996H27V30h6v-2.765l-2-1.87z" fill="#fff"/></svg>