<!-- by TradingView --><svg width="56" height="56" viewBox="0 0 56 56" xmlns="http://www.w3.org/2000/svg"><path fill="#1969FF" d="M0 0h56v56H0z"/><path d="M16 14.77 27.93 8 40 14.77v26.26L27.93 48 16 41.03V14.77Z" fill="#fff"/><path d="m19 15.4 9-5.4 9 5.4-9 5.25-9-5.25ZM18 26v-9l8 4.52L18 26ZM29 32.5v-9l8 4.52-8 4.48ZM38 26v-9l-8 4.52L38 26ZM27 32.5v-9l-8 4.52 8 4.48Z" fill="#1969FF"/><path d="M18 40V29.56L28 35l10-5.44V40l-10 6-10-6Z" fill="#1969FF"/><path d="M11 43.19V37h2v5.2l5 2.58V47l-7-3.81ZM45 12.81V19h-2v-5.2l-5-2.58V9l7 3.81Z" fill="#fff"/></svg>