<!-- by TradingView --><svg width="56" height="56" xmlns="http://www.w3.org/2000/svg"><path fill="url(#paint0_linear)" d="M0 0h56v56H0z"/><path d="M16.69 16h21.12l4.771 9.543L31.76 41h-6.52L14.42 25.543 18.19 18h18.12l3.77 7.541L30.763 39h-4.524L16.92 25.541 19.69 20h15.12l2.77 5.539L29.763 37h-2.528L19.42 25.539 21.191 22h12.118l1.768 3.536L28.5 35.4l-6.577-9.865L22.69 24h9.118l.771 1.543-4.104 5.863L25.098 26H29v1h-2.098l1.621 2.594 2.896-4.137-.228-.457h-7.882l-.232.464L28.5 33.6l5.423-8.135L32.69 23H21.809l-1.23 2.461L27.763 36h1.472l7.185-10.539L34.191 21H20.309l-2.23 4.459L26.762 38h3.476l8.682-12.541L35.69 19H18.81l-3.229 6.457L25.76 40h5.48l10.18-14.543L37.19 17H17.31l-4.231 8.462L24.265 42h8.47l11.187-16.538-4.37-8.738.895-.448 4.63 9.262L33.266 43h-9.53L11.921 25.538 16.69 16z" fill="#fff"/><defs><linearGradient id="paint0_linear" x1="56" y1="17.5" x2="0" y2="45.5" gradientUnits="userSpaceOnUse"><stop stop-color="#3F59A1"/><stop offset="1" stop-color="#3B8DCE"/></linearGradient></defs></svg>