<!-- by TradingView --><svg width="56" height="56" viewBox="0 0 56 56" xmlns="http://www.w3.org/2000/svg"><path fill="#F0F3FA" d="M0 0h56v56H0z"/><path d="m41.88 18.7-.12-.07a.99.99 0 0 0-.12-.09l-12.22-7.1a2.65 2.65 0 0 0-.39-.18 2.16 2.16 0 0 0-2.1.03l-7.76 4.49-4.82 2.77a.99.99 0 0 0-.14.1l-.08.05c-.33.2-.6.47-.8.8-.19.33-.33.71-.33 1.1v14.55c0 .46.16.92.39 1.31.23.4.56.73.95.96l12.59 7.29a2.15 2.15 0 0 0 2.16 0l12.8-7.41a2.18 2.18 0 0 0 1.08-1.9V20.6a2.2 2.2 0 0 0-1.09-1.9Z" fill="#EC1966"/><path d="M13 20.93v14.4c0 .96.7 1.7 1.51 2.18l12.38 7.17c.61.36 1.12.07 1.11-.62V28.64c0-.32-.33-.63-.6-.8l-13.06-7.71a.87.87 0 0 0-1.08.14.92.92 0 0 0-.26.65v.01" opacity=".1"/><path d="m41.65 20.1-13.19 7.63a.94.94 0 0 0-.46.81v15.22c0 .69.66 1.18 1.26.83l12.4-7.13A2.7 2.7 0 0 0 43 35.1V20.9a.9.9 0 0 0-.53-.85.88.88 0 0 0-.8.06" opacity=".2"/><path d="M29.02 22a3.78 3.78 0 0 1-1.54-.33l-4.17-2.42a.63.63 0 0 1-.23-.84.6.6 0 0 1 .83-.23l4.14 2.4c.32.12.65.19 1 .18.98 0 1.71-.49 1.73-.93a.74.74 0 0 0-.33-.56.73.73 0 0 1-.07-.04l-.18-.1-3.35-1.97a.61.61 0 0 1-.29-.38.63.63 0 0 1 .22-.65.6.6 0 0 1 .68-.04l3.48 2.04c.02 0 .04.02.05.03a1.95 1.95 0 0 1 1 1.62l.01.03c0 1.23-1.3 2.19-2.95 2.19h-.03ZM34.55 38a.47.47 0 0 1-.37-.2.83.83 0 0 1-.18-.49v-6.63c0-.14.03-.28.1-.4.05-.11.14-.2.24-.25.1-.05.21-.06.32-.03.1.04.2.11.26.22L37 33.26v-4.57c0-.18-.01-.36.08-.49.1-.13.24-.2.38-.2s.27.07.37.2c.1.13.17.3.17.49v6.42c0 .14-.03.27-.1.39a.58.58 0 0 1-.24.25.4.4 0 0 1-.31.03.53.53 0 0 1-.27-.22L35 32.53v4.78c0 .18.03.36-.07.49s-.23.2-.37.2ZM17.2 36.42c.12.13.28.2.44.2.33 0 .36-.32.36-.68v-2.59l3.21 1.92c.1.06.2.09.3.09.14 0 .27-.05.38-.14a.73.73 0 0 0 .19-.8.66.66 0 0 0-.27-.33l-3.75-2.24a.59.59 0 0 0-.06-.03V29.1l4.08 2.7a.59.59 0 0 0 .47.06.6.6 0 0 0 .21-.12.72.72 0 0 0-.08-1.12l-4.76-2.92a.58.58 0 0 0-.61 0 .65.65 0 0 0-.23.25.72.72 0 0 0-.08.33v7.66c0 .17.09.34.2.47Z" fill="#fff"/></svg>