<!-- by TradingView --><svg width="56" height="56" viewBox="0 0 56 56" xmlns="http://www.w3.org/2000/svg"><path fill="url(#a)" d="M0 0h56v56H0z"/><path d="m43 17.14-4.7 4.7a11.94 11.94 0 0 1 0 12.32l4.7 4.7L38.86 43l-4.7-4.7a11.94 11.94 0 0 1-12.32 0l-4.7 4.7L13 38.86l4.7-4.7a11.94 11.94 0 0 1 0-12.32l-4.7-4.7L17.14 13l4.7 4.7a11.94 11.94 0 0 1 12.32 0l4.7-4.7L43 17.14ZM28 20.5a7.5 7.5 0 1 0 0 15 7.5 7.5 0 0 0 0-15Z" fill="#F8FAFC"/><defs><linearGradient id="a" x1="10.42" y1="9.71" x2="68.15" y2="76.02" gradientUnits="userSpaceOnUse"><stop stop-color="#1A1E21"/><stop offset="1" stop-color="#06060A"/></linearGradient></defs></svg>