<!-- by TradingView --><svg width="56" height="56" viewBox="0 0 56 56" xmlns="http://www.w3.org/2000/svg"><path fill="url(#a0w4uznf0)" d="M0 0h56v56H0z"/><path d="M17 25h-4v-2h4c0-.06 0 .05 0 0 0-.66-.04-1.66 0-2.32.08-1.25 0-2.4.71-3.43a5.02 5.02 0 0 1 3.02-2.02c1-.25 2-.27 3.02-.18 1.05.1 2.09.34 3.07.74l.18.08-.68 1.78-.41-.17a7.52 7.52 0 0 0-4.02-.42c-1.56.26-2.89 1.42-2.89 3.2V23h6v2h-6v14h-2V25Z" fill="#fff"/><path d="M37.5 32s0 .01 0 0c0 0 0-.01 0 0l2.5-5h-2l-2 4-2-4h-2l2.5 5s0 .01 0 0L32 37h2l2-4 2 4h2l-2.5-5Zm-6.46 5.92L29.79 39c-3.52-3.43-3.9-10.01-.02-14l1.26 1.1C29.43 28.04 29 29.47 29 32c0 1.95.81 4.44 2.04 5.92Zm9.92 0L42.22 39c3.5-3.43 3.9-10.01.01-14l-1.26 1.1C42.57 28.04 43 29.43 43 32c0 2.05-.82 4.41-2.04 5.92Z" fill="#F7D509"/><defs><linearGradient id="a0w4uznf0" x1="10.42" y1="9.71" x2="68.15" y2="76.02" gradientUnits="userSpaceOnUse"><stop stop-color="#1A1E21"/><stop offset="1" stop-color="#06060A"/></linearGradient></defs></svg>