<!-- by TradingView --><svg width="56" height="56" viewBox="0 0 56 56" xmlns="http://www.w3.org/2000/svg"><path fill="#F0F3FA" d="M0 0h56v56H0z"/><path d="M45 28a17 17 0 1 1-34 0 17 17 0 0 1 34 0Z" fill="url(#ala5y42bi)"/><path d="M44 28a16 16 0 1 1-32 0 16 16 0 0 1 32 0Z" fill="url(#bla5y42bi)"/><path fill-rule="evenodd" d="M28 44a16 16 0 1 0 0-32 16 16 0 0 0 0 32Zm0-.26c8.6 0 15.58-7.01 15.58-15.66S36.6 12.42 28 12.42s-15.58 7.01-15.58 15.66S19.4 43.74 28 43.74Z" fill="url(#cla5y42bi)"/><path d="M41.12 28a13.12 13.12 0 1 1-26.24 0 13.12 13.12 0 0 1 26.24 0Z" fill="url(#dla5y42bi)"/><path fill-rule="evenodd" d="M28 40.97a12.97 12.97 0 1 0 0-25.94 12.97 12.97 0 0 0 0 25.94Zm0 .15a13.12 13.12 0 1 0 0-26.24 13.12 13.12 0 0 0 0 26.24Z" fill="#5F1E60"/><path fill-rule="evenodd" d="M28 39.9a11.9 11.9 0 1 0 0-23.8 11.9 11.9 0 0 0 0 23.8Zm0 .16a12.06 12.06 0 1 0 0-24.12 12.06 12.06 0 0 0 0 24.12Z" fill="#5F1E60"/><path d="M31.9 29.3H19.04l-.67.69a9.84 9.84 0 1 0 0-3.93l.67.65h11.92l.96 2.58Zm-12.93-2.44-.78-.75a10 10 0 1 1 .01 3.83l.77-.8h12.72l-.85-2.28H18.97Z" fill="#5F1E60"/><path d="m19.6 24.87.76.8h8.52v.15h-8.59l-.86-.91.02-.04a9.11 9.11 0 0 1 17.65 2.92v.07h-1l-1.43-1.29v-.27h.15v.2l1.34 1.21h.8a8.96 8.96 0 0 0-17.36-2.84ZM28 36.96c4.62 0 8.42-3.5 8.9-7.99l.15.02a9.1 9.1 0 0 1-17.6 2.14l-.03-.06.06-.03h.01l.1-.1.68-.68.02-.02h10.42v.15H20.36a22.2 22.2 0 0 1-.75.74A8.96 8.96 0 0 0 28 36.96Z" fill="#5F1E60"/><path d="M21.16 23.91a8 8 0 0 1 14.9 3.9h.14A8.15 8.15 0 0 0 21 23.9l-.03.05.68.68h7.68v-.15h-7.62l-.55-.56ZM28.05 36A8 8 0 0 0 36 28.92l.15.02a8.16 8.16 0 0 1-15.14 3.19l-.03-.05.7-.68h9.61v.15h-9.55l-.57.55a8 8 0 0 0 6.88 3.9Z" fill="#5F1E60"/><path fill-rule="evenodd" d="m18.21 28-1.07.89a10.9 10.9 0 1 0 0-1.9L18.22 28Zm-1.23.82a11.05 11.05 0 1 0 .01-1.78l1 .96-1.01.82Z" fill="#5F1E60"/><path d="M28.17 14.81c0-.17.16-.3.34-.3l1.1.08c.18.02.31.17.3.34V15a.32.32 0 0 1-.34.3l-1.11-.08a.32.32 0 0 1-.3-.34v-.06ZM31.02 15.19a.32.32 0 0 1 .39-.23l1.07.28c.17.05.28.22.23.4l-.01.04a.32.32 0 0 1-.4.23l-1.07-.28a.32.32 0 0 1-.23-.4l.02-.04ZM27.2 14.84a.32.32 0 0 0-.35-.28l-1.1.12a.32.32 0 0 0-.29.35v.06c.03.17.18.3.36.28l1.1-.12c.18-.02.3-.18.29-.35v-.06ZM24.29 15.34a.32.32 0 0 0-.4-.2l-1.06.37a.32.32 0 0 0-.2.4l.02.05c.06.17.24.26.4.2l1.06-.37a.32.32 0 0 0 .2-.4l-.02-.05ZM21.66 16.42a.32.32 0 0 0-.45-.09l-.92.63c-.14.1-.18.3-.08.45l.03.04c.1.14.3.18.44.08l.92-.63c.15-.1.19-.3.09-.44l-.03-.04ZM19.34 18.02a.32.32 0 0 0-.45.01l-.76.81a.32.32 0 0 0 0 .45l.05.04c.12.12.33.11.45-.01l.76-.81a.32.32 0 0 0-.01-.45l-.04-.04ZM17.45 20.14a.32.32 0 0 0-.44.1l-.6.93c-.1.15-.06.35.09.44l.04.03c.15.1.35.05.45-.1l.6-.93a.32.32 0 0 0-.1-.44l-.04-.03ZM16 22.61a.32.32 0 0 0-.4.19l-.4 1.04c-.06.17.02.35.19.41l.05.02c.16.06.35-.02.4-.18l.4-1.05a.32.32 0 0 0-.18-.4L16 22.6ZM15.13 25.26a.32.32 0 0 0-.36.28l-.14 1.1c-.02.18.1.33.28.36h.05c.17.03.33-.1.36-.27l.14-1.1a.32.32 0 0 0-.28-.36l-.05-.01ZM14.85 28.14a.32.32 0 0 0-.3.34l.1 1.11c0 .18.16.31.33.3h.06c.17-.02.3-.17.29-.35l-.08-1.1a.32.32 0 0 0-.35-.3h-.05ZM15.12 30.98a.32.32 0 0 0-.19.41l.39 1.05c.06.16.24.25.4.18l.06-.01a.32.32 0 0 0 .19-.41l-.4-1.05a.32.32 0 0 0-.4-.19l-.05.02ZM16.08 33.68c-.15.1-.2.29-.11.44l.57.95c.1.15.3.2.44.11l.05-.02c.15-.1.2-.3.1-.44l-.57-.96a.32.32 0 0 0-.44-.1l-.04.02ZM17.61 36.08a.32.32 0 0 0-.02.45l.74.84c.12.13.32.14.45.02l.04-.03a.32.32 0 0 0 .02-.45l-.74-.83a.32.32 0 0 0-.45-.03l-.04.03ZM19.6 38.15c-.1.14-.07.34.07.44l.9.65c.15.1.35.07.45-.07l.03-.04a.32.32 0 0 0-.07-.45l-.9-.65a.32.32 0 0 0-.45.07l-.03.05ZM21.94 39.68c-.07.16 0 .35.16.42l1.02.46c.16.07.35 0 .42-.16l.02-.05a.32.32 0 0 0-.16-.42l-1.01-.46a.32.32 0 0 0-.42.16l-.03.05ZM24.6 40.8c-.03.17.1.33.27.35l1.11.13c.18.02.33-.1.35-.28l.01-.05a.32.32 0 0 0-.28-.36l-1.1-.12a.32.32 0 0 0-.36.28v.05ZM27.35 41.16c.01.17.16.31.33.3l1.12-.03c.17 0 .31-.15.3-.33v-.05a.32.32 0 0 0-.33-.3l-1.1.03a.32.32 0 0 0-.32.33v.05ZM30.22 40.99c.05.17.22.27.39.23l1.08-.27a.32.32 0 0 0 .23-.38v-.05a.32.32 0 0 0-.4-.24l-1.08.27a.32.32 0 0 0-.23.39l.01.05ZM32.98 40.22c.08.15.27.21.43.13l.99-.51a.32.32 0 0 0 .13-.43l-.02-.05a.32.32 0 0 0-.43-.13l-1 .51a.32.32 0 0 0-.13.43l.03.05ZM35.43 38.92c.11.14.31.15.45.04l.84-.73a.32.32 0 0 0 .03-.45l-.03-.04a.32.32 0 0 0-.45-.04l-.85.73a.32.32 0 0 0-.03.45l.04.04ZM37.62 37.03c.13.1.33.09.44-.05l.7-.86a.32.32 0 0 0-.04-.45l-.04-.03a.32.32 0 0 0-.45.04l-.7.87c-.11.13-.1.33.04.44l.05.04ZM39.4 34.84c.17.07.36 0 .43-.16l.48-1a.32.32 0 0 0-.15-.43l-.05-.02a.32.32 0 0 0-.42.15l-.48 1c-.08.17-.01.36.15.43l.05.03ZM40.5 32.28c.17.05.34-.05.4-.21l.32-1.07a.32.32 0 0 0-.2-.4l-.06-.01a.32.32 0 0 0-.4.2l-.32 1.07c-.06.17.04.35.2.4l.06.02ZM41.15 29.25c.17 0 .32-.13.33-.3l.08-1.11a.32.32 0 0 0-.3-.34h-.05a.32.32 0 0 0-.34.3l-.07 1.1c-.02.18.12.33.3.34h.05ZM33.72 16c.1-.15.3-.2.44-.1l.95.58c.15.1.2.3.1.44l-.03.05c-.1.15-.29.2-.44.1l-.94-.59a.32.32 0 0 1-.1-.44l.02-.04ZM36.06 17.56a.32.32 0 0 1 .45-.03l.83.75c.13.12.14.32.02.45l-.03.04a.32.32 0 0 1-.45.02l-.83-.74a.32.32 0 0 1-.03-.45l.04-.04ZM38.17 19.6c.14-.12.34-.1.45.04l.69.88c.1.14.09.34-.05.45l-.04.03a.32.32 0 0 1-.45-.05l-.7-.88a.32.32 0 0 1 .06-.45l.04-.03ZM39.75 21.91c.16-.07.34 0 .42.17l.45 1.01c.07.16 0 .35-.16.42l-.05.03a.32.32 0 0 1-.42-.17l-.45-1.01a.32.32 0 0 1 .16-.42l.05-.03ZM40.8 24.55c.17-.03.34.08.37.26l.21 1.1a.32.32 0 0 1-.25.36l-.05.01a.32.32 0 0 1-.38-.25l-.2-1.1a.32.32 0 0 1 .24-.37h.06Z" fill="#561E5D"/><path d="M34.38 25.05a.37.37 0 1 1 .74 0v.93a.37.37 0 1 1-.74 0v-.93ZM22.55 25.34a.37.37 0 1 1 0 .75h-.93a.37.37 0 1 1 0-.75h.93ZM22.55 26.4a.37.37 0 1 1 0 .75h-.93a.37.37 0 1 1 0-.74h.93ZM22.55 27.47a.37.37 0 1 1 0 .74h-.93a.37.37 0 1 1 0-.74h.93Z" fill="#601D60"/><path d="M34 29.07v6.2a5.52 5.52 0 0 1-2.31 1.59c-.92.32-1.95.5-3.08.5a6.9 6.9 0 0 1-5.04-1.95 6.71 6.71 0 0 1-1.87-3.65h-.82V30.7h.71v-.6h-.7v-1.06h.84c.25-1.28.85-2.41 1.8-3.37.5-.53 1.1-.92 1.7-1.24a2.45 2.45 0 0 1-.34-.88 2.09 2.09 0 0 1-.08-.5v-.39c0-.14 0-.24.04-.35 0-.07.07-.14.14-.18.07-.03.14 0 .21.04.11.1.22.21.36.28 0 .07.03.1.07.14.1.04.18.04.25-.03.03-.04.03-.07.03-.07V22.07c0-.19 0-.33.04-.5.03-.43.1-.85.25-1.28.07-.39.2-.74.42-1.1.18-.24.4-.53.67-.7.25-.22.57-.4.89-.5.07 0 .14-.03.21-.07.04 0 .1 0 .14.04.04.03.04.07.04.1-.04.1-.04.18-.07.25-.04.1-.04.25-.07.35 0 .11-.04.22-.04.36v.32c0 .24.04.53.14.74.04.18.15.32.22.46.07.1.17.18.32.25.1.1.24.14.39.14a.6.6 0 0 0 .35-.1 1 1 0 0 0 .35-.33c.04-.03.08-.1.11-.14 0 0 0-.03.04-.03.03-.07.17-.07.2 0 .04.1.08.17.11.28.11.21.22.46.25.7 0 .08.04.19.04.3v.24c0 .28-.04.57-.14.81 0 .04-.04.07 0 .14.03.15.14.18.24.15.04 0 .04-.04.08-.04.07-.03.17-.1.24-.18 0 0 .04-.03.07-.03.04 0 .08.03.08.07v.35c0 .15-.04.25-.04.36-.07.21-.18.46-.28.7 1.02.36 1.87.96 2.62 1.78l-2.06 1.98a4.29 4.29 0 0 0-3.26-1.42c-1.13 0-2.09.4-2.83 1.13-.4.46-.7.89-.89 1.42h1.1v1.06h-1.3v.6h1.3v1.07h-1.13c.18.53.5 1.02.92 1.45.74.74 1.74 1.1 2.98 1.1 1.13 0 1.98-.22 2.51-.64V31.8h-2.51v-2.73H34Z" fill="#3A2700"/><path d="M33.7 28.65v6.2a5.08 5.08 0 0 1-2.26 1.41c-.92.36-1.95.5-3.08.5a6.9 6.9 0 0 1-5.03-1.95 6.39 6.39 0 0 1-1.92-3.55h-.81v-.98h.7v-.6h-.7V28.6h.85a6.1 6.1 0 0 1 1.77-3.31 5.8 5.8 0 0 1 1.74-1.24c-.15-.28-.29-.57-.36-.89l-.1-.53v-.39c0-.14 0-.24.03-.35 0-.07.07-.14.14-.18.07-.03.14 0 .18.04.14.1.25.21.35.32l.15.1c.07.04.17.04.2-.03.04-.04.04-.07.04-.1v-.4c0-.18 0-.32.04-.5a5.4 5.4 0 0 1 .74-2.37c.18-.24.4-.61.68-.79.2-.21.53-.35.85-.5.07 0 .14-.03.21-.07.04 0 .1 0 .14.04.04.04.04.07.04.1-.04.11-.04.18-.07.29-.04.1-.04.25-.07.35 0 .1-.04.3-.04.44v.32c0 .25.04.53.14.75.04.17.14.31.21.46.11.1.18.07.32.17.11.07.25.1.4.07.13 0 .24.07.35 0a.7.7 0 0 0 .32-.32l.1-.14s0-.03.04-.03c.03-.07.17-.07.21 0l.14.25c.1.2.21.46.25.7 0 .07.04.18.04.29v.24c0 .29-.04.57-.15.82 0 .03-.03.07 0 .14.04.1.13.1.27.07.04 0 .04-.03.07-.03.07-.04.18-.11.25-.18 0 0 .04-.04.07-.04.04 0 .07.04.07.07v.18l.02.25c0 .14-.04.25-.04.35l-.32.75c1.03.35 1.88.95 2.63 1.77l-2.06 2.01A4.42 4.42 0 0 0 28.18 26c-1.13 0-2.09.39-2.83 1.13-.43.43-.71 1.03-.89 1.52h1.1v1.06h-1.31v.6h1.3v.99h-1.13c.18.56.5 1.14.93 1.56.74.75 1.73 1.1 2.97 1.1 1.14 0 1.99-.21 2.52-.64v-1.94h-2.52v-2.73h5.39Z" fill="url(#ela5y42bi)"/><path d="M28.36 37c-2.06 0-3.8-.67-5.14-1.98a7.23 7.23 0 0 1-1.95-3.7h-.81V30h.7v-.27h-.7v-1.4h.85c.24-1.28.88-2.3 1.8-3.26.5-.5 1.03-.92 1.63-1.24a4.35 4.35 0 0 1-.39-1.77c0-.14 0-.25.04-.39.03-.14.1-.25.25-.28a.4.4 0 0 1 .39.1l.42.41v-.94c.04-.46.1-.92.25-1.3.1-.4.28-.78.5-1.14a3 3 0 0 1 .7-.78c.25-.21 1.12-.84 1.46-.5.07.08.1.18.07.29-.11.22-.14.63-.14.89v.31c0 .25.03.5.1.71.09.34.36.75.75.75.1 0 .2-.04.32-.11.18-.13.3-.34.46-.5.1-.1.35-.1.42.04l.14.28c.2.33.3.69.32 1.06.02.38 0 .76-.18 1.1v.04l.04.03h.04c.12-.06.28-.21.42-.21.14 0 .21.1.21.21 0 .49-.1.92-.24 1.38a6.69 6.69 0 0 1 2.62 1.84l-2.3 2.23-.11-.1A4.12 4.12 0 0 0 28.14 26c-1.1 0-1.98.35-2.69 1.1-.32.32-.56.84-.74 1.23h1.03v1.4h-1.35V30h1.31v1.34h-1.06c.17.42.46.93.81 1.28.71.7 1.7 1.06 2.87 1.06 1.06 0 1.88-.18 2.38-.56v-1.75H28v-3h5.85v6.61l-.04.04a5.7 5.7 0 0 1-2.3 1.45c-.96.35-2.02.53-3.15.53Zm-7.58-6h.77v.1c.25 1.32.89 2.71 1.88 3.67a6.82 6.82 0 0 0 4.93 1.91c1.1 0 2.12-.18 3.04-.5.89-.28 1.6-.74 2.13-1.34v-6.16h-5.21v2.37h2.7v2.24l-.08.04c-.56.46-1.45.67-2.62.67-1.27 0-2.3-.39-3.08-1.17a3.65 3.65 0 0 1-.96-1.64l-.07-.17h1.2v-.7h-1.3l-.04-.14v-.77h1.31v-.76h-1.13l.07-.22c.18-.5.5-1.12.88-1.54a4 4 0 0 1 2.94-1.17c1.32 0 2.41.55 3.3 1.44l1.84-1.77a6.32 6.32 0 0 0-2.44-1.63l-.18-.07.07-.14c.19-.38.28-.79.28-1.2-.15.07-.3.2-.5.1-.18-.13-.24-.3-.17-.46.14-.32.16-.68.14-1.03-.03-.31-.13-.59-.28-.88l-.1-.21c0 .08-.27.31-.33.37a.9.9 0 0 1-.6.26c-.84 0-1.2-1.03-1.2-1.73 0-.38.01-.73.1-1.1 0-.07.04-.14.04-.21 0 0-.74.32-1.03.57a2.8 2.8 0 0 0-.6.67c-.21.32-.35.67-.46 1.06-.14.35-.21.78-.25 1.24v.85c0 .26-.15.4-.32.38-.28-.02-.53-.52-.73-.49-.09.01-.08.26-.08.32 0 .31.04.58.1.89.11.31.22.67.36.88l.1.14-.17.07a6.2 6.2 0 0 0-3.44 4.46l-.04.11h-.77v.8h.7l-.03.18v.52l.03.17h-.7V31Z" fill="url(#fla5y42bi)"/><defs><linearGradient id="ala5y42bi" x1="17.43" y1="14.64" x2="38.7" y2="40.8" gradientUnits="userSpaceOnUse"><stop stop-color="#622162"/><stop offset=".16" stop-color="#D3CED5"/><stop offset=".3" stop-color="#C65374"/><stop offset=".45" stop-color="#631D63"/><stop offset=".6" stop-color="#9E368B"/><stop offset=".75" stop-color="#C05277"/><stop offset=".91" stop-color="#90357B"/><stop offset="1" stop-color="#5F1B5E"/></linearGradient><linearGradient id="bla5y42bi" x1="19.05" y1="17.07" x2="36.95" y2="39.43" gradientUnits="userSpaceOnUse"><stop stop-color="#5F1E60"/><stop offset=".25" stop-color="#C45273"/><stop offset=".43" stop-color="#641F65"/><stop offset=".68" stop-color="#BE4F7A"/><stop offset=".79" stop-color="#9C3E71"/><stop offset="1" stop-color="#5F1E60"/></linearGradient><linearGradient id="cla5y42bi" x1="21.85" y1="13.43" x2="35.42" y2="41.57" gradientUnits="userSpaceOnUse"><stop stop-color="#F4F6E9"/><stop offset=".18" stop-color="#CC9E05"/><stop offset=".46" stop-color="#E8B615"/><stop offset="1" stop-color="#DDB146"/></linearGradient><linearGradient id="dla5y42bi" x1="20.11" y1="17.32" x2="36.16" y2="38.65" gradientUnits="userSpaceOnUse"><stop stop-color="#C65A74"/><stop offset=".71" stop-color="#642164"/><stop offset="1" stop-color="#6D2765"/></linearGradient><linearGradient id="ela5y42bi" x1="20.6" y1="26.95" x2="33.7" y2="26.95" gradientUnits="userSpaceOnUse"><stop stop-color="#C99004"/><stop offset="1" stop-color="#F5CE11"/></linearGradient><linearGradient id="fla5y42bi" x1="32.6" y1="35.77" x2="22.26" y2="21" gradientUnits="userSpaceOnUse"><stop stop-color="#F5CD16"/><stop offset=".03" stop-color="#E9BC10"/><stop offset=".08" stop-color="#DBA809"/><stop offset=".14" stop-color="#D39C05"/><stop offset=".19" stop-color="#D09804"/><stop offset=".22" stop-color="#DAAE39"/><stop offset=".3" stop-color="#F2E3BC"/><stop offset=".34" stop-color="#fff"/><stop offset=".35" stop-color="#FDF6D5"/><stop offset=".37" stop-color="#FAEBA2"/><stop offset=".39" stop-color="#F8E176"/><stop offset=".41" stop-color="#F6D952"/><stop offset=".44" stop-color="#F5D336"/><stop offset=".46" stop-color="#F4CE22"/><stop offset=".48" stop-color="#F3CC16"/><stop offset=".5" stop-color="#F3CB12"/><stop offset=".55" stop-color="#EFC611"/><stop offset=".61" stop-color="#E5B70C"/><stop offset=".67" stop-color="#D49E05"/><stop offset=".68" stop-color="#D19904"/><stop offset=".73" stop-color="#D6A007"/><stop offset=".8" stop-color="#E5B30F"/><stop offset=".87" stop-color="#FACD1B"/><stop offset="1" stop-color="#D09A0F"/></linearGradient></defs></svg>