<!-- by TradingView --><svg width="56" height="56" viewBox="0 0 56 56" xmlns="http://www.w3.org/2000/svg"><path fill="url(#a)" d="M0 0h56v56H0z"/><path d="M29.34 12.01 28.37 16c-1.5.08-2.96.4-4.35.98l.7-4.53c1.5-.35 3.05-.5 4.62-.44Z" fill="#CBA454"/><path d="M36.23 13.84A38.5 38.5 0 0 0 35 17.68 12.44 12.44 0 0 0 28.37 16l.97-3.99c2.45.13 4.75.74 6.89 1.83Z" fill="#D9C170"/><path d="m42.4 13.55-.03 1.67c0 .13-.06.23-.18.3l-2.28 1.2-3.57 1.85-1.34-.9c.34-1.29.75-2.57 1.23-3.83l2.1 1.27a.1.1 0 0 0 .1 0 .09.09 0 0 0 .05-.08v-2.64c0-.04.02-.06.06-.06h3.73c.08 0 .12.04.12.11v1.1Z" fill="#CBA454"/><path d="m24.71 12.45-.7 4.53a11.19 11.19 0 0 0-6.7 7.88c-.27 1.1-.38 2.28-.3 3.52l-4.77 2.41a15.83 15.83 0 0 1 2.48-11.61 15.95 15.95 0 0 1 4.23-4.23 16.91 16.91 0 0 1 5.76-2.5ZM40.28 19.33l-.22-2.52c0-.04-.02-.07-.04-.09a.22.22 0 0 0-.11 0l2.28-1.2a.32.32 0 0 0 .18-.3l.02-1.67v4.04c0 .04-.02.07-.05.1l-2.06 1.64Z" fill="#BE9242"/><path d="M39.9 16.72h.12c.02.02.04.05.04.1l.22 2.51-1.73 1.4c-.04.03-.08.02-.11-.02a9.64 9.64 0 0 0-2.1-2.14l3.57-1.85Z" fill="#AC8040"/><path d="m30.99 21.34-3.97 1.83-.01-6.1c0-.04.03-.07.08-.07h3.84c.04 0 .06.02.06.06v4.28Z" fill="#D9C170"/><path d="m30.99 21.34.01 3.6c0 .04-.02.06-.07.06h-3.8c-.09 0-.13-.04-.13-.12l.02-1.71 3.97-1.83ZM29.9 26c-.96 1.27-1.8 2.6-2.53 4h-5.31c-.04 0-.06-.02-.06-.06v-3.76c0-.12.05-.17.16-.17h7.73Z" fill="#B59154"/><path d="M27.37 30a28.7 28.7 0 0 1 2.52-4h12.03c.05 0 .08.03.08.09v3.84c0 .04-.02.06-.05.06L27.37 30Z" fill="#D9C170"/><path d="M17 28.38c.04.99.2 1.99.48 3-1.5.7-2.97 1.45-4.42 2.27a14.4 14.4 0 0 1-.82-2.86L17 28.38Z" fill="#735123"/><path d="M31 31.08v7.26c0 .06-.04.1-.1.11a10.88 10.88 0 0 1-3.9-.14v-7.26c0-.03.02-.05.06-.05h3.85c.06 0 .09.03.09.08Z" fill="#D9C170"/><path d="M17.48 31.38c.42 1.35 1.06 2.6 1.9 3.78-1.54.47-3 1.15-4.37 2.03-.81-1.1-1.46-2.28-1.95-3.54a59.2 59.2 0 0 1 4.42-2.27Z" fill="#A68A49"/><path d="M36.28 42.3c.2-.32.4-.67.56-1.04a.12.12 0 0 0 0-.12.12.12 0 0 0-.1-.06c-.14-.02-.18-.12-.14-.32.14-.57.17-1.12.08-1.65-.07-.46-.23-.99-.5-1.59a11.49 11.49 0 0 0 3.85-4.81c.04-.08.09-.1.16-.06l3.78 1.7c.03.02.04.04.02.07a19 19 0 0 1-1.27 2.23 15.72 15.72 0 0 1-6.44 5.65Z" fill="#AC8040"/><path d="M19.38 35.16a12.52 12.52 0 0 0 7.08 4.5c-2 .67-3.92 1.47-5.79 2.4a16.46 16.46 0 0 1-5.66-4.87 17.45 17.45 0 0 1 4.37-2.03Z" fill="#D9C170"/><path d="M36.18 37.52c.27.6.43 1.13.5 1.6.09.52.06 1.07-.08 1.64-.04.2 0 .3.15.32.04 0 .07.02.1.06v.12c-.18.37-.36.72-.57 1.04a17.35 17.35 0 0 1-6.83 1.69 16.6 16.6 0 0 0 1.93-4.33c1.77-.4 3.37-1.1 4.8-2.14Z" fill="#B59154"/><path d="M31.38 39.66a16.6 16.6 0 0 1-1.93 4.33c-3.11.12-6.04-.52-8.78-1.93 1.87-.93 3.8-1.73 5.79-2.4 1.65.34 3.29.34 4.92 0Z" fill="#AC8040"/><defs><linearGradient id="a" x1="10.42" y1="9.71" x2="68.15" y2="76.02" gradientUnits="userSpaceOnUse"><stop stop-color="#1A1E21"/><stop offset="1" stop-color="#06060A"/></linearGradient></defs></svg>