<!-- by TradingView --><svg width="56" height="56" viewBox="0 0 56 56" xmlns="http://www.w3.org/2000/svg"><path fill="url(#aqqzmksvv)" d="M0 0h56v56H0z"/><path d="M19 23.3A11.4 11.4 0 0 1 30.5 12 11.4 11.4 0 0 1 42 23.3a.7.7 0 0 1-.7.7H19.7a.7.7 0 0 1-.7-.7Z" fill="#53CBC9"/><path d="M16 27c0-.55.37-1 .83-1h26.34c.46 0 .83.45.83 1s-.37 1-.83 1H16.83c-.46 0-.83-.45-.83-1Zm-5 3c0-.55.38-1 .84-1h19.32c.46 0 .84.45.84 1s-.38 1-.84 1H11.84c-.46 0-.84-.45-.84-1Zm5.84 2c-.46 0-.84.45-.84 1s.38 1 .84 1h23.32c.46 0 .84-.45.84-1s-.38-1-.84-1H16.84ZM12 36c0-.55.39-1 .86-1h9.28c.47 0 .86.45.86 1s-.39 1-.86 1h-9.28c-.47 0-.86-.45-.86-1Zm16.81 2c-.45 0-.81.45-.81 1s.36 1 .81 1H40.2c.45 0 .81-.45.81-1s-.36-1-.81-1H28.8ZM21 42c0-.55.36-1 .81-1H33.2c.45 0 .81.45.81 1s-.36 1-.81 1H21.8c-.45 0-.81-.45-.81-1Zm3.85-7c-.47 0-.85.45-.85 1s.38 1 .85 1h19.3c.47 0 .85-.45.85-1s-.38-1-.85-1h-19.3ZM13 27a1 1 0 1 1 2 0 1 1 0 0 1-2 0Zm-4 2a1 1 0 1 0 0 2 1 1 0 0 0 0-2Zm4 4a1 1 0 1 1 2 0 1 1 0 0 1-2 0Zm-3 2a1 1 0 1 0 0 2 1 1 0 0 0 0-2Zm15 4a1 1 0 1 1 2 0 1 1 0 0 1-2 0Zm-6 2a1 1 0 1 0 0 2 1 1 0 0 0 0-2Z" fill="#CB1F7A"/><defs><linearGradient id="aqqzmksvv" x1="28" y1="0" x2="28" y2="56" gradientUnits="userSpaceOnUse"><stop stop-color="#3B1C57"/><stop offset="1" stop-color="#200F31"/></linearGradient></defs></svg>