<!-- by TradingView --><svg width="56" height="56" viewBox="0 0 56 56" xmlns="http://www.w3.org/2000/svg"><path fill="#72F597" d="M0 0h56v56H0z"/><path d="M16 24.5c0-.3-.3-.5-.6-.5h-4.8c-.35 0-.6.25-.6.5 0 .3.3.5.6.5h4.8c.35 0 .6-.25.6-.5ZM20 30.5c0-.3-.3-.5-.6-.5h-4.8c-.35 0-.6.25-.6.5 0 .3.3.5.6.5h4.8c.3 0 .6-.2.6-.5ZM19 27.5c0 .3-.32.5-.65.5h-5.7c-.38 0-.65-.25-.65-.5 0-.29.32-.5.65-.5h5.7c.38-.04.65.21.65.5ZM10.41 27c-.24 0-.41.25-.41.5 0 .3.2.5.41.5h.18c.24 0 .41-.25.41-.5 0-.3-.2-.5-.41-.5h-.18ZM22 33.5c0-.3-.29-.5-.57-.5h-9.86c-.33 0-.57.25-.57.5 0 .3.29.5.57.5h9.86c.33 0 .57-.2.57-.5Z" fill="#231F20"/><path d="M40.9 31.93c-1.88-.74-2.78-1.19-3.57-.5.4-.78.25-.83-.1-1.38-.64-1.13-2.38-3.01-2.98-6.62 0 0 .95-2.57 1.05-4.2 0 0 .34-1.04-1.24-.55 0 0-1.97 1.02-3.06 1.32-1.98-.25-4.98-1.47-6.08-3.64 0 0 .9-1.88.1-2.32-.54-.3-2.18 1.38-2.18 1.38l-5.7 6.87a1 1 0 0 0 .1 1.04c1.38 1.88 6.9 9.14 10.07 13.05-8.99.05-13.85 1.43-10.37 1.93 2.82.4 9.18.3 13.99.25.6.2 1.1.44 1.87.44h8.1c1.76 0 4.12 0 4.1-2-.02-2-1.2-3.92-4.1-5.07Zm-14.44-1.32.2-3.61h-2.13l3.02-5.69-.44 3.69h2.03l-2.68 5.6Z" fill="#231F20"/></svg>