<!-- by TradingView --><svg width="56" height="56" xmlns="http://www.w3.org/2000/svg"><path fill="#00A6C4" d="M0 0h56v56H0z"/><path d="M41.379 20l.305.48A15.2 15.2 0 0144 28.538c.016 4.073-1.658 7.986-4.657 10.884C36.346 42.319 32.267 43.965 28 44h-.03c-8.808 0-16-6.982-15.97-15.52 0-2.865.823-5.644 2.347-8.058l.274-.437 1.463 1.411c-.274.393-.518.83-.686 1.31a5.701 5.701 0 00.215 4.523c.693 1.422 1.947 2.525 3.488 3.07a6.4 6.4 0 002.826.29 6.305 6.305 0 002.66-.96L28 32.946l3.9-3.782a6.156 6.156 0 002.516.865 6.242 6.242 0 002.658-.268c.853-.28 1.63-.741 2.27-1.348a5.674 5.674 0 001.74-4.771 5.651 5.651 0 00-.924-2.478L41.379 20zm-23.497 3.127l4.587 4.422a3.145 3.145 0 01-1.981.67 3.37 3.37 0 01-2.313-.936 3.07 3.07 0 01-.948-2.221c0-.727.244-1.396.655-1.935zm16 4.146l4.54-4.378c.351.509.55 1.12.55 1.76 0 1.745-1.464 3.156-3.262 3.156-.685 0-1.295-.19-1.828-.538zm-5.821 3.316L14.85 17.746l.518-.524a16.952 16.952 0 015.673-3.864A17.638 17.638 0 0127.863 12h.03c4.83 0 9.478 2.007 12.709 5.484l.503.538L28.06 30.589zM16.998 17.746L28.061 28.48l10.91-10.516a15.606 15.606 0 00-5.054-3.29 16.196 16.196 0 00-5.993-1.176h-.03c-4.115 0-7.955 1.498-10.896 4.248z" fill="#fff"/></svg>