<!-- by TradingView --><svg xmlns="http://www.w3.org/2000/svg" width="56" height="56"><path fill="#F0F3FA" d="M0 0h56v56H0z"/><path fill-rule="evenodd" d="M44 27.75a.2.2 0 00-.11-.05c-.24-.02-.48.49-.54 1.13-.05.64.1 1.18.34 1.2.07 0 .13-.03.2-.1-.07.54-.16 1.07-.28 1.59a.23.23 0 00-.12-.1c-.11-.03-.24.04-.37.18l.06-.16c.17-.58.1-1.1-.17-1.18-.15-.05-.34.08-.5.32a2 2 0 00.17-.71c.04-.6-.14-1.1-.4-1.12-.28-.02-.53.45-.57 1.05-.05.6.13 1.1.4 1.12.1 0 .2-.06.3-.18a2.01 2.01 0 00-.17.43c-.17.57-.1 1.1.16 1.18.12.03.25-.03.37-.16a3.39 3.39 0 00-.13.38c-.17.58-.17 1.11-.03 1.33-.26.08-.54.38-.7.8-.18.43-.17.87-.01 1.1-.48.7-.9.52-1.15.24l.07-.07c.35-.45.48-.95.27-1.11-.2-.16-.66.07-1.02.52-.35.45-.47.95-.27 1.11.07.05.17.06.28.04-.24.65-.49.98-.68 1.13.2-.36.23-.69.07-.82-.22-.2-.76.07-1.2.6-.4.46-.59.98-.45 1.22-.25-.1-.74.1-1.17.51-.5.47-.75 1.02-.54 1.24.09.1.25.1.44.05-.27.37-.63.5-.89.55.15-.2.2-.39.13-.5-.14-.2-.61-.12-1.07.18-.45.3-.7.72-.57.92.03.04.07.07.13.09.07.02.16.02.27 0-.31.25-.62.38-.86.44.15-.15.23-.31.17-.43-.1-.2-.53-.18-.97.03l-.04.02c.17-.21.23-.46.13-.66-.15-.32-.64-.41-1.08-.2-.44.21-.67.64-.52.96.15.31.6.4 1.02.23-.13.14-.18.28-.13.39.07.16.37.18.7.07l-.6.84a16.01 16.01 0 01-9.18-.13c.13.01.24-.03.28-.12.07-.14-.03-.33-.22-.42-.2-.1-.4-.06-.47.07-.07.13.02.3.19.4a16 16 0 1116.59-26.26.21.21 0 00-.09.05c-.14.12-.1.4.11.64.2.23.48.32.62.2a.22.22 0 00.06-.1 16 16 0 012.6 4.33c-.2-.23-.41-.35-.53-.28-.18.1-.11.55.15 1 .26.45.61.74.79.64a.16.16 0 00.05-.05c.42 1.4.66 2.87.68 4.4zm-7.16-12.64c.09-.14.02-.33-.15-.44-.17-.11-.37-.1-.46.04-.09.14-.02.33.15.44.17.11.38.1.46-.04zm-.2.31c.12.16.13.37 0 .47-.12.1-.32.05-.45-.1-.13-.16-.13-.37 0-.47.12-.1.32-.05.45.1zm-1.03 1.03c.12-.1.12-.3 0-.46-.13-.16-.34-.2-.46-.1s-.12.3 0 .46c.13.16.34.2.46.1zm2.78-.05c.16.18.2.41.09.5-.11.1-.33.03-.5-.15-.15-.19-.19-.41-.08-.5.11-.1.33-.03.49.15zm-.62 1.07c.11-.1.08-.32-.08-.5-.16-.19-.38-.26-.5-.16-.1.1-.06.32.1.5.16.19.37.26.48.16zm1.7 1.36c.14-.12.1-.4-.11-.64-.2-.23-.48-.32-.62-.2s-.1.4.11.64c.2.23.48.32.62.2zm-4.62-.07c.11-.1.07-.32-.08-.5-.16-.19-.38-.26-.5-.16-.1.1-.06.32.1.5.15.19.37.26.48.16zm-.45 1.15c.16.18.16.44 0 .57-.15.14-.4.1-.57-.08-.16-.19-.16-.45 0-.58.15-.14.4-.1.57.09zm-2.64.52c.13.23.07.5-.12.62-.2.1-.47.02-.6-.2-.13-.23-.07-.5.13-.62.2-.11.46-.02.59.2zm-1.18 1.76c.25.22.3.58.1.8-.2.22-.57.21-.82-.01-.24-.23-.28-.59-.09-.8.2-.23.57-.22.81 0zm-1.76 2.97c.3 0 .54-.27.54-.6 0-.34-.24-.61-.54-.61-.3 0-.53.27-.53.6 0 .34.24.61.53.61zm-1.31 1.24c0 .34-.24.61-.53.61-.3 0-.54-.27-.54-.6 0-.34.24-.62.54-.62.3 0 .53.28.53.61zm-4.09.27a.36.36 0 100-.72.36.36 0 000 .72zm1.81 2.4c.3 0 .54-.32.54-.7 0-.4-.24-.7-.54-.7-.3 0-.53.3-.53.7 0 .38.24.7.53.7zm-1.98 2.17c.3 0 .54-.27.54-.6 0-.35-.24-.62-.54-.62-.3 0-.53.27-.53.61 0 .34.24.6.53.6zm-1.2.83c.14.3.03.65-.24.77s-.6-.03-.73-.34c-.14-.3-.03-.66.24-.77.27-.12.6.03.74.34zm-2.02 2.37c.2-.11.25-.39.12-.61-.13-.23-.4-.31-.59-.2-.2.11-.25.39-.12.61.13.23.4.32.59.2zm-1.24 1.37c.15-.09.2-.3.1-.47-.1-.18-.3-.25-.46-.16-.15.09-.2.3-.1.47.1.18.3.25.46.16zm1.19 2.54c.17.2.2.46.07.57-.13.12-.38.05-.55-.15-.18-.2-.2-.46-.07-.57.13-.12.38-.05.55.15zm2.2 2.1c.11-.12.05-.37-.14-.55-.2-.18-.45-.22-.57-.09-.12.13-.05.38.14.56.2.18.45.22.57.09zm.73-1.69c.23.21.3.51.16.66-.14.16-.44.1-.67-.1-.23-.21-.3-.51-.16-.66.14-.16.44-.11.67.1zm2.45 2.2c.15-.21 0-.57-.34-.81-.34-.24-.73-.26-.88-.05-.15.2 0 .57.34.8.34.24.73.27.88.06zm1.33.34c.33.24.49.6.34.8-.15.22-.54.2-.88-.04-.34-.24-.49-.6-.34-.81.15-.21.54-.19.88.05zm1.94 1.59c.1-.2-.09-.48-.4-.64-.33-.16-.67-.14-.77.05-.1.2.1.48.41.64.33.16.67.14.76-.05zm-4.22-5.54c.33.3.44.74.23.96-.2.23-.64.16-.98-.15-.33-.31-.44-.74-.23-.97.2-.22.64-.15.98.16zm2.28 2.31c.17-.25 0-.66-.38-.92-.37-.26-.82-.26-.99-.01-.17.25 0 .66.37.92.38.26.83.26 1 .01zm1.4.5c.39.26.53.71.32 1.01-.2.3-.68.34-1.05.08-.38-.26-.52-.71-.31-1.01.2-.3.67-.33 1.05-.08zm-1.94-3.47c.25-.27.17-.74-.16-1.05-.34-.3-.81-.34-1.06-.07-.24.27-.17.73.17 1.04.33.31.8.34 1.05.08zm1.96.56c.36.34.44.84.18 1.12-.26.29-.77.25-1.13-.08-.36-.33-.44-.83-.18-1.12.26-.28.77-.25 1.13.08zm1.8 2.75a.8.8 0 00.04-1.14.8.8 0 00-1.14-.04.8.8 0 00-.05 1.14.8.8 0 001.14.04zm-2-6.12c.33.31.38.8.1 1.11-.28.3-.78.3-1.12 0-.33-.32-.38-.81-.1-1.12.28-.3.78-.3 1.11.01zm2.04 2.89c.4-.35.45-.93.13-1.3a.93.93 0 00-1.3-.06.93.93 0 00-.14 1.3c.33.38.91.4 1.31.06zm2.08.23c.31.35.24.92-.16 1.26-.4.35-.96.34-1.27-.01-.3-.35-.23-.92.16-1.26.4-.35.97-.34 1.27.01zm-.14-2.19c.37-.4.38-1 .01-1.34-.36-.33-.96-.28-1.33.13-.37.4-.37 1 0 1.34.36.33.95.27 1.32-.13zm2.05.3c.36.33.36.93-.01 1.33s-.97.46-1.33.12c-.37-.33-.37-.93 0-1.33s.97-.46 1.34-.13zm1.48 2.9c.4-.42.45-1.02.11-1.33-.33-.3-.92-.2-1.32.23-.4.43-.44 1.03-.11 1.34.33.3.93.2 1.32-.23zm-1.8.47c.22.39 0 .95-.5 1.25-.5.3-1.1.23-1.33-.16-.23-.38-.01-.94.49-1.25.5-.3 1.1-.23 1.33.16zm-2.47 2.63c.44-.21.68-.64.52-.97-.15-.32-.64-.4-1.08-.2-.44.22-.67.65-.52.97.16.32.64.41 1.08.2zm.32 2.36c.44-.21.72-.54.62-.74-.1-.2-.53-.18-.97.03-.44.21-.72.54-.62.74.1.2.52.18.97-.03zM35 39.7c.15.32-.17.8-.73 1.07-.56.27-1.13.22-1.29-.1-.15-.32.17-.8.73-1.06.56-.27 1.13-.23 1.29.1zm1.55-.5c.5-.4.73-.94.51-1.22-.22-.28-.8-.2-1.3.2-.5.38-.73.92-.51 1.2.21.29.8.2 1.3-.19zm2.03-3.31c.3.23.21.82-.18 1.32-.4.5-.95.71-1.25.48-.3-.24-.21-.83.18-1.33.4-.5.95-.7 1.25-.47zm-9.06 6.34c.38-.18.59-.56.45-.84-.13-.28-.56-.36-.94-.17-.39.18-.6.56-.46.84.14.28.56.36.95.18zm1.57.13c.07.25-.17.53-.53.62-.36.1-.71-.03-.78-.28-.06-.25.18-.53.54-.62.36-.1.7.03.77.28zm4.73-7.88c.39-.43.41-1.05.05-1.39-.37-.33-.98-.26-1.38.17-.39.43-.41 1.05-.05 1.38.37.34.98.26 1.38-.16zm1.58.3c.37.33.35.95-.05 1.38-.4.43-1 .5-1.37.17-.37-.34-.34-.96.05-1.39.4-.42 1-.5 1.37-.16zm.16-2.75c.28-.48.18-1.05-.22-1.28-.4-.24-.94-.05-1.22.42s-.19 1.05.21 1.28c.4.24.95.05 1.23-.42zm1.41.23c.4.24.47.86.16 1.39-.32.53-.9.76-1.3.53-.39-.24-.46-.86-.15-1.39.32-.53.9-.77 1.3-.53zm1.16 2.96c.35-.5.33-1.13-.05-1.4-.38-.26-.97-.06-1.32.45-.35.5-.33 1.13.05 1.39s.97.07 1.32-.44zm-1.65-6.88c.47.1.76.6.65 1.14-.1.54-.57.9-1.04.8-.47-.09-.76-.6-.65-1.14.1-.53.57-.9 1.04-.8zM40.45 31c.1-.53-.1-1.03-.48-1.1-.37-.08-.76.3-.86.83-.11.54.1 1.04.47 1.11.37.07.76-.3.87-.84zm-6.61.49a1 1 0 01.08 1.4 1 1 0 01-1.41.05 1 1 0 01-.08-1.41 1 1 0 011.4-.04zm1.84-.8c.36-.39.32-1-.07-1.36a.97.97 0 00-1.37.04.97.97 0 00.07 1.37c.4.36 1.01.34 1.37-.05zm-5.95 1.13a.83.83 0 11-1.12 1.22.83.83 0 011.12-1.22zm2.1-.85a.83.83 0 10-1.22-1.12.83.83 0 001.21 1.12zm1.67-3.4a.83.83 0 11-1.12 1.22.83.83 0 011.12-1.22zm1.4-.9a.83.83 0 10-1.21-1.13.83.83 0 001.22 1.13zm1.53.07c.42-.01.77.4.78.94.02.52-.32.96-.73.97-.42 0-.77-.41-.78-.94-.02-.53.31-.97.73-.97zm1.74-1.62c-.19-.5-.66-.78-1.05-.63-.4.14-.56.66-.38 1.16.18.5.65.78 1.05.63.39-.14.56-.66.38-1.16zm-.12-2.73c.33-.12.72.12.87.54.16.41.01.85-.31.97-.33.12-.72-.12-.88-.53-.15-.42-.01-.85.32-.98zm2.65 1.95c-.17-.45-.57-.72-.9-.6-.33.13-.46.6-.3 1.04.17.45.57.72.9.6.33-.12.46-.59.3-1.04zm-1.47 1.52c.35-.03.66.38.7.9.05.54-.2 1-.55 1.02-.35.03-.67-.38-.71-.91-.04-.53.2-.99.56-1.01zm2.43 2.6c-.05-.56-.35-.99-.68-.96-.33.02-.56.5-.51 1.06.04.55.34.99.67.96.33-.03.56-.5.52-1.06zm-.2 2.85c.31.12.38.67.16 1.23-.22.56-.65.91-.96.8-.3-.13-.38-.69-.16-1.24.22-.56.65-.92.96-.8zm.84 2.6c.22-.56.15-1.11-.16-1.24-.3-.12-.74.23-.96.8-.22.55-.15 1.1.16 1.23.3.12.74-.23.96-.8zm-4.35 4.85c.1.04.25.02.41-.06-.08.67-.41.87-.66.89.25-.33.35-.65.25-.83zM42.25 26c-.1-.54-.45-.93-.8-.87-.34.06-.55.54-.46 1.08.1.54.45.93.8.87.34-.05.55-.54.46-1.08zm.39.35c.24 0 .46.43.48.97.03.55-.15 1-.4 1.01-.24.01-.46-.42-.48-.97-.03-.54.15-1 .4-1zm-6.8-3.07c.34.31.4.8.13 1.1-.27.28-.76.27-1.1-.04-.33-.3-.39-.8-.12-1.09.27-.29.76-.27 1.1.03zM21.49 41.45c.09-.13.01-.33-.16-.45-.18-.12-.4-.12-.48.01-.08.13-.01.33.17.45.17.12.39.12.47-.01zm1.84.55c.23.16.36.4.27.52-.09.12-.35.1-.59-.07-.23-.16-.35-.4-.27-.52.09-.12.35-.1.59.07zm1.92 1.43c.09-.13-.04-.36-.27-.53-.24-.16-.5-.19-.59-.06-.08.13.04.36.28.52.23.16.5.2.58.07zm-1.45-2.2c.24.15.35.4.25.55-.1.14-.37.13-.6-.03-.24-.17-.35-.41-.25-.56.1-.14.37-.13.6.03zm2.03 1.58c.1-.15 0-.4-.24-.56-.24-.16-.51-.17-.61-.03-.1.14.01.4.25.55.23.17.5.18.6.04zm1.08.08c.28.05.48.24.45.4-.03.18-.29.28-.57.23-.28-.06-.48-.24-.45-.41.03-.17.28-.27.57-.22zm2.87.26c-.03-.18-.28-.28-.57-.23-.28.05-.48.23-.45.4.03.18.28.28.56.23.28-.05.49-.23.46-.4zm-8.3-1.27c.2.1.3.28.23.42-.07.13-.28.17-.47.07-.2-.1-.3-.28-.23-.42.07-.13.28-.17.47-.07zm-.55-4.71c.22.24.26.56.1.7-.17.14-.48.06-.7-.19-.2-.25-.25-.56-.08-.7.16-.15.47-.06.68.19zm1.5-.71c.2-.18.2-.52-.01-.77-.22-.25-.56-.3-.77-.13-.2.18-.2.53.02.77.21.25.55.3.76.13zm1.54-2.4c.22.24.2.6-.04.81-.24.2-.6.17-.81-.08a.58.58 0 01.04-.81c.23-.2.6-.17.81.07zm1.77-.88c.3-.26.33-.73.05-1.05a.75.75 0 00-1.05-.1.75.75 0 00-.05 1.05c.28.32.75.37 1.05.1zm1.85-3.13c.28.32.25.8-.05 1.06a.75.75 0 01-1.05-.1.75.75 0 01.05-1.06.75.75 0 011.05.1zm1.8-1.05c.3-.27.32-.74.05-1.06a.75.75 0 00-1.06-.1.75.75 0 00-.05 1.06c.28.32.75.36 1.05.1zm1.98-3.26c.27.32.25.8-.06 1.06a.75.75 0 01-1.05-.1.75.75 0 01.05-1.06.75.75 0 011.06.1zm1.31-1.01c.26-.22.27-.6.05-.87a.61.61 0 00-.87-.08.61.61 0 00-.04.87c.23.26.61.3.86.08zm1.17-2.9c.23.26.24.63.01.82-.22.19-.58.13-.81-.13-.23-.26-.23-.63 0-.82.21-.2.58-.14.8.13zm2.87.32c.22-.2.22-.56 0-.83-.23-.26-.6-.31-.82-.12-.22.19-.22.56 0 .82.24.26.6.32.82.13zm.09-2.64c.2.24.25.52.1.65-.13.12-.4.03-.61-.2-.2-.24-.25-.53-.11-.65s.42-.03.62.2zm3.4.44c.2.24.25.52.11.65-.14.12-.42.03-.62-.2-.2-.24-.25-.53-.1-.65.13-.12.4-.03.61.2zm.92-.39c.14-.12.09-.4-.11-.64s-.48-.33-.62-.2c-.14.12-.1.4.1.64.2.23.49.32.63.2zm-2.68-.7c.2.22.25.51.11.63s-.41.03-.62-.2c-.2-.23-.25-.52-.1-.64.13-.12.41-.03.61.2zm.53 2.67c.2-.17.16-.53-.07-.8-.24-.28-.6-.36-.79-.2-.2.17-.16.53.08.8.23.28.59.37.78.2zm1.64.54c.23.39.23.8 0 .94-.22.13-.59-.09-.8-.47-.23-.4-.23-.81 0-.94.22-.13.58.08.8.47zm1.25 0c.18-.1.14-.5-.08-.88-.22-.4-.55-.63-.72-.53-.18.1-.14.5.08.89.23.39.55.62.72.52zm.35 1.38c.14.43.07.84-.15.91-.23.08-.53-.2-.67-.63s-.07-.83.15-.9c.23-.08.53.2.67.62zm1.12 1.29c.1.5.04.95-.16 1-.2.04-.45-.34-.56-.85-.11-.5-.04-.96.16-1 .2-.04.45.34.56.85zm-6.97-7c.16.17.2.4.09.5-.11.1-.33.02-.49-.16-.16-.19-.2-.41-.09-.5.11-.1.33-.03.5.15zm-11.13 7.05a.36.36 0 100-.73.36.36 0 000 .73zm2.2-2.2a.36.36 0 11-.73 0 .36.36 0 01.72 0zM32 19.14a.36.36 0 100-.73.36.36 0 000 .73zm2.42-2.69c.13.16.13.37 0 .47-.12.1-.32.05-.45-.1-.12-.16-.12-.37 0-.47.12-.1.32-.05.45.1z" fill="url(#avbvn5ghm)"/><defs><linearGradient id="avbvn5ghm" x1="16.87" y1="16.19" x2="44" y2="41.33" gradientUnits="userSpaceOnUse"><stop stop-color="#6EAA89"/><stop offset=".69" stop-color="#2A756B"/></linearGradient></defs></svg>