<!-- by TradingView --><svg width="56" height="56" viewBox="0 0 56 56" xmlns="http://www.w3.org/2000/svg"><path fill="#1A172D" d="M0 0h56v56H0z"/><path d="M44 28.1c0-11.74-10.73-16.56-16.37-16.07-1.04 0-2.23.69-2.23 1.94s.73 2.05 4.17 2.39c2.9.28 5.65 2.47 6.1 2.92.68.66.77 1.55.43 2.27a2.2 2.2 0 0 1-2 1.22c-.94.03-1.25-.13-2.64-1.01a6.12 6.12 0 0 0-3.83-1.17c-4.75.15-7.63 3.79-7.63 7.52a7.67 7.67 0 0 0 7.63 7.4 7.55 7.55 0 0 0 6.74-4.21c.44-.9-.18-1.28-.54-1.3h-6.2c-.75 0-2.23-.25-2.23-1.9 0-1.64 1.3-2.1 2.04-2.1h10.8c.96.07 1.3.7 1.35 1.06.04 8.47-5.22 11-7.21 11.8-1.66.68-3.36 1.1-5.17 1.1-1 0-1.9.75-1.8 2.12A2 2 0 0 0 27.2 44C40.15 44 44 33.35 44 28.1Z" fill="#fff"/><circle cx="21" cy="16" fill="#008ACB" r="2"/><circle cx="16" cy="21" fill="#008ACB" r="2"/><circle cx="14" cy="28" fill="#008ACB" r="2"/><circle cx="16" cy="35" fill="#008ACB" r="2"/><circle cx="21" cy="40" fill="#008ACB" r="2"/></svg>