<!-- by TradingView --><svg width="56" height="56" xmlns="http://www.w3.org/2000/svg"><path fill="#377E96" d="M0 0h56v56H0z"/><path d="M35.645 42.06A15.929 15.929 0 0128 44c-8.837 0-16-7.163-16-16s7.163-16 16-16 16 7.163 16 16c0 5.342-2.618 10.072-6.64 12.978-.591-2.186-2.71-3.121-4.81-3.258-2.591-.154-5.18-.256-7.77-.45h-.03c-1.09-.23-1.42-.9-.85-1.85.27-.46.69-.84 1.07-1.24.09-.08.33-.05.49-.01 1.8.43 3.59.45 5.34-.17 2.14-.76 3.61-2.21 4.15-4.46.404-1.662.048-3.043-.7-4.54h2.44c.1-.01.25-.07.28-.13l.81-2.79s-1.006.947-1.73.92c-.723.007-3.2 0-3.2 0l2.05-2.32c1.422-1.537 3.334-4.024 1.69-6.06-.661-.661-1.65-.99-1.65-.99s-.8-.05-1.19 0c-1.375.198-2.248 1.361-2.42 2.68-.06.241.235.31.36.11.346-.484.492-.972 1.05-1.298a2.06 2.06 0 012.51.358c1.353 1.466.093 3.796-1.02 5-.246.29-1.623 2.204-2.05 1.96-1.25-.71-2.59-1.03-4.03-1.06-2.802-.178-5.747 1.326-6.978 3.901-.883 1.847-.84 4.16.193 5.937.608 1.046 1.56 1.82 2.607 2.396-.737.72-1.517 1.403-2.212 2.166-.5.57-.85 1.25-.9 2.05-.09 1.136 1.028 1.742 1.8 2.36l-.608.642c-.404.43-.809.858-1.222 1.278-.06.04-.2.06-.3.04.497.288 1.669.768 1.658.762.417-.866.963-1.615 1.572-2.362.07-.1.26-.14.4-.14 2.891.19 5.791.318 8.68.53 1.243.038 2.804 1.12 2.804 1.12z" fill="#fff"/><path d="M30.311 32.51c-.925.87-2.4 1.091-3.555.582-1.628-.717-2.337-2.712-2.516-4.352-.32-2.142-.138-5.176 2.22-6.08 2.897-1.131 4.728 2.106 4.94 4.53.178 1.704.282 4.03-1.089 5.32z" fill="#fff"/></svg>