<!-- by TradingView --><svg width="56" height="56" xmlns="http://www.w3.org/2000/svg"><path fill="url(#paint0_linear)" d="M0 0h56v56H0z"/><path fill-rule="evenodd" d="M29.497 10.362a3 3 0 00-2.994 0l-13 7.486a3 3 0 00-1.503 2.6v15.104a3 3 0 001.503 2.6l13 7.487a3 3 0 002.994 0l13-7.487a3 3 0 001.503-2.6V20.448a3 3 0 00-1.503-2.6l-13-7.486zm-.427 6.865a1.5 1.5 0 00-1.456.07l-7.906 4.916A1.5 1.5 0 0019 23.488v8.742c0 .505.254.977.677 1.254l7.881 5.175a1.5 1.5 0 001.63.01l8.119-5.178A1.5 1.5 0 0038 32.224v-8.476a1.5 1.5 0 00-2.297-1.27l-6.495 4.073a1 1 0 101.063 1.694L36 24.653v7.298l-7.614 4.858L21 31.959v-8.194l7.434-4.622 3.41 1.684a1 1 0 00.886-1.793l-3.66-1.807z" fill="#fff"/><defs><linearGradient id="paint0_linear" x1="28" y1="0" x2="28" y2="56" gradientUnits="userSpaceOnUse"><stop stop-color="#13A5EA"/><stop offset="1" stop-color="#1669E0"/></linearGradient></defs></svg>