<!-- by TradingView --><svg width="56" height="56" viewBox="0 0 56 56" xmlns="http://www.w3.org/2000/svg"><path fill="url(#a)" d="M0 0h56v56H0z"/><path d="M27.96 17c-.08.23-.1.45-.08.65l-.27.03c-.04 0-.06.02-.06.06v15.34c0 .04.02.06.06.06l.24.02.02.65a5.97 5.97 0 0 1-1.87-.39l.23-.6.6.2a.08.08 0 0 0 .08 0 .08.08 0 0 0 .03-.07V17.83a.07.07 0 0 0-.06-.06h-.03l-1.16.46-.56-.38a5.4 5.4 0 0 1 2.83-.85Z" fill="#B1835D"/><path d="m30.99 17.89-.18.64a5.39 5.39 0 0 0-1.66-.76.07.07 0 0 0-.05.07v15.12a.07.07 0 0 0 .03.06.07.07 0 0 0 .06 0 5.17 5.17 0 0 0 2.2-1.23l.3.59a5.5 5.5 0 0 1-3.82 1.43l-.02-.65c.19.03.37.02.56-.03.04 0 .06-.03.06-.07V17.73c0-.03-.02-.05-.06-.05l-.53-.03c-.02-.2 0-.42.08-.65 1.1 0 2.1.3 3.03.89Z" fill="#B8D86D"/><path d="m25.13 17.85.56.38a4.84 4.84 0 0 0-1.92 1.92.06.06 0 0 0 .03.05h.03l1.63.02c.19 0 .29.1.3.3v.02c0 .19-.1.28-.3.29h-1.93a.16.16 0 0 0-.16.12 6.98 6.98 0 0 0-.24 2.5H25.48c.16 0 .25.1.27.25v.09c0 .19-.1.29-.29.29h-2.3c-.04 0-.06.02-.06.06v2.52c0 .01 0 .03.02.04l.03.01 2.3.01c.2 0 .3.1.3.3v.02c0 .2-.1.3-.3.3h-2.3l-.02.02-.02.02a7 7 0 0 0 .25 2.44c.03.1.1.14.19.14l1.9.01c.2 0 .3.1.3.3v.01c0 .2-.1.3-.3.3h-1.62a.06.06 0 0 0-.05.04.06.06 0 0 0 0 .07c.56.99 1.38 1.7 2.45 2.13l-.23.6a5.64 5.64 0 0 1-3.51-5.1c0-.04-.02-.06-.06-.06h-.73l-.04.01a6.48 6.48 0 0 0 3.28 5.58c-.11.18-.2.37-.26.58a7.18 7.18 0 0 1-3.64-6.7.19.19 0 0 1 .07-.06.7.7 0 0 1 .32-.07 192.16 192.16 0 0 0 1.04-.02.06.06 0 0 0 .02-.04c-.01-1.84-.02-3.6-.01-5.27a5.66 5.66 0 0 1 2.65-4.43Z" fill="#9AA953"/><path d="m31.43 34.38-.31-.55a6.48 6.48 0 0 0 3.26-5.53c0-.04-.02-.05-.06-.05h-.72a.06.06 0 0 0-.06.05 5.65 5.65 0 0 1-1.85 4.08l-.3-.6a5.07 5.07 0 0 0 .88-1.17l-.01-.02h-1.68c-.2 0-.3-.1-.3-.3l-.01-.02c0-.2.1-.3.3-.3h1.95c.06 0 .1-.04.12-.1a6.4 6.4 0 0 0 .26-2.5.07.07 0 0 0-.05-.02l-2.24.02c-.22 0-.33-.11-.34-.33v-.02c0-.22.1-.33.31-.33l2.27.03a.08.08 0 0 0 .08-.09v-2.47a.08.08 0 0 0-.07-.07l-2.28.02c-.21 0-.32-.1-.31-.33v-.02c0-.22.12-.33.34-.32l2.25.01a.06.06 0 0 0 .06-.05 6.44 6.44 0 0 0-.32-2.54.11.11 0 0 0-.07-.02h-1.98c-.2 0-.29-.1-.28-.31v-.01c.01-.21.12-.31.32-.31h1.64a.05.05 0 0 0 .04-.02.05.05 0 0 0 0-.05 5.14 5.14 0 0 0-1.46-1.6l.18-.65c1.3.9 2.12 2.1 2.42 3.58.1.5.15 1.27.15 2.3a19351.52 19351.52 0 0 1 0 3.78.1.1 0 0 0 .1.06h1.16c.1 0 .15.05.16.15a7.07 7.07 0 0 1-3.55 6.61Z" fill="#E98D5F"/><path d="m31.12 33.84.3.54a6.7 6.7 0 0 1-2.34.83.08.08 0 0 0-.01.05v1.82c0 .04.02.07.06.07h1.45c.76-.02 1.26.3 1.48.93.16.45.1 1.19.09 1.67 0 .06-.03.13-.07.17a.25.25 0 0 1-.18.07l-4.05.01.03-.64h3.58l.06-.01a.08.08 0 0 0 .02-.06c.01-.68.1-1.5-.85-1.5l-2.73-.01-.1-.63h.51c.05 0 .07-.03.07-.07v-1.74c0-.02 0-.04-.02-.05a.06.06 0 0 0-.04-.02h-.47l.06-.62c1.1.01 2.16-.26 3.15-.81Z" fill="#D6D95E"/><path d="M24.94 33.86c.95.52 1.96.79 3.03.8l-.06.6a.6.6 0 0 0-.26.01c-.04.01-.06.03-.06.07v1.74c0 .03.02.06.05.06.07.02.14.02.22.01l.1.63h-2.62c-.93-.01-.84.85-.83 1.51a.07.07 0 0 0 .07.07h3.3l-.03.64h-3.72a.24.24 0 0 1-.17-.07.25.25 0 0 1-.08-.17l-.02-.95c-.01-.68.18-1.17.71-1.48.19-.11.54-.17 1.06-.17h1.26c.05 0 .07-.03.07-.08v-1.8a.1.1 0 0 0-.08-.09 7 7 0 0 1-2.2-.76c.06-.21.15-.4.26-.57ZM28.16 11l-.35.06c-.03 0-.05.03-.06.06a.9.9 0 0 0 0 .38c-.86.08-1.78.13-2.58.27-3.59.64-6.65 2.3-9.18 4.95a.57.57 0 0 0-.44-.3A17 17 0 0 1 28.15 11Z" fill="#AA8C5D"/><path d="m40.07 16.03-.4.33a16.61 16.61 0 0 0-11.92-4.86.9.9 0 0 1 0-.38c0-.03.03-.06.06-.06l.35-.06a17.05 17.05 0 0 1 11.9 5.03Z" fill="#DFCB5E"/><path d="m40.22 39.82-.58-.13.55-.62a16.44 16.44 0 0 0 4.28-11.22 16.57 16.57 0 0 0-4.8-11.5l.4-.32a17 17 0 0 1 .15 23.8Z" fill="#D94F71"/><path d="M16 16.72a16.25 16.25 0 0 0-4.22 14.04 16.12 16.12 0 0 0 6.14 10.27 16.55 16.55 0 0 0 10.27 3.47l-.4.02c-.03 0-.05.02-.05.06-.02.13 0 .27.04.42-.17 0-.35 0-.53-.02a17 17 0 0 1-11.7-28.56c.21.04.36.14.44.3Z" fill="#9AA953"/><path d="M40.22 39.82A16.86 16.86 0 0 1 29.9 44.9c-.7.08-1.4.12-2.12.1a.97.97 0 0 1-.04-.41c0-.04.02-.06.06-.06l.39-.02a16.84 16.84 0 0 0 11.45-4.8l.58.12Z" fill="#DFCB5E"/><defs><linearGradient id="a" x1="10.42" y1="9.71" x2="68.15" y2="76.02" gradientUnits="userSpaceOnUse"><stop stop-color="#1A1E21"/><stop offset="1" stop-color="#06060A"/></linearGradient></defs></svg>