<!-- by TradingView --><svg width="56" height="56" xmlns="http://www.w3.org/2000/svg"><path fill="#56428E" d="M0 0h56v56H0z"/><path d="M19.67 14h6.674c-.86 1.36-1.386 3.36-1.344 5h7c.042-1.612-.876-3.68-1.79-5h7.174C36.877 15.026 36 16.035 36 17.239V34h2.257l2.344-4H45l-3.557 7H25c-.25 1.991 1.123 3.85 2.536 5h-8.718c.786-1.061 2.362-1.756 2.182-3.295V23h4v3h7v-4H17.94l-3.566 6.007L17.94 34H20v3h-4.695A141.95 141.95 0 0110 28.007v-.014c1.738-3.177 3.55-5.841 5.333-8.993H21c.038-1.61-.427-3.675-1.33-5zM25 30v4h7v-4h-7zm12-11h4.429l3.448 7H40.56l-2.343-4H37v-3zm-1 19h-4c.12 1.83-1.67 2.872-2.83 4h9.225c-1.246-1.094-2.437-2.163-2.395-4z" fill="#fff"/></svg>