<!-- by TradingView --><svg width="56" height="56" viewBox="0 0 56 56" xmlns="http://www.w3.org/2000/svg"><path fill="#F653A2" d="M0 0h56v56H0z"/><path fill-rule="evenodd" d="M46 28 28 10 10 28l18 18 18-18Zm-30.9 3.68 5.44 5.44c.77-.94 3.66-4.18 7.15-4.36a9.25 9.25 0 0 0-2.19 5.74c0 1.91.86 3.9 1.61 5.2l.89.89.94-.95a10.63 10.63 0 0 0 1.56-5.14c0-2.5-1.57-5.03-2.2-5.74 3.5.18 6.4 3.44 7.16 4.37l4.31-4.32-.27.19c.64-.71 2-2.9 2-5 0-1.45-.65-3.18-1.26-4.35l-4.81-4.81c-.78.72-3.5 2.98-6.93 3.16.63-.7 2-2.89 2-5 0-1.6-.61-3.2-1.32-4.4L28 11.4l-1.03 1.03C26.2 13.8 25.5 15.63 25.5 17c0 2.11 1.37 4.3 2 5-3.42-.18-6.14-2.43-6.93-3.15l-3.2 3.2c4.84.72 8.95 5.93 8.95 5.93S21 33 17 33c.64-.71 2.02-2.9 2.02-5.02 0-1.92-1.16-4.73-1.84-5.74l-2.1 2.09a7.8 7.8 0 0 0-1.1 3.65c0 1.33.55 2.7 1.12 3.7ZM38.5 22c-.64.71-2.5 3.64-2.5 5.98 0 2.5 1.36 4.3 2 5.02-4.08-.22-8.32-5.02-8.32-5.02s4.74-5.76 8.82-5.98Z" fill="#0D106F"/></svg>