<!-- by TradingView --><svg width="56" height="56" xmlns="http://www.w3.org/2000/svg"><path fill="url(#paint0_linear)" d="M0 0h56v56H0z"/><path d="M12 18.756v18.488l16 9.244 16-9.244V18.756L28 9.512l-16 9.244zm2 17.245V19.752l14-8.027L42 20v16l-14.015 8.155L14 36z" fill="#fff"/><path d="M36.612 34.488L35 35.65V19.064l1.612 1.162c.24.174.388.487.388.825v12.612c0 .338-.147.651-.388.825z" fill="#fff"/><path d="M19.389 34.488L21 35.65V19.064l-1.611 1.162c-.241.174-.389.487-.389.825v12.612c0 .338.148.651.389.825zM25 36.491l2 1.443V26.516l-2 1.322v8.653zM25 26.5l2-1.427V22.19l-2 1.458V26.5z" fill="#E55200"/><path d="M31 36.491l-2 1.443V22.189l2 1.442v12.86z" fill="#fff"/><path d="M25.061 31.716l-4.544-2.535.415-2.084 4.689 2.563-.56 2.056z" fill="#E55200"/><path d="M30.907 31.549l4.642-2.247-.42-2.085-4.79 2.274.568 2.058z" fill="#fff"/><defs><linearGradient id="paint0_linear" x1="10.418" y1="9.712" x2="68.147" y2="76.017" gradientUnits="userSpaceOnUse"><stop stop-color="#1A1E21"/><stop offset="1" stop-color="#06060A"/></linearGradient></defs></svg>