<!-- by TradingView --><svg width="56" height="56" viewBox="0 0 56 56" xmlns="http://www.w3.org/2000/svg"><path fill="#DD1235" d="M0 0h56v56H0z"/><path d="M34.87 30c.04 0 .09.06.1.1.03.03.03.09.01.13l-6.7 11.7a.14.14 0 0 1-.05.05.14.14 0 0 1-.07.02h-4.03c-.02 0-.04 0-.06-.02a.13.13 0 0 1-.05-.05.14.14 0 0 1 0-.14l6.7-11.7c.02-.04.08-.09.12-.09h4.03Zm-4.04-4a.14.14 0 0 1-.11-.07l-6.7-11.72a.14.14 0 0 1 .05-.2.13.13 0 0 1 .06-.01h4.03c.03 0 .05 0 .07.02l.05.05 6.7 11.72c.02.04.02.1 0 .14a.13.13 0 0 1-.12.07h-4.03Z" fill="#fff"/><path d="M31.65 14.21a.14.14 0 0 1 0-.14.14.14 0 0 1 .13-.07h4.16a.13.13 0 0 1 .12.07l7.92 13.86a.14.14 0 0 1 0 .14l-7.92 13.86a.14.14 0 0 1-.12.07h-4.16a.14.14 0 0 1-.12-.07.14.14 0 0 1 0-.14L39.53 28l-7.88-13.79Zm-3.68 13.72c.02.02.03.04.03.07 0 .03-.01.06-.03.08l-7.85 13.85c-.02.04-.07.07-.12.07-.04 0-.09-.03-.12-.07l-7.86-13.86a.15.15 0 0 1 0-.15l7.87-13.84c.02-.03.07-.08.11-.08.05 0 .1.04.13.08l7.84 13.85Z" fill="#fff"/></svg>