<!-- by TradingView --><svg width="56" height="56" xmlns="http://www.w3.org/2000/svg"><path fill="#007F88" d="M0 0h56v56H0z"/><path d="M12.357 16.074s-.889.03-.855.081c.186.511 1.418 3.323 1.435 3.34 4.441.354 7.505 2.212 9.08 6.509h-2.514l-1.518 3.999s3.624-.005 4.033 0c-1.26 4.026-4.774 6.38-8.93 6.38-.177.418-1.462 3.403-1.4 3.424 7.198.834 13.991-4.479 14.65-9.804h3.207c0 .682.529 1.93.912 2.75 2.33 4.692 7.371 7.382 12.524 7.242.844-.017 1.485-.12 1.451-.205l-1.434-3.323c-4.057-.321-8.574-1.945-9.47-6.464h2.52c.035 0 1.39-4 1.39-4h-3.943c1.403-4.25 5.22-6.428 9.604-6.49 0 0 .97-2.19 1.401-3.307-6.502-1.219-13.863 3.081-14.971 9.798h-3.14c-.793-7.016-8.405-10.219-14.032-9.93z" fill="#fff"/></svg>