<!-- by TradingView --><svg width="56" height="56" xmlns="http://www.w3.org/2000/svg"><path fill="url(#paint0_linear)" d="M0 0h56v56H0z"/><path d="M32 19.695c0-5.456-2.613-10.148-4.6-11.676-.009-.005-.153-.087-.14.131l-.004.007c-.165 10.534-5.456 13.39-8.365 17.236-6.713 8.875-.47 18.606 5.888 20.405 3.557 1.006-.822-1.78-1.386-7.667C22.711 31.016 32 25.585 32 19.695z" fill="#E6EEFA"/><path d="M35.468 23.026c-.04-.028-.098-.048-.138.02-.109 1.341-1.435 4.21-3.115 6.844-5.7 8.934-2.452 13.241-.625 15.554 1.06 1.343 0 0 2.65-1.372.208-.108 5.172-2.984 5.71-9.537.52-6.346-3.169-10.347-4.482-11.509z" fill="#2EA7DF"/><defs><linearGradient id="paint0_linear" x1="10.418" y1="9.712" x2="68.147" y2="76.017" gradientUnits="userSpaceOnUse"><stop stop-color="#1A1E21"/><stop offset="1" stop-color="#06060A"/></linearGradient></defs></svg>