<!-- by TradingView --><svg width="56" height="56" xmlns="http://www.w3.org/2000/svg"><path fill="url(#paint0_linear)" d="M0 0h56v56H0z"/><path d="M38.603 20.058l-3.462 3.476a8.407 8.407 0 01-11.607 11.607l-3.476 3.462a13.237 13.237 0 0018.545-18.545zm-18.967 8a8.407 8.407 0 0112.756-7.215l3.491-3.49a13.236 13.236 0 00-18.53 18.53l3.49-3.476a8.364 8.364 0 01-1.222-4.35h.015zM41.091 17.818a2.91 2.91 0 100-5.818 2.91 2.91 0 000 5.818zM14.91 44a2.91 2.91 0 10-.001-5.818 2.91 2.91 0 000 5.818z" fill="#35B7BA"/><defs><linearGradient id="paint0_linear" x1="10.418" y1="9.712" x2="68.147" y2="76.017" gradientUnits="userSpaceOnUse"><stop stop-color="#1A1E21"/><stop offset="1" stop-color="#06060A"/></linearGradient></defs></svg>