<!-- by TradingView --><svg width="56" height="56" viewBox="0 0 56 56" xmlns="http://www.w3.org/2000/svg"><path fill="url(#a4vkqwsln)" d="M0 0h56v56H0z"/><path d="m25.5 32 .82.98a1 1 0 0 1 0 1.3L20.5 41h-3l8-9Z" fill="url(#b4vkqwsln)"/><path d="m33 28.74-.98 1.1a1 1 0 0 0-.01 1.32L40.5 41h3L33 28.74Z" fill="url(#c4vkqwsln)"/><path d="m27.62 26.62 1.03-1.1a1 1 0 0 0 .01-1.35L20.5 15h-3l10.12 11.62Z" fill="url(#d4vkqwsln)"/><path d="m30.5 23.5-.9-.9a1 1 0 0 1-.06-1.36L35 15h3l-7.5 8.5Z" fill="url(#e4vkqwsln)"/><path d="M25.76 27.35a.98.98 0 0 1 0 1.3L15 41h-3l10.76-12.35a.98.98 0 0 0 0-1.3L12 15h3l10.76 12.35Z" fill="url(#f4vkqwsln)"/><path d="M27.24 29.83a.99.99 0 0 0 0 1.3L35 41h3l-7.76-9.88a.98.98 0 0 1 0-1.3L44 15h-3.07L27.24 29.83Z" fill="url(#g4vkqwsln)"/><defs><linearGradient id="a4vkqwsln" x1="10.42" y1="9.71" x2="68.15" y2="76.02" gradientUnits="userSpaceOnUse"><stop stop-color="#1A1E21"/><stop offset="1" stop-color="#06060A"/></linearGradient><linearGradient id="b4vkqwsln" x1="25.26" y1="31.47" x2="16.23" y2="41.3" gradientUnits="userSpaceOnUse"><stop stop-color="#069DB3"/><stop offset="1" stop-color="#33E2FB"/></linearGradient><linearGradient id="c4vkqwsln" x1="32.82" y1="28.29" x2="44.89" y2="40.46" gradientUnits="userSpaceOnUse"><stop stop-color="#33E2FB"/><stop offset="1" stop-color="#069DB3"/></linearGradient><linearGradient id="d4vkqwsln" x1="27.8" y1="27.3" x2="16.17" y2="14.46" gradientUnits="userSpaceOnUse"><stop stop-color="#33E2FB"/><stop offset="1" stop-color="#069DB3"/></linearGradient><linearGradient id="e4vkqwsln" x1="30" y1="24" x2="38.5" y2="14.5" gradientUnits="userSpaceOnUse"><stop stop-color="#33E2FB"/><stop offset="1" stop-color="#069DB3"/></linearGradient><linearGradient id="f4vkqwsln" x1="24.33" y1="13.47" x2="1.96" y2="26.07" gradientUnits="userSpaceOnUse"><stop offset=".21" stop-color="#069DB3"/><stop offset="1" stop-color="#33E2FB"/></linearGradient><linearGradient id="g4vkqwsln" x1="28.47" y1="13.47" x2="52.57" y2="29.47" gradientUnits="userSpaceOnUse"><stop stop-color="#069DB3"/><stop offset="1" stop-color="#33E2FB"/></linearGradient></defs></svg>