<!-- by TradingView --><svg xmlns="http://www.w3.org/2000/svg" width="56" height="56"><path fill="url(#anhnezxf4)" d="M0 0h56v56H0z"/><path fill-rule="evenodd" d="M28 43c8.84 0 16-8.99 16-17.49C44 17.01 36.84 13 28 13s-16 3.98-16 12.51C12 35.22 19.16 43 28 43zm9.62-14.45a3.69 3.69 0 003.66-3.72 3.69 3.69 0 00-3.66-3.72c-1.36 0-2.55.76-3.18 1.89v-.01l-.03.07a37.25 37.25 0 01-6.73 10.11c-1.1-.92-4.28-6.36-5.8-9.1a3.67 3.67 0 00-3.58-2.96 3.69 3.69 0 00-3.65 3.72 3.69 3.69 0 003.65 3.72c.94 0 1.8-.36 2.45-.95 2.17 3.9 4.69 8.36 7.16 8.4 1.98.03 5.54-5.48 7.21-8.46a3.6 3.6 0 002.5 1z" fill="#fff"/><defs><linearGradient id="anhnezxf4" x1="10.42" y1="9.71" x2="68.15" y2="76.02" gradientUnits="userSpaceOnUse"><stop stop-color="#1A1E21"/><stop offset="1" stop-color="#06060A"/></linearGradient></defs></svg>