<!-- by TradingView --><svg width="56" height="56" viewBox="0 0 56 56" xmlns="http://www.w3.org/2000/svg"><path fill="#4D3DFF" d="M0 0h56v56H0z"/><path d="m31.34 12.03-.05.03a.07.07 0 0 0 0 .11 8.66 8.66 0 0 1 4.93 5.78c1.23 4.97-2.11 8.92-5.88 11.35l-2.1 1.36a12.9 12.9 0 0 0-2.47 2.14 6.96 6.96 0 0 0-1.87 4.89c.06 1.93.9 3.68 2.41 4.81 2.28 1.72 5.3 1.66 7.84.68 3.12-1.21 5.71-3.6 7.45-6.5a16.95 16.95 0 0 0 1.86-12.93.08.08 0 0 0-.06-.03c-.02 0-.03 0-.04.02l-.09.05a.06.06 0 0 0-.02.05c.82 6.81-3.12 12.31-8.76 15.36-1.05.57-2.66 1.12-3.72.25-.82-.69-.9-1.85-.3-2.74a6.18 6.18 0 0 1 1.8-1.63l1.72-1.06c.76-.47 1.6-1.1 2.49-1.9 2.69-2.42 4.38-5.85 4.06-9.57-.44-5.19-4.34-9.1-9.06-10.54a.18.18 0 0 0-.14.02Zm-6.69 31.95.05-.04.03-.02a.07.07 0 0 0 0-.07 8.66 8.66 0 0 1-4.95-5.8c-1.23-4.97 2.1-8.92 5.88-11.34l2.1-1.36c.86-.57 1.68-1.28 2.47-2.15a6.96 6.96 0 0 0 1.87-4.88 6.16 6.16 0 0 0-2.42-4.82c-2.27-1.71-5.29-1.66-7.83-.67a15.37 15.37 0 0 0-7.45 6.5 16.94 16.94 0 0 0-1.87 12.92.08.08 0 0 0 .07.03c.02 0 .03 0 .04-.02l.09-.05.02-.02v-.03c-.82-6.8 3.12-12.3 8.76-15.35 1.05-.57 2.65-1.13 3.71-.25.83.69.9 1.85.3 2.73a6.18 6.18 0 0 1-1.78 1.64L22 21.98a17.7 17.7 0 0 0-2.49 1.9c-2.69 2.42-4.38 5.85-4.06 9.57.44 5.18 4.33 9.1 9.05 10.54a.18.18 0 0 0 .14-.02Z" fill="#fff"/></svg>