<!-- by TradingView --><svg width="56" height="56" viewBox="0 0 56 56" xmlns="http://www.w3.org/2000/svg"><path fill="url(#atzh2uko4)" d="M0 0h56v56H0z"/><path d="M21.34 14.15c-.56.2-1.29.8-1.54 1.25a7.8 7.8 0 0 0-.34 1.38c-.36 2.02-1.08 2.61-3.67 3-1.06.15-2.08 1.45-2.1 2.66a3.04 3.04 0 0 1-1.85 2.64c-.27.1-.85.25-1.28.3-.98.13-1.4.34-1.97.97-.5.56-.67 1.2-.56 2.12.14 1.24 1.16 2.04 2.84 2.23 1.11.13 1.98.72 2.46 1.66.2.4.36.91.37 1.15a2.85 2.85 0 0 0 2.92 2.88c.24 0 .77.16 1.17.36.96.47 1.53 1.3 1.67 2.4.24 1.87 1.17 2.85 2.7 2.85.83 0 1.33-.2 1.9-.74.5-.47.68-.91.83-2a3.4 3.4 0 0 1 1.01-2.06 3.51 3.51 0 0 1 2-.76c1.52 0 2.88-1.22 2.89-2.59.01-1.33.82-2.66 2.06-3 .4-.1 1.02-.23 1.38-.27.74-.1 1.57-.7 1.93-1.39.13-.24.24-.75.24-1.14.02-1.42-1-2.47-2.61-2.67-1.5-.2-2.47-.83-3-1.95l-.32-.66-.26.57a2.8 2.8 0 0 1-1.5 1.36c-.34.13-.33.14.26.38 1.18.46 2.24 2.07 2.07 3.32-.2 1.43-1.5 2.46-3.14 2.66-1.75.21-2.42.86-2.74 2.66-.35 2-1.23 2.97-2.99 2.97-.9 0-1.32-.16-2-.75a3.02 3.02 0 0 1-1.06-2.15 2.83 2.83 0 0 0-2.81-2.73c-.75 0-1.6-.42-2.15-1.04-.62-.7-.76-1.1-.76-2.09 0-1.59 1.03-2.65 2.82-2.92 1.9-.3 2.64-.99 2.89-2.68.24-1.72 1.28-2.85 2.76-3.01a3.7 3.7 0 0 1 3.42 2.01l.24.6.26-.58c.3-.65.99-1.22 1.72-1.42.37-.1.41-.14.17-.15a4.61 4.61 0 0 1-1.96-1.08 3.68 3.68 0 0 1-.83-2.08 4.25 4.25 0 0 0-.43-1.34 2.74 2.74 0 0 0-3.11-1.13Z" fill="#00E093"/><path d="M33.43 14.02c-.08.03-.31.09-.52.13-.91.2-1.82 1.44-1.83 2.5 0 .73-.45 1.66-1.06 2.19-.64.55-.9.65-1.93.8-1.03.13-1.41.28-1.9.74-.59.54-.8 1.02-.94 2.1-.22 1.76-1.06 2.57-3 2.9-1.38.24-2.03.65-2.44 1.53-.35.76-.34 1.54.03 2.3.4.82 1.15 1.29 2.3 1.43 1.5.18 2.42.78 2.9 1.89l.23.55.18-.41c.22-.53 1.04-1.32 1.46-1.42.42-.1.41-.28-.03-.39-.5-.12-1.33-.87-1.66-1.52-.4-.78-.38-1.91.05-2.75.49-.93 1.25-1.4 2.54-1.58 1.22-.16 1.67-.36 2.18-.96.4-.46.6-1.06.74-2.12a3.12 3.12 0 0 1 4.17-2.43c1.12.46 1.69 1.25 1.95 2.72.23 1.27.32 1.47.88 2 .5.45.88.6 1.9.74 1.95.26 3.12 1.58 2.97 3.37-.13 1.51-1.19 2.48-2.97 2.73-1.77.25-2.55 1.04-2.78 2.8-.17 1.28-.7 2.07-1.76 2.6-.62.3-1.96.31-2.62 0a3.4 3.4 0 0 1-1.59-1.67l-.18-.51-.26.58a2.8 2.8 0 0 1-1.5 1.37c-.34.12-.34.13.25.37.64.25 1.39.98 1.63 1.6.08.2.2.77.28 1.27.16 1.12.64 1.85 1.47 2.24a2.64 2.64 0 0 0 3.85-2.24c.26-1.95 1.24-2.9 3.22-3.14 1.5-.18 2.35-1.01 2.57-2.53.18-1.24.4-1.73 1.1-2.34.59-.53 1.32-.82 2.1-.82a2.83 2.83 0 0 0 2.5-2c.43-1.58-.7-3.03-2.54-3.26-2-.24-2.83-1.06-3.15-3.07a4.08 4.08 0 0 0-.5-1.49 2.87 2.87 0 0 0-2.17-1.12c-.73 0-1.9-.54-2.37-1.1-.42-.49-.62-1.02-.75-2.05a2.84 2.84 0 0 0-1.3-2.13c-.54-.28-1.41-.5-1.7-.4Z" fill="#fff"/><defs><linearGradient id="atzh2uko4" x1="10.42" y1="9.71" x2="68.15" y2="76.02" gradientUnits="userSpaceOnUse"><stop stop-color="#1A1E21"/><stop offset="1" stop-color="#06060A"/></linearGradient></defs></svg>