<!-- by TradingView --><svg width="56" height="56" viewBox="0 0 56 56" xmlns="http://www.w3.org/2000/svg"><path fill="#F0F3FA" d="M0 0h56v56H0z"/><path d="m20.93 20 20.7-.04L35.08 16H14.32l6.61 4Zm22.49 1H20.77a.6.6 0 0 1-.31-.08l-8.18-4.88a.55.55 0 0 1-.26-.63c.07-.24.3-.41.56-.41h22.65c.11 0 .22.03.31.08l8.18 4.88c.23.13.33.39.26.63s-.3.41-.56.41ZM21.3 40h20.34l-6.58-4H14.4l6.9 4Zm22.1 1H20.78a.6.6 0 0 1-.31-.08l-8.18-4.88a.55.55 0 0 1-.26-.63c.07-.24.3-.41.56-.41h22.65c.11 0 .22.03.31.08l8.18 4.88c.23.13.33.39.26.63s-.3.41-.56.41ZM28 32a4 4 0 0 1-.04-8H28a3.97 3.97 0 0 1 4 3.96A4 4 0 0 1 28.04 32H28Z"/></svg>