<!-- by TradingView --><svg xmlns="http://www.w3.org/2000/svg" width="56" height="56"><path fill="url(#a45tiphm5)" d="M0 0h56v56H0z"/><path d="M12 19.51c0-1.3.9-3.62 2-4.51v26h-2V19.51z" fill="#8799E0"/><path d="M30 15h2v23.95a11.3 11.3 0 007.14-3.4c1.84-2 2.86-4.63 2.86-6.55V17h-4v11.5c0 1.3-.9 3.61-2 4.5V15h8v14c0 2.54-1.23 5.53-3.36 7.86a12.45 12.45 0 01-8.64 4.1V41h-2V17.04c-2.9.26-5.3 1.64-7 3.42-1.89 2-3 4.62-3 6.54v12h4V27.5c0-1.3.9-3.61 2-4.5v18h-8V27c0-2.55 1.26-5.53 3.46-7.86C23.7 16.78 27.06 15 30 15z" fill="#5A86E7"/><defs><linearGradient id="a45tiphm5" x1="10.42" y1="9.71" x2="68.15" y2="76.02" gradientUnits="userSpaceOnUse"><stop stop-color="#1A1E21"/><stop offset="1" stop-color="#06060A"/></linearGradient></defs></svg>