<!-- by TradingView --><svg width="56" height="56" xmlns="http://www.w3.org/2000/svg"><path fill="url(#paint0_linear)" d="M0 0h56v56H0z"/><path d="M28 10l-16 8.996v18.008L28 46l16-8.996V18.996L28 10zm.334 29.17l-12.29-6.83.058-3.322 12.218 6.816 5.89-3.321-3.94-2.21-1.485.823-2.763-1.545 1.469-.837-1.935-1.098-1.163.665-2.793-1.56 1.178-.664-6.254-3.524 11.796-6.642 11.142 6.195-2.997 1.69-8.145-4.55-5.891 3.307 3.302 1.863 1.673-.967 2.792 1.559-1.702.953 1.935 1.098 1.382-.78 2.778 1.545-1.396.794 6.923 3.9-11.782 6.642z" fill="#fff"/><defs><linearGradient id="paint0_linear" x1="10.418" y1="9.712" x2="68.147" y2="76.017" gradientUnits="userSpaceOnUse"><stop stop-color="#1A1E21"/><stop offset="1" stop-color="#06060A"/></linearGradient></defs></svg>