<!-- by TradingView --><svg width="56" height="56" xmlns="http://www.w3.org/2000/svg"><path fill="url(#paint0_linear)" d="M0 0h56v56H0z"/><path d="M37.103 13.882c0 1.033-.83 1.874-1.862 1.874-.49 0-.96-.197-1.306-.549a1.896 1.896 0 01.002-2.656c.348-.353.82-.551 1.311-.551.492 0 .964.198 1.312.551.347.353.543.832.543 1.33zm-1.339 6.523a1.573 1.573 0 01-1.57-1.58 1.611 1.611 0 01.257-.889c.171-.264.415-.47.702-.593a1.55 1.55 0 011.717.336 1.615 1.615 0 01.347 1.739 1.59 1.59 0 01-.578.717c-.259.176-.563.27-.875.27zm-.494 3.926a1.315 1.315 0 01-.927-.399 1.354 1.354 0 010-1.889 1.315 1.315 0 011.435-.302 1.32 1.32 0 01.724.719 1.36 1.36 0 01-.281 1.477 1.324 1.324 0 01-.951.394zm-.073 2.021c0 .306-.12.599-.332.814a1.126 1.126 0 01-1.605 0 1.16 1.16 0 010-1.628 1.126 1.126 0 011.605 0c.213.216.332.51.332.814zm-1.789 2.539a.982.982 0 01-.975.989.964.964 0 01-.541-.167 1.002 1.002 0 01-.148-1.521.971.971 0 011.062-.215c.178.075.33.202.438.365a.999.999 0 01.164.549zm-1.964 1.815c0 .225-.088.441-.245.6a.83.83 0 01-1.183 0 .855.855 0 010-1.2.83.83 0 011.183 0c.157.16.245.375.245.6zm9.994-10.936a1.6 1.6 0 01-.707.993 1.558 1.558 0 01-1.192.195 1.578 1.578 0 01-.978-.717 1.62 1.62 0 01-.193-1.209c.097-.413.351-.77.707-.992a1.558 1.558 0 011.192-.196c.407.098.759.356.978.717.22.361.29.796.193 1.21zm-.757 4.133c-.11.315-.331.577-.62.737-.29.16-.627.206-.948.13a1.338 1.338 0 01-.79-.546 1.373 1.373 0 01-.231-.941c.11-.315.331-.578.62-.738.29-.16.627-.206.948-.129.32.077.602.271.79.545.19.275.271.61.231.942zm-1.396 3.306c-.092.27-.28.495-.527.632a1.12 1.12 0 01-.809.11 1.134 1.134 0 01-.672-.468 1.164 1.164 0 01-.189-.806c.102-.255.291-.465.533-.591a1.12 1.12 0 011.44.35c.158.224.233.498.21.773h.014zm-1.804 2.508a.984.984 0 01-.431.614.959.959 0 01-1.337-.313.997.997 0 01-.123-.743.981.981 0 01.429-.618.952.952 0 01.735-.12.952.952 0 01.608.435.982.982 0 01.119.745zm-1.978 1.757a.838.838 0 01-.387.444.818.818 0 01-1.064-.255.85.85 0 01-.15-.573.838.838 0 01.387-.445.819.819 0 011.064.256.85.85 0 01.15.573zm-1.979 1.107a.72.72 0 01-.328.399.703.703 0 01-.932-.219.73.73 0 01-.122-.505.721.721 0 01.329-.4.705.705 0 01.932.22c.1.147.144.327.121.505zm10.328-7.173a1.345 1.345 0 01-.758.687 1.32 1.32 0 01-1.7-.828 1.373 1.373 0 01.058-1.04c.157-.322.433-.569.769-.685a1.321 1.321 0 011.02.065c.67.325.946 1.137.626 1.801h-.015zm-1.381 3.276c-.146.252-.38.44-.656.525a1.134 1.134 0 01-.832-.063 1.16 1.16 0 01-.57-.618 1.181 1.181 0 01-.008-.847c.132-.277.367-.49.653-.593.286-.102.6-.085.874.047a1.135 1.135 0 01.59.66 1.166 1.166 0 01-.051.89zm-1.76 2.48a.994.994 0 01-.563.5.975.975 0 01-.747-.043.972.972 0 01-.507-.565 1.003 1.003 0 01.042-.763.992.992 0 01.565-.45.976.976 0 01.716.058c.224.11.398.3.49.534.09.234.092.494.003.729zm-1.964 1.756a.863.863 0 01-.488.434.847.847 0 01-.647-.036.856.856 0 01-.488-.491.884.884 0 01.238-.981.855.855 0 01.658-.205.85.85 0 01.334.113.859.859 0 01.434.5.884.884 0 01-.041.666zm-1.964 1.077a.732.732 0 01-.418.375.719.719 0 01-.557-.035.736.736 0 01-.369-.424.75.75 0 01.035-.565.731.731 0 01.418-.374.719.719 0 01.556.035.736.736 0 01.37.424.75.75 0 01-.035.564zm-1.848.546a.618.618 0 01-1.18-.308.637.637 0 01.415-.56.614.614 0 01.474.027.61.61 0 01.322.358.63.63 0 01-.03.483zm1.499 7.158a1.871 1.871 0 01-.862-1.133 1.865 1.865 0 011.303-2.295c.474-.13.98-.065 1.406.181a1.897 1.897 0 01.684 2.568c-.25.429-.655.74-1.128.867-.474.127-.978.06-1.403-.188zm-4.35-2.258a1.563 1.563 0 01-.738-.961 1.599 1.599 0 01.156-1.208 1.59 1.59 0 01.956-.75 1.55 1.55 0 011.197.16 1.623 1.623 0 01.582 2.184 1.586 1.586 0 01-.955.75 1.549 1.549 0 01-1.198-.16v-.015zm-3.2-2.715a1.313 1.313 0 01-.626-.81 1.346 1.346 0 01.94-1.648 1.305 1.305 0 011.01.14 1.316 1.316 0 01.626.81 1.348 1.348 0 01-.94 1.649 1.305 1.305 0 01-1.01-.141zm-2.182-2.908a1.136 1.136 0 01-.557-.7 1.166 1.166 0 01.409-1.234 1.129 1.129 0 01.86-.218c.15.024.293.078.423.16.538.325.727 1.033.407 1.564-.15.264-.395.456-.684.536a1.12 1.12 0 01-.858-.108zm-1.28-2.848a.987.987 0 01-.448-.59 1.002 1.002 0 01.084-.738.976.976 0 01.587-.461.962.962 0 01.737.092.977.977 0 01-.223 1.79.962.962 0 01-.737-.093zm-.582-2.627a.851.851 0 01-.29-1.151.833.833 0 011.135-.295.83.83 0 01.449.51.852.852 0 01-.305.94.822.822 0 01-.974-.004h-.015zM30.31 43a1.551 1.551 0 01-1.12-.462 1.596 1.596 0 01-.466-1.132c0-.315.092-.622.264-.884.172-.262.416-.466.703-.587a1.55 1.55 0 011.71.339 1.616 1.616 0 01.35 1.732 1.59 1.59 0 01-.573.718 1.555 1.555 0 01-.869.276zm-4.248-3.158a1.342 1.342 0 01-.42-.94 1.36 1.36 0 01.362-.964 1.328 1.328 0 011.891-.059c.524.502.553 1.357.043 1.918a1.327 1.327 0 01-1.891.044h.015zm-2.138-2.864a1.135 1.135 0 01-.359-.802 1.15 1.15 0 01.315-.82 1.127 1.127 0 011.6-.045 1.136 1.136 0 01.35.795 1.153 1.153 0 01-.306.813 1.127 1.127 0 01-1.6.045v.014zm-1.252-2.848a.98.98 0 01-.043-1.372.962.962 0 01.674-.313.947.947 0 01.693.268.98.98 0 01.044 1.373.96.96 0 01-.675.312.945.945 0 01-.692-.268zm-.494-2.597a.847.847 0 01-.044-1.181.824.824 0 011.164-.044.82.82 0 01.044 1.18.824.824 0 01-1.164.045zm.029-2.288a.709.709 0 01-.18-.78.709.709 0 01.151-.238.708.708 0 011.004-.03.73.73 0 01-.015.977.709.709 0 01-.96.071zm.99 12.633a1.367 1.367 0 01-.212-1.018 1.37 1.37 0 01.56-.87 1.328 1.328 0 011.491-.007 1.374 1.374 0 01.022 2.25 1.337 1.337 0 01-1.862-.355zm-2.11-2.848a1.158 1.158 0 01-.192-.874 1.16 1.16 0 01.897-.928 1.133 1.133 0 01.866.168c.127.084.235.193.32.32a1.16 1.16 0 01.025 1.299 1.145 1.145 0 01-1.183.5 1.14 1.14 0 01-.733-.5v.015zm-1.251-2.79a1 1 0 01.262-1.387.977.977 0 011.367.266.997.997 0 01-.262 1.387.978.978 0 01-1.367-.265zm-.524-2.582a.878.878 0 01.542-1.342.845.845 0 01.646.128.864.864 0 01.367.55.869.869 0 01-.126.648.852.852 0 01-.236.237.849.849 0 01-1.193-.221zm.058-2.273a.744.744 0 01.204-1.033.721.721 0 011.018.207.75.75 0 01-.468 1.144.723.723 0 01-.753-.318zm.466-1.889a.636.636 0 01-.17-.504.641.641 0 01.268-.458.622.622 0 01.92.254.643.643 0 01-.212.793.619.619 0 01-.806-.085zm-6.91-2.287c.425-.248.93-.316 1.403-.189a1.865 1.865 0 011.313 2.296 1.886 1.886 0 01-.868 1.14 1.84 1.84 0 01-2.531-.694 1.899 1.899 0 01-.178-1.42c.128-.479.438-.886.861-1.133zm4.117-2.657c.36-.21.785-.267 1.186-.159.4.108.743.372.952.735a1.596 1.596 0 01-.582 2.169 1.552 1.552 0 01-1.189.153 1.575 1.575 0 01-1.141-1.328 1.6 1.6 0 01.315-1.166c.125-.164.281-.301.459-.404zm3.928-1.446a1.32 1.32 0 01.999-.129 1.34 1.34 0 01.943 1.64 1.352 1.352 0 01-.619.82c-.307.177-.67.223-1.01.13a1.34 1.34 0 01-.808-.631 1.34 1.34 0 01.495-1.83zm3.593-.443a1.12 1.12 0 01.854-.115c.289.078.536.267.688.528.147.265.185.578.106.87a1.12 1.12 0 01-1.386.802 1.137 1.137 0 01-.684-.536 1.166 1.166 0 01-.107-.87c.079-.293.269-.542.529-.694v.015zm3.054.295a.965.965 0 011.339.354c.121.227.151.493.082.741a.987.987 0 01-.45.589.962.962 0 01-.729.102.976.976 0 01-.59-.443 1.001 1.001 0 01-.091-.747.987.987 0 01.454-.596h-.015zm2.546.812a.833.833 0 011.135.31.852.852 0 01-.291 1.15.827.827 0 01-1.142-.302.855.855 0 01.298-1.158zm-14.387-3.291a1.548 1.548 0 011.2.117 1.576 1.576 0 01.764.945c.122.405.08.843-.117 1.216a1.579 1.579 0 01-.93.777c-.4.123-.83.08-1.199-.119a1.592 1.592 0 01-.765-.944c-.247-.856.218-1.741 1.047-1.992zm3.928-1.402c.324-.06.658.002.939.175.28.174.489.447.584.766.096.32.072.664-.067.967a1.347 1.347 0 01-.685.674 1.315 1.315 0 01-1.414-.436 1.356 1.356 0 01-.244-.464c-.05-.17-.068-.348-.05-.524a1.362 1.362 0 01.48-.91c.134-.113.29-.197.457-.248zm3.52-.428c.286-.088.594-.058.857.085.264.142.46.385.547.675.087.29.057.602-.084.87a1.129 1.129 0 01-1.102.598 1.113 1.113 0 01-.76-.412 1.144 1.144 0 01-.25-.835 1.154 1.154 0 01.405-.771c.114-.095.246-.167.387-.21zm3.055.324a.954.954 0 01.736.071c.227.122.396.33.472.579a.994.994 0 01-.07.747.97.97 0 01-.946.518.948.948 0 01-.654-.352.977.977 0 01-.178-.338.986.986 0 01.307-1.044.955.955 0 01.333-.18zm2.488.856a.819.819 0 01.612.083.84.84 0 01.386.489.853.853 0 01-.054.624.833.833 0 01-.794.459.82.82 0 01-.581-.299.845.845 0 01-.087-.954.837.837 0 01.518-.402zm1.934 1.181a.702.702 0 01.82.185.726.726 0 01.078.848.72.72 0 01-.476.34.704.704 0 01-.82-.185.725.725 0 01-.173-.563.731.731 0 01.298-.507.708.708 0 01.273-.118zm-11.288-5.475a1.322 1.322 0 01.987.317 1.356 1.356 0 01.468.937 1.386 1.386 0 01-.328.993 1.35 1.35 0 01-.923.468 1.332 1.332 0 01-.98-.332 1.367 1.367 0 01-.46-.937 1.378 1.378 0 01.329-.987 1.34 1.34 0 01.922-.46h-.015zm3.506-.414a1.122 1.122 0 01.826.28 1.15 1.15 0 01.389.79 1.17 1.17 0 01-.276.838 1.139 1.139 0 01-.78.395c-.3.02-.596-.083-.823-.285a1.164 1.164 0 01-.103-1.628c.2-.23.48-.37.781-.39h-.014zm3.011.296c.246.005.48.103.659.275a1.014 1.014 0 01.098 1.346.986.986 0 01-.611.37.981.981 0 01-.66-.275 1.01 1.01 0 01-.098-1.345.986.986 0 01.612-.371zm2.473.84c.21.01.411.098.562.247a.876.876 0 01-.446 1.48.847.847 0 01-.68-.17.87.87 0 01-.329-.627.882.882 0 01.242-.667.857.857 0 01.65-.262z" fill="#fff"/><defs><linearGradient id="paint0_linear" x1="10.418" y1="9.712" x2="68.147" y2="76.017" gradientUnits="userSpaceOnUse"><stop stop-color="#1A1E21"/><stop offset="1" stop-color="#06060A"/></linearGradient></defs></svg>