<!-- by TradingView --><svg width="56" height="56" viewBox="0 0 56 56" xmlns="http://www.w3.org/2000/svg"><path fill="url(#a)" d="M0 0h56v56H0z"/><path d="M43.14 27.12a6.8 6.8 0 0 1-1.21 8.2c-1.33 1.3-3 2-5 2.07a.07.07 0 0 0-.06.04 7.18 7.18 0 0 1-2.98 2.74c-1.25.63-2.59.9-4.02.81a7.6 7.6 0 0 1-5.15-2.32.07.07 0 0 0-.07-.02l-.44.08a6.3 6.3 0 0 1-3.78-.44 6.43 6.43 0 0 1-2.8-2.39.08.08 0 0 0-.06-.03 6.78 6.78 0 0 1-5.5-3.02 6.25 6.25 0 0 1-.85-5.23 6.52 6.52 0 0 1 2.62-3.64.08.08 0 0 0 .04-.06c.13-1.7.89-3.1 2.25-4.21.8-.65 1.74-1.1 2.8-1.36.03 0 .05-.02.06-.05a7.86 7.86 0 0 1 6.5-4.27 7.87 7.87 0 0 1 5.2 1.41.1.1 0 0 0 .07 0 6.77 6.77 0 0 1 6.85 1.63 6.48 6.48 0 0 1 1.6 2.55 5.48 5.48 0 0 1 3.77 2.74 5 5 0 0 1 .64 2.32c.02.8-.14 1.6-.48 2.37a.09.09 0 0 0 0 .08Z" fill="#F0F0F0"/><path d="M38.31 20.65a4.39 4.39 0 0 1 4.08 3.33c.23 1.07.05 2.1-.55 3.1a.07.07 0 0 0 0 .07 5.78 5.78 0 0 1-1.32 7.9 6.14 6.14 0 0 1-4.27 1.2.06.06 0 0 0-.06.04 6.1 6.1 0 0 1-3.4 3.15 6.7 6.7 0 0 1-4.57.13 6.15 6.15 0 0 1-3.11-2.2c-.03-.03-.05-.04-.08-.03a5.34 5.34 0 0 1-4.65-.32 4.93 4.93 0 0 1-2.04-2.26c-.01-.03-.03-.04-.07-.04a5.82 5.82 0 0 1-3.6-.87 5.4 5.4 0 0 1 .34-9.34c-.03-1.07.22-2 .76-2.78a5.6 5.6 0 0 1 3.3-2.3l.67-.14c.03 0 .05-.02.06-.04a6.67 6.67 0 0 1 4.67-3.96 7.04 7.04 0 0 1 6.03 1.4c.02.02.04.02.07.01 1-.46 2.07-.6 3.2-.41a5.44 5.44 0 0 1 4.49 4.3c0 .04.02.05.05.06Z" fill="#123849"/><path d="M28.69 19.82h.1c.14.02.25-.04.32-.16a4.56 4.56 0 0 1 1.68-1.73 4.28 4.28 0 0 1 6.34 3.34c0 .05-.02.08-.07.1-.42.1-.85.32-1.29.66-.18.14-.2.3-.05.47l.01.02c.13.16.29.17.47.04a3.28 3.28 0 0 1 1.37-.64c.14-.04.26-.07.36-.08a3.13 3.13 0 0 1 3.3 2.6 2.9 2.9 0 0 1-.53 2.16c-.02.03-.04.03-.07 0l-.67-.55c-.17-.14-.34-.13-.49.03l-.02.03c-.13.16-.11.31.04.45.66.54 1.04.88 1.15 1 .27.3.51.73.71 1.27.45 1.23.4 2.42-.17 3.6-.39.82-.99 1.47-1.8 1.96-1 .6-2.12.82-3.36.64-.05 0-.07-.03-.06-.08a4.6 4.6 0 0 0-.11-2c-.05-.18-.06-.32-.02-.42l.12-.36c.14-.43.21-.88.22-1.37 0-.03.02-.05.05-.04.66.07 1.32.05 2-.09.19-.04.29-.16.3-.36a.44.44 0 0 0-.04-.1c-.08-.17-.2-.23-.38-.2a6.1 6.1 0 0 1-1.91.06c-.03 0-.05-.02-.05-.05a5.15 5.15 0 0 0-3.86-4.42c-.04 0-.05-.03-.05-.06a4.55 4.55 0 0 0-.38-1.73.13.13 0 0 1-.01-.08 5.33 5.33 0 0 1 1.23-2.24c.14-.16.13-.31-.02-.47h-.01c-.17-.15-.33-.14-.47 0a5.47 5.47 0 0 0-1.2 1.87c0 .03-.03.03-.04 0a5.4 5.4 0 0 0-4.74-2.1.06.06 0 0 1-.06-.04 3.82 3.82 0 0 1-.36-1.3c-.02-.2-.14-.3-.35-.3l-.02.01c-.22.02-.32.14-.31.34.02.46.13.92.33 1.36 0 .02 0 .04-.03.04-.36.08-.73.2-1.1.37a.06.06 0 0 1-.07-.01 5.55 5.55 0 0 0-3.7-1.45c-.02 0-.03-.01-.02-.04a5.6 5.6 0 0 1 5.95-3.43c1.12.16 2.12.61 2.97 1.37.04.03.04.05 0 .08-.54.4-.97.91-1.31 1.54-.1.19-.04.35.18.49Z" fill="#FF5DA8"/><path d="M17.59 24.78v-.04c-.05-.2-.18-.3-.39-.28-.28.02-.57.07-.88.16-.04.02-.07 0-.07-.04-.05-.56.02-1.1.23-1.6.19-.48.48-.9.88-1.28a5.1 5.1 0 0 1 2.93-1.28c1.4-.12 2.64.24 3.71 1.1.04.03.04.06 0 .08a5 5 0 0 0-1.25 1.13c-.13.18-.1.34.1.5.08.05.15.06.24.04a.37.37 0 0 0 .2-.12 4.83 4.83 0 0 1 1.48-1.2c.22-.15.41-.24.56-.3a4.94 4.94 0 0 1 5.06 1.1c.7.68 1.1 1.55 1.23 2.6 0 .06-.02.09-.08.08-1.6-.1-2.96.4-4.07 1.52-.17.17-.15.35.07.52v.01a.3.3 0 0 0 .22.05.38.38 0 0 0 .21-.11 4.42 4.42 0 0 1 3.96-1.26c.17.01.3.03.4.07a4.53 4.53 0 0 1 2.53 1.95c.66 1.1.86 2.28.58 3.55-.01.06-.04.07-.07.01a5.15 5.15 0 0 0-1.47-1.58c-.17-.12-.32-.1-.47.06-.14.18-.12.33.05.47a5.18 5.18 0 0 1 1.5 1.78c.28.57.42 1.14.43 1.72 0 .54-.12 1.08-.35 1.63a4.62 4.62 0 0 1-2.31 2.34c-1.26.61-2.59.72-3.98.32a4.88 4.88 0 0 1-3.1-2.5c-.1-.17-.23-.2-.43-.08a4.06 4.06 0 0 1-5.86-1.68 7.93 7.93 0 0 1-.32-1.36 3.98 3.98 0 0 1 2.24-3.96c.15-.1.2-.23.14-.4v-.02c-.13-.2-.3-.25-.5-.16-.47.23-.9.54-1.27.92-.02.03-.04.03-.07.02a4.51 4.51 0 0 0-3.72-.3c-.23.09-.31.23-.25.44v.02c.08.21.22.28.43.2a3.83 3.83 0 0 1 3.1.17c.02.02.03.03.01.05a4.66 4.66 0 0 0-.73 3.62c0 .03-.01.04-.04.04a4.43 4.43 0 0 1-4.87-2.99 4.15 4.15 0 0 1 3.77-5.4c.18-.02.28-.13.29-.33Z" fill="#FF5DA8"/><path d="M22.2 25.69c.42.1.87.09 1.37-.03.1-.03.2.01.3.11.08.1.1.21.05.33a.39.39 0 0 1-.27.23 3.22 3.22 0 0 1-3.03-.73.37.37 0 0 1-.14-.33c.01-.12.08-.21.21-.26.13-.05.24-.04.32.03.38.33.78.55 1.2.65ZM36.7 25.77a2.74 2.74 0 0 0-.8.37c-.07.04-.17.03-.3-.04-.1-.07-.16-.16-.16-.28 0-.12.05-.21.16-.29.27-.2.58-.34.95-.42.36-.09.7-.1 1.04-.04.13.03.22.1.27.2.05.1.05.2-.02.32-.07.11-.16.17-.25.16h-.08a2.75 2.75 0 0 0-.8.02ZM30.34 33c.24.55.36 1.12.35 1.74 0 .16-.08.26-.24.3a.37.37 0 0 1-.1.03c-.23-.03-.35-.14-.35-.34a3.9 3.9 0 0 0-.32-1.51c-.01-.03-.04-.05-.07-.04a4.14 4.14 0 0 1-4.53-2.06c-.02-.03-.05-.04-.1-.03-.87.26-1.58.78-2.14 1.55a.22.22 0 0 1-.16.1h-.24c-.23-.16-.28-.34-.14-.53a4.58 4.58 0 0 1 2.46-1.76c.03 0 .03-.02.03-.04a3.9 3.9 0 0 1 .74-3.56c.14-.18.3-.2.48-.08l.02.01c.18.13.2.28.07.45a3.27 3.27 0 0 0 0 4.16 3.45 3.45 0 0 0 5.25-.02c.15-.17.3-.18.48-.04l.01.01c.16.15.17.3.03.46-.44.52-.94.9-1.5 1.12-.04.02-.05.05-.03.09Z" fill="#123849"/><defs><linearGradient id="a" x1="10.42" y1="9.71" x2="68.15" y2="76.02" gradientUnits="userSpaceOnUse"><stop stop-color="#1A1E21"/><stop offset="1" stop-color="#06060A"/></linearGradient></defs></svg>