<!-- by TradingView --><svg width="56" height="56" viewBox="0 0 56 56" xmlns="http://www.w3.org/2000/svg"><path fill="url(#auymufp54)" d="M0 0h56v56H0z"/><path d="M26.4 12c-5.85.5-10 4.52-11.36 6.48l2.29-.2a13.95 13.95 0 0 1 8.38-4.59l.7-1.69ZM26.4 44c-5.85-.5-10.13-4.51-11.4-6.65l1.86-.2c2.43 3.12 6.58 4.9 8.24 5.03L26.4 44ZM29.62 12c5.8.4 9.85 4.45 11.37 6.59l-1.88.26c-2.8-3.46-6.43-4.85-8.2-5.03L29.62 12ZM29.62 44c5.8-.4 9.85-4.45 11.37-6.59l-2.23.19a14.09 14.09 0 0 1-8.42 4.68L29.62 44ZM13.4 34.61c-2.54-5.83-1.06-11.29 0-13.28l1.12 1.47a15.41 15.41 0 0 0-.2 9.78l-.92 2.03ZM42.6 34.61c2.55-5.83 1.03-11.24-.03-13.24l-.88 2.04c1.43 3.83.34 8.1-.23 9.7l1.15 1.5Z" fill="#fff"/><path d="m25.01 18.76 2.92-6.65 6.4 8.67 7.3-.76-4.3 9.87 4.4 5.97-10.71 1.22-2.93 6.78-6.42-8.68-7.33.84 4.33-9.94-4.33-6.05 10.67-1.27Z" fill="#fff"/><path d="m38.9 21.97-3.53.41c.9 2.44.2 4.4-.27 5.06.51.3.93.74 1.07.92l2.74-6.39Z" fill="url(#buymufp54)"/><path d="m25.81 21.1 2.5-5.64c1.4 1.88 4.45 5.96 5.28 7.24a3.8 3.8 0 0 1 .3 3.37l-2.37 5.23-2.54-3.45 2.74-6.62-6.05.62c0-.38.1-.66.14-.75Z" fill="url(#cuymufp54)"/><path d="m24.22 20.59-6.9.78 2.2 3a5.53 5.53 0 0 1 4.46-2.32c0-.77.16-1.3.24-1.46Z" fill="url(#duymufp54)"/><path d="m23.13 23.85 5.93-.66-1.68 4.02-7.1.91 3.6 4.95c-.37.18-1.04.3-1.32.34l-5.53.61c.92-2.13 2.92-6.75 3.57-8.2a3.36 3.36 0 0 1 2.53-1.97Z" fill="url(#euymufp54)"/><path d="m27.58 28.9-4.23.55a712 712 0 0 0 3.42 4.7c1.05 1.42 2.9 1.4 3.85 1.3l8.03-.97-3.48-4.71c-.3-.4-.65-.66-.78-.74l-2.45 5.55-4.36-5.68Z" fill="url(#fuymufp54)"/><path d="M24.87 34.5a7.3 7.3 0 0 1-1.23.46l4.1 5.55 1.4-3.3a6.09 6.09 0 0 1-4.27-2.7Z" fill="url(#guymufp54)"/><defs><linearGradient id="auymufp54" x1="5.27" y1="44.43" x2="49.87" y2="18.24" gradientUnits="userSpaceOnUse"><stop stop-color="#1190D4"/><stop offset=".34" stop-color="#5060AE"/><stop offset=".69" stop-color="#AC4179"/><stop offset="1" stop-color="#E0375C"/></linearGradient><linearGradient id="buymufp54" x1="39.64" y1="21.97" x2="34.69" y2="27.38" gradientUnits="userSpaceOnUse"><stop stop-color="#BD3D6F"/><stop offset="1" stop-color="#924987"/></linearGradient><linearGradient id="cuymufp54" x1="32.58" y1="20.19" x2="27.23" y2="26.59" gradientUnits="userSpaceOnUse"><stop stop-color="#A3447E"/><stop offset="1" stop-color="#7F5092"/></linearGradient><linearGradient id="duymufp54" x1="24.92" y1="20.59" x2="18.32" y2="22.48" gradientUnits="userSpaceOnUse"><stop stop-color="#8D4B8B"/><stop offset="1" stop-color="#6A579F"/></linearGradient><linearGradient id="euymufp54" x1="29.06" y1="23.19" x2="17.03" y2="34.02" gradientUnits="userSpaceOnUse"><stop stop-color="#8F4A89"/><stop offset="1" stop-color="#4865B2"/></linearGradient><linearGradient id="fuymufp54" x1="33.9" y1="28.11" x2="26.37" y2="33.92" gradientUnits="userSpaceOnUse"><stop stop-color="#8C4B8A"/><stop offset="1" stop-color="#6D569C"/></linearGradient><linearGradient id="guymufp54" x1="27.17" y1="35.5" x2="24.66" y2="38.21" gradientUnits="userSpaceOnUse"><stop stop-color="#7A5195"/><stop offset="1" stop-color="#615AA4"/></linearGradient></defs></svg>