<!-- by TradingView --><svg width="56" height="56" xmlns="http://www.w3.org/2000/svg"><path fill="url(#paint0_linear)" d="M0 0h56v56H0z"/><path d="M29.927 13.135A2.003 2.003 0 0028 10.598a2 2 0 00-1.972 2.337l-10.1 5.664A2 2 0 1014 21.937v12.126a2 2 0 101.655 3.569L26 43.421a2 2 0 103.996-.143l10.223-5.742A2 2 0 1042 34.063V21.937a2 2 0 10-2.11-3.123l-9.962-5.679zm-3.535.652a1.997 1.997 0 003.145.091L34 16.46v9.983l-1.655 1.03-2.492-1.72a2 2 0 10-3.769-.176l-2.697 1.895L22 26.527V16.29l4.392-2.503zM34 39.804l-4.338 2.485a1.998 1.998 0 00-3.37.073L22 39.97V29.86l1.387-1.082 2.73 1.545a2 2 0 103.735-.077l2.493-1.584L34 29.822v9.982zM15 21.936a2 2 0 001.391-2.59L21 16.797v10.21l1.588 1.114L21 29.34v10.115l-4.646-2.703A2 2 0 0015 34.063V21.937zm26.001 12.126a2 2 0 00-1.355 2.688L35 39.27v-10.1l-1.573-1.05L35 27.009V17.02l4.545 2.553a2 2 0 001.456 2.363v12.126zm-14.523-7.606l.156.004c.358.334.838.539 1.366.539.472 0 .905-.163 1.247-.436l2.252 1.558-2.17 1.383A1.993 1.993 0 0028 29c-.519 0-.991.197-1.347.521l-2.513-1.4 2.338-1.664z" fill="#fff"/><defs><linearGradient id="paint0_linear" x1="6.669" y1="10.69" x2="49.965" y2="45.077" gradientUnits="userSpaceOnUse"><stop stop-color="#092036"/><stop offset=".382" stop-color="#173F64"/><stop offset="1" stop-color="#061828"/></linearGradient></defs></svg>