<!-- by TradingView --><svg width="56" height="56" viewBox="0 0 56 56" xmlns="http://www.w3.org/2000/svg"><path fill="#EB2324" d="M0 0h56v56H0z"/><path d="M28.23 11C37.03 11 45 19.15 45 27.88 45 41.03 34.62 45 32.4 45c-2.92 0-3.4-3.65-3.4-5.15 0-1.5 3.67-6.85 7.58-6.85 1.7 0 1.79.55 2.42 1 .71-.98.98-2.6 1-4.45.09-6.57-5.9-10.38-11.8-10.55h-.4c-5.84 0-11.86 4.24-11.8 10.55.02 2.23.51 4.17 1.02 4.45.6-.42.67-1 2.4-1 3.91 0 7.58 5.35 7.58 6.85S26.52 45 23.6 45C21.38 45 11 41.03 11 27.88 11 19.18 18.96 11 27.74 11h.49Z" fill="#F0F3FA"/></svg>