<!-- by TradingView --><svg width="56" height="56" fill="none" xmlns="http://www.w3.org/2000/svg"><path fill="#F0F3FA" d="M0 0h56v56H0z"/><path fill-rule="evenodd" clip-rule="evenodd" d="M22.176 12.024c.961-.35 1.963-.617 2.996-.79v.871h1.44v-1.05a17.212 17.212 0 012.828.005v1.045h1.441v-.862c1.04.178 2.049.45 3.016.807l-.357.741 1.299.625.388-.808c.908.427 1.772.933 2.584 1.507l-.547.63 1.089.945.6-.692c.78.658 1.5 1.386 2.152 2.173l-.666.427.778 1.213.761-.489c.57.82 1.068 1.694 1.488 2.61l-.712.237.455 1.367.801-.266c.341.953.6 1.946.767 2.97h-.779v1.462l.952-.021a17.24 17.24 0 01-.028 2.955l-.007-.035h-.95v1.462l.763-.016a16.88 16.88 0 01-.812 2.94l-.648-.327-.66 1.305.74.354c-.43.902-.939 1.76-1.515 2.566l-.498-.505-1.041 1.026.642.624a17.104 17.104 0 01-2.131 2.095l-.339-.615-1.28.705.456.788a16.976 16.976 0 01-2.473 1.416l-.167-.636-1.414.372.235.821c-.973.355-1.988.624-3.035.797v-.763h-1.38v.933a17.207 17.207 0 01-2.879-.006v-.912h-1.38v.737a16.868 16.868 0 01-2.916-.765l.242-.842-1.414-.372-.174.662a16.988 16.988 0 01-2.722-1.577l.429-.47-.948-.864-.501.55a17.096 17.096 0 01-2.122-2.102l.556-.405-.847-1.166-.594.432a16.991 16.991 0 01-1.528-2.612l.667-.198-.411-1.381-.816.243c-.344-.931-.61-1.9-.787-2.899l.83-.041-.07-1.44-.952.048a17.218 17.218 0 01-.013-2.976l.87.083.134-1.435-.825-.078c.17-1.012.43-1.994.77-2.937l.736.329.588-1.316-.776-.346c.417-.904.911-1.765 1.474-2.575l.693.544.89-1.133-.712-.559c.641-.774 1.35-1.49 2.116-2.14l.523.659 1.128-.896-.513-.647c.843-.6 1.742-1.125 2.69-1.565l.382.834 1.31-.6-.36-.785zM28 42c7.732 0 14-6.268 14-14s-6.268-14-14-14-14 6.268-14 14 6.268 14 14 14zm13-14c0 7.18-5.82 13-13 13s-13-5.82-13-13 5.82-13 13-13 13 5.82 13 13zm-13-7a2 2 0 100-4 2 2 0 000 4zm-5 5l7-3.861v6.01l7-3.538v1.335l-7 3.55v4.427c0 3.383-2.018 5.478-4.457 5.478-2.202 0-4.308-1.147-4.308-3.92 0-2.532 2.84-4.615 5.765-5.986v-4.28l-4 2.032V26zm4 7.363V31c-1.631.964-2.742 2.549-2.933 3.568-.191 1.02-.036 2.641 1.305 2.41 1.342-.232 1.628-2.41 1.628-3.615z" fill="#F6931E"/></svg>