<!-- by TradingView --><svg width="56" height="56" viewBox="0 0 56 56" xmlns="http://www.w3.org/2000/svg"><path fill="#8071FE" d="M0 0h56v56H0z"/><path d="M28.67 13.08c0 .09.01.14.05.16a.4.4 0 0 1-.02.18c-.04.09-.1.1-.15.02a.68.68 0 0 0-.18-.14c-.07-.05-.1-.03-.12.05l-.11 1.06c-.18.13-.37.21-.56.25l-.59.13a6.4 6.4 0 0 0-.9.46c-.5.23-.95.55-1.36.94a3 3 0 0 1-1.1.56c-.07.05-.13.06-.16 0a.2.2 0 0 1-.05-.11 5.07 5.07 0 0 0 1.45-1.12c.78-.92 1.59-1.76 2.44-2.53.25-.22.2-.34-.13-.34-.7-.02-1.43.04-2.2.17-.43.07-1.09.14-1.98.21l-.45.04a.95.95 0 0 1 .7-.54c1.02-.3 2.05-.47 3.1-.53a3.38 3.38 0 0 1 1.33.29c.21.06.4.17.55.32l.44.47Z" fill="#DBD0C8"/><path d="M36.43 15.32c-.2.46-.52.84-.96 1.16.06-.24.26-.58.59-1.02.58-.77.6-1.55.05-2.35-.1-.39-.3-.58-.6-.57a3.5 3.5 0 0 0-1.43.46c-.19.04-.35.12-.5.22l-.44.3c-.62.34-1.2.72-1.77 1.14-.4.18-.67.33-.8.43-.85.7-1.69 1.42-2.5 2.17-.15.15-.45.28-.88.37h-.1c-.04-.04-.04-.08 0-.14a4.5 4.5 0 0 0 1.6-1.12l.79-.84 1.58-1.22c.26-.22.6-.45 1.02-.7.35-.22.69-.45 1.02-.7a5.48 5.48 0 0 1 2.46-.73c.3 0 .57.17.8.51.53.85.56 1.72.07 2.63Z" fill="#E31F28"/><path d="M23.25 12.53a.95.95 0 0 0-.7.54c-.25.35-.3.73-.12 1.15.17.38.36.77.59 1.15-.11.04-.21 0-.3-.12a6.78 6.78 0 0 1-.5-.88 1.26 1.26 0 0 1-.14-.69c.02-.23.06-.47.11-.72.33-.26.68-.4 1.06-.43Z" fill="#712018"/><path d="m36.1 13.11-.4.17c-.64.26-1.09.49-1.35.67-.42.3-.73.7-.91 1.2l-.66 2.04a.25.25 0 0 0 .04.23c.05.08.12.12.2.13l.72.06c-.8.18-1.53.17-2.23-.03-.08-.02-.14.03-.15.16l-.1-.01-.05-.11c-.14-.15-.17-.32-.09-.54.34-.33.54-.56.6-.68a.84.84 0 0 0 0-.86l-.02-.63c.11-.08.28-.21.5-.4.34-.3.59-.49.75-.57a16.55 16.55 0 0 0 1.12-.66c.17-.2.18-.29.01-.28a3.5 3.5 0 0 1 1.43-.46c.3 0 .5.18.6.57Z" fill="#98090B"/><path d="m23.42 16.64-.4-1.27c-.23-.38-.42-.77-.59-1.15a1.1 1.1 0 0 1 .12-1.15l.45-.04c.9-.07 1.55-.14 1.98-.21.77-.13 1.5-.18 2.2-.17.33 0 .38.12.13.34-.85.77-1.66 1.61-2.44 2.53-.32.4-.8.76-1.45 1.12Z" fill="#F1E4F2"/><path d="M33.1 12.91c-.33.25-.67.48-1.02.7-.41.25-.75.48-1.02.7l-1.58 1.22-1-.04c-.06 0-.07-.03-.02-.07l.35-.34c.03-.04.03-.07 0-.1-.04-.04-.08-.05-.14-.04-.76.17-1.48.24-2.13.22.1-.13.23-.21.4-.26.92-.22 1.81-.5 2.68-.84.27-.1.6-.2 1.02-.3.33-.07.67-.17 1.01-.3.46-.27.95-.45 1.45-.55Z" fill="#FB9391"/><path d="M22.2 12.96c-.06.25-.1.49-.12.72-.02.23.02.46.14.69.17.35.34.64.5.88.09.12.19.16.3.12l.4 1.27c0 .03.02.07.05.11.03.06.09.05.16 0-.15.19-.34.33-.58.42-.98-.23-1.53-.78-1.65-1.64-.02-.15-.1-.21-.26-.19l-1.6.26a.2.2 0 0 0-.17.1l-.65 1.22c.1-.45.13-.75.06-.91.55-.8 1.3-1.62 2.26-2.42.36-.3.74-.51 1.15-.63Z" fill="#97403C"/><path d="M34.08 13c.17-.01.16.08 0 .28l-.2.15c-.3.18-.61.35-.93.5a4.5 4.5 0 0 0-.75.57c-.22.2-.39.33-.5.41l-.33-.25c.56-.42 1.15-.8 1.77-1.14l.44-.3c.15-.1.32-.18.5-.22ZM31.65 13.46c-.34.13-.68.23-1.01.3-.42.1-.75.2-1.02.3-.87.34-1.77.62-2.68.84a.68.68 0 0 0-.4.26l-.45.09c.29-.18.59-.33.9-.46l.58-.13c.2-.04.38-.12.57-.25l.81-.27a.52.52 0 0 1 .2-.02c.12 0 .2-.03.27-.1.05-.06.04-.1-.04-.13-.27-.1-.49-.32-.66-.64-.04-.03-.06-.08-.05-.17 1.01 0 2 .13 2.98.38Z" fill="#111"/><path d="M35.47 16.48c-.38.47-.96.85-1.73 1.14l-.72-.07a.27.27 0 0 1-.2-.13.25.25 0 0 1-.04-.23l.66-2.03c.18-.5.49-.9.91-1.21.26-.18.7-.4 1.34-.67l.42-.17c.55.8.53 1.58-.05 2.35-.33.44-.53.78-.59 1.02Z" fill="#B30303"/><path d="M28.72 13.25c.17.33.39.54.66.64.08.03.1.07.04.14-.07.06-.15.1-.27.09-.07 0-.13 0-.2.02l-.82.27.12-1.05c.01-.09.05-.1.12-.06.07.04.13.09.17.14.07.08.12.07.16-.01a.4.4 0 0 0 .02-.18Z" fill="#B39E9B"/><path d="M21.48 13.77c.18-.14.3-.29.27-.33-.04-.04-.21.04-.39.18-.18.15-.3.3-.27.33.04.04.2-.04.39-.18Z" fill="#CD7C61"/><path d="m31.37 14.66.33.25.02.63c-.15-.23-.27-.13-.35.29-.01.08-.06.09-.13.03l-.11-.1c-.06-.05-.1-.05-.14 0a.13.13 0 0 0-.02.06c0 .05.01.07.05.1.12.04.17.12.16.23 0 .04-.04.1-.1.18-.21.25-.2.5.04.75-.08.22-.05.4.09.54-.43-.14-.8-.36-1.12-.66-.05-.05-.09-.04-.1.03-.17.8.03 1.29.6 1.48.3.07.57.18.82.3.1.06.19.14.26.25l.2.3c.1.28.03.6-.2.98a.9.9 0 0 0 .01-.06.9.9 0 0 0-.39-.23c-.07-.02-.11 0-.12.08-.02.12-.1.18-.23.16-.05 0-.09.02-.1.08 0 .03.01.06.04.08.15.1.24.2.28.3.02.1 0 .15-.1.16l-.77.13a.17.17 0 0 0-.14.1.17.17 0 0 0 0 .16l1.2 2.26c.1.22.27.27.49.16l.6-.3a.15.15 0 0 1 .09-.02c.06 0 .1.02.14.05l-.28.19c-.31.19-.6.4-.88.65-.14.12-.26.2-.38.26a.97.97 0 0 0-.37.28c-.05.06-.1.09-.18.1l-1.13.16c-.53 0-1-.25-1.39-.71-.4-.48-.7-.86-.88-1.14a.14.14 0 0 1 0-.16l.04-.07c.04-.07.07-.07.1 0 .35.57.74 1.07 1.19 1.51.16.16.48.26.96.3l.13.02c.26.03.5-.03.69-.17.2-.14.37-.32.52-.53.18-.23.22-.42.12-.56a7.54 7.54 0 0 1-.98-2.22c0-.12-.04-.29-.1-.5-.06-.23-.1-.4-.08-.52.03-.4.07-.69.12-.87.1-.3.26-.52.48-.65.08-.05.08-.08 0-.12a.99.99 0 0 1-.53-.48c-.03-.04-.08-.08-.16-.1a3.05 3.05 0 0 1-.32-.17c-.2-.1-.43-.09-.73.02a.3.3 0 0 0-.16.14c-.35.62-.93.84-1.74.66-.07-.01-.08-.05-.03-.1a.23.23 0 0 1 .08-.05.66.66 0 0 1 .37 0c.74-.02 1.17-.4 1.28-1.16v-.01l-.07-.04c-.03-.02-.05-.01-.06.01l-.34.57a.42.42 0 0 1-.36.22l-1.51.08-.22-.03a8.66 8.66 0 0 0-2.06-.2 2.9 2.9 0 0 1-1-.25l4.16.04c.04 0 .07-.01.09-.04a.09.09 0 0 0 0-.1.2.2 0 0 0-.18-.1.6.6 0 0 0 .2-.08c-.03.06-.03.1 0 .13.03.02.06.02.11.01.43-.1.73-.22.89-.37.8-.75 1.64-1.48 2.5-2.17.12-.1.39-.25.8-.43Z" fill="#97403C"/><path d="m29.48 15.53-.79.84a4.5 4.5 0 0 1-1.8 1.19h-.28l1.4-.85a.1.1 0 0 0 .04-.1c0-.04-.03-.07-.07-.09-.22-.07-.4-.21-.56-.42a.18.18 0 0 0-.17-.08l-2.52.18c.41-.4.86-.72 1.36-.95l.45-.09c.65.02 1.37-.05 2.14-.22.05-.01.1 0 .13.04.03.03.03.06 0 .1l-.35.34c-.05.04-.04.07.03.07l1 .04Z" fill="#EC525B"/><path d="M23.05 17.17a.71.71 0 0 1-.18.24c-.2.12-.18.18.06.16.43-.04.82-.09 1.18-.16a3 3 0 0 1 .95.07 8.2 8.2 0 0 0 1.55.08h.27a.2.2 0 0 1 .18.11c.02.03.02.06 0 .1a.09.09 0 0 1-.08.04l-4.17-.05c-.75.16-1.52.19-2.3.1a.75.75 0 0 1-.3-.07c-.1-.08-.18-.1-.26-.04a.3.3 0 0 1-.2.06l-.97-.04-.06-.86.65-1.2a.2.2 0 0 1 .16-.11l1.61-.26c.15-.02.24.04.26.19.12.86.67 1.41 1.65 1.64Z" fill="#712018"/><path d="M31.72 15.54c.16.28.17.57 0 .86a3.8 3.8 0 0 1-.6.68c-.24-.25-.25-.5-.05-.75.07-.08.1-.14.1-.18.02-.11-.03-.19-.15-.24-.04-.02-.06-.05-.05-.09 0-.03 0-.05.02-.07.04-.04.08-.04.14 0l.1.1c.08.07.12.06.14-.02.08-.42.2-.52.35-.3Z" fill="#B39E9B"/><path d="M36.43 15.32a15.71 15.71 0 0 1 5.96 6.39 15.05 15.05 0 0 1 .19 13.16l-.49 1.1a28.39 28.39 0 0 1-4.66-4.54 714.73 714.73 0 0 1-4.16-5.13c-.1-.13-.1-.27 0-.4.25-.38.35-.83.28-1.36-.08-.56-.32-.95-.73-1.18-.12.03-.13-.1-.06-.4a1.8 1.8 0 0 0-.67-1.9 1.3 1.3 0 0 1-.37-.45l-.04-.3c.22-.38.28-.71.19-1 .1-.64-.07-1.17-.51-1.57.01-.13.07-.18.15-.16.7.2 1.44.21 2.23.04a3.94 3.94 0 0 0 1.73-1.14c.44-.32.76-.7.96-1.16Z" fill="#111"/><path d="M26.61 17.56h-.13a8.2 8.2 0 0 1-1.42-.08 3 3 0 0 0-.95-.07c-.36.07-.75.12-1.18.16-.24.02-.26-.04-.06-.16.05-.03.1-.1.18-.24.24-.1.43-.24.58-.42a3 3 0 0 0 1.1-.56l2.52-.17c.07 0 .13.02.17.08.15.2.34.35.56.42.04.02.06.05.07.09a.1.1 0 0 1-.05.1l-1.39.85Z" fill="#E31F28"/><path d="M18.78 16c.07.16.05.47-.06.92l.06.85-.06.1c-.03.02-.03.06-.02.1.01.06 0 .11-.04.16l-.39.42a1.2 1.2 0 0 0-.14.9c.05.25.1.5.13.75.01.07 0 .14-.03.2a2.49 2.49 0 0 0-.14 1.67c.12.54.35 1.06.7 1.56.04.06.05.12.02.18l-.72 1.57a13.4 13.4 0 0 1-1.92 3.08l-1.5 1.76c-.08.08-.21.18-.42.31a.63.63 0 0 0-.36.24c-.04.06-.03.1.05.11l1.49.23-.3.4-2.01 2.03-.5-1.8a15 15 0 0 1 .14-7.02 15.11 15.11 0 0 1 6.02-8.71Z" fill="#111"/><path d="m31.2 17.62.06.1-.96.1c-.13.01-.15.07-.08.17l.38.47c-.58-.18-.78-.68-.61-1.48.01-.06.05-.07.1-.03.32.3.7.53 1.12.67ZM27.15 18.57l.05-.12c.03-.07 0-.1-.07-.12l-1.04-.09 1.5-.07c.17 0 .29-.08.37-.22l.34-.57c.01-.02.03-.03.06-.02l.07.04v.02c-.11.75-.54 1.13-1.28 1.15Z" fill="#B39E9B"/><path d="M22.81 17.76c.44.17.77.26 1 .25.7-.01 1.38.06 2.06.21l-1.46-.12c-.24-.02-.4.09-.48.32l-.22.61c-.12.36-.05.4.22.13a2.1 2.1 0 0 1 1.26-.61 7.25 7.25 0 0 1 1.6.03.23.23 0 0 0-.09.05c-.05.05-.04.09.03.1.82.18 1.4-.05 1.74-.66a.3.3 0 0 1 .16-.14c.3-.11.54-.12.73-.02l.32.16c.08.03.13.06.16.11.12.23.3.4.53.48.08.03.08.07 0 .12-.22.13-.38.35-.48.65-.05.18-.1.47-.12.87-.01.12.02.29.08.52.06.21.1.38.1.5l-.58-1.94a.3.3 0 0 0-.24-.23l-.68-.15c-.14-.04-.18 0-.11.14.68 1.28.75 2.63.2 4.05-.02.05-.03.05-.03 0-.02-.4-.2-.84-.55-1.3-.1-.11-.22-.14-.36-.1-.56.21-.79.63-.67 1.25-.7-.5-1.22-.78-1.55-.81-1.31-.16-2.21.33-2.7 1.47l-.38-.78a.18.18 0 0 1 .02-.18c.09-.13.15-.3.18-.5 0-.07.05-.11.12-.12.23-.03.56-.09 1.01-.18a8.9 8.9 0 0 1 1.74-.23c.08 0 .13 0 .16-.04a.17.17 0 0 0 .07-.1c0-.08-.02-.14-.08-.17l-2.2-1.38-.03-.06s0-.03-.02-.05c0-.03-.02-.04-.05-.03l-1.55.37c.15-.15.34-.29.57-.4.06-.04.08-.09.05-.15-.21-.5-.19-1 .08-1.46a.08.08 0 0 0 0-.09.1.1 0 0 0-.1-.04l-1.94-.07h-.15c-.13-.09-.3-.1-.52-.07a.33.33 0 0 1-.21-.03c-.2-.1-.45-.13-.73-.07l.06-.1.96.04a.3.3 0 0 0 .21-.06c.08-.06.16-.04.26.04.04.03.14.05.3.07.79.09 1.55.06 2.3-.1Z" fill="#CD7C61"/><path d="m31.26 17.73.1.01c.44.4.6.93.5 1.58-.06-.12-.13-.22-.19-.3a.74.74 0 0 0-.26-.24 3.8 3.8 0 0 0-.81-.31l-.38-.48c-.07-.1-.05-.16.08-.17l.96-.1Z" fill="#DBD0C8"/><path d="M18.71 17.87c.29-.06.53-.03.74.07.07.04.14.05.21.03.22-.04.4-.02.52.06h.14l1.95.08a.1.1 0 0 1 .09.04c.02.03.02.06 0 .1-.26.46-.28.94-.07 1.45.03.06.01.11-.05.14-.24.12-.42.25-.57.4-.55.52-.8 1.1-.73 1.75 0 .07.04.13.09.17.4.35.58.82.53 1.4.14.28.36.58.68.88.06.05.12.05.17 0 .08-.06.1-.2.08-.39.1-.1.16-.21.18-.36.5-1.13 1.4-1.62 2.71-1.46.33.03.84.3 1.55.81.38.71.87 1.4 1.47 2.03.27.34.57.57.9.7a6.11 6.11 0 0 0 1.48.28c.27.04.52.15.75.33a9.01 9.01 0 0 1 1.9 2c.2.3.48.87.84 1.73.25.6.54 1.18.86 1.75l.87 2.13 1.21 3.8.53 3.04.35 2.7c.01.08-.02.12-.1.12l-.89-.05c-.88-.29-1.78-.54-2.69-.75a9.67 9.67 0 0 1-2.7-1.27l.03-.06c.02-.02.04-.03.06-.01.2.13.4.21.65.23 1.2.52 2.43.94 3.7 1.26.06.02.1 0 .1-.07.11-2.32-.17-4.58-.84-6.8-.35-1.13-.71-2.07-1.08-2.8a8.68 8.68 0 0 0-1.71-2.39c-.68-.65-1.5-1.23-2.46-1.73a23.19 23.19 0 0 0-6.36-2.12 3.5 3.5 0 0 0-2.28.23c-.6.32-1.06.92-1.42 1.8a65.98 65.98 0 0 1-3.38 7.21 5.76 5.76 0 0 0-.7 2.76c1.24-.32 2.2-.64 2.88-.93a4.95 4.95 0 0 0 1.97-1.63c.34-.45.76-1.2 1.28-2.24l.28-.54a10.22 10.22 0 0 1-1.84 3.74c-.2.27-.5.5-.86.68a12.08 12.08 0 0 1-6.23 1.29c-.07 0-.08-.04-.04-.09l1.23-1.77.39-.44 2.3-2.98.86-1.42c.63-1 .87-2.03.72-3.13a16 16 0 0 1 .73-1.46c.13-.22.2-.45.25-.7.03-.23.08-.48.14-.76.04-.15.04-.24.01-.28l-.17-.26c-.06-.09-.12-.1-.17 0l-2.65 4.32c-.03.05-.06.04-.08-.02l-.01-.05 1.55-2.5a11 11 0 0 0 1.42-5.26l.33-.96c.17-.27.28-.56.32-.87 0-.07.03-.13.07-.19.22-.28.36-.6.42-.96.01-.06-.01-.1-.08-.09l-.46.04-.24.06a.59.59 0 0 1-.34-.02 1.82 1.82 0 0 0-1.33.02c-.18.08-.24.02-.2-.16.03-.13.02-.24-.02-.33-.1-.2-.17-.4-.18-.65l.4-.42c.03-.05.04-.1.03-.16-.01-.04 0-.08.01-.1Z" fill="#F1E4F2"/><path d="m25.87 18.22.22.03 1.04.09c.07 0 .1.04.07.11l-.05.12a.66.66 0 0 0-.37.01l-.15-.01a7.26 7.26 0 0 0-1.45-.02 2.1 2.1 0 0 0-1.25.6c-.27.28-.35.24-.22-.12l.22-.61c.08-.23.24-.34.48-.32l1.46.12Z" fill="#DBD0C8"/><path d="M18.27 18.55c.01.24.07.46.18.65.04.1.05.2.02.33-.04.19.03.24.2.17.41-.18.85-.19 1.33-.03-.43-.04-.62.01-.6.17-.38-.04-.71.09-.98.37v.09c-.03 0-.03.02 0 .04a.1.1 0 0 0 .09.01h.09c-.2.35-.27.8-.22 1.32.1.94.43 1.72 1 2.35-.16.48-.6.94-1.29 1.36l.72-1.57a.16.16 0 0 0-.01-.18 4.32 4.32 0 0 1-.71-1.56c-.14-.63-.1-1.19.14-1.67a.33.33 0 0 0 .03-.2l-.13-.74a1.2 1.2 0 0 1 .14-.9ZM29.95 21.32c.2.8.53 1.54.98 2.22.1.14.05.33-.12.56-.15.21-.32.39-.52.53s-.43.2-.69.17l-.13-.01c-.48-.05-.8-.15-.96-.31a7.37 7.37 0 0 1-1.18-1.52c-.04-.06-.08-.06-.11 0l-.05.08a.14.14 0 0 0 .01.16c.18.28.48.65.88 1.14.4.46.86.7 1.39.7l.7.25c.03.01.04.02 0 .02a.1.1 0 0 1-.03 0h.01c.02 0 .02 0 0 .01a2.4 2.4 0 0 1-.64.1 18.3 18.3 0 0 1 .03.02 65.55 65.55 0 0 1 .73.03l-.8.05c-.08 0-.08.02 0 .06a1.95 1.95 0 0 0 .82.05h-.01l-.03.02-.68.05c-.42-.13-.8-.34-1.15-.63a9.76 9.76 0 0 1-1.47-2.03c-.12-.62.1-1.04.67-1.24.14-.05.26-.02.35.1.35.45.54.88.56 1.28 0 .06.01.06.03 0a4.68 4.68 0 0 0-.2-4.04c-.07-.13-.04-.18.1-.14l.69.15c.12.03.2.1.24.23l.58 1.94Z" fill="#DC9576"/><path d="M27.14 20.15a.85.85 0 0 0-.68-.2l.08-.13c.04-.07.02-.12-.06-.14-.13-.03-.24 0-.34.1-.04.05-.06.13-.06.26-.1-.15-.3-.2-.56-.17a.68.68 0 0 0-.56.44c0-.1-.06-.15-.2-.12a.59.59 0 0 1-.07-.33c0-.06.04-.12.1-.17l.55-.43c.05-.04.1-.06.16-.06.49 0 1.03.1 1.63.3.07.03.12.07.15.14.15.36.32.64.5.84.05.05.05.1-.02.14l-.29.18c-.06.04-.09.1-.08.16.05.26-.1.44-.47.55-.07.02-.11 0-.14-.07l-.03-.07c-.01-.04 0-.06.03-.08l.33-.18a.2.2 0 0 0 .1-.15c.03-.15.07-.28.14-.38a.21.21 0 0 0 .02-.2c-.04-.09-.11-.17-.23-.23Z" fill="#97403C"/><path d="m20.3 21.7.03-1.02c.01-.62-.02-.63-.1-.03l-.02.14c-.01.1-.07.1-.17.05a7.54 7.54 0 0 1-.47-.28c-.14-.1-.25-.13-.3-.12l-.36.12c-.1.04-.18.17-.22.4-.18.91.06 1.7.75 2.35a.1.1 0 0 0 .12.02.1.1 0 0 0 .08-.1c0-.85.12-1.04.34-.57v.07l-.45 1.01-.15.29a4.04 4.04 0 0 1-1-2.36 2.2 2.2 0 0 1 .22-1.33c.27-.18.59-.31.94-.4.1-.02.1-.05 0-.08a.37.37 0 0 0-.13-.02c-.04-.16.16-.21.59-.17.12.05.24.05.34.03l.24-.07.46-.04c.07 0 .1.03.08.1-.06.35-.2.67-.42.95a.37.37 0 0 0-.07.19c-.04.32-.15.6-.32.87Z" fill="#CD7C61"/><path d="M26.46 19.94c-.12.18-.1.36.08.55.1.1.1.22 0 .36-.34.32-.78.28-1.3-.1a.19.19 0 0 1-.09-.16v-.1a.62.62 0 0 1 .15-.37c.05-.06.1-.08.16-.06l.54.22c.06.02.1-.01.1-.1.01-.03 0-.08-.01-.14 0-.13.01-.21.05-.25.1-.11.22-.15.35-.1.07.01.1.06.05.12l-.08.13Z" fill="#712018"/><path d="M19.4 19.84c.06 0 .1 0 .15.02.09.03.08.06 0 .08-.36.08-.68.22-.95.4l-.1.01a.1.1 0 0 1-.08-.01c-.03-.02-.03-.03 0-.04v-.09c.27-.28.6-.4.99-.37Z" fill="#DBD0C8"/><path d="M22.68 23.7a.57.57 0 0 1-.2.35c-.1-.3-.24-.5-.44-.65-.13-.09-.29-.04-.48.15a1.52 1.52 0 0 0-.53-1.38.25.25 0 0 1-.1-.17c-.05-.65.2-1.23.74-1.75l1.55-.37c.02 0 .04 0 .05.03l.02.05c0 .04.02.06.03.07l2.2 1.37c.06.04.09.1.07.16 0 .04-.02.08-.06.11-.03.03-.09.05-.16.04-.39 0-.97.07-1.74.23-.45.1-.79.15-1 .18-.08.01-.12.05-.14.12-.03.2-.09.37-.18.5a.18.18 0 0 0-.01.19l.38.77Z" fill="#FB9391"/><path d="m26.08 20.04.03.15c-.01.08-.05.11-.11.09l-.54-.22c-.06-.02-.11 0-.17.06a.62.62 0 0 0-.13.37l-.16.02a.28.28 0 0 1-.04-.2c.1-.25.3-.4.56-.44.26-.04.45.02.56.17Z" fill="#DBD0C8"/><path d="M27.14 20.15c.05.49-.1.77-.48.87-.09.02-.13-.04-.12-.17.1-.14.1-.26 0-.36-.17-.19-.2-.37-.08-.55.24-.03.47.04.68.21Z" fill="#F1E4F2"/><path d="M31.68 20.24c-.2-.08-.3-.03-.3.16 0 .09.03.15.09.2.07.05.15.05.25 0 .1.2.22.34.37.46-.14.04-.21.11-.22.22 0 .07.02.12.09.14.26.1.42.25.47.44.06.23.08.56.06.98 0 .06.02.1.07.14.05.03.1.03.15 0l.06-.01c-.08.29-.07.42.05.39l-.15.05a.34.34 0 0 0-.14-.05l-.09.01-.6.3c-.22.11-.38.06-.5-.15l-1.2-2.26a.17.17 0 0 1 0-.17.17.17 0 0 1 .15-.1l.77-.12c.1-.01.12-.06.1-.15-.04-.12-.13-.22-.28-.3-.03-.03-.04-.06-.04-.1.01-.05.05-.07.1-.07.14.01.21-.04.23-.16 0-.08.05-.1.12-.08a.9.9 0 0 1 .39.23Z" fill="#CD7C61"/><path d="M30.45 20.07a.39.39 0 0 1 .25-.03c.03 0 .05.02.05.06v.07c0 .03-.02.04-.05.04a.6.6 0 0 1-.25-.02c-.02-.01-.04-.03-.04-.06s.02-.05.04-.06Z" fill="#B39E9B"/><path d="M24.77 20.18c.13-.02.2.02.2.13-.02.06-.01.12.03.2 0 .05-.02.07-.07.07a.36.36 0 0 1-.29-.13c-.05-.06-.05-.12 0-.17a.4.4 0 0 1 .13-.1Z" fill="#712018"/><path d="M31.68 20.24a.9.9 0 0 1 0 .06l.04.31c-.1.04-.18.04-.25-.02-.06-.04-.09-.1-.09-.19 0-.19.1-.24.3-.16Z" fill="#DBD0C8"/><path d="m20.3 21.7-.32.96c-.22-.47-.34-.28-.34.57a.1.1 0 0 1-.08.1.1.1 0 0 1-.12-.02 2.42 2.42 0 0 1-.75-2.36c.04-.22.12-.36.22-.4.12-.04.24-.08.35-.1.06-.02.17.01.31.1.2.14.35.23.47.29.1.06.16.04.17-.05l.02-.14c.08-.6.11-.6.1.03l-.02 1.02Z" fill="#97403C"/><path d="M32.1 21.06c.6.5.83 1.14.67 1.9l-.06.03a.15.15 0 0 1-.15-.01.15.15 0 0 1-.07-.14c.02-.42 0-.75-.06-.98-.05-.19-.2-.33-.47-.44-.07-.02-.1-.07-.1-.14.02-.11.1-.18.23-.22Z" fill="#FB9391"/><path d="M19.6 21.88c-.11.11-.16.24-.1.3.05.05.19 0 .3-.11.11-.11.16-.25.1-.3-.05-.05-.19 0-.3.1Z" fill="#DC9576"/><path d="M18.96 29.63a8.08 8.08 0 0 1-3.5 3.78c-.18.1-.48.2-.9.34-.23.07-.51.21-.83.41-.32.2-.65.33-.99.39l-.54-.06c-.24-.03-.26-.11-.07-.25l.99-.7 2.01-2.03a3.4 3.4 0 0 0 1.06-.78 23.76 23.76 0 0 0 2.7-4.4c.3-.66.51-1.53.65-2.59l.44-1.01a11 11 0 0 1-1.42 5.19 430.05 430.05 0 0 0-1.55 2.5l.01.05c.03.06.05.07.08.02l2.65-4.33c.05-.08.1-.08.17.01l.17.26c.03.04.03.13 0 .29-.07.27-.11.52-.15.74-.04.26-.12.5-.25.71-.3.53-.54 1.02-.73 1.46Z" fill="#F5F5F7"/><path d="M22.49 24.05c.03.2 0 .33-.08.4-.05.05-.11.04-.16 0a3.2 3.2 0 0 1-.7-.9c.2-.19.36-.24.5-.15.19.14.34.36.44.65Z" fill="#B39E9B"/><path d="M32.82 23.36c.41.23.65.62.73 1.18.07.53-.03.98-.29 1.35-.1.14-.1.28.01.41l4.16 5.13a28.39 28.39 0 0 0 6.02 5.54c.05.04-.01.1-.19.18l-.4-.05a9.21 9.21 0 0 1-2.6-.62c-.96-.53-1.6-.9-1.93-1.1a8 8 0 0 1-2.93-3.61.15.15 0 0 0-.13-.1c-.06 0-.1.02-.14.06-.02.02-.02.06 0 .13-.32-.57-.61-1.16-.86-1.75a10.9 10.9 0 0 0-.84-1.72 9.01 9.01 0 0 0-1.9-2.01 1.56 1.56 0 0 0-.75-.33l-.29-.04a6.1 6.1 0 0 1-1.19-.24 2.13 2.13 0 0 1-.9-.7c.35.29.73.5 1.15.63.96.04 1.74-.02 2.33-.16.43-.11.78-.34 1.03-.67.29-.39.28-.76-.02-1.11a.2.2 0 0 0-.17-.08.58.58 0 0 1-.33-.08l.28-.2.15-.04Z" fill="#DBD0C8"/><path d="M32.39 23.6c.09.06.2.09.33.08a.2.2 0 0 1 .17.08c.3.35.3.72.02 1.1-.25.35-.6.57-1.03.68-.6.14-1.37.2-2.33.16l.68-.05.03-.01v-.02c-.41.03-.69.02-.82-.04-.07-.04-.07-.06.02-.06l.8-.05.01-.02h-.02a60.87 60.87 0 0 0-.75-.01l-.01-.01v-.01a2.39 2.39 0 0 0 .65-.1h-.02.03c.04-.01.04-.02 0-.03l-.7-.24 1.13-.16a.26.26 0 0 0 .18-.1c.1-.13.23-.22.37-.28.12-.05.24-.14.38-.26.27-.25.57-.46.88-.65Z" fill="#B39E9B"/><path d="M19.54 23.74a9.05 9.05 0 0 1-.65 2.6 23.75 23.75 0 0 1-2.7 4.4 3.4 3.4 0 0 1-1.05.77l.29-.4a7.24 7.24 0 0 0 1.37-2.61c.1-.3.04-.33-.16-.08l-.37.41c-.06.06-.18.2-.34.44-.19.24-.4.46-.67.63a.47.47 0 0 0-.14.14c-.18.3-.43.5-.76.62-.05.01-.09 0-.1-.05 0-.03-.01-.05 0-.07.2-.14.34-.24.4-.32.5-.59 1-1.18 1.52-1.76a13.4 13.4 0 0 0 1.91-3.08c.7-.42 1.13-.87 1.3-1.35l.15-.29Z" fill="#DBD0C8"/><path d="m25.04 24.7-.4.17c-.14.06-.15.03-.04-.07.31-.33.65-.5 1.02-.5.17 0 .19.04.05.14a.33.33 0 0 0-.1.15.2.2 0 0 0 0 .18c.25.5.5.85.76 1.06.69.57 1.5.93 2.42 1.08.03 0 .04.02.04.05-.01.04-.03.05-.06.04-.56-.11-1.18-.26-1.88-.44a1.53 1.53 0 0 1-.6-.36 4.6 4.6 0 0 1-1.03-1.4c-.04-.1-.1-.14-.18-.1Z" fill="#712018"/><path d="m32.45 41.74-.64-.34c-.14-.17 0-.3.45-.37.23-.04.4-.1.5-.2a1 1 0 0 0 .33-.53c.27-1.16.34-2.35.2-3.59a3.41 3.41 0 0 0-1.26-2.38c-.41-.33-.77-.44-1.07-.33-.18.07-.43.28-.74.65l-.35.4c-.46.47-1 .48-1.62.03a9.18 9.18 0 0 1-1.64-1.57c-.32-.4-.78-1-1.38-1.85l-.7-.97a1 1 0 0 0-.43-.36.26.26 0 0 0-.23.02.25.25 0 0 0-.13.19c-.11.7-.1 1.42.03 2.18a5.15 5.15 0 0 0-.74-1.73c-.18-.57-.4-1.16-.65-1.77-.18-.42-.46-.55-.85-.4-.18.07-.42.34-.73.82a34.44 34.44 0 0 0-2.02 3.65 46.29 46.29 0 0 1-2.03 3.78 5.52 5.52 0 0 0-.73 2.02c.02-1.02.25-1.94.7-2.75a65.97 65.97 0 0 0 3.39-7.23c.35-.87.82-1.47 1.4-1.79a3.5 3.5 0 0 1 2.29-.23 23.2 23.2 0 0 1 6.36 2.12c.96.5 1.78 1.08 2.46 1.73a8.68 8.68 0 0 1 1.7 2.38 19.76 19.76 0 0 1 1.92 9.6c0 .08-.03.1-.1.09a24.3 24.3 0 0 1-3.69-1.27Z" fill="#F5F5F7"/><path d="m23.03 31-.08.76c-.03.25-.08.5-.16.75-.13.41-.25.83-.36 1.24l-.28.54a15.98 15.98 0 0 1-1.28 2.24 4.95 4.95 0 0 1-1.97 1.63c-.68.3-1.64.6-2.88.93.1-.71.35-1.39.73-2.02.74-1.23 1.41-2.5 2.03-3.78a34.45 34.45 0 0 1 2.02-3.65c.31-.48.55-.75.73-.82.4-.15.67-.02.85.4.25.6.47 1.2.65 1.77Z" fill="#fff"/><path d="m15.43 31.11-1.49-.23c-.08-.01-.1-.05-.05-.11.07-.1.2-.19.36-.24v.08c.02.05.06.06.1.05.33-.12.59-.32.77-.62.03-.06.08-.1.14-.14.26-.17.48-.39.66-.63a5.62 5.62 0 0 1 .72-.86c.2-.24.25-.21.16.09-.29.99-.75 1.86-1.37 2.61Z" fill="#696868"/><path d="M31.8 41.4a30.28 30.28 0 0 1-3.26-2.07c-.65-.5-1.31-1.1-1.98-1.81-.6-.65-1.12-1.37-1.55-2.15a22.2 22.2 0 0 1-1.24-2.65 6.8 6.8 0 0 1-.03-2.18.25.25 0 0 1 .13-.2.26.26 0 0 1 .23 0 1 1 0 0 1 .44.35l.7.97c.59.84 1.05 1.46 1.37 1.85.55.66 1.1 1.18 1.64 1.57.62.45 1.16.44 1.62-.03l.35-.4c.3-.37.56-.59.74-.65.3-.11.65 0 1.06.32a3.41 3.41 0 0 1 1.26 2.39c.15 1.23.08 2.43-.2 3.6a1 1 0 0 1-.32.52c-.1.1-.27.16-.5.2-.45.08-.6.2-.45.37Z" fill="#fff"/><path d="m18.24 32.76.5-1.93h-.01l-.07-.02c-.03 0-.05 0-.06.03-.18.65-.4 1.07-.65 1.26-.48.37-.84.67-1.07.9-.34.32-.72.6-1.12.82-.54.3-1.09.55-1.64.76h-.5l-.88-.03c.34-.06.67-.19.99-.39.32-.2.6-.34.83-.41.42-.13.72-.24.9-.34a8.08 8.08 0 0 0 3.5-3.78c.15 1.1-.1 2.14-.72 3.13ZM23.77 32.72c.35.9.76 1.8 1.24 2.65.43.78.95 1.5 1.55 2.15.67.7 1.33 1.31 1.98 1.8.83.63 1.92 1.32 3.27 2.08l.64.34c-.24-.02-.46-.1-.65-.23-.02-.02-.04-.01-.05.01l-.04.06c1.11.69 2.01 1.11 2.7 1.27.91.21 1.81.46 2.7.75l-1.7-.11a60.8 60.8 0 0 0-4.48-1.3 8.38 8.38 0 0 1-1.02-.3c-1.62-.7-2.77-1.2-3.45-1.51a4.14 4.14 0 0 1-1.12-.71 12.1 12.1 0 0 1-.94-1 6.07 6.07 0 0 1-.71-1.35c-.21-.5-.46-.97-.74-1.42a.1.1 0 0 0-.08-.05.1.1 0 0 0-.09.05c-.18.3-.38.76-.6 1.35-.16.47-.3.81-.43 1.01-.2.34-.45.6-.78.79-.76.45-1.64.8-2.62 1.07-.16-.03-.35 0-.58.09l-4.76-.45a.16.16 0 0 1-.15-.1.16.16 0 0 1 .04-.18l1.8-1.88-1.24 1.77c-.04.05-.03.08.04.09 2.17.13 4.25-.3 6.23-1.29.37-.18.65-.4.86-.68a10.22 10.22 0 0 0 1.84-3.74c.1-.41.23-.83.36-1.24.08-.25.13-.5.16-.75l.08-.77c.32.45.56 1.03.74 1.73Z" fill="#DBD0C8"/><path d="m18.24 32.76-.87 1.42a9.17 9.17 0 0 1-3.25.4c.55-.2 1.1-.46 1.64-.76.4-.22.78-.5 1.12-.83.23-.22.6-.52 1.07-.9.25-.18.47-.6.65-1.25.01-.03.03-.04.06-.03l.07.01v.01l-.5 1.93ZM42.86 37.1c-1.23.2-2.44.17-3.63-.1a1.18 1.18 0 0 1-.36-.12 77.4 77.4 0 0 1-1.83-1.25.38.38 0 0 1-.13-.16c-.35-.83-.6-1.37-.74-1.63l-.06-.04c-.04 0-.07.01-.08.06l-.03.13-.87-2.13c-.02-.07-.02-.1 0-.13a.15.15 0 0 1 .14-.06c.07.01.1.04.13.1a8 8 0 0 0 2.93 3.6c.32.21.97.58 1.94 1.11.4.22 1.26.43 2.59.62Z" fill="#B39E9B"/><path d="m42.86 37.1.4.05-2.48.74a6.54 6.54 0 0 1-3.43-.4c-.08-.04-.13.07-.14.3l-1.2-3.8.02-.13c0-.05.04-.06.08-.06.02 0 .04.02.06.04.14.26.39.8.74 1.63.03.06.07.12.13.16.85.6 1.46 1 1.83 1.25.07.05.2.1.36.13 1.2.26 2.4.29 3.63.09Z" fill="#696868"/><path d="m17.37 34.18-2.3 2.98a7.23 7.23 0 0 1-1.45-2.59h.5c1 .08 2.09-.05 3.25-.4Z" fill="#111"/><path d="m35.42 43.49-2.25-.33-2.57-.6c-.94-.56-1.94-.97-3-1.24a2.73 2.73 0 0 1-.68-.25 5.17 5.17 0 0 0-.67-.31c-.28-.1-.6-.3-.95-.57-.52-.4-1.12-.81-1.8-1.23l-1.99.76c-.48.19-1.54.32-3.16.4.98-.26 1.86-.62 2.62-1.07.33-.19.59-.45.78-.78.12-.2.27-.55.44-1.02.2-.59.4-1.04.6-1.35a.1.1 0 0 1 .08-.05.1.1 0 0 1 .08.05c.28.45.53.93.74 1.42.3.7.53 1.15.7 1.36.3.34.61.67.95 1 .28.25.65.49 1.12.7l3.45 1.52c.16.07.5.17 1.03.3 1.5.37 3 .8 4.48 1.29Z" fill="#B39E9B"/><path d="M40.78 37.89a16.62 16.62 0 0 1-3.04 2.94l-.53-3.04c.01-.23.06-.34.14-.3 1.05.43 2.2.57 3.43.4ZM23.5 38.95a11.3 11.3 0 0 0 7.1 3.6l2.57.61a15.92 15.92 0 0 1-15.4-2.96c.23-.08.42-.11.58-.08a13.2 13.2 0 0 0 3.16-.4l2-.77Z" fill="#111"/><path d="M30.6 42.56a11.3 11.3 0 0 1-7.1-3.6c.68.42 1.28.83 1.8 1.23.35.27.67.46.95.57.23.08.46.19.67.3.19.1.41.2.67.26 1.07.26 2.07.68 3.01 1.24Z" fill="#696868"/></svg>