<!-- by TradingView --><svg width="56" height="56" xmlns="http://www.w3.org/2000/svg"><path fill="#F0F3FA" d="M0 0h56v56H0z"/><path d="M44.113 35.927c-.118.227-.227.445-.343.659a18.01 18.01 0 01-4.684 5.558 18.033 18.033 0 01-3.544 2.184 17.914 17.914 0 01-8.188 1.66 17.85 17.85 0 01-10.37-3.749 18.009 18.009 0 01-3.835-4.065 17.027 17.027 0 01-1.514-2.676 5.682 5.682 0 01-.462-1.75 3.775 3.775 0 01.116-1.48c.202-.679.615-1.199 1.21-1.576.509-.323 1.058-.523 1.672-.5.595.021 1.112.248 1.58.6.524.393.91.901 1.25 1.455a24.275 24.275 0 002.442 3.336c1.103 1.256 2.34 2.36 3.759 3.25a14.524 14.524 0 003.395 1.561c.83.26 1.676.44 2.536.557.972.132 1.95.178 2.929.135 1.181-.05 2.343-.24 3.49-.524.977-.241 1.931-.55 2.864-.923a18.792 18.792 0 003.217-1.634c.905-.582 1.75-1.235 2.444-2.068.003-.004.012-.003.036-.01zM11.89 20.058c.14-.261.274-.525.417-.783a17.964 17.964 0 013.895-4.831 17.817 17.817 0 019-4.223 18.367 18.367 0 013.692-.201 17.78 17.78 0 017.048 1.813 18.065 18.065 0 017.954 7.708c.348.655.669 1.32.827 2.053.135.628.185 1.259.052 1.892a2.742 2.742 0 01-1.22 1.784c-.411.271-.855.463-1.35.52-.598.069-1.146-.073-1.654-.383-.637-.388-1.107-.935-1.493-1.567-.886-1.447-1.887-2.808-3.06-4.039-1.249-1.31-2.654-2.417-4.268-3.249a14.478 14.478 0 00-3.69-1.307 16.708 16.708 0 00-4.138-.335c-.965.041-1.917.181-2.86.385a21.471 21.471 0 00-3.811 1.206c-1.41.594-2.75 1.317-3.958 2.265a9.018 9.018 0 00-1.324 1.26l-.04.044a2.705 2.705 0 01-.019-.012z" fill="#4A5EE0"/><path d="M28.003 19.71c4.554-.006 8.24 3.692 8.274 8.22.035 4.63-3.708 8.449-8.27 8.451-4.567.002-8.251-3.797-8.282-8.33-.031-4.564 3.674-8.354 8.278-8.341zm3.983 8.292c.019-.024.028-.04.04-.053.455-.48.726-1.047.802-1.705a2.857 2.857 0 00-.411-1.883c-.462-.742-1.478-1.194-2.335-1.367-.074-.015-.084-.047-.082-.114.005-.186-.003-.583 0-.768.001-.086-.032-.117-.119-.116-.506.003-1.275.013-1.78.01-.083 0-.103.032-.101.105.004.168-.005.608 0 .776.003.086-.028.12-.116.119-.774-.002-1-.007-1.774-.006-.083 0-.111-.034-.11-.113.003-.168-.001-.608-.001-.776 0-.075-.023-.112-.11-.111-.507.004-1.276.003-1.782 0-.084 0-.112.032-.11.111.003.16-.004.594.003.754.005.103-.032.137-.134.135-.309-.005-.443-.001-.752-.002-.062 0-.114-.005-.113.09.004.506.005 1.274-.001 1.78-.001.111.04.138.143.136.302-.006.429.007.73.002.098-.002.127.03.127.128-.002 2.13-.003 3.601 0 5.73 0 .112-.037.138-.14.136-.31-.006-.444-.002-.753-.003-.062 0-.107.003-.107.087 0 .52-.003 1.299-.006 1.82 0 .062.02.099.091.096.097-.005.338-.001.434 0h.371c.082 0 .116.048.113.13-.005.159.006.594 0 .754-.003.096.028.117.127.116a123.12 123.12 0 011.75 0c.09 0 .121-.032.12-.116-.002-.167.004-.6 0-.767-.002-.077.02-.117.095-.117h1.516l.258.002c.095 0 .14.033.134.14-.01.167-.001.6-.003.767 0 .066.024.091.093.091a293.68 293.68 0 011.805 0c.07 0 .103-.022.102-.096-.002-.19.006-.589 0-.778-.003-.08.022-.108.099-.128.19-.05.727-.099.909-.171 1.532-.611 2.26-2.396 1.6-3.91a3.156 3.156 0 00-.622-.915z" fill="#4A5EE0"/><path d="M10.968 26.768c-.012-.263-.035-.525-.034-.788.003-.863.153-1.7.456-2.51.394-1.05 1.022-1.941 1.84-2.705a15.802 15.802 0 013.682-2.572 17.904 17.904 0 013.758-1.386 21.253 21.253 0 012.696-.487 22.02 22.02 0 013.967-.102c.248.016.496.046.744.07.014.001.027.008.053.015-3.528.296-6.786 1.368-9.776 3.24-2.982 1.866-5.434 4.277-7.386 7.225zm16.914 12.946c3.518-.314 6.78-1.389 9.771-3.263a23.697 23.697 0 007.367-7.248c.015.181.038.352.042.524.044 1.592-.363 3.053-1.282 4.363-.378.54-.843 1-1.334 1.435a15.842 15.842 0 01-4.148 2.652 19.052 19.052 0 01-4.567 1.346 22.372 22.372 0 01-4.626.279c-.408-.017-.815-.058-1.223-.088z" fill="#ED9D72"/><path d="M28.087 27H26.15c-.148 0-.15-.002-.15-.149 0-.722.002-.994 0-1.716 0-.094.016-.141.127-.14 1.25.003 2.563-.004 3.813.005.633.005 1.001.197 1.06.76.077.712-.327 1.144-.926 1.227-.099.014-.2.013-.3.013-.283.002-.566 0-.849 0h-.837zm.004 2.004l1.853.002c.509.01.892.17 1.056.65.238.698-.437 1.35-1.1 1.35-1.228.002-2.52 0-3.747 0-.154 0-.153 0-.153-.153a295.82 295.82 0 00-.006-1.762c-.001-.093.05-.091.114-.091.64 0 1.343.004 1.983.004z" fill="#4A5EE0"/></svg>