<!-- by TradingView --><svg xmlns="http://www.w3.org/2000/svg" width="56" height="56"><path fill="url(#ay5pyr4jw)" d="M0 0h56v56H0z"/><path d="M21 24h3.55c.46 0 1.81-.47 3.54-2.11 1.72-1.65 6.33-5.97 8.41-7.89H44L32 25.5 43.9 42H38l-5-7c.64 1.53 1.02 5.42-.19 9 .3-3.46-1.61-7.26-1.98-7.75-.33-.44-2.08-3.94-2.92-5.63-.76-3.28 2.66-6.57 4.47-7.8-2.38-1.52-4.5.24-5.26 1.3-1.36-.18-2.53.76-2.95 1.25l-3.94 5.57c-.9 1.3-1.84 1.39-2.2 1.27.74 1.75 2.53.85 3.33.19.2 1.32-.37 2.1-.68 2.32a2.48 2.48 0 002.13-1.93c.3.44.8 2.18.39 5.55A4.51 4.51 0 0120.6 42l-.06-.01H16V14h5v10zm3.97 3.05c0-.58.32-1.75 1.63-1.77-.11 1.34-1.14 1.74-1.63 1.77z" fill="url(#by5pyr4jw)"/><defs><linearGradient id="ay5pyr4jw" x1="10.42" y1="9.71" x2="68.15" y2="76.02" gradientUnits="userSpaceOnUse"><stop stop-color="#1A1E21"/><stop offset="1" stop-color="#06060A"/></linearGradient><linearGradient id="by5pyr4jw" x1="30" y1="14" x2="30" y2="44" gradientUnits="userSpaceOnUse"><stop stop-color="#FB3D42"/><stop offset="1" stop-color="#F01E52"/></linearGradient></defs></svg>