<!-- by TradingView --><svg width="56" height="56" viewBox="0 0 56 56" xmlns="http://www.w3.org/2000/svg"><path fill="#5D6CD8" d="M0 0h56v56H0z"/><path d="m26.51 10.5 1.66 3.41c.03.05.07.1.12.13a.35.35 0 0 0 .48-.12l1.45-2.8a.3.3 0 0 0-.07-.36l-1.91-1.68A.34.34 0 0 0 28 9a.34.34 0 0 0-.22.08l-1.2 1.05a.3.3 0 0 0-.1.17.3.3 0 0 0 .02.2ZM19.18 11.21 19 12.75l.01.08.06.06 2.02 1.26a.16.16 0 0 0 .18 0 .15.15 0 0 0 .05-.08.14.14 0 0 0 0-.09l-.78-2.73a.15.15 0 0 0-.05-.08.16.16 0 0 0-.09-.03l-1.05-.06a.16.16 0 0 0-.11.03.15.15 0 0 0-.06.1ZM34.7 13.99l.81-2.74.05-.08a.17.17 0 0 1 .1-.03l.93-.08c.04 0 .08.01.11.03.04.03.06.07.06.1l.24 1.57-.01.08a.16.16 0 0 1-.06.07l-1.98 1.25a.17.17 0 0 1-.2 0 .16.16 0 0 1-.05-.08.15.15 0 0 1 0-.1ZM26.78 15.6c.4.17.78.33 1.14.56.62.4.71.32.26-.26a5.64 5.64 0 0 1-.88-1.6c-.1-.29-.24-.54-.4-.8-.15-.27-.3-.54-.42-.85a4.96 4.96 0 0 0-.68-1.28c-.19-.25-.31-.23-.38.07-.18.74-.34 1.51-.48 2.31-.15.9.26 1.1.9 1.43l.13.06c.27.14.54.26.81.37ZM22.16 11.63c.66.12 1.24.4 1.74.85.05.04.09.1.1.15.03.06.04.12.03.18-.12.9-.35 1.79-.69 2.64a.28.28 0 0 1-.08.11.3.3 0 0 1-.4-.03c-.38-.41-.62-1-.67-1.53-.09-.85-.26-1.65-.5-2.39-.05-.16 0-.2.14-.1.1.06.21.1.33.12ZM33.9 13.37c.06-.6.13-1.19.41-1.73.06-.12.03-.16-.1-.13-.84.16-1.53.48-2.08.96a.3.3 0 0 0-.12.28c.12.89.33 1.78.64 2.66.01.05.04.1.09.13.04.04.09.06.14.07l.17-.01c.05-.02.1-.05.13-.1.56-.62.64-1.37.72-2.13ZM29.35 14.9c.14-.35.27-.7.52-1.01.34-.46.63-.93.85-1.41.06-.14.12-.14.16 0 .21.67.26 1.34.12 2.04-.16.9-.34 1.75-.53 2.59-.14.61-.36.64-.66.08-.22-.4-.41-.9-.57-1.47a.9.9 0 0 1 .03-.6l.08-.21ZM19.83 15.93l.1.14c.22.33.48.62.79.86a25.01 25.01 0 0 1 1.95 1.75h.02l.01-.02.52-1.66c.02-.05 0-.1-.05-.13a48.96 48.96 0 0 0-4-2.8c-.09-.05-.13-.03-.12.08.04.7.4 1.22.78 1.78ZM32.87 16.79l3.96-2.75c.14-.1.19-.06.15.1a4.89 4.89 0 0 1-1.53 2.65 64.92 64.92 0 0 0-2.14 1.9l-.5-1.75v-.08a.14.14 0 0 1 .06-.07ZM27.16 16.75c-.59-.25-1.18-.5-1.73-.85-.1-.06-.16-.04-.16.08 0 .7.38 1.36.75 1.99.13.22.26.44.37.66.34.68.84 1.21 1.43 1.69a.31.31 0 0 0 .42-.03c.11-.12.25-.24.38-.36.32-.27.64-.56.76-.9.2-.62 0-1.12-.6-1.48-.52-.32-1.07-.56-1.62-.8ZM23.73 19.01l.5-2.32c.02-.08.05-.08.08 0 .45 1 .89 1.92 1.33 2.76.1.2.35.39.75.59.04.01.07.04.08.08.02.03.02.08.01.11l-.02.09c-.02.05-.05.06-.1.04-.64-.25-1.27-.47-1.9-.65a1.58 1.58 0 0 1-.67-.46.25.25 0 0 1-.06-.24ZM31.73 16.68c-.01-.04-.03-.04-.05 0-.36.84-.71 1.64-1.06 2.4-.2.43-.5.65-.88.92l-.09.06a.2.2 0 0 0-.1.18c.01.13.08.17.2.12l2.48-1.02c.12-.05.17-.13.13-.25l-.63-2.4ZM24.04 22.3a.22.22 0 0 1-.07-.1.2.2 0 0 1 .05-.22.23.23 0 0 1 .11-.05 22.92 22.92 0 0 1 4.8-.57c.03 0 .05.02.07.04l.04.06v.07l-.52 4.52-4.48-3.74ZM33.9 23.3c.12-.01.15-.08.1-.18-.4-.89-3.08-1.43-3.79-1.48-.1 0-.15.04-.16.13l-.2 1.8c0 .1.04.16.14.16 1.23-.01 2.53-.15 3.91-.42ZM24.64 24.12l-4 2.05c-.2.1-.27.05-.23-.15.27-1.3.98-2.4 2.12-3.33.09-.07.19-.1.3-.1.1.01.2.06.28.13a6.46 6.46 0 0 0 1.58 1.23.12.12 0 0 1 0 .12.13.13 0 0 1-.05.05ZM29.64 26.55l3.06-.84a.1.1 0 0 0 .04-.03l1.22-1.39a.09.09 0 0 0 .01-.1.1.1 0 0 0-.04-.03.1.1 0 0 0-.06-.01l-4.07.5a.1.1 0 0 0-.06.02.09.09 0 0 0-.03.05l-.19 1.74v.04l.03.04a.1.1 0 0 0 .1.01ZM34.88 24.63c.17-.22.32-.2.43.05.7 1.54.15 3.21-.37 4.74-.1.3-.14.57-.18.86-.04.32-.09.65-.22.98a.2.2 0 0 1-.1.1.21.21 0 0 1-.13.03l-.64-.1c-.11-.02-.17-.09-.17-.2l-.02-4.54a.5.5 0 0 1 .12-.33l1.28-1.59ZM25.56 24.66l-4.94 2.57a.1.1 0 0 0-.05.04v.06l.26.83c0 .02.02.04.04.05a.1.1 0 0 0 .08.01l6.93-1.38a.1.1 0 0 0 .05-.03.09.09 0 0 0 0-.14l-2.25-2a.1.1 0 0 0-.12-.01ZM28.05 31.17a.12.12 0 0 1-.05.04.12.12 0 0 1-.12-.03 17.63 17.63 0 0 1-.63-3.4c0-.02.01-.04.03-.05a.14.14 0 0 1 .1-.05l3.94-.82a.17.17 0 0 1 .15.02c.03.02.04.04.05.07.01.02.02.05.01.07a.9.9 0 0 0 0 .08c-.01.1-.05.2-.11.28-.5.6-1.04 1.2-1.6 1.8-.6.63-1.2 1.28-1.77 1.99ZM32.47 31.07l.02-3.5c0-.02 0-.03-.02-.05a.1.1 0 0 0-.05-.03.1.1 0 0 0-.1.03l-2.56 3.1-.02.05v.04l.03.04a.1.1 0 0 0 .05.01l2.55.4a.1.1 0 0 0 .07-.03s.02-.01.02-.03l.01-.03ZM21.4 30.23a.31.31 0 0 1-.2-.25l-.11-.63c-.03-.16.04-.26.2-.31.42-.13.74-.2.97-.23a15.57 15.57 0 0 0 3.79-.78.26.26 0 0 1 .18.1c.02.02.04.05.04.09l.7 3.3c.04.1 0 .15-.12.14l-5.44-1.43ZM26.36 32.5l-4.6-1.33c-.14-.04-.2 0-.13.12.24.55.42 1.17.54 1.87.06.3.26.74.47 1.05.22.33.56.5.9.66.23.1.45.21.65.37.08.05.15.05.22-.01.34-.33.65-.67.92-1.02.16-.2.34-.36.52-.5.27-.24.53-.46.68-.85a.26.26 0 0 0-.07-.3.28.28 0 0 0-.1-.05ZM28.65 31.73c.02-.11.09-.17.2-.19.36-.05.72-.05 1.08 0 1.3.16 2.63.35 3.98.58.13.02.18.09.16.2a7.64 7.64 0 0 1-.56 1.93c-.4.85-3.55 1.58-5.17 1.95l-.2.05c-1.05.43-1.95.3-2.7-.36a.2.2 0 0 1-.02-.29c.64-.68 3.23-3.87 3.23-3.87ZM27.85 38.29l-4.5-2.5a.1.1 0 0 0-.12 0 .1.1 0 0 0-.03.05v.06l2.06 4.9a1 1 0 0 1 .07.29c.02.12.06.24.13.34.12.16.23.16.35 0l2.1-2.88c.08-.1.06-.2-.06-.26ZM27.94 37.43c-.24-.09-.24-.17 0-.26l4.6-1.33c.16-.07.23-.02.2.14l-1.26 3.1c-.01.1-.07.14-.18.1l-3.36-1.75ZM31.04 40.28c.05-.1.02-.2-.07-.27l-2.04-1.08a47.76 47.76 0 0 1-2.34 3c-.27.32-.44.78-.29 1.2.06.13.1.27.15.41.08.26.16.52.29.75.21.4.37.82.54 1.23a9.79 9.79 0 0 0 .7 1.46.15.15 0 0 0 .15 0 .14.14 0 0 0 .05-.07l2.86-6.63Z" fill="#fff"/></svg>