<!-- by TradingView --><svg width="56" height="56" xmlns="http://www.w3.org/2000/svg"><path fill="#23AF91" d="M0 0h56v56H0z"/><path d="M23.818 28l9.046 9.327 5.721-5.88c.984-1.023 2.673-1.023 3.657 0 .997 1.037.997 2.727 0 3.763L34.7 42.98c-.989 1.013-2.668 1.013-3.657 0L20 31.78v6.65c.02 1.423-1.077 2.632-2.5 2.66-1.43-.019-2.519-1.23-2.5-2.66V17.57c0-1.47 1.065-2.66 2.5-2.66 1.417 0 2.5 1.19 2.5 2.66v6.65l11.044-11.2c.989-1.013 2.668-1.013 3.657 0l7.523 7.77c.998 1.036.998 2.726 0 3.762-.982 1.012-2.657 1.012-3.639 0l-5.721-5.88L23.818 28zm9.063-2.66c1.417 0 2.572 1.19 2.572 2.66 0 1.47-1.155 2.66-2.572 2.66s-2.59-1.19-2.59-2.66c0-1.47 1.156-2.66 2.59-2.66z" fill="#fff"/></svg>