<!-- by TradingView --><svg width="56" height="56" viewBox="0 0 56 56" xmlns="http://www.w3.org/2000/svg"><path fill="url(#ak54ddqxa)" d="M0 0h56v56H0z"/><path d="M12 18.97 28 10l16 8.97v17.98L28 46l-16-9.05V18.97Z" fill="url(#bk54ddqxa)"/><path d="M32.1 17h-5.02c-.37 0-1.06.28-1.08 1.23v12.9a4 4 0 1 0 2 0V23h3.16c.3 0 .84-.34.84-1 0-.65-.53-1-.84-1H28v-2h4.1c.35 0 .9-.39.9-1 0-.72-.59-1-.9-1ZM29 35a2 2 0 1 1-4 0 2 2 0 0 1 4 0Z" fill="#fff"/><defs><linearGradient id="ak54ddqxa" x1="10.42" y1="9.71" x2="68.15" y2="76.02" gradientUnits="userSpaceOnUse"><stop stop-color="#1A1E21"/><stop offset="1" stop-color="#06060A"/></linearGradient><linearGradient id="bk54ddqxa" x1="11.5" y1="14" x2="31.5" y2="47" gradientUnits="userSpaceOnUse"><stop stop-color="#5FFACD"/><stop offset=".49" stop-color="#21BAFF"/><stop offset="1" stop-color="#5237FF"/></linearGradient></defs></svg>