<!-- by TradingView --><svg width="56" height="56" viewBox="0 0 56 56" xmlns="http://www.w3.org/2000/svg"><path fill="#F0F3FA" d="M0 0h56v56H0z"/><path d="M28 21a6.98 6.98 0 1 1 0 13.96A6.98 6.98 0 0 1 28 21Z" fill="url(#aayrz4htw)"/><path d="m24.33 23.65-.21.56c1.24 0 1.08.17 1.78-.56.75-.8.59-.42 1.82-.46 1.88-.03.76-1.23 3.38-1.23-1.98.52-1.51 1.05-2.83 1.75a8.65 8.65 0 0 1-3.6 1.08l.71.7c3.01.09 2.6 1.05 4.53.75 1.1-.16 2.7-.07 3.79.17l.96.49-3.2-.16c.73 1.12-.04-.04-.1 3.42.3.23.47.37.83.6.48.34.51.29.7.75.24.43.17.71.31 1.16A6.97 6.97 0 0 0 28.02 21h-.34c-.29.29-.7.45-1.51 1.3-.68.73-1.34.96-1.84 1.35ZM32.63 33.24c-.59-.6-1.4-.29-3.7-.79-.7-.16-1.43-.48-1.8-.53-1-.13-.41.27-1.73-.1.37.86.52.24.57 1.49-.43-.16-.46-.23-.8-.48l-1.93-1.64c-.33-.43-.37-.64-.87-.91-.44-.25-.66-.23-1.1-.48a6.98 6.98 0 0 0 11.36 3.44Z" fill="#051332"/><path d="M27.54 28.29c-.34.69-.84.83-1.8.9-1.46.11-1.21.32-2.21.54l-.02.39c.63.12 1.21.48 1.57 1.07 2 .66.68.18 1.57.14.4-.02 1.23.45 1.8.52l1.95.34c1.1.14 1.23-.25 2.09.35l.03-1.03c-2.5-1.68-.62-3.7-2.08-3.8-1.12-.07-2.1.52-2.9.57Z" fill="#051332"/><path d="M21.21 29.62c2.8.14.77.2 2.68-.48.58-.21 1.01-.04 1.67-.12.64-.1.82-.43 1.28-.72 1.07-1.05 2.25-.34 3.14-.82-.66-.42-.84-.07-1.57-.4-.53-.26-.46-.43-1.1-.68-1.18-.47-2.14.25-2.68-.9-.74-.35-1.26-.46-1.92-.03-.7.45-.59.5-1.5.82a6.81 6.81 0 0 0 0 3.33ZM21.32 25.97c.84-.2.46-.25 1.1-.8 1.07-.93.84.09.42-1.16.94.48.7.86 1.31-.34l.16-1.6a6.92 6.92 0 0 0-2.99 3.9Z" fill="#051332"/><path fill-rule="evenodd" d="M42.98 13.1c-.45-1.53-7.5-1.45-15.78.15-8.26 1.6-14.62 4.13-14.18 5.65.45 1.53 7.5 1.45 15.78-.15 8.28-1.6 14.62-4.13 14.18-5.65Zm-13.2 4.65c6.47-1.4 12.22-3.53 12.22-4.2 0-1.32-6.72-1-13.58.21-7.13 1.26-14.4 3.67-14.4 4.81 0 1.23 8.31.79 15.77-.82ZM42.98 37.1c-.45-1.53-7.5-1.45-15.78.15-8.26 1.6-14.62 4.13-14.18 5.65.45 1.53 7.5 1.45 15.78-.15 8.28-1.6 14.62-4.13 14.18-5.65Zm-13.2 4.65c6.47-1.4 12.22-3.53 12.22-4.2 0-1.32-6.72-1-13.58.21-7.13 1.26-14.4 3.67-14.4 4.81 0 1.23 8.31.79 15.77-.82Z" fill="#181B1E"/><defs><linearGradient id="aayrz4htw" x1="28" y1="21" x2="28" y2="34.96" gradientUnits="userSpaceOnUse"><stop stop-color="#733D14"/><stop offset=".28" stop-color="#D77925"/><stop offset=".58" stop-color="#A74121"/><stop offset=".75" stop-color="#D47825"/><stop offset="1" stop-color="#8B4C18"/></linearGradient></defs></svg>