<!-- by TradingView --><svg width="56" height="56" viewBox="0 0 56 56" xmlns="http://www.w3.org/2000/svg"><path fill="url(#a1tbdyo4j)" d="M0 0h56v56H0z"/><path d="M28.57 12c3.6.09 6.95 1.39 9.69 3.73L20.43 33.59 28.57 12Z" fill="url(#b1tbdyo4j)"/><path d="M28.57 12c3.6.09 6.95 1.39 9.69 3.73L20.43 33.59 28.57 12Z" fill="url(#c1tbdyo4j)"/><path d="m30.03 28.04 10.28-10.32a16.17 16.17 0 0 1 0 20.56L30.03 28.04Z" fill="url(#d1tbdyo4j)"/><path d="m30.03 28.04 10.28-10.32a16.17 16.17 0 0 1 0 20.56L30.03 28.04Z" fill="url(#e1tbdyo4j)"/><path d="m12.03 27 12.52-12.57-8.92 23.76A16.12 16.12 0 0 1 12.03 27Z" fill="url(#f1tbdyo4j)"/><path d="m12.03 27 12.52-12.57-8.92 23.76A16.12 16.12 0 0 1 12.03 27Z" fill="url(#g1tbdyo4j)"/><path d="m17.77 40.27 10.29-10.23 10.28 10.23A15.98 15.98 0 0 1 28.06 44c-3.77 0-7.37-1.3-10.29-3.73Z" fill="url(#h1tbdyo4j)"/><path d="m17.77 40.27 10.29-10.23 10.28 10.23A15.98 15.98 0 0 1 28.06 44c-3.77 0-7.37-1.3-10.29-3.73Z" fill="url(#i1tbdyo4j)"/><defs><linearGradient id="a1tbdyo4j" x1="10.42" y1="9.71" x2="68.15" y2="76.02" gradientUnits="userSpaceOnUse"><stop stop-color="#1A1E21"/><stop offset="1" stop-color="#06060A"/></linearGradient><linearGradient id="b1tbdyo4j" x1="28" y1="12" x2="28" y2="44" gradientUnits="userSpaceOnUse"><stop stop-color="#FF8300"/><stop offset=".51" stop-color="#E91A00"/><stop offset="1" stop-color="#7C0000"/></linearGradient><linearGradient id="c1tbdyo4j" x1="42" y1="51.5" x2="15" y2="26" gradientUnits="userSpaceOnUse"><stop stop-color="#9D0097" stop-opacity=".85"/><stop offset="1" stop-color="#9D0097" stop-opacity="0"/></linearGradient><linearGradient id="d1tbdyo4j" x1="28" y1="12" x2="28" y2="44" gradientUnits="userSpaceOnUse"><stop stop-color="#FF8300"/><stop offset=".51" stop-color="#E91A00"/><stop offset="1" stop-color="#7C0000"/></linearGradient><linearGradient id="e1tbdyo4j" x1="42" y1="51.5" x2="15" y2="26" gradientUnits="userSpaceOnUse"><stop stop-color="#9D0097" stop-opacity=".85"/><stop offset="1" stop-color="#9D0097" stop-opacity="0"/></linearGradient><linearGradient id="f1tbdyo4j" x1="28" y1="12" x2="28" y2="44" gradientUnits="userSpaceOnUse"><stop stop-color="#FF8300"/><stop offset=".51" stop-color="#E91A00"/><stop offset="1" stop-color="#7C0000"/></linearGradient><linearGradient id="g1tbdyo4j" x1="42" y1="51.5" x2="15" y2="26" gradientUnits="userSpaceOnUse"><stop stop-color="#9D0097" stop-opacity=".85"/><stop offset="1" stop-color="#9D0097" stop-opacity="0"/></linearGradient><linearGradient id="h1tbdyo4j" x1="28" y1="12" x2="28" y2="44" gradientUnits="userSpaceOnUse"><stop offset=".51" stop-color="#E91A00"/><stop offset="1" stop-color="#7C0000"/></linearGradient><linearGradient id="i1tbdyo4j" x1="42" y1="51.5" x2="15" y2="26" gradientUnits="userSpaceOnUse"><stop stop-color="#9D0097" stop-opacity=".85"/><stop offset="1" stop-color="#9D0097" stop-opacity="0"/></linearGradient></defs></svg>