<!-- by TradingView --><svg width="56" height="56" xmlns="http://www.w3.org/2000/svg"><path fill="url(#paint0_linear)" d="M0 0h56v56H0z"/><path d="M28 15c-7.18 0-13 5.82-13 13s5.82 13 13 13 13-5.82 13-13c0-1.54-.267-3.016-.757-4.383a1.5 1.5 0 012.824-1.012C43.672 24.293 44 26.11 44 28c0 8.837-7.163 16-16 16s-16-7.163-16-16 7.163-16 16-16c1.705 0 3.35.267 4.895.763a1.5 1.5 0 01-.917 2.857A12.988 12.988 0 0028 15z" fill="#fff"/><path d="M41 18a3 3 0 01-3 3c-.86 0-1.803.073-2.41.68l-.934.934c-1.05 1.05-1.08 2.712-.78 4.165a6 6 0 11-4.77-4.677c1.42.264 3.027.207 4.05-.815l1.223-1.224C34.903 19.54 35 18.741 35 18a3 3 0 116 0z" fill="#fff"/><defs><linearGradient id="paint0_linear" x1="45.205" y1="7.203" x2="15.073" y2="50.451" gradientUnits="userSpaceOnUse"><stop stop-color="#00ECD2"/><stop offset="1" stop-color="#1B456E"/></linearGradient></defs></svg>