<!-- by TradingView --><svg width="56" height="56" fill="none" xmlns="http://www.w3.org/2000/svg"><path fill="#F0F3FA" d="M0 0h56v56H0z"/><path fill-rule="evenodd" clip-rule="evenodd" d="M20 18.68c0-4.242 3.462-7.68 7.733-7.68h.534C32.537 11 36 14.438 36 18.68v6.329c1.677.122 3 1.532 3 3.254v11.474C39 41.539 37.55 43 35.763 43H20.237C18.45 43 17 41.539 17 39.737V28.263c0-1.722 1.323-3.132 3-3.254v-6.33zM22 25h12v-6.463C34 15.48 31.314 13 28 13s-6 2.48-6 5.537V25zm-1.932 2c-.59 0-1.068.477-1.068 1.066v11.869c0 .588.478 1.065 1.068 1.065h15.864c.59 0 1.068-.477 1.068-1.066V28.066c0-.589-.478-1.066-1.068-1.066H20.068zM28 30a1 1 0 00-1 1v2c0 .086.01.17.031.25a2 2 0 101.938 0c.02-.08.031-.164.031-.25v-2a1 1 0 00-1-1z" fill="#0277FD"/></svg>