<!-- by TradingView --><svg width="56" height="56" viewBox="0 0 56 56" xmlns="http://www.w3.org/2000/svg"><path fill="#5B4A84" d="M0 0h56v56H0z"/><path d="M10 28H8.14l.92-3H10v-3.4h3v5.6l4-3.2h3v1l-4.33 3.75L20 33.07V34h-3l-2.82-2.95-1.18.86V34h-3v-2H7l.92-3H10v-1Zm18.27-1v-3h-1.49c-.98 0-2.23.47-2.78 1.52V24h-3v10h3v-5.25c.01-1.87 1.94-1.75 4.27-1.75Zm2.21 9c2.56-.84 3.93-2.31 5.08-4.55.49-.93.82-2.1 1.28-3.36-3.12 2.9-2.77 2.9-7.3 5.47l.94 2.44Zm3.02-7.11L32 24h-3c.37.93 2.48 7.28 2.48 7.61 3.34-1.16 5.37-3.92 5.42-3.95.38-1.08.73-2.46 1.1-3.66h-3c-.51 1.9-.87 3.52-1.5 4.89ZM39 22h3v12h-3V22Zm4-3h3v15h-3V19Z" fill="#fff"/></svg>