<!-- by TradingView --><svg width="56" height="56" viewBox="0 0 56 56" xmlns="http://www.w3.org/2000/svg"><path fill="#F0F3FA" d="M0 0h56v56H0z"/><path d="m24.1 22.6.03.07c.12.38.34.7.63.94a1.73 1.73 0 0 0 2.06.1c.3-.22.55-.52.7-.88l3.32-8.07a2.1 2.1 0 0 0-.38-2.19 1.8 1.8 0 0 0-.74-.48 1.7 1.7 0 0 0-1.67.33c-.24.2-.42.45-.54.74l-3.35 7.99c-.19.45-.21.97-.06 1.44ZM30.15 20.52a1.76 1.76 0 0 1 1.06-.95l4.37-1.47a1.8 1.8 0 0 1 1.84.42l.06.05a1.75 1.75 0 0 1 .05 2.44c-.21.22-.47.39-.76.48l-4.43 1.42a1.81 1.81 0 0 1-1.88-.5 1.75 1.75 0 0 1-.3-1.89Z" fill="#E11F53"/><path d="m33.4 24.1-.08.02c-.37.12-.7.35-.93.64a1.73 1.73 0 0 0-.1 2.05c.21.32.52.56.88.71l8.07 3.32a2.1 2.1 0 0 0 2.18-.37c.23-.21.4-.47.49-.75a1.7 1.7 0 0 0-.33-1.67c-.2-.23-.45-.42-.74-.54l-7.99-3.35a2.1 2.1 0 0 0-1.45-.06ZM35.47 30.15a1.77 1.77 0 0 1 .96 1.06l1.48 4.37a1.82 1.82 0 0 1-.43 1.84l-.05.06a1.76 1.76 0 0 1-2.44.05 1.8 1.8 0 0 1-.48-.76l-1.42-4.43a1.81 1.81 0 0 1 .49-1.88 1.75 1.75 0 0 1 1.9-.3Z" fill="#4C8BF5"/><path d="m31.9 33.4-.03-.08c-.12-.37-.34-.7-.63-.93a1.73 1.73 0 0 0-2.05-.1c-.31.21-.56.51-.71.87l-3.32 8.08a2.1 2.1 0 0 0 .37 2.18 1.7 1.7 0 0 0 2.42.16c.24-.2.42-.45.54-.74l3.35-8c.2-.45.21-.97.06-1.44ZM25.85 35.47a1.76 1.76 0 0 1-1.05.95l-4.37 1.48a1.81 1.81 0 0 1-1.86-.42l-.05-.06a1.76 1.76 0 0 1-.04-2.43c.2-.22.47-.39.76-.48l4.42-1.43a1.81 1.81 0 0 1 1.88.5 1.76 1.76 0 0 1 .31 1.89Z" fill="#44C6AC"/><path d="m22.6 31.9.07-.03c.38-.11.7-.34.94-.63a1.73 1.73 0 0 0 .1-2.06c-.22-.3-.52-.55-.88-.7l-8.07-3.32a2.1 2.1 0 0 0-2.19.38c-.22.2-.39.46-.48.75a1.7 1.7 0 0 0 .33 1.66c.2.24.45.42.74.54l7.99 3.35c.45.19.97.21 1.44.06ZM20.52 25.84a1.76 1.76 0 0 1-.94-1.05l-1.48-4.36a1.81 1.81 0 0 1 .42-1.85l.05-.06a1.75 1.75 0 0 1 2.44-.05c.22.21.39.47.48.76l1.42 4.42a1.8 1.8 0 0 1-.49 1.89 1.75 1.75 0 0 1-1.9.3Z" fill="#F7B233"/></svg>