<!-- by TradingView --><svg width="56" height="56" viewBox="0 0 56 56" xmlns="http://www.w3.org/2000/svg"><path fill="#0632A8" d="M0 0h56v56H0z"/><path d="M17.77 16.7c.22 0 .26.11.37.2l.02.25c-.03.09-.07.14-.07.26.06.03.11.09.17.1.07.03.21.03.28.05.13.23.21.41.28.69l-.05.02-.06.01c-.02-.02-.05-.01-.07-.03-.07-.06-.08-.18-.19-.2h-.01c-.02.14 0 .3.03.43v.11c0 .1.02.19.04.27-.13.08-.05.16-.09.3-.08.28.02.81-.08 1.1-.06.17.16.31-.17.3l-.06-.08.01-.14a4.92 4.92 0 0 1-.02-.29v-.12a1.72 1.72 0 0 1 0-.34c0-.02.02-.06.01-.1a1.75 1.75 0 0 1-.09-.5c-.03-.02-.04-.02-.09-.02-.02.05-.01.15-.01.22-.04.05-.02.2 0 .24.02.06 0 .39 0 .4-.02.04 0 .03-.04.04-.12.05-.21-.17-.24-.24-.01-.05.02-.1 0-.17 0-.05-.03-.1-.03-.17l.01-.12c-.03-.13-.09-.28-.13-.4-.03-.1 0-.14-.04-.21h-.02c-.05.1-.04.14-.01.23-.02.04-.06.08-.07.12l.1.05-.05.05c-.07-.06-.16-.08-.17-.2.04-.05 0-.07 0-.11 0-.04.03-.05.03-.07v-.31c0-.02.04-.07.03-.1-.01-.02-.05-.02-.04-.08.03-.14.08-.31.1-.48l.13-.08.13-.02.08-.1c.03-.02.06 0 .08-.02v-.09c-.06-.06-.06-.13-.1-.21-.02-.03-.07-.06-.08-.09l.01-.05-.02-.06c-.02-.05.02-.07.02-.12.09-.02.13-.07.17-.12ZM14.3 20.38a.23.23 0 0 0-.1-.06c0-.05.04-.37.06-.39.01-.02.07.06.08.09.04.1.1.25.11.36h-.15Zm-.16-.13c-.07-.01-.1-.05-.16-.07 0-.06 0-.08.04-.1l.01-.01c.03.04.08.07.13.1l-.02.08Zm.95-.89v-.19l.05.08h.03c-.03-.06-.07-.15-.07-.23-.02-.08 0-.18-.02-.25-.02-.08.02-.24 0-.26l-.04-.02v-.06l-.02-.03c-.06 0-.13 0-.18-.04a.46.46 0 0 0-.24.1c-.06.03-.1.23-.16.3-.07.11-.2.22-.24.36-.05.12.04.29-.02.46l-.08.26-.02.12c-.03.08-.1.1-.14.16-.06 0-.08-.03-.1-.06l-.15.05.02.01a.8.8 0 0 1-.18.26c.01.03.03.04.07.05-.01.02-.02.03-.05.04 0 .03.01.05.03.06l.01.04h.06l-.01.14.06.08.07.04h.05c0-.04-.02-.1 0-.13 0-.04.02-.04.04-.07.1.02.13.11.22.14.08-.07.15-.09.19-.2l.33-.01c-.01.12-.23.32-.17.4v.06l.12.01V21c.07.03.15.08.2.13l.22-.02v-.01c-.02-.12-.32-.1-.26-.29.03-.09.1-.17.13-.24.03-.05.03-.1.07-.14h.03a.53.53 0 0 0 .07-.1l-.02-.16c.02-.07.04-.23 0-.29.02-.1.18-.18.13-.3.2.02.23.11.35.19h.04c.03 0 .02 0 .03-.03l.03.05c.03-.02.02 0 .03-.05.02.02 0 .02.05.03-.03-.18-.37-.36-.56-.4ZM10.12 22.35h.05v-.03a.24.24 0 0 1-.07-.1h-.04c0 .07-.03.11-.05.16v.37c.04.2.08.4.01.61 0 .03-.05.05-.06.07 0 .01.01.2-.01.25-.03.06-.09.1-.12.14a.5.5 0 0 0-.08.29h.02l.08.02c.03.08.12.16.2.23l-.02.05c-.03.01-.03.02-.07.02-.02.01-.1 0-.15-.01-.09-.04-.16-.12-.24-.17-.03-.02-.1-.03-.1-.06v-.06c.01-.03 0-.06.02-.1l.03-.02v-.14c.01-.1.08-.2.1-.28.02-.04-.02-.1-.03-.13a.33.33 0 0 0-.1-.01.64.64 0 0 1-.28.03c-.04.05-.08.05-.1.12.03.04.03.13 0 .16l-.07.01-.02-.01c-.06-.09-.18-.3-.19-.41.04-.04.02-.05.09-.06.05.04.43-.03.5-.08.02 0 .02-.01.02-.04a.7.7 0 0 1-.1-.15l-.15.04-.11-.38c-.04-.04-.12 0-.18-.02a.3.3 0 0 1-.12-.12c-.03-.03-.01-.1 0-.13a.61.61 0 0 1 .2-.23c.02-.02.06-.03.08-.06.02-.02 0-.06.02-.09.04-.06.16-.13.22-.2s.19-.1.2-.2c-.08-.04-.04-.04-.08-.09l-.03-.02c.12-.13.02-.28.25-.37.03 0 .06-.04.1-.03.05.01.13.03.22.03.02.04.05.06.06.12-.02.02.02 0 0 .04l-.03.02c0 .04.03.04.04.06l-.01.12c.02.07.08.14.1.24.04.15-.03.33.1.4h.01c.05.05.06.13.12.18-.03.05-.03.14-.12.15-.03.02-.1-.02-.12-.05l.01-.02a.1.1 0 0 0 .07 0c-.03-.02-.05-.01-.07-.06ZM12.98 21.67c.06.01.08.04.12.07h.04c.02.02.01.04.02.06.06.1.03.14.06.26 0 .03.05.06.06.08l-.01.13c.03.09.1.17.11.27-.06.06.02.17.01.23 0 0-.02.01-.02.05 0 .03.03.06.04.09.04.15.03.3.07.45.02.09.06.13.04.25l-.04.04c-.02-.03-.03-.02-.05-.02-.01-.06.02-.09.02-.13a1.38 1.38 0 0 0-.12-.37c-.02-.05-.02-.12-.08-.13v.02c-.02.05.02.15.04.2.02.09.04.37.01.5-.03.18-.07.4-.13.57-.04.09-.13.2-.1.34.02.08.08.13.1.2.02.06.01.1.01.15h-.03c-.03-.02-.07-.02-.1-.05-.03-.02-.03-.08-.05-.11l-.05-.07c-.05-.09-.03-.16-.02-.27a.6.6 0 0 1 .05-.03l.03-.21c-.04-.03-.12-.03-.19-.03h-.04l-.05.07v.05l-.03.18h-.02c-.03-.05-.1-.1-.12-.16l.01-.21-.02-.1c.03-.01.07-.05.1-.03l.05.04c.05.02.14-.01.18-.04l.01-.02-.01-.01h-.1l-.06-.14v-.2c0-.11 0-.33-.04-.43h-.02c0 .08-.07.2-.04.3.02.09.05.15.05.26h-.02c-.03.03-.06 0-.09 0l-.02-.1c-.02-.07.04-.12.02-.2-.02-.14 0-.38.02-.51.02-.08-.02-.09-.03-.12v-.1c-.03-.01-.07-.03-.08-.07.04-.04.05-.08.08-.14.02-.05.08-.08.1-.13.05-.08.06-.16.08-.25.05-.16-.01-.37.13-.42.03-.03.09-.03.12-.06ZM11.74 26.48c-.04 0-.06.03-.07.02-.04-.02-.03-.02-.04-.06l.01-.09h-.02v.03l-.03.04c0-.12-.13-.32-.22-.34a1.8 1.8 0 0 1-.36.39c.01.07.05.12.08.18.07.16.14.33.19.5.03.09-.04.17-.03.25.03.14.12.35.2.45l.08.05c.07.07.1.14.18.2.07.04.2.06.23.14h-.01c-.13.13-.42.03-.56-.02-.06-.1-.07-.27-.13-.37-.07-.12-.18-.23-.23-.37-.03-.1-.01-.2-.05-.3-.03-.09-.1-.15-.15-.22-.04-.05-.03-.09-.09-.1-.04.05-.1.08-.13.16h-.03c0-.02-.02-.03-.03-.05l-.01.01c-.11.04-.36.31-.36.47l.03.04.1.03.14.11v.02a.11.11 0 0 0-.06.04c-.06 0-.18 0-.22-.03-.08-.03-.07-.1-.18-.1-.03.04-.12.05-.15 0v-.17c.05-.04.05-.1.09-.13.02-.02.07-.02.08-.04.07-.08.12-.17.2-.24-.02-.07-.08-.16-.04-.25.01-.02.06-.07.06-.1v-.11l.02-.08c0-.01-.04 0-.03-.04.01-.05.09-.1.11-.15.03-.07-.02-.13 0-.21.02-.07.08-.11.06-.17-.01-.03-.02-.03-.05-.05.05 0 .05 0 .07-.05-.02-.02 0-.05 0-.1h-.05l.06-.02c-.02-.07-.04-.06-.03-.14.04-.03.1-.1.11-.14v-.06c.01-.06.1-.1.11-.17.09-.28.12-.7.46-.7.05.05.07.03.13.07 0 0 .15.23.15.25l-.01.13c0 .04.06.06.06.08 0 .03-.03.07-.04.09v.23c-.02.07.05.15.06.21l.01.24c.07.2.3.39.35.6.02.06-.01.1-.02.14ZM7.92 26.94c-.07 0-.11.02-.17.03-.1-.21.02-.35.03-.56.04.06-.02.2 0 .26 0 .1.08.2.14.25v.02Zm.83 1.23a1.45 1.45 0 0 1-.19-.1c-.04-.05-.07-.1-.11-.13 0-.12-.08-.25-.03-.38.01-.05.07-.11.05-.19-.02-.15-.1-.27-.14-.4-.03-.08.03-.14.04-.2.02-.06-.02-.18 0-.27.03-.12.06-.24.07-.37h.03c.02.08.08.13.1.21v.03l-.04.07.01.12h-.02c.03.04.03.02.02.07.07-.01.16-.04.18-.1.02-.04-.01-.11-.03-.16-.04-.14-.06-.46-.14-.56 0-.05.03-.07.06-.09a.34.34 0 0 0-.04-.16c.01-.05.05-.07.09-.1 0-.1-.07-.12-.11-.19-.08-.1-.02-.2-.18-.26-.07-.05-.24 0-.27.03h-.04c0 .11-.02.22 0 .31-.12.1-.31.2-.38.36-.05.1 0 .32-.08.39l.04.04c0 .14-.03.27-.05.4v.26l-.04.22c-.09.02-.2.06-.3-.01l-.04.01c-.04.2-.07.4.07.5h.04c0-.03.03-.06.02-.1l-.04-.02c0-.03.02-.05.03-.08.14-.07.3-.12.52-.13.06 0 .18-.02.22-.01.04.03.12.18.11.24 0 .03-.03.12-.02.15v.14l.05.08c.01.03-.01.05-.02.07-.01.05.04.08 0 .13v.07c.01.03.3.2.35.22.06.02.15.03.19 0h.03v-.1ZM13 27.2c.08 0 .09.01.15.03.02.03.05.06.06.1.03.06.06.27.03.39 0 .03-.02.04-.02.09.03.02.06.03.08.08.02.05 0 .11.01.18.02.07.07.16.08.23l.02.28c0 .01-.02.05-.01.08l.06.26.01.1c.02.07.1.13.04.23 0 .03-.01.04-.04.05-.01-.03 0 0-.03-.02a.42.42 0 0 0-.02.16c-.02.06 0 .15-.02.23-.04.22-.04.54-.08.76l-.03.3c.04.14.2.13.21.32h-.03c-.03.04-.14-.02-.16-.05l-.04-.08c-.04-.03-.1-.04-.15-.06l-.01-.05c-.03-.07.03-.21.04-.27.01-.05 0-.35-.02-.41h-.04c-.07.08-.23.13-.32.18-.05.02-.09 0-.1.08.02.03.05.19.05.23v.02h-.06c-.11-.05-.1-.16-.15-.31-.01-.06-.04-.1-.04-.18l.06-.05.04.03.11-.03c.08-.03.15-.12.23-.17 0-.04.02-.05 0-.07 0-.03-.01-.03-.02-.05-.02-.07.02-.1-.04-.12-.02.02-.07.04-.07.03a.12.12 0 0 1-.06-.08c.12-.23-.08-.27-.04-.55.02-.14 0-.33 0-.48v-.09c0-.02-.02-.12-.01-.15l.03-.08.05-.22.05-.08c.04-.16.01-.37.05-.54.03-.13.08-.18.14-.25ZM4.74 28.24v.01c-.1-.03-.16-.11-.25-.16.01-.05.04-.07.06-.12.08-.02.12-.05.24-.04 0 .04-.03.28-.05.31Zm1.25.9c-.08-.05-.11-.14-.18-.2 0-.1.05-.23 0-.34-.08-.16-.32-.31-.36-.48-.03-.1.07-.33.08-.4.02-.06-.03-.07-.04-.1v-.1c0-.02-.02-.03-.04-.04-.04-.09-.01-.18-.08-.24v-.03l.21-.14c0-.07.03-.1.05-.16.03-.07-.06-.17-.08-.21-.08-.02-.13-.05-.23-.05-.05.03-.13.04-.17.09-.07.09-.1.18-.17.26-.05.07-.17.09-.21.17h-.02v.01a.2.2 0 0 0 .09-.05h.02a.3.3 0 0 1-.14.12v.03l.05-.03h.02c-.03.04-.06.12-.1.15v.03c.02-.01.02 0 .03-.03h.02c0 .17-.16.25-.24.36-.06.08-.07.17-.2.2v.07l.05.07c.05 0 .06 0 .08-.03h.02a.81.81 0 0 1-.22.33v.06c.02.04.1.04.14.07.1.05.2.13.32.18l-.01.06c-.04.01-.17.03-.2.06v.06a.47.47 0 0 1-.16.1c-.1.04-.2-.04-.3.02-.08.04.07.36.15.39h.02l.05-.01c0-.14 0-.13.08-.24.47-.1.9-.07.92-.57h.03c.04.09.1.07.15.13.1.1.15.23.25.32 0 .07-.06.12-.03.16v.06c.08.02.42 0 .45-.02h.03c-.01-.1-.07-.05-.13-.1ZM9.28 29.4l-.06.07-.03-.01v-.06c.03 0 .05 0 .07-.02h.02v.02Zm-.14 2.12c-.07-.01-.1-.08-.15-.12 0-.1.09-.1.13-.17h.04v.01l-.01.12-.01.16Zm-.07-1.08h-.03l.04-.22h.02c.01.1-.01.13-.03.22Zm.72-.1.02-.04c.01-.05-.02-.05-.02-.07-.02-.05.02-.18 0-.25l-.04-.32c-.02-.12-.01-.23-.06-.3-.02-.04-.07-.05-.1-.06 0-.19-.11-.44-.28-.44-.02.03-.07.02-.1.05l-.07.08-.04.02h-.06a.99.99 0 0 0-.05.37c.03.11.05.26.06.37 0 .06 0 .16-.02.2.02.07.07.17 0 .24l-.01-.03-.1.46c-.02.04-.03.12-.01.15v.02h.02c.02-.06.04-.14.09-.18.04.14 0 .3.07.4-.03.09-.13.16-.18.22l-.01.03c-.03.03-.08.03-.1.06l-.04.07c.02.08.1.07.14.1.05.03.12.21.24.12l.04.01.02.16v.08c0 .07.15.22.2.26l.15.05.04-.02v-.02c-.01-.1-.2-.26-.25-.38a.85.85 0 0 1 0-.38c0-.02.03-.04.04-.06.02-.07-.01-.11 0-.17.02-.06.08-.12.1-.17.05-.1.1-.22.12-.33.03-.11.01-.45.07-.54h.01c.02.08.03.15.03.24 0 .06-.05.1-.02.16 0 .07.03.07.06.11.04-.01.04-.06.07-.09 0-.07-.04-.12-.03-.18ZM12.63 33.7c0 .21-.1.19-.22.27-.04.04-.05.09-.11.12v.01h-.01c-.03-.12 0-.25.03-.37l-.01-.12.04-.04-.01-.15.04-.05c.03-.1.02-.4.02-.54l.04.02.05.25v.12l.05.05v.2c.01.06.13.15.1.23Zm.26-1.26v-.02c.04.02.06.05.11.05a.17.17 0 0 0-.06-.05c.02-.03.01 0 .04-.02l.01-.01-.1-.06c0-.26.04-.56-.17-.72 0-.2.03-.3-.1-.44-.03-.03-.17-.06-.2-.03l-.06-.07c-.06 0-.1.02-.12.06l-.15-.02c-.06.06-.13.08-.15.17-.04.06.01.15 0 .18 0 .04.03.06.07.08-.04.05-.1 0-.17.03-.05.01-.07.06-.11.08v.05c.03.05.09.07.14.08-.02.1-.05.33-.02.46 0 .04.02.1 0 .15l-.03.06-.02.15-.02-.02c-.04 0-.03 0-.05.03-.02 0-.02 0-.03-.02-.1 0-.22.24-.29.3.01.06.25.37.3.42 0 .1-.06.17-.08.25l-.04.2c0 .05.02.14 0 .2l-.04.03c-.02.06.05.1-.02.2 0 .03.02.03.05.05l-.01.03v.06c.08-.01.17-.11.2-.18.02-.06-.06-.12-.04-.19l.04-.04v-.12c.05-.17.14-.44.24-.56h.03c.01.1.07.18.08.3.01.07-.03.27-.05.35-.04.17.03.34-.01.48v.01c.12 0 .36-.12.4-.23v-.09h.13v.02c-.01.06-.17.22-.2.25v.03c.23 0 .28-.09.42-.18 0-.08 0-.11-.02-.16l.06-.02.04-.13c0-.03-.04-.07-.05-.1a2.24 2.24 0 0 1-.06-.44c.04-.23.36-.63.11-.89Z" fill="#fff"/><path d="M25.6 34.26c0 .06-.1.18-.14.22l-.02.02c-.03-.18 0-.4-.02-.6.04.04.04.15.05.19.06.01.1.03.14.06 0 .03.02.08 0 .1Zm-1.55 5.6h-.02c-.01-.05 0-.13-.03-.17 0-.05.02-.05.05-.07 0-.06-.06-.1-.06-.14 0-.03.04-.08.04-.12l-.02-.06a.41.41 0 0 1 .04-.2s.11.04.17.04c.02.16.03.31.03.5-.07.06-.15.14-.2.22Zm-1.33-1.32-.07.45c0 .05.04.11.05.14l-.08.36v.01h-.01c0-.1-.05-.2-.04-.28l.02-.07c.01-.08-.03-.17-.04-.23-.04-.18.02-.36-.06-.48l.1-.04c0-.03.03-.05.03-.07.03-.1-.04-.15.01-.22v-.02c.03 0 .05.02.07.03h.02c-.02-.05-.06-.06-.07-.11.05.02.04.03.1.02-.03.14 0 .36-.03.51Zm-2.23-.4c-.07-.05-.05-.2-.07-.3l-.04-.26c-.05-.13-.1-.17-.09-.34.08.02.2 0 .26.04h.02c-.03.07-.05.18-.1.23 0 .09.03.1.06.15a.8.8 0 0 1 .03.01c.01-.02 0-.02.03-.03-.02-.05 0-.05-.02-.07.02-.03 0-.01.04-.02a.3.3 0 0 1 .02-.21c.01-.04.03-.04.06-.07l.05.01.03.01c-.02.34-.25.51-.28.85Zm-.1-1.8.07-.03.02.02c0 .21.03.35.15.43a.7.7 0 0 1-.07.26c-.04.06-.18.05-.29.04 0-.3.05-.5.12-.73Zm-.24-1.02c-.04-.01-.06-.05-.13-.05.06-.23-.08-.47-.35-.47a.14.14 0 0 0-.02-.05v-.06c.13 0 .39.03.48.1.06 0 .08-.01.11-.04a.31.31 0 0 0 .07-.13.72.72 0 0 1-.15-.1c-.05 0-.09.04-.13.04-.04.01-.1-.02-.12-.03l-.1-.01c-.15-.07-.11-.28-.16-.45l-.02-.09-.04-.01.03-.18v-.1c.05.01.13.06.17.1.11 0 .12-.05.17-.12.05.02.08.04.14.04-.02.08-.16.43-.1.51 0 .11.29.19.4.2 0 .14.02.3-.04.37-.08.1-.23.14-.27.28h-.01c0 .03.02.03.03.05l.15.02.13-.13V35h.01v.36c-.04 0-.06-.04-.1-.05h-.15Zm-1.7-11.81.06-.12.25-.08c.01-.05 0-.08-.03-.11 0-.04.01-.03.02-.06.05.04.1.12.13.17.02.05.01.09.04.12a.9.9 0 0 1-.13.26c-.02.04-.07.07-.08.11-.03.08 0 .19-.02.28-.03.17-.06.36-.16.48h-.01c-.05-.12.01-.28.01-.45 0-.14.01-.24-.02-.36-.01-.06-.07-.19-.05-.24Zm1.8-4.85c.07-.06.1-.15.17-.2v-.04h.05c.06.16-.02.19-.06.33l-.02.24c-.01.05-.04.16-.02.2 0 .02-.17.25-.19.27 0-.06.02-.16 0-.24-.02-.08-.06-.19-.02-.29-.04-.04-.06-.12-.08-.18.05-.03.12-.05.17-.1Zm1.1-1.01h.02l-.02.17c.02.1.1.2.17.25 0 .07.03.16.02.22-.01.07-.07.2-.1.28-.01.06 0 .1-.02.15v.01c-.06-.08 0-.23-.04-.37l-.03-.08c-.01-.05.03-.04.02-.09-.01-.05-.06-.1-.08-.16.04-.01.05-.01.07-.04.02-.04-.07-.22-.1-.25 0-.06.06-.06.09-.1Zm.28 1.66c.02-.06 0-.13.02-.21 0-.03.03-.06.04-.1.05.03.03 0 .1 0 0 .04-.01.04-.04.06v.03l.05-.05.06.08v.08c.03.05.09.08.12.13.03.06.1.28.07.36-.02.08-.15.25-.2.3v.02h-.03l.03-.14h.04l.02-.14c-.01-.05-.04-.05-.04-.12l-.03.02c-.07 0-.09-.04-.12-.09-.07 0-.13-.02-.18.01h-.02c.01-.1.08-.16.1-.24Zm1.14 4.84.02.13.04.03c.06.1.02.24 0 .33-.02.12.06.28-.03.37l-.01.02c-.02-.05-.06-.09-.07-.13 0-.04.03-.04.02-.06a1.4 1.4 0 0 0-.05-.17c-.04-.1-.12-.2-.13-.33l.03-.1.01-.3c.02-.05.04-.07.05-.14.04.06.04.15.06.22l.06.13ZM18 26.67c-.02.01-.05-.02-.08-.01l-.1.02c-.06.13-.25.41-.14.58-.03.08-.1.1-.13.16-.04.1 0 .3-.05.38h-.03c-.01-.11-.1-.4-.09-.5l.08-.22c.03-.13-.03-.22 0-.33.02-.13-.06-.36 0-.45.02-.01.01 0 .05.02 0-.3-.07-.53-.13-.76-.04-.13-.05-.3-.12-.39 0-.16.21-.12.33-.17.04-.02.08-.06.12-.1 0-.04-.01-.04-.03-.07-.07-.02-.23-.02-.27.01l-.05-.03V24.69c.02-.03.1-.05.12-.07.07-.05.12-.13.2-.18 0-.14.06-.33.03-.5l-.06-.17c0-.06.05-.04.04-.1l-.04-.15h.1v-.02a.43.43 0 0 0-.04-.19c0-.04.02-.04.03-.07.2.06-.04.5.01.71l.04.22c.06.16.16.33.2.5.05.15-.05.27-.04.4.02.1 0 .26 0 .39v.13c.02.05.04.17.02.26-.01.07-.07.23-.04.34.02.07.08.11.1.17.03.1-.01.17.03.24 0 .05-.02.06-.06.07Zm-.05 7.65v.06h-.03a1.65 1.65 0 0 1-.09-.34h.05c.06.04.04.22.07.28Zm-.15-1.93c-.05-.02-.08-.06-.12-.08-.01-.16.1-.2.1-.37h.04c.01.07.03.15.06.19-.01.1-.06.17-.08.26Zm-.36-2.97h-.03v.03h-.02c-.04-.15-.15-.24-.2-.37-.03-.1-.02-.27-.08-.35l.01-.04c.06-.04.2-.02.25-.05.02.03.02.08.03.1.02.04.07.03.09.08.04.16-.02.38.05.5-.02.05-.07.06-.1.1Zm-.36.64-.14.07v.02c0 .12.1.08.18.12l.02.02c-.03.02-.04.06-.07.09h-.03c0 .1.02.18.04.25.02.08-.03.17.01.24v.04c-.1.02-.23-.03-.27.1 0 .02-.01.12.01.15.02.04.01.03.06.04-.03.15 0 .14.02.26 0 .04-.03.08-.04.1l.03.18-.06.05c0 .06.02.05.06.07 0 .08 0 .15-.04.18 0 .12.04.12.09.17.04 0 .05 0 .07-.02 0-.04 0-.04-.04-.05 0-.15.03-.2.12-.31v-.01h.02l.01.21c0 .03-.02.09 0 .13.03.15.15.3.03.47 0 .12-.07.07-.12.13-.03.05-.04.12-.07.19h-.04c0 .06 0 .08.04.11l-.02.06c-.03.1.08.4.13.43l-.15.56c-.01.05 0 .11 0 .14v.35c-.07-.02-.1-.1-.15-.12l.01-.07c-.06-.03-.07-.07-.1-.12-.04-.05-.1-.07-.13-.14l-.05-.21c-.01-.06.04-.07.02-.13l-.04-.1c-.02-.06.04-.25.02-.3l-.04-.07c-.04-.11-.03-.22-.09-.3.04-.2.22-.31.27-.48.06-.16.05-.37.05-.54a.3.3 0 0 0 .12-.03c.03-.02.05-.04.03-.07-.02-.06-.11-.08-.16-.1 0-.14-.03-.22-.05-.31-.02-.05 0-.14-.02-.18-.02-.1.05-.23 0-.35-.01-.06-.07-.08-.1-.13h-.12v-.17c0-.03.07-.07.04-.15l-.03-.04c0-.01.02-.02.01-.05l-.08-.07c-.04-.1-.02-.26-.05-.33l.01-.04c.04-.03.07-.02.1-.05.05.01.05.03.08.05.03.02.07 0 .1.01v-.02c0-.17-.08-.15-.11-.25-.03-.07.09-.15.1-.21.04-.12.03-.42.1-.54.1.03.17.15.21.24.03.06.11.09.14.14.07.14.15.4.25.5-.02.18-.04.14-.19.19Zm-.96-1.09c0-.07.03-.13.07-.16l.13.05c0 .06-.02.14 0 .17l.04.03c.03.07-.02.14-.02.2-.09-.03-.14-.23-.22-.3Zm.12 4.89c-.1.04-.21-.1-.27-.14l.02-.2c.02-.06.07-.1.1-.15h.03c.01.07.06.13.07.19 0 .02-.04.04-.03.08.01.05.06.15.09.18l-.01.04Zm-.18-7.1.02-.37h.01c.02.06 0 .13 0 .2h.04l.1.21v.4c-.02.03-.07.05-.05.13.01.05.06.09.07.13l.02.16c0 .04.03.1.04.13.04.19-.1.42-.01.52l-.06.07v.01c-.04-.02-.1-.14-.1-.2v-.12c0-.03-.08-.18-.07-.23.01-.04.07-.41.05-.45 0-.04-.05-.06-.06-.1-.02-.06 0-.3.01-.35v-.15Zm.48-1.3h.03c.03.05.08.1.1.15l-.02.35c0 .05.02.15 0 .2v.06l-.07-.06c-.02-.04.05-.13.03-.23-.06-.22-.15-.24-.07-.48Zm.99-3.12h.02l-.01.1h-.01l-.02-.07.02-.03Zm-1.96 11.48v.02a.33.33 0 0 1-.24-.2c-.02-.04 0-.07-.02-.12-.04-.09-.13-.11-.08-.24h.03c.06.09.16.1.23.18.03.03.1.32.08.36Zm.3-5.56-.1.05c-.04.02-.05.08-.08.11l-.01.01c-.07-.07-.05-.16-.1-.25-.03-.05-.1-.1-.13-.15 0 0 .1-.15.1-.25a.9.9 0 0 0 .03 0c.04.1.15.17.2.25.04.06.04.14.08.19v.04Zm-.23-2.3V26l.05.03v.12c-.05-.03-.09-.13-.1-.18l.05-.02Zm7.48-9.04h.02c0 .04 0 .05-.02.07v.03h.01l.02-.04.04-.01-.02.1.07.02c0 .05-.04.07-.03.1l.02.04h-.04c.01.03 0 .02.03.03l.04-.02.01.01-.05.23h-.08a.3.3 0 0 0-.1.07h-.02c.02-.17 0-.36-.02-.5.05-.04.09-.07.12-.13Zm1.42 3.37c0 .05.02.12.05.16.02.04.07.03.09.08.01.04 0 .2 0 .28 0 .3-.03.59.15.72 0 .03-.01.07-.03.1-.01.03-.1.06-.14.08v.02c.04.04.08.05.14.07-.02.15-.07.26-.1.39-.04.12-.02.25-.02.37l.01.34c.04.04.2.05.26.08.07.02.25.14.36.05.03-.01.03-.03.04-.06-.1-.12-.25-.18-.39-.26-.03-.1-.05-.33 0-.44.04-.06.1-.1.13-.17h.06l.01.21c0 .03-.03.08-.02.1l.02.05c0 .06-.03.1-.03.16.1 0 .16-.01.21-.03h.33l.05-.06c0-.04 0-.04.02-.07a.2.2 0 0 0-.01-.05c-.11-.02-.25 0-.32-.06l-.04-.05c0-.15-.01-.34.04-.48.03-.08.1-.13.13-.22.03-.08-.03-.13-.03-.19-.01-.21 0-.37.01-.56.06.08.04.23.07.32.02.07.07.15.1.2 0 .15 0 .3.02.44 0 .05.03.15.05.2 0 .04.04.07.05.1.04.12-.01.2.03.27l.07.04c.02.01.1-.05.16-.08.94-.43 1.96-.7 3.21-.7a6.48 6.48 0 0 1 4.61 2.53l6.03-3.75a13.1 13.1 0 0 0-10.21-6.07c-.15-.02-.12-.05-.24-.12-.1-.04-.27-.07-.4.1l-.46.01c.02-.12-.04-.19-.1-.26-.06-.04-.23-.05-.28-.01-.04.01-.17.21-.14.27v.02l-.25.03c.02-.07.07-.08.09-.14l-.01-.06c-.03-.09-.34-.26-.46-.16-.12.04-.2.25-.2.42-.1.03-.2.05-.32.05-.01-.2-.18-.26-.37-.24-.1.1-.2.19-.22.36-.1.01-.18.06-.29.06 0-.07.05-.07.05-.1.01-.04-.05-.05 0-.08-.01-.06-.01-.02-.05-.05-.03-.02-.03-.08-.08-.1-.04.02-.17 0-.21-.03-.2.02-.23.21-.33.33h-.02l.04.01c0 .07-.02.09.02.12-.03.12-.36.14-.46.21-.13-.02-.1-.15-.14-.26-.02-.05-.07-.1-.11-.12-.04-.03-.1-.1-.18-.06-.11 0-.13.07-.2.12 0 .08-.03.3-.06.35-.02.04-.07.02-.1.05-.05.03-.06.1-.1.14v.27a.76.76 0 0 0-.02.22c.05.06.05.11.17.12h-.02c-.03.1-.14.12-.2.2h-.01c0-.14.03-.28 0-.41-.01-.05-.04-.1-.04-.15l-.1-.05-.01-.11v-.01h-.01V15.38c-.13-.08-.01-.27-.1-.4-.04-.07-.25-.17-.33-.13-.16.03-.18.23-.24.37l-.14.39-.01.21c0 .02-.03.01-.02.05 0 .03.05.08.06.11l.07.36c-.02.1-.07.21-.08.34h-.01c-.04-.08-.1-.17-.12-.26v-.1c0-.03-.05-.07-.05-.09v-.08l-.06-.04c-.03-.08 0-.23-.04-.31-.04-.1-.18-.13-.22-.23-.03 0-.07-.02-.13 0l-.05.05h-.11c-.02.02-.01.06-.03.08-.04.03-.09.03-.11.08-.03.05-.01.12-.04.17-.01.12-.08.07-.12.13-.04.05-.05.12-.08.19h-.04c0 .06 0 .08.04.1 0 .05-.04.1-.01.13 0 .04-.01.04-.02.06-.09 0-.2-.02-.28.04-.05.03-.07.1-.12.13 0 .08 0 .13.03.2v.17c0 .01.02.02.02.05l-.06.1c-.01.05 0 .1-.03.12l-.01.01a.64.64 0 0 1-.03-.17.17.17 0 0 0-.07-.01c-.04-.11-.14-.42-.23-.48-.07-.05-.22 0-.3-.06-.03-.04-.02-.1-.02-.14l-.05-.13c-.01-.04 0-.07-.02-.1-.03-.06-.16-.04-.21-.09-.1.04-.2.11-.24.23-.04.12.05.24.02.3.03.02.07.04.1.04 0 .2-.15.28-.2.48-.01.07.04.3.05.34.02.03.07.04.08.06l.03.21c.02.06.07.07.08.16-.33-.06-.44-.11-.57.22a.21.21 0 0 1-.07 0c0 .05-.03.12 0 .18l-.01.03c-.06-.01-.08-.06-.13-.07-.04 0-.1.04-.14.05-.18.08-.21.24-.21.51l-.02.18.04.03.02.14c-.09.12-.01.36-.05.54 0 .04-.03.16 0 .22.02.08.08.25.15.3 0 .03 0 .08-.02.1v.2h-.02c-.06.04-.11.12-.17.16-.01.11-.02.27.07.3v.05c-.01.02-.07.03-.1.04-.08.06-.15.14-.24.2l-.14.17c-.02.05 0 .1-.02.14l-.04.04c-.04.06-.05.11-.07.2-.02.05-.1.2-.05.27 0 .12.16.14.24.17v.24c-.15 0-.25.1-.26.23-.09-.17-.27-.29-.32-.47V22.22c.01-.04.06-.08.06-.13l-.03-.02v-.1l-.06-.17c-.01-.05.05-.16.06-.21.02-.08.01-.12.04-.18 0-.03.04-.05.05-.07.09-.21 0-.34-.1-.44a.19.19 0 0 0-.1.04l-.05-.01c-.02-.06.06-.25.06-.37a.55.55 0 0 1-.11-.15c-.04 0-.14-.01-.19-.03-.06-.03-.06-.08-.17-.08l-.07.06-.02.14.12.14c.02.04-.01.11.01.17.02.04.06.04.09.07l.03.09c0 .2-.16.23-.22.38-.03.1.02.2 0 .32l-.1.36c-.02.1 0 .15-.04.2h-.06c-.05 0-.05-.01-.07-.03 0-.12.05-.13.12-.17 0-.05-.02-.16-.01-.2.01 0 .02 0 .03-.02.02-.05-.05-.07-.02-.13 0-.1-.01-.11-.04-.16h-.05c0-.05-.02-.06-.04-.1-.18.01-.42.16-.46.31-.03.13.04.23.05.33-.23.03-.25.12-.34.29l-.01.01c-.02-.02 0-.06-.01-.1l-.08-.24.01-.1a.93.93 0 0 0-.04-.19l.01-.03.06-.01v-.02c0-.08 0-.23-.04-.3l.03-.05h.03v.07h.01c.02-.06.04-.17 0-.23-.02-.04-.08-.05-.1-.1-.04-.14-.05-.27-.08-.41-.02-.07 0-.12-.02-.19-.02-.04-.06-.07-.08-.12l-.01-.03.13-.05c.01-.07.03-.16.05-.18 0-.05-.03-.04-.04-.07v-.12l-.03-.07c0-.03.03-.07.03-.13l-.05-.07c-.15-.03-.28-.05-.38.03-.04.03-.06.09-.1.12 0 .07-.01.2.01.28l.05.13c-.16.16-.16.65-.1.93 0 .06.02.24.01.28 0 .02-.02.08 0 .12.02.11.1.23.06.37-.05.14-.19.19-.26.3l-.1.1-.01.1c-.04.05-.1.09-.13.14-.02.02 0 .06-.03.09-.03.05-.11.08-.14.15-.04.08.15.14.2.18.04.03.05.07.1.1.05.02.17 0 .2-.02l.06-.03c-.02-.12-.13-.12-.21-.16l-.01-.03c0-.25.3-.6.49-.62v.06c.06.02.14.02.17.04.05.02.05.27.07.34.03.13.12.23.16.34.03.08.02.2.05.26h.1l.01.1a.3.3 0 0 1-.1-.1.6.6 0 0 0-.2.1c-.09.07-.07.21-.12.26 0 .1.12.27.2.29 0 .18-.12.53 0 .7l-.02.03c-.07-.01-.08-.05-.13-.08 0-.11-.03-.24-.03-.37.04 0 .07 0 .1-.02l.02-.01a.34.34 0 0 0-.16-.03l-.14-.28c-.06 0-.16.08-.23.03l-.05.01c-.03.1-.05.21-.05.31-.04.02-.08.03-.1.06h-.01v.01c.03 0 .05-.02.07 0h.03c-.02.05 0 .21-.04.26-.02.1-.1.08-.14.14-.03.05-.03.1-.04.17-.01.03-.02.13-.01.15 0 .06 0 .18-.02.22-.03.02-.1 0-.14.02-.05.02-.1.08-.14.11-.03.11-.07.3.01.41-.01.07-.07.07-.1.12a.65.65 0 0 0-.08.3c0 .16.02.32.05.47 0 .05.02.18 0 .2v.07c-.18-.07-.14-.41-.18-.66v-.19c-.01-.08-.06-.18-.08-.25-.04-.13-.03-.26-.07-.38-.03-.06-.15-.24-.16-.28 0-.04.04-.04.03-.08 0-.02-.04-.04-.05-.06a2.17 2.17 0 0 1 0-.41c.01-.11-.1-.37-.07-.45 0-.02.05-.07.05-.1v-.06c0-.06.03-.1.07-.13-.02-.14-.14-.16-.2-.24h-.2a.48.48 0 0 1-.11.12c-.06.07-.06.26-.01.32-.02.04-.04.04-.06.07l-.02.11-.14.14a1.1 1.1 0 0 0-.11.24c-.02.05.01.13.02.17l.01.38s.04.01.04.03c.03.07 0 .13.04.18l.06.08v.06c-.02.05 0 .23.01.28.03.1.07.17.09.28-.02.02-.02.06-.05.08-.07.06-.18.11-.24.2l-.02.07c-.04.06-.11.09-.13.18-.02.05.11.32.14.37.1.03.18.08.27.03 0-.16-.12-.17-.16-.28-.01-.05.01-.1.02-.11.1-.2.17-.14.3-.24.1-.06.1-.2.15-.31.1.01.09.03.2.01-.01-.04-.01-.12-.04-.17-.01-.03-.05-.04-.06-.08l.01-.02h.02l.06.1c.02.03.07.04.08.08.07.15.04.3.09.48.03.16.1.3.1.5.02 0 .05.04.08.05l.13.02c.03.02.03.06.08.07a1 1 0 0 0 .06.39l.04.07c.03.1-.05.3-.07.38h-.05c-.01-.12.12-.28.05-.43-.04-.07-.14-.09-.2-.15-.05.01-.09.04-.12.03-.04 0-.04.03-.07.05v.06l-.05.01c-.03.08-.03.28.03.37v.07l-.26.12c-.01.06-.07.18-.07.24 0 .03 0 .09-.02.13 0 .07.02.07.07.09.01.08-.01.21-.03.3v.28c0 .25-.04.32.04.5h.07l-.05-.01v-.03h.08v-.02a.57.57 0 0 0-.03-.18c-.02 0-.03-.02-.04-.03-.02-.07.03-.15.05-.2.04-.14.08-.28.1-.45h.02c0 .12-.02.2-.04.3-.02.12.04.39.07.49l.02.18c0 .02.04.04.04.06.04.1.15.45.15.52 0 .16.14.33.08.5l.07.04.03.2-.05.05c-.05.1-.04.22.01.3l.02.02c.07-.01.09-.06.13-.1.01-.12.07-.36.04-.5l-.04-.21v-.17c-.02-.08-.07-.21-.06-.3.02-.12-.1-.3-.03-.39v-.02c.11.02.13.19.18.27.06.1.13.14.23.19-.02.06-.08.15-.04.21v.07c.06.02.13.04.18.04l.09.18c.03.06 0 .12.04.16-.01.06-.04.04-.06.08l-.1.16-.09.11c-.05.09-.05.22-.1.3-.07.08-.18.03-.27.13l-.02.06c.03.1.13.07.18.14.04.06.07.17.13.2.03.01.08-.02.1-.04l.01-.02c-.03-.04-.03-.08-.07-.1 0-.1 0-.2.05-.24l.01-.02.09.22-.01.06c0 .03.01.1.03.14.01.03.05.05.06.09.02.03 0 .06.02.09l.03.03c0 .05-.06.08-.05.15.04.19.06.5.19.6 0 .08-.02.13-.06.17l-.04.03-.02.32c0 .03.03.06.02.12-.02.09-.08.2-.09.27-.05-.03-.04-.11-.06-.17-.06-.14-.1-.34-.18-.47l-.1-.02c.01-.08.04-.12.03-.19 0-.02-.03-.05-.02-.09 0-.03.03-.1.02-.14l-.06-.08c-.26-.07-.52.06-.45.37.01.07 0 .12.03.16-.03.03-.12 0-.17.04-.22.08.01.63-.04.86l-.02.18c0 .02.02.04 0 .07 0 .06-.07.2-.05.27l.03.04.05.2c-.07.25-.23.48-.32.75v.21l-.06.07v.1l-.01.04v.11l-.04.04.01.02c0 .06.03.06.06.1.15-.03.31-.1.42-.17l.01-.02a.3.3 0 0 0 0-.1c-.06 0-.13 0-.17.03L14.6 36c.03-.32.14-.5.27-.72.03-.05.03-.12.05-.17.03-.07.09-.13.1-.21h.03c.05.04.13.1.15.16v.06c.04.17.05.46.15.6 0 .06 0 .1.03.13.22.03.5.03.56-.19l.01-.02-.04-.05c-.08 0-.13.01-.18.05h-.14c-.06-.03-.13-.27-.1-.4 0-.04.03-.1.02-.15-.01-.05-.05-.1-.03-.16l.02-.13c-.02-.08-.03-.05-.01-.13.02-.11-.11-.18-.07-.26 0-.1-.02-.3.05-.33.02-.02.21.09.28.04.03-.03.04-.1.01-.15v-.03c.07.02.18.01.26.04.05.02.1.07.14.08.04.02.13.03.16 0 .1.01.16.17.18.25v.15c.03.06.1.1.14.15l.04.1.08.05c.08 0 .14 0 .17-.05h.01c0 .1-.04.19-.02.3.02.09.07.18.03.31-.02.07-.14.27-.09.37l.01.08c.17-.03.24-.3.28-.45.03-.1-.06-.13-.03-.24 0-.04.03-.08.03-.15h.01c.1 0 .13.02.2.04l.16-.04c.13 0 .31.41.31.58-.12-.02-.2-.03-.28.05-.06 0-.05-.02-.09-.04-.1-.07-.16.07-.18.14-.04.1-.06.25-.1.35l.02.11a.55.55 0 0 1-.07.26l.01.05.04.01v-.05c.05.12.07.26.1.4v.12c.01.02.04.1.04.14-.02.12-.21.43-.1.58 0 .1-.02.1-.06.15l.08.09c0 .14.01.27-.02.4-.03.08-.08.16-.1.25-.03.13 0 .43 0 .49.03.1-.06.18-.06.3l.08.09c.1-.01.12-.06.18-.1.1 0 .19-.02.28-.03l.07-.08-.01-.1c-.09 0-.2-.04-.26.03l-.08-.02c-.03-.15.02-.47.08-.62.03-.07.1-.14.12-.21l.02-.01c.06.01.07.08.13.1l.02.01.16-.14c.11.03.11.21.17.3.06.1.19.14.25.23l.01.1.06.05.46-.02.1-.13v-.07c-.14-.02-.36.01-.47-.05a1.12 1.12 0 0 1-.21-.34c-.03-.05 0-.13-.02-.18l-.07-.14c-.05-.1-.06-.2-.12-.3l-.08-.08c-.02-.06 0-.24 0-.3-.05-.19-.05-.3.07-.44a.7.7 0 0 0-.15-.37l-.1-.1c-.02-.03-.02-.07-.05-.1l.01-.09h.13c.05-.03.11-.12.14-.16.03-.06.08-.5.02-.61l-.05-.05c-.01-.04.03-.2.01-.27-.02-.1-.07-.15-.1-.23l.02-.03c.02.02.02.04.03.07.03-.02.04-.08.05-.11.09.02.08.12.12.18.02.03.03.02.06.04.05-.15-.06-.31-.09-.43l.01-.08.01-.33c.03-.15 0-.34-.03-.45.06-.06.16-.13.19-.22-.08-.08-.18-.3-.22-.42V33l-.05-.09c-.03-.06 0-.06-.04-.1 0-.16.12-.24.15-.4.06.02.06.1.1.15.09.15.12.34.19.53.02.05.05.07.05.14h-.08c-.07 0-.12 0-.16.02v.04c.02.16.2.15.35.2.04.01.1.08.17.03h.03c.01-.27-.03-.35-.1-.54l-.05-.24c-.03-.06-.08-.12-.1-.18l-.1-.32c-.06-.18 0-.37-.1-.49l.17-.39c.04-.04.06.13.07.16.07.18-.08.4.02.55v.01c.04 0 .09-.04.1-.07.02-.03 0-.07.02-.08.05 0 .08.1.1.13.06.09.17.19.26.25.01.14 0 .18-.03.29-.03.12.02.27 0 .34-.03.05-.09.07-.11.11a.77.77 0 0 0-.06.14c-.07.23-.02.57 0 .82 0 .2-.14.56-.04.72l.05.04c.03.03.02.07.06.1 0 .11-.05.17-.07.26l-.01.18-.07.14v.08c-.03.05-.08.08-.1.13-.07.11-.13.23-.18.35-.05.13-.07.26-.1.39-.02.07.01.14-.01.18l.04.06c.16 0 .5.15.62.05.04-.02.06-.05.03-.09-.03-.08-.16-.07-.22-.11l-.1-.08c.03-.1.02-.08-.01-.2.1-.1.15-.26.24-.38l.13-.14c.05-.07.06-.14.1-.21.06-.08.13-.13.17-.22.14.04.11.3.2.41-.01.08-.13.2-.16.3-.03.13.03.24 0 .35v.16c-.01.03-.05.07-.05.1s.02.1 0 .15c0 0-.02.02-.01.04.02.13.09.27.12.38l.07.26v.11c.02.06.05.3 0 .37.01.05.01.1 0 .14-.1 0-.16-.01-.2-.05-.07 0-.11.06-.07.11.05.15.3.15.39.26.04 0 .04 0 .06-.02l.12-.6v-.1c-.02-.05 0-.24.01-.28.02-.07.06-.14.07-.22.1.03.07.2.1.29l.07.07c.04.07.03.15.06.24.04.18.07.39.14.57.02.06.1.21.06.28 0 .05 0 .06.02.08.1 0 .13-.03.2-.04a.43.43 0 0 0-.07-.17l.03-.07c.12.03.24.1.38.11v.01c0 .13.02.3-.04.37-.08.1-.23.14-.27.27h-.01c0 .03.02.04.03.06l.15.01c.15-.15.3-.29.43-.46.05-.08.13-.12.17-.2h.01c-.07-.05-.11 0-.21-.06l-.03-.04c0-.12.14-.37.19-.43l.02-.02c.02.04.07.08.08.12.01.05-.02.09.02.14.01.02.03 0 .05.02l.08.14v.13c.03.04.09.02.1.06l.02.33-.08.22c-.03.12.01.3.03.39l.01.27c.05.14.21.3.4.3a.21.21 0 0 1 .04-.04c0-.14-.1-.15-.14-.24v-.04c-.02-.02-.06-.03-.07-.05a.61.61 0 0 1-.02-.33v-.17c.02-.05.1-.13.13-.2.04-.1.04-.21.1-.29l.02-.01c.04.08.12.16.15.24v.04c0 .06.04.12.06.18v.19c.05.17.1.38.16.54.01.05-.04.13-.05.17v.16c-.04.13-.1.29-.06.43 0 .06-.02.13 0 .16.02.05.07.06.1.1l.12-.06.21-.03c.05-.02.08-.07.12-.1 0-.04 0-.05-.03-.08-.06-.05-.16 0-.23 0 0-.13-.02-.38.04-.47.04-.02.24.13.33 0l.01-.02c-.04-.04-.07-.08-.13-.1h-.06c-.04-.02-.01-.07-.08-.1.06-.15.19-.27.23-.46.07.04.08.17.15.22 0 .46.01.91.1 1.24.03.13-.1.25-.04.34 0 .05.01.05.02.07a3 3 0 0 0 .28-.21c.01-.03.01-.07.03-.1l-.01-.05-.05-.01-.02-.02V41a2 2 0 0 0 .34-.27c.09.02.16.08.18.17H24l.08-.15h.05c.09-.05.1-.16.1-.32a.22.22 0 0 0-.15.1h-.04l-.01-.22c.02-.05.26-.36.3-.38l.03-.01c.01.04.04.18.06.2.01.02.03 0 .04.02.04.02.09.1.1.15l.01.1c.04.12.13.34.2.43 0 .15-.1.13-.14.22-.05.07-.05.16-.1.22v.05c.1.02.13-.03.21-.04l-.02.05c.08.1 0 .19.05.31l.03.06.07-.01c.12-.05.1-.25.1-.41.17.02.36.1.51.16.08.03.19.02.25.07.02.01.01 0 .02.03.01.01-.03.1-.02.17.02.1.06.2.09.29.03 0 .05.02.07 0 .1-.04.04-.2.16-.26v-.15c.32.08 1.91.39 3.11.35 1.87-.05 2.98-.3 4.4-.83.98-.37 1.86-.9 2.74-1.47a12.5 12.5 0 0 0 3.7-3.8l-5.99-3.79a6.03 6.03 0 0 1-1.51 1.5 6.52 6.52 0 0 1-3.8 1.13h-.06c-.03-.02-.07-.16-.11-.19a.32.32 0 0 0-.46.12c-.1 0-.25-.01-.31-.06-.05-.03-.02-.12-.06-.16-.07-.1-.36-.06-.42.03-.17-.01-.29-.11-.44-.14.01-.06-.05-.09 0-.13 0-.19-.21-.19-.36-.18-.03.04-.07.06-.09.1a1 1 0 0 1-.36-.19c-.04-.06-.03-.14-.07-.2-.04-.07-.15-.06-.2-.12-.13.01-.24.06-.3.17-.01.05 0 .12-.04.15v.02c-.02-.07-.06-.12-.08-.18v-.03c-.01-.06-.1-.1-.12-.15-.02-.05 0-.09-.02-.15a1.18 1.18 0 0 0-.13-.32c-.04-.06-.13-.17-.22-.1-.15 0-.2.19-.2.36v.11c0 .14-.13.07-.15.21-.05-.04-.01-.17-.04-.24-.03-.07-.11-.12-.15-.18-.03-.05-.04-.1-.08-.13l.01-.09.09-.01c.04-.1.11-.2.14-.3v-.05c0-.09 0-.12.05-.16 0-.11-.05-.13-.09-.19-.32-.02-.4-.05-.47.28 0 .04-.02.14 0 .2 0 .06.02.08.01.15-.05-.03-.05-.08-.1-.1-.01-.12-.05-.26-.02-.4.02-.04.07-.1.05-.18l-.03-.04c-.03-.07 0-.16-.02-.22-.03-.09-.1-.1-.15-.16-.01-.02 0-.04-.03-.06 0-.05.02-.05.03-.09.06 0 .08 0 .11.03v.02c.05-.06.05-.17.11-.22 0-.03-.03-.04-.04-.07-.02-.05.02-.1 0-.14-.03-.07-.1-.12-.13-.18-.1 0-.23-.06-.3 0-.1.04-.12.17-.17.24v.03c-.05-.04-.02-.14-.04-.21a.72.72 0 0 0-.13-.24v-.08c.08 0 .13.03.17 0 .04-.03.1-.13.09-.2 0-.04-.04-.07-.02-.13.01-.06.04-.1-.01-.17 0-.06.02-.1.05-.13 0-.04 0-.07-.02-.09-.05-.08-.3-.17-.4-.08-.03.01-.03.03-.04.05h-.02c-.02-.05-.02-.16-.06-.22 0-.14.09-.19.13-.27a.73.73 0 0 1-.14-.26c.07 0 .2-.08.14-.18v-.02c-.08-.02-.18-.01-.26-.01-.02-.06-.06-.13-.1-.17v-.02l.17-.04c.03-.04 0-.15.05-.2 0-.06-.04-.05-.06-.1-.01-.02 0-.07-.02-.1 0-.1.07-.1.1-.18.01-.05-.05-.21-.03-.34.01-.03.05-.15.04-.19l-.05-.03-.02-.13.02-.23c-.06-.32-.09-.64-.27-.83 0-.03.01-.05.03-.07.02-.06.08-.07.13-.1.02-.04.07-.17.06-.23 0-.04-.05-.15-.04-.18 0-.03.04-.03.04-.08.05-.01.04-.02.06-.05.06 0 .17.08.21.06.1-.02.13-.1.21-.14v-.03c-.07-.02-.2-.02-.26-.06-.03-.02-.03-.06-.05-.1l-.12-.06c-.03-.11-.09-.28-.02-.38v-.03c.11 0 .7.29.68-.02-.04-.01-.1-.02-.14-.05l.05-.11c0-.14-.13-.11-.2-.19v-.02c.07-.01.1 0 .16.04.1-.12.32-.43.33-.63.2 0 .42-.04.55-.13l.01-.02c0-.05-.01-.05-.03-.08-.1-.02-.23-.05-.32-.04-.01-.05-.03-.04-.04-.06-.05-.14.09-.51.11-.6.02-.05-.02-.1-.02-.12.09-.18.06-.38.08-.6l.06-.05.1.01c.02.02 0 .15.01.2.03.08.1.16.12.23.02.08-.06.13-.01.21.01.14.08.06.14.1l.06.1c.07.05.19.06.32.05-.02-.15-.2-.17-.25-.28-.05-.1-.01-.18-.13-.2-.01-.09-.07-.24-.04-.33.01-.04.05-.08.06-.14.1-.02.12-.02.19-.06v-.4c0-.04.05-.03.03-.08-.01-.07-.06-.15-.08-.2-.03-.1-.03-.23-.05-.32a.41.41 0 0 1 .03-.2l-.01-.13c0-.06.05-.2.03-.28l-.05-.12" fill="#fff"/></svg>