<!-- by TradingView --><svg width="56" height="56" viewBox="0 0 56 56" xmlns="http://www.w3.org/2000/svg"><path fill="#162E2F" d="M0 0h56v56H0z"/><path d="M12 27.82c0-2.93.7-5.7 1.95-8.17h14.66v17.53H14.6a18.1 18.1 0 0 1-2.6-9.34v-.02Z" fill="url(#a)"/><path d="M13.33 21a18.55 18.55 0 0 1 3.96-6h15.8v4.13l3.7 2.87.3 5.42 2.87 4.45-5.86 3.92V41H17.63a18.6 18.6 0 0 1-4.15-6h12.95V21h-13.1Z" fill="url(#b)"/><path fill-rule="evenodd" d="M28 15h2v4h2v-4h2v4h1.37c2.77 0 5.2 1.83 5.2 4.58 0 1.48-.96 3.14-2.29 3.6h.16A3.55 3.55 0 0 1 42 30.71v1.08A5.23 5.23 0 0 1 36.76 37H34v4h-2v-4h-2v4h-2v-4h-5l.59-3h1.39c.72 0 1.02-.47 1.02-1.2v-9.88c0-.72-.3-.92-1.02-.92H23v-3h5v-4Zm2 19v-5h3.1c1.3.06 3.9.63 3.9 2.48s-2.6 2.45-3.9 2.52H30Zm0-7.4V22h2.62c1.1.05 3.31.58 3.31 2.28 0 1.7-2.2 2.26-3.3 2.32H30Z" fill="#C4FDF2"/><defs><linearGradient id="a" x1="20.31" y1="19.65" x2="20.31" y2="37.18" gradientUnits="userSpaceOnUse"><stop stop-color="#31605B"/><stop offset=".31" stop-color="#3B746D"/><stop offset=".64" stop-color="#3B756E"/><stop offset="1" stop-color="#305E59"/></linearGradient><linearGradient id="b" x1="33.48" y1="27.19" x2="-4.87" y2="27.19" gradientUnits="userSpaceOnUse"><stop stop-color="#3D7770"/><stop offset="1" stop-color="#32625E"/></linearGradient></defs></svg>