<!-- by TradingView --><svg width="56" height="56" viewBox="0 0 56 56" xmlns="http://www.w3.org/2000/svg"><path fill="#F0F3FA" d="M0 0h56v56H0z"/><path d="M19 17v-5l9 8.91L37 12v5l-9 9-9-9Z" fill="url(#aazh4v34q)"/><path d="M19 39v5l9-8.91L37 44v-5l-9-9-9 9Z" fill="url(#bazh4v34q)"/><path d="M39 37h5l-8.91-9L44 19h-5l-9 9 9 9Z" fill="url(#cazh4v34q)"/><path d="M17 37h-5l8.91-9L12 19h5l9 9-9 9Z" fill="url(#dazh4v34q)"/><defs><linearGradient id="aazh4v34q" x1="22.35" y1="14.43" x2="35.88" y2="34.41" gradientUnits="userSpaceOnUse"><stop stop-color="#1A1E21"/><stop offset="1" stop-color="#06060A"/></linearGradient><linearGradient id="bazh4v34q" x1="22.35" y1="41.57" x2="35.88" y2="21.59" gradientUnits="userSpaceOnUse"><stop stop-color="#1A1E21"/><stop offset="1" stop-color="#06060A"/></linearGradient><linearGradient id="cazh4v34q" x1="41.57" y1="33.65" x2="21.59" y2="20.12" gradientUnits="userSpaceOnUse"><stop stop-color="#1A1E21"/><stop offset="1" stop-color="#06060A"/></linearGradient><linearGradient id="dazh4v34q" x1="14.43" y1="33.65" x2="34.41" y2="20.12" gradientUnits="userSpaceOnUse"><stop stop-color="#1A1E21"/><stop offset="1" stop-color="#06060A"/></linearGradient></defs></svg>