<!-- by TradingView --><svg width="56" height="56" viewBox="0 0 56 56" xmlns="http://www.w3.org/2000/svg"><path fill="url(#a)" d="M0 0h56v56H0z"/><path d="m28 28.55 8.5-4.77L28 11v17.55Z" fill="url(#b)"/><path d="m28 28.55-8.5-4.77L28 11v17.55Z" fill="url(#c)"/><path d="M18.01 25.74A11.52 11.52 0 0 0 16 32.25C16 38.75 21.37 44 28 44s12-5.26 12-11.75c0-2.34-.7-4.53-1.92-6.36L28.01 31.5l-10-5.77Z" fill="url(#d)"/><path d="m21.3 23.99-3.29 1.76L28 31.63l10.1-5.75-3.48-1.9H21.3Z" fill="url(#e)"/><path d="m28 28.55-8.5-4.77 8.5-4.72v9.49Z" fill="#41C7F0"/><path d="m28 28.55 8.5-4.77-8.5-4.72v9.49Z" fill="#409EDD"/><path d="m28 28.55-7.42-4.15L28 20.3v8.25Z" fill="url(#f)"/><path d="m28 28.55 7.35-4.15L28 20.3v8.25Z" fill="url(#g)"/><defs><linearGradient id="a" x1="28" y1="0" x2="28" y2="56" gradientUnits="userSpaceOnUse"><stop stop-color="#E97877"/><stop offset="1" stop-color="#EFD1AE"/></linearGradient><linearGradient id="b" x1="32.25" y1="11" x2="34.69" y2="23.46" gradientUnits="userSpaceOnUse"><stop stop-color="#3863B2"/><stop offset="1" stop-color="#83A2CC"/></linearGradient><linearGradient id="c" x1="23.75" y1="11" x2="21.31" y2="23.46" gradientUnits="userSpaceOnUse"><stop stop-color="#5EC6EB"/><stop offset="1" stop-color="#83C6DF"/></linearGradient><linearGradient id="d" x1="28" y1="25.74" x2="28" y2="44" gradientUnits="userSpaceOnUse"><stop offset=".22" stop-color="#4F83C1"/><stop offset=".45" stop-color="#51B3E5"/><stop offset="1" stop-color="#BAD2D3"/></linearGradient><linearGradient id="e" x1="15.89" y1="25.46" x2="38.36" y2="25.46" gradientUnits="userSpaceOnUse"><stop offset=".12" stop-color="#79C3E0"/><stop offset=".53" stop-color="#93E3FC"/><stop offset="1" stop-color="#76C3DE"/></linearGradient><linearGradient id="f" x1="21.1" y1="25.17" x2="27.72" y2="24.88" gradientUnits="userSpaceOnUse"><stop stop-color="#34C2F3"/><stop offset="1" stop-color="#61DAFA"/></linearGradient><linearGradient id="g" x1="29.49" y1="27.92" x2="29.85" y2="22.21" gradientUnits="userSpaceOnUse"><stop stop-color="#25D2FD"/><stop offset=".49" stop-color="#61C2F2"/><stop offset="1" stop-color="#31A2E5"/></linearGradient></defs></svg>