<!-- by TradingView --><svg width="56" height="56" xmlns="http://www.w3.org/2000/svg"><path fill="url(#paint0_linear)" d="M0 0h56v56H0z"/><path d="M37 25.364V15.336L27.724 10l-4.043 2.199 1.643.964 2.349-1.247L35 16.274V24h-4v3.82l6-2.456zM14 24v-4.447l7.37-4.512 6.226 3.329.025-.064.77-1.415-7.02-3.985-9.307 5.695L12.04 24H14zm5.458 1.429L25 27.807V24h-5.902l-7.034 3.357L12 36.653l4.018 2.828 1.072-1.468L14 35.791V28.27l5.458-2.841zm10.705 17.498l-2.516 1.029L21 40.459v-7.586h-2v8.614L27.557 46l3.235-1.311-.63-1.762zM40 36.164V33h2v4.039l-9.129 6.66L27 38.98v-4.641L21.704 29h11.758L29 34.326v3.857l3.91 3.034L40 36.164zm.02-19.388L44 19.95v9.36l-7.676 4.783-.898-1.414L42 28.386v-7.663l-3.12-2.353 1.14-1.607v.013z" fill="#10001D"/><defs><linearGradient id="paint0_linear" x1="28" y1="0" x2="28" y2="56.016" gradientUnits="userSpaceOnUse"><stop stop-color="#F6E93D"/><stop offset=".13" stop-color="#F8E330"/><stop offset=".35" stop-color="#F7C730"/><stop offset=".64" stop-color="#F59C2E"/><stop offset=".98" stop-color="#EB5E2C"/><stop offset="1" stop-color="#EB5C2C"/></linearGradient></defs></svg>