<!-- by TradingView --><svg width="56" height="56" fill="none" xmlns="http://www.w3.org/2000/svg"><path fill="#F0F3FA" d="M0 0h56v56H0z"/><path d="M13.278 33.094a4.443 4.443 0 010-6.236L29.955 10l.778.786a4.443 4.443 0 010 6.236L14.055 33.88l-.777-.786z" fill="url(#paint0_linear_1530)"/><path d="M19.273 39.154a4.443 4.443 0 010-6.236L35.95 16.06l.777.786a4.443 4.443 0 010 6.236L20.05 39.94l-.777-.786z" fill="url(#paint1_linear_1530)"/><path d="M25.267 38.978a4.443 4.443 0 000 6.236l.778.786 16.677-16.858a4.443 4.443 0 000-6.236l-.777-.786-16.678 16.858z" fill="url(#paint2_linear_1530)"/><defs><linearGradient id="paint0_linear_1530" x1="20.074" y1="19.988" x2="36.097" y2="35.839" gradientUnits="userSpaceOnUse"><stop stop-color="#6BB7FF"/><stop offset="1" stop-color="#053BF7"/></linearGradient><linearGradient id="paint1_linear_1530" x1="20.074" y1="19.988" x2="36.097" y2="35.839" gradientUnits="userSpaceOnUse"><stop stop-color="#6BB7FF"/><stop offset="1" stop-color="#053BF7"/></linearGradient><linearGradient id="paint2_linear_1530" x1="20.074" y1="19.988" x2="36.097" y2="35.839" gradientUnits="userSpaceOnUse"><stop stop-color="#6BB7FF"/><stop offset="1" stop-color="#053BF7"/></linearGradient></defs></svg>