<!-- by TradingView --><svg width="56" height="56" fill="none" xmlns="http://www.w3.org/2000/svg"><path fill="#F0F3FA" d="M0 0h56v56H0z"/><path d="M46 28.748l-2.4-2.15-2.857 3.308c-.378.313-1.516.882-3.047.662-1.531-.22-2.363.276-2.588.551l-9.475 10.656L28 44c3.334-3.74 10.208-11.475 10.963-12.247.944-.965 1.78-.413 3.128-.248 1.078.133 1.671-.202 1.833-.386L46 28.75z" fill="url(#paint0_linear_1530)"/><path d="M22.76 39.032l-2.346-2.15 7.199-8.079c.836-.937 1.995-.248 3.289-.248 1.035 0 1.905-.533 2.21-.8l5.393-5.982 2.319 2.178a2254.236 2254.236 0 01-4.314 4.852c-.89.993-1.995.552-3.154.276-.928-.22-1.825.35-2.157.662l-8.44 9.291z" fill="url(#paint1_linear_1530)"/><path d="M28.026 12l-10.41 11.655c-.658.738-2.454.692-3.554.461-.88-.184-1.627.366-1.89.664L10 27.174l2.398 2.164c.978-1.183 3.103-3.675 3.78-4.183.846-.635 2.144-.375 2.934 0 .632.3 1.448-.125 1.777-.375l9.563-10.559L28.026 12z" fill="url(#paint2_linear_1530)"/><path d="M17.594 34.25l-2.35-2.215c1.281-1.449 4.077-4.601 4.752-5.313.844-.891 2.367-.336 3.484-.36.894-.019 1.712-.59 2.01-.872l7.808-8.592 2.306 2.258c-1.999 2.122-6.141 6.57-6.721 7.378-.58.809-1.45.854-1.812.775a99.851 99.851 0 01-1.582-.37c-.896-.216-1.713.359-2.01.673l-5.885 6.638z" fill="url(#paint3_linear_1530)"/><defs><linearGradient id="paint0_linear_1530" x1="43.906" y1="29.259" x2="30.137" y2="43.632" gradientUnits="userSpaceOnUse"><stop offset=".205" stop-color="#00C967"/><stop offset=".325" stop-color="#15E882"/><stop offset="1" stop-color="#16EA84"/></linearGradient><linearGradient id="paint1_linear_1530" x1="37.406" y1="26.124" x2="24.152" y2="39.334" gradientUnits="userSpaceOnUse"><stop offset=".232" stop-color="#00C969"/><stop offset=".416" stop-color="#09F183"/></linearGradient><linearGradient id="paint2_linear_1530" x1="24.075" y1="23.63" x2="17.132" y2="31.037" gradientUnits="userSpaceOnUse"><stop stop-color="#1BC775"/><stop offset=".715" stop-color="#0DD976"/></linearGradient><linearGradient id="paint3_linear_1530" x1="32.139" y1="21.233" x2="18.569" y2="34.286" gradientUnits="userSpaceOnUse"><stop offset=".401" stop-color="#1BD27F"/><stop offset=".609" stop-color="#2FE18B"/></linearGradient></defs></svg>