<!-- by TradingView --><svg width="56" height="56" viewBox="0 0 56 56" xmlns="http://www.w3.org/2000/svg"><path fill="#F0F3FA" d="M0 0h56v56H0z"/><path d="m11 30 15 15s-4.2-7.18-6.2-9.21c-2-2-8.8-5.79-8.8-5.79Z" fill="#5496F8"/><path d="m23 25-11.7 3.04c-.16.04-.25.16-.3.31-.02.16.05.3.18.39l7.9 5.06c.33.23.71.25 1.1.12.38-.14.62-.43.71-.84L23 25Z" fill="#126BF9"/><path d="m31 33-2.95 11.7a.38.38 0 0 1-.7.11l-5.14-7.83a1.12 1.12 0 0 1-.12-1.1c.14-.37.43-.62.82-.73L31 33Z" fill="#0037D1"/><path d="M23.5 24 27 11.34a.3.3 0 0 0-.12-.3c-.12-.07-.23-.05-.32.05L11.08 26.55c-.1.09-.1.2-.05.32.07.11.18.16.3.11L23.5 24Z" fill="#5496F8"/><path d="m32 33-3 11.66a.3.3 0 0 0 .12.3c.12.07.23.05.32-.05l15.48-15.46c.1-.09.1-.2.05-.32-.07-.11-.18-.16-.3-.11L32 33Z" fill="#0127AF"/><path d="m32 32 11.7-3.92a.4.4 0 0 0 .3-.3.32.32 0 0 0-.18-.34l-8.02-4.27a1.37 1.37 0 0 0-1.1-.1c-.38.12-.63.4-.72.76L32 32Z" fill="#2C4FF9"/><path d="m24.5 24 3.2-12.68c.04-.17.15-.3.3-.32.15-.02.3.05.36.2l4.45 8.75c.2.37.26.78.1 1.2-.14.42-.4.69-.77.81L24.5 24Z" fill="#78A8F9"/><path d="m24 25 8.07-1.96s1.18-.33.88.96c-.3 1.28-1.95 8-1.95 8l-8 1.98s-1.17.26-.98-1.1C22.22 31.55 24 25 24 25Z" fill="#126BF9"/><path d="m29 11 16 16s-7.94-3.6-9.93-5.75C33.1 19.09 29 11 29 11Z" fill="#0037D1"/></svg>