<!-- by TradingView --><svg width="56" height="56" xmlns="http://www.w3.org/2000/svg"><path fill="#49BEC0" d="M0 0h56v56H0z"/><path d="M36.645 16.082l-4.86 3.401-1.857-1.417 6.632-4.946 5.995 4.067a5.555 5.555 0 01.198 9.084L40.429 28l1.984 1.403a5.769 5.769 0 010 9.41l-5.725 4.067L17.64 29.488l-2.777 2.04a2.977 2.977 0 00-.17 4.776l4.818 3.912 4.832-3.458 1.786 1.36-6.66 4.762-6.633-5.017a4.832 4.832 0 01.128-7.68l2.763-2.055-2.069-1.446a5.626 5.626 0 01-.085-9.126L19.4 13.29l18.99 13.293 2.593-1.842a3.641 3.641 0 00-.17-6.038l-4.167-2.607v-.014zm-.042 11.762L19.214 15.77l-4.945 4.11a2.804 2.804 0 00.17 4.478l3.287 2.296 6.66-4.932 1.886 1.403L19.668 28l17.26 12.017 4.323-3.117a3.572 3.572 0 00-.029-5.81l-2.55-1.772-6.944 5.187-2.027-1.758 6.888-4.875.014-.028z" fill="#fff"/></svg>