<!-- by TradingView --><svg width="56" height="56" fill="none" xmlns="http://www.w3.org/2000/svg"><path fill="#F0F3FA" d="M0 0h56v56H0z"/><path d="M26 41c7.732 0 14-6.268 14-14s-6.268-14-14-14-14 6.268-14 14 6.268 14 14 14z" fill="#2EB6EA"/><path d="M26.071 40.984c-14.047 0-19.591-18.307-7.183-26.023-1.476 15.301 6.374 15.64 13.658 15.301 12.206-.567 12.214 10.722 12.214 10.722H26.07z" fill="#1542CD"/><path fill-rule="evenodd" clip-rule="evenodd" d="M39.258 31.504c-2.124 5.435-7.104 9.317-13.258 9.49.145.004.29.006.437.006H45s-.248-6.66-5.742-9.496z" fill="#745DDF"/></svg>