<!-- by TradingView --><svg width="56" height="56" xmlns="http://www.w3.org/2000/svg"><path fill="#F8434F" d="M0 0h56v56H0z"/><path d="M21.63 40.444L9.124 18.538c.024 0-.912-2.53 2.016-2.53h8.066a2.65 2.65 0 012.448 1.265C22.542 18.733 35 40.663 35 40.663L24.294 42c-1.128.049-2.136-.56-2.664-1.557z" fill="#FDC5CA"/><path d="M24.044 37.256l7.753-13.01S32.414 23 34.365 23h8.222s3.408.072 2.124 2.276c-1.284 2.228-9.087 15.358-9.087 15.358S35.106 42 33.007 42H22.982s-1.852-.072-.47-2.3c1.383-2.228 1.532-2.444 1.532-2.444z" fill="#fff"/></svg>