<!-- by TradingView --><svg width="56" height="56" fill="none" xmlns="http://www.w3.org/2000/svg"><path fill="#F0F3FA" d="M0 0h56v56H0z"/><path fill-rule="evenodd" clip-rule="evenodd" d="M40.63 39.379A16.937 16.937 0 0045 28c0-9.389-7.611-17-17-17s-17 7.611-17 17 7.611 17 17 17c4.293 0 8.215-1.592 11.207-4.217l-11.383-11.24-6.624 6.54.026.019c-.694.767-2.133 1.247-2.986.587-.17-.132-.234-.388-.231-.689H18V20h.027c.095-.416.42-.756.696-.836l.045-.013c.411-.12 1.027-.3 1.5.1a.477.477 0 01.102.121l7.454 7.36 7.568-7.473.009.009a.588.588 0 01.02-.017c.537-.402 1.21-.229 1.673-.11l.043.011c.606.156.788.575.842.848H38V33.969l-2-1.975V21.469l-6.753 6.669L36 34.806v-.002L37.21 36l3.42 3.379zM20 21.817l6.4 6.32-6.4 6.321v-12.64z" fill="#E7161B"/></svg>