<!-- by TradingView --><svg width="56" height="56" fill="none" xmlns="http://www.w3.org/2000/svg"><path fill="url(#paint0_linear_1530)" d="M0 0h56v56H0z"/><path fill-rule="evenodd" clip-rule="evenodd" d="M20.5 22a2.5 2.5 0 100-5 2.5 2.5 0 000 5zm0 8a2.5 2.5 0 100-5 2.5 2.5 0 000 5zM38 27.5a2.5 2.5 0 11-5 0 2.5 2.5 0 015 0zM16.5 26a2.5 2.5 0 100-5 2.5 2.5 0 000 5zM34 23.5a2.5 2.5 0 11-5 0 2.5 2.5 0 015 0zM24.5 26a2.5 2.5 0 100-5 2.5 2.5 0 000 5zM42 23.5a2.5 2.5 0 11-5 0 2.5 2.5 0 015 0zM35.5 22a2.5 2.5 0 100-5 2.5 2.5 0 000 5zM30 28a2 2 0 11-4 0 2 2 0 014 0zm-6 6a2 2 0 100-4 2 2 0 000 4zm21-6a2 2 0 11-4 0 2 2 0 014 0zm-5 6a2 2 0 100-4 2 2 0 000 4zm-25-6a2 2 0 11-4 0 2 2 0 014 0zm-6 4a1 1 0 100-2 1 1 0 000 2zm5 3a1 1 0 11-2 0 1 1 0 012 0zm14 1a1 1 0 100-2 1 1 0 000 2zm16-1a1 1 0 11-2 0 1 1 0 012 0zm3-3a1 1 0 100-2 1 1 0 000 2zm-28.5 0a2 2 0 11-4 0 2 2 0 014 0zm13 2a2 2 0 100-4 2 2 0 000 4z" fill="#fff"/><defs><linearGradient id="paint0_linear_1530" x1="10.418" y1="9.712" x2="68.147" y2="76.017" gradientUnits="userSpaceOnUse"><stop stop-color="#1A1E21"/><stop offset="1" stop-color="#06060A"/></linearGradient></defs></svg>