<!-- by TradingView --><svg width="56" height="56" viewBox="0 0 56 56" xmlns="http://www.w3.org/2000/svg"><path fill="url(#aaozbd3vx)" d="M0 0h56v56H0z"/><path d="M32.86 24.72v-.01c-.24.7-.81 2.45-1.27 3.9C30.2 32.7 28.6 34 28 34c-.65 0-2.18-1.3-3.6-5.4l-.82-2.58-1.95-5.96c.11-.04.22-.06.34-.06 1.13 0 2.17 1.84 3.56 4.28l.67 1.18.4.75c.55 1.05.98 1.76 1.4 1.79.42-.03.85-.74 1.4-1.8l.4-.74.67-1.18C31.86 21.84 32.9 20 34.03 20c.12 0 .24.02.35.06l-1.52 4.66Zm.41 1.4c.41 1.46.89 3.35.98 4.44.1.97.2 1.92.3 2.62.07.51.5.88 1.02.88h3.01c.26 0 .45-.22.42-.47-.6-4.08-2.02-11-3.9-13.02l-1.83 5.56ZM17 33.6c.6-4.09 2.03-11.02 3.92-13.03l1.81 5.54c-.4 1.47-.89 3.36-.98 4.46-.1.97-.2 1.92-.3 2.62-.07.51-.5.88-1.02.88h-3.01a.41.41 0 0 1-.42-.47Z" fill="#fff"/><path fill-rule="evenodd" d="M28 45a17 17 0 1 0 0-34 17 17 0 0 0 0 34Zm0-1a16 16 0 1 0 0-32 16 16 0 0 0 0 32Z" fill="#fff"/><defs><linearGradient id="aaozbd3vx" x1="10.54" y1="7.22" x2="47.02" y2="49.46" gradientUnits="userSpaceOnUse"><stop offset=".03" stop-color="#D3606C"/><stop offset=".69" stop-color="#5B7CFD"/></linearGradient></defs></svg>