<!-- by TradingView --><svg width="56" height="56" fill="none" xmlns="http://www.w3.org/2000/svg"><path fill="#103F68" d="M0 0h56v56H0z"/><path d="M22.182 17l-1.455 7h14.546l-1.455-7H22.182zM24 32.323V28l-3.569-2.194L16 28.733 21.923 39h2.242L26 36.249V35l-2-2.667v-.01zM32.185 25h-8.092l1.725 3-.795 4h6.242l-1.083-4 2.003-3zM32 28l3.568-2.503L40 28.733 34.16 39h-2.157L30 36.227v-1.28l2-2.73V28z" fill="#fff"/><path d="M28 10.5l15 8.75v17.5L28 45.5l-15-8.75v-17.5l15-8.75z" stroke="#fff" stroke-width="2"/></svg>