<!-- by TradingView --><svg width="56" height="56" viewBox="0 0 56 56" xmlns="http://www.w3.org/2000/svg"><path fill="#01123E" d="M0 0h56v56H0z"/><path fill-rule="evenodd" d="M28 12c8.82 0 16 7.18 16 16s-7.18 16-16 16-16-7.18-16-16 7.18-16 16-16Zm0 23c-2-1.78-3-4.1-3-7 0-2.9 1-5.22 3-7 2 1.78 3 4.1 3 7 0 2.9-1 5.17-3 7Z" fill="url(#a02ekndw0)"/><path d="M12.45 31.83c.06.1 3.57 6.27 9.3 6.17 1.87-.03 3.94-1.25 6.25-3 2-1.78 3-4.1 3-7 0-2.9-1-5.22-3-7 0 0 3.22-3.07 7-3 2.96.05 6.3 1.99 8.78 7.33A16.02 16.02 0 0 1 28 43.96a15.93 15.93 0 0 1-15.55-12.13Z" fill="url(#b02ekndw0)"/><defs><linearGradient id="a02ekndw0" x1="28" y1="12" x2="28" y2="38.5" gradientUnits="userSpaceOnUse"><stop stop-color="#F4C251"/><stop offset=".89" stop-color="#E47236"/></linearGradient><linearGradient id="b02ekndw0" x1="28.22" y1="18" x2="28.22" y2="43.96" gradientUnits="userSpaceOnUse"><stop offset=".15" stop-color="#E1602B"/><stop offset="1" stop-color="#EDAD3F"/></linearGradient></defs></svg>