<!-- by TradingView --><svg width="56" height="56" xmlns="http://www.w3.org/2000/svg"><path fill="url(#paint0_linear)" d="M0 0h56v56H0z"/><path d="M31 16a1 1 0 100-2 1 1 0 000 2zm-6 5a1.5 1.5 0 100-3 1.5 1.5 0 000 3zm0 6a2 2 0 100-4 2 2 0 000 4zm1.5 9.5a1.5 1.5 0 10-3 0 1.5 1.5 0 003 0zm-7-10a1.5 1.5 0 100-3 1.5 1.5 0 000 3zM35 25a1.5 1.5 0 103 0 1.5 1.5 0 00-3 0zm-15.5 7.5a1.5 1.5 0 100-3 1.5 1.5 0 000 3zM35 31a1.5 1.5 0 103 0 1.5 1.5 0 00-3 0zm-4-10a1.5 1.5 0 100-3 1.5 1.5 0 000 3zm1.5 15.5a1.5 1.5 0 10-3 0 1.5 1.5 0 003 0zM32 41a1 1 0 10-2 0 1 1 0 002 0zm-7-25a1 1 0 100-2 1 1 0 000 2zm1 25a1 1 0 10-2 0 1 1 0 002 0zM15 26a1 1 0 100-2 1 1 0 000 2zm25-1a1 1 0 102 0 1 1 0 00-2 0zm-25 7a1 1 0 100-2 1 1 0 000 2zm25-1a1 1 0 102 0 1 1 0 00-2 0zm-9-4a2 2 0 100-4 2 2 0 000 4zm2 4a2 2 0 11-4 0 2 2 0 014 0zm-8 2a2 2 0 100-4 2 2 0 000 4z" fill="#fff"/><defs><linearGradient id="paint0_linear" x1="10.418" y1="9.712" x2="68.147" y2="76.017" gradientUnits="userSpaceOnUse"><stop stop-color="#1A1E21"/><stop offset="1" stop-color="#06060A"/></linearGradient></defs></svg>