<!-- by TradingView --><svg width="56" height="56" viewBox="0 0 56 56" xmlns="http://www.w3.org/2000/svg"><path fill="#57B9FF" d="M0 0h56v56H0z"/><path d="M27.68 12.1 17 18.56c.39.33.77 1.22.84 1.42L27 14.36v6.79c0 .36.48.84 1 .85.52 0 1-.5 1-.85v-6.79L38.18 20c.15-.44.67-1.26.82-1.41a487.65 487.65 0 0 0-10.55-6.49c-.4-.16-.68-.07-.77 0ZM27.68 43.9 17 37.44a4.4 4.4 0 0 0 .84-1.42L27 41.64v-6.79c0-.36.48-.84 1-.85.52 0 1 .5 1 .85v6.79L38.18 36c.15.44.67 1.26.82 1.41a487.65 487.65 0 0 1-10.55 6.49c-.4.16-.68.07-.77 0ZM13 32.5v-8.96c1.14.38 2.48.16 3 0v8.96a5.06 5.06 0 0 0-3 0ZM40 32.5v-8.96c1.14.38 2.48.16 3 0v8.96a5.06 5.06 0 0 0-3 0ZM26.04 28.98l-9.48-5.68a4.54 4.54 0 0 0 1.54-2.57l9.48 5.68a4.15 4.15 0 0 0-1.54 2.57ZM30.08 28.98l9.49-5.68a4.54 4.54 0 0 1-1.54-2.57l-9.49 5.68c1.12.9 1.5 2.09 1.54 2.57Z" fill="#BBE3FF"/><circle cx="41.5" cy="20.5" fill="#fff" r="2.5"/><circle cx="41.5" cy="35.5" fill="#fff" r="2.5"/><circle cx="14.5" cy="35.5" fill="#fff" r="2.5"/><circle cx="14.5" cy="20.5" fill="#fff" r="2.5"/><circle cx="27.98" cy="28.02" fill="#fff" r="2.5"/></svg>