<!-- by TradingView --><svg xmlns="http://www.w3.org/2000/svg" width="56" height="56"><path fill="url(#aqq10w52q)" d="M0 0h56v56H0z"/><path d="M16 22.03a3 3 0 015.12-2.13l8.47 8.49c.87.87.87 2.3 0 3.18a2.25 2.25 0 01-3.17-3.18l.5-.5-2.83-2.84-.5.5a6.27 6.27 0 000 8.85 6.23 6.23 0 008.82 0 6.27 6.27 0 000-8.85l-8.46-8.48A7 7 0 0012 22.03V37a4 4 0 004 4V22.03z" fill="#fff"/><path d="M44 22.03c0-6.25-7.85-9.38-12.44-4.96L29 19.54l2.94 2.83 2.57-2.47c1.96-1.9 5.33-.55 5.33 2.13V41H40a4 4 0 004-4V22.03z" fill="#4DA4D7"/><defs><linearGradient id="aqq10w52q" x1="10.42" y1="9.71" x2="68.15" y2="76.02" gradientUnits="userSpaceOnUse"><stop stop-color="#1A1E21"/><stop offset="1" stop-color="#06060A"/></linearGradient></defs></svg>