<!-- by TradingView --><svg width="56" height="56" fill="none" xmlns="http://www.w3.org/2000/svg"><path fill="url(#paint0_linear_1530)" d="M0 0h56v56H0z"/><path d="M43.004 22.733h-.002L38.2 17.867 43.002 13h.002v9.733z" fill="#FF86C0"/><path d="M43 32.865l-.002.003-4.802-4.87 4.802-4.866.002.002v9.731z" fill="#D93389"/><path d="M43 43h-.002l-4.802-4.867 4.802-4.866H43V43z" fill="#92278F"/><path d="M38.002 37.933H38v-9.731l.002-.003 4.805 4.867-4.805 4.867z" fill="#B41D8E"/><path d="M38.002 27.8L38 27.799v-9.73h.002l4.805 4.866-4.805 4.867z" fill="#EF59A1"/><path d="M38 37.932l-4.802-4.867L38 28.2v9.73z" fill="#92278F"/><path d="M38.002 27.798L33.2 22.934l4.802-4.867v9.731z" fill="#371466"/><path d="M37.835 28l.005.005-4.805 4.866-4.804-4.866.002-.005h9.602z" fill="#702C91"/><path d="M28.233 28l4.802-4.875L37.84 28h-9.607z" fill="#562988"/><path d="M28 37.933V28.2l4.804 4.866L28 37.933z" fill="#371466"/><path d="M28 37.933l-4.802-4.867L28 28.2v9.734z" fill="#272262"/><path d="M27.835 28l.002.005-4.804 4.866-4.802-4.866.002-.005h9.602z" fill="#1D3D88"/><path d="M18.233 28L23 23.125 27.837 28h-9.604z" fill="#252F77"/><path d="M18.002 37.933v-9.731l4.802 4.864-4.802 4.867z" fill="#084F9D"/><path d="M18.002 27.798v-9.73l4.802 4.866-4.802 4.864z" fill="#272262"/><path d="M18.002 37.933H18l-4.802-4.867L18 28.2l.002.003v9.73z" fill="#1B87C7"/><path d="M18.002 27.798l-.002.003-4.802-4.867L18 18.067h.002v9.731z" fill="#0CB699"/><path d="M13 43v-9.733l4.804 4.866L13 43z" fill="#0058A2"/><path d="M13 32.868v-9.736L17.804 28 13 32.868z" fill="#3BC3F3"/><path d="M13 22.733V13l4.804 4.867L13 22.733z" fill="#0FE9C4"/><defs><linearGradient id="paint0_linear_1530" x1="10.418" y1="9.712" x2="68.147" y2="76.017" gradientUnits="userSpaceOnUse"><stop stop-color="#1A1E21"/><stop offset="1" stop-color="#06060A"/></linearGradient></defs></svg>