<!-- by TradingView --><svg width="56" height="56" viewBox="0 0 56 56" xmlns="http://www.w3.org/2000/svg"><path fill="url(#ajx34uxif)" d="M0 0h56v56H0z"/><path d="M31 16c-1.66 0-3 1.38-3 3.08V28h-6v-5.99A2 2 0 0 0 20 20a2 2 0 0 0-2 2.01V28h-5v-2a2 2 0 1 0-4 0v2h4v3.23c0 1.53 1.12 2.77 2.5 2.77s2.5-1.24 2.5-2.77V28h4v8.87A3.07 3.07 0 0 0 25 40c1.66 0 3-1.4 3-3.13V28h6v7.03c0 1.09.9 1.97 2 1.97s2-.88 2-1.97V28h4v2a2 2 0 1 0 4 0v-2h-4v-6.28c0-.95-.9-1.72-2-1.72s-2 .77-2 1.72V28h-4v-8.92c0-1.7-1.34-3.08-3-3.08Z" fill="#fff"/><defs><linearGradient id="ajx34uxif" x1="28" y1="0" x2="28" y2="56" gradientUnits="userSpaceOnUse"><stop offset=".24" stop-color="#6F4AEF"/><stop offset=".66" stop-color="#01CBBF"/></linearGradient></defs></svg>