<!-- by TradingView --><svg width="56" height="56" xmlns="http://www.w3.org/2000/svg"><path fill="#D0B47A" d="M0 0h56v56H0z"/><path d="M40.048 22.856L37.76 12.6l-4.48 7.056a22.558 22.558 0 00-10.56 0L18.24 12.6l-2.288 10.256C13.504 24.824 12 27.4 12 30.216 12 36.392 19.168 41.4 28 41.4s16-5.008 16-11.2c0-2.8-1.504-5.376-3.952-7.344zM19.104 27h-1.056l2.592-3h1.904l-3.44 3zm8.8 7.888l-4.416-7.792 1.088-.624.992 1.528H30.4l1.04-1.544 1.072.64-4.592 7.792h-.016zM36.896 27l-3.44-3h1.92l2.592 3h-1.072zm-8.96 5.392L26.016 29h4.005l-2.085 3.392z" fill="#fff"/></svg>