<!-- by TradingView --><svg width="56" height="56" viewBox="0 0 56 56" xmlns="http://www.w3.org/2000/svg"><path fill="#F0F3FA" d="M0 0h56v56H0z"/><path d="M23.55 12.74a1.7 1.7 0 0 1 1.47-1.44c.7-.18 2.83-.47 5.63-.17.54.07 1.54.48 1.66 1.56 1.78.5 3.43 1.3 4.9 2.34.5-.3 1.44-.54 2.38.4.64.56 2.34 2.37 4.03 5.16.35.6.73 1.97-.4 2.71a15.85 15.85 0 0 1 .66 5.86c.55.27 1.25.87 1.1 1.85-.04.68-.43 2.6-1.62 4.89-.24.43-.96 1.1-2.07.85a15.97 15.97 0 0 1-2.55 2.97c.24.56.35 1.62-.69 2.33a19.3 19.3 0 0 1-5.4 2.7c-.6.17-1.88.2-2.45-1.03a16.08 16.08 0 0 1-2.97.13c-.5 1.22-1.86 1.24-2.52 1.08a23.02 23.02 0 0 1-6.1-2.52 1.92 1.92 0 0 1-.97-2.38c-.94-.82-1.8-1.74-2.53-2.75-1.27.35-2.11-.72-2.38-1.34a22.92 22.92 0 0 1-1.7-6.37c-.17-1.23.52-1.87 1.09-2.13.06-1.73.4-3.39.96-4.94-.87-.75-.58-1.88-.3-2.39a19.66 19.66 0 0 1 3.65-4.64c.82-.8 1.7-.6 2.2-.3a15.86 15.86 0 0 1 4.92-2.43Z"/><path d="M30.5 12.93a12.88 12.88 0 0 0-5.22.1l-.36 1.52 6.18-.12-.6-1.5ZM38.08 16.57l-1.28.54 4.34 6.25.86-1.59a14.67 14.67 0 0 0-3.92-5.2ZM41.8 34.86l-1.64.28 1.64-5.53 1.3 1.15a16.19 16.19 0 0 1-1.3 4.1ZM31.9 42.93l-1.37-1.1 6.43-3.32v2a14.75 14.75 0 0 1-5.06 2.42ZM25.45 43.14l1.15-1.2-7.28-3.26v1.93a15.19 15.19 0 0 0 6.13 2.53ZM14.66 35.4h1.57l-1.92-7.38-1.52 1.06c.33 3.42 1.39 5.64 1.87 6.32ZM14.31 21.15l.88 1.48 4.34-5.3-1.79-.57a13.72 13.72 0 0 0-3.43 4.39Z" fill="#D9B86C"/><ellipse cx="28" cy="27.94" rx="14.16" ry="14.14" fill="#EFDA8D"/><path d="M28 39.65c1.53 0 2.99-.3 4.33-.82 1.5.38 3.6-.32 5.31-1.92 2.17-2.04 2.93-4.78 1.78-6.26a11.73 11.73 0 0 0-.41-6.8c.23-1.46-.43-3.36-1.87-4.94-1.74-1.92-4.05-2.75-5.6-2.16a11.75 11.75 0 0 0-15.28 11.18c0 2.88 1.04 5.52 2.77 7.56a5.47 5.47 0 0 0 2.73 3.7c1.8 1.08 3.83 1.19 5.12.4.37.04.74.06 1.12.06Z" fill="#F4EEBE"/><ellipse cx="2.13" cy="4.35" rx="2.13" ry="4.35" transform="rotate(-43.5 39.02 -28.51) skewX(.1)" fill="#C29E58"/><path d="M31.54 18.92c1.01-.1 2.51.66 3.8 2a6.4 6.4 0 0 1 1.8 3.26c-1.02.1-2.52-.66-3.8-2a6.4 6.4 0 0 1-1.8-3.26Z" fill="#A07E41"/><ellipse cx="1.7" cy="3.46" rx="1.7" ry="3.46" transform="matrix(-.4452 .8948 -.89644 -.44444 27.2 37.14)" fill="#C29E58"/><path d="M26.34 37.54c-.73.35-2.06.2-3.38-.46a5.09 5.09 0 0 1-2.24-1.94c.73-.35 2.06-.2 3.38.46a5.1 5.1 0 0 1 2.24 1.94Z" fill="#A07E41"/><ellipse cx="3.33" cy="5.09" rx="3.33" ry="5.09" transform="matrix(.66733 .7447 -.7458 .66624 36.46 28.01)" fill="#C29E58"/><path d="M37.3 29.73c0 1.18-1 2.9-2.66 4.37-1.4 1.25-2.91 2.02-4.06 2.15-.48-1.26.35-3.27 2.1-4.82 1.55-1.4 3.39-2.03 4.62-1.7Z" fill="#A07E41"/><ellipse cx="23.39" cy="25.24" rx="5.48" ry="5.7" fill="#C29E58"/><path d="M23.4 30.94a5.6 5.6 0 0 0 5.47-5.7c0-1-.25-1.95-.69-2.78a5.3 5.3 0 0 0-1.28-.15 5.6 5.6 0 0 0-5.48 5.7c0 1 .25 1.95.7 2.78.4.1.83.15 1.27.15Z" fill="#A07E41"/></svg>