<!-- by TradingView --><svg xmlns="http://www.w3.org/2000/svg" width="56" height="56"><path fill="#0E122E" d="M0 0h56v56H0z"/><path d="M41.9 27.7a14 14 0 10-27.75.33A11.3 11.3 0 0121.7 25a14 14 0 017.98 2.67 10 10 0 006.88 1.98c2.45-.29 4.3-1.24 5.33-1.96z" fill="#F2B705"/><path d="M17 33c0-.47.45-1 1-1s1 .53 1 1v4.98c0 .47-.45 1.02-1 1.02s-1-.55-1-1.02V33zm9-1c0-.46.45-1 1-1s1 .54 1 1v5c0 .46-.45 1-1 1s-1-.54-1-1v-5zm3 2c0-.43.45-1 1-1s1 .57 1 1v1c0 .43-.45 1-1 1s-1-.57-1-1v-1zm9 1c0-.51.45-1 1-1s1 .49 1 1v3c0 .51-.45 1-1 1s-1-.49-1-1v-3zm-18-3c0-.45.45-1 1-1s1 .55 1 1v7.05c0 .45-.45.95-1 .95s-1-.5-1-.95V32zm12 3c0-.5.45-1 1-1s1 .5 1 1v8c0 .5-.45 1-1 1s-1-.5-1-1v-8zm3 1c0-.46.45-1 1-1s1 .54 1 1v6c0 .46-.45 1-1 1s-1-.54-1-1v-6zm-12-5c0-.47.45-1 1-1s1 .53 1 1v14c0 .47-.45 1-1 1s-1-.53-1-1V31z" fill="#52CAC7"/><path d="M22.66 28.8a9.8 9.8 0 00-7.17 2.54.91.91 0 01-1.27-.1.87.87 0 01.1-1.24 11.6 11.6 0 0113.3-1.6 12.13 12.13 0 011.81 1.26l.5.37c1.18.8 3.14 1.7 5.5 1.72 2.26.02 4.23-1.26 5.13-1.92.4-.3.96-.22 1.26.17.3.39.22.94-.18 1.24-.94.7-3.33 2.3-6.23 2.28-2.8-.03-5.12-1.1-6.5-2.03l-.67-.5-.3-.24a9.37 9.37 0 00-5.28-1.96z" fill="#52CAC7"/></svg>