<!-- by TradingView --><svg width="56" height="56" viewBox="0 0 56 56" xmlns="http://www.w3.org/2000/svg"><path fill="#F0F3FA" d="M0 0h56v56H0z"/><path d="M28 14c9.37 0 17 3.14 17 7 0 3.64-6.42 6.64-15 7v-1.2c.08-3.36.61-3.3 3.4-4.72 1.59-.52 2.6-1.3 2.6-2.2 0-1.57-3.35-2.85-7.5-2.85S21 18.31 21 19.9c0 .64.53 1.22 1.46 1.7 2.89 1.66 4.54 1.22 4.54 5.3V28c-9.06-.14-16-3.22-16-7 0-3.86 7.6-7 17-7Z" fill="#FF7900"/><path d="M44.13 26c.56.66.87 1.37.87 2.09 0 2.11-2.08 3.67-6 4.91v-2.9c0-.8.11-.76.87-1.06A10.6 10.6 0 0 0 44.13 26ZM36 34c-2.41.53-5.07 1-8.01 1C18.62 35 11 31.79 11 28.11c0-.74.3-1.45.87-2.08 2.16 2.56 7.93 4.44 15.13 4.57v.9c0 .66.5 1.5 1.41 1.5.91 0 1.59-.87 1.59-1.5v-.93a34.08 34.08 0 0 0 5.34-.57c.37 0 .66.32.66.68V34Z" fill="#FF7900"/><path d="M44.05 33c.61.7.95 1.47.95 2.25C45 38.97 37.4 42 28 42c-9.37 0-17-3.03-17-6.75 0-.78.38-1.55 1-2.25 2.33 2.63 8.57 4 15.97 4 2.95 0 6.03 0 8.03-.33v.86c0 .67.52 1.47 1.52 1.47S39 38.14 39 37.5V36c2.52-.78 3.98-1.8 5.05-3Z" fill="#FF7900"/></svg>