<!-- by TradingView --><svg width="56" height="56" xmlns="http://www.w3.org/2000/svg"><path fill="url(#paint0_linear)" d="M0 0h56v56H0z"/><path d="M32.934 16.077C31.708 12.48 29.292 12 28.05 12c-2.992 0-4.623 2.416-5.13 3.78l-1.493 2.41c-.651 1.544-4.428 4.329-5.332 4.554-.903.226-4.15 1.776-4.094 5.271.045 2.796 2.27 4.147 3.376 4.473 1.007.53 2.254 1.364 3.212 2.032 1.096.762 4.357 4.537 4.696 5.682.34 1.145 1.652 3.773 4.952 3.798 2.998.023 4.396-2.437 4.9-3.668l1.481-2.492c2.085-3.018 5.758-4.858 7.291-5.65.708-.365 2.116-1.712 2.09-4.179-.025-2.467-1.73-3.761-2.58-4.1-2.317-1.112-7.26-4.235-8.485-7.834z" fill="#fff"/><path d="M31.206 18.747c-1.198-2.813-1.996-3.56-3.121-3.56-2.384 0-3.386 3.186-3.791 4.285-1.834 3.058-4.816 4.815-5.564 5.115-.69.276-3.474 1.24-3.438 3.491.03 1.87 2.372 2.83 3.254 3.093.803.426 1.801.94 2.565 1.476.873.614 3.708 3.956 3.978 4.877.27.922 1.287 3.42 3.146 3.42 1.858 0 2.747-2.61 3.148-3.6l1.353-2.1c1.525-2.428 4.464-3.808 5.686-4.445.564-.294 2.394-1.078 2.377-2.724-.017-1.646-1.435-2.165-2.112-2.438-1.848-.895-6.182-3.841-7.48-6.89z" fill="url(#paint1_linear)"/><path d="M15.513 34.8c.13-.392.553-1.323.672-2l2.4 1.676c-.088.149-.844 1.5.549 2.809 1.393 1.309 3.872.29 4.937-.384a24.38 24.38 0 013.95-.521c1.64-.067 4.014.499 4.997.79.841.536 2.833 1.286 4.07 0 1.235-1.285.545-2.27.545-2.44l2.396-1.59c0 .16.181.874.403 1.301.434.85.84 3.026-1.01 4.937-1.851 1.91-4.21 1.68-5.159 1.327l-3.91-1.074c-3.455-.227-5.329 0-7.307.7-1.978.7-3.881 1.125-6.21-.7-1.862-1.459-1.658-3.828-1.323-4.83zM16.635 25.61c.204 2.188.085 4.141 0 4.698l2.718 1.599c1.01-3.25.275-7.142-.22-8.683-.58-.913-1.392-3.067 0-4.376 1.394-1.309 3.873-.29 4.938.383a24.38 24.38 0 003.95.522c1.64.067 4.014-.5 4.997-.79.841-.537 2.833-1.287 4.07 0 1.235 1.285.262 4.088-.378 5.33-.888 3.988-.22 6.898.226 7.854l2.486-1.368c-.364-2.97.026-5.562.266-6.487.063-1.054.523-2.173.744-2.6.434-.85.84-3.026-1.01-4.937-1.851-1.911-4.21-1.681-5.159-1.327l-3.91 1.073c-3.455.227-5.329 0-7.307-.7-1.978-.7-3.881-1.124-6.21.7-1.862 1.46-1.658 3.829-1.323 4.83.289.515.919 2.091 1.122 4.279z" fill="#fff"/><defs><linearGradient id="paint0_linear" x1="28" y1="0" x2="28" y2="56" gradientUnits="userSpaceOnUse"><stop stop-color="#5ABED7"/><stop offset="1" stop-color="#171B6F"/></linearGradient><linearGradient id="paint1_linear" x1="28.046" y1="15.188" x2="28.046" y2="40.945" gradientUnits="userSpaceOnUse"><stop stop-color="#4791BA"/><stop offset="1" stop-color="#29478B"/></linearGradient></defs></svg>