<!-- by TradingView --><svg width="56" height="56" xmlns="http://www.w3.org/2000/svg"><path fill="url(#paint0_linear)" d="M0 0h56v56H0z"/><path d="M19.998 12L27 14.965v.58l-5.715 2.61-1.287-.3v21.836l1.137-.363 5.798 1.707v.576L19.708 44 14 41.376V15.755L19.998 12zM36 12l-7.002 2.965v.58l5.714 2.61 1.287-.3v21.836l-1.137-.363-5.798 1.707v.576L36.29 44l5.709-2.624V15.755L35.999 12z" fill="#fff"/><path d="M15 16.28l4-2.421v28.747l-4-1.829V16.28zM40.998 16.28l-4-2.421v28.747l4-1.829V16.28zM20 43.026v-2.464l1.206-.429 4.079 1.179L20 43.026zM35.998 43.026v-2.464l-1.206-.429-4.079 1.179 5.285 1.714zM20 16.915v-3.877l5.515 2.238-4.494 1.944L20 16.915zM35.998 16.915v-3.877l-5.516 2.238 4.495 1.945 1.02-.306z" fill="#15181B"/><defs><linearGradient id="paint0_linear" x1="10.418" y1="9.712" x2="68.147" y2="76.017" gradientUnits="userSpaceOnUse"><stop stop-color="#1A1E21"/><stop offset="1" stop-color="#06060A"/></linearGradient></defs></svg>