<!-- by TradingView --><svg width="56" height="56" viewBox="0 0 56 56" xmlns="http://www.w3.org/2000/svg"><path fill="#3D3D3D" d="M0 0h56v56H0z"/><path d="M17.75 13.5 28.5 24.06c3.61-3.62 7.25-6.8 10.73-10.54a1.57 1.57 0 0 1 1.76-.39c.61.26 1.01.83 1.01 1.51v5.96c-4.26 4.43-8.33 8.56-12.52 12.99a1.34 1.34 0 0 1-1.96 0L22 27.56v13.07c0 .76-.75 1.37-1.5 1.37h-4c-.75 0-1.5-.63-1.5-1.4V39h-1.64c-.75 0-1.36-.63-1.36-1.4v-4.2c0-.77.61-1.4 1.36-1.4H15v-4h-1.64c-.75 0-1.36-.63-1.36-1.4v-4.2c0-.77.61-1.4 1.36-1.4H15v-6.36c0-.68.38-1.27 1.01-1.5.2-.1.41-.14.62-.14.42 0 .82.18 1.12.5ZM35.48 31.17l3.98-3.76a1.48 1.48 0 0 1 1.63-.28c.57.23.91.76.91 1.37v12c0 .82-.67 1.5-1.51 1.5h-3.98A1.5 1.5 0 0 1 35 40.5v-8.24c.02-.43.17-.8.48-1.09Z" fill="#24DDD8"/></svg>