<!-- by TradingView --><svg width="56" height="56" xmlns="http://www.w3.org/2000/svg"><path fill="#E61F18" d="M0 0h56v56H0z"/><path d="M8.13 22L6 34h2.012l1.728-9.462L9.858 34h2.106l3.598-9.615L13.716 34h2.107L18 22h-3.053l-3.527 9.103L11.254 22H8.13zM18.119 30.733L19.265 25h1.982l-.955 5.224c-.132.686-.115 1.692.955 1.733 1.07.04 1.58-.946 1.744-1.733L23.994 25H26l-1.72 8.995h-1.862l.239-1.427c-.918 1.244-2.086 1.47-2.556 1.427-2.235-.04-2.253-2.191-1.982-3.261zM30.463 25c2.394-.023 2.663 2.05 2.498 3H31.14c.003-.868-.547-1.348-1.093-1.348-.547 0-1.17.178-1.17.769 0 .74 1.014.883 2.133 1.225 1.118.341 1.587 1.224 1.587 2.022 0 .857-.587 3.332-3.72 3.332-2.543 0-2.967-1.946-2.863-3h1.9c.103.769.443 1.204 1.3 1.263.833.057 1.38-.317 1.38-.883 0-.567-.86-.855-2.238-1.14-1.38-.284-1.62-1.491-1.62-2.196 0-.785.735-3.015 3.727-3.044zM33 34l2.038-11h1.908l-1.093 5.825L38.554 26H41l-3.067 2.982L39.649 34h-2.317l-1.072-3.473-.944.919L34.78 34H33zM50 26h-5v1h3.304l-5.259 5.268.579.634 5.373-5.223V31H50v-5z" fill="#fff"/></svg>