<!-- by TradingView --><svg width="56" height="56" viewBox="0 0 56 56" xmlns="http://www.w3.org/2000/svg"><path fill="#F0F3FA" d="M0 0h56v56H0z"/><path d="M17.87 17.3a4.46 4.46 0 0 1 7.81 0L37.95 39h-24.3c-3.57 0-5.8-3.95-4.02-7.11l8.24-14.59Z" fill="#1977F3"/><path d="M38.13 17.3a4.46 4.46 0 0 0-7.81 0l-8.7 15.4c-1.59 2.8.39 6.3 3.55 6.3h17.18c3.57 0 5.8-3.95 4.02-7.11L38.13 17.3Z" fill="#002F81"/><path d="M25.17 39h12.78L28 21.4l-6.39 11.3c-1.58 2.8.4 6.3 3.56 6.3Z" fill="url(#aotvausfw)"/><defs><linearGradient id="aotvausfw" x1="21.73" y1="35.4" x2="41.06" y2="35.4" gradientUnits="userSpaceOnUse"><stop offset=".12" stop-color="#1C6AD9"/><stop offset=".76" stop-color="#1C6AD9" stop-opacity="0"/></linearGradient></defs></svg>