<!-- by TradingView --><svg width="56" height="56" viewBox="0 0 56 56" xmlns="http://www.w3.org/2000/svg"><path fill="url(#a03vk0cf5)" d="M0 0h56v56H0z"/><path d="M37 20.25A1.35 1.35 0 0 1 38.3 19h3.87a.84.84 0 0 0 .83-.83v-4.34a.84.84 0 0 0-.83-.83h-4.34a.83.83 0 0 0-.83.83v3.87a1.38 1.38 0 0 1-1.17 1.3h-4a.83.83 0 0 0-.83.83v3.87a1.38 1.38 0 0 1-1.17 1.3h-3.66A1.37 1.37 0 0 1 25 23.83v-4a.83.83 0 0 0-.84-.82h-4A1.37 1.37 0 0 1 19 17.84v-4a.83.83 0 0 0-.83-.83h-4.34a.83.83 0 0 0-.83.83v4.34a.83.83 0 0 0 .83.83h3.86c.36.02.7.19.96.46a1.43 1.43 0 0 1 .33 1.05H19v3.19c-.02.33-.15.64-.37.88-.22.23-.5.37-.8.42h-4a.83.83 0 0 0-.83.83v16.33a.83.83 0 0 0 .83.83h4.34a.83.83 0 0 0 .83-.83V26.25c.02-.3.14-.57.33-.8.25-.26.6-.43.96-.45h3.4a1.36 1.36 0 0 1 1.3 1.51v-.01 3.67a.83.83 0 0 0 .84.83h4.33a.83.83 0 0 0 .83-.83v-3.92c.03-.3.14-.57.34-.8.25-.26.59-.43.96-.45h3.4c.36.02.7.19.95.46a1.43 1.43 0 0 1 .34 1.05l.02-.01v15.67a.83.83 0 0 0 .82.83h4.34a.83.83 0 0 0 .83-.83V25.83a.83.83 0 0 0-.83-.83h-4A1.37 1.37 0 0 1 37 23.83v-3.58Z" fill="#fff"/><defs><linearGradient id="a03vk0cf5" x1="8.4" y1="8.12" x2="48.13" y2="48.03" gradientUnits="userSpaceOnUse"><stop stop-color="#3538E0"/><stop offset="1" stop-color="#DB1E83"/></linearGradient></defs></svg>