<!-- by TradingView --><svg width="56" height="56" viewBox="0 0 56 56" xmlns="http://www.w3.org/2000/svg"><path fill="url(#aamh4xnf5)" d="M0 0h56v56H0z"/><path d="m23.24 31.86 4.58 9.28 2.35-6.94-6.92-2.34Zm-8.36-4.03 6.93 2.36 2.35-6.94-9.28 4.58Zm8.77 2.95c.1.06.15.1.2.1 2.24.77 4.47 1.53 6.7 2.27.19.06.45.01.63-.08 2.56-1.24 5.11-2.5 7.67-3.77l2.24-1.12-.36-.13c-2.16-.74-4.32-1.48-6.5-2.2a1.02 1.02 0 0 0-.69.05c-2.72 1.32-5.43 2.67-8.15 4.01l-1.74.87Zm9.45-5.91-4.93-10-5.06 14.93 10-4.93ZM12 28l4.6-2.27c2.55-1.26 5.11-2.53 7.67-3.78a.95.95 0 0 0 .53-.6c1-2.99 2.02-5.97 3.03-8.95l.15-.4.25.48c1.96 3.97 3.91 7.94 5.88 11.9.1.2.35.35.57.43 2.96 1.02 5.93 2.02 8.9 3.03L44 28l-.68.35-11.47 5.65a1.28 1.28 0 0 0-.72.82c-.99 2.96-2 5.9-3 8.86L28 44l-.7-1.4-5.33-10.84a1.05 1.05 0 0 0-.66-.58l-8.9-3.02L12 28Z" fill="#fff"/><defs><linearGradient id="aamh4xnf5" x1="10.42" y1="9.71" x2="68.15" y2="76.02" gradientUnits="userSpaceOnUse"><stop stop-color="#1A1E21"/><stop offset="1" stop-color="#06060A"/></linearGradient></defs></svg>