<!-- by TradingView --><svg width="56" height="56" xmlns="http://www.w3.org/2000/svg"><path fill="#121E3E" d="M0 0h56v56H0z"/><path d="M34.553 20.447A9.959 9.959 0 0029 18.049v6.077c.466.12.9.322 1.284.59l4.27-4.27zm-2.961 5.79l5.32-5.32L40 18h11l-8.438 9H31.874a3.977 3.977 0 00-.282-.763zm-.38 4.147c.304-.409.531-.877.662-1.384h8.814l-4.684 4.996c-.168.224-.345.44-.53.649l-4.262-4.261zM29 31.874a3.97 3.97 0 00.646-.227L34 36a9.948 9.948 0 01-5 1.95v-6.076zm-2.763-.282c.242.118.497.213.763.282v6.077a9.95 9.95 0 01-5.098-2.025l4.335-4.335zM24.126 29c.12.466.322.9.59 1.284l-4.27 4.27L17 38H5l8.438-9h10.688zm.227-2.646a3.97 3.97 0 00-.227.646h-8.814l4.684-4.996L20 22l4.354 4.354zM27 24.125c-.507.13-.976.358-1.384.662l-4.26-4.261A9.96 9.96 0 0127 18.049v6.077z" fill="#D19955"/></svg>