<!-- by TradingView --><svg width="56" height="56" xmlns="http://www.w3.org/2000/svg"><path fill="#2E4D5E" d="M0 0h56v56H0z"/><path fill-rule="evenodd" d="M30.882 11.053a.5.5 0 01.436.022l5.437 2.987a.505.505 0 01.047.03l2.963 2.084a.5.5 0 01.159.184l3.4 6.776c.06.086.092.189.091.294a.5.5 0 01-.822.389l-6.765-3.611a.502.502 0 01-.079-.052l-6.822-3.93 2.543 3.232a.5.5 0 11-.786.618l-3.613-4.591-1.821 4.47a.5.5 0 01-.927-.377l1.75-4.294-8.195 2.492 2.685 1.558a.5.5 0 01-.502.865l-3.123-1.812-3.713 13.003 7.34 4.87a.5.5 0 01.195.253l2.012 5.81 1.693-5.787a.5.5 0 01.791-.251l6.084 4.833-.78-4.354a.5.5 0 01.985-.176l.91 5.09 5.986-1.965-2.74-2.68a.5.5 0 11.7-.714l2.853 2.79 3.684-6.851a.5.5 0 11.88.473l-3.947 7.341a.499.499 0 01-.215.284l-7.632 4.742a.5.5 0 01-.303.074l-8.949-.707a.5.5 0 01-.252-.092l-7.107-5.096A.498.498 0 0115.22 39l-3.038-7.201a.5.5 0 01-.038-.218l.487-10.204a.5.5 0 01.133-.317l3.502-3.768 3.862-4.156a.5.5 0 01.276-.152l10.477-1.931zm-1.925 1.372L23.45 13.44l3.357.534 2.15-1.55zM28.481 14h6.085l-3.453-1.896L28.481 14zm7.489 1h-7.168l6.831 3.935L35.97 15zm.62 4.48l5.164 2.758-2.667-5.317-2.148-1.511-.35 4.07zM24.71 14.654l-6.45 1.961 2.419-2.602 4.031.641zM15.58 19.5l-1.958 2.107-.272 5.704 2.23-7.81zm-1.83 13.438l2.211 5.244 3.315-1.578-5.527-3.666zm6.248 4.43l-3.324 1.582 5.15 3.694-1.826-5.276zm6.763 6.409l4.565.36.155-1.193-4.72.833zm5.759-1.067l-.128.982 3.203-1.99-3.075 1.008zm-1.636-.677l-5.668-4.503-1.698 5.804 7.366-1.3z" fill="#249BD5"/><path fill-rule="evenodd" d="M24.55 20h-4.538L20 37h5v-8.052L30.93 37H36V20h-5v7.967L24.55 20zM32 21v6.967a1 1 0 01-1.777.63L24.073 21h-3.061L21 36H24v-7.052a1 1 0 011.805-.593L31.435 36H35V21h-3z" fill="#fff"/><path d="M31.526 21.532a1 1 0 100-2 1 1 0 000 2z" fill="#2E4D5E"/><path d="M31.526 20.032a.5.5 0 100 1 .5.5 0 000-1zm-1.5.5a1.5 1.5 0 113 0 1.5 1.5 0 01-3 0z" fill="#fff"/><path d="M20.593 21.532a1 1 0 100-2 1 1 0 000 2z" fill="#2E4D5E"/><path d="M20.593 20.032a.5.5 0 100 1 .5.5 0 000-1zm-1.5.5a1.5 1.5 0 113 0 1.5 1.5 0 01-3 0z" fill="#fff"/><path d="M20.509 37.403a1 1 0 100-2 1 1 0 000 2z" fill="#2E4D5E"/><path d="M20.509 35.903a.5.5 0 100 1 .5.5 0 000-1zm-1.5.5a1.5 1.5 0 113 0 1.5 1.5 0 01-3 0z" fill="#fff"/><path d="M31.526 37.485a1 1 0 100-2 1 1 0 000 2z" fill="#2E4D5E"/><path d="M31.526 35.985a.5.5 0 100 1 .5.5 0 000-1zm-1.5.5a1.5 1.5 0 113 0 1.5 1.5 0 01-3 0z" fill="#fff"/><path d="M35.51 21.532a1 1 0 100-2 1 1 0 000 2z" fill="#2E4D5E"/><path d="M35.51 20.032a.5.5 0 100 1 .5.5 0 000-1zm-1.5.5a1.5 1.5 0 113 0 1.5 1.5 0 01-3 0z" fill="#fff"/><path d="M24.578 21.532a1 1 0 100-2 1 1 0 000 2z" fill="#2E4D5E"/><path d="M24.578 20.032a.5.5 0 100 1 .5.5 0 000-1zm-1.5.5a1.5 1.5 0 113 0 1.5 1.5 0 01-3 0z" fill="#fff"/><path d="M24.493 37.403a1 1 0 100-2 1 1 0 000 2z" fill="#2E4D5E"/><path d="M24.493 35.903a.5.5 0 100 1 .5.5 0 000-1zm-1.5.5a1.5 1.5 0 113 0 1.5 1.5 0 01-3 0z" fill="#fff"/><path d="M35.51 37.485a1 1 0 100-2 1 1 0 000 2z" fill="#2E4D5E"/><path d="M35.51 35.985a.5.5 0 100 1 .5.5 0 000-1zm-1.5.5a1.5 1.5 0 113 0 1.5 1.5 0 01-3 0z" fill="#fff"/></svg>