<!-- by TradingView --><svg width="56" height="56" xmlns="http://www.w3.org/2000/svg"><path fill="#8500FF" d="M0 0h56v56H0z"/><path d="M15.285 20h17.087C34.86 20 37 22.54 37 25s-2.14 5-4.628 5h-9.455c-.709 0-1.34.3-1.34 1s.632 1 1.34 1h8.999C35.822 32 39 28.86 39 25s-3.178-7-7.084-7h-16.63c-.71 0-1.286.3-1.286 1s.576 1 1.285 1z" fill="#fff"/><path d="M31.484 13h-6.21c-.682 0-1.274.33-1.274.996 0 .666.592 1.004 1.274 1.004h6.21C37.02 15 42 19.814 42 25.22 42 30.625 37.02 35 31.484 35H15.71c-.682 0-1.237.334-1.237 1 0 .666.554 1 1.237 1h15.773C38.385 37 44 31.957 44 25.22 44 18.482 38.385 13 31.484 13z" fill="#fff"/><path d="M24 25c0-.666-.435-1-1.118-1h-2.74C19.46 24 19 24.334 19 25c0 .67.496 1 .949 1h2.794C23.61 26 24 25.71 24 25zm-3.23 16h-7.533c-.682 0-1.237.334-1.237 1 0 .666.555 1 1.237 1h7.533c.682 0 1.23-.334 1.23-1 0-.666-.548-1-1.23-1z" fill="#fff"/></svg>