<!-- by TradingView --><svg width="56" height="56" xmlns="http://www.w3.org/2000/svg"><path fill="url(#paint0_linear)" d="M0 0h56v56H0z"/><path fill-rule="evenodd" d="M29.48 11.838a3 3 0 00-2.959 0l-12 6.8A3 3 0 0013 21.248v13.504a3 3 0 001.521 2.61l12 6.8a3 3 0 002.958 0l12-6.8A3 3 0 0043 34.752V21.248a3 3 0 00-1.52-2.61l-12-6.8zM37 23l-9-5-9 5v10l9 5 9-5V23z" fill="#fff"/><path d="M28 28l7-4v7.79l-7 4V28z" fill="#fff"/><defs><linearGradient id="paint0_linear" x1="4.115" y1="15.929" x2="47.87" y2="47.315" gradientUnits="userSpaceOnUse"><stop stop-color="#7E4AC8"/><stop offset="1" stop-color="#0ADFD4"/></linearGradient></defs></svg>