<!-- by TradingView --><svg width="56" height="56" xmlns="http://www.w3.org/2000/svg"><path fill="url(#paint0_linear)" d="M0 0h56v56H0z"/><path d="M40.663 24.116C42.075 17.413 38.959 14 33.079 14c-3.531 0-6.468 1.295-9.12 3.704l.513-2.337S23.53 15 21.647 15c-2.057 0-3.06.367-3.06.367L13 41.591s.824.409 2.88.409c1.884 0 3-.409 3-.409l4.076-19.06C25.013 20.175 27.747 19 30.337 19c3.767 0 5.146 1.647 4.446 4.942l-3.785 17.65s.88.408 2.88.408c1.94 0 3-.409 3-.409l3.785-17.475z" fill="#fff"/><defs><linearGradient id="paint0_linear" x1="10.418" y1="9.712" x2="68.147" y2="76.017" gradientUnits="userSpaceOnUse"><stop stop-color="#1A1E21"/><stop offset="1" stop-color="#06060A"/></linearGradient></defs></svg>