<!-- by TradingView --><svg width="56" height="56" viewBox="0 0 56 56" xmlns="http://www.w3.org/2000/svg"><path fill="url(#a)" d="M0 0h56v56H0z"/><path d="m27.36 28.65-2.33-2.4-.14-.13-.1-.07-.07-.02h-.07l-.05.01-.05.03-.05.04-.05.05-.03.06-.02.05v.11l.05.1 3.01 5.03.08.15.04.12v.07l-.01.06-.04.08-.05.08-.08.07-.08.05-.08.02-.08.01h-.07l-.06-.03-.06-.04-.06-.06-.15-.2-4.17-6.3-.1-.14-.08-.07-.05-.02-.06-.02h-.05l-.05.02-.1.05-.06.06-.04.07-.02.05v.12l.03.07 3.15 8.86.06.23.01.08v.07l-.03.08-.05.08-.07.07-.08.05-.08.03-.1.02h-.08l-.08-.04-.05-.03-.08-.1-.08-.15-4.04-8.99-.07-.13-.07-.08-.05-.03-.06-.02h-.13l-.07.03-.06.04-.04.05-.03.05-.01.03-.01.1.01.14 1.88 10.84.02.2v.14l-.02.08-.04.07-.07.07-.1.06-.18.08-.17.03H21l-.06-.02-.06-.03-.06-.05-.03-.05-.03-.06-.04-.18-.01-.05-2.15-10.01-.06-.2-.03-.07-.03-.04-.05-.04-.06-.02h-.14l-.06.01-.06.03-.05.04-.04.06-.02.05-.02.07v.1l.12 11.06v.2l-.02.08-.03.07-.06.07-.08.06-.08.04-.13.02-.37.06-.18.01-.08-.01-.07-.03-.06-.03-.06-.04-.07-.1-.02-.06-.02-.08-.02-.22-.23-9.89v-.08l-.02-.07-.03-.05-.03-.05-.04-.03-.05-.03-.12-.02h-.09l-.07.03-.05.05-.04.07-.04.08-.03.12-1.91 9.84-.06.2-.03.08-.04.05-.06.04-.07.04-.08.02h-.19l-.6-.11-.56-.14-.12-.05-.05-.03-.03-.04-.04-.07-.03-.09v-.15l.03-.2 3.68-18.2.07-.3.11-.27.08-.17.1-.16.11-.15.13-.15.17-.17.18-.16.2-.13.2-.12.15-.07.15-.06.16-.05.16-.04.17-.03.16-.02h.33l.17.02.16.02.17.04.16.05.16.06.15.07.15.08.15.09.13.1.16.13.43.43 8.31 8.56 2.33 2.4.14.13.1.07.07.02h.07l.05-.01.05-.03.05-.04.05-.05.03-.06.02-.05v-.11l-.05-.1-3.01-5.03-.08-.15-.04-.12v-.07l.01-.06.04-.08.05-.08.08-.07.08-.05.08-.02.08-.01h.07l.06.03.06.04.06.06.15.2 4.17 6.3.1.14.08.07.05.02.06.02h.05l.05-.02.1-.05.06-.06.04-.07.02-.05v-.12l-.03-.07-3.15-8.86-.06-.23-.01-.08v-.07l.03-.08.05-.08.07-.07.08-.05.08-.03.1-.02h.08l.08.04.05.03.08.1.08.15 4.04 8.99.07.13.07.08.05.03.06.02h.13l.07-.03.06-.04.04-.05.03-.05.01-.03.01-.1-.01-.14-1.88-10.84-.02-.2v-.14l.02-.08.04-.07.07-.07.1-.06.18-.08.17-.03H35l.06.02.06.03.06.05.03.05.03.06.04.18.01.05 2.15 10.01.06.2.03.07.03.04.05.04.06.02h.14l.06-.01.06-.03.05-.04.04-.06.02-.05.02-.07v-.1l-.12-11.06v-.2l.02-.08.03-.07.06-.07.08-.06.08-.04.13-.02.37-.06.18-.01.08.01.07.03.06.03.06.04.07.1.02.06.02.08.02.22.23 9.89v.08l.02.07.03.05.03.05.04.03.05.03.12.02h.09l.07-.03.05-.05.04-.07.04-.08.03-.12 1.91-9.84.06-.2.03-.08.04-.05.06-.04.07-.04.08-.02h.19l.6.11.56.14.12.05.05.03.03.04.04.07.03.09v.15l-.03.2-3.68 18.2-.07.3-.11.27-.08.17-.1.16-.11.15-.13.15-.17.17-.18.16-.2.13-.2.12-.15.07-.15.06-.16.05-.16.04-.17.03-.16.02h-.33l-.17-.02-.16-.02-.17-.04-.16-.05-.16-.06-.15-.07-.15-.08-.15-.09-.13-.1-.16-.13-.43-.43-8.31-8.56Z" fill="#E1D8C7"/><defs><linearGradient id="a" x1="10.42" y1="9.71" x2="68.15" y2="76.02" gradientUnits="userSpaceOnUse"><stop stop-color="#1A1E21"/><stop offset="1" stop-color="#06060A"/></linearGradient></defs></svg>