<!-- by TradingView --><svg xmlns="http://www.w3.org/2000/svg" width="56" height="56"><path fill="#F0F3FA" d="M0 0h56v56H0z"/><path d="M28 11a12 12 0 0112 12v19H16V23a12 12 0 0112-12zm0-1c-7.02 0-13 5.64-13 12.6V43h26V22.6C41 15.66 35 10 28 10z" fill="#070001"/><path d="M35.77 15.2l-.6-.6A10.8 10.8 0 0028 12c-2.93 0-5.74 1.12-7.77 3.2A10.74 10.74 0 0017 22.89V41h22V22.95c0-2.96-1.2-5.68-3.23-7.75zm-3.4 24.68c-1.02.35-2.16.53-3.3.53H21V36.8c-.18-.18-.23-.42-.35-.6A10.18 10.18 0 0118.5 30v-6.81a10.5 10.5 0 012.86-7.1 14.26 14.26 0 017.35 2.37c1.92 1.3 4.29 3.66 4.29 7.5V39.7l-.64.18z" fill="#070001"/><path d="M29.06 17.37a17.4 17.4 0 00-7.34-2.49c-.34 0-.67-.06-.94-.06a10.98 10.98 0 00-3.17 7.64v7.33c0 2.42.81 4.78 2.36 6.69.2.19.34.44.54.63V41h8.95a12.14 12.14 0 004.45-.83V25.4c-.07-4.14-2.7-6.62-4.85-8.02zM20.92 40v-2.19A14.75 14.75 0 0024.4 40h-3.48zM33 39.4c-.9.34-2.33.6-3.6.6-2.97 0-5.73-.78-7.88-2.82l-.4-.38a4.87 4.87 0 01-.75-.9c-1.41-1.78-1.9-3.95-1.9-6.18v-7.26c0-2.55.76-5.03 2.5-6.94C25.7 15.7 33 18.77 33 25.39v14.02z" fill="#070001"/><path d="M25.54 31.29c-.18 0-.54-.18-.54-.37V24.7a3.1 3.1 0 013.06-2.99 2.94 2.94 0 012.87 2.99c0 .18-.18.37-.36.37-.17 0-.35-.19-.35-.37 0-1.22-1-2.26-2.16-2.26a2.3 2.3 0 00-2.23 2.26V31c0 .18-.12.29-.3.29z" fill="#070001"/><path d="M29.65 27.03c-.2 0-.4-.2-.4-.41 0-.48-.32-.82-.77-.82-.46 0-.78.34-.78.82 0 .2-.2.41-.4.41-.19 0-.38-.2-.38-.41 0-.96.71-1.72 1.62-1.72.91 0 1.63.76 1.63 1.72-.13.2-.33.41-.52.41zm-4.11 4.68a1.95 1.95 0 01-1.93-1.92c0-.18.17-.35.35-.35.17 0 .35.17.35.35a1.17 1.17 0 002.34 0c0-.18.18-.35.35-.35.18 0 .35.17.35.35a1.81 1.81 0 01-1.81 1.92zm-2.42-3.74l-1.86-1.7v1.45c0 .19-.2.38-.39.38-.2 0-.45-.2-.45-.44v-2.34c0-.33.45-.56.71-.31L23 26.7v-1c0-.2.19-.39.38-.39.2 0 .4.2.4.38v1.96c0 .34-.4.56-.66.31zm2.36-2.15c-.18 0-.35-.17-.35-.35 0-.05 0-1.51-1-1.51-.17 0-.35-.18-.35-.35 0-.18.18-.35.35-.35 1.35 0 1.7 1.46 1.7 2.21 0 .18-.17.35-.35.35z" fill="#070001"/></svg>