<!-- by TradingView --><svg width="56" height="56" viewBox="0 0 56 56" xmlns="http://www.w3.org/2000/svg"><path fill="#24397D" d="M0 0h56v56H0z"/><path d="M18.37 21.36c2.71-2.34 9.44-5.2 14.66 2.13-2.8 2.37-9.68 5.27-14.66-2.13ZM22.5 43.96c-2.36-2.7-5.3-9.44 1.87-14.84 2.4 2.8 5.38 9.7-1.87 14.84ZM28.54 33.94c.27-3.6 3-10.42 11.83-9-.31 3.68-3.12 10.64-11.83 9ZM31.27 12c-1.26 2.22-2.34 7.32 3.39 9.95 1.19-2.33 2.17-7.58-3.39-9.95ZM28.6 36.21c.65 2.47 3.43 6.87 9.33 4.68-.77-2.5-3.72-6.93-9.33-4.68ZM13 31.1c2.2 1.28 7.26 2.39 9.88-3.38-2.3-1.2-7.5-2.22-9.87 3.38ZM23.14 12.9c-.14 1.78.76 5.26 5.47 5.03 0-1.79-1.07-5.3-5.47-5.02ZM35.6 34.77c1.14 1.36 4.2 3.19 7.39-.31-1.24-1.28-4.46-3.01-7.39.31ZM13.96 39.04c1.75.17 5.21-.69 5.06-5.44-1.78-.04-5.27 1-5.06 5.44Z" fill="#fff"/></svg>