<!-- by TradingView --><svg width="56" height="56" viewBox="0 0 56 56" xmlns="http://www.w3.org/2000/svg"><path fill="#1E273A" d="M0 0h56v56H0z"/><path d="M42.35 17.14c-2-2.05-4.97-3.14-8.6-3.14-4.26 0-6.7 2.6-6.75 6.75v3.62h2V20.8c.03-1.76.87-3.8 2.92-3.8h.04c1.73.03 3.07 1.2 3.04 3-.03 1.87-1.56 3.06-3.45 3h-2l-.02 1.37 2 .04h.1A4.6 4.6 0 0 0 36 18.06l-.1-.24.16.19a4.6 4.6 0 0 1 1 2.93c-.04 2.47-2.03 4.06-4.44 4.06H20.79c-2 0-3.93.94-5.39 2.37a7.87 7.87 0 0 0-1.63 9l-.06.03a7.55 7.55 0 0 1-1.4-4.56 7.58 7.58 0 0 1 7.63-7.47H26V23h-6.21c-2.27 0-4.45.97-6.1 2.57A8.9 8.9 0 0 0 11 31.81c-.04 2.94.86 5.54 2.57 7.3 1.85 1.9 4.56 2.89 8.07 2.89 2.37 0 4.17-.73 5.4-2.18.97-1.16 1.93-2.78 1.96-4.56V31h-2v4.21c-.02.96-.78 1.9-1.32 2.58a2.79 2.79 0 0 1-2.26 1.12 3.54 3.54 0 0 1-2.26-.68c-.56-.47-.83-1.18-.82-2.11.03-1.9 1.57-3.62 3.44-3.62H26V31H23.76c-2.56 0-4.66 2.5-4.7 5.1-.02.63.1 1.26.33 1.84l.1.24-.16-.19a4.6 4.6 0 0 1 3.45-7.5H34.6c4.22.01 7.7-3.08 7.77-7.38.02-1.2-.23-2.4-.74-3.48l.07-.03a7.55 7.55 0 0 1 1.4 4.55 7.58 7.58 0 0 1-2.3 5.34c-1.44 1.4-3.36 1.55-5.34 1.51H29.5v1.5h6.11c2.3 0 4.62-.48 6.4-2.07A8.6 8.6 0 0 0 45 24.19a9.78 9.78 0 0 0-2.65-7.05Zm-1.24 5.9c-.08 3.64-2.98 5.96-6.5 5.96H22.76c-1.48 0-2.9.91-3.97 1.97a5.7 5.7 0 0 0-1.76 4.07c-.01.82.14 1.64.47 2.39l.12.28-.19-.23A5.54 5.54 0 0 1 16.3 34a5.55 5.55 0 0 1 5.47-5.5H26V27h-4.24c-3.66 0-6.68 3.22-6.74 6.95a6.86 6.86 0 0 0 .6 2.93l.14.33-.2-.28a6.47 6.47 0 0 1-1.27-4 6.5 6.5 0 0 1 6.48-6.43H32.6a5.46 5.46 0 0 0 5.26-3.32 5.88 5.88 0 0 0 .01-4.61l-.12-.28.18.23a5.51 5.51 0 0 1 .69 5.6c-.3.67-.7 1.27-1.23 1.77-1.02 1-2.37 1.1-3.78 1.11h-4.13l-.01 1.5h4.16c1.73 0 3.4-.44 4.67-1.68a6.75 6.75 0 0 0 2.07-4.8 6.86 6.86 0 0 0-.6-2.93l-.14-.33.21.28a6.57 6.57 0 0 1 1.27 4ZM27 28.5h2V27h-2v1.5Z" fill="#14CC8F"/></svg>