<!-- by TradingView --><svg width="56" height="56" fill="none" xmlns="http://www.w3.org/2000/svg"><path fill="url(#paint0_linear_1530)" d="M0 0h56v56H0z"/><path d="M43.158 43.158L12.842 12.842l30.316 30.316zm0-30.316L12.842 43.158l30.316-30.316z" fill="#000"/><path fill-rule="evenodd" clip-rule="evenodd" d="M29.259 28l14.529 14.529-1.26 1.259L28 29.258l-14.529 14.53-1.259-1.26L26.742 28l-14.53-14.529 1.26-1.259L28 26.742l14.529-14.53 1.259 1.26L29.258 28z" fill="#FCD309"/><path d="M22.94 28l4.776-4.756L32.472 28l-4.756 4.756L22.94 28z" fill="#FCD309"/><path fill-rule="evenodd" clip-rule="evenodd" d="M27.717 21.987L33.73 28l-6.013 6.013L21.68 28l6.037-6.013zM24.202 28l3.512 3.499L31.213 28l-3.498-3.498L24.202 28z" fill="url(#paint1_linear_1530)"/><defs><linearGradient id="paint0_linear_1530" x1="10.418" y1="9.712" x2="68.147" y2="76.017" gradientUnits="userSpaceOnUse"><stop stop-color="#1A1E21"/><stop offset="1" stop-color="#06060A"/></linearGradient><linearGradient id="paint1_linear_1530" x1="23.922" y1="24.072" x2="36.316" y2="38.337" gradientUnits="userSpaceOnUse"><stop stop-color="#1A1E21"/><stop offset="1" stop-color="#06060A"/></linearGradient></defs></svg>