<!-- by TradingView --><svg width="56" height="56" fill="none" xmlns="http://www.w3.org/2000/svg"><g clip-path="url(#clip0_1530)"><path fill="#fff" d="M0 0h56v56H0z"/><path d="M56 0L28 28V0h28z" fill="url(#paint0_linear_1530)"/><path d="M28 28H0V0l28 28z" fill="url(#paint1_linear_1530)"/><path d="M28 28v28H0l28-28z" fill="url(#paint2_linear_1530)"/><path d="M56 28v28L28 28h28z" fill="url(#paint3_linear_1530)"/><path d="M28 0v28L0 0h28z" fill="url(#paint4_linear_1530)"/><path d="M56 56H28V28l28 28z" fill="url(#paint5_linear_1530)"/><path d="M56 0v28H28L56 0z" fill="url(#paint6_linear_1530)"/><path d="M28 28L0 56V28h28z" fill="url(#paint7_linear_1530)"/><path d="M19.477 15.682L12 36.583l7.477-1.39 6.11-16.182 5.95 7.375 2.654-7.375-5.146-5.857c-.482-.548-3.03-1.458-5.347-1.053-2.315.404-3.778 2.556-4.22 3.581z" fill="#fff"/><path d="M36.523 40.318L44 19.417l-7.477 1.39-6.11 16.182-5.95-7.375-2.654 7.375 5.146 5.857c.482.548 3.031 1.458 5.347 1.053 2.315-.404 3.779-2.556 4.22-3.581z" fill="#fff"/></g><defs><linearGradient id="paint0_linear_1530" x1="29.154" y1="12.977" x2="42" y2="16.865" gradientUnits="userSpaceOnUse"><stop stop-color="#969DFE"/><stop offset="1" stop-color="#4F92E9"/></linearGradient><linearGradient id="paint1_linear_1530" x1="12.968" y1="15.65" x2="7.188" y2="28" gradientUnits="userSpaceOnUse"><stop stop-color="#B18BFE"/><stop offset="1" stop-color="#EE45C2"/></linearGradient><linearGradient id="paint2_linear_1530" x1="13.167" y1="42" x2="28" y2="48.139" gradientUnits="userSpaceOnUse"><stop offset=".353" stop-color="#BD5FD1"/><stop offset="1" stop-color="#C1CEFE"/></linearGradient><linearGradient id="paint3_linear_1530" x1="46.475" y1="28.826" x2="39.098" y2="37.532" gradientUnits="userSpaceOnUse"><stop offset=".066" stop-color="#56CDFB"/><stop offset="1" stop-color="#5EACF4"/></linearGradient><linearGradient id="paint4_linear_1530" x1="9.361" y1="9.442" x2="28" y2="6.968" gradientUnits="userSpaceOnUse"><stop stop-color="#B887FE"/><stop offset="1" stop-color="#969EFE"/></linearGradient><linearGradient id="paint5_linear_1530" x1="40.426" y1="43.876" x2="29.655" y2="50.959" gradientUnits="userSpaceOnUse"><stop stop-color="#5DADF4"/><stop offset="1" stop-color="#C4CFFF"/></linearGradient><linearGradient id="paint6_linear_1530" x1="38.655" y1="14" x2="46.77" y2="29.269" gradientUnits="userSpaceOnUse"><stop offset=".413" stop-color="#4F92E9"/><stop offset=".9" stop-color="#57D5FE"/></linearGradient><linearGradient id="paint7_linear_1530" x1="7.188" y1="30.998" x2="14" y2="48.339" gradientUnits="userSpaceOnUse"><stop stop-color="#EA49C5"/><stop offset="1" stop-color="#B265D5"/></linearGradient><clipPath id="clip0_1530"><path fill="#fff" d="M0 0h56v56H0z"/></clipPath></defs></svg>