<!-- by TradingView --><svg width="56" height="56" viewBox="0 0 56 56" xmlns="http://www.w3.org/2000/svg"><path fill="url(#ai0tisogj)" d="M0 0h56v56H0z"/><path d="M29.41 21.51a6.65 6.65 0 0 1 3.67 10.8.07.07 0 0 0 .04.05l8.81 5.06c.05.02.07 0 .07-.04V14.06c0-.04-.02-.06-.06-.06H18.63a.05.05 0 0 0-.05.05v.02l5 8.86c.03.05.07.06.11.02a6.65 6.65 0 0 1 5.72-1.44Zm2.06 12.16a6.65 6.65 0 0 1-9.12-9.18.07.07 0 0 0-.03-.04l-8.24-5.7-.03-.01a.05.05 0 0 0-.04.02v.03L14 41.98v.01l.02.01h23.24a.03.03 0 0 0 .02-.03v-.01l-5.7-8.27c-.03-.04-.07-.05-.11-.02Z" fill="#fff"/><defs><linearGradient id="ai0tisogj" x1="10.42" y1="9.71" x2="68.15" y2="76.02" gradientUnits="userSpaceOnUse"><stop stop-color="#1A1E21"/><stop offset="1" stop-color="#06060A"/></linearGradient></defs></svg>