<!-- by TradingView --><svg width="56" height="56" fill="none" xmlns="http://www.w3.org/2000/svg"><path fill="#F0F3FA" d="M0 0h56v56H0z"/><path fill-rule="evenodd" clip-rule="evenodd" d="M28.475 11.256L28 11l-.475.256-9 4.855.95 1.76L28 13.274l8.525 4.599.95-1.76-9-4.856zM15 20.478l2.003-1.167-1.006-1.728-2.5 1.457-.497.289v17.639l.474.293 11 6.797 1.526.943v-7.203l-.47-.294-7-4.37-1.06 1.697L24 38.907v2.507l-9-5.56V20.477zm26 0l-2.003-1.167 1.006-1.728 2.5 1.457.497.289v17.639l-.474.293-11 6.797-1.526.943v-7.203l.47-.294 7-4.37 1.06 1.697L32 38.907v2.507l9-5.56V20.477zm-13-4.624l.475.256 9 4.855-.95 1.76L28 18.128l-8.525 4.599-.95-1.76 9-4.856.475-.256zM25 25h-1v-2h1v-1h2v1h1v-1h2v1a3 3 0 012.455 4.724A3 3 0 0130.5 33H30v1h-2v-1h-1v1h-2v-1h-1v-2h1v-6zm6 1a1 1 0 01-1 1h-3v-2h3a1 1 0 011 1zm-4 5v-2h3.5a1 1 0 110 2H27z" fill="url(#paint0_linear)"/><defs><linearGradient id="paint0_linear" x1="28" y1="11" x2="28" y2="45.001" gradientUnits="userSpaceOnUse"><stop stop-color="#35B4E8"/><stop offset="1" stop-color="#3476BC"/></linearGradient></defs></svg>