<!-- by TradingView --><svg width="56" height="56" fill="none" xmlns="http://www.w3.org/2000/svg"><path fill="url(#paint0_linear_1530)" d="M0 0h56v56H0z"/><path fill-rule="evenodd" clip-rule="evenodd" d="M20 39h19a6 6 0 004.608-9.843 5.5 5.5 0 10-8.255-7.27.211.211 0 01-.017.03c-.46.66-.801 2.01.103 2.814.89.792 2.198.473 2.895-.175A1.5 1.5 0 1139.467 27l.003.009c-1.138 0-2.475.783-2.475 2.492 0 1.71 1.362 2.407 2.475 2.482l-.001.004h.024a1.507 1.507 0 010 3.014c-.185 0-.352-.003-.504-.008l-.002.008H21.252l.003-.004a8 8 0 116.767-4.159 4.1 4.1 0 01-.085.159c-.672 1.199-.628 2.028.207 2.7 1.46.73 2.834-.058 3.142-.513A11.944 11.944 0 0033 27c0-6.627-5.373-12-12-12S9 20.373 9 27c0 6.29 4.84 11.45 11 11.959V39z" fill="#fff"/><defs><linearGradient id="paint0_linear_1530" x1="28" y1="0" x2="18.81" y2="52.854" gradientUnits="userSpaceOnUse"><stop stop-color="#42B06B"/><stop offset="1" stop-color="#06AF8F"/></linearGradient></defs></svg>