<!-- by TradingView --><svg width="56" height="56" viewBox="0 0 56 56" xmlns="http://www.w3.org/2000/svg"><path fill="#1A467E" d="M0 0h56v56H0z"/><path d="M23 36h-2l6.7-15 4.56 10h-2l-2.55-5L23 36Zm11.5-.07 5.66-7.43L34.5 21h2l4.74 6.06-1.08 1.44 1.08 1.35L36.5 36h-4l-1.1-2.5h1.93l1.17 2.43Zm7.81-7.43-1.07-1.44L46 21h2l-5.69 7.5Zm0 0L48 36h-2l-4.76-6.15 1.07-1.35ZM22 28.5c.05 3.88-2.98 7.5-7 7.5a6.89 6.89 0 0 1-7-7 9.27 9.27 0 0 1 1.26-4.84l1.32 1.73c-.53.96-.58 1.88-.58 3.11a5 5 0 0 0 5 5c3.16.07 5-2.63 5-5.37 0-2.9-1.66-5.63-5-5.63-1.05 0-1.92.33-2.6.78l-1.52-1.4A6.56 6.56 0 0 1 15 21c4.03-.07 7.11 3.63 7 7.5Z" fill="#fff"/></svg>