<!-- by TradingView --><svg width="56" height="56" viewBox="0 0 56 56" xmlns="http://www.w3.org/2000/svg"><path fill="url(#apaoxbzuw)" d="M0 0h56v56H0z"/><path d="M16.1 27.4c0 .94-.78 1.7-1.73 1.7s-1.72-.76-1.72-1.7.77-1.7 1.72-1.7 1.72.76 1.72 1.7Zm27.34 0c0 .94-.77 1.7-1.72 1.7S40 28.34 40 27.4s.77-1.7 1.72-1.7 1.72.76 1.72 1.7Zm-13.67 6.71c0 .94-.77 1.7-1.72 1.7s-1.72-.76-1.72-1.7c0-.93.77-1.7 1.72-1.7s1.72.77 1.72 1.7Zm-6.89-3.3c0 .93-.77 1.7-1.72 1.7s-1.72-.77-1.72-1.7c0-.95.77-1.7 1.72-1.7s1.72.75 1.72 1.7Zm13.68 0c0 .93-.77 1.7-1.72 1.7s-1.72-.77-1.72-1.7c0-.95.77-1.7 1.72-1.7s1.72.75 1.72 1.7Zm-21.03 1.74c0 .64-.52 1.15-1.16 1.15-.64 0-1.16-.51-1.16-1.15 0-.63.52-1.15 1.16-1.15.64 0 1.16.52 1.16 1.15Zm27.35 0c0 .64-.52 1.15-1.16 1.15-.64 0-1.16-.51-1.16-1.15 0-.63.52-1.15 1.16-1.15.64 0 1.16.52 1.16 1.15Zm-13.67 6.8c0 .64-.52 1.16-1.16 1.16-.64 0-1.17-.52-1.17-1.15 0-.64.53-1.15 1.17-1.15.64 0 1.16.51 1.16 1.15Zm-6.88-3.4c0 .64-.52 1.15-1.17 1.15-.64 0-1.16-.51-1.16-1.15 0-.63.52-1.15 1.16-1.15.65 0 1.17.52 1.17 1.15Zm13.67 0c0 .64-.52 1.15-1.16 1.15-.64 0-1.17-.51-1.17-1.15 0-.63.53-1.15 1.17-1.15.64 0 1.16.52 1.16 1.15Zm-21.02.65a.6.6 0 0 1-.6.6.6.6 0 0 1-.61-.6c0-.33.27-.6.6-.6.34 0 .6.27.6.6Zm27.35 0a.6.6 0 0 1-.6.6.6.6 0 0 1-.61-.6.6.6 0 0 1 1.2 0Zm-13.68 6.8a.6.6 0 0 1-.6.6.6.6 0 0 1-.6-.6c0-.33.26-.6.6-.6.33 0 .6.27.6.6ZM21.77 40a.6.6 0 0 1-.6.6.6.6 0 0 1-.61-.6.6.6 0 0 1 1.2 0Zm13.67 0a.6.6 0 0 1-.6.6.6.6 0 0 1-.6-.6c0-.33.26-.6.6-.6.33 0 .6.27.6.6Zm-5.11-25.7c0 1.27-1.05 2.3-2.33 2.3a2.31 2.31 0 0 1-2.33-2.3c0-1.27 1.05-2.3 2.33-2.3a2.31 2.31 0 0 1 2.33 2.3Zm0 6.8c0 1.27-1.05 2.3-2.33 2.3a2.31 2.31 0 0 1-2.33-2.3c0-1.27 1.05-2.3 2.33-2.3a2.31 2.31 0 0 1 2.33 2.3Zm0 6.72c0 1.27-1.05 2.3-2.33 2.3a2.31 2.31 0 0 1-2.33-2.3c0-1.27 1.05-2.3 2.33-2.3a2.31 2.31 0 0 1 2.33 2.3ZM44 21.1c0 1.27-1.04 2.3-2.33 2.3a2.31 2.31 0 0 1-2.32-2.3c0-1.27 1.04-2.3 2.32-2.3A2.31 2.31 0 0 1 44 21.1Zm-27.35 0c0 1.27-1.04 2.3-2.32 2.3A2.31 2.31 0 0 1 12 21.1c0-1.27 1.04-2.3 2.33-2.3a2.31 2.31 0 0 1 2.32 2.3Zm6.88-3.4c0 1.27-1.04 2.3-2.32 2.3a2.31 2.31 0 0 1-2.33-2.3c0-1.27 1.04-2.3 2.33-2.3a2.31 2.31 0 0 1 2.32 2.3Zm0 6.71c0 1.27-1.04 2.3-2.32 2.3a2.31 2.31 0 0 1-2.33-2.3c0-1.27 1.04-2.3 2.33-2.3a2.31 2.31 0 0 1 2.32 2.3Zm13.68-6.7c0 1.26-1.04 2.29-2.33 2.29a2.31 2.31 0 0 1-2.32-2.3c0-1.27 1.04-2.3 2.32-2.3a2.31 2.31 0 0 1 2.33 2.3Zm0 6.7c0 1.27-1.04 2.3-2.33 2.3a2.31 2.31 0 0 1-2.32-2.3c0-1.27 1.04-2.3 2.32-2.3a2.31 2.31 0 0 1 2.33 2.3Z" fill="#fff"/><defs><linearGradient id="apaoxbzuw" x1="10.42" y1="9.71" x2="68.15" y2="76.02" gradientUnits="userSpaceOnUse"><stop stop-color="#1A1E21"/><stop offset="1" stop-color="#06060A"/></linearGradient></defs></svg>