<!-- by TradingView --><svg width="56" height="56" xmlns="http://www.w3.org/2000/svg"><path fill="url(#paint0_linear)" d="M0 0h56v56H0z"/><path d="M18 27.631c0-6.517 6.131-9.312 9-9.631v3c-5.354 1.185-6 4.777-6 6.893 0 4.958 3.95 6.895 6 7.107v3c-3.131-.564-9-3.216-9-10.369zM38 27.631c0-6.517-6.131-9.312-9-9.631v3c5.354 1.185 6 4.77 6 6.885A6.946 6.946 0 0129 35v3c3.132-.564 9-3.216 9-10.369z" fill="#fff"/><path fill-rule="evenodd" d="M28 43c8.284 0 15-6.716 15-15 0-8.284-6.716-15-15-15-8.284 0-15 6.716-15 15 0 8.284 6.716 15 15 15zm0 1c8.837 0 16-7.163 16-16 0-8.836-7.163-16-16-16s-16 7.164-16 16c0 8.837 7.163 16 16 16z" fill="#fff"/><defs><linearGradient id="paint0_linear" x1="10.418" y1="9.712" x2="68.147" y2="76.017" gradientUnits="userSpaceOnUse"><stop stop-color="#1A1E21"/><stop offset="1" stop-color="#06060A"/></linearGradient></defs></svg>