<!-- by TradingView --><svg width="56" height="56" viewBox="0 0 56 56" xmlns="http://www.w3.org/2000/svg"><path fill="url(#ahpoz4rrd)" d="M0 0h56v56H0z"/><path fill-rule="evenodd" d="M28 42a14 14 0 1 0 0-28 14 14 0 0 0 0 28Zm0 3a17 17 0 1 0 0-34 17 17 0 0 0 0 34Z" fill="#FFB801"/><path d="M26.83 17.11 27 17l1 4 1-4 .17.11v-.04A10 10 0 0 1 37.96 26H33l1.43-1.78a7.03 7.03 0 0 0-3.4-3.53L28 26l-3.03-5.31a7.02 7.02 0 0 0-3.5 3.78L23 26h-4.95a10 10 0 0 1 8.77-8.93l.01.04ZM31 33.33c2-.95 3.48-2.83 3.89-5.07L33 27h5c0 2.73-1.09 5.2-2.86 7H38v3h-7v-3.67Zm-6 0a7.01 7.01 0 0 1-3.84-4.85L23 27h-5c0 2.73 1.09 5.2 2.86 7H18v3h7v-3.67Z" fill="#FFB401"/><defs><linearGradient id="ahpoz4rrd" x1="10.42" y1="9.71" x2="68.15" y2="76.02" gradientUnits="userSpaceOnUse"><stop stop-color="#1A1E21"/><stop offset="1" stop-color="#06060A"/></linearGradient></defs></svg>