<!-- by TradingView --><svg width="56" height="56" viewBox="0 0 56 56" xmlns="http://www.w3.org/2000/svg"><path fill="url(#ay14tfhee)" d="M0 0h56v56H0z"/><path d="M37.14 12A7.2 7.2 0 0 0 30 18.88v7.67c-.7 0-1.2.1-2 .1s-1.3 0-2 .1v-7.87c0-3.79-3.37-6.98-7.24-6.88-3.68 0-6.66 3.19-6.76 6.88v18.34A6.9 6.9 0 0 0 19.06 44c3.77-.1 6.94-3.1 6.94-6.78v-7.68c.7 0 1.2-.1 2-.1s1.3 0 2-.1v7.78A7.15 7.15 0 0 0 37.24 44 6.93 6.93 0 0 0 44 37.12V18.88A6.88 6.88 0 0 0 37.14 12Zm-18.18 3c2.28 0 4.04 1.59 4.04 3.88v8.07c-1.99.3-3.94.9-5.83 1.7-.8.4-1.47.8-2.17 1.4V18.87c0-2.2 1.67-3.88 3.96-3.88ZM23 37.22c0 2.3-1.76 3.78-4.04 3.78-2.29 0-3.96-1.49-3.96-3.78v-1.8c0-1.59 1.17-3.18 3.36-4.08 1.5-.7 2.95-1.1 4.64-1.4v7.28ZM37.14 41C34.86 41 33 39.51 33 37.22v-8.07c1.99-.3 4.04-.9 5.93-1.7.8-.4 1.37-.8 2.07-1.4v11.17c0 2.3-1.67 3.78-3.86 3.78Zm.6-16.14c-1.5.7-3.05 1.1-4.74 1.4v-7.38c0-2.3 1.86-3.88 4.14-3.88A3.69 3.69 0 0 1 41 18.88v1.8c.1 1.69-1.07 3.18-3.26 4.18Z" fill="#fff"/><defs><linearGradient id="ay14tfhee" x1="47.56" y1="7.74" x2="11.3" y2="49.58" gradientUnits="userSpaceOnUse"><stop stop-color="#00E8A2"/><stop offset="1" stop-color="#00B1E2"/></linearGradient></defs></svg>