<!-- by TradingView --><svg width="56" height="56" viewBox="0 0 56 56" xmlns="http://www.w3.org/2000/svg"><path fill="#F0F3FA" d="M0 0h56v56H0z"/><path d="M28 43.95A15.98 15.98 0 1 0 28 12a15.99 15.99 0 1 0 0 31.95Z" fill="#F6BE4E"/><mask id="an10ffqur" maskUnits="userSpaceOnUse" x="12" y="12" width="32" height="32"><path d="M28 44a15.98 15.98 0 1 0 0-31.95A15.99 15.99 0 1 0 28 44Z" fill="#fff"/></mask><g mask="url(#an10ffqur)"><path d="M43.82 25.54c2.02 7.52-3.28 15.57-11.73 17.83-8.44 2.26-17.06-2.07-19.07-9.6 3.96 4.8 10.8 6.88 17.38 5.31 6.94-1.65 12.32-7.07 13.42-13.54Z" fill="#E38329" opacity=".69"/></g><path d="M22 28a1 1 0 1 0 0-2 1 1 0 0 0 0 2ZM34 28a1 1 0 1 0 0-2 1 1 0 0 0 0 2ZM27 28c-.3.02-.5.24-.52.55-.02.4.15.82.44 1.07.3.26.71.37 1.1.38.39 0 .75-.1 1.04-.37.17-.15.28-.34.36-.55.08-.22.13-.41.09-.65-.04-.23-.29-.43-.5-.43H27Z" fill="#313076"/></svg>