<!-- by TradingView --><svg width="56" height="56" viewBox="0 0 56 56" fill="none" xmlns="http://www.w3.org/2000/svg"><path fill="#FFD15C" d="M0 0h56v56H0z"/><path d="M17.38 36.76c.63-.42.16-1.41.5-1.55 2.6 1.45 5.15 3.27 8.3 3.11a4.66 4.66 0 0 0 4.17-2.58c.7-1.42.72-3.18.23-4.82-1.45-4.8-7.07-6.95-9.35-11.45a5.74 5.74 0 0 1-.8-2.86c.06-.55.57-.97 1.1-1.06 2.82-.46 5.2-1.66 8.1-1.66 3 0 6.53 1.3 10.24 6.7 4.76 6.93 2.14 14.67-3.34 18.74a13.6 13.6 0 0 1-9.66 2.7c-3.16-.38-6.47-1.96-9.49-5.27Z" fill="#fff"/><path d="M24.95 15.64c-1.02.3-2.12.6-3.27.8-.1 0-.2.06-.27.13-.07.06-.09.11-.09.13a5 5 0 0 0 .71 2.37c.96 1.9 2.57 3.35 4.31 4.93l.48.43c1.86 1.7 3.82 3.58 4.62 6.24.54 1.79.54 3.8-.3 5.47a5.55 5.55 0 0 1-4.91 3.07c-1.77.09-3.34-.38-4.78-1.03a33.4 33.4 0 0 1-2.91-1.56l-.02.04c2.75 2.83 5.69 4.15 8.45 4.48a12.7 12.7 0 0 0 9.02-2.53c5.18-3.84 7.58-11.06 3.14-17.52-1.8-2.62-3.52-4.18-5.1-5.1a8.56 8.56 0 0 0-4.4-1.2c-1.33 0-2.55.27-3.84.62l-.84.23Zm-6.32 19.9Zm6.68-21.85c1.33-.37 2.75-.7 4.33-.69 1.64 0 3.43.36 5.3 1.45 1.86 1.08 3.76 2.86 5.67 5.63 5.08 7.4 2.25 15.66-3.55 19.96a14.5 14.5 0 0 1-10.3 2.87c-3.4-.4-6.9-2.1-10.04-5.55l-.7-.76.8-.54a1.3 1.3 0 0 0 .02-.26l.01-.44c.02-.15.09-.72.66-.97l.41-.18.39.22 1.16.66c.92.54 1.8 1.05 2.72 1.47 1.29.58 2.57.94 3.95.87 1.7-.08 2.82-.9 3.4-2.08.58-1.17.63-2.7.18-4.17-.64-2.13-2.23-3.72-4.1-5.43l-.51-.46c-1.7-1.53-3.56-3.2-4.68-5.42a6.55 6.55 0 0 1-.9-3.35m-2.7 19.57Zm8.48-22.4-.9.25.9-.25Zm-.9.25c-1.02.29-1.98.56-3.02.73l3.01-.73Zm-3.02.73c-.81.14-1.74.8-1.85 1.85l1.85-1.85Z" fill="#000"/><path d="M20.24 15.21c-.78.58-.76 1.77-.65 2.3h3.81c.11 0 1.65-2.63 2.4-3.95-.79.18-2.61.61-3.53.9-1.15.37-1.06.04-2.03.75Z" fill="#000"/><path d="M19.98 16.15s8.5-2.26 10.37-2.26c1.86 0 9.3 3.6 11.48 10.17 3.08 9.32-5.3 15.44-6.24 14.84 9.01-7.42-5.74-21.13-13-20.1-.9.13-.4.9-.4.9l-.2 2-1.5-2.5-.51-3.05Z" fill="#000"/><path d="M40.6 21.26c2.68 4.7 2.12 2.01 1.52 7.4 1.1-1.78 2.83-.45 3.55.23.13.12.34.04.33-.13a8.08 8.08 0 0 0-1.59-4.38c-1.82-2.53-3.82-3.12-3.82-3.12Z" fill="#000"/><path d="m42.12 28.65.27-.64m-.27.64c.6-5.38 1.16-2.68-1.53-7.39 0 0 2 .59 3.82 3.12A8.08 8.08 0 0 1 46 28.76c0 .17-.2.25-.33.13-.72-.68-2.44-2.01-3.55-.24Z" stroke="#000" stroke-width=".99"/><path d="M18.97 27.94c-1.13 1.9-3.46 1.76-3.41 4.04 2.07 4.6 2.09 4.27 2.09 4.27 3.84-2.16 2.26-6.9 1.7-8.3-.07-.16-.3-.16-.38-.01Z" fill="#000"/><path d="M10.25 32.16c2.2.29 3.53-1.63 5.3-.19 2.36 4.46 2.1 4.27 2.1 4.27-4.08 1.69-6.87-2.48-7.62-3.78-.09-.15.05-.32.22-.3ZM28.79 29.33s2.22 2.25 1.06 2.6c-1.45-.88-4.03-.2-5.3.23-.32.1-.62-.17-.5-.48.42-1.18 1.49-3.37 3.53-3.66 1.21-.3 1.21 1.3 1.21 1.3Z" fill="#000"/><path d="M30.15 18.3c-.25-.35-.76-1.3.8-1.3 1.57 0 3.95 1.76 4.44 2.4-.15.4-1.16.5-1.67.45a5.74 5.74 0 0 1-2-.44 4.8 4.8 0 0 1-1.57-1.1Z" fill="#fff"/></svg>