<!-- by TradingView --><svg width="56" height="56" xmlns="http://www.w3.org/2000/svg"><path fill="#25253B" d="M0 0h56v56H0z"/><path d="M27.356 14c-4.096 0-8.96 2.774-10.764 5.256 3.415-2.189 8.868-3.102 10.545-2.87 6.8 1.091 9.077 7.188 9.42 10.313 2.597 1.023 7.73 1.332 4.978-4.101C38.103 15.825 32.378 14 27.356 14z" fill="url(#paint0_linear)"/><ellipse cx="24.831" cy="27.642" rx="11.831" ry="11.664" fill="url(#paint1_linear)"/><circle cx="27.5" cy="29.5" r="8.5" fill="#25253B"/><path d="M46.755 26.799c1.606-1.127 1.049-3.401.475-4.171-.884-1.188-2.121-1.333-2.62-1.277-3.959.448-7.196 4.84-8.458 6.997l4.963 3.44c.233-.325.843-1.3 1.832-2.434 1.198-1.374 2.803-1.85 3.808-2.555z" fill="url(#paint2_linear)"/><path d="M42.878 27.571c.851-1.767-.647-3.335-1.523-3.727-1.352-.605-2.38-.175-2.687 0-3.236 2.324-4.14 7.902-4.188 10.4l6.593.834c.044-.398.14-1.6.17-3.221.031-1.622 1.228-3.44 1.635-4.286z" fill="url(#paint3_linear)"/><path d="M27.55 44C18.503 44 12.578 35.826 13 28c2.92 9.773 10.04 11.826 14.55 10.773 3.608-.842 6.847-4.487 8.115-6.269.518-.727 2.443-1 4.043-.126 1.6.873 1.983 2.79 1.601 3.503C37.487 43.02 30.997 44 27.549 44z" fill="url(#paint4_linear)"/><circle cx="42" cy="17" r="3" fill="url(#paint5_linear)"/><defs><linearGradient id="paint0_linear" x1="18.988" y1="17.089" x2="41.798" y2="25.345" gradientUnits="userSpaceOnUse"><stop stop-color="#5D86BC"/><stop offset=".614" stop-color="#6CC3D7"/></linearGradient><linearGradient id="paint1_linear" x1="14.265" y1="23.385" x2="35.428" y2="31.015" gradientUnits="userSpaceOnUse"><stop offset=".226" stop-color="#94D0DA"/><stop offset="1" stop-color="#3F65AE"/></linearGradient><linearGradient id="paint2_linear" x1="45.173" y1="21.173" x2="39.682" y2="30.988" gradientUnits="userSpaceOnUse"><stop stop-color="#F57240"/><stop offset="1" stop-color="#FBE18C"/></linearGradient><linearGradient id="paint3_linear" x1="35.246" y1="30.466" x2="43.131" y2="26.699" gradientUnits="userSpaceOnUse"><stop offset=".212" stop-color="#583D90"/><stop offset="1" stop-color="#DC719B"/></linearGradient><linearGradient id="paint4_linear" x1="12.779" y1="28.828" x2="39.321" y2="37.515" gradientUnits="userSpaceOnUse"><stop stop-color="#4FA2C5"/><stop offset="1" stop-color="#FD7813"/></linearGradient><linearGradient id="paint5_linear" x1="43.752" y1="15.005" x2="40.205" y2="19.142" gradientUnits="userSpaceOnUse"><stop stop-color="#B1599B"/><stop offset="1" stop-color="#5B418B"/></linearGradient></defs></svg>