<!-- by TradingView --><svg width="56" height="56" viewBox="0 0 56 56" xmlns="http://www.w3.org/2000/svg"><path fill="#34445B" d="M0 0h56v56H0z"/><path d="m15.3 23 1.87-3.16c.44.1.9.04 1.29-.18.4-.2.7-.55.87-.97a1.98 1.98 0 0 0-.73-2.38 1.87 1.87 0 0 0-2.42.3 1.96 1.96 0 0 0-.13 2.5L13.7 23A7.39 7.39 0 0 0 7 30.75 7.59 7.59 0 0 0 14.39 38c4.21-.01 7.61-3.26 7.61-7.14s-2.83-7.4-6.7-7.86Zm-.86 11.46a3.9 3.9 0 0 1-3.52-2.16 4.11 4.11 0 0 1 1.88-5.57 3.89 3.89 0 0 1 4.07.5c.57.46 1 1.08 1.26 1.77a2.24 2.24 0 0 0-3.67.06 2.37 2.37 0 0 0 1.12 3.57 2.24 2.24 0 0 0 2.55-.77 4.02 4.02 0 0 1-1.45 1.88 3.9 3.9 0 0 1-2.24.72ZM31 29.06c-2.47-.97-3-1.14-3-1.82 0-.7.8-1.24 1.9-1.24 1.06-.03 2.5.56 2.95 1.55l2.2-1.68C34.21 24 32.17 23 29.61 23c-3.3 0-5.62 1.6-5.62 4 0 2 1.26 3.34 4.58 4.59 2.26.8 2.42 1.4 2.42 2.09 0 .68-.62 1.32-1.66 1.32a3.84 3.84 0 0 1-3.26-1.88l-2.38 1.62c1.13 2.13 3.17 3.26 5.86 3.26C33 38 35 36.18 35 33.68c0-2.12-.83-3.34-4-4.62Zm16 4.76-.37-.18c-.46.24-.97.35-1.49.36-1.4 0-2.14-.51-2.14-2.23V26h3.97v-3H43v-5h-1l-3 2v3h-2v3h2v7.24c0 3.12 1.87 4.75 5.01 4.75 1.02 0 2.03-.18 2.99-.53v-3.64Z" fill="#fff"/></svg>