<!-- by TradingView --><svg width="56" height="56" fill="none" xmlns="http://www.w3.org/2000/svg"><path fill="#F0F3FA" d="M0 0h56v56H0z"/><path fill-rule="evenodd" clip-rule="evenodd" d="M28 16a2 2 0 100-4 2 2 0 000 4zm0 28a2 2 0 100-4 2 2 0 000 4zm2-23a2 2 0 11-4 0 2 2 0 014 0zm-8.5-2a1.5 1.5 0 100-3 1.5 1.5 0 000 3zM23 38.5a1.5 1.5 0 11-3 0 1.5 1.5 0 013 0zM34 27a2 2 0 100-4 2 2 0 000 4zm2 4a2 2 0 11-4 0 2 2 0 014 0zm-8 6a2 2 0 100-4 2 2 0 000 4zm1.478-9c0 .823-.662 1.49-1.478 1.49A1.484 1.484 0 0126.522 28c0-.823.662-1.49 1.478-1.49s1.478.667 1.478 1.49zM21.5 32.97a1.5 1.5 0 100-3 1.5 1.5 0 000 3zm1.5-8.529a1.5 1.5 0 11-3 0 1.5 1.5 0 013 0zM15 22a1 1 0 100-2 1 1 0 000 2zm1 6a1 1 0 11-2 0 1 1 0 012 0zm-1 8a1 1 0 100-2 1 1 0 000 2zm21-18a2 2 0 11-4 0 2 2 0 014 0zm-2 22a2 2 0 100-4 2 2 0 000 4zm8-18.5a2.5 2.5 0 11-5 0 2.5 2.5 0 015 0zM39.5 37a2.5 2.5 0 100-5 2.5 2.5 0 000 5zm2.5-9a2.5 2.5 0 11-5 0 2.5 2.5 0 015 0z" fill="#2261F6"/></svg>