<!-- by TradingView --><svg width="56" height="56" viewBox="0 0 56 56" xmlns="http://www.w3.org/2000/svg"><path fill="#F0F3FA" d="M0 0h56v56H0z"/><path d="M20.45 16.17a26.9 26.9 0 0 1 1.8-1.89c-9.56-.3-6.77 6.6-9.9 13.61-3.58 8.08.43 11.16 6.41 12.11-.83-.97-1.5-2.09-2.02-3.3-3.88-4.86-2.32-13.74 3.71-20.53ZM43.47 24.77c-.89 2.5-2.52 5.31-4.83 8.07a23.1 23.1 0 0 1-5.87 5.08 15.86 15.86 0 0 1-8.66 2.45c-1.86 0-3.68-.1-5.35-.37a10.94 10.94 0 0 0 3.58 2.8c8.65 4.17 9.2-3.58 18.35-7.51 5.14-2.21 5.16-6.53 2.78-10.52Z" fill="#EFE812"/><path d="M32.77 16.7c1.27.23 2.48.65 3.57 1.26a19.96 19.96 0 0 1 7.13 6.81c1.56-4.38.84-7.82-2.57-8.45-3.75-.68-6.68-.9-9.5-2.86-3.46-2.42-6.5-1.62-9.14.82l.57.03c3.66.21 7.15.92 9.94 2.4Z" fill="#EEE809"/><path d="M20.45 16.17c-6.03 6.8-7.59 15.67-3.71 20.54a14.75 14.75 0 0 1 .83-13.22c3.27-5.41 9.82-7.77 15.2-6.79-2.79-1.47-6.28-2.18-9.94-2.4l-.57-.02c-.57.53-1.16 1.15-1.81 1.89Z" fill="#DEC21C"/><path d="M36.34 17.96a11.4 11.4 0 0 0-3.57-1.26c3.67 1.93 6.1 5.18 6.08 10.35a12.96 12.96 0 0 1-6.08 10.87 23.1 23.1 0 0 0 5.87-5.08 27.26 27.26 0 0 0 4.83-8.07 19.95 19.95 0 0 0-7.13-6.8Z" fill="#E5CB22"/><path d="M32.16 35.46a8.96 8.96 0 0 1-12.33-2.65c-2.67-4.11-1.35-9.41 2.66-12.26 4.48-3.18 10.24-1.93 12.34 2.65 2.04 4.45 1.48 9.6-2.67 12.26Zm.6-18.76c-5.37-.98-11.92 1.38-15.19 6.78a14.75 14.75 0 0 0-.83 13.23c.51 1.2 1.19 2.32 2.02 3.3 1.67.26 3.5.36 5.35.36 3.31 0 6.27-.9 8.66-2.45a12.96 12.96 0 0 0 6.08-10.87c.03-5.17-2.41-8.42-6.08-10.35Z" fill="#CCA727"/></svg>