<!-- by TradingView --><svg width="56" height="56" xmlns="http://www.w3.org/2000/svg"><path fill="url(#paint0_linear)" d="M0 0h56v56H0z"/><path d="M46.852 27.486a1.955 1.955 0 00-.363-.515C43.207 23.27 36.487 16 36.487 16l-8.482 9.223-8.586-9.137S12.648 23.423 9.331 27.16c-.432.411-.432 1.183-.052 1.629 1.727 1.937 10.192 11.194 10.192 11.194l8.534-9.24L36.469 40l10.227-11.229s.225-.222.26-.36a1.26 1.26 0 00-.104-.925zm-32.823 1.028c-.259-.343-.172-.857.087-1.148 1.088-1.217 5.407-5.829 5.407-5.829l6.046 6.343-6.046 6.566s-3.697-3.926-5.476-5.949l-.018.017zm27.64.206c-.12.24-.449.617-.449.617l-4.681 5.04L30.492 28l5.943-6.463s3.438 3.514 5.01 5.4c.12.172.276.343.345.532.156.411.052.857-.12 1.251z" fill="#fff"/><defs><linearGradient id="paint0_linear" x1="10.418" y1="9.712" x2="68.147" y2="76.017" gradientUnits="userSpaceOnUse"><stop stop-color="#1A1E21"/><stop offset="1" stop-color="#06060A"/></linearGradient></defs></svg>