<!-- by TradingView --><svg width="56" height="56" viewBox="0 0 56 56" xmlns="http://www.w3.org/2000/svg"><path fill="#F0F3FA" d="M0 0h56v56H0z"/><path fill-rule="evenodd" d="M43.28 23.24A16.07 16.07 0 0 0 28.56 12H27.5A16.06 16.06 0 0 0 12 27.34v1.33A16.07 16.07 0 0 0 27.56 44h1a15.9 15.9 0 0 0 10.38-4.34 15.9 15.9 0 0 0 4.34-16.42Zm-16.55 2.97A18019.46 18019.46 0 0 1 16.7 36a.07.07 0 0 1-.05-.03 13.68 13.68 0 0 1 2.06-18.44A14.32 14.32 0 0 1 26.92 14a.09.09 0 0 1 .06.05v.03l.02.45v10.92c0 .37 0 .5-.27.76Zm12.52 9.77-9.97-9.76c-.28-.27-.28-.4-.28-.77v-.08a6823.93 6823.93 0 0 0 .02-11.32l.02-.03a.09.09 0 0 1 .07-.02 14.32 14.32 0 0 1 11.8 8.55A13.69 13.69 0 0 1 39.3 36a.07.07 0 0 1-.05-.02ZM29.09 42a14.99 14.99 0 0 0 8.88-4.05c.04-.05.04-.1-.01-.15L29.06 29h-.04a.04.04 0 0 0-.02.03v12.88a.08.08 0 0 0 .1.08Zm-10.96-3.94a.74.74 0 0 1-.1-.11c-.04-.05-.04-.1.01-.15l8.9-8.79h.04a.04.04 0 0 1 .02.03v12.88a.08.08 0 0 1-.03.06.08.08 0 0 1-.06.02 14.98 14.98 0 0 1-8.78-3.94Z" fill="url(#a)"/><defs><linearGradient id="a" x1="11.33" y1="28" x2="43.13" y2="28" gradientUnits="userSpaceOnUse"><stop stop-color="#06FCFA"/><stop offset="1" stop-color="#06FE0D"/></linearGradient></defs></svg>