<!-- by TradingView --><svg width="56" height="56" fill="none" xmlns="http://www.w3.org/2000/svg"><path fill="#F0F3FA" d="M0 0h56v56H0z"/><path d="M12.421 24.546c.1 2.258 3.092 4.307 4.576 5.05-2.684.098-3.898 2.371-4.169 3.496 1.172 3.134 5.79 9.391 14.887 9.348 11.37-.055 14.557-7.277 15.024-9.484.373-1.766-2.186-3.058-3.513-3.483 1.196-1.07 3.654-3.328 3.923-3.805.335-.596.477-1.578-.177-3.331-.523-1.403-2.362-1.777-3.216-1.788-.17-.93-.87-3.132-2.297-4.506-1.428-1.375-4.129-1.508-5.3-1.403-.608-.666-2.305-2.02-4.242-2.104-1.936-.084-3.469 1.286-3.993 1.981-.995 0-3.34.232-4.753 1.158-1.414.925-2.85 3.448-3.393 4.593-1.16.485-3.456 2.02-3.357 4.278z" fill="#8A67AC"/><path d="M22.841 28.222c-6.517-.029-9.358 2.827-9.964 4.258.8 1.323 4.91 3.977 14.947 4.006 10.037.028 13.976-2.659 14.692-4.006-.611-4.648-13.371-4.775-19.675-4.258z" fill="#B49AC9"/><ellipse cx="27.394" cy="27.688" rx="5.261" ry="5.221" fill="#E5E5E5"/><circle cx="26.5" cy="26.5" r="2.5" fill="#FBFBFB"/><path fill-rule="evenodd" clip-rule="evenodd" d="M19.559 14.857a7.205 7.205 0 013.813-.79A5.362 5.362 0 0127.632 12c2.184 0 3.864 1.219 4.698 2.098 1.065-.141 2.613-.019 4.111.758 1.593.827 3.093 2.377 3.892 5.045a5.86 5.86 0 011.869.838c.962.668 1.762 1.736 1.797 3.321.034 1.573-.736 2.874-1.649 3.836a9.166 9.166 0 01-1.87 1.494c.16.095.312.19.453.282.815.536 1.421 1.122 1.828 1.671.393.53.644 1.086.644 1.558 0 .41-.186 1.24-.626 2.225a11.757 11.757 0 01-2.322 3.385C38.164 40.863 34.266 43 27.851 43c-10.315 0-14.773-6.562-15.386-10.005l-.008-.047v-.047c0-1.707 1.203-2.943 2.777-3.785-.5-.27-1.03-.636-1.584-1.22-.914-.962-1.683-2.263-1.649-3.836.035-1.585.835-2.653 1.797-3.321a5.859 5.859 0 011.869-.838c.8-2.668 2.299-4.218 3.892-5.044zm16.378.955c1.239.643 2.47 1.833 3.212 3.956l-6.93 4.905a5.52 5.52 0 00-2.672-2.28l3.056-7.242c.863-.089 2.117.03 3.334.66zm-7.323 6.3l2.94-7.26c-.676-.721-2.105-1.774-3.921-1.774-1.622 0-2.73.843-3.294 1.512l2.962 7.413a5.526 5.526 0 011.313.11zm-2.384.035l-2.833-6.996c-.863-.089-2.117.03-3.334.66-1.239.644-2.47 1.834-3.212 3.958l6.197 4.501a5.505 5.505 0 013.182-2.123zm-3.711 3.018l-6.037-4.328c-.587.08-1.387.317-2.06.785-.734.51-1.309 1.282-1.335 2.462-.026 1.19.555 2.231 1.354 3.073a8.143 8.143 0 001.888 1.455c1.702-.674 3.754-1.044 5.671-1.137.004-.826.19-1.608.519-2.31zM22.1 28.55c-1.91.088-3.943.467-5.557 1.14-1.559.652-2.583 1.509-2.897 2.529.456.59 1.542 1.462 3.59 2.233 2.374.895 5.977 1.627 11.192 1.627 5.22 0 8.6-.733 10.696-1.619 1.954-.826 2.712-1.745 2.908-2.265a3.644 3.644 0 00-.146-.212c-.324-.436-.832-.937-1.553-1.41-1.392-.916-4.232-2.183-7.392-2.264-.03.199-.07.395-.12.586.127.069.235.145.299.209.626.632 2.041 2.096 2.516 2.734a.536.536 0 01-.114.754.546.546 0 01-.76-.113c-.401-.54-1.66-1.852-2.333-2.534a5.5 5.5 0 01-9.521.584c-.284.233-.584.53-.879.855-.5.553-.937 1.137-1.182 1.5a.546.546 0 01-.754.146.536.536 0 01-.148-.748c.27-.399.737-1.023 1.276-1.618a8.95 8.95 0 011.175-1.11 5.46 5.46 0 01-.296-1.004zm10.895-1.273c2.47.034 4.696.728 6.344 1.51a8.12 8.12 0 002.22-1.63c.8-.84 1.38-1.881 1.354-3.072-.026-1.18-.601-1.953-1.334-2.462-.674-.468-1.474-.705-2.061-.785l-6.815 4.876c.17.493.27 1.018.292 1.563zm6.555 8.175c1.12-.473 1.958-1.011 2.545-1.555a8.44 8.44 0 01-.309.793 10.681 10.681 0 01-2.11 3.073c-2.07 2.124-5.678 4.16-11.825 4.16-8.71 0-12.844-4.9-14.015-8.044.724.544 1.718 1.093 3.013 1.581 2.527.952 6.267 1.697 11.58 1.697 5.31 0 8.847-.744 11.12-1.705zM31.927 27.5a4.427 4.427 0 11-8.854 0 4.427 4.427 0 018.854 0z" fill="#000"/></svg>