<!-- by TradingView --><svg width="56" height="56" xmlns="http://www.w3.org/2000/svg"><path fill="url(#paint0_linear)" d="M0 0h56v56H0z"/><path d="M27.969 35.749c.035-.07.114-.03.15 0l.726 8.497-.801.754-.84-.754c.24-2.803.73-8.428.765-8.497z" fill="#E61E28"/><path d="M26.33 29.55l.765-.95.928 1.97.943-1.97.765.95-1.708 3.678-1.693-3.678z" fill="url(#paint1_linear)"/><path d="M27.217 27.54l.82-.84.833.84-.834 1.528-.82-1.529z" fill="url(#paint2_linear)"/><path d="M12.386 28.189l-.744-2.174 15.114 6.358.962 1.68-1.314 9.492-1.15-1.066 1.9-8.426-14.768-5.864z" fill="url(#paint3_linear)"/><path d="M43.614 28.189l.745-2.174-15.114 6.358-.962 1.68 1.314 9.492 1.15-1.066-1.901-8.426 14.768-5.864z" fill="url(#paint4_linear)"/><path d="M23.917 27.128L8 16l1.585 4.343 15.28 8.567-.948-1.782z" fill="url(#paint5_linear)"/><path d="M32.083 27.128L48 16l-1.585 4.343-15.28 8.567.948-1.782z" fill="url(#paint6_linear)"/><path d="M11.222 24.859l-1.193-3.305 15.278 8.204.941 1.749-15.026-6.648z" fill="url(#paint7_linear)"/><path d="M44.778 24.859l1.193-3.305-15.278 8.204-.941 1.749 15.026-6.648z" fill="url(#paint8_linear)"/><defs><linearGradient id="paint0_linear" x1="10.418" y1="9.712" x2="68.147" y2="76.017" gradientUnits="userSpaceOnUse"><stop stop-color="#1A1E21"/><stop offset="1" stop-color="#06060A"/></linearGradient><linearGradient id="paint1_linear" x1="28.03" y1="28.6" x2="28.03" y2="33.228" gradientUnits="userSpaceOnUse"><stop stop-color="#E9231E"/><stop offset="1" stop-color="#E42021"/></linearGradient><linearGradient id="paint2_linear" x1="28.043" y1="26.7" x2="28.043" y2="29.068" gradientUnits="userSpaceOnUse"><stop stop-color="#E53A2D"/><stop offset="1" stop-color="#E82620"/></linearGradient><linearGradient id="paint3_linear" x1="11.642" y1="26.015" x2="27.342" y2="37.312" gradientUnits="userSpaceOnUse"><stop stop-color="#F0341E"/><stop offset="1" stop-color="#E31D26"/></linearGradient><linearGradient id="paint4_linear" x1="44.359" y1="26.015" x2="28.658" y2="37.312" gradientUnits="userSpaceOnUse"><stop stop-color="#F0341E"/><stop offset="1" stop-color="#E31D26"/></linearGradient><linearGradient id="paint5_linear" x1="8.292" y1="16" x2="24.968" y2="28.776" gradientUnits="userSpaceOnUse"><stop stop-color="#F7691F"/><stop offset="1" stop-color="#E9342A"/></linearGradient><linearGradient id="paint6_linear" x1="47.709" y1="16" x2="31.032" y2="28.776" gradientUnits="userSpaceOnUse"><stop stop-color="#F7691F"/><stop offset="1" stop-color="#E9342A"/></linearGradient><linearGradient id="paint7_linear" x1="10.029" y1="21.554" x2="26.318" y2="31.109" gradientUnits="userSpaceOnUse"><stop stop-color="#EE511F"/><stop offset="1" stop-color="#EE1B21"/></linearGradient><linearGradient id="paint8_linear" x1="45.971" y1="21.554" x2="29.682" y2="31.109" gradientUnits="userSpaceOnUse"><stop stop-color="#EE511F"/><stop offset="1" stop-color="#EE1B21"/></linearGradient></defs></svg>