<!-- by TradingView --><svg width="56" height="56" viewBox="0 0 56 56" xmlns="http://www.w3.org/2000/svg"><path fill="#5717DE" d="M0 0h56v56H0z"/><path d="M31.6 27.29c-.02 0-4.16-2.53-12.43-7.58a6.4 6.4 0 0 1-1.3-.95A3.4 3.4 0 0 1 17 16.4c.03-.93.36-1.7 1-2.35a3.6 3.6 0 0 1 3.78-.84c.23.09.6.29 1.12.6l15.67 9.57c.05.03.05.05-.01.06a4.5 4.5 0 0 0-1.51.56c-1.17.69-2.96 1.78-5.39 3.28h-.06Zm-7.83 13.46a3.37 3.37 0 0 1-2.4 2.14 3.51 3.51 0 0 1-4.25-2.43 5.2 5.2 0 0 1-.12-1.32v-19.5c0-.03.02-.04.04-.01.4.36.64.57.76.64l6.16 3.81c.03.02.04.04.04.07v15.56c0 .29-.08.63-.23 1.04Zm1.36 0c-.01.06 0 .07.05.04l15.64-9.54c.67-.4 1.1-.71 1.28-.92.36-.4.62-.88.77-1.42a3.39 3.39 0 0 0-1.7-3.93 3.59 3.59 0 0 0-2.66-.31c-.33.09-.82.33-1.46.72l-11.7 7.14a.1.1 0 0 0-.05.08v6.8c0 .49-.05.94-.17 1.35Z" fill="#0DFDD2"/></svg>