<!-- by TradingView --><svg width="56" height="56" xmlns="http://www.w3.org/2000/svg"><path fill="#0A3ADB" d="M0 0h56v56H0z"/><path d="M30.218 36.196c1.086 1.311 2.211 2.667.984 4.19-.395.49-.846.803-1.245 1.078-.86.599-1.431.993-1.177 2.938l-1.045.135c-.338-2.575.657-3.263 1.62-3.93.372-.259.724-.502 1.023-.874.636-.789.26-1.382-.975-2.873-.246-.293-.486-.59-.72-.891-.424-.55-.579-1.16-.446-1.761.14-.628.558-1.144.978-1.526-1.942-1.256-1.977-3.35-1.977-3.379h.527l.528-.003c.002.097.051 1.799 1.86 2.707l.13.064c.61.281 1.414.47 2.46.491 4.357-.09 4.447-3.131 4.448-3.262l1.055.003c0 .01-.005.296-.105.716.504-.019 1.443-.187 1.784-.375-.194-.691-1.441-2.968-2.587-4.851l.318-.777.12-.033c-.18-.814-.538-2.448-.716-3.526-4.028-.608-6.933-.145-8.635 1.381-1.643 1.476-1.544 3.43-1.54 3.514l-.585.037-.467.039c-.023-.269-.212-.552-.441-.658-.209-.097-.449-.05-.715.136-.411.289-.558.654-.46 1.152.168.872 1.046 1.829 1.723 2.239.102-.063.177-.102.208-.12l.153.29c.021.006.046.085.046.085l.047.089.248.462a4.12 4.12 0 00-.507.33s-.053.06-.07.055c-.376.295-.779.712-.877 1.158-.065.3.018.593.254.9.232.3.468.586.696.862 1.087 1.312 2.211 2.669.985 4.192-.394.49-.846.803-1.244 1.078-.862.598-1.432.992-1.177 2.936l-1.045.135c-.338-2.574.657-3.263 1.619-3.93.371-.259.724-.502 1.024-.873.634-.79.26-1.381-.976-2.873-.234-.283-.476-.575-.72-.892-.425-.55-.578-1.16-.446-1.761.13-.59.51-1.083.904-1.456-.855-.634-1.686-1.698-1.881-2.708-.176-.897.14-1.68.889-2.206.58-.406 1.208-.487 1.767-.23.058.027.113.06.167.093a5.652 5.652 0 011.697-2.836c1.938-1.752 5.124-2.31 9.466-1.663.972-1.226 1.392-3.046-.277-4.586-1.533-1.411-4.215-1.828-6.055-.078l-.88-.27c-.31-1.459-2.039-2.184-3.553-2.375-2.29-.29-5.28.446-6.43 2.747-1.53 3.051.437 4.593.521 4.657l-.345.941c-2.265-.123-3.786.246-4.525 1.096-.955 1.098-.567 2.981-.255 4.495.261 1.267.468 2.268-.043 2.862-.58.676-1.277.92-1.917.92-.402 0-.797-.093-1.156-.27-.9-.45-1.399-1.322-1.214-2.122l1.028.236c-.074.316.21.725.662.95.238.12 1.075.445 1.795-.393.176-.205-.043-1.27-.188-1.973-.358-1.738-.804-3.9.49-5.39.823-.946 2.201-1.434 4.195-1.479-.618-.97-1.166-2.656.007-4.996 1.381-2.757 4.86-3.654 7.509-3.32 2.006.254 3.529 1.157 4.178 2.427 2.237-1.582 5.164-1.026 6.894.568 1.372 1.264 2.283 3.558.448 5.929.188 1.32.856 4.224.863 4.254l-.341.562c2.73 4.561 2.477 5.05 2.353 5.291-.257.495-1.202.78-2.043.894.994.654 1.958 1.787 1.89 3.505-.053 1.348-1.085 2.436-2.08 3.489-1.337 1.41-2.118 2.332-1.383 3.44l-.88.575c-1.231-1.854.217-3.383 1.494-4.732.864-.913 1.758-1.856 1.795-2.813.076-1.914-1.567-2.74-2.208-2.991-.685 1.026-2.013 2.046-4.58 2.14v.01c-.066 0-.127-.005-.193-.006-.066.002-.127.006-.193.006v-.01c-.915-.033-1.672-.184-2.298-.411-.403.298-.878.751-.984 1.24-.066.298.017.594.254.9.231.302.469.587.697.862h-.002zm-7.589-18.417l.812.668c-.497.596-.212 1.108-.066 1.303.237.316.682.546 1.074.379.667-.283.767-.431 1.328-1.247.441-.651.906-1.288 1.392-1.908.687-.883 1.477-1.348 2.347-1.382 1.39-.052 2.418 1.047 2.46 1.095l-.78.705c-.007-.008-.75-.792-1.644-.753-.541.023-1.063.35-1.55.974a35.847 35.847 0 00-1.353 1.858c-.59.859-.834 1.215-1.782 1.62-.22.094-.458.142-.698.142-.61 0-1.225-.307-1.64-.857-.596-.79-.558-1.81.1-2.597zm11.493 21.879c1.086 1.311 2.21 2.67.983 4.191-.393.49-.844.802-1.242 1.079-.864.597-1.433.991-1.178 2.937L31.637 48c-.337-2.576.659-3.264 1.62-3.931.372-.258.724-.502 1.024-.874.635-.788.26-1.38-.974-2.873a28.44 28.44 0 01-.72-.892c-.426-.55-.58-1.16-.447-1.76.29-1.316 1.816-2.15 1.99-2.242l.494.926c-.35.186-1.298.825-1.453 1.54-.066.3.017.594.253.901.232.302.468.587.697.863zM23.246 23.023c-3.112-.115-4.737.55-4.835 1.976-.04.57.008 1.24.06 1.951.127 1.734.271 3.7-.912 4.87-.646.641-1.587.956-2.863.956a9.13 9.13 0 01-.648-.024l.077-1.044c1.288.095 2.166-.11 2.688-.628.842-.833.721-2.47.605-4.054-.054-.748-.105-1.454-.06-2.099.1-1.442 1.209-3.124 5.925-2.95l-.037 1.046zm12.833 1.78c-.017-.024-.398-.596-1.452-.596-.985 0-2.372.953-2.824 1.32l-.63-.763c.078-.063 1.916-1.543 3.455-1.543 1.643 0 2.276 1.03 2.301 1.073l-.428.252-.422.258zm-1.74.96c0-.34.315-.615.703-.615.388 0 .704.276.704.616 0 .34-.316.615-.704.615-.388 0-.703-.276-.703-.615z" fill="#D6C49E"/></svg>