<!-- by TradingView --><svg width="56" height="56" viewBox="0 0 56 56" xmlns="http://www.w3.org/2000/svg"><path fill="url(#aloaxjqdm)" d="M0 0h56v56H0z"/><path d="m21.4 14 16.09.7L44 28.98 34.81 42l-16.18-1.02L12 25.53 21.4 14Z" fill="#3B3B3D"/><path d="m21.4 14 16.09.7L44 28.98 34.81 42l-16.18-1.02L12 25.53 21.4 14Zm11.8 8.22-11.67 5.02 9.97 7.6 1.7-12.62Zm-1.36-2.52-9.32-3.95-1.95 8.31 11.27-4.36Zm-2.36 17.04-10.13-7.12.25 9.65 9.88-2.53Zm12.9-7.8-6.9-6.9-1.82 13.26 8.72-6.36ZM31.85 38.3l-8.54 2.2 10.05.63-1.5-2.83Zm9.18-6.23-7.47 5.48 1.48 2.86 6-8.34ZM37.5 16.7l-1.46 2.94 5.41 5.41-3.95-8.35Zm-1.81-1.4-9.5-.38 7.84 3.37 1.66-3ZM20 16.65l-6.65 8.27 4.45.93 2.2-9.2Zm-2.47 10.82-4.47-.93 4.66 10.82-.2-9.89Z" fill="url(#bloaxjqdm)"/><defs><linearGradient id="aloaxjqdm" x1="10.42" y1="9.71" x2="68.15" y2="76.02" gradientUnits="userSpaceOnUse"><stop stop-color="#1A1E21"/><stop offset="1" stop-color="#06060A"/></linearGradient><linearGradient id="bloaxjqdm" x1="41.5" y1="7.5" x2="9.47" y2="33.92" gradientUnits="userSpaceOnUse"><stop offset=".08" stop-color="#3E3E40"/><stop offset=".29" stop-color="#5B5B5D"/><stop offset=".74" stop-color="#9D9D9F"/><stop offset=".89" stop-color="#606061"/></linearGradient></defs></svg>