<!-- by TradingView --><svg width="56" height="56" xmlns="http://www.w3.org/2000/svg"><path fill="#3C2966" d="M0 0h56v56H0z"/><path d="M30.368 13.144C29.471 12.229 28.884 12 28.005 12c-1.019 0-1.69.64-2.072.9-.772.61-2.495 1.708-3.802 1.708-1.633 0-2.94 0-3.652.752-.57.601-.95 1.982-1.07 2.597-.305 1.013-1.074 2.108-1.733 2.575-.75.531-1.896 1.174-2.275 1.938-.267.539-.641 1.813 0 3.064.574 1.12.549 3.421.29 3.927-.54 1.052-.691 1.962-.691 2.657 0 .694.598 2.049 1.494 2.506 1.156.59 2.74 2.564 2.953 3.74.215 1.175.627 1.895.951 2.14.551.418 1.448.993 3.029.993 1.976 0 2.282.273 2.937.541.655.267 1.667 1.236 2.734 1.815.824.286 1.891.186 2.802-.58 1.139-.956 2.478-1.742 4.387-1.776 1.91-.034 2.479-.239 3.014-.649.536-.41.77-.82 1.172-2.46.402-1.64 1.91-3.006 3.082-3.724 1.172-.718 1.44-1.584 1.44-2.336 0-.601-.386-1.716-.637-2.345-.267-1.175-.278-2.722 0-3.348.643-1.449.659-2.402.637-2.686 0-1.504-1.284-2.564-1.976-2.917-.681-.49-2.103-1.79-2.344-3.075-.242-1.285-.81-2.22-1.165-2.544-.495-.452-1.247-.886-2.453-.805-1.507.103-3.568-.32-4.689-1.464z" fill="#fff"/><path d="M26.423 18.022a2 2 0 013.154 0l2.583 3.312c.232.296.542.521.895.65l3.948 1.433a2 2 0 01.974 3l-2.351 3.48a2 2 0 00-.341 1.052l-.144 4.198A2 2 0 0132.589 37l-4.036-1.161a2 2 0 00-1.106 0L23.411 37a2 2 0 01-2.552-1.853l-.144-4.198a2 2 0 00-.341-1.052l-2.351-3.48a2 2 0 01.974-3l3.948-1.434c.354-.128.663-.353.895-.65l2.583-3.311z" fill="#3C2966"/></svg>