<!-- by TradingView --><svg width="56" height="56" xmlns="http://www.w3.org/2000/svg"><path fill="#3F4B80" d="M0 0h56v56H0z"/><path d="M48 19.09l-.086-1.356-.4 1.128-2.214 1.972-2.572.385-.757-.714 2.229-3.143 2.3-.7-2.471.057-3.6 2.643-3.286-.243-.129-.085-4.728-2.372-2.8.572-8.758 7.371-4.185 1.357L14.786 28h-3.1l-1.515 2.69L8 31.306l2.028.314 1.915-2.585 2.9.585-.029 2.786-1.457 3.972-.857 3.7-.9 1.485 2.286-.5-.257-1.543 1.942-4.057 3.757-1.514 1.43-2.429 2.456-1.8 4.843.729 4.9-2.186L32.1 32h-2.143l-.629 2.734 1.858-1.272 3.071-1.343L37 28.291v-1.843l1.143 1.386 3.743 2.371 2.142-1.014-.142-5.043-.586-1.971 2.786-.715L48 19.091z" fill="#fff"/></svg>