<!-- by TradingView --><svg width="56" height="56" viewBox="0 0 56 56" xmlns="http://www.w3.org/2000/svg"><path fill="#131B24" d="M0 0h56v56H0z"/><path fill-rule="evenodd" d="M23.53 14.7a.72.72 0 0 1 .48-.61c.25-.09.5-.12.75-.06.24.06.42.18.54.28a2.18 2.18 0 0 1 .17.17l.16.1c.21.02.4.1.58.21.15.1.26.23.33.32a.84.84 0 0 1 .13-.05l.07-.04c.1-.1.22-.2.37-.3.11-.19.25-.36.43-.5a.7.7 0 0 1 .88 0c.18-.04.38-.06.63-.05.25 0 .48.14.6.35.08.13.11.28.1.42a1.08 1.08 0 0 1 .15.18.79.79 0 0 1 .11.3c.08.1.15.21.2.32.12.04.21.1.28.14a2.38 2.38 0 0 1 .16.13 1.07 1.07 0 0 1 .49.22c.09.06.16.13.23.21.2.13.3.32.34.52a.94.94 0 0 1-.05.53v.07a.83.83 0 0 1 .61-.2.86.86 0 0 1 .8.9c.17.08.33.22.43.43a.88.88 0 0 1-.6 1.2c-.03.1-.08.2-.13.3.05.05.09.1.12.17.06.04.13.08.2.15l.34.35c.36.36.19.82.16.9a.75.75 0 0 1 .13.41l.06.1.01.04a.74.74 0 0 1 .2.43A10.2 10.2 0 0 1 38 30.86 10.1 10.1 0 0 1 28 41c-5.51 0-10-4.56-10-10.14M32.4 18.1h-.05.05Zm-2.15.24V18.13l-.2.08a.7.7 0 0 1 .2.13Zm-6.72-3.65a1.29 1.29 0 0 0-.7.21l-.01.01-.02.01h-.1l-.03.73-.34.64c.14.07.28.13.43.15.11.16.29.27.5.3.07 0 .1.02.12.02a.5.5 0 0 1 .07.05h.01l.04.03a1.05 1.05 0 0 0-.02.7.82.82 0 0 0-.33.2.89.89 0 0 0-.1 1.12.9.9 0 0 0-.1.43.85.85 0 0 0 .31.65c.04.04.08.08.13.1l-.13.13a.72.72 0 0 0-.13.2.78.78 0 0 0-.2.14l-.34.35c-.34.35-.21.77-.17.88a.75.75 0 0 0-.14.43l-.06.1-.01.04a.74.74 0 0 0-.2.43C19.58 24.6 18 27.54 18 30.86m4.28-7.55Zm1.51-3.74-.08-.01h.08Zm-1.41 2.39Zm.94 1.6c.18-.07.33-.2.42-.38v-.01a.72.72 0 0 0 .47-.12 8.44 8.44 0 0 1 1.41-.55.72.72 0 0 0 .47-.43.73.73 0 0 0-.06-.64l-.5-.83a.98.98 0 0 0 .09-.13.73.73 0 0 0 .27-.88 2.62 2.62 0 0 1-.1-.33.71.71 0 0 0 .53-.53c.04-.19.12-.37.25-.56-.42-.21-.5-.5-.5.2H26a1.38 1.38 0 0 1-.12.5l-.12-.05m-1.3.7h-.05.05Zm8.26.12h.02c.05 0 .12-.01.19-.04m-3.58-.17h-.01v.03l.01-.03Zm1.82-3.09Zm-5.65-1.82h-.01Z" fill="#fff"/><path d="M24.17 18.1c-.24.43-.7 4.19-.89 6.01.7.5 2.29 1.56 3.1 1.74 1 .22 6.22-2.69 6.06-4.71-.16-2.02-.69-2.57-1.54-4.12-.85-1.56-2.24-1.94-3.3-2.12-1.04-.19-3.12 2.68-3.43 3.2Z" fill="#fff"/><path d="M25.43 17.53c.08.26-.1.37-.36.3h-.02l.1.12c.34.43-.05.86-.28 1.2-.17.24-.32.28-.53.13l-.04-.02c-.13.06-.21.06-.27-.08l-.03-.04c-.03.02-.07.04-.09.07.05.1-.02.21-.14.2-.15-.05-.11-.2-.06-.24a.82.82 0 0 0 .08-.07v-.07c0-.13.07-.2.2-.22-.08-.07-.07-.16-.08-.18-.08-.01-.1-.07-.15-.13-.16.01-.18-.17-.1-.24.07-.08.22-.02.22.11.03.02.08.03.18-.01h.02c.26-.03.17.42.5.17.07-.05.63-.29.21-.5a1.18 1.18 0 0 1-.35-.27c-.28-.22-.52-.85.04-.75-.13-.22-.15-.42.14-.42l.18.01c.13.01.24.04.36.08s.34.1.86.2c.27.03.35-.05.58-.1a1.47 1.47 0 0 1 .72.03c.1.03.19.06.44.06.1 0 .21-.14.31-.06.18.12.78.03 1.13-.15v-.02c-.02-.07.08-.12.12-.02.02.03.05.15.08.17h.01c.02-.06-.12-.22-.03-.33.11-.15.19.05.38-.03.28-.1.38.14.58.24.14.07.2 0 .38.16.05.03.11.08.2.18l.04.02c.12.06 0 .26-.03.32-.07.12-.17.26-.27.34-.2.1-.02.26.06.35l.12.12c.25.2.5.05.8.38.14.22.07.48.04.7l-.01.17c.01.07.08 0 .1-.03a.64.64 0 0 0-.03-.35c-.07-.18-.05-.28.11-.36.03-.02.07-.03.07-.07 0-.26.13-.23.2-.32a.14.14 0 0 1-.03-.1c.04-.16.23-.13.26 0 .01.06-.02.12-.08.15-.02.05-.03.07-.02.12 0 .12.06.22 0 .33a.1.1 0 0 0-.01.03h.05c.11.03.16.11.24.17l.07.02c.04-.1.2-.11.25 0 .04.1-.08.25-.2.16-.1.02-.19.07-.29.08-.09.03-.12.12-.12.22.06.77-1.2.78-1.15-.02l.02-.2c0-.04-.02-.07-.1-.12l-.34-.13c-.26-.1-.56-.3-.66-.77-.07-.36 0-.54.07-.67.02-.02.13-.13.12-.17-.13-.1-.16.05-.38-.3l.01-.01v-.01h.01c.1.17.05.51-.28.38-.03 0-.1-.05-.13-.05-.04 0-.52.16-.63.03l-.02-.03h-.02c-.05 0-.07.03-.1.06l-.02.02c-.1.13-.25.1-.39.05l-.2.01c-.13.04-.25.05-.42.04-.17 0-.4-.03-.76-.05-.2 0-.36.05-.54.1a1.53 1.53 0 0 1-.9-.1Z" fill="url(#adlagtj13)"/><path d="M27.44 16.05c-1.58.33-1.35-.78-2.1-.77.41.29.22.47.48.69-.5-.04-.51-.82-1.6-.57.79.02.69.4 1.05.61-.65-.14-.74-.7-1.56-.32.81-.14.68.43 1.51.54-.31.1-.43 0-.77-.1.51.43 1.07.22 1.24.27.09.03.08.18-.29.16.52.34.72-.29 2.09-.37.13 0-.16.26.04.1.16-.12.45-.22.45-.22l-.53-.15v.13Z" fill="#B57017"/><path d="M28.17 14.68c.03.05.04.1.03.16a.5.5 0 0 1-.05.13c.2-.08.33-.13.47-.17a2.46 2.46 0 0 1 .52-.05v.01a1.83 1.83 0 0 1-.39.42c.12.02.23.07.32.13a.84.84 0 0 1 .24.2l.01.02v.03h-.03l-.07.02a5.05 5.05 0 0 1-.07 0c.3.19.44.44.54.7m-1.52-1.6h-.01Zm-.01.04a1.4 1.4 0 0 0-.51.53.9.9 0 0 0-.2.14.7.7 0 0 0-.12.15 1.67 1.67 0 0 0-.27.15c-.05.02-.1.05-.16.1a.42.42 0 0 0-.12.22h.06l.05.01.01.01a.1.1 0 0 0 .08.05l.01-.05h.04a1.42 1.42 0 0 0 .17-.02l.19.02a4.68 4.68 0 0 1 .18.04c0 .01 0 .02-.02.02a.4.4 0 0 0-.13.02 1.91 1.91 0 0 0-.22.18l-.02.02a.5.5 0 0 1-.2.1v-.02h-.02v.02h.03a.3.3 0 0 0 .04.04l.07.03h.01c.02.04.05.06.1.07l.09.02.01.03.02-.01v-.02h-.03a.15.15 0 0 0-.05-.05v-.02l.13-.04.06-.03.06-.03m-1.88 4.25v.01-.01Zm2.65-4.5a2 2 0 0 1 .13.17c.06.1.13.24.13.36l-.04.22a2.79 2.79 0 0 1-.27.58 1.63 1.63 0 0 0-.1.09 2 2 0 0 0-.51.24c-.4-.2-.72-.32-.96-.37a1.04 1.04 0 0 0-.3-.04c-.07 0-.13.02-.17.07-.29.35-.47.69-.57 1.06-.17-.05-.38-.02-.5.14a.63.63 0 0 0-.09.35c0 .31.12.83.58 1.65h.04l.03.08.01.01 1.17.1h.01l.06-.07h3.26l.01-.01v-.01a.89.89 0 0 0 0-.11.95.95 0 0 0-.05-.24c-.03-.23-.06-.4-.16-.59a.53.53 0 0 0-.1-.27 1 1 0 0 0-.1-.52v-.13c.02.02.03.06.04.13v.01c.03 0 .06.03.09.06a.5.5 0 0 1 .08.14c.05.1.07.25 0 .42l.02.02c.16.07.31.2.41.37.1.16.13.36.06.57v.02h.02c.05-.06.1-.15.14-.26l.12-.37a6.93 6.93 0 0 0 .12-2.78c-.03-.03-.07-.03-.13-.02a3.87 3.87 0 0 0-1.13.39c.02-.15.01-.31 0-.42a1.28 1.28 0 0 0 .07.06h.05l.02-.02v-.08c.02-.2-.02-.5-.24-.82a.9.9 0 0 0 .08.02H29.69v-.03a.1.1 0 0 0 0-.05m-.09 1.37h-.01c.02-.18.01-.37 0-.5h.02a1.63 1.63 0 0 0 .11.09l.01-.01.01-.07c0-.2-.03-.5-.27-.83v-.02h.02l.11.02H29.67v-.04c-.11-.26-.26-.52-.58-.7v-.02a4.58 4.58 0 0 1 .2-.02v-.02a.82.82 0 0 0-.23-.19.9.9 0 0 0-.35-.12l-.01-.01v-.02a1.73 1.73 0 0 0 .4-.4 2.35 2.35 0 0 0-.99.23V15a.5.5 0 0 0 .06-.16l-.01-.12m1.44 2.92a3.84 3.84 0 0 1 1.15-.4c.06 0 .1 0 .11.03l.03.05.03.1.02.26a11.04 11.04 0 0 1-.04 1.46 6.89 6.89 0 0 1-.29 1.24l-.08.18a.7.7 0 0 0-.09-.52 1 1 0 0 0-.41-.37.59.59 0 0 0-.1-.58.29.29 0 0 0-.08-.06c0-.09-.04-.14-.08-.17h-.01l-.01.02v.16a.98.98 0 0 1 .11.53.5.5 0 0 1 .1.27c.1.19.12.35.15.58a.92.92 0 0 1 .05.32v.02h-3.25l-.06.07-1.15-.1m2.57-4.57-.01.02a.68.68 0 0 1-.06.05c-.1.12-.21.14-.36.14h-.17c-.05.01-.1.02-.16.06l-.06.03-.06.03a.52.52 0 0 1-.1.03.3.3 0 0 1 .05.06v.02h-.04a.66.66 0 0 1-.1-.02.2.2 0 0 1-.11-.07.2.2 0 0 1-.08-.04l-.06-.06v-.03a.42.42 0 0 0 .23-.11l.13-.11m.85-1.48c-.24.14-.44.36-.53.55l.53-.55Z" fill="#00290C"/><path d="M28 21.44a9.37 9.37 0 0 0-9.28 9.41A9.37 9.37 0 0 0 28 40.27a9.37 9.37 0 0 0 9.28-9.42A9.37 9.37 0 0 0 28 21.45Z" fill="url(#bdlagtj13)"/><path d="M28.77 39.18c0-.14-.31-.3-.78-.3-.46 0-.77.16-.77.3 0 .14.3.3.77.3.47 0 .78-.16.78-.3Zm3.45.1c-1.3.3-2.15.57-3.49.12-.15.11-.42.18-.69.18v.7h-.1v-.7a1.3 1.3 0 0 1-.69-.18c-1.36.46-2.16.17-3.48-.11l-.23-.15c1.3.28 2.32.61 3.63.18a.23.23 0 0 1-.04-.17c-6.2-.79-7.32-6.5-7.32-9.66 0-2.4.95-4.51 2.3-6l.1.04a8.92 8.92 0 0 0-2.3 5.96c0 3.17 1.1 8.8 7.25 9.57a.41.41 0 0 1 .14-.12c-1.5-.82-2.76-3.54-2.75-8.44 0-4.68 1.6-9.11 3.44-9.11 1.91 0 3.44 4.43 3.44 9.1 0 4.86-1.2 7.61-2.75 8.44.06.04.11.08.14.13 6.14-.78 7.25-6.39 7.25-9.57v-.15l-.44-.3c-.01 0-.03.02-.05.01a.1.1 0 0 1-.11-.1c0-.05.04-.1.1-.1.07 0 .11.05.11.1l.39.27c0-.2-.01-.39-.03-.58l-.46-.32-.06.02a.1.1 0 0 1-.11-.1c0-.05.04-.1.1-.1.07 0 .11.04.12.1l.4.27a9.62 9.62 0 0 0-.08-.62l-.5-.34c-.01 0-.03.02-.05.01a.1.1 0 0 1-.11-.1c0-.05.04-.1.1-.1.06 0 .11.05.11.1l.43.3-.13-.6-.53-.37-.05.02c-.06 0-.11-.04-.11-.1 0-.05.04-.1.1-.1.06 0 .1.04.11.1l.44.3a8.09 8.09 0 0 0-1.98-3.49l.07-.1a8.28 8.28 0 0 1 2.03 3.67l.38.25.05-.01c.06 0 .11.05.1.1 0 .07-.05.1-.1.1a.1.1 0 0 1-.1-.1l-.29-.2.12.6.4.27.05-.01c.07 0 .11.04.1.1 0 .07-.04.1-.1.1a.1.1 0 0 1-.1-.1l-.33-.23.07.62.43.3c.01-.02.03-.02.06-.02.06 0 .1.05.1.1 0 .07-.05.1-.1.1a.1.1 0 0 1-.11-.1l-.37-.25.03.57.45.31.05-.01c.07 0 .11.05.1.1 0 .07-.04.1-.1.1a.1.1 0 0 1-.1-.1l-.4-.27v.08c0 3.18-1.12 8.86-7.3 9.66a.22.22 0 0 1-.06.17c1.3.42 2.31.1 3.59-.17l-.18.14ZM28 21.49c-1.73 0-3.34 4.3-3.34 9.02 0 4.97 1.28 7.64 2.75 8.38.17-.07.38-.1.6-.1.2 0 .4.03.57.1 1.52-.75 2.76-3.46 2.76-8.38 0-4.72-1.54-9.01-3.34-9.01Z" fill="#fff"/><path d="M28.17 32.92v.14l.1-.1a1.08 1.08 0 0 0-.1-.04Zm.31.21-.13.3c.1.13.17.3.17.48v.04l.27.16a1.1 1.1 0 0 0-.3-.98Zm.22 1.25-.31-.03a.78.78 0 0 1-.43.32l-.07.3c.36-.05.66-.27.8-.59Zm-1.09.59-.06-.3a.78.78 0 0 1-.46-.32l-.29.03c.16.31.46.54.81.59Zm-.9-.86.25-.14v-.06c0-.2.07-.37.18-.5l-.12-.28a1.08 1.08 0 0 0-.3.98Zm.53-1.14.1.09v-.14l-.1.05Zm4.2-1.68c.03-.01.19-.07.29-.01 0 0-.12-.12 0-.3.01-.01.13-.16.15-.21l.02.04s0-.14.08-.26l.1.13s0-.23.08-.34c0-.01-.03-.05-.03-.2l-.02-.16c0-.02.06 0 .09.03 0 0-.07-.17-.04-.26 0-.01-.03.04-.1.06-.02 0 .05.02.07.05 0 0-.05 0-.13.11h.06s-.2.2-.3.2c0 0 .1 0 .14.02l-.11.13s-.08.22-.4.2l-.02.1a.72.72 0 0 1 .32-.07s-.06.04-.12.14c0 0-.07.13-.16.13 0 0 .16 0 .25-.09 0 0 .03.43-.28.52a.5.5 0 0 0 .06.04Zm-7.37 0a.53.53 0 0 0 .05-.04c-.3-.09-.28-.52-.28-.52.09.1.25.09.25.09-.09 0-.16-.12-.16-.13-.05-.1-.12-.14-.12-.14.17 0 .28.04.32.06l-.02-.1c-.31.03-.39-.19-.4-.19l-.11-.13.13-.02c-.09 0-.3-.2-.3-.2h.07c-.08-.1-.13-.1-.13-.11.02-.03.09-.05.08-.05-.07-.02-.1-.07-.1-.06.03.09-.05.27-.04.26.03-.03.08-.05.08-.03-.02.13-.01.15-.01.16 0 .15-.04.19-.04.2.08.11.08.35.08.34l.1-.13c.08.12.08.27.08.26l.02-.04c.02.05.14.2.15.21.12.18 0 .3 0 .3.1-.06.27 0 .3.01Zm1.61-.3c.12.02.06.35.03.5h.1c.08 0 .14 0 .17.02.05 0 .1-.01.13-.05l-.13-.08c-.1-.07-.18-.06-.17-.06.17-.27.43-.02.47.02a.9.9 0 0 1 .14-.03c-.06-.05-.13-.15-.14-.16.02.02.17 0 .18 0 .2-.05.3.03.3.03l-.02-.05c-.04-.1-.1-.1-.1-.1.16-.1.29-.03.28-.05-.02-.05-.03-.2-.02-.2.16.03.2.1.21.1.08.1.12.4.13.47l.16.04a.38.38 0 0 1 .35-.5c.01-.15-.36-.55-.86-.55h-1.75c-.4 0-.8-.4-.8-.81v-7.07h2.36c-.84-.07-1.41-.23-1.5-.4l-1.1-1.82s.28.28.47.22c.2-.06.23-.2.22-.45-.02-.24.3.35.7.27.35-.08.17-.58.39-.36.21.23.46.19.54.08.08-.1.2-.26.25-.41.05-.16.04-.22.23.04s.4.47.63.26c.22-.2.2-.39.28-.2.08.19.3.34.44.26.14-.08.3-.19.46-.43.16-.24.08.18.38.47.31.3.57-.06.62-.1.06-.05.05-.1.07.05.01.15.11.38.39.35.28-.03.5-.27.54-.34.05-.06.02.2.02.2s-.02.42.36.29l.08-.03c.06-.03.22-.17.22-.17l-1.1 1.82c-.09.16-.66.32-1.52.4h2.4v7.06c0 .42-.4.82-.8.82H28.6c-.5 0-.85.4-.85.56a.37.37 0 0 1 .35.5c.03-.02.08-.03.16-.05 0-.07.04-.38.12-.46 0 0 .05-.08.21-.11.02 0 0 .15-.02.2 0 .02.12-.04.28.04 0 0-.06.01-.1.1l-.02.06s.1-.08.3-.04c.01 0 .16.03.19 0l-.14.17.13.03c.05-.04.3-.29.47-.02 0 0-.06-.01-.16.06l-.13.08c.03.04.07.05.13.05a.28.28 0 0 1 .16-.02h.09c-.03-.15-.09-.48.02-.5l.48-.13c.04-.01.09.03.12.1l.29-.08.04-.13.26-.07c.1-.02.18.2.2.27l-.15.03.02.05.15-.04.05.16c.01 0 .03 0 .04.02a1.8 1.8 0 0 1 0-.47c-.04-.02-.15-.06-.2-.19 0 0-.01-.17-.04-.22-.01-.01.19.06.22.14 0 0-.06-.23.11-.43l.09.18c-.02-.04-.05-.13.02-.3l.1-.21s0 .06.05.16l.05.13c0-.05.04-.27.3-.3 0 0 0-.06.05-.12-.16-.01-.4-.04-.4-.14v-.5c0-.04.04-.07.1-.1v-.29l-.1-.08v-.28c0-.1.24-.12.3-.13v.16l.04-.01V28h.42v.16h.05v-.15c.06 0 .3.03.3.13v.28l-.12.07v.3c.07.02.12.05.12.1v.5c0 .12-.39.14-.52.14 0 .06 0 .12-.04.16 0 0 .02.04.06.06 0 0 .17.08.17.27 0 0 .1-.08.17-.07 0 0-.03.06-.03.16 0 .01.11.28-.26.37 0 0 0 .14-.04.22 0-.02.12-.22.41-.17.01 0-.03 0-.08.1 0 .01-.08.31-.38.17l-.07.15s.28-.13.45.06c0 .01-.04-.01-.12.06 0 0-.12.11-.3.06 0 0 .15.05.2.1 0 0-.09-.01-.2.08 0 0-.14.17-.36.03l.08.09s.06.04.09.04c0 0-.3.13-.5-.1a.52.52 0 0 1-.09-.04l.01.04c.01.04-.05.06-.06.02l-.03-.12a.75.75 0 0 1-.04-.05l.03.17-.15.04v.04l.16-.04c0 .07.04.31-.06.34l-.26.06-.1-.08-.29.07c0 .06-.02.11-.06.13l-.48.11c-.1.03-.2-.26-.25-.42a.27.27 0 0 1-.1.04c-.02 0-.07.04-.09.15 0 0-.02.14-.13.18-.02 0 .14.06.2.12 0 0-.16.02-.28.1-.01 0-.2.01-.28-.07 0-.01.04.1.13.13 0 0-.31.14-.53-.13h-.07l.1.22s-.45-.01-.45-.28l-.03-.04-.05-.03c.02.04.03.1.03.14 0 0 .01.13.04.16 0 0-.41-.19-.23-.46a.78.78 0 0 1-.12-.23c0-.04.05-.06.06-.02l.05.11.02.04a.35.35 0 0 1 .46.02c.01 0-.03-.01-.18.07-.01 0-.1.07-.2.03l.12.1.1-.05s.09-.17.41-.17l-.06.12s-.02.08-.06.1l.05.05c0 .01 0-.24.38-.33 0 0-.03.02-.05.15 0 0 .05-.14.24-.14 0 0 .09-.03.1-.05l-.04.12s.17-.11.27-.11l-.14-.07s-.34.14-.45-.25h-.12s.07.07.11.17l.1.14c.02 0-.24-.03-.33-.12l.03.1c0 .01-.14-.1-.24-.1-.01 0-.2 0-.26-.16l-.21.06a.57.57 0 0 1-.26.18c0 .02-.02.03-.03.04l.11.67v-.12c.05.01.23.03.23.1v.2l-.1.06c.15.05.28.11.4.2l.18-.17a.12.12 0 0 1-.03-.08c0-.06.05-.11.12-.11.06 0 .11.05.11.11s-.05.12-.11.12l-.05-.01-.1.22a1.34 1.34 0 0 1 .44 1.38l.23.14a.11.11 0 0 1 .1-.06c.05 0 .1.05.1.12 0 .06-.05.11-.1.11a.12.12 0 0 1-.12-.11l-.27-.03c-.18.46-.62.8-1.14.82l-.05.28c.05 0 .09.06.09.11 0 .06-.06.12-.11.12a.12.12 0 0 1-.12-.12c0-.05.04-.1.09-.11l-.06-.28a1.32 1.32 0 0 1-1.14-.83l-.26.02c0 .08-.06.13-.12.13a.12.12 0 0 1-.11-.11c0-.07.05-.12.11-.12.04 0 .08.02.1.06l.23-.14a1.36 1.36 0 0 1 .43-1.38l-.11-.25a.1.1 0 0 1-.06.01.12.12 0 0 1-.12-.11c0-.07.06-.12.12-.12s.11.05.11.12c0 .03 0 .05-.02.07l.2.2c.12-.08.25-.14.39-.18l-.08-.07v-.2c0-.08.18-.1.22-.1v.11l.12-.67c-.13-.07-.22-.14-.26-.24l-.04.02-.2-.06c-.07.16-.25.16-.26.16-.11 0-.25.11-.25.1l.03-.1c-.09.1-.34.12-.34.12a.7.7 0 0 0 .1-.14c.05-.1.13-.17.12-.17h-.12c-.1.39-.44.24-.45.25-.03.03-.15.07-.13.07.1 0 .26.11.26.1a.98.98 0 0 1-.04-.11c.01.02.1.05.1.05.19 0 .25.15.24.14-.02-.13-.06-.15-.04-.15.37.09.37.34.37.33l.05-.05c-.04-.02-.06-.1-.06-.1 0-.04-.07-.12-.06-.12.32 0 .41.17.42.17l.1.05a.61.61 0 0 0 .1-.1c-.08.04-.18-.02-.19-.03-.15-.08-.19-.07-.18-.07.2-.17.4-.07.46-.02l.02-.04.05-.1c.01-.05.07-.03.06 0 0 .01-.03.12-.12.24.19.27-.22.47-.22.46a.5.5 0 0 0 .04-.16c0-.04 0-.1.02-.14l-.05.03a.19.19 0 0 0-.03.04c0 .27-.46.28-.45.28 0-.03.08-.18.1-.22h-.07c-.21.27-.53.13-.53.13a.27.27 0 0 0 .13-.13c-.08.08-.26.07-.28.06-.12-.07-.28-.08-.28-.09.06-.06.22-.12.2-.12-.1-.04-.13-.17-.13-.18-.02-.11-.07-.15-.08-.15a.28.28 0 0 1-.12-.05c-.04.16-.14.46-.25.44l-.48-.12c-.04-.02-.06-.07-.07-.13l-.28-.07-.1.08-.26-.06c-.1-.03-.07-.27-.06-.34l.15.04v-.04l-.14-.04.03-.15-.06.15c-.01.04-.07.02-.06-.02l.01-.04a.52.52 0 0 1-.08.05c-.21.22-.5.1-.5.1a.2.2 0 0 0 .08-.05l.08-.1c-.22.15-.35-.01-.36-.02-.11-.1-.2-.08-.19-.09.04-.04.2-.09.19-.09-.17.05-.29-.05-.3-.06-.07-.07-.13-.05-.12-.06.18-.19.45-.06.45-.06l-.07-.15c-.3.14-.37-.16-.37-.17-.06-.1-.1-.1-.1-.1.3-.05.42.15.43.17-.04-.08-.04-.22-.05-.22-.37-.1-.26-.36-.26-.37 0-.1-.03-.16-.02-.16.06 0 .16.08.16.07 0-.2.17-.26.18-.27.04-.02.06-.05.05-.06-.04-.04-.04-.1-.04-.15-.12 0-.53-.02-.53-.15v-.5c0-.04.05-.07.1-.1v-.29l-.1-.08v-.28c0-.1.24-.12.3-.13v.16l.05-.01v-.16h.41v.16h.05v-.15c.07 0 .3.03.3.13v.28l-.11.07v.3c.07.02.12.05.12.1v.5c0 .1-.23.13-.4.14.05.06.05.11.05.11.26.04.3.26.3.31l.06-.13.05-.16.1.2c.06.18.04.27.01.31.04-.06.08-.19.1-.18.16.2.1.44.1.43.04-.08.23-.15.23-.14-.04.05-.05.21-.05.22-.05.13-.16.17-.2.19.03.15.02.31 0 .47l.08-.18.15.04.01-.05-.15-.03c.03-.07.1-.3.2-.27l.27.07.04.13.28.07c.04-.06.09-.1.13-.09l.47.12Zm6.6-3.2a.83.83 0 0 0 .17-.13c-.03-.05-.14-.18-.14-.2 0 0-.08-.07.05-.3 0 0-.02.08.11.17 0 0 .13.07.06.23l.07-.14c-.04-.04-.17-.14-.2-.34 0-.01-.02-.12.04-.18 0-.01.18.08.22.28v-.21c-.05 0-.17 0-.25-.27l-.03-.18-.02-.07-.04-.06s-.1-.03-.19-.13c-.08.21-.22.23-.25.23l-.02.19a.49.49 0 0 1 .22-.24c-.06.1-.02.26-.02.27.02.23-.19.3-.2.3l.02.05c0 .03.02.05.02.05.05-.2.22-.25.21-.24-.04.05-.02.2-.01.22.04.18-.09.24-.14.26l.09.18c-.04-.18.11-.37.11-.37l.08.22c.08.2-.04.28-.08.3l.12.1Zm.48-2c0 .08-.2.12-.37.13.03.04.05.1.03.16 0 0 .17.05.17.12 0 0 .08-.21.17-.24 0 0-.02.05 0 .13 0 0 .16.24-.11.45l-.01.04.03.1c0-.04.04-.15.08-.18 0 0 .06-.1.14-.13 0 0 .06.24 0 .31l.15-.08s-.07.1-.07.25c0 .01 0 .23-.25.18v.12a.61.61 0 0 1 .34-.13s-.1.06-.13.21c0 .02-.02.14-.08.17-.01 0 .08-.03.21.11 0 .01-.08.01-.21.11-.01.01-.16.14-.28-.04a.83.83 0 0 1-.25.24l.06.04-.02.04-.08-.06-.11.05-.02-.05s.04 0 .08-.03l-.13-.13c-.2.11-.27-.03-.28-.03-.02-.05-.17-.25-.16-.25.11-.04.24.03.32.1l-.07-.14c-.3-.06-.31-.44-.3-.44l.14.04c-.11-.08-.12-.18-.12-.2 0-.13-.06-.17-.05-.17.12-.03.2.05.23.1 0-.1.02-.19.04-.28-.15-.08-.09-.47-.08-.47.17.12.16.32.17.28 0-.03.1-.1.12-.11.06-.03.09-.12.1-.11 0 .03 0 .08.02.13h.06s-.1-.08-.1-.2c-.15 0-.5-.02-.5-.15v-.5c0-.04.05-.07.11-.1v-.28l-.1-.09v-.27c0-.1.24-.13.3-.14v.16h.04v-.16h.42v.16h.05v-.16c.06.01.3.03.3.14v.27l-.12.08v.3c.07.02.12.05.12.1v.5Zm-.49-1.57a.82.82 0 0 0 .17-.13l-.14-.19c0-.01-.08-.08.05-.3 0-.01-.02.07.11.16 0 0 .13.08.06.24l.08-.14c-.05-.05-.18-.15-.21-.34 0-.02-.02-.12.04-.19 0 0 .18.08.23.29v-.22c-.05 0-.18 0-.26-.27l-.03-.18-.02-.06c0-.01-.02-.07-.04-.07 0 0-.1-.03-.18-.12-.09.2-.23.22-.26.22l-.02.2a.49.49 0 0 1 .23-.25c-.07.1-.03.26-.02.27.02.23-.2.3-.2.3v.05l.03.05c.06-.2.22-.24.22-.24-.05.05-.03.21-.02.23.04.17-.08.24-.14.25l.1.18c-.04-.18.1-.36.1-.36l.09.21c.07.21-.05.28-.08.3l.11.1Zm.4-2.63c.1.1-.25.46-.29.5 0 .02-.05.06-.1.11 0 .03.01.07.05.1 0 0 .12.09.09.21 0 0 .16.05.16.12 0 0 .08-.2.17-.24.01 0-.02.06 0 .14 0 0 .16.24-.11.44l-.01.05.03.1c0-.05.04-.16.08-.19 0 0 .07-.09.14-.13 0 0 .06.24 0 .32l.15-.09s-.07.1-.07.25c0 .01 0 .23-.25.18v.12a.6.6 0 0 1 .34-.13s-.1.06-.13.22c0 .01-.02.14-.08.16 0 0 .09-.03.21.12 0 0-.08 0-.21.1-.01.02-.16.15-.27-.04a.83.83 0 0 1-.26.24.6.6 0 0 0 .07.04c.02.02 0 .06-.03.05l-.08-.06a.63.63 0 0 1-.11.05c-.03 0-.05-.04-.01-.05l.08-.04-.14-.13c-.2.11-.27-.02-.27-.03-.03-.04-.18-.24-.17-.25.12-.03.24.04.32.1a1.2 1.2 0 0 1-.07-.13c-.3-.06-.31-.44-.3-.45l.14.05c-.11-.09-.12-.19-.12-.2 0-.13-.05-.18-.05-.18.12-.03.2.05.23.1 0-.1.02-.19.04-.28-.14-.07-.09-.47-.08-.47.17.12.16.32.17.29 0-.04.1-.11.12-.12.06-.03.09-.12.1-.11 0 .03 0 .09.02.14l.07-.01s-.13-.1-.1-.25c-.1.07-.2.12-.25.08l-.35-.35c-.03-.04-.02-.09 0-.15l-.2-.2-.13.01-.19-.2c-.07-.07.08-.25.12-.3l.11.1-.08-.14.3-.3.1.11.04-.03-.11-.11c.05-.04.23-.2.3-.12l.2.2-.03.13.2.21c.07-.03.13-.04.16-.01l.34.35Zm-9.45 6.2.12-.12c-.04-.01-.16-.08-.08-.3l.08-.2s.15.18.11.36l.1-.18c-.06-.02-.18-.08-.14-.26 0-.01.03-.17-.02-.22 0 0 .16.04.22.24l.02-.05V27s-.21-.07-.2-.3c.01-.01.05-.17-.01-.27 0 0 .17.1.22.24l-.02-.2c-.02 0-.17 0-.25-.22a.37.37 0 0 1-.19.13l-.03.06a.3.3 0 0 1-.03.07l-.02.18c-.09.27-.21.27-.26.27v.21c.05-.2.22-.3.22-.28.06.06.05.17.05.18-.04.2-.17.3-.21.34l.07.14c-.07-.16.06-.23.06-.23.13-.1.11-.18.12-.17.12.23.04.3.04.3 0 .02-.1.15-.14.2.05.04.1.09.17.13Zm.63-2c0 .11-.34.13-.49.14 0 .12-.1.2-.1.2h.07c0-.05 0-.1.02-.13 0-.01.03.08.1.1 0 .01.11.09.12.12 0 .04-.01-.16.16-.28.01 0 .07.4-.08.47.02.09.04.19.04.28.04-.05.11-.13.23-.1 0 0-.04.04-.04.18 0 0-.01.11-.13.2 0 0 .12-.06.14-.05.02 0 0 .38-.3.44l-.07.14c.09-.07.2-.14.32-.1l-.16.25s-.08.14-.28.03l-.13.13.08.03-.01.05s-.05-.01-.11-.05a.69.69 0 0 1-.09.06l-.02-.04.06-.04a.84.84 0 0 1-.25-.24c-.11.18-.26.05-.27.04-.13-.1-.22-.1-.22-.1.13-.15.22-.12.21-.12-.05-.03-.08-.15-.08-.17-.02-.15-.13-.21-.13-.21.16 0 .3.1.34.13v-.12c-.25.05-.24-.17-.24-.18 0-.15-.08-.25-.07-.25l.14.08c-.05-.07 0-.31 0-.31.08.04.14.13.15.13.03.03.07.14.08.18l.02-.1v-.04c-.27-.2-.12-.44-.11-.45.01-.08-.02-.13-.01-.13.09.03.17.24.17.24 0-.07.17-.12.17-.12a.19.19 0 0 1 .03-.16c-.16 0-.38-.04-.38-.14v-.5c0-.04.05-.07.1-.1v-.28l-.1-.09v-.27c0-.1.24-.13.3-.14v.16h.05v-.16h.41v.16h.05v-.16c.07.01.3.03.3.14v.27l-.11.08v.3c.07.02.12.05.12.1v.5Zm-.62-1.57.12-.11c-.04-.02-.16-.09-.08-.3l.08-.21s.15.18.11.36l.1-.18c-.06-.01-.19-.08-.14-.25 0-.02.02-.18-.02-.23 0 0 .16.04.21.24 0 0 .02-.02.02-.05l.01-.04c0-.01-.21-.08-.2-.3 0-.02.05-.17-.01-.28-.01 0 .17.1.22.24l-.02-.19c-.03 0-.17-.01-.25-.22a.36.36 0 0 1-.2.12l-.03.07-.02.06-.02.18c-.1.28-.21.28-.27.27v.22c.05-.2.23-.3.23-.29.06.07.05.17.04.19-.03.2-.16.3-.2.34l.07.14c-.07-.16.06-.24.06-.24.13-.09.11-.17.12-.17.12.23.04.3.04.31l-.14.2.17.12Zm.4-1.83c-.05.05-.16-.01-.27-.1.04.16-.1.27-.1.27h.07c.02-.04.01-.1.03-.13 0 0 .03.08.1.11 0 0 .1.08.11.12 0 .03 0-.17.17-.29 0 0 .07.4-.08.47l.04.28c.03-.05.1-.13.23-.1 0 0-.05.05-.05.18 0 .01 0 .11-.12.2l.14-.05c.01 0 0 .39-.3.45l-.07.14c.08-.07.2-.14.32-.1l-.16.24s-.08.14-.28.03c-.04.05-.08.1-.13.13l.08.04c.03 0 .01.05-.02.05l-.1-.05a.7.7 0 0 1-.1.06c-.02.01-.04-.03-.01-.05l.06-.04a.84.84 0 0 1-.25-.24c-.12.19-.27.06-.28.05-.13-.1-.22-.1-.2-.11.12-.15.21-.11.2-.12-.06-.02-.08-.15-.08-.16-.02-.16-.14-.22-.13-.22.16 0 .3.1.34.13v-.12c-.25.05-.24-.17-.24-.18 0-.14-.09-.25-.08-.25l.15.09c-.06-.08 0-.32 0-.32.08.04.14.13.15.13.03.03.06.14.07.18l.03-.1v-.04c-.27-.2-.12-.44-.12-.44.02-.08 0-.14 0-.14.09.03.17.25.17.24 0-.07.17-.11.17-.12-.03-.12.07-.2.08-.21a.15.15 0 0 0 .06-.11 2.54 2.54 0 0 1-.1-.1c-.04-.03-.39-.4-.28-.5l.34-.35c.03-.03.08-.02.14.01l.2-.2v-.14l.18-.2c.07-.07.26.09.31.13l-.1.1.14-.08.29.3-.11.11.03.04.11-.11c.04.05.2.24.12.31l-.2.2-.13-.04-.2.21c.03.07.04.13 0 .16l-.34.35Z" fill="#003C71"/><path d="M29.6 17.64c.29-.18.91-.37 1.15-.4.12-.02.15 0 .18.17s.05 1.17-.02 1.73a3.84 3.84 0 0 1-.42 1.5c.16-.44-.15-.81-.48-.97.12-.34-.08-.6-.18-.63 0-.1-.03-.14-.07-.16v.16a1 1 0 0 1 .11.52c.06.1.07.13.1.28.1.19.12.35.15.58.06.16.06.36.06.36h-3.26l-.07.07-1.16-.1-.04-.09h-.04c-.9-1.64-.52-2.04-.32-2.11a.51.51 0 0 1 .33 0c.1-.38.28-.72.57-1.07.13-.16.62-.04 1.42.35.14-.1.33-.19.52-.25l.1-.09c.27-.48.45-.9.04-1.36l-.08.1c-.17.2-.47.07-.69.19-.1.05-.12.07-.24.1a.2.2 0 0 1 .07.07c-.1-.02-.18-.02-.23-.1-.07-.01-.09-.03-.14-.1.06 0 .16-.05.2-.09.05-.04.07-.07.16-.13a.34.34 0 0 1 .23-.1l-.36-.05c-.06.02-.18.02-.18.02l-.02.05s-.06 0-.1-.05a.84.84 0 0 1-.12-.02c.03-.2.19-.33.29-.33.05-.04.18-.13.26-.16.1-.14.1-.17.32-.3.1-.18.29-.4.53-.53.04.08.01.2-.05.3.42-.18.6-.23 1-.24-.06.13-.25.32-.4.43.25.03.49.21.56.3.06.08.02.06-.18.08.32.18.47.44.58.7.02.08 0 .1-.2.04.24.33.28.63.27.84 0 .14-.04.1-.15 0 .02.12.03.3 0 .49Z" fill="#00290C"/><path d="M27.89 15.16c.44-.2.72-.29 1.1-.32-.14.13-.34.3-.47.38.29.02.42.1.65.26-.13.01-.2.02-.3.05.2.1.6.41.7.7-.08 0-.16-.03-.26-.03.17.23.35.45.35.86l-.16-.07c.05.27.06.46-.04.84.18.51.22.7.2 1.23.06.16.15.3.12.55.07.06.1.13.1.25.05.11.18.47.17.59.05.15.04.3.04.32h-2.2c.29-.1.53-.2.73-.49.4-.34.64-.78.72-1.39-.2.69-.43 1-.78 1.33-.24.32-.59.48-.85.54h-.18s.18-.42.2-.69c.1-.16.13-.26.12-.42.33-.29.42-.47.45-.73-.15.36-.22.4-.51.68a.74.74 0 0 1-.15.45c-.03.16-.1.46-.22.72h-.52c.03-.37.06-.55.17-.79 0-.23.07-.47.2-.68 0-.25.15-.95.57-1.34.23-.32.42-.43.54-.5a4 4 0 0 0 .28-.72c.01-.19-.15-.54-.32-.68.09-.16.07-.2.05-.33l-.05.2c-.02.04-.23.22-.29.26a.37.37 0 0 1-.22.06c-.09 0-.17 0-.32.07-.1.05-.26.16-.41.09.07-.01.12-.06.2-.13.06-.06.04-.1.4-.22-.11-.07-.38-.1-.46-.11-.08-.02-.2.02-.37.01.02-.06.1-.2.21-.2a.59.59 0 0 1 .27-.13c.19-.24.13-.25.43-.43l-.08.02c.07-.13.26-.33.43-.47 0 .15-.06.24-.12.33-.06.02-.12.08-.12.08Zm-2.2 5.59-.04-.09h.05c-.32-.6-.9-1.92-.38-2.06a.5.5 0 0 1 .29.01c-.13.58-.05 1.24.19 2.12 0-.1.22-.82.65-1.01a4.42 4.42 0 0 1-.2-.5c.09-.22.2-.33.48-.3.1-.31.23-.5.43-.62a.84.84 0 0 0-.46.47 4.57 4.57 0 0 1-.3-.71c.05.32.18.63.22.74-.18.02-.31.09-.41.28a3 3 0 0 1 .02-1.51 2.8 2.8 0 0 0 .12 2.12c-.26.15-.42.34-.55.75-.28-1.36-.24-2.03.43-2.9.16-.22 1.08.2 1.37.4.14-.08.25-.14.36-.17l-.12.18c-.35.23-.68.88-.69 1.35-.13.2-.18.4-.17.69-.1.2-.16.48-.15.79h.09l-.07.07-1.16-.1Zm3.89-3.01c.36-.2.8-.36 1.13-.42.12-.03.14 0 .15.1a9.27 9.27 0 0 1-.26 2.9c.07-.47.03-.74-.25-.94.3-.84.38-1.08.46-1.92a8 8 0 0 1-.54 1.94c.3.23.36.45.3.8a.9.9 0 0 0-.45-.57c0-.21.02-.45-.2-.64-.04-.13-.09-.2-.16-.22l-.01-.25.47-.67-.48.57a2.6 2.6 0 0 0-.18-.62l.02-.06Z" fill="url(#cdlagtj13)"/><path d="M22.67 15.65c.54.3.73-.22 1-.22-.54-.06-.37.24-1 .22ZM24.24 14.77c.58-.2.7.33.95.38-.54-.03-.32-.3-.95-.38ZM23.34 16.01c.5-.17.72.29.94.33-.47-.03-.4-.26-.94-.33Z" fill="#B57017"/><path d="M28 35.03c-.73 0-1.32-.6-1.32-1.34 0-.74.6-1.34 1.32-1.34.73 0 1.32.6 1.32 1.34 0 .74-.59 1.34-1.32 1.34Zm0-.27c.58 0 1.06-.48 1.06-1.07 0-.6-.48-1.07-1.06-1.07-.58 0-1.06.48-1.06 1.07 0 .59.48 1.07 1.06 1.07Z" fill="#009634"/><path d="m23.15 36.93.64-.35-.71-1.2 1.04-.6a145 145 0 0 1-.33-.57l-1.04.6-.4-.7 1.11-.65c-.1-.2-.21-.38-.32-.57l-1.73 1.03c.56 1.02 1.14 2.02 1.74 3.01ZM28.6 38.03c-.17.07-.36.1-.54.1-.51-.02-.9-.36-.9-.9 0-.53.37-.9.9-.91.18 0 .37.03.54.1l.14-.5a1.6 1.6 0 0 0-.7-.12c-.85.01-1.56.56-1.56 1.46.01.86.7 1.35 1.5 1.36.23 0 .49-.02.7-.11l-.08-.48ZM31.1 36.45l.7.26.48-1.14c.07.05.15.08.23.1.37.14.76.2 1.13.05.28-.12.47-.37.59-.65.1-.28.13-.59-.01-.86-.17-.33-.5-.51-.83-.65a6.06 6.06 0 0 0-.97-.32c-.43 1.08-.87 2.14-1.33 3.2Zm1.8-2.4c.11.01.21.05.3.1.3.11.47.36.35.68-.15.34-.49.4-.81.29a1.1 1.1 0 0 1-.23-.11l.4-.96Z" fill="#fff"/><path d="M27.77 31.05c0 .1.06.18.14.22a.13.13 0 0 1 .1-.04c.03 0 .07.01.09.04a.24.24 0 0 0 .14-.22c0-.13-.1-.24-.23-.24s-.24.1-.24.24Zm.3.41.12.67v-.12c.05.01.23.03.23.1v.2l-.1.07v.22c.06.01.1.04.1.07v.37c0 .11-.38.11-.42.11-.04 0-.41 0-.41-.1v-.38c0-.03.03-.05.07-.07v-.22l-.08-.06v-.2c0-.08.18-.1.23-.1v.11l.12-.67a.13.13 0 0 1-.03-.04.38.38 0 0 1-.27-.36c0-.2.17-.38.38-.38.2 0 .37.17.37.38 0 .17-.11.32-.27.36a.14.14 0 0 1-.04.04ZM32.86 21.46c.1.1-.25.46-.29.5-.04.05-.39.4-.5.3l-.34-.35c-.03-.04-.02-.09 0-.15l-.2-.2-.13.01-.19-.2c-.07-.06.08-.25.12-.3l.11.1.03-.03-.11-.1c.1-.12.19-.21.3-.3l.1.1.04-.03-.11-.1c.05-.05.23-.2.3-.13l.2.2-.03.13.2.21c.07-.03.13-.04.16-.01l.34.35Z" fill="#B57017"/><path d="M31.9 21.68c.07-.1.15-.18.18-.21.06-.06.29-.28.38-.29l.28.28a1.54 1.54 0 0 0-.23.16l-.13-.13c-.08-.08-.2-.04-.25.02-.06.06-.1.17-.02.25l.13.13-.06.07-.28-.28ZM31.48 21.28l.1-.15-.1-.1c.06-.06.1-.12.17-.17l.1.1.18-.14-.1-.1a.41.41 0 0 1 .11-.07l.12.12a2.31 2.31 0 0 0-.56.52l-.02-.01ZM31.6 21.3a2.65 2.65 0 0 1 .39-.38l.03-.02.27.27c-.12.08-.24.2-.27.23l-.14.16-.27-.27Z" fill="#E9B245"/><path d="M31.8 21.16a.1.1 0 0 1 .13 0 .1.1 0 0 1 0 .14.1.1 0 0 1-.13 0 .1.1 0 0 1 0-.14ZM23.8 22.23c-.1.1-.47-.25-.5-.29-.05-.04-.4-.4-.3-.5l.35-.35c.03-.03.09-.02.14 0l.2-.2v-.14l.18-.2c.07-.07.26.1.31.13l-.1.11.03.03.1-.11.3.3-.11.1.03.05.11-.12c.04.06.2.24.12.32l-.2.19-.13-.03-.2.2c.03.07.04.13 0 .17l-.34.34Z" fill="#B57017"/><path d="m23.58 21.26.2.18c.06.06.28.3.29.39l-.28.28a1.56 1.56 0 0 0-.16-.23l.13-.14c.08-.08.04-.2-.02-.25-.06-.06-.17-.1-.25-.02l-.13.13a1.8 1.8 0 0 0-.06-.06l.28-.28ZM23.97 20.83l.14.11.1-.1.18.16-.11.11.14.18.1-.1.07.1-.12.13c-.05-.12-.2-.29-.29-.38a2.36 2.36 0 0 0-.22-.2l.01-.01ZM23.96 20.96a2.8 2.8 0 0 1 .36.39s.02.01.02.03l-.26.27c-.08-.12-.2-.25-.23-.27l-.16-.15.27-.27Z" fill="#E9B245"/><path d="M24.02 21.31a.1.1 0 0 0 .1-.09.1.1 0 0 0-.1-.1.1.1 0 0 0-.1.1c0 .05.05.1.1.1Z" fill="#B57017"/><path d="M24.58 22.24h6.84v7.07c0 .4-.4.82-.8.82h-1.76c-.5 0-.85.4-.85.56 0-.17-.37-.56-.87-.56H25.4c-.4 0-.8-.41-.8-.82v-7.07Z" fill="#fff"/><path d="M26.99 32.18c.06 0 .11.06.11.12 0 .03 0 .05-.03.07l.65.58a.76.76 0 0 1 .56.01l.62-.56a.12.12 0 0 1-.03-.08c0-.06.05-.11.12-.11.06 0 .11.05.11.11s-.05.12-.11.12a.1.1 0 0 1-.05-.01l-.34.78a.8.8 0 0 1 .16.52l.74.44a.11.11 0 0 1 .1-.06c.06 0 .12.05.12.12 0 .06-.06.11-.12.11a.12.12 0 0 1-.11-.13l-.85-.08a.78.78 0 0 1-.44.32l-.18.85c.05.01.1.06.1.11 0 .06-.06.12-.12.12a.12.12 0 0 1-.11-.12c0-.05.04-.1.09-.11l-.18-.84a.78.78 0 0 1-.46-.33l-.83.08v.02c0 .06-.05.11-.11.11a.12.12 0 0 1-.12-.11c0-.07.06-.12.12-.12.04 0 .08.02.1.06l.71-.42v-.06c0-.2.07-.37.18-.5l-.34-.8a.11.11 0 0 1-.06.03.12.12 0 0 1-.12-.12c0-.06.06-.12.12-.12Z" fill="#B57017"/><path d="M24.31 31.07a.55.55 0 0 0 .06-.04V31c-.3-.07-.29-.5-.28-.5.09.1.25.09.25.09-.09 0-.16-.12-.16-.13-.05-.1-.12-.14-.12-.14.17 0 .27.04.32.07l-.02-.1c-.31.02-.4-.2-.4-.2l-.11-.13.13-.02c-.09 0-.3-.2-.3-.2h.07c-.08-.1-.13-.1-.13-.11.02-.03.09-.05.08-.05-.07-.02-.1-.07-.1-.06.02.1-.05.27-.04.26.02-.02.08-.04.08-.03-.02.13-.01.16-.01.17 0 .15-.05.18-.04.2.07.1.08.34.08.34.03-.06.1-.14.1-.14.08.12.08.27.08.26 0-.02.01-.05.02-.04.02.06.14.2.15.22.12.17 0 .3 0 .29.1-.06.27 0 .3.01Zm.2-.1s-.03.05-.08.09l-.03.12c-.01.04-.07.02-.06-.02l.01-.04a.5.5 0 0 1-.08.05c-.21.22-.51.1-.5.1a.2.2 0 0 0 .08-.05l.08-.09c-.22.14-.36-.02-.36-.03-.11-.09-.2-.08-.2-.09l.2-.09c-.18.05-.29-.05-.3-.06-.08-.07-.13-.04-.12-.06.17-.19.45-.06.45-.06l-.07-.15c-.3.14-.37-.16-.37-.17-.06-.1-.1-.1-.1-.1.3-.05.42.15.42.17-.04-.08-.03-.22-.04-.22-.37-.1-.26-.36-.26-.37 0-.1-.03-.16-.02-.16.06 0 .16.08.16.07 0-.2.17-.26.17-.26.04-.03.07-.06.06-.07-.1-.1 0-.33 0-.33a.5.5 0 0 0 .1.12c.1.08.1.16.1.16.26.04.3.26.3.31l.02.02c0-.06.03-.14.03-.15.05-.1.05-.17.06-.16l.09.2c.07.18.04.27.02.32l.02.02a.6.6 0 0 1 .07-.2c.17.2.11.43.11.42.04-.08.23-.15.23-.14-.04.05-.05.22-.05.22-.05.14-.16.17-.2.19.03.15.02.31 0 .47.03-.04.08 0 .05.03Z" fill="#009634"/><path d="M31.04 22.62H28.1v3.5h2.95v-3.5Z" fill="#00428C"/><path d="M28 25.36v-2.8h3.08v2.8h-3.09Z" fill="url(#ddlagtj13)"/><path d="m23.48 24 .12-.11c-.04-.02-.16-.09-.09-.3l.09-.21s.15.18.1.36c.05-.05.08-.11.1-.17-.05-.02-.18-.09-.14-.26 0-.02.03-.18-.02-.23 0 0 .16.04.22.24 0 0 .02-.02.02-.05l.01-.04s-.21-.08-.2-.3c0-.01.05-.17-.02-.27 0-.01.18.09.23.23l-.02-.19c-.03 0-.17-.01-.25-.22v-.01a.33.33 0 0 1-.2.13l-.03.07-.02.06-.03.18c-.08.28-.2.28-.26.27v.22c.05-.2.22-.3.23-.29.06.07.04.17.04.19-.03.2-.16.3-.2.34.01.05.04.1.07.14-.07-.16.05-.24.06-.24.13-.09.1-.17.11-.16.13.22.05.29.05.3l-.14.2.17.12Zm-.1.07.06-.04a.84.84 0 0 1-.25-.24c-.12.19-.27.06-.28.05-.13-.1-.22-.1-.21-.11.12-.15.22-.11.2-.12-.05-.02-.07-.15-.07-.16-.02-.15-.14-.22-.13-.22.16 0 .3.1.34.13v-.12c-.25.05-.25-.17-.25-.18 0-.14-.08-.25-.07-.24l.15.08c-.06-.08 0-.32 0-.32.07.04.14.13.14.13.04.03.07.14.08.18l.03-.1v-.04c-.28-.2-.12-.44-.12-.44.02-.08 0-.14 0-.14.09.03.17.25.17.24 0-.07.17-.11.17-.12-.03-.12.07-.2.08-.2.1-.1.04-.2.05-.2.3.24.05.45.05.45h.06l.02.01v-.14c.01 0 .04.08.1.11.01 0 .12.08.12.12 0 .03 0-.17.17-.29 0 0 .07.4-.08.47l.04.28c.03-.05.1-.13.23-.1 0 0-.05.05-.05.18 0 .01 0 .12-.12.2l.14-.05c.01 0 0 .39-.3.45l-.07.14c.08-.07.2-.14.32-.1l-.17.24s-.07.15-.27.03l-.13.14.08.03c.03 0 .01.06-.02.05l-.1-.05-.1.06c-.02.01-.04-.03-.01-.05Z" fill="#009634"/><path d="m30.54 21.84 1.1-1.82s-.19.16-.23.17l-.08.03c-.37.13-.36-.29-.36-.29s.04-.26-.01-.2c-.05.07-.26.3-.54.34-.28.03-.38-.2-.4-.35 0-.15 0-.1-.06-.05-.05.04-.31.4-.62.1-.3-.29-.23-.71-.38-.47s-.32.35-.46.43c-.14.08-.36-.07-.44-.26-.08-.19-.07 0-.29.2-.22.2-.44 0-.63-.26-.18-.26-.17-.2-.22-.04-.04.15-.17.31-.25.41-.09.1-.33.15-.55-.08-.2-.22-.03.28-.38.36-.4.09-.72-.5-.7-.27 0 .25-.03.4-.22.46-.2.06-.47-.23-.47-.23l1.1 1.82c.12.23 1.14.44 2.54.44 1.41 0 2.43-.22 2.55-.44Z" fill="#B57017"/><path d="M26.22 19.48c.05.04.23.1.25.1.39 0 .25-.52.22-.58-.24-.39-.44-.05-.46-.02-.08.15-.09.05-.06 0 .12-.23.02-.34-.04-.36-.24-.1-.55.08-.58.11-.2.23.15.42.15.43 0 .12-.27-.26-.44.03-.19.33.04.56.26.65.22.08.4-.36.4-.36s.13.1.2-.05l.1.05ZM24.95 19.82c.02.35-.4.31-.39.1 0-.21-.1-.24-.18-.3-.07-.04-.14.07-.14.07h-.03c-.02 0-.01-.1-.01-.1.02-.1 0-.33-.06-.24-.14.22-.48.14-.36-.06.13-.24.19-.14.21-.18.05-.07.28-.05.4.03.11.09.14.37.14.37l.02.01s.06-.13.12-.13c.1-.01.27.08.28.43ZM31.05 19.84c-.02.35.4.31.39.1 0-.22.1-.24.18-.3.07-.05.14.06.14.06h.03c.02.01.01-.09.01-.09-.02-.1 0-.34.06-.24.14.22.48.14.36-.07-.14-.24-.19-.13-.21-.18-.05-.07-.28-.05-.4.04-.11.08-.14.37-.14.37h-.02s-.06-.12-.12-.13c-.1 0-.27.09-.28.44ZM28.22 19.28c.03.05.19.15.2.15.38.1.38-.43.36-.5-.12-.43-.4-.16-.43-.13-.12.12-.1.02-.06-.02.18-.2.11-.32.06-.36-.21-.16-.55-.07-.59-.04-.26.16.04.44.03.45-.02.12-.2-.32-.43-.09-.26.27-.1.55.08.7.2.14.48-.24.48-.24s.1.12.2 0c.01-.01.09.07.1.08ZM30.2 19.57c.02.06.14.2.16.2.34.2.47-.31.47-.38 0-.45-.35-.26-.38-.25-.14.09-.1 0-.05-.03.22-.14.18-.28.14-.33-.16-.2-.51-.21-.55-.2-.3.1-.08.44-.09.45-.05.1-.1-.36-.39-.2-.33.19-.24.5-.1.7.15.18.52-.11.52-.11s.07.15.2.05l.07.1Z" fill="#B57017"/><path d="M28 22.15c1.28 0 2.32-.16 2.32-.35 0-.19-1.04-.34-2.32-.34-1.28 0-2.32.15-2.32.34 0 .2 1.04.35 2.32.35Z" fill="#7A4314"/><path d="M27.9 29.99c-.21-.15-.49-.24-.76-.24H25.4c-.2 0-.43-.24-.43-.44V26.3h2.95v3.69Z" fill="#00428C"/><path d="M24.87 29.06v-2.8h3.09v2.8h-3.09Z" fill="url(#edlagtj13)"/><path d="M27.9 22.62h-2.94v3.5h2.95v-3.5ZM31.04 26.3v3c0 .21-.23.45-.43.45h-1.75c-.27 0-.55.1-.77.24v-3.7h2.95Z" fill="#D60019"/><path d="M30.63 27.96h.06v-.04a.03.03 0 0 0-.06 0v.04Zm-.16.3v-.21h.04l.02-.25h-.06v-.14h.07v.08h.07v-.08h.1v.08h.07v-.08h.07v.14h-.06l.02.25h.05v.2h-.14v-.08a.06.06 0 0 0-.11 0v.08h-.14ZM29.5 26.7h.05v-.03a.03.03 0 0 0-.06 0v.04Zm-.17.3v-.21h.04l.02-.24h-.07v-.15h.08v.08h.07v-.08h.1v.08h.07v-.08h.07v.15h-.06l.02.24h.05v.2h-.14v-.07a.06.06 0 0 0-.12 0V27h-.13ZM30.63 26.7h.06v-.03a.03.03 0 0 0-.06 0v.04Zm-.16.3v-.21h.04l.02-.24h-.06v-.15h.07v.08h.07v-.08h.1v.08h.07v-.08h.07v.15h-.06l.02.24h.05v.2h-.14v-.07a.06.06 0 0 0-.11 0V27h-.14ZM28.44 26.7h.06v-.03a.03.03 0 0 0-.06 0v.04Zm-.16.3v-.21h.04l.02-.24h-.07v-.15h.08v.08h.07v-.08h.1v.08h.07v-.08h.07v.15h-.06l.02.24h.05v.2h-.14v-.07a.06.06 0 0 0-.12 0V27h-.13ZM28.44 27.97h.06v-.05a.03.03 0 0 0-.06 0v.05Zm-.16.29v-.21h.04l.02-.25h-.07v-.14h.08v.08h.07v-.08h.1v.08h.07v-.08h.07v.14h-.06l.02.25h.05v.2h-.14v-.08a.06.06 0 0 0-.12 0v.09h-.13ZM28.44 29.35h.06v-.04a.03.03 0 0 0-.06 0v.04Zm-.16.3v-.22h.04l.02-.24h-.07v-.14h.08v.08h.07v-.08h.1v.08h.07v-.08h.07v.14h-.06l.02.24h.05v.21h-.14v-.08a.06.06 0 0 0-.12 0v.08h-.13ZM30.63 29.35h.06v-.04a.03.03 0 0 0-.06 0v.04Zm-.16.3v-.22h.04l.02-.24h-.06v-.14h.07v.08h.07v-.08h.1v.08h.07v-.08h.07v.14h-.06l.02.24h.05v.21h-.14v-.08a.06.06 0 0 0-.11 0v.08h-.14Z" fill="#E9B245"/><path d="M30.28 27.06h-1.43v1.92h1.43v-1.92Z" fill="#fff"/><path d="M29.83 27.78h.33v.37c0 .04-.03.07-.06.07h-.07c-.02 0-.03.02-.03.03 0-.01 0-.02-.03-.02h-.07a.07.07 0 0 1-.07-.08v-.37Zm-.86 0h.33v.37c0 .04-.03.07-.07.07h-.07c-.02 0-.03.02-.03.03 0-.01 0-.02-.02-.02h-.07a.07.07 0 0 1-.07-.08v-.37Zm.43 0h.33v.37c0 .04-.03.07-.07.07h-.07c-.02 0-.02.02-.02.03 0-.01-.01-.02-.03-.02h-.07a.07.07 0 0 1-.07-.08v-.37Zm0 .6h.33v.37c0 .04-.03.07-.07.07h-.07c-.02 0-.02.01-.02.03 0-.02-.01-.03-.03-.03h-.07a.07.07 0 0 1-.07-.07v-.38Zm0-1.2h.33v.38c0 .04-.03.07-.07.07h-.07c-.02 0-.02.01-.02.03 0-.02-.01-.03-.03-.03h-.07a.07.07 0 0 1-.07-.07v-.38Z" fill="#00428C"/><path d="M27.5 24.3h.06v-.03a.03.03 0 0 0-.06 0v.04Zm-.16.3v-.21h.04l.02-.24h-.07V24h.08v.08h.07V24h.1v.08h.07V24h.07v.15h-.06l.02.24h.04v.2h-.13v-.08a.06.06 0 0 0-.12 0v.09h-.13ZM26.36 23.05h.06v-.04a.03.03 0 0 0-.06 0v.04Zm-.17.3v-.22h.05l.02-.24h-.07v-.15h.07v.09h.08v-.09h.1v.09h.07v-.09h.07v.15h-.06l.02.24h.04v.21h-.13v-.08a.06.06 0 0 0-.12 0v.08h-.14ZM27.5 23.05h.06v-.04a.03.03 0 0 0-.06 0v.04Zm-.16.3v-.22h.04l.02-.24h-.07v-.15h.08v.09h.07v-.09h.1v.09h.07v-.09h.07v.15h-.06l.02.24h.04v.21h-.13v-.08a.06.06 0 0 0-.12 0v.08h-.13ZM25.31 23.05h.06v-.04a.03.03 0 0 0-.06 0v.04Zm-.16.3v-.22h.04l.02-.24h-.07v-.15h.08v.09h.07v-.09h.1v.09h.07v-.09h.07v.15h-.06l.02.24h.04v.21h-.13v-.08a.06.06 0 0 0-.12 0v.08h-.13ZM25.31 24.3h.06v-.03a.03.03 0 0 0-.06 0v.04Zm-.16.3v-.21h.04l.02-.24h-.07V24h.08v.08h.07V24h.1v.08h.07V24h.07v.15h-.06l.02.24h.04v.2h-.13v-.07a.06.06 0 0 0-.12 0v.08h-.13ZM25.31 25.7h.06v-.05a.03.03 0 0 0-.06 0v.05Zm-.16.29v-.21h.04l.02-.25h-.07v-.14h.08v.08h.07v-.08h.1v.08h.07v-.08h.07v.14h-.06l.02.25h.04v.2h-.13v-.08a.06.06 0 0 0-.12 0V26h-.13ZM27.5 25.7h.06v-.05a.03.03 0 0 0-.06 0v.05Zm-.16.29v-.21h.04l.02-.25h-.07v-.14h.08v.08h.07v-.08h.1v.08h.07v-.08h.07v.14h-.06l.02.25h.04v.2h-.13v-.08a.06.06 0 0 0-.12 0V26h-.13Z" fill="#E9B245"/><path d="M27.15 23.4h-1.43v1.92h1.43V23.4Z" fill="#fff"/><path d="M26.7 24.12h.33v.38c0 .03-.03.07-.07.07h-.07c-.02 0-.02.01-.02.03 0-.02-.01-.03-.03-.03h-.07a.07.07 0 0 1-.07-.07v-.38Zm-.86 0h.33v.38c0 .03-.03.07-.07.07h-.07c-.02 0-.03.01-.03.03 0-.02 0-.03-.03-.03h-.07a.07.07 0 0 1-.06-.07v-.38Zm.43 0h.33v.38c0 .03-.03.07-.07.07h-.07c-.02 0-.03.01-.03.03 0-.02 0-.03-.02-.03h-.07a.07.07 0 0 1-.07-.07v-.38Zm0 .6h.33v.37c0 .04-.03.07-.07.07h-.07c-.02 0-.03.02-.03.03 0-.01 0-.02-.02-.03h-.07a.07.07 0 0 1-.07-.07v-.37Zm0-1.2h.33v.38c0 .04-.03.07-.07.07h-.07c-.02 0-.03.02-.03.03 0-.01 0-.02-.02-.03h-.07a.07.07 0 0 1-.07-.07v-.37Z" fill="#00428C"/><path d="M29.27 24.59c-.09-.09-.08-.25-.09-.28 0-.03.06-.25.08-.26.02 0 .02-.07.02-.07s0-.15.05-.23c.06-.08.05-.04.06-.06 0-.02.04-.03.05-.03 0 0 .04-.03.02-.1 0-.07.06-.13.06-.13l-.07-.05s-.02-.05.01-.07c.03-.02.05 0 .06 0 0-.01-.01-.04.03-.05.04-.02.06.02.07.01 0 0 .01-.03.05-.02.04.02.04.05.04.05s.02-.02.05.01c.04.04.02.07 0 .08-.02 0-.05.04-.05.04.1.07.02.21.03.3 0-.01.01-.03.07-.03.06 0 .07.07.07.1l-.02.1c.06.03.1.07.1.13l-.02.06v.04a.4.4 0 0 1 0 .07l-.02.08-.05.08-.02.04s-.02.07-.01.08v.13l-.01.07.01.05v.08c0 .04-.03.07-.04.08-.02 0-.02.01-.02.02l-.04.04v.1s.02.09.01.1l-.01.1c-.02.01-.02.05-.02.06l.02.07.02.07.02.07c0 .02.02.1.01.12h-.05l-.16.01h-.22l-.15-.01v-.12l.03-.14c.03-.05.02-.07.04-.12l.04-.11c.01-.02.03-.12.02-.13-.01 0-.06-.02-.1-.1-.03-.07 0-.2 0-.2 0-.02.05-.11.03-.13Z" fill="url(#fdlagtj13)"/><path d="M30.9 23.07c-.1-.04-.17-.09-.28-.09 0 0 .18.1.18.24-.14-.17-.36-.22-.58-.22-.25 0-.5.06-.69.07-.21 0-.43-.06-.64-.06-.23 0-.48.04-.62.21 0-.15.18-.23.18-.24-.11 0-.18.05-.28.1.2-.21.46-.25.72-.25.21 0 .42.07.64.07.21 0 .47-.07.69-.07.23 0 .47.04.68.24Z" fill="#fff"/><path d="M28.56 23.54a.4.4 0 0 1-.05-.14c-.03-.13.05-.16.14-.14.04 0 .05.02.06.04v.02h.01c.06.02.08.05.1.07l.02.02h.02l.03-.02.03-.02.03-.04v-.06l-.4-.43-.01-.02s0-.01 0 0h.03l.4.41H29l.01.01.02.01v.02l.02.01v.03c.03.04.02.06-.01.03l-.02.02c-.03.07-.08.16-.15.17h-.02l-.03-.02-.02-.01v.02l-.01.04.03.08v.04l.01.05h-.3v-.07l.02-.03v-.03l.02-.06ZM30.07 23.28l.01-.01v-.01h.01l.02-.02h.01l-.01-.02c-.02 0-.03-.01-.03-.02 0-.02 0-.03.02-.03s.03.01.03.03l.02.03.39-.41h.02c0-.01.01 0 0 0v.02l-.39.4.03.03c.02 0 .03.01.03.02 0 .02-.01.03-.03.03-.01 0-.02-.01-.02-.03l-.01-.01-.01.05.03.04.03.02.02.02h.03l.01-.01.01-.01a.17.17 0 0 1 .1-.06v-.01l.01-.02c0-.02.02-.03.06-.04.09-.02.17 0 .14.14a.47.47 0 0 1-.05.14l.01.06.01.03.01.03.01.1-.3-.02V23.68l.01-.04c0-.03.01-.05.03-.08v-.04l-.01-.01v-.01h-.02a.37.37 0 0 1-.04.03h-.01c-.07 0-.12-.1-.15-.17l-.02-.02c-.03.03-.04.01-.01-.02v-.03Z" fill="#00428C"/><path d="M29.71 24.22v.05l.03.09s-.01.02-.02 0l-.04-.08h-.02c-.02-.01-.01-.02-.06-.01-.04 0-.1.02-.24-.01 0-.06.08-.1.08-.1l.11.05h.07l.01-.03c-.03.01-.02-.02-.02-.05a11.3 11.3 0 0 0-.13-.28.04.04 0 0 1-.04-.04c0-.02.01-.03.03-.03.02 0 .04.01.04.03l-.01.03.13.27.06-.02c0-.02-.02-.01-.02-.04v-.08c0-.05.05-.06.07-.06.02 0 .05.03.07-.01-.05 0-.07-.03-.07-.08 0-.04.02-.07.07-.07.04 0 .05.04.05.06 0 .03 0 .07-.02.09l.03.01.04.03.03.07v.04l-.03.05h-.03s-.05.03-.06.06c-.01.03-.07.03-.07.03s-.05.01-.04.03Z" fill="#fff"/><path d="M29.51 23.65c.02.07.04.08.1.1-.05.03-.08.02-.1.02 0 .04.03.06.06.06.04 0 .07-.03.07-.07.03-.02.08-.1.1-.16.02-.1-.1-.15-.18-.05-.04.05-.04.06-.05.1ZM29.53 23.4c.08-.05.18 0 .18 0l.03-.02s.03-.03 0-.05c-.02-.02-.03-.01-.05 0 0-.03 0-.05-.03-.05l-.04.02c-.03-.02-.04-.02-.06-.01-.02 0-.02.04-.02.04s-.04-.02-.06 0c-.02.03.02.04.02.04s.03-.03.1-.04a.15.15 0 0 0-.07.07Z" fill="#fff"/><path d="m30.61 23.85.04.42.05.04v.12l-.03.04.08 1-.02.01h-.6a.02.02 0 0 1-.01-.02l.08-.98-.04-.04v-.13a.14.14 0 0 1 .06-.04l.03-.41-.03-.03v-.1a.12.12 0 0 1 .07-.03h.01v.04h.03v-.05h.08v.04h.03v-.04h.08v.04h.04v-.03c.03 0 .05 0 .07.03v.09l-.02.03Z" fill="#00428C"/><path d="m30.56 23.87.04.45h-.04v-.06h-.01l-.1-.01v.05h-.04v-.05H30.35v-.4a.48.48 0 0 1 .2.02ZM30.32 25.12l.03-.68a.67.67 0 0 1 .26.02l.08.97h-.13v-.25a.12.12 0 0 0-.12-.12h-.01a.12.12 0 0 0-.1.06Z" fill="#E9B245"/><path d="M30.43 24.64c.03 0 .06.03.06.06 0 .02-.03.05-.06.05a.05.05 0 0 1-.05-.05c0-.03.03-.06.05-.06ZM28.84 23.85l.04.42.05.04v.12l-.04.04.09 1-.02.01h-.6a.02.02 0 0 1-.02-.02l.09-.98-.05-.04v-.13a.14.14 0 0 1 .07-.04l.03-.41-.03-.03v-.1a.12.12 0 0 1 .07-.03h.01v.04a.3.3 0 0 1 .03 0v-.05h.08v.04h.03v-.04h.08v.04h.03v-.03h.01c.03 0 .05 0 .07.03v.09l-.02.03Z" fill="#00428C"/><path d="m28.79 23.87.04.45h-.05v-.06l-.1-.01v.05h-.05v-.05h-.05v-.4a.48.48 0 0 1 .2.02ZM28.55 25.12l.03-.68a.67.67 0 0 1 .26.02l.08.97h-.13v-.25a.12.12 0 0 0-.12-.12h-.01a.12.12 0 0 0-.1.06Z" fill="#E9B245"/><path d="M26.13 28.3c-.1-.09-.09-.25-.1-.28 0-.03.06-.25.08-.25.02-.01.02-.08.02-.08s0-.15.06-.23c.05-.08.04-.04.05-.06l.05-.03s.04-.03.03-.1c-.01-.07.05-.13.06-.13a.42.42 0 0 0-.07-.05s-.02-.05 0-.07c.04-.02.06 0 .06 0 0-.01 0-.04.03-.05.05-.02.06.02.07.02 0 0 .02-.04.06-.03.04.02.03.05.03.05s.03-.02.06.01c.03.04.01.08 0 .08-.03.01-.05.04-.05.04.09.07.02.21.03.3 0-.01 0-.03.06-.03s.08.07.08.1c0 .05-.03.1-.03.1.07.03.1.07.1.13 0 .05-.02.05-.02.06v.04a.4.4 0 0 1 0 .07s0 .08-.02.09l-.04.07c-.02 0-.03.05-.03.05s-.01.06 0 .07v.13c-.02 0-.02.06-.02.07l.02.06v.07c0 .04-.03.07-.05.08l-.01.02-.04.04V28.87l-.01.09-.02.06.02.07.02.07.02.07c0 .02.03.1.02.12h-.06l-.16.01h-.22l-.15-.01.01-.12.03-.14.04-.12.04-.11.02-.12c-.02-.01-.07-.02-.1-.1s0-.2 0-.22c0 0 .04-.1.03-.12Z" fill="url(#gdlagtj13)"/><path d="M27.75 26.78c-.1-.03-.16-.08-.28-.08 0 0 .18.08.19.24-.14-.18-.36-.22-.59-.22-.24 0-.5.05-.68.07-.22 0-.43-.07-.64-.07-.23 0-.49.04-.63.22 0-.16.19-.24.19-.24-.12 0-.19.05-.28.08.2-.2.45-.24.72-.24.2 0 .41.07.64.07.2 0 .47-.07.68-.07.23 0 .47.04.68.24Z" fill="#fff"/><path d="M25.42 27.25a.41.41 0 0 1-.06-.13c-.03-.14.05-.17.15-.15.03 0 .05.02.05.04l.01.02c.07.03.09.05.1.07l.01.01h.01c0 .01.02.02.03.01l.03-.02.03-.02.03-.04c-.01-.02-.02-.05 0-.06l-.4-.43-.02-.02h.03l.4.41h.02l.02.01.01.01.01.02.01.02v.02c.04.04.02.06 0 .04h-.03c-.03.08-.08.18-.15.18h-.02l-.02-.02-.03-.01v.06l.02.08v.04l.02.05h-.3v-.07l.01-.03.01-.03.02-.06ZM26.93 27v-.02l.01-.01.02-.02h.02l-.02-.02c-.02 0-.03-.01-.03-.02 0-.02.01-.03.03-.03.01 0 .02.01.02.03l.03.03.39-.4.02-.02v.03l-.4.4.03.03c.02 0 .03.01.03.02 0 .02-.01.03-.02.03-.02 0-.03-.01-.03-.03V27l-.02.05c0 .02.01.03.03.04l.03.02.03.02h.03l.02-.02a.17.17 0 0 1 .09-.06v-.01l.01-.02c.01-.02.03-.03.06-.04.1-.02.18 0 .15.15a.48.48 0 0 1-.06.13l.01.06.02.03v.03l.02.1-.3-.02h-.01l.01-.06v-.04l.04-.08a.1.1 0 0 0-.01-.04v-.02l-.03.01a.34.34 0 0 1-.04.02c-.08 0-.13-.1-.15-.17l-.02-.01c-.04.02-.05 0-.02-.03V27Z" fill="#00428C"/><path d="M26.57 27.93v.05l-.01.01.03.08s-.01.02-.02 0l-.03-.08h-.02c-.03 0-.02-.02-.06-.01-.04 0-.11.03-.25 0 0-.07.09-.1.09-.1l.1.04h.08v-.03a12.4 12.4 0 0 0-.15-.34.04.04 0 0 1-.04-.03c0-.02.02-.03.04-.03s.03.01.03.03v.03l.12.27.06-.02-.02-.04v-.08c0-.04.05-.06.08-.06.02 0 .04.03.06-.01-.04 0-.07-.03-.07-.07 0-.05.03-.08.07-.08.05 0 .06.04.06.06 0 .03 0 .07-.03.09a.8.8 0 0 1 .04.02l.04.03.03.06v.04l-.03.05h-.04s-.05.03-.06.06c0 .03-.06.03-.06.03s-.06.02-.04.03Z" fill="#fff"/><path d="M26.37 27.36c.02.07.03.08.09.1-.05.03-.07.03-.1.02 0 .04.03.06.07.06.03 0 .07-.03.06-.07.03-.02.09-.1.1-.16.02-.1-.1-.14-.17-.05-.04.05-.04.06-.05.1ZM26.39 27.1c.08-.04.18 0 .18 0l.02-.01c.01 0 .04-.03 0-.05-.01-.02-.03-.01-.05 0 0-.03 0-.04-.02-.05-.01 0-.02 0-.05.03-.02-.03-.03-.03-.05-.02-.02 0-.03.04-.03.04s-.04-.02-.05 0c-.02.03.01.04.01.04s.03-.03.1-.04a.14.14 0 0 0-.06.07Z" fill="#fff"/><path d="m27.47 27.56.03.42.06.04v.13l-.04.03.09 1-.02.01h-.6a.02.02 0 0 1-.02-.02l.09-.98-.05-.04v-.13a.14.14 0 0 1 .06-.04l.04-.41-.03-.03v-.09a.12.12 0 0 1 .07-.04v.03h.04v-.04h.08v.04h.03v-.04h.07v.04h.04v-.03c.03 0 .06 0 .08.03V27.54l-.02.02Z" fill="#00428C"/><path d="m27.41 27.58.04.45h-.04v-.06l-.1-.01v.06h-.05v-.06h-.05v-.4a.48.48 0 0 1 .2.02ZM27.18 28.83l.02-.68h.08a.5.5 0 0 1 .18.02l.09.97h-.14v-.25a.12.12 0 0 0-.12-.12.12.12 0 0 0-.11.06Z" fill="#E9B245"/><path d="m25.7 27.56.03.42.06.04v.13l-.04.03.08 1-.01.01h-.6a.02.02 0 0 1-.02-.02l.08-.98-.04-.04v-.13a.14.14 0 0 1 .06-.04l.04-.41-.03-.03v-.09a.12.12 0 0 1 .07-.04v.03h.04v-.04h.07v.04h.04v-.04h.07v.04h.04v-.03c.03 0 .05 0 .08.03V27.54l-.03.02Z" fill="#00428C"/><path d="m25.64 27.58.04.45h-.04v-.06l-.1-.01v.06h-.05v-.06h-.05v-.4a.48.48 0 0 1 .18.01l.02.01ZM25.4 28.83l.03-.68h.08a.5.5 0 0 1 .18.02l.09.97h-.14v-.25a.12.12 0 0 0-.12-.12.12.12 0 0 0-.11.06ZM27.5 25.62h1v1.04c0 .06-.06.12-.12.12h-.26c-.07 0-.12.06-.12.08 0-.02-.05-.08-.13-.08h-.25c-.06 0-.12-.06-.12-.12v-1.04Z" fill="#E9B245"/><path d="M28 25.95a.21.21 0 0 1 .2-.07c.04 0 .07.01.1.04.06.05.07.1.08.16v.13c-.02.1-.07.16-.13.23a.75.75 0 0 1-.31.19l-.12-.15-.07-.08-.08-.13a.35.35 0 0 1-.04-.14c0-.06 0-.1.03-.14a.18.18 0 0 1 .1-.1.18.18 0 0 1 .12-.01c.05 0 .08.03.12.07Z" fill="#D60019"/><path d="M24.07 25.58c0 .15-.5.15-.55.15-.06 0-.56 0-.56-.15v-.49c0-.04.05-.07.1-.1v-.3l-.1-.08v-.27c0-.1.24-.12.3-.13v.15h.05v-.16h.41v.16h.05v-.15c.07 0 .3.03.3.13v.27l-.11.08v.3c.07.02.11.05.11.1v.5Z" fill="#B57017"/><path d="M23.24 25.05c.11-.02.23-.02.28-.02.07 0 .39.01.46.07v.4a1.55 1.55 0 0 0-.28-.05v-.19c0-.12-.1-.17-.18-.17-.09 0-.2.05-.2.17v.18l-.08.01v-.4Z" fill="#E9B245"/><path d="M23.53 24.61c.05 0 .09.04.09.1a.1.1 0 0 1-.1.09.1.1 0 0 1-.09-.1c0-.05.05-.09.1-.09ZM24.07 29.2c0 .15-.5.15-.55.15-.06 0-.56 0-.56-.15v-.5c0-.04.05-.07.1-.1v-.29l-.1-.08v-.27c0-.1.24-.13.3-.14v.16h.05v-.16h.41v.15l.05.01v-.16c.07.01.3.03.3.14v.27l-.11.08v.3c.07.01.11.05.11.1v.49Z" fill="#B57017"/><path d="m24.48 31-.08.09-.03.12c0 .04-.07.02-.06-.02l.01-.04a.54.54 0 0 1-.08.05c-.2.22-.5.1-.5.1a.2.2 0 0 0 .09-.05l.07-.1c-.21.15-.35-.01-.36-.02-.1-.1-.2-.08-.19-.09.05-.04.2-.09.2-.09-.18.05-.3-.06-.3-.06-.08-.07-.13-.05-.12-.06.17-.19.44-.06.44-.06l-.07-.15c-.3.14-.37-.16-.37-.17-.05-.1-.1-.1-.09-.1.3-.05.4.15.42.17-.04-.08-.04-.22-.05-.22-.37-.1-.26-.36-.26-.37 0-.1-.03-.16-.02-.16.06 0 .17.08.17.07 0-.2.16-.26.17-.27.04-.02.06-.05.05-.06-.09-.1 0-.33.01-.33a.5.5 0 0 0 .1.12c.09.08.09.16.1.16.26.04.29.26.3.31l.01.01c0-.05.04-.13.04-.14.05-.1.05-.17.05-.16l.1.2c.06.18.04.27.02.31l.01.03a.6.6 0 0 1 .07-.2c.17.2.11.43.12.42.03-.08.23-.15.22-.14-.03.05-.04.21-.05.22-.05.13-.16.17-.19.19.02.15.01.31-.01.47v-.01c.03-.03.08 0 .06.04Z" fill="#009634"/><path d="m23.24 28.66.28-.02c.07 0 .39.01.46.07v.4c-.03-.02-.07-.02-.1-.03a1.56 1.56 0 0 0-.17-.02v-.19c0-.11-.1-.16-.2-.16-.08 0-.18.05-.18.16v.19h-.09v-.4ZM23.22 28.08l.18-.03v-.15h.23v.16l.23.02v-.15a.4.4 0 0 1 .12.04v.16a2.3 2.3 0 0 0-.76-.04v-.01ZM23.3 28.18a2.61 2.61 0 0 1 .57.02v.38c-.15-.03-.32-.03-.35-.03l-.22.01v-.38Z" fill="#E9B245"/><path d="M23.53 28.23c.05 0 .09.04.09.09a.1.1 0 0 1-.1.1.1.1 0 0 1-.09-.1c0-.05.05-.1.1-.1ZM25.87 30.82c.14.04.02.53 0 .59-.01.05-.13.54-.27.5l-.48-.11c-.04-.01-.06-.06-.06-.13l-.29-.07-.1.08-.26-.06c-.1-.03-.07-.27-.06-.33l.15.03v-.04l-.14-.04c.02-.14.06-.27.1-.4l.15.03.02-.04-.16-.04c.03-.06.1-.3.2-.27l.27.07.04.13.29.07c.03-.06.08-.1.12-.09l.48.12Z" fill="#B57017"/><path d="m25.15 31.51.05-.27c.02-.08.1-.39.18-.45l.38.1a1.62 1.62 0 0 0-.11.26l-.18-.05c-.12-.02-.2.07-.21.15-.02.08 0 .2.11.23l.18.04-.01.1-.39-.1ZM24.58 31.39l.03-.18-.15-.04.06-.23.15.04.07-.22-.14-.03.06-.12.16.04a2.4 2.4 0 0 0-.22.74h-.02ZM24.7 31.34a2.78 2.78 0 0 1 .14-.52l.02-.03.36.09a2.16 2.16 0 0 0-.15.55l-.37-.1Z" fill="#E9B245"/><path d="M24.9 31.24a.1.1 0 0 0 .08-.09.1.1 0 0 0-.09-.1.1.1 0 0 0-.1.1c0 .05.05.1.1.1ZM30 30.82c-.14.04-.02.53 0 .59 0 .05.13.54.27.5l.47-.11c.04-.01.06-.06.07-.13l.28-.07.1.08.27-.06c.1-.03.06-.27.05-.33l-.15.03v-.04l.15-.04a3.5 3.5 0 0 0-.1-.4l-.15.03-.02-.04.15-.04c-.02-.06-.1-.3-.2-.27l-.26.07-.05.13-.28.07c-.04-.06-.08-.1-.13-.09l-.47.12Z" fill="#B57017"/><path d="M30.71 31.51a2.59 2.59 0 0 0-.04-.27c-.02-.08-.1-.39-.18-.45l-.38.1.05.09.06.17.18-.05c.11-.02.19.07.2.15.03.08 0 .2-.1.23l-.18.04.01.1.39-.1ZM31.28 31.39l-.02-.18.14-.04a2.44 2.44 0 0 0-.05-.23l-.15.04-.08-.22.15-.03a.4.4 0 0 0-.07-.12l-.16.04a2.46 2.46 0 0 1 .22.74h.02ZM31.16 31.34a2.76 2.76 0 0 0-.14-.52l-.01-.03-.37.09c.06.13.1.3.11.34l.05.2.36-.08Z" fill="#E9B245"/><path d="M31.06 31.13a.1.1 0 1 0-.18.04.1.1 0 0 0 .12.07.1.1 0 0 0 .06-.11Z" fill="#B57017"/><path d="m23.47 27.57.12-.11c-.04-.02-.16-.1-.08-.3l.08-.21s.15.18.11.36l.1-.18c-.06-.02-.18-.08-.14-.26 0-.01.02-.17-.02-.22 0 0 .16.04.21.24l.03-.05v-.05s-.21-.07-.2-.3c0 0 .05-.16-.01-.27 0 0 .17.1.22.24l-.02-.2c-.03 0-.17 0-.25-.22a.33.33 0 0 1-.2.13l-.03.06-.02.07-.02.18c-.1.27-.21.28-.27.27v.21c.06-.2.23-.29.23-.28.06.07.05.17.04.18-.03.2-.16.3-.2.34l.07.14c-.07-.15.06-.23.06-.23.13-.1.11-.18.12-.17.12.23.04.3.04.31l-.14.19c.05.05.1.09.17.13Zm-.1.07.06-.04a.83.83 0 0 1-.25-.24c-.11.18-.27.05-.28.04-.13-.1-.22-.1-.2-.1.12-.15.21-.11.2-.12-.06-.03-.08-.15-.08-.16-.02-.16-.13-.22-.13-.22.16 0 .3.1.34.13v-.12c-.25.05-.24-.17-.24-.18 0-.15-.09-.25-.08-.25l.15.08c-.05-.07 0-.31 0-.3.08.03.14.12.15.12.03.03.06.14.08.18l.02-.1v-.04c-.27-.2-.12-.44-.12-.45.02-.08 0-.13 0-.13.09.03.17.24.17.24 0-.07.17-.12.17-.12-.03-.12.07-.2.08-.21.11-.1.04-.2.05-.2.3.24.05.46.05.46a3.85 3.85 0 0 0 .08 0v-.13c.01-.01.04.08.1.11.02 0 .12.08.13.11 0 .04-.01-.16.16-.28 0 0 .07.4-.08.47l.04.28c.03-.05.1-.13.23-.1 0 0-.05.04-.05.18 0 0 0 .11-.12.2l.14-.05c.01 0 0 .39-.3.44l-.07.14c.09-.07.2-.14.32-.1 0 0-.14.2-.16.25 0 0-.08.14-.28.03l-.13.13.08.04-.02.04-.1-.04-.09.05-.02-.04ZM28.37 31.24l.21-.06c.06.16.24.17.25.17.11 0 .25.1.25.1l-.03-.1c.09.08.34.1.34.1a.7.7 0 0 1-.1-.13c-.05-.1-.13-.17-.12-.17h.12c.1.39.44.24.45.25.03.03.15.07.14.07-.1 0-.27.11-.27.1l.04-.11c-.01.02-.1.05-.1.05-.19 0-.24.15-.24.14.02-.13.06-.15.04-.15-.37.09-.37.34-.37.33l-.05-.05c.04-.02.06-.1.06-.1l.06-.12c-.32 0-.41.17-.42.17l-.1.05a.62.62 0 0 1-.1-.1c.08.04.18-.02.19-.03.15-.08.19-.07.18-.07a.35.35 0 0 0-.46-.01.95.95 0 0 1-.02-.05l-.05-.1c0-.05-.07-.03-.06.01 0 0 .03.11.12.23-.18.27.23.47.22.47a.5.5 0 0 1-.03-.17l-.03-.14.05.03.03.04c0 .27.46.28.46.28l-.11-.22h.07c.21.27.54.13.53.13a.27.27 0 0 1-.13-.13c.08.08.26.07.28.07.12-.08.29-.1.28-.1-.06-.06-.22-.12-.2-.12.1-.04.13-.17.13-.18.02-.1.07-.15.08-.15.16-.02.28-.21.28-.2h-.3c-.08 0-.13 0-.17.02-.05 0-.1-.01-.13-.05v-.02a.2.2 0 0 0-.02-.02c.08 0 .15-.03.16-.04.1-.07.17-.06.16-.06-.17-.27-.42-.02-.47.02a.92.92 0 0 0-.13-.03l.14-.16c-.03.02-.18 0-.18 0-.21-.05-.31.03-.31.03l.02-.05c.04-.1.1-.1.1-.1-.16-.09-.29-.03-.28-.04.02-.06.03-.22.02-.21-.16.03-.2.1-.21.1-.08.1-.12.4-.13.47-.1.02-.16.05-.16.05-.04 0-.02.07.02.06Z" fill="#009634"/><path d="M28.83 30.76a.54.54 0 0 0 .02-.2.46.46 0 0 0-.16.06.22.22 0 0 0-.05.05.28.28 0 0 0-.06.1l-.03.13-.04.23a2.6 2.6 0 0 0-.12.03l-.03.01h-.01a.03.03 0 0 0-.02.02v.03l.01.02h.05l.04-.02.15-.04c.03.08.1.12.15.15l.1.02c.06 0 .12.03.17.05l.05.03a.52.52 0 0 0 .03.02.56.56 0 0 0-.02-.08v-.02l.08.05a.74.74 0 0 0 .21.05.63.63 0 0 0 .04 0h-.01l-.02-.02a.8.8 0 0 1-.08-.11m-.03-.18.04.01c.02.1.06.16.11.2.05.05.1.06.15.07a.41.41 0 0 0 .17-.01.18.18 0 0 1 .02 0l.04.02.04.02.03.01h.01l-.07.02a.69.69 0 0 0-.15.08l-.02.01a.51.51 0 0 0 .02-.06 1.64 1.64 0 0 0 0-.05h.01m.09-.06Zm-.36.05-.02-.02a.84.84 0 0 1-.08-.11.5.5 0 0 0-.1-.15l-.01-.01c.03 0 .06 0 .08-.02h.04c.03.1.07.17.11.21.05.04.1.06.15.07h.13l.04-.02a.26.26 0 0 1 .02 0l.04.02a.6.6 0 0 0 .05.02l.03.02h.02l-.09.03a.7.7 0 0 0-.15.08h-.02v.01h-.01l.01-.03a1.62 1.62 0 0 0 .02-.08h-.01a.29.29 0 0 1-.09.05.26.26 0 0 0-.22.11v.02h-.01a.4.4 0 0 1 .04-.14c-.18.04-.27.12-.32.2a.31.31 0 0 0-.05.12h-.01l-.02-.02a.33.33 0 0 1-.02-.03c.02-.01.03-.04.04-.06a.25.25 0 0 0 .02-.04l.01-.04.02-.04h.01l.01-.03v-.01a.55.55 0 0 0-.32.08.35.35 0 0 0-.08.09l-.1.05a.62.62 0 0 1-.12-.1c.05.02.1.01.13 0 .03 0 .06-.02.06-.03a.63.63 0 0 1 .19-.07m0 0a.36.36 0 0 0-.28-.09.38.38 0 0 0-.18.08l-.02-.05M28.35 31.18h.01a1.2 1.2 0 0 1 .16-.05 2.35 2.35 0 0 1 .07-.36.28.28 0 0 1 .05-.1m.2.1.07-.02a.4.4 0 0 1 .2.05v.01l-.03.01a.18.18 0 0 0-.07.09l-.01.03v.02-.01a.3.3 0 0 1 .06-.02.5.5 0 0 1 .24 0 1 1 0 0 0 .16 0h.01a1.5 1.5 0 0 1-.13.16.9.9 0 0 1 .13.03l.01-.01c.03-.03.1-.09.18-.12.04-.01.1-.02.14 0 .05 0 .1.04.15.1v.01h-.05a.3.3 0 0 0-.12.07h-.02a.35.35 0 0 1-.14.03l.02.02v.02c.04.04.08.05.13.05a.28.28 0 0 1 .17-.02 5.25 5.25 0 0 0 .3 0 .5.5 0 0 1-.08.09.37.37 0 0 1-.2.12h-.01l-.02.03a.28.28 0 0 0-.05.1c0 .02 0 .05-.02.09a.2.2 0 0 1-.11.1h.01l.03.02.03.02a.56.56 0 0 1 .13.08l-.02.01-.07.02a.72.72 0 0 0-.2.07M29 30.96v-.02l.02-.03a.18.18 0 0 1 .1-.1.4.4 0 0 0-.26-.04h-.02a.52.52 0 0 0 .02-.21m.14.4h.02a.3.3 0 0 1 .05-.03.5.5 0 0 1 .23 0 1.06 1.06 0 0 0 .17 0 1.6 1.6 0 0 1-.12.16.91.91 0 0 1 .13.03h.01c.04-.04.1-.1.18-.12.04-.02.1-.03.14-.01.05.01.1.04.14.1l-.04.01a.3.3 0 0 0-.13.06l-.01.01a.32.32 0 0 1-.14.03l.01.03h.01c.04.05.08.07.13.07a.28.28 0 0 1 .17-.03 4.9 4.9 0 0 0 .3 0l-.02.02a.68.68 0 0 1-.06.07.37.37 0 0 1-.2.1M28.27 31.42v.01a.52.52 0 0 0 .05.1l.02.04c.04-.02.1-.06.18-.07.08-.01.18 0 .28.09h-.03a.63.63 0 0 0-.15.08l-.07.03a.2.2 0 0 1-.12 0l.1.09h.01a.87.87 0 0 1 .1-.05.32.32 0 0 1 .08-.09.56.56 0 0 1 .33-.09v.02l-.02.02v.01a.78.78 0 0 0-.04.08l-.01.04a.12.12 0 0 1-.05.06l.02.02.02.02h.01v-.02l.05-.1c.04-.07.14-.16.32-.2v.03a.38.38 0 0 0-.04.1.25.25 0 0 1 .05-.05c.03-.03.1-.07.18-.07h.02a.39.39 0 0 0 .08-.05m-1.37-.05-.01-.02h-.02l-.02.02v.02s.03.11.11.23a.23.23 0 0 0-.04.19c.01.05.05.1.08.14a.65.65 0 0 0 .18.13l-.01-.03a.54.54 0 0 1-.02-.1v-.02l-.01-.08a.94.94 0 0 0-.02-.07l.05.03a.82.82 0 0 1 .03.04c0 .07.03.12.07.16.04.04.1.06.16.08a.83.83 0 0 0 .22.03l-.01-.03a2.97 2.97 0 0 0-.1-.18 1.08 1.08 0 0 0 .08 0c.1.13.24.17.35.17a.52.52 0 0 0 .18-.04.26.26 0 0 1-.1-.08.29.29 0 0 1-.03-.05m0 0c.04.04.1.06.17.06a.45.45 0 0 0 .1 0 .72.72 0 0 1 .2-.07l.07-.01a.56.56 0 0 0 .02 0 .57.57 0 0 0-.13-.09l-.03-.02a1.29 1.29 0 0 1-.05-.02m-.22.28Zm-1.25-.67-.01-.02.01.02Zm-.01-.02h-.03.03Zm-.03 0-.02.01.02-.01Zm-.02.01v.03-.03Zm0 .03Zm0 0Zm0 0v.02-.01Zm0 .02.03.05-.02-.05Zm.03.05c.01.04.04.1.09.16l-.1-.16Zm.09.16a.24.24 0 0 0-.05.19c.02.05.05.1.1.15a.66.66 0 0 0 .17.13l-.01-.04a.52.52 0 0 1-.02-.12.94.94 0 0 0-.02-.13l.04.02a.97.97 0 0 1 .02.03c0 .07.03.12.08.16.04.04.1.07.16.08a.83.83 0 0 0 .22.04m.4-.17a.25.25 0 0 0 .1.08l-.01.01-.04.01a.53.53 0 0 1-.13.02.43.43 0 0 1-.35-.17h-.07m.5.05a.29.29 0 0 1-.02-.04l.02.04Zm-.02-.04Zm0 0c.04.03.1.05.16.06a.47.47 0 0 0 .1 0M32.49 29.4c0 .03-.02.06-.04.08v.01l.01.02.05.03c.01.01.17.08.17.27a.14.14 0 0 0 .02-.02l.04-.02.05-.02.05-.01v.04a.34.34 0 0 0-.01.12.37.37 0 0 1 0 .05v.1c-.02.09-.08.18-.27.22v.08l-.03.12a.35.35 0 0 1 .08-.1.41.41 0 0 1 .32-.05l-.02.02a.32.32 0 0 0-.06.09v.01l-.02.03a.32.32 0 0 1-.06.1.2.2 0 0 1-.11.06c-.05 0-.11 0-.19-.03l-.01.02a.8.8 0 0 0-.02.05l-.02.04-.01.02.04-.01.11-.02c.1-.01.2 0 .29.1l-.03.01a.18.18 0 0 0-.1.05c0 .01-.1.1-.26.07l.05.02a.95.95 0 0 1 .11.06l-.05.02a.37.37 0 0 0-.14.07c0 .01-.04.05-.1.07-.06.02-.15.03-.25-.03l.02.02a.75.75 0 0 1 .05.06.24.24 0 0 0 .06.03.08.08 0 0 0 .03.01h-.01l-.04.02a.55.55 0 0 1-.13.02.41.41 0 0 1-.33-.13.5.5 0 0 1-.08-.04.67.67 0 0 0 .01.03v.03l-.02.01h-.02l-.02-.02v-.01l-.01-.02-.02-.09a.7.7 0 0 1-.07-.08l-.01-.03.01-.02h.03l.02.01a1.82 1.82 0 0 1 0-.46h-.01a.3.3 0 0 1-.2-.19V30.2l-.02-.08a.18.18 0 0 0-.02-.05h.03a.63.63 0 0 1 .15.08l.04.05V30.08a.52.52 0 0 1 .12-.3l.01.02.02.05.04.14.01-.02c-.02-.05-.04-.14.03-.32a2.82 2.82 0 0 1 .1-.2v.01a.49.49 0 0 0 .05.15.44.44 0 0 1 .03.14h.02c0-.04 0-.1.05-.17a.33.33 0 0 1 .25-.15v-.01l.02-.04a.27.27 0 0 1 .08-.11l.1-.12v.01l.01.03.02.09.01.11Zm-.96.81Zm-.03.77a.03.03 0 0 1 0-.04l.02-.01.02.01.01.01a1.82 1.82 0 0 1-.01-.48.3.3 0 0 1-.19-.18v-.02a1.73 1.73 0 0 0-.02-.15.2.2 0 0 0-.02-.05h.02a.64.64 0 0 1 .15.09c.02.01.04.03.05.06v-.01a.47.47 0 0 1 0-.13c0-.09.03-.2.11-.3l.01.02.02.05a.95.95 0 0 1 .04.14l.02-.02c-.02-.05-.05-.13.02-.32a2.94 2.94 0 0 1 .1-.2v.04l.04.12.02.05a.27.27 0 0 1 .02.1l.02-.02c0-.02.01-.1.05-.16a.33.33 0 0 1 .25-.14v-.02l.02-.04a.27.27 0 0 1 .08-.1m.1-.12v.03l.03.09a.4.4 0 0 1 0 .11c0 .04 0 .07-.03.1v.02l.06.04c.01 0 .17.08.17.26h.02v-.01a1.1 1.1 0 0 1 .1-.05h.04v.03c-.02.03-.02.07-.02.12a1.35 1.35 0 0 1 .01.05v.1c-.02.08-.09.17-.27.22v.04l-.01.04a.46.46 0 0 1-.04.14c.01 0 .04-.06.1-.1a.4.4 0 0 1 .32-.07l-.02.02a.33.33 0 0 0-.07.09l-.01.04a.31.31 0 0 1-.06.1.2.2 0 0 1-.11.06.3.3 0 0 1-.19-.04l-.01.02a.83.83 0 0 0-.05.1v.03l.04-.02.11-.02c.09 0 .2.01.29.1h-.03a.19.19 0 0 0-.1.06s-.12.1-.29.06l.02.01a1.69 1.69 0 0 1 .17.08h-.01l-.04.01a.38.38 0 0 0-.14.08c-.01.01-.04.05-.1.07-.06.02-.15.03-.26-.04l.01.02h.01a.73.73 0 0 1 .06.08.3.3 0 0 0 .08.03l-.04.02a.55.55 0 0 1-.13.02.4.4 0 0 1-.33-.13.5.5 0 0 1-.08-.05v.06l-.01.02h-.02l-.02-.02v-.03a1.75 1.75 0 0 1-.03-.1.7.7 0 0 1-.07-.07m.35-1.53Zm.45.14h.01a.37.37 0 0 1 .05.03l.02.02h-.01l-.02.02a.37.37 0 0 0-.1.09h.06a.32.32 0 0 1-.03.03 1.71 1.71 0 0 1-.18.14.24.24 0 0 1-.07.03 1.27 1.27 0 0 1 .12.02l-.02.02-.1.11v.01l-.01.03a.32.32 0 0 1-.06.07c-.06.05-.16.1-.32.09l-.02.1a.72.72 0 0 1 .32-.07v.01a.36.36 0 0 0-.12.13v.03c-.02 0-.03.02-.04.04a.2.2 0 0 1-.09.06l.06-.01a.31.31 0 0 0 .16-.08v.02a.73.73 0 0 1-.03.2c-.03.12-.1.24-.25.28v.02l.06.04a.5.5 0 0 1 .11-.03c.06-.01.12-.01.17.01h-.01a.23.23 0 0 1-.03-.07c-.01-.05-.01-.13.05-.22h.01a3.7 3.7 0 0 0 .15-.2.43.43 0 0 1 .01.02v-.01l.01-.06a.5.5 0 0 1 .07-.18l.01.01.03.03.06.09v-.03l.01-.1a.56.56 0 0 1 .07-.21v-.01l-.02-.03a.5.5 0 0 1-.02-.16v-.16h.02c.02 0 .04.02.05.03v-.02a1.17 1.17 0 0 1-.04-.16v-.08l-.02.02a.21.21 0 0 1-.08.04l.01.01a.43.43 0 0 1 .05.02l.02.02h-.01l-.02.02a.37.37 0 0 0-.1.1.16.16 0 0 0 .06-.01 1.25 1.25 0 0 1-.21.17.18.18 0 0 1-.08.03h.01a1.47 1.47 0 0 1 .12.03l-.02.01-.1.11v.01l-.02.03a.31.31 0 0 1-.06.07c-.06.05-.15.1-.3.08h-.01a1.16 1.16 0 0 0-.02.1.71.71 0 0 1 .31-.06l-.03.03a.4.4 0 0 0-.08.11l-.01.02-.04.05c-.03.03-.07.06-.11.06h.09a.32.32 0 0 0 .16-.08v.06l-.03.15c-.03.12-.1.24-.26.27v.03l.06.04.12-.03c.06 0 .13 0 .17.02v-.02a.23.23 0 0 1-.03-.06c-.02-.05-.02-.13.04-.21l.01-.02.06-.08a.83.83 0 0 0 .08-.12v.01l.01.02v.01h.01v-.02a.5.5 0 0 1 .08-.24l.01.01.03.04.06.09m.08-.94-.03.02a.22.22 0 0 1-.08.04M32.52 24a1.12 1.12 0 0 1-.12-.11c.04-.02.16-.09.09-.3l-.09-.21s-.15.18-.11.36a1.12 1.12 0 0 1-.1-.17c.06-.02.19-.09.15-.26 0-.02-.03-.18.02-.23 0 0-.16.04-.22.24 0 0-.02-.02-.02-.05l-.01-.04s.21-.08.2-.3c0-.01-.05-.17.01-.27.01-.01-.17.09-.22.23l.02-.19c.03 0 .17-.01.25-.22v-.01c.08.1.19.13.2.13l.03.07.02.06.03.18c.08.28.2.28.26.27v.22c-.05-.2-.22-.3-.23-.29-.06.07-.05.17-.04.19.03.2.16.3.2.34a.72.72 0 0 1-.07.14c.07-.16-.05-.24-.06-.24-.13-.09-.1-.17-.11-.16-.13.22-.05.29-.05.3l.14.2-.17.12Zm.1.07-.06-.04a.83.83 0 0 0 .25-.24c.12.19.27.06.28.05.13-.1.22-.1.21-.11-.12-.15-.22-.11-.2-.12.05-.02.07-.15.07-.16.02-.15.14-.22.13-.22a.6.6 0 0 0-.34.13v-.12c.25.05.25-.17.25-.18 0-.14.08-.25.07-.24l-.15.08c.06-.08 0-.32 0-.32-.07.04-.14.13-.14.13-.04.03-.07.14-.08.18l-.03-.1v-.04c.28-.2.12-.44.12-.44-.02-.08 0-.14 0-.14-.09.03-.17.25-.17.24 0-.07-.17-.11-.17-.12.03-.12-.07-.2-.08-.2-.1-.1-.04-.2-.05-.2-.3.24-.05.45-.05.45h-.06l-.02.01v-.14c-.01 0-.04.08-.1.11-.01 0-.12.08-.12.12 0 .03 0-.17-.17-.29 0 0-.07.4.08.47l-.04.28c-.03-.05-.1-.13-.23-.1 0 0 .05.05.05.18 0 .01 0 .12.12.2l-.14-.05c-.01 0 0 .39.3.45l.07.14c-.08-.07-.2-.14-.32-.1l.16.24s.08.15.28.03l.13.14-.08.03c-.03 0-.01.06.02.05l.1-.05.1.06c.02.01.04-.03.01-.05ZM27.63 31.24l-.21-.06c-.06.16-.24.17-.26.17-.1 0-.24.1-.24.1l.03-.1c-.09.08-.34.1-.34.1a.7.7 0 0 0 .1-.13c.05-.1.13-.17.12-.17h-.12c-.1.39-.44.24-.45.25-.03.03-.15.07-.14.07.1 0 .27.11.27.1a.98.98 0 0 1-.04-.11c.01.02.1.05.1.05.19 0 .24.15.24.14-.02-.13-.06-.15-.04-.15.37.09.37.34.37.33l.05-.05c-.04-.02-.06-.1-.06-.1l-.06-.12c.32 0 .41.17.42.17l.1.05a.62.62 0 0 0 .1-.1c-.08.04-.18-.02-.19-.03-.15-.08-.19-.07-.18-.07.2-.17.39-.07.46-.01l.02-.05.05-.1c0-.05.07-.03.06.01 0 0-.03.11-.12.23.18.27-.23.47-.22.47a.5.5 0 0 0 .03-.17l.03-.14a.71.71 0 0 1-.05.03l-.03.04c0 .27-.46.28-.46.28l.11-.22h-.07c-.21.27-.54.13-.53.13a.27.27 0 0 0 .13-.13c-.09.08-.26.07-.28.07-.12-.08-.29-.1-.28-.1.06-.06.22-.12.2-.12-.1-.04-.13-.17-.13-.18-.02-.1-.07-.15-.08-.15-.16-.02-.28-.21-.28-.2h.3c.08 0 .13 0 .17.02.05 0 .1-.01.13-.05v-.02l.02-.02a.32.32 0 0 1-.16-.04c-.1-.07-.17-.06-.16-.06.17-.27.42-.02.47.02a.92.92 0 0 1 .13-.03l-.14-.16c.03.02.18 0 .18 0 .21-.05.31.03.31.03l-.02-.05c-.04-.1-.1-.1-.1-.1.16-.09.29-.03.28-.04-.02-.06-.03-.22-.02-.21.16.03.2.1.21.1.08.1.12.4.13.47.1.02.16.05.16.05.04 0 .02.07-.02.06Z" fill="#009634"/><path d="M32.99 25.58c0 .15-.5.15-.56.15-.06 0-.55 0-.55-.15v-.49c0-.04.04-.07.1-.1v-.3l-.1-.08v-.27c0-.1.24-.12.3-.13v.15h.04v-.16h.42v.16h.05v-.15c.06 0 .3.03.3.13v.27l-.12.08v.3c.07.02.12.05.12.1v.5Z" fill="#B57017"/><path d="M32.15 25.05c.11-.02.24-.02.28-.02.08 0 .4.01.47.07v.4a1.55 1.55 0 0 0-.27-.05v-.19c0-.12-.11-.17-.2-.17-.08 0-.19.05-.19.17v.18l-.09.01v-.4ZM32.14 24.46l.17-.02v-.15h.24v.15l.23.03v-.16a.4.4 0 0 1 .12.04v.17a2.33 2.33 0 0 0-.76-.04v-.02ZM32.22 24.57a2.7 2.7 0 0 1 .52 0l.04.01v.39c-.14-.03-.31-.03-.35-.03h-.21v-.38Z" fill="#E9B245"/><path d="M32.44 24.61c.05 0 .1.04.1.1a.1.1 0 0 1-.1.09.1.1 0 0 1-.09-.1c0-.05.04-.09.1-.09ZM32.99 29.2c0 .15-.5.15-.56.15-.06 0-.55 0-.55-.15v-.5c0-.04.04-.07.1-.1v-.29l-.1-.08v-.27c0-.1.24-.13.3-.14v.16h.04v-.16h.42v.15l.05.01v-.16c.06.01.3.03.3.14v.27l-.12.08v.3c.07.01.12.05.12.1v.49Z" fill="#B57017"/><path d="m31.47 31 .08.09.03.12c0 .04.07.02.05-.02v-.04l.08.05c.2.22.5.1.5.1a.2.2 0 0 1-.09-.05l-.07-.1c.21.15.35-.01.36-.02.1-.1.2-.08.19-.09-.05-.04-.2-.09-.2-.09.18.05.3-.06.3-.06.08-.07.13-.05.12-.06-.17-.19-.44-.06-.44-.06l.07-.15c.3.14.37-.16.37-.17.05-.1.1-.1.09-.1-.3-.05-.41.15-.42.17.04-.08.04-.22.05-.22.37-.1.26-.36.26-.37-.01-.1.03-.16.02-.16-.06 0-.17.08-.17.07 0-.2-.16-.26-.17-.27-.04-.02-.06-.05-.05-.06.09-.1 0-.33-.01-.33a.5.5 0 0 1-.1.12c-.09.08-.09.16-.1.16a.33.33 0 0 0-.3.31l-.01.01a.38.38 0 0 0-.04-.14c-.05-.1-.05-.17-.05-.16a7.2 7.2 0 0 0-.1.2c-.06.18-.04.27-.02.31l-.02.03a.61.61 0 0 0-.06-.2c-.17.2-.12.43-.12.42-.03-.08-.23-.15-.22-.14.03.05.04.21.05.22.04.13.15.17.19.19-.02.15-.01.31 0 .47v-.01c-.02-.03-.07 0-.05.04Z" fill="#009634"/><path d="m32.15 28.66.28-.02c.08 0 .4.01.47.07v.4a1.56 1.56 0 0 0-.27-.05v-.19c0-.11-.11-.16-.2-.16-.08 0-.19.05-.19.16v.19h-.09v-.4ZM32.14 28.08l.17-.03v-.15h.24v.16l.23.02v-.15a.4.4 0 0 1 .12.04v.16a2.31 2.31 0 0 0-.76-.04v-.01ZM32.22 28.18a2.62 2.62 0 0 1 .56.02v.38c-.14-.03-.31-.03-.35-.03l-.21.01v-.38Z" fill="#E9B245"/><path d="M32.44 28.23c.05 0 .1.04.1.09a.1.1 0 0 1-.1.1.1.1 0 0 1-.09-.1c0-.05.04-.1.1-.1Z" fill="#B57017"/><path d="M32.53 27.57a1.12 1.12 0 0 1-.12-.11c.04-.02.16-.1.08-.3l-.08-.21s-.15.18-.11.36a1.16 1.16 0 0 1-.1-.18c.06-.02.18-.08.14-.26 0-.01-.02-.17.02-.22 0 0-.16.04-.21.24l-.03-.05v-.05s.21-.07.2-.3c0 0-.05-.16.01-.27a.5.5 0 0 0-.22.24l.02-.2c.03 0 .17 0 .25-.22.08.1.18.13.2.13l.03.06.02.07.02.18c.09.27.21.28.27.27v.21c-.06-.2-.23-.29-.23-.28-.06.07-.05.17-.04.18.03.2.16.3.2.34a.74.74 0 0 1-.07.14c.07-.15-.06-.23-.06-.23-.13-.1-.11-.18-.12-.17-.12.23-.04.3-.04.31l.14.19a.8.8 0 0 1-.17.13Zm.1.07-.06-.04a.83.83 0 0 0 .25-.24c.11.18.27.05.28.04.13-.1.22-.1.2-.1-.12-.15-.21-.11-.2-.12.06-.03.08-.15.08-.16.02-.16.13-.22.13-.22-.16 0-.3.1-.34.13v-.12c.25.05.24-.17.24-.18 0-.15.09-.25.08-.25l-.15.08c.05-.07 0-.31 0-.3-.08.03-.14.12-.15.12-.03.03-.06.14-.08.18l-.02-.1v-.04c.27-.2.12-.44.12-.45-.02-.08 0-.13 0-.13-.09.03-.17.24-.17.24 0-.07-.17-.12-.17-.12.03-.12-.07-.2-.08-.21-.11-.1-.04-.2-.05-.2-.3.24-.05.46-.05.46h-.08l-.01-.13c0-.01-.03.08-.1.11 0 0-.11.08-.12.11 0 .04.01-.16-.16-.28 0 0-.07.4.08.47-.02.1-.04.19-.04.28-.03-.05-.1-.13-.23-.1 0 0 .05.04.05.18 0 0 0 .11.12.2l-.14-.05c-.01 0 0 .39.3.44l.07.14c-.09-.07-.2-.14-.32-.1 0 0 .14.2.16.25 0 0 .08.14.28.03l.13.13-.08.04.02.04.1-.04.09.05.02-.04Z" fill="#009634"/><path d="M30.78 21.01a12.25 12.25 0 0 0-5.15 0l.15.36.37-.08c.47-.08 1.12-.13 1.84-.13s1.37.05 1.85.13a3.01 3.01 0 0 1 .7.2l.24-.48Zm.3-.62a.37.37 0 0 1-.21-.2.56.56 0 0 1-.04-.1.85.85 0 0 1-.4.14.48.48 0 0 1-.51-.3.69.69 0 0 1-.1.06c-.16.09-.38.1-.59-.1a.99.99 0 0 1-.24-.35c-.14.17-.29.27-.41.34-.22.12-.45-.03-.59-.2l-.1.11a.42.42 0 0 1-.52.07c-.13-.07-.25-.2-.34-.32-.07.14-.17.27-.24.35-.14.18-.43.2-.68.02a.45.45 0 0 1-.33.31c-.25.06-.46-.07-.6-.18l.3.63A12.26 12.26 0 0 1 28 20.4c.76 0 1.46.06 1.96.15a3.72 3.72 0 0 1 .9.27l.22-.43Z" fill="url(#hdlagtj13)"/><path d="M27.2 20.95a.18.18 0 1 1 .36 0c0 .1-.09.18-.18.18a.18.18 0 0 1-.18-.18ZM26.23 21.24c.1 0 .18-.08.18-.18a.18.18 0 1 0-.35 0c0 .1.08.18.17.18ZM28.62 21.13c.1 0 .18-.08.18-.18a.18.18 0 1 0-.35 0c0 .1.07.18.17.18ZM29.59 21.06a.18.18 0 1 1 .35 0c0 .1-.08.18-.17.18a.18.18 0 0 1-.18-.18Z" fill="#B57017"/><path d="m27.75 32.24.13-.02v-.11h.18v.12l.17.01v-.11a.3.3 0 0 1 .09.03v.12a1.72 1.72 0 0 0-.57-.03v-.01Z" fill="#E9B245"/><path d="M28 34.22c.28 0 .51-.24.51-.53 0-.29-.23-.52-.51-.52a.52.52 0 0 0-.52.52c0 .3.23.53.52.53Z" fill="#fff"/><path d="M31.05 19.84c-.02.35.4.31.39.1 0-.22.1-.24.18-.3.07-.05.14.06.14.06h.03c.02.01.01-.09.01-.09-.02-.1 0-.34.06-.24.14.22.48.14.36-.07-.14-.24-.19-.13-.21-.18-.05-.07-.28-.05-.4.04-.11.08-.14.37-.14.37h-.02s-.06-.12-.12-.13c-.1 0-.27.09-.28.44Z" fill="#B57017"/><path d="M25.43 17.53c.08.26-.1.37-.36.3l.07.12c.35.43-.04.86-.27 1.2-.17.24-.32.28-.53.13l-.04-.02c-.13.06-.21.06-.27-.08l-.03-.04c-.03.02-.07.04-.09.07.05.1-.02.21-.14.2-.15-.05-.11-.2-.06-.24a.82.82 0 0 0 .08-.07v-.07c0-.13.07-.2.2-.22-.08-.07-.07-.16-.08-.18-.08-.01-.1-.07-.15-.13-.16.01-.18-.17-.1-.24.07-.08.22-.02.22.11.03.02.08.03.18-.01.28-.03.19.42.51.17.08-.05.64-.29.22-.5a1.18 1.18 0 0 1-.35-.27c-.28-.22-.52-.85.04-.75-.13-.22-.15-.42.14-.42l.18.01c.13.01.24.04.36.08s.34.1.86.2c.27.03.35-.05.58-.1a1.47 1.47 0 0 1 .72.03c.1.03.19.06.44.06.1 0 .21-.14.31-.06.18.12.78.03 1.13-.15-.02-.09.08-.14.12-.04.02.03.05.15.08.17.03-.06-.11-.22-.02-.33.12-.15.19.05.38-.03.12-.04.2-.02.27.02v.87c-.03-.02-.08-.05-.15-.14.03.17-.06.37-.32.26-.03 0-.1-.05-.13-.05-.04 0-.52.16-.63.03-.02-.03-.03-.03-.04-.03-.05 0-.07.03-.1.06-.13.15-.27.12-.4.07l-.2.01c-.14.04-.26.05-.43.04-.17 0-.4-.03-.76-.05-.2 0-.36.05-.54.1a1.53 1.53 0 0 1-.9-.1Z" fill="url(#idlagtj13)"/><path d="M27.83 17.33v-.07h.07a.53.53 0 0 1-.04-.08l-.03-.06V17l.04-.01.1.2.13.23H28l-.06-.1-.1.01Zm0-.33v.12-.02l-.03.08a.91.91 0 0 0-.03.08h.06v.07h-.08l-.02.1-.1-.02.06-.2.08-.2.06-.01Zm-1.69.5v-.13l.04.13h-.04Zm0-.4.1.16.15.21.1-.02.01-.23.04-.24-.1.02-.02.17-.01.18-.1-.16-.1-.16h-.07v.07Zm.54.3-.06-.22-.04-.21.1-.02.03.22.06.2a.88.88 0 0 0-.09.03Zm.43-.2.1.03c0 .05-.01.08-.04.1-.03.03-.07.04-.12.04a.28.28 0 0 1-.16-.06.3.3 0 0 1-.07-.06.2.2 0 0 1-.03-.1v-.1c0-.02.01-.05.03-.07a.2.2 0 0 1 .15-.07c.06 0 .11.02.15.05.03.02.05.05.06.09l-.1.01a.1.1 0 0 0-.04-.05.13.13 0 0 0-.06-.02.1.1 0 0 0-.08.03c-.02.03-.03.07-.02.12 0 .03.02.05.03.07 0 .02.02.03.03.05.03.02.06.03.1.03a.1.1 0 0 0 .05-.02.11.11 0 0 0 .02-.07Zm.32.19-.03-.18a1.9 1.9 0 0 1-.02-.18l-.15-.02-.01-.08.4.08v.06c-.05 0-.1 0-.15-.02l.02.18.04.17-.1-.01Zm-1.76-.06.04.1h-.04v-.1Zm.47-.3v.07l-.04-.07h.04Zm0 .34c0-.04-.02-.07-.03-.1l-.06-.24-.1-.01.05.16.05.17-.15-.18-.16-.2a.46.46 0 0 1-.07-.02v.1l.05.15.09.26.1.03-.06-.17-.06-.17.15.19c.06.05.1.11.15.17h.05v-.14Zm-.53.03-.1-.26-.08-.25.1.03.1.26c0 .05.03.1.04.15v.1l-.06-.03Zm.06-.45h-.03l.03.1v-.1Z" fill="#fff"/><path fill-rule="evenodd" d="M28 46a18 18 0 1 0 0-36 18 18 0 0 0 0 36Zm0-1a17 17 0 1 0 0-34 17 17 0 0 0 0 34Z" fill="url(#jdlagtj13)"/><defs><linearGradient id="bdlagtj13" x1="21.5" y1="30.16" x2="41.26" y2="30.07" gradientUnits="userSpaceOnUse"><stop offset=".33" stop-color="#213560"/><stop offset=".61" stop-color="#4190C6"/><stop offset=".91" stop-color="#213560"/></linearGradient><linearGradient id="cdlagtj13" x1="28" y1="14.75" x2="28" y2="20.85" gradientUnits="userSpaceOnUse"><stop offset=".17" stop-color="#009533"/><stop offset=".28" stop-color="#009133"/><stop offset=".46" stop-color="#00822F"/><stop offset=".55" stop-color="#00762C"/><stop offset=".62" stop-color="#006627"/><stop offset=".7" stop-color="#00521F"/><stop offset=".8" stop-color="#00290C"/></linearGradient><linearGradient id="ddlagtj13" x1="29.54" y1="25.36" x2="29.54" y2="22.57" gradientUnits="userSpaceOnUse"><stop stop-color="#fff"/><stop offset=".21" stop-color="#FDFEFF"/><stop offset=".35" stop-color="#F6FAFD"/><stop offset=".48" stop-color="#E9F3FA"/><stop offset=".69" stop-color="#BDDCF1"/><stop offset=".78" stop-color="#9BCBEA"/><stop offset=".87" stop-color="#69B8E2"/><stop offset="1" stop-color="#0099D6"/></linearGradient><linearGradient id="edlagtj13" x1="26.42" y1="29.06" x2="26.42" y2="26.27" gradientUnits="userSpaceOnUse"><stop offset=".21" stop-color="#FDFEFF"/><stop offset=".35" stop-color="#F6FAFD"/><stop offset=".58" stop-color="#D7E9F6"/><stop offset=".69" stop-color="#BDDCF1"/><stop offset=".78" stop-color="#9BCBEA"/><stop offset=".96" stop-color="#00A3DA"/></linearGradient><linearGradient id="fdlagtj13" x1="29.57" y1="25.65" x2="29.57" y2="23.25" gradientUnits="userSpaceOnUse"><stop offset=".21" stop-color="#00428B"/><stop offset=".34" stop-color="#2D4181"/><stop offset=".44" stop-color="#623E6B"/><stop offset=".61" stop-color="#D60019"/></linearGradient><linearGradient id="gdlagtj13" x1="26.42" y1="29.36" x2="26.42" y2="26.96" gradientUnits="userSpaceOnUse"><stop offset=".21" stop-color="#00428B"/><stop offset=".34" stop-color="#2D4181"/><stop offset=".53" stop-color="#9A334A"/><stop offset=".61" stop-color="#D60019"/></linearGradient><linearGradient id="hdlagtj13" x1="25.19" y1="20.51" x2="31.08" y2="20.51" gradientUnits="userSpaceOnUse"><stop offset=".14" stop-color="#B77218"/><stop offset=".24" stop-color="#BE7A1E"/><stop offset=".32" stop-color="#C98927"/><stop offset=".4" stop-color="#DA9F36"/><stop offset=".44" stop-color="#E9B245"/></linearGradient><linearGradient id="jdlagtj13" x1="15.31" y1="16.09" x2="39.27" y2="41.99" gradientUnits="userSpaceOnUse"><stop stop-color="#4C4F52"/><stop offset=".45" stop-color="#FEFEFE"/><stop offset="1" stop-color="#525457"/></linearGradient><radialGradient id="adlagtj13" cx="0" cy="0" r="1" gradientUnits="userSpaceOnUse" gradientTransform="matrix(4.62211 0 0 4.82492 28.24 18.22)"><stop stop-color="#D60019"/><stop offset="1" stop-color="#AD0008" stop-opacity=".98"/></radialGradient><radialGradient id="idlagtj13" cx="0" cy="0" r="1" gradientUnits="userSpaceOnUse" gradientTransform="matrix(4.70696 .00538 -.00514 4.49928 28.09 17.38)"><stop stop-color="#D60019"/><stop offset="1" stop-color="#AD0008"/></radialGradient></defs></svg>