<!-- by TradingView --><svg width="56" height="56" fill="none" xmlns="http://www.w3.org/2000/svg"><path fill="#333" d="M0 0h56v56H0z"/><path d="M56 0L0 56V0h56z" fill="#5901F6"/><path fill-rule="evenodd" clip-rule="evenodd" d="M19.628 36.442a27.799 27.799 0 01-.109-.108c-7.468-7.47-9.76-17.29-5.118-21.932 4.642-4.643 14.46-2.351 21.928 5.119l.066.067-2.699 2.713-.073-.074c-5.943-5.945-13.313-8.211-16.46-5.063-3.148 3.148-.882 10.52 5.062 16.464l.102.102-2.699 2.712z" fill="url(#paint0_linear_1530)"/><path fill-rule="evenodd" clip-rule="evenodd" d="M36.372 19.558l.109.108c7.468 7.47 9.76 17.29 5.118 21.932-4.642 4.643-14.46 2.351-21.928-5.119l-.066-.067 2.698-2.713.074.074c5.943 5.945 13.313 8.211 16.46 5.063 3.148-3.148.882-10.52-5.062-16.464a32.537 32.537 0 00-.102-.102l2.699-2.712z" fill="url(#paint1_linear_1530)"/><defs><linearGradient id="paint0_linear_1530" x1="34.098" y1="19.728" x2="20.377" y2="33.346" gradientUnits="userSpaceOnUse"><stop stop-color="#FBFCFA"/><stop offset=".817" stop-color="#9359FD" stop-opacity=".07"/></linearGradient><linearGradient id="paint1_linear_1530" x1="21.279" y1="36.245" x2="35.173" y2="24.73" gradientUnits="userSpaceOnUse"><stop stop-color="#01FDFE"/><stop offset="1" stop-color="#01FDFE" stop-opacity=".06"/></linearGradient></defs></svg>