<!-- by TradingView --><svg xmlns="http://www.w3.org/2000/svg" width="56" height="56"><path fill="#23669F" d="M0 0h56v56H0z"/><path d="M29.58 12.08a16.2 16.2 0 00-3.14 0c-.64 9.44-4.84 17.47-8.75 21.2-.59.57-2.07 1.62-3.6 2.63a16 16 0 0027.7.22 39.62 39.62 0 01-3.74-2.85c-5.34-5.18-7.93-15.67-8.47-21.2z" fill="#EF535A"/><path d="M30 12.12c.05 6.92 4.61 18.53 12.47 22.71-.3.62-.63 1.23-1 1.8-7.44-5.38-12.15-15.5-12.17-24.58l.7.07zm-3.5-.05c-.02 9.01-4.62 19.12-12.14 24.3-.32-.53-.61-1.07-.87-1.63 7.75-4.24 12.24-15.71 12.3-22.59l.71-.08z" fill="#F0F3FA"/><path d="M34.5 28h-13v-1h13v1z" fill="#F0F3FA"/><path d="M23 43.2a5.58 5.58 0 01-2-4.2c0-3.31 3.13-6 7-6s7 2.69 7 6c0 1.64-.77 3.12-2 4.2a15.98 15.98 0 01-10 0z" fill="#23669F"/><path d="M19.53 41.58c.35-4.71 3.33-9.08 8.47-9.08 5.14 0 8.12 4.37 8.47 9.08a15.9 15.9 0 01-4.35 1.88C37.08 40.5 33.52 33 28 33c-5.53 0-9.08 7.5-4.12 10.46a15.9 15.9 0 01-4.35-1.88z" fill="#fff"/><path d="M27.72 39.94v-.64c0-.69-.85-1.3-.84-2.12.01-.96.73-1.98 1.12-2.4.4.42 1.11 1.44 1.12 2.4.01.83-.84 1.43-.84 2.12v.64h-.56zm-2.3-2.02c.97 0 1.9 1.38 2.12 2.02h-.37c-.46-.64-.99-1.4-1.66-1.2-.3.1-.39.4-.27.56.2.27.81.16.6.73-.06.16-.23.28-.6.28-.74 0-.99-.7-1.02-1.01-.06-.5.19-1.38 1.2-1.38zm5.16 0c-.97 0-1.9 1.38-2.12 2.02h.37c.46-.64.99-1.4 1.66-1.2.3.1.39.4.27.56-.2.27-.81.16-.6.73.06.16.23.28.6.28.74 0 .99-.7 1.02-1.01.06-.5-.19-1.38-1.2-1.38zm-2.03 3.31a.55.55 0 11-1.1 0 .55.55 0 011.1 0z" fill="#E1BD6D"/><path fill-rule="evenodd" d="M28 43a15 15 0 100-30 15 15 0 000 30zm0 1a16 16 0 100-32 16 16 0 000 32z" fill="#fff"/></svg>