<!-- by TradingView --><svg width="56" height="56" viewBox="0 0 56 56" xmlns="http://www.w3.org/2000/svg"><path fill="url(#atfi3neat)" d="M0 0h56v56H0z"/><path d="M36.68 25h-6.34c0-.92-.53-3-2.66-3s-2.7 1.63-2.68 2.4c0 2 3.27 3.34 4.86 3.77 6.17 1.82 7.3 5.46 7.1 7.05.32 2.93-1 8.78-8.8 8.78-7.8 0-9.36-5.26-9.16-8h6c0 .93.57 3 3.16 3 2.07 0 2.8-2.3 2.84-3.1.16-.77-.9-2.2-5.91-3.63-6.28-1.79-6.07-6.2-6.07-7.39 0-1.2.03-7.88 8.83-7.88 7.04 0 8.82 5.37 8.83 8Z" fill="#fff"/><path fill="#E50913" d="M19 12h18v4H19z"/><defs><linearGradient id="atfi3neat" x1="10.42" y1="9.71" x2="68.15" y2="76.02" gradientUnits="userSpaceOnUse"><stop stop-color="#1A1E21"/><stop offset="1" stop-color="#06060A"/></linearGradient></defs></svg>