<!-- by TradingView --><svg width="56" height="56" viewBox="0 0 56 56" xmlns="http://www.w3.org/2000/svg"><path fill="#F0F3FA" d="M0 0h56v56H0z"/><path d="M23.86 18 19 25.47 24 21h5.07c1.62 0 2.93.92 2.93 2.43 0 1.51-1.31 2.57-2.93 2.57h-.57l-3 3.87v6.53L28 38v-8.93h.86c3.39 0 6.14-2.4 6.14-5.57 0-3.17-2.75-5.5-6.14-5.5h-5Z"/><path d="M28 11a17 17 0 1 1 0 34 17 17 0 0 1 0-34Zm0 2a15 15 0 1 0 0 30 15 15 0 0 0 0-30Z"/><path d="M25.5 22H28v4l-2.5 3v-7Z"/><path d="M25 26h-1v11.85l4 2.8v-1.87l-3-2.1V26Z"/></svg>