<!-- by TradingView --><svg width="56" height="56" viewBox="0 0 56 56" xmlns="http://www.w3.org/2000/svg"><path fill="url(#aptlmc2yz)" d="M0 0h56v56H0z"/><path d="m14 16 2-2 11 11-2 2-11-11ZM29 31l2-2 11 11-2 2-11-11ZM26 28l2-2 2 2-2 2-2-2ZM29 25l11-11 2 2-11 11-2-2ZM14 40l11-11 2 2-11 11-2-2Z" fill="#F2D30E"/><defs><linearGradient id="aptlmc2yz" x1="10.42" y1="9.71" x2="68.15" y2="76.02" gradientUnits="userSpaceOnUse"><stop stop-color="#1A1E21"/><stop offset="1" stop-color="#06060A"/></linearGradient></defs></svg>