<!-- by TradingView --><svg width="56" height="56" fill="none" xmlns="http://www.w3.org/2000/svg"><path fill="#F0F3FA" d="M0 0h56v56H0z"/><path fill-rule="evenodd" clip-rule="evenodd" d="M29.271 6c.043.882-.55 3.503-3.267 6.934-.737.933-1.58 1.896-2.446 2.886C20.437 19.39 17 23.32 17 27.452c0 4.223 1.944 7.014 2.915 7.881.145-1.071 1.097-3.936 3.754-6.822.817-.888 2.002-1.863 3.293-2.927 3.959-3.258 8.922-7.344 7.396-12.28 0 1.271-.965 4.33-4.825 6.392-3.861 2.062-6.21 4.57-6.902 5.567-.087-.481.257-2.234 1.495-3.907.136-.183.291-.388.463-.613C26.642 18.046 30.946 12.39 29.27 6zM26.73 50c-.043-.882.55-3.503 3.267-6.934.737-.933 1.58-1.896 2.446-2.886C35.563 36.61 39 32.68 39 28.548c0-4.223-1.944-7.014-2.915-7.881-.145 1.071-1.097 3.936-3.754 6.822-.817.888-2.002 1.863-3.293 2.927-3.959 3.258-8.922 7.344-7.396 12.28 0-1.271.965-4.33 4.826-6.392 3.86-2.062 6.21-4.57 6.901-5.567.087.481-.257 2.234-1.495 3.907-.136.183-.291.388-.463.613C29.358 37.955 25.054 43.61 26.73 50z" fill="url(#paint0_linear_1530)"/><defs><linearGradient id="paint0_linear_1530" x1="28" y1="6" x2="28" y2="50" gradientUnits="userSpaceOnUse"><stop offset=".352" stop-color="#FCCA08"/><stop offset="1" stop-color="#EE6233"/></linearGradient></defs></svg>