<!-- by TradingView --><svg width="56" height="56" xmlns="http://www.w3.org/2000/svg"><path fill="#1347E8" d="M0 0h56v56H0z"/><path d="M28 12a16 16 0 100 32 16 16 0 000-32zm15.185 15.346h-1.294v-.524l1.294-.015v.539zm-.334-2.793l-1.28.174-.073-.538 1.28-.174.073.538zm-1.105-3.419l.232.51-1.193.523-.218-.494 1.178-.538zm-1.615-2.443l.364.407-.975.858-.364-.407.975-.858zm-1.891-2.037l.407.364-.843.975-.422-.35.858-.974v-.015zm-2.27-1.818l.452.291-.698 1.091-.451-.29.698-1.092zm-2.574-1.28l.524.146-.32 1.25-.538-.145.334-1.236v-.015zm-2.836-.683l.553.043-.117 1.28-.538-.043.102-1.28zm-2.91-.35h.524v1.31h-.538v-1.31h.015zm-2.414.35l.102 1.28-.538.058-.102-1.31.538-.028zm-2.836.683l.335 1.266-.524.145-.335-1.265.524-.146zm-2.574 1.28l.712 1.091-.465.291-.698-1.09.45-.292zm-2.255 1.818l.843.975-.407.364-.843-.99.407-.349zm-1.891 2.022l.96.859-.35.407-.974-.873.35-.393h.014zm-1.63 2.473l1.18.524-.22.494-1.177-.538.218-.495v.015zm-1.017 2.866l1.28.174-.088.538-1.28-.174.073-.538h.015zm-.407 2.792h1.294v.553l-1.31-.014v-.539h.016zm.116 3.04l1.294-.145.044.552-1.28.131-.058-.538zm.582 2.764l1.265-.291.131.51-1.266.29-.13-.524v.015zm1.41 3.287l-.261-.48 1.12-.64.276.466-1.134.654zm1.848 2.284l-.408-.364.902-.945.393.378-.887.93zm2.065 1.847l-.436-.32.742-1.047.436.32-.742 1.047zm2.415 1.615l-.48-.248.61-1.149.48.248-.61 1.163v-.014zm2.676 1.018l-.523-.073.203-1.28.538.087-.218 1.28v-.014zm2.342.45v-1.294h.538v1.295h-.538zM14.53 28a13.484 13.484 0 0126.94 0 13.484 13.484 0 01-26.94 0zm14.532 15.244h-.03l-.116-1.28.538-.058h.03L29.6 43.2l-.538.044zm2.88-.611l-.218-1.266.523-.101.233 1.28-.538.087zm2.764-.946l-.452-1.221.51-.175.436 1.207-.51.19h.016zm2.443-1.498l-.8-1.018.422-.335.8 1.019-.436.334h.014zm2.08-2.036l-.93-.902.377-.378.931.902-.378.378zm1.702-2.182l-1.047-.771.32-.436 1.047.77-.32.437zm1.382-2.618l-1.222-.407.189-.51 1.222.437-.19.509v-.03zm.77-2.939l-1.308-.058.043-.552 1.295.072-.03.538z" fill="#fff"/><path fill-rule="evenodd" d="M29 21h-2a3 3 0 00-3 3v6a3 3 0 003 3h2a3 3 0 003-3v-6a3 3 0 00-3-3zm-2-1a4 4 0 00-4 4v6a4 4 0 004 4h2a4 4 0 004-4v-6a4 4 0 00-4-4h-2z" fill="#fff"/><path d="M29.14 31.126a.5.5 0 01.707.014l2.904 3.02a.5.5 0 01-.721.694l-2.904-3.021a.5.5 0 01.014-.707z" fill="#fff"/></svg>