<!-- by TradingView --><svg width="56" height="56" viewBox="0 0 56 56" xmlns="http://www.w3.org/2000/svg"><path fill="url(#aiomqiasw)" d="M0 0h56v56H0z"/><path d="M43.02 16.09a1.6 1.6 0 0 0-1.76.51L33.5 26c-1.41-1.73-2.83-3.28-4.25-5.01-.07-.09-.45-.53-1.13-.58-.85-.06-1.37.58-1.42.62-1.4 1.73-2.87 3.24-4.28 4.97l-7.66-9.36c-.65-.6-1.51-.76-2.1-.42-.4.23-.58.6-.65.78v22.06c.04.08.3.65.97.87.74.24 1.34-.18 1.4-.22L22.4 30c1.54 1.87 3.08 3.54 4.62 5.41.11.07.47.3.96.28.45-.03.76-.22.87-.3L33.5 30l7.28 8.76c.53 1.06 1.66 1.47 2.4 1.12.66-.32.8-1.17.82-1.27V17.4a1.44 1.44 0 0 0-.98-1.31ZM15 35V21l6 7.07L15 35Zm13.23-2.38a.4.4 0 0 1-.25.12c-.18.02-.3-.11-.33-.12-1.25-1.52-2.4-3.05-3.65-4.57l3.52-4.55c.1-.03.28-.08.5-.08.17.01.3.05.4.08L32 27.98l-3.77 4.64ZM41 35l-6-6.95L41 21v14Z" fill="#fff"/><defs><linearGradient id="aiomqiasw" x1="28" y1="0" x2="28" y2="56" gradientUnits="userSpaceOnUse"><stop stop-color="#39A3DB"/><stop offset="1" stop-color="#1B3586"/></linearGradient></defs></svg>