<!-- by TradingView --><svg width="56" height="56" viewBox="0 0 56 56" xmlns="http://www.w3.org/2000/svg"><path fill="#F0F3FA" d="M0 0h56v56H0z"/><path d="M22.1 12a37.68 37.68 0 0 0-2.72 1.09c-.06.05.7 1.05 1.7 2.2 1 1.16 2.95 3.46 4.35 5.12a32.56 32.56 0 0 0 2.71 3.03c.23 0 5.82-3.4 5.82-3.55 0-.26-3.38-4.36-5.03-6.1-2.03-2.13-2.95-2.82-3.71-2.79-.28.01-1.68.46-3.12 1Zm14 2.65c-.04.08-.26.77-.49 1.54-.22.76-.65 1.93-.94 2.59-.3.65-.46 1.24-.37 1.3l3.09 1.96 2.92 1.86.12 1.77c.07.97.17 2.6.22 3.62l.1 1.86-2.5 2.01c-1.57 1.26-2.62 1.98-2.8 1.92-.17-.05-1.62-.69-3.23-1.42a51.7 51.7 0 0 0-3.3-1.43c-.32-.07-.76.73-3.43 6.16a93.35 93.35 0 0 0-3.07 6.58c0 .48.7.73 2.57.94 2.49.28 3.5-.04 4.67-1.47.61-.75 4.46-6.57 5.57-8.43.5-.83.4-.93 1.69 1.64 1.23 2.48 1.53 2.89 2.1 2.89.54 0 1.18-.63 2.5-2.42.77-1.03.86-1.26.86-2.13 0-1.4-.3-2.84-.82-3.9-.24-.51-.7-.91-.67-.94.03-.03.8-.14 1.4-.2 1.72-.2 1.8-.34 1.66-2.77-.22-3.8-.28-3.9-2.28-4.12a4.06 4.06 0 0 1-1.2-.24c-.04-.06.05-.57.2-1.13a6.9 6.9 0 0 0-1.4-5.98c-.52-.64-2.6-2.2-2.94-2.2a.3.3 0 0 0-.23.14Zm-16.97 9.47c-6.17.43-6.52.48-6.84.86-.32.37-.34.62-.23 2.8.16 3.33.1 3.66.67 4.04.27.18 1.34.18 6.2.18 5.02 0 9.35.07 9.6-.18.09-.1-.38-7-.54-7.78-.1-.53-.16-.53-8.86.08Z"/></svg>