<!-- by TradingView --><svg width="56" height="56" viewBox="0 0 56 56" xmlns="http://www.w3.org/2000/svg"><path fill="#F0F3FA" d="M0 0h56v56H0z"/><path d="M41 28c0-2.51-.73-4.97-2.1-7.07l5.1-5.1L40.17 12l-5.1 5.1a12.94 12.94 0 0 0-14.14 0l-5.1-5.1L12 15.83l5.1 5.1a12.94 12.94 0 0 0 0 14.14l-5.1 5.1L15.83 44l5.1-5.1a12.94 12.94 0 0 0 14.14 0l5.1 5.1L44 40.17l-5.1-5.1c1.37-2.1 2.1-4.56 2.1-7.07Zm-20.58 0a7.58 7.58 0 1 1 14.5 3.1l-5-5.02-3.84 3.84 5 5A7.57 7.57 0 0 1 20.43 28Z" fill="#062893"/></svg>