<!-- by TradingView --><svg width="56" height="56" xmlns="http://www.w3.org/2000/svg"><path fill="#2E9AD0" d="M0 0h56v56H0z"/><path fill-rule="evenodd" d="M22.739 12.99h9.755l7.877 5.763 2.99 9.286-2.888 8.81 3.535 3.254-.678.736-3.47-3.197-7.445 5.368H22.66l-7.877-5.77-2.99-9.285 3.04-9.27 7.906-5.695zm17.356 21.802l-.953-6.834.985-6.7 2.183 6.778-2.215 6.756zM38.906 18.92l-5.592-4.091 1.87 5.502 3.722-1.41zm-3.99 3.188l-2.654 5.847 2.654 5.764 3.152-5.764-3.152-5.847zm3.434 7.415l-2.77 5.067 3.7 1.597-.93-6.664zm.54 7.585l-3.714-1.603-1.942 5.681 5.656-4.078zm-6.79 4.307l2.045-5.985-5.708.732 3.663 5.253zm-3.65-6.263l5.689-.73-2.459-5.34-3.23 6.07zm3.234-8.342l2.464-5.43-5.701-.844 3.237 6.274zm-.536 1.143L27.53 20.94l-4.051 7.012 4.05 6.8 3.618-6.8zm-4.483 8.216l-3.728 5.309-2.505-6.05 6.233.741zm-6.272-1.752l2.558-5.399 3.655 6.137-6.213-.738zm1.955-6.462l-2.727 5.757-3.024-5.757 3.024-5.84 2.727 5.84zm-2.96-7.637l2.329-5.36-5.467 3.938 3.138 1.422zm-4.418 1.158l-2.126 6.482 2.09 6.492.597-6.495-.561-6.48zm1.406 8.21l2.583 4.917-3.172 1.503.59-6.42zm.006-3.491l-.554-6.392 3.13 1.418-2.576 4.974zm-.2 10.83l5.496 4.026-2.295-5.542-3.201 1.516zm7.604 4.985h7.51l-3.742-5.366-3.768 5.366zm-.776-27.518l-2.553 5.874 6.203-.85-3.65-5.024zm.871-.502l3.68 5.064 3.773-5.064h-7.453zm8.282.561l-3.707 4.975 5.685.842-1.978-5.817zm-5.551 5.981l-6.228.854 2.563 5.49 3.665-6.344zm11.75 5.86l-2.773-5.144 3.738-1.418-.965 6.562z" fill="#fff"/><path d="M25.02 14a2 2 0 11-4 0 2 2 0 014 0zM34 14a2 2 0 11-4 0 2 2 0 014 0zm-19 7a2 2 0 100-4 2 2 0 000 4zm23-2a2 2 0 104 0 2 2 0 00-4 0zm-17.983 4a2 2 0 100-4 2 2 0 000 4zm12.967-2a2 2 0 104 0 2 2 0 00-4 0zM27.5 22a2 2 0 100-4 2 2 0 000 4zM23.02 40a2 2 0 110 4 2 2 0 010-4zM32 40a2 2 0 110 4 2 2 0 010-4zm-15-3a2 2 0 10-4 0 2 2 0 004 0zm23-2a2 2 0 100 4 2 2 0 000-4zm2 6.068a2 2 0 114 0 2 2 0 01-4 0zM20.016 33a2 2 0 110 4 2 2 0 010-4zm12.968 2a2 2 0 114 0 2 2 0 01-4 0zM31.5 26a2 2 0 100 4 2 2 0 000-4zm-6.457 2a2 2 0 10-4 0 2 2 0 004 0zm13.377-2a2 2 0 100 4 2 2 0 000-4zm-19.887 2a2 2 0 10-4 0 2 2 0 004 0zm24.397-2a2 2 0 100 4 2 2 0 000-4zm-28.907 2a2 2 0 10-4 0 2 2 0 004 0zM27.5 34a2 2 0 110 4 2 2 0 010-4z" fill="#fff"/></svg>