<!-- by TradingView --><svg width="56" height="56" viewBox="0 0 56 56" xmlns="http://www.w3.org/2000/svg"><path fill="#F0F3FA" d="M0 0h56v56H0z"/><path d="M43.63 31.41a16 16 0 0 0-9.36-18.14A7.3 7.3 0 0 1 33.01 15h1c-.4 1.2-3.17 2.83-4.5 3.5l-1 2c1.2-.4 2.83-1.5 3.5-2 4.8 0 8.67 3.67 10 5.5-1.2-.8-3.17-2-4-2.5l.5 1c-2-.8-4.5-1.33-5.5-1.5 5.85 1.52 9.04 6.1 10.63 10.41Zm-7.67 10.47a16 16 0 1 1-2.7-29c-.63.96-1.87 2.58-3.26 3.62-.17-.5-.6-1.5-1-1.5-.33.5-1.3 1.6-2.5 2-1.5.5-4 1.5-4 3 0 1.2.67 1.5 1 1.5 0 .17-.2.4-1 0-.33.5-1.3 1.5-2.5 1.5s-1.17-1-1-1.5c-1.17.83-3.2 3.2-2 6 1.67-1.5 6.4-4 12-2 0-.67-.4-2.1-2-2.5 2.5-.33 8.3.6 11.5 7 2.3 4.62.07 9-2.54 11.88Z" fill="url(#ar0oikqlq)"/><path d="M17.75 26.91c.42.84 1.49 1.8 3.75 2.09-.17-.17-.5-.6-.5-1 0-.5.5-1.5 3-1.5s6 .5 6 3.5-3 6-7.5 6c-3.99 0-8.77-3.93-10.5-7.61a16 16 0 0 0 23.96 13.5c2.61-2.9 4.85-7.27 2.54-11.89-3.2-6.4-9-7.33-11.5-7 1.6.4 2 1.83 2 2.5a12.5 12.5 0 0 0-11.25 1.41ZM35.04 13.63c-1.24 4-4.65 6.2-6.54 6.87l6.54-6.87ZM37.95 23.38A14.05 14.05 0 0 0 33 21c1 .17 3.5.7 5.5 1.5l-.5-1c.83.5 2.8 1.7 4 2.5a10.66 10.66 0 0 0-4.05-.62Z" fill="#161F42"/><path d="M36 10c.4 5.2-5 9.33-7.5 10.5l1-2c2-.8 3.83-2.67 4.5-3.5h-1c1-1 2.67-3.83 3-5Z" fill="#161F42"/><path d="M17.53 40.1A14.7 14.7 0 0 0 25 42c7 0 9.5-6 9.5-8 0-1.6-.33-2.33-.5-2.5a3.6 3.6 0 0 1-2.5 2.5c1-7-5-7.5-7.5-7.5s-3 1-3 1.5c0 .4.33.83.5 1a5.92 5.92 0 0 1-4-2c6-3.5 10-2 12-.5-.2-1.28-1.41-2.2-2-2.5 7 .5 11 4.5 11 10 0 4.06-1.42 6.58-2.3 7.74a15.94 15.94 0 0 1-18.68-1.64Z" fill="#262F71"/><path d="M19 23.5c-.4 0-.83.67-1 1 .8-.4 1.33-.17 1.5 0 0-.33-.1-1-.5-1ZM25 19.5c-.8.4-1 1.17-1 1.5 2.8 0 3.83-2 4-3-.5 1-2 1-3 1.5Z" fill="#478DCC"/><path d="M25.8 20.67A3.68 3.68 0 0 0 28 18c-.24.48-.7.73-1.24.91-.2.59-.5 1.24-.96 1.76Z" fill="#161F42"/><defs><linearGradient id="ar0oikqlq" x1="19.5" y1="14.5" x2="36.5" y2="40" gradientUnits="userSpaceOnUse"><stop stop-color="#428ACA"/><stop offset=".08" stop-color="#7EA6D8"/><stop offset=".17" stop-color="#5391CD"/><stop offset=".62" stop-color="#418ACA"/></linearGradient></defs></svg>