<!-- by TradingView --><svg width="56" height="56" viewBox="0 0 56 56" xmlns="http://www.w3.org/2000/svg"><path fill="#4FFFBF" d="M0 0h56v56H0z"/><path d="M40.33 29.54c-1.17-3.93-3.54-6.82-7.44-7.96a20.48 20.48 0 0 0-5.57-.58h-5.16c-1.6 0-3.03-.53-4.27-1.27-.53-.31-1.2-.87-2-1.68A84.38 84.38 0 0 1 14 16.08v-.04l.03-.03.04-.01H26.4c2.16 0 4.19.16 6.07.48 4.5.78 8.27 3.03 8.74 8.1.15 1.69-.1 3.34-.77 4.96-.04.12-.09.11-.12 0Zm-6.9-1.91 2.48 2.62A2779.83 2779.83 0 0 1 45 39.9v.04l-.03.04a7.56 7.56 0 0 1-7.34-1.17c-.5-.32-1.2-.96-2.1-1.91l-4.18-4.42A7.58 7.58 0 0 0 27 30.12c-.8-.13-1.69-.11-2.6-.1-.95.02-1.92.04-2.8-.12a7.6 7.6 0 0 1-4.18-2.21 142.86 142.86 0 0 1-2.4-2.57.14.14 0 0 1-.02-.06l.01-.04.03-.01h11.37c1.43 0 2.44.07 3.05.22a7.98 7.98 0 0 1 3.98 2.4ZM32 39.93a1080.14 1080.14 0 0 0-.22-.28c-1.58-1.8-3.21-3.68-5.33-4.24a14.5 14.5 0 0 0-3.68-.41h-7.66c-.12 0-.14.05-.06.15l1.77 1.91c.7.76 1.3 1.3 1.8 1.64 1.29.86 2.65 1.3 4.08 1.3a4448.73 4448.73 0 0 1 9.3-.02.05.05 0 0 0 0-.04Z" fill="#1B1E1F"/></svg>