<!-- by TradingView --><svg width="56" height="56" fill="none" xmlns="http://www.w3.org/2000/svg"><path fill="#F0F3FA" d="M0 0h56v56H0z"/><path d="M33 31.574l-5 3.062-5-3.062v-6.136l5-3.074 5 3.074v6.136z" fill="#00B5D1"/><path d="M28 9.5l-16 9.506v18.988L28 47.5l16-9.506V19.006L28 9.5zm-8 23.603V23.85l8-4.553 8 4.553v9.254l-8.059 4.615L20 33.103zm0 5.334v-3.212l10.672 6.257L28 43.077l-8-4.64zm20-2.649l-7.546 4.64-2.766-1.655L38 34.134V22.818l-10-5.567-10 5.567V37.112l-2-1.453V21.34l12-7.158 12 7.029v14.576z" fill="#0D285A"/></svg>