<!-- by TradingView --><svg xmlns="http://www.w3.org/2000/svg" width="56" height="56" viewBox="0 0 56 56"><path fill="url(#a52mup5oj)" d="M0 0h56v56H0z"/><path d="M27 7h3v5h8.03v10h-.92c-.75-4.11-5.34-9.08-9.68-9.08-3.25 0-6.84 1.58-6.84 4.51 0 3.57 3.79 5.47 6.41 6.67v7.55c-.85-.3-1.64-.58-2.26-.87-4.23-2-8.85-4.6-8.74-9.78.11-5.65 5-9 11-9V7z" fill="#040708"/><path d="M27 44h1.48l-10.65-.02H17V33h.83c1.06 4.9 5.22 10 10.98 10 4.17 0 6-2.5 5.81-6.12-.12-2.2-2.3-3.19-4.62-4.17V25a12.74 12.74 0 0 1 1.04.52c3.9 1.77 7.96 3.9 7.96 9.01C39 41 33.37 44 29 44l1-.05V49h-3v-5z" fill="#040708"/><defs><linearGradient id="a52mup5oj" x1="10.42" y1="9.71" x2="46" y2="52.5" gradientUnits="userSpaceOnUse"><stop stop-color="#E7F88F"/><stop offset="1" stop-color="#50F0F8"/></linearGradient></defs></svg>