<!-- by TradingView --><svg width="56" height="56" fill="none" xmlns="http://www.w3.org/2000/svg"><path fill="url(#paint0_linear_1530)" d="M0 0h56v56H0z"/><path fill-rule="evenodd" clip-rule="evenodd" d="M14 17h22.384C39.486 17 42 19.497 42 22.578a5.575 5.575 0 01-3.115 4.996C40.73 28.474 42 30.342 42 32.5c0 .169-.008.335-.023.5H42v5h-8v-5.326C34 31.75 33.152 31 32.107 31H22v7h-8V17zm18.5 5H22v3h10.5c.645 0 1.5-.672 1.5-1.5s-.855-1.5-1.5-1.5z" fill="#fff"/><defs><linearGradient id="paint0_linear_1530" x1="5.558" y1="11.088" x2="57.785" y2="39.93" gradientUnits="userSpaceOnUse"><stop offset=".058" stop-color="#2568FF"/><stop offset=".306" stop-color="#5E9AFE"/><stop offset=".819" stop-color="#FF74F2"/></linearGradient></defs></svg>