<!-- by TradingView --><svg width="56" height="56" fill="none" xmlns="http://www.w3.org/2000/svg"><path fill="#141B35" d="M0 0h56v56H0z"/><path d="M42 24v12l-14 7.76L14 36V20l14-7.788 11.013 5.855 1.662-.934L28 10l-16 9.002v17.996L28 46l16-9.002V22.576L42 24z" fill="url(#paint0_linear_1530)"/><path d="M25 36h-3v-8h7c1.521-.016 2.996-1.016 3-2.558.018-1.517-1.495-2.452-3-2.442h-7v-3h7.59c3.204 0 5.385 2.402 5.41 5.442.027 3.283-2.572 5.558-6.217 5.558H25v5z" fill="url(#paint1_linear_1530)"/><path d="M35.514 36h-3.486l-2.158-3.791c.854-.05 2.32-.4 3.147-.848L35.514 36z" fill="url(#paint2_linear_1530)"/><path d="M40.5 21.038l1.75.962 1.75-.962v-2.034L42.25 18l-1.75 1.004v2.034z" fill="url(#paint3_linear_1530)"/><defs><linearGradient id="paint0_linear_1530" x1="43.972" y1="19.012" x2="10.29" y2="32.835" gradientUnits="userSpaceOnUse"><stop stop-color="#C200FB"/><stop offset=".49" stop-color="#3772FF"/><stop offset=".49" stop-color="#3773FE"/><stop offset="1" stop-color="#5AC4BE"/></linearGradient><linearGradient id="paint1_linear_1530" x1="43.972" y1="19.012" x2="10.29" y2="32.835" gradientUnits="userSpaceOnUse"><stop stop-color="#C200FB"/><stop offset=".49" stop-color="#3772FF"/><stop offset=".49" stop-color="#3773FE"/><stop offset="1" stop-color="#5AC4BE"/></linearGradient><linearGradient id="paint2_linear_1530" x1="43.972" y1="19.012" x2="10.29" y2="32.835" gradientUnits="userSpaceOnUse"><stop stop-color="#C200FB"/><stop offset=".49" stop-color="#3772FF"/><stop offset=".49" stop-color="#3773FE"/><stop offset="1" stop-color="#5AC4BE"/></linearGradient><linearGradient id="paint3_linear_1530" x1="44.004" y1="19.006" x2="8.216" y2="33.465" gradientUnits="userSpaceOnUse"><stop stop-color="#C200FB"/><stop offset=".49" stop-color="#3772FF"/><stop offset=".49" stop-color="#3773FE"/><stop offset="1" stop-color="#5AC4BE"/></linearGradient></defs></svg>