<!-- by TradingView --><svg width="56" height="56" viewBox="0 0 56 56" xmlns="http://www.w3.org/2000/svg"><path fill="#4155FF" d="M0 0h56v56H0z"/><path d="M45.93 20.75a1.12 1.12 0 0 0-1.03-.74 1.1 1.1 0 0 0-1 .63c-.29.62-.6 1.22-.96 1.8a15.98 15.98 0 0 0-7.64-8.66 15.85 15.85 0 0 0-20.72 5.63 16.07 16.07 0 0 0-2.25 11.34 20.56 20.56 0 0 0-2.2 3.65 1.1 1.1 0 0 0 .93 1.6 1.1 1.1 0 0 0 1.05-.66c.29-.61.61-1.21.97-1.79a15.97 15.97 0 0 0 7.63 8.67 15.85 15.85 0 0 0 20.72-5.63 16.06 16.06 0 0 0 2.26-11.34c.86-1.14 1.6-2.36 2.2-3.65a1.1 1.1 0 0 0 .04-.85ZM41.73 28c0 3.36-1.23 6.62-3.45 9.14a13.7 13.7 0 0 1-23.6-5.83 20.43 20.43 0 0 1 10.45-6.33c2.24-.6 4.53-.96 6.85-1.05l-3.29 3.3 1.56 1.57 5.95-5.99L29.42 16l-1.55 1.56L32 21.72c-2.5.08-4.98.46-7.4 1.12-2.84.75-5.52 2-7.93 3.68-.84.6-1.64 1.27-2.38 2l-.01-.53a13.7 13.7 0 0 1 27.03-3.32 20.3 20.3 0 0 1-10.44 6.34c-2.24.6-4.53.96-6.85 1.05l3.28-3.3-1.56-1.57-5.94 5.98L26.6 40l1.55-1.56-4.13-4.16c2.5-.09 4.98-.46 7.4-1.12 2.83-.75 5.52-2 7.92-3.68.85-.6 1.65-1.27 2.39-2V28Z" fill="#fff"/></svg>