<!-- by TradingView --><svg xmlns="http://www.w3.org/2000/svg" width="56" height="56"><path fill="#5431A9" d="M0 0h56v56H0z"/><path d="M14.5 28.62a.8.8 0 00.14 0h.15c.63 0 1.23-.12 1.78-.4a5.45 5.45 0 001.48-1.04c.43-.42.76-.89 1-1.4.24-.52.36-1.02.36-1.5 0-.35-.06-.68-.2-1a2.04 2.04 0 00-.59-.81 2.97 2.97 0 00-1.04-.55 6.91 6.91 0 00-3.22-.02c-.48.12-.89.28-1.24.47-.34.2-.63.42-.87.68a6 6 0 00-1.06 1.56c-.14.26-.29.48-.44.68-.14.2-.3.35-.49.48-.18.12-.4.18-.67.18-.36 0-.64-.09-.82-.27a1.08 1.08 0 01-.27-.78c0-.31.08-.65.25-1.02a5 5 0 01.73-1.08 8.1 8.1 0 012.7-1.94 9.6 9.6 0 016.14-.58c.68.2 1.28.47 1.8.85a4.05 4.05 0 011.43 4.84c-.18.46-.43.9-.74 1.3s-.68.77-1.1 1.1a9.24 9.24 0 01-2.79 1.57c-.5.18-.97.3-1.43.39a8.8 8.8 0 00.86 2.36c.21.38.45.7.71.97a1.3 1.3 0 001 .44h.15c.53 0 1-.08 1.41-.26a4.73 4.73 0 001.88-1.41c.23-.26.46-.38.69-.38a.5.5 0 01.37.15c.1.1.15.24.15.41 0 .17-.05.37-.16.59-.1.22-.28.45-.53.69a8.27 8.27 0 01-2.2 1.54c-.71.32-1.39.48-2.03.48-.52 0-1-.15-1.44-.45-.45-.3-.85-.7-1.21-1.2-.36-.51-.7-1.1-1-1.78-.29-.68-.55-1.4-.79-2.15-.13.3-.26.65-.4 1.05A54.3 54.3 0 0112 33.9c-.17.41-.36.78-.57 1.12-.21.32-.44.59-.68.8-.24.2-.5.3-.78.3-.23 0-.42-.04-.57-.11a.91.91 0 01-.33-.27 1.1 1.1 0 01-.18-.36 1.7 1.7 0 01.02-.89c.05-.17.1-.33.19-.48l3.2-5.88c.28-.5.56-.97.84-1.43.28-.46.55-.87.81-1.23.27-.35.52-.63.75-.85.24-.21.46-.32.64-.32.06 0 .12 0 .19.03.07.02.14.05.2.1.05.04.1.11.15.2.04.1.06.2.06.34s-.04.33-.12.58a31.48 31.48 0 01-1.32 3.07zm13.68.66a.5.5 0 00-.1 0h-.1c-.27 0-.53.05-.77.15-.24.11-.46.26-.66.44-.2.17-.38.37-.54.6a8.44 8.44 0 00-.91 1.82 40 40 0 002.56-1.59c.32-.2.55-.4.67-.57a.88.88 0 00.19-.47c0-.1-.04-.2-.11-.26a.41.41 0 00-.23-.12zm.39-1.5c.6 0 1.05.15 1.35.44.3.29.44.69.44 1.2 0 .3-.07.63-.23.96-.16.34-.44.68-.83 1.02-.4.35-.92.7-1.58 1.06-.65.36-1.47.71-2.46 1.08.04.2.15.37.34.5.19.11.44.17.75.17.33 0 .69-.05 1.07-.14.38-.1.76-.23 1.13-.38a16.82 16.82 0 002.77-1.42 4.95 4.95 0 01.57-.29l.15-.01c.09 0 .16.02.22.07.06.03.1.08.14.14.04.05.07.1.09.17l.02.15c0 .07 0 .15-.02.24a.7.7 0 01-.17.3 12.9 12.9 0 01-2.3 1.56 13.38 13.38 0 01-2.88 1.17c-.52.14-1.03.2-1.54.2-.44 0-.82-.08-1.17-.25a2.7 2.7 0 01-1.39-1.65 3.26 3.26 0 010-2.19c.12-.37.3-.75.53-1.13a6.88 6.88 0 012-2.06 5.16 5.16 0 013-.91zm7.27 1.5a.5.5 0 00-.1 0h-.1c-.27 0-.53.05-.77.15-.24.11-.46.26-.66.44-.2.17-.38.37-.54.6a8.47 8.47 0 00-.91 1.82 40.29 40.29 0 002.56-1.59c.32-.2.55-.4.67-.57a.88.88 0 00.19-.47c0-.1-.04-.2-.11-.26a.41.41 0 00-.23-.12zm.39-1.5c.6 0 1.05.15 1.35.44.3.29.45.69.45 1.2 0 .3-.08.63-.24.96-.16.34-.44.68-.83 1.02-.4.35-.92.7-1.58 1.06-.65.36-1.47.71-2.46 1.08.04.2.15.37.34.5.19.11.44.17.75.17.33 0 .69-.05 1.07-.14.38-.1.76-.23 1.13-.38a16.82 16.82 0 002.77-1.42 4.93 4.93 0 01.57-.29l.15-.01c.09 0 .16.02.22.07.06.03.1.08.14.14.04.05.07.1.09.17l.02.15c0 .07 0 .15-.02.24a.7.7 0 01-.17.3 12.84 12.84 0 01-2.3 1.56 13.37 13.37 0 01-2.88 1.17c-.52.14-1.03.2-1.54.2-.44 0-.82-.08-1.16-.25a2.69 2.69 0 01-1.4-1.65 3.25 3.25 0 010-2.19 6.87 6.87 0 012.52-3.19c.43-.27.89-.5 1.39-.66.5-.17 1.05-.25 1.62-.25zm10.37 1.59a62.46 62.46 0 01-2.06.05h-1.89l-.73 1.45-.74 1.54a3087.5 3087.5 0 01-2.59 5.45c-.08.16-.18.32-.3.45-.1.15-.23.27-.37.37a1.61 1.61 0 01-.83.32.86.86 0 01-.47-.13c-.14-.09-.2-.23-.2-.41 0-.1.02-.21.06-.34.04-.12.1-.27.19-.44l3.92-8.29h-.57c-1.26 0-1.27-1.39.04-1.39h1.28c.52-1.04.94-1.72 1.45-2.4a9.07 9.07 0 011.54-1.6 4.52 4.52 0 012.83-1.04 1.42 1.42 0 011.06.48c.15.16.26.36.35.6.09.25.13.53.13.86 0 .3-.04.65-.13 1.03a.56.56 0 01-.13.26 1.11 1.11 0 01-.46.26c-.08.02-.15.02-.2.02a.85.85 0 01-.4-.1.35.35 0 01-.2-.32 2.88 2.88 0 01.04-.5c0-.3-.06-.52-.17-.65a.55.55 0 00-.45-.2c-.22 0-.49.1-.8.3-.3.2-.6.45-.9.78a9 9 0 00-.9 1.12c-.28.41-.4.66-.59 1.1h2.54l.63.01c.2 0 .36.03.51.07.66.15.58.96-.02 1.2-.12.05-.28.07-.48.09z" fill="#fff"/><circle cx="42.39" cy="35.22" r="1.47" fill="#D24D99"/></svg>