<!-- by TradingView --><svg width="56" height="56" xmlns="http://www.w3.org/2000/svg"><path fill="url(#paint0_linear)" d="M0 0h56v56H0z"/><path d="M43.879 34.914l-3.388-5.698a.441.441 0 00-.61-.146l-2.202 1.422a.443.443 0 00-.14.596l1.935 3.253c.058.1.03.234-.07.298l-11.283 7.283a.21.21 0 01-.233 0l-11.29-7.283a.223.223 0 01-.07-.298l1.935-3.253a.443.443 0 00-.14-.596l-2.201-1.422a.432.432 0 00-.61.146l-3.388 5.698a.877.877 0 00.279 1.188l15.125 9.758a.859.859 0 00.941 0l15.125-9.758a.879.879 0 00.285-1.188z" fill="#fff"/><path d="M18.195 25.493l2.135 1.436a.41.41 0 00.592-.148l6.895-12.1a.206.206 0 01.36 0l6.901 12.1a.418.418 0 00.592.148l2.135-1.436a.458.458 0 00.135-.603L29.698 10.43a.848.848 0 00-.726-.431h-1.944a.841.841 0 00-.726.431L18.06 24.89a.458.458 0 00.135.603z" fill="#2AE7A8"/><defs><linearGradient id="paint0_linear" x1="10.418" y1="9.712" x2="68.147" y2="76.017" gradientUnits="userSpaceOnUse"><stop stop-color="#1A1E21"/><stop offset="1" stop-color="#06060A"/></linearGradient></defs></svg>