<!-- by TradingView --><svg width="56" height="56" fill="none" xmlns="http://www.w3.org/2000/svg"><path fill="url(#paint0_linear_1530)" d="M0 0h56v56H0z"/><path fill-rule="evenodd" clip-rule="evenodd" d="M28 38c5.523 0 10-4.477 10-10s-4.477-10-10-10-10 4.477-10 10 4.477 10 10 10zm0-1a9 9 0 100-18 9 9 0 000 18z" fill="url(#paint1_linear_1530)"/><path fill-rule="evenodd" clip-rule="evenodd" d="M21.502 39.26c6.218 3.59 14.169 1.46 17.759-4.758s1.459-14.168-4.759-17.758-14.168-1.46-17.758 4.758-1.46 14.169 4.758 17.759zM28 40c6.627 0 12-5.373 12-12s-5.373-12-12-12-12 5.373-12 12 5.373 12 12 12z" fill="url(#paint2_linear_1530)"/><path fill-rule="evenodd" clip-rule="evenodd" d="M28 45c9.389 0 17-7.611 17-17s-7.611-17-17-17-17 7.611-17 17 7.611 17 17 17zm0-1c8.837 0 16-7.163 16-16s-7.163-16-16-16-16 7.163-16 16 7.163 16 16 16z" fill="url(#paint3_linear_1530)"/><defs><linearGradient id="paint0_linear_1530" x1="10.418" y1="9.712" x2="68.147" y2="76.017" gradientUnits="userSpaceOnUse"><stop stop-color="#1A1E21"/><stop offset="1" stop-color="#06060A"/></linearGradient><linearGradient id="paint1_linear_1530" x1="17.9" y1="28.261" x2="38.1" y2="28" gradientUnits="userSpaceOnUse"><stop stop-color="#F9F9F9"/><stop offset="1" stop-color="#F9F9F9" stop-opacity="0"/></linearGradient><linearGradient id="paint2_linear_1530" x1="41.366" y1="28" x2="14.634" y2="28" gradientUnits="userSpaceOnUse"><stop stop-color="#F0F0F0"/><stop offset="1" stop-color="#F0F0F0" stop-opacity="0"/></linearGradient><linearGradient id="paint3_linear_1530" x1="11" y1="28" x2="45" y2="28" gradientUnits="userSpaceOnUse"><stop stop-color="#F0F0F0"/><stop offset="1" stop-color="#F0F0F0" stop-opacity="0"/></linearGradient></defs></svg>