<!-- by TradingView --><svg width="56" height="56" xmlns="http://www.w3.org/2000/svg"><path fill="url(#paint0_linear)" d="M0 0h56v56H0z"/><path d="M11 22.95a2.5 2.5 0 10-1 0V35h1V22.95zm18.707 2.582c.99-1.584 2.154-2.712 3.293-3.445v8.963a2.5 2.5 0 101 0v-9.514c.799-.365 1.555-.536 2.193-.536H39v12.05a2.5 2.5 0 101 0V21h5v12.05a2.5 2.5 0 101 0V21h2v-1H36.193c-2.233 0-5.25 1.61-7.397 5.107a3 3 0 00-2.611 5.282A11.002 11.002 0 0123 33.587V24.95a2.5 2.5 0 10-1 0v9.209c-1.166.578-2.293.841-3.186.841H8v1h10.814c2.386 0 5.933-1.544 8.26-5.146a3 3 0 002.633-5.322zM16 22.95a2.5 2.5 0 111 0V35h-1V22.95z" fill="#fff"/><defs><linearGradient id="paint0_linear" x1="8.591" y1="8.644" x2="44.308" y2="50.552" gradientUnits="userSpaceOnUse"><stop stop-color="#4530DD"/><stop offset="1" stop-color="#FB3777"/></linearGradient></defs></svg>