<!-- by TradingView --><svg width="56" height="56" viewBox="0 0 56 56" xmlns="http://www.w3.org/2000/svg"><path fill="#F0F3FA" d="M0 0h56v56H0z"/><circle cx="28" cy="27.89" r="15.86" fill="url(#al1mp2v4e)"/><path fill-rule="evenodd" d="M28 43.98a15.98 15.98 0 1 0 0-31.96 15.98 15.98 0 0 0 0 31.96Zm0-.98a15 15 0 1 0 0-30 15 15 0 0 0 0 30Z" fill="#FF7534"/><path fill-rule="evenodd" d="m23.57 26.43-1.63 1.95 2.3.86c.03.87.24 1.23.34 1.3l-.88.81.88.9.86-.9c.61.23 1.25.22 1.49.18l.8 2.34 2.03-1.83.5-2.26c4.67-4.24 5.2-7.63 4.88-8.8-4.14-.3-7.84 3.11-9.17 4.85l-2.4.6Zm.1 6.63-6.93 6.4-.73-.8 6.93-6.4.74.8Zm-2.22.15-5.68 5.2-.73-.8 5.68-5.2.73.8Zm2.06 2-5.74 5.26-.73-.8 5.74-5.26.73.8Zm6.19-7.7a1.34 1.34 0 1 0 0-2.68 1.34 1.34 0 0 0 0 2.67Z" fill="#fff"/><path fill-rule="evenodd" d="M28 45a17 17 0 1 0 0-34 17 17 0 0 0 0 34Zm0-1a16 16 0 1 0 0-32 16 16 0 0 0 0 32Z" fill="#FFD58D"/><defs><linearGradient id="al1mp2v4e" x1="14.7" y1="38.52" x2="43.86" y2="17.04" gradientUnits="userSpaceOnUse"><stop stop-color="#FB9533"/><stop offset=".26" stop-color="#FEBA67"/><stop offset=".75" stop-color="#FF9976"/><stop offset="1" stop-color="#FF6350"/></linearGradient></defs></svg>