<!-- by TradingView --><svg width="56" height="56" xmlns="http://www.w3.org/2000/svg"><path fill="#2FCCCD" d="M0 0h56v56H0z"/><path d="M42 19.201L29.2 12c-.469 2.397-.45 3.062 1.51 4.165l6.275 3.54c2.169 1.225 2.84 1.136 5.015-.504zM28.486 32.177a18.265 18.265 0 00-.097-.892 1.143 1.143 0 01-.003-.306c.799-.103 1.5-.52 1.974-1.124a.797.797 0 01.062.039c.291.207.598.398.904.589 1.1.684 2.2 1.368 2.613 2.816.322 1.128 1.57 1.524 2.636 1.158.477-.155.881-.47 1.14-.89.258-.42.352-.916.266-1.397-.153-1.072-1.156-2.045-2.25-1.767-1.567.394-2.799-.181-4.063-.771h-.001l-.333-.155a2.365 2.365 0 01-.56-.33c.146-.352.226-.739.226-1.144 0-.362-.064-.709-.182-1.03a.67.67 0 01.173-.121c.235-.12.468-.25.702-.382 1.073-.602 2.171-1.219 3.61-.797a2.138 2.138 0 001.762-.254c.46-.298.778-.761.887-1.288.26-1.118-.367-2.285-1.408-2.618a2.198 2.198 0 00-1.831.196c-.484.29-.829.754-.96 1.29-.345 1.22-1.306 1.799-2.235 2.358-.324.195-.643.387-.932.603a.475.475 0 01-.333.062 3 3 0 00-1.535-.932c-.259-.391-.24-.939-.203-2.033v-.011c.117-.98.353-1.83 1.09-2.6.824-.864.664-2.059-.163-2.809a2.195 2.195 0 00-1.46-.581 2.199 2.199 0 00-1.478.537c-.856.73-1.075 1.95-.239 2.793.93.937 1.032 2.032 1.135 3.171 0 .105.005.226.01.355.018.423.039.925-.106 1.156a4.718 4.718 0 01-.035.025 3 3 0 00-1.573.989.74.74 0 01-.398-.11c-.267-.188-.552-.36-.837-.533-1-.606-2.013-1.219-2.354-2.555-.281-1.146-1.554-1.667-2.664-1.364a2.25 2.25 0 00-1.283.982 2.141 2.141 0 00-.266 1.565c.238 1.12 1.277 1.965 2.469 1.641 1.411-.387 2.51.153 3.614.696.249.123.498.245.751.357.206.091.33.213.406.354a2.998 2.998 0 00.066 1.966c-.132.107-.32.198-.472.263-.223.095-.446.197-.67.299-1.173.535-2.363 1.079-3.803.723-1.148-.285-2.19.648-2.4 1.76-.082.48.011.973.264 1.393.252.42.648.742 1.119.908 1.046.407 2.364.062 2.688-1.023.398-1.343 1.388-2.02 2.388-2.704.329-.226.66-.451.97-.702a.909.909 0 01.33-.176 2.999 2.999 0 001.886 1.14l-.003.128a6.58 6.58 0 00-.004.195c-.025.249-.042.498-.06.746-.091 1.3-.181 2.581-1.258 3.674-.782.785-.443 1.98.41 2.674a2.21 2.21 0 001.426.498 2.208 2.208 0 001.414-.53c.796-.663 1.094-1.83.336-2.587-1.038-1.038-1.16-2.357-1.275-3.583zM14 36.72c1.62-1.424 3.227-1.85 5-.658 1.773 1.192 6.072 3.505 6.072 3.505 2.11 1.204 2.166 1.826 1.75 4.44L14 36.72zM26.792 12L14 19.219c1.622 1.442 3.143 1.73 4.893.566l6.18-3.538c1.994-1.125 2.195-1.814 1.72-4.247zM42 36.872l-12.771 7.135c-.522-2.277-.425-3.026 1.528-4.108.643-.355 1.293-.702 1.943-1.048 1.479-.788 2.958-1.576 4.358-2.475 1.697-1.098 3.334-.89 4.942.496zM15.983 24.757c0-2.15-.73-3.186-2.984-3.757l.009 14C15.565 34.218 16 33.767 16 31.579l-.017-6.822zM43 35c-2.638-.966-3-1.252-3-3.634v-7.71c0-.625.242-1.231.686-1.712.444-.481 1.63-.83 2.314-.943v13.999z" fill="#fff"/></svg>