<!-- by TradingView --><svg width="56" height="56" viewBox="0 0 56 56" xmlns="http://www.w3.org/2000/svg"><path fill="#F0F3FA" d="M0 0h56v56H0z"/><path d="M45 28a17 17 0 1 1-34 0 17 17 0 0 1 34 0Z" fill="#1E80E2"/><path d="m13.43 19.24 9.26-5.05v2.65L28 13.13l16.93 16.44a17.19 17.19 0 0 0 .03-2.79l-9.52-10.47 9.33 8.86a17 17 0 0 0-31.34-5.93Zm31 13.16-10.59-7.06-4.25 3.72 8.35 12.74a17.02 17.02 0 0 0 6.49-9.4ZM36.3 42.84l-9.9-13.78-6.32 14a16.92 16.92 0 0 0 16.22-.21Zm-17.48-.52a17 17 0 0 1-7.62-11.6l8.82-7.5L25.01 28l-6.18 14.32Z" fill="#4B99E8"/><path d="M22.1 23.1 20 21h10.45c3.66 0 5.55 1.36 5.55 4.5 0 2.5-2.06 4.39-2.93 4.9L43 44 27.32 28h3.13c2.51 0 3.55-1.63 3.55-2.5 0-2.1-2.5-2.4-3.55-2.4H22.1Z" fill="#E5E5E5"/><path d="M25 25.57 23 24v8.9l2 2.1v-9.43Z" fill="#E5E5E5"/></svg>