<!-- by TradingView --><svg width="56" height="56" viewBox="0 0 56 56" xmlns="http://www.w3.org/2000/svg"><path fill="url(#ajbwdmi00)" d="M0 0h56v56H0z"/><path d="m35.3 10-.13.35-.2.56-.07.22-1.3.01.52.36.52.36-.2.57-.19.57.52-.35.53-.35.52.34a28.72 28.72 0 0 0 .53.35 24.41 24.41 0 0 0-.39-1.14 116.41 116.41 0 0 1 1.04-.7c0-.01-.14-.02-.65-.02h-.65a41.42 41.42 0 0 0-.4-1.13Zm-14.69.2-.2.57-.12.37-1.29.01a13.62 13.62 0 0 0 1.02.7c.02 0 0 .04-.18.58l-.2.57s.25-.15.53-.35l.52-.35.56.38.5.32-.2-.57-.2-.57.52-.35.51-.36H21.1L20.7 10a1 1 0 0 0-.09.2Z" fill="#FC1"/><path d="m17.03 16.75-2.12 2.26-.03.04a9.31 9.31 0 0 1 .6.5 5.5 5.5 0 0 1 .64.82 3.43 3.43 0 0 1 .37.8 3.97 3.97 0 0 1 .19 1.48 6.52 6.52 0 0 1-.57 2.42l-.14.31-.15.34-.2.39a18.44 18.44 0 0 1-.36.67l-.16.27a16.4 16.4 0 0 1-.47.74 16.78 16.78 0 0 0-.67 1.14l-.18.36-.11.27-.12.28a5.86 5.86 0 0 0-.3.97 10.44 10.44 0 0 0-.21 1.18 9.52 9.52 0 0 0-.03 1.2l.02.32a10.63 10.63 0 0 0 .23 1.34 16.32 16.32 0 0 0 .3.96 16.2 16.2 0 0 0 .4.93 7.74 7.74 0 0 0 1.33 1.87 6.95 6.95 0 0 0 .48.43l.21.17a7.67 7.67 0 0 0 2.73 1.32 11.73 11.73 0 0 0 2.74.44 11.59 11.59 0 0 1 4.89 1.48l.26.16a19.52 19.52 0 0 1 .9.65l.29.23.18.16.04.03.24-.21a13.65 13.65 0 0 1 .76-.6l.28-.18a14.15 14.15 0 0 1 .48-.3l.25-.14a22.94 22.94 0 0 1 .99-.47 13.85 13.85 0 0 1 1.18-.41l.29-.08.27-.06a7.83 7.83 0 0 1 .91-.17l.33-.04.3-.03.26-.02.3-.02a11.05 11.05 0 0 0 1.08-.13l.37-.06a22.25 22.25 0 0 0 .98-.23l.33-.1a8.61 8.61 0 0 0 2.54-1.32 11.05 11.05 0 0 0 .55-.5 11.38 11.38 0 0 0 .69-.78 9.52 9.52 0 0 0 .7-1.16 9.88 9.88 0 0 0 .65-1.8 16.64 16.64 0 0 0 .18-.97l.04-.3.02-.3a12.48 12.48 0 0 0 0-1.18 10.15 10.15 0 0 0-.3-1.62 21.16 21.16 0 0 0-.26-.75 14.62 14.62 0 0 0-.57-1.2 12.01 12.01 0 0 0-.73-1.16l-.2-.32-.2-.34a20.48 20.48 0 0 1-.62-1.2l-.14-.33a8.92 8.92 0 0 1-.62-2.33 5.13 5.13 0 0 1 .2-1.75l.1-.3.1-.2a7.9 7.9 0 0 1 .37-.59l.13-.17.17-.18a4.38 4.38 0 0 1 .62-.56c.08-.06.1-.07.08-.08a1570.75 1570.75 0 0 0-4.22-4.52l-.24.12a17.06 17.06 0 0 1-.78.4l-.33.15a14.17 14.17 0 0 1-.81.32l-.38.13a21.04 21.04 0 0 1-.65.2l-.3.09c-.1.02-.27.06-.38.1l-.38.08-.4.08-.28.05-.3.06a26.13 26.13 0 0 1-.91.12l-.4.05-.32.03-.27.02-.34.02-.44.02a24.72 24.72 0 0 1-2.04 0l-.5-.03a19.48 19.48 0 0 1-.6-.05l-.35-.03c-.09 0-.24-.03-.33-.04A16.38 16.38 0 0 1 22.9 16a31.28 31.28 0 0 1-1.2-.34 13.93 13.93 0 0 1-2.58-1.14l-2.1 2.23Z"/><path d="M14.18 18.32a4219 4219 0 0 1 4.18-4.46l.03-.04.02-.02a.94.94 0 0 1 .06-.05l.06-.05.1-.07c.07-.04.31-.11.5-.13a1 1 0 0 1 .29.04l.08.03a1.1 1.1 0 0 1 .17.08 15.8 15.8 0 0 1 .55.3h.01l.35.17h.02a14.39 14.39 0 0 0 1.07.45h.02a13.55 13.55 0 0 0 1.85.53h.01l.36.08a21.5 21.5 0 0 0 1.02.17h.02l.33.05h.02l.29.03h.01l.33.04a25.1 25.1 0 0 0 .58.04h.03l.45.03a19.55 19.55 0 0 0 1.94 0h.01l.35-.01h.08l.31-.03.27-.02.16-.01.15-.02.2-.02.18-.02.43-.05.43-.07.14-.02.14-.03h.05l.06-.02.12-.02.05-.01.37-.08.3-.07.06-.01a18.66 18.66 0 0 0 .43-.11l.2-.06.28-.08.33-.1.04-.02.31-.11h.02a15.56 15.56 0 0 0 .84-.34l.2-.1a20.42 20.42 0 0 0 .73-.37 10.06 10.06 0 0 1 .43-.2 1.01 1.01 0 0 1 .13-.02c.02 0 .23-.05.47.03l.07.02.06.04a1.85 1.85 0 0 1 .23.15l.02.02.02.02.01.01.02.02.03.03.13.14.45.48a5104.67 5104.67 0 0 1 2.98 3.19l.58.62.04.04.01.02h.01v.01l.03.03.04.05.03.05a1 1 0 0 1-.05 1.14 2.77 2.77 0 0 1-.16.2l-.12.16c-.16.2-.37.46-.57.77-.2.3-.4.62-.53.93-.14.33-.2.57-.2.74 0 1.62.77 3.03 1.72 4.71l.04.07c.89 1.59 1.93 3.44 1.91 5.64v.01c-.06 3.47-2.03 6.92-5.42 8.28-1.07.42-2.17.67-3.29.77l-.35.03a14 14 0 0 0-2.76.47c-.57.18-1.13.42-1.67.71a11 11 0 0 0-1.84 1.3l-.65.58-.66-.56c-.68-.58-1.4-1.1-2.17-1.48-.9-.44-1.87-.74-2.88-.9-.42-.06-.84-.1-1.28-.15l-.56-.06c-.64-.07-1.33-.17-2.03-.36a8.84 8.84 0 0 1-3.85-2.18 9.3 9.3 0 0 1-1.96-9.85 10.84 10.84 0 0 1 1.16-2.21l.05-.08.4-.64v-.02c.26-.4.48-.81.67-1.22v-.01l.01-.01c.22-.46.4-.93.55-1.42.15-.54.24-1.06.21-1.54v-.02a3.28 3.28 0 0 0-1.4-2.47l-.87-.66.77-.84Zm2.25 5.8a13.24 13.24 0 0 1-1.75 3.58c-.18.29-.36.57-.52.86a9.84 9.84 0 0 0-.98 2.53 8.3 8.3 0 0 0 2.11 7.5 7.84 7.84 0 0 0 3.42 1.93c.78.22 1.59.3 2.4.39.45.05.9.1 1.36.17 1.1.17 2.17.5 3.17.98.85.43 1.64 1 2.37 1.62a12 12 0 0 1 2.02-1.44c.6-.31 1.2-.58 1.85-.78.97-.3 1.96-.4 2.95-.51l.36-.04c1.04-.09 2.05-.32 3.02-.7 2.95-1.18 4.73-4.23 4.79-7.37.02-1.93-.91-3.58-1.84-5.23-.91-1.63-1.83-3.26-1.83-5.18 0-1.19 1.21-2.69 1.64-3.22.1-.11.15-.18.14-.19a1625.82 1625.82 0 0 0-4.22-4.52 16.76 16.76 0 0 1-2.16.98l-.34.13-.04.01a20.2 20.2 0 0 1-.88.27l-.07.02-.37.1h-.07a21.03 21.03 0 0 1-.7.16l-.06.01-.24.05-.17.03-.13.02a25.26 25.26 0 0 1-.9.13c-.06 0-.13 0-.2.02a58.88 58.88 0 0 1-.34.03l-.19.02-.15.01a41.73 41.73 0 0 1-.45.03h-.08a26.87 26.87 0 0 1-2.87 0h-.03a19.46 19.46 0 0 1-.61-.05h-.01l-.34-.04-.3-.03h-.03l-.35-.05-.38-.06a24.39 24.39 0 0 1-1.53-.3 32.94 32.94 0 0 1-1.19-.35 14.64 14.64 0 0 1-2.58-1.14l-2.1 2.23-1.46 1.57-.65.7-.04.03c.26.2.49.4.7.64a4.02 4.02 0 0 1 1.1 2.6c.03.62-.08 1.25-.25 1.86Z" fill="#fff"/><path d="m17.47 17.04-1.79 1.92-.04.04a7.03 7.03 0 0 1 .67.68 5.19 5.19 0 0 1 .6 1.01 3.64 3.64 0 0 1 .24.79l.05.28.03.24a6.86 6.86 0 0 1-.2 1.96l-.08.29-.09.3a8.55 8.55 0 0 1-.5 1.23l-.19.4-.19.37a21.22 21.22 0 0 1-.72 1.22l-.27.4a12.97 12.97 0 0 0-.37.63l.04-.02 2.87-1.84 4.2-2.69 2.8-1.8 2.81-1.8c.76-.5 2.58-1.66 4.05-2.6l2.73-1.76.06-.04-.2.05-.37.1-.38.1-.36.1a21.9 21.9 0 0 1-.7.13l-.4.07a28.99 28.99 0 0 1-1.64.2l-.45.04-.44.03a31.32 31.32 0 0 1-2.92-.03l-.38-.03-.25-.02a18.48 18.48 0 0 0-.66-.07 13.74 13.74 0 0 1-.76-.11l-.35-.06-.31-.06-.37-.08a22.37 22.37 0 0 1-1.1-.28l-.28-.08-.32-.1-.36-.13-.3-.11a11.86 11.86 0 0 1-.7-.28l-.28-.13a31.98 31.98 0 0 1-.68-.33s-.8.84-1.75 1.87Z" fill="#fff"/><path d="m20.9 16.85-.16.01a3.74 3.74 0 0 0-.88.24 5.98 5.98 0 0 0-.5.28 3.63 3.63 0 0 0-1.22 1.48 2.98 2.98 0 0 0-.21 1.21 3 3 0 0 0 1.25 2.54 3.78 3.78 0 0 0 .7.42 4.31 4.31 0 0 0 .75.21 5.47 5.47 0 0 0 .54.04 3.84 3.84 0 0 0 .78-.08 3.6 3.6 0 0 0 .86-.35 4.38 4.38 0 0 0 .65-.51 3.6 3.6 0 0 0 .69-.98 3.52 3.52 0 0 0 .22-.77l.03-.21a4.66 4.66 0 0 0 0-.63l-.02-.19a4.61 4.61 0 0 0-.13-.54 3.04 3.04 0 0 0-.98-1.41 4.57 4.57 0 0 0-.72-.47 5.98 5.98 0 0 0-.2-.1c-.04 0-.11-.03-.16-.05l-.17-.05a4.37 4.37 0 0 0-.4-.07c-.1-.02-.19-.02-.4-.02h-.32Z"/><path d="M35.07 16.97a84.78 84.78 0 0 0-1.52.95l-1.82 1.2c-.42.27-.44.29-.5.35a4.06 4.06 0 0 0-.18.28l-.06.17-.03.09v4.1l.06.24c0 .04.03.09.05.11l.08.1c.02.02.06.05.1.06l.1.01.13-.01c.03 0 .09-.03.13-.05l.93-.57 1.58-1 .78-.5a2.03 2.03 0 0 0 .24-.28 1.84 1.84 0 0 0 .25-.59l.03-.09c0-1.65 0-1.84-.02-1.84l-.8.48-.8.48v1.18l-.94.61a.24.24 0 0 1-.07.01c-.03 0-.05 0-.07-.02a.2.2 0 0 1-.04-.05 73.96 73.96 0 0 1-.06-1.32c-.02-.95-.02-1.05 0-1.1a.5.5 0 0 1 .08-.19 13.79 13.79 0 0 1 1.17-.83h.07a.1.1 0 0 1 .04.05c.01.02.02.05.02.15v.13l.71-.45.7-.47v-1.23a.46.46 0 0 0-.08-.12.23.23 0 0 0-.08-.05.4.4 0 0 0-.09 0h-.1Zm-14.04.18.05.07a7.71 7.71 0 0 1 .64.87 5.22 5.22 0 0 1 .42.9l.06.2a5.64 5.64 0 0 1 .13.68 5.12 5.12 0 0 1 .01.8l-.01.16.01.05h.03a2.1 2.1 0 0 0 .18-.35 3.95 3.95 0 0 0 .15-.43 4.43 4.43 0 0 0 .07-.42 3.45 3.45 0 0 0-.27-1.6 11.66 11.66 0 0 0-.36-.75c-.01-.04-.02-.04-.11-.06a4.11 4.11 0 0 0-.48-.1 3.28 3.28 0 0 0-.52-.02Zm-.47.05-.1.03a8.06 8.06 0 0 0-.35.11 3.96 3.96 0 0 0-.59.32 2.91 2.91 0 0 0-.28.21l-.05.05.03.6.02.23a3.9 3.9 0 0 0 .43 1.25 4.37 4.37 0 0 0 .21.3 2.7 2.7 0 0 0 .54.46 3.98 3.98 0 0 0 .59.27 4.18 4.18 0 0 0 .39.1l.08.02a1.92 1.92 0 0 1 .2-.15l.12-.05.12-.04.07-.02a4.38 4.38 0 0 0-.08-1.54 4.24 4.24 0 0 0-1.06-1.91l-.15-.16c-.06-.07-.08-.08-.1-.08h-.04Zm2.06.38.08.18a9.58 9.58 0 0 1 .31.91 4.83 4.83 0 0 1 .1.8 2.48 2.48 0 0 1-.18 1 4.7 4.7 0 0 1-.24.49l-.07.11a1.63 1.63 0 0 0 .53-.22 2 2 0 0 0 .8-1.06l.07-.23c.03-.08.03-.09.02-.14a2.26 2.26 0 0 0-.2-.6 3.52 3.52 0 0 0-.38-.59 5.01 5.01 0 0 0-.56-.52 3.16 3.16 0 0 0-.3-.2l.02.07Zm-3.8.74a3.47 3.47 0 0 0-.4.7 2.55 2.55 0 0 0-.15.6 3.13 3.13 0 0 0 .05 1.14 5.77 5.77 0 0 0 .93.53 5 5 0 0 0 .7.2 4.34 4.34 0 0 0 .54.04 3.57 3.57 0 0 0 .79-.1c.01 0 .01 0 0 0l-.09-.03a3.7 3.7 0 0 1-1.03-.42 3.93 3.93 0 0 1-.35-.28 2.8 2.8 0 0 1-.5-.66 4.22 4.22 0 0 1-.29-.77 10.38 10.38 0 0 1-.1-.66 4.3 4.3 0 0 1-.04-.35l-.06.06ZM37 19.86l-.67.41.01 1.32.68-.43.66-.44v-1.28l-.68.42Zm-12.93.41-.07.12a5.56 5.56 0 0 1-.21.32 1.98 1.98 0 0 1-.79.58 3.26 3.26 0 0 1-.32.08l-.07.02-.04.03-.01.03a3.23 3.23 0 0 0 .44.25 1.75 1.75 0 0 0 .37.1h.14c.03 0 .03 0 .07-.06l.1-.15.1-.16.09-.18a3.58 3.58 0 0 0 .2-.67l.03-.2v-.17l-.03.06Zm-2 .82-.12.03-.15.07a.62.62 0 0 0-.17.11.48.48 0 0 0-.08.1.16.16 0 0 0-.02.07c0 .02 0 .04.02.06l.06.05.1.03a.7.7 0 0 0 .28-.04c.04 0 .12-.04.17-.06.07-.04.1-.05.16-.12l.1-.12a.17.17 0 0 0 .02-.07c0-.02 0-.04-.02-.06a.24.24 0 0 0-.07-.04.63.63 0 0 0-.28-.01Zm-3.56.19.06.11a4.04 4.04 0 0 0 .37.54l.14.15.05.06.32.04a5.6 5.6 0 0 0 .8.03 5.04 5.04 0 0 0 .38-.06 3.8 3.8 0 0 0 .47-.16 2.12 2.12 0 0 0 .31-.19l.05-.04-.08-.03-.17.04a4.26 4.26 0 0 1-.64.07 2.83 2.83 0 0 1-.83-.08 4.65 4.65 0 0 1-.48-.14l-.2-.08a6.5 6.5 0 0 1-.42-.2l-.11-.07h-.02Zm7.4 1.52-2.37 1.52v1l.34-.19.32-.2v3.36l-.63.43c0 .72.01.94.02.94l1.56-.97 1.55-.98v-.96a14.33 14.33 0 0 0-.82.51v-1.25l.81-.53.01.67.43-.27.4-.28v-2.1l-.38.27-.39.26v.39l-.86.49-.04.02v-1.07l1.12-.73.15.07c.14.06.15.06.17.05l.5-.32.48-.31a47 47 0 0 0-.01-1.34l-2.37 1.52Zm-3.62-1.13c-.03.02-.03.03-.03.04a2.67 2.67 0 0 1-.02.64 2.34 2.34 0 0 1-.14.39l-.05.1.12-.03a2.75 2.75 0 0 0 .9-.53l.15-.13c.05-.05.05-.05.03-.05l-.1-.03a1.59 1.59 0 0 1-.48-.18 2.63 2.63 0 0 1-.29-.19l-.06-.04s-.02 0-.03.02Zm14.06.91-1.4.89.02 16.96a8.91 8.91 0 0 0 .86-.11 12.41 12.41 0 0 0 1.67-.4l.51-.2V21.6s-.9.5-1.66 1Zm-14.46-.77c-.03 0-.05.01-.12.08a1.84 1.84 0 0 1-.5.37 3.18 3.18 0 0 1-.4.16 2.99 2.99 0 0 1-.9.12h-.3l.03.03a7.76 7.76 0 0 0 .3.16 3.07 3.07 0 0 0 1.34.23h.2l.2-.22a1.85 1.85 0 0 0 .14-.26 1.4 1.4 0 0 0 .08-.63c0-.05 0-.05-.02-.05h-.05Zm7.43 2.9-.67.41v1.31a40.32 40.32 0 0 0 1.33-.86c.02-.02.02-.05.02-.65v-.64l-.68.42Zm1.48 1.44L29 27.34V42.3l.6-.42a42.87 42.87 0 0 1 .6-.31 10.8 10.8 0 0 1 1.16-.5c.2-.06.67-.13.67-.13v-7.78L32 25.38l-1.21.77Zm-10.88.56-.11.02a155.01 155.01 0 0 0-3.53 2.16 2.07 2.07 0 0 0-.23.22.74.74 0 0 0-.1.2c-.02.03-.02.08-.02.37l.01.99v.66l.07.18.05.07.07.06.09.03a.4.4 0 0 0 .12 0l.13-.04.15-.06.15-.09.16-.1a60.95 60.95 0 0 1 1.5-.93l.1-.04a.6.6 0 0 1 .15-.01l.1.01.06.05.03.02v1.14l-1.2.78a.18.18 0 0 1-.08.01.1.1 0 0 1-.05-.02l-.02-.03a1.73 1.73 0 0 1-.02-.43v-.4l-1.57.96c0 1.29.01 1.37.02 1.42l.04.12.06.08c.02.03.05.05.08.06l.08.03h.1a.86.86 0 0 0 .25-.09l1.3-.82 1.63-1.05a158.74 158.74 0 0 1 .62-.4.92.92 0 0 0 .08-.1 1 1 0 0 0 .17-.39l.02-.2v-.97l-.01-.85a1.08 1.08 0 0 0-.23-.22.75.75 0 0 0-.4-.1 1.29 1.29 0 0 0-.4.09l-.82.5-.79.46a.2.2 0 0 1-.07 0 .2.2 0 0 1-.05-.02.17.17 0 0 1-.05-.06 5.41 5.41 0 0 1-.03-.41v-.32a.61.61 0 0 1 .08-.14 11.75 11.75 0 0 1 1.07-.7.2.2 0 0 1 .09 0l.06.02c0 .02.03.04.04.06l.01.22v.2l.76-.47.75-.45-.01-1a.66.66 0 0 0-.12-.2.18.18 0 0 0-.1-.06.64.64 0 0 0-.24-.02Zm20.6 6.01c0 3.53.01 5.3.02 5.3l.1-.1a6.68 6.68 0 0 0 1.08-1.68 7.3 7.3 0 0 0 .59-1.78 7.9 7.9 0 0 0 .09-2.86l-.06-.31a11.56 11.56 0 0 0-.28-1.02 9.44 9.44 0 0 0-1.38-2.62 3.1 3.1 0 0 0-.14-.22l-.01 5.3Zm-15.29-3-1.22.89v10.23c.22.06.27.13.49.2a14.78 14.78 0 0 1 .57.2l.26.11.25.11a13.03 13.03 0 0 1 .68.35c.08.03.18.1.25.13l.48.37c.04-14.44.03-13.64.02-13.64 0 0-1.01.56-1.78 1.05Zm-3.3-.3-.67.42v1.32a59.07 59.07 0 0 0 1.34-.88V29l-.67.42Zm-2.24 3.86-1.39.89-.26.18v5.31c.26.2.6.3.68.32a14.99 14.99 0 0 0 1.37.32 25.8 25.8 0 0 0 .93.12h.05v-8.01l-1.38.87Zm-4.7 3.01-.5.32.07.12a4.87 4.87 0 0 0 .51.8 12.09 12.09 0 0 0 .43.5 42.45 42.45 0 0 0 0-2.05l-.51.31Z" fill="#fff"/><defs><linearGradient id="ajbwdmi00" x1="10.42" y1="9.71" x2="68.15" y2="76.02" gradientUnits="userSpaceOnUse"><stop stop-color="#1A1E21"/><stop offset="1" stop-color="#06060A"/></linearGradient></defs></svg>