<!-- by TradingView --><svg width="56" height="56" xmlns="http://www.w3.org/2000/svg"><path fill="url(#paint0_linear)" d="M0 0h56v56H0z"/><path fill-rule="evenodd" d="M25.242 22.438c-5.121-2.571-3.414-8.295 2.134-8.295 6.154 0 10.242 3.856 11.095 5.142l1.28-1.286C37.191 14.571 32.923 12 27.376 12c-2.177 0-4.603.55-6.444 1.489-3.896 1.985-8.274 9.12-2.518 13.662 2.441 1.926 5.438 3.287 8.105 4.498 3.74 1.699 6.831 3.103 6.831 5.358 0 3.856-9.431 7.67-16.643.428L15 38.292c2.69 2.701 6.168 4.546 8.403 5.222 2.236.676 5.93.62 8.402 0 4.93-1.238 8.882-5.259 8.095-9.918-.91-5.381-6.307-7.612-11.066-9.578-1.276-.527-2.507-1.035-3.592-1.58zm-4.694-6.428c-2.087 1.449-4.268 7.05-.427 9.855 1.58 1.155 3.862 2.138 6.196 3.144 3.972 1.712 8.095 3.49 9.167 6.283.828 2.16-.854 4.714-.854 4.714s4.485-2.643 2.988-6.856c-1.236-3.475-5.033-5.027-8.843-6.584-2.77-1.132-5.546-2.267-7.349-4.145-2.872-2.994-.878-6.41-.878-6.41z" fill="#fff"/><defs><linearGradient id="paint0_linear" x1="10.418" y1="9.712" x2="68.147" y2="76.017" gradientUnits="userSpaceOnUse"><stop stop-color="#1A1E21"/><stop offset="1" stop-color="#06060A"/></linearGradient></defs></svg>