<!-- by TradingView --><svg width="56" height="56" xmlns="http://www.w3.org/2000/svg"><path fill="#017586" d="M0 0h56v56H0z"/><path d="M30.869 16.324c6.134 1.573 9.924 7.999 8.538 14.15-.267 1.186.514 2.414 1.717 2.634 1.132.207 2.24-.557 2.491-1.673 1.877-8.409-3.29-17.185-11.664-19.367-.989-.256-2.04.248-2.481 1.167-.59 1.227.074 2.753 1.399 3.089zm-15.04 17.058c-1.213.811-2.892.155-3.277-1.243-2.264-8.401 2.636-17.472 11.02-19.935 1.11-.258 2.245.432 2.56 1.522.316 1.092-.272 2.293-1.344 2.684-6.133 1.786-9.722 8.417-8.064 14.557a2.229 2.229 0 01-.895 2.415zm15.66-5.549c0 1.907-1.568 3.535-3.484 3.535-1.917 0-3.485-1.628-3.485-3.535 0-1.906 1.568-3.534 3.485-3.534 1.916 0 3.484 1.628 3.484 3.534zm7.906 7.92c1.021.749 1.162 2.278.304 3.207-6.069 6.544-16.63 6.748-22.938.432a2.176 2.176 0 01-.319-2.604c.679-1.15 2.387-1.458 3.36-.492 4.603 4.595 12.296 4.444 16.723-.321.772-.837 1.977-.869 2.87-.222z" fill="#fff"/></svg>