<!-- by TradingView --><svg width="56" height="56" viewBox="0 0 56 56" xmlns="http://www.w3.org/2000/svg"><path fill="#F3E3CC" d="M0 0h56v56H0z"/><path d="M41.61 36.4a15.91 15.91 0 0 0-1.1-18.38c-.8.2-1.31.65-2.13 1.36-.07.06-.15.12-.22.2a6.69 6.69 0 0 1-4.68 1.92c-1.07 0-1.9-.2-2.62-.55-.62-.32-1.08-.74-1.39-1.02l-.07-.07c-.33-.3-.54-.47-.84-.6a3.87 3.87 0 0 0-1.6-.26c-1.14 0-2.32.54-3.42 1.38a11.08 11.08 0 0 0-2.34 2.45l-2.5-1.66c.58-.87 1.64-2.13 3.01-3.17a8.82 8.82 0 0 1 5.25-2c1.16 0 2.07.18 2.83.52.76.34 1.27.8 1.63 1.12.38.35.56.5.8.63.22.11.57.23 1.26.23 1.2 0 1.86-.46 2.7-1.2l.26-.22a10.3 10.3 0 0 1 1.81-1.35 16.03 16.03 0 0 0-26.2 10.35 7.59 7.59 0 0 1 2.89-.58 6.65 6.65 0 0 1 4.34 1.5l.04.03c.45.32.76.54 1.14.7.35.15.8.27 1.5.27 1.17 0 1.93-.54 3.08-1.43l.07-.06c1.1-.86 2.59-2.01 4.86-2.01 1.87 0 3.73.97 5.16 1.95a20.5 20.5 0 0 1 3.48 3.05l-2.25 2c-.6-.68-1.69-1.72-2.94-2.58-1.3-.89-2.52-1.42-3.45-1.42-1.18 0-1.94.54-3.09 1.43l-.07.06c-1.1.86-2.59 2.01-4.86 2.01-1.07 0-1.93-.2-2.67-.51-.7-.3-1.25-.7-1.68-1l-.03-.02a6.1 6.1 0 0 0-1.14-.7c-.36-.15-.81-.27-1.5-.27-1.15 0-2.16.47-2.93 1.02a15.9 15.9 0 0 0 3.54 8.6c.53-.56 1.16-1.15 1.85-1.7 1.32-1.07 3.04-2.15 4.85-2.4 1.15-.17 2.12 0 2.97.36.81.36 1.44.88 1.92 1.3l.11.1c.98.84 1.42 1.22 2.23 1.22.93 0 1.57-.43 2.5-1.17l.18-.15C33 35.01 34.25 34 35.99 34c.77 0 1.55.22 2.23.49.7.27 1.4.65 2.06 1.04.46.28.92.58 1.34.88Zm-1.82 2.4c-.34-.24-.7-.48-1.08-.7-.56-.34-1.1-.63-1.6-.82a3.3 3.3 0 0 0-1.13-.28c-.63 0-1.08.33-2.13 1.17-.95.76-2.31 1.83-4.38 1.83-1.98 0-3.25-1.12-4.08-1.86l-.23-.2c-.45-.39-.8-.65-1.16-.8a2.34 2.34 0 0 0-1.34-.16c-1 .15-2.2.82-3.39 1.77-.6.5-1.16 1.02-1.62 1.5A16 16 0 0 0 27.96 44a16 16 0 0 0 11.83-5.2Z" fill="url(#aep0id4pd)"/><defs><linearGradient id="aep0id4pd" x1="27.96" y1="12" x2="27.96" y2="44" gradientUnits="userSpaceOnUse"><stop stop-color="#90305C"/><stop offset="1" stop-color="#DF3C41"/></linearGradient></defs></svg>