<!-- by TradingView --><svg width="56" height="56" xmlns="http://www.w3.org/2000/svg"><path fill="url(#paint0_linear)" d="M0 0h56v56H0z"/><path d="M19.898 30.713c-.69 1.604-.607 3.435.32 4.94.549.903 1.425 1.779 2.578 2.435 3.887 2.236 10.154 1.606 12.583-2.39.9-1.472.964-3.208.236-4.745.002.005-.018-.034.004.006-2.216-4.055-7.654-3.28-11.115-5.623-1.924-1.333-1.504-3.948.38-5.141 2.15-1.437 5.668-1.107 7.163 1.076.462.684.655 1.593.347 2.371.402-1.789-1.118-3.296-2.8-3.772a5.596 5.596 0 00-3.575.194c-2.02.696-3.228 3.44-1.15 4.769 1.863 1.163 4.35 1.323 6.44 1.934 1.591.466 3.096 1.13 4.248 2.304 1.895 1.931 2.138 4.874.704 7.128-2.237 3.536-7.284 4.649-11.23 3.489-3.923-1.153-7.23-5.025-5.133-8.975z" fill="#fff"/><path d="M36.139 25.302c.694-1.611.61-3.451-.322-4.964-.551-.908-1.432-1.787-2.59-2.447-3.907-2.246-10.203-1.614-12.645 2.403-.904 1.479-.968 3.222-.236 4.768-.002-.005.017.034-.004-.006 2.225 4.074 7.69 3.296 11.168 5.65 1.933 1.34 1.512 3.968-.383 5.167-2.159 1.444-5.694 1.111-7.196-1.082-.466-.688-.66-1.601-.349-2.383-.404 1.8 1.123 3.313 2.813 3.791a5.623 5.623 0 003.593-.195c2.03-.7 3.245-3.456 1.155-4.792-1.82-1.137-4.238-1.311-6.285-1.89-1.54-.437-3.155-1.05-4.283-2.195-1.974-2.02-2.419-4.917-.878-7.336 2.307-3.65 7.54-4.707 11.564-3.42 3.832 1.224 6.919 5.085 4.878 8.93z" fill="#fff"/><path d="M36.29 30.692c1.72-1.065 3.19-2.37 4.023-4.198.922-2.018 1.091-4.297.304-6.372-1.7-4.48-6.886-6.883-11.61-7.058-4.766-.175-10.197 1.725-12.552 5.95-1.601 2.875-1.344 6.16.63 8.778 4.31 5.712 13.205 6.144 19.206 2.9h-.002zm.102.148c-6.862 4.105-17.517 3.125-21.467-4.328-1.03-2.035-1.25-4.58-.406-6.864 1.96-5.288 8.28-7.852 13.785-7.635 5.646.222 11.94 3.351 13.045 9.113.71 3.918-1.683 7.542-4.957 9.714z" fill="#fff"/><path d="M19.706 25.308c-1.72 1.065-3.19 2.37-4.024 4.198-.921 2.018-1.09 4.297-.304 6.372 1.7 4.48 6.887 6.883 11.61 7.058 4.766.176 10.198-1.724 12.553-5.95 1.6-2.875 1.344-6.16-.631-8.778-4.309-5.712-13.205-6.144-19.205-2.9h.001zm-.102-.148c6.86-4.106 17.517-3.125 21.467 4.328 1.03 2.035 1.25 4.58.406 6.864-1.96 5.288-8.28 7.852-13.785 7.635-5.647-.222-11.94-3.351-13.045-9.113-.71-3.918 1.683-7.543 4.957-9.714z" fill="#fff"/><defs><linearGradient id="paint0_linear" x1="10.418" y1="9.712" x2="68.147" y2="76.017" gradientUnits="userSpaceOnUse"><stop stop-color="#1A1E21"/><stop offset="1" stop-color="#06060A"/></linearGradient></defs></svg>