<!-- by TradingView --><svg width="56" height="56" fill="none" xmlns="http://www.w3.org/2000/svg"><path fill="url(#paint0_linear_1530)" d="M0 0h56v56H0z"/><path fill-rule="evenodd" clip-rule="evenodd" d="M31.003 21c-.554 0-1.003.491-1.003 1.097v.806c0 .606.449 1.097 1.003 1.097h.994c.554 0 1.003-.491 1.003-1.097v-.806C33 21.49 32.551 21 31.997 21h-.994zM12 22.365v11.094c1.412.833 2.492.598 3 0v-5.308c.035-.02.073-.043.113-.069.248-.154.608-.38 1.19-.348.677.036.697.505.697.729v4.996c1.431.652 1.59.713 2.996 0v-6.217c.02-.652-.383-2.003-2.147-2.184-1.764-.18-2.66.296-2.849.558v-3.251c-1.204-.416-1.762-.378-3 0zm22 2.95v7.432c.239.084.838.253 1.329.253.49 0 1.356-.169 1.671-.253v-5.789c.068-.093.27-.283.986-.303.716-.02.971.379 1.014.581v5.511c.264.084.928.253 1.439.253s1.28-.169 1.561-.253v-6.699c0-.952-1.306-2.022-3.452-2.048-1.717-.02-3.747.868-4.548 1.315zm17-.138v7.777c-.05.989-.897 2.98-3.873 3.043-2.975.063-3.6-.928-3.541-1.43-.093-.416-.081-1.353.713-1.769.434.208 1.453.62 2.064.598.764-.026 1.55-.26 1.652-1.508-.21.287-.776.52-1.652.52-1.096 0-3.363-.546-3.363-4.11 0-2.85 2.242-4.031 3.363-4.265.722-.104 2.66-.02 4.637 1.144zm-2.985 4.58v-2.509a2.981 2.981 0 00-1.29-.244c-.678.04-1.175.57-1.198 1.366-.022.795.52 1.509 1.199 1.61.542.082 1.085-.115 1.289-.224zm-40.368-4.36c.417-.298 1.351.169 1.686.425.483-.222 1.313-.762 1.265-1.474-.06-.89-1.81-1.348-2.676-1.348-.648 0-3.054.057-3.417 2.302-.261 1.622 1.104 2.69 1.869 2.866.516.141 1.548.501 1.548.809 0 .384-.382.404-1.247.424-.692.017-1.535-.276-1.87-.424-.504.112-.748 1.874-.797 2.229L4 31.262c-.02.121 2.394.83 3.721.728C9.05 31.89 11 31.12 11 28.977c0-1.875-2.122-2.558-2.857-2.795a2.49 2.49 0 01-.22-.077c-.302-.142-.692-.41-.276-.708zM21 34.615V24.16c2.155-.949 3.915-1.167 4.525-1.158 1.159-.046 3.475.81 3.475 4.606 0 4.457-2.282 4.483-3.117 4.493-.054 0-.101.001-.142.003-.5.02-1.206-.337-1.643-.558L24 31.497v3.118c-1.024.541-2.046.476-3 0zm3-5.547v-2.78c.605-.238.992-.29 1.11-.288 1.038.065 1.304.62 1.307.89.006.304.016 1.063 0 1.674-.02.765-.737.936-1.307.936-.456 0-.93-.288-1.11-.432zm6 4.619V25c.358.07 1.177.209 1.585.209.407 0 1.113-.14 1.415-.209v8.687c-.33.104-1.115.313-1.613.313s-1.132-.209-1.387-.313z" fill="#FFFEFF"/><defs><linearGradient id="paint0_linear_1530" x1="48.533" y1="5.216" x2="7.915" y2="50.543" gradientUnits="userSpaceOnUse"><stop stop-color="#F43344"/><stop offset="1" stop-color="#D71D5C"/></linearGradient></defs></svg>