<!-- by TradingView --><svg width="56" height="56" viewBox="0 0 56 56" xmlns="http://www.w3.org/2000/svg"><path fill="url(#a3itymegy)" d="M0 0h56v56H0z"/><path d="M11.81 37 11 40c2.97 0 3.79-.19 4.88-.94 1.1-.75 1.96-2.69 2.26-3.56l3.46-13.54c.17-.83.73-2.97 1.4-3 .67-.02 1.1 1.78 1.28 2.4L27.38 33c.7 2.34 1.77 7.01 5.7 7.01 3.94 0 5.46-6.46 6.24-10h4.28l.92-3h-3.7l-.8.5c.47-1.74 1.74-6.34 2.17-7.46.43-1.12 1.6-1.17 2.12-1.04l.69-3h-2.98c-2.51 0-4 3.64-4.49 5.36L34.3 34.22c-.18.7-.7 2.78-1.3 2.78-.6 0-.96-1.5-1.18-2.15l-2.3-8.86C28.8 22.79 27.38 16 23 16c-3.83 0-5.72 6.62-6.53 11h-4.31l-.72 3h3.8l.65-.38c-1.18 5.43-1.95 6.42-2.41 6.91-.38.4-1.26.48-1.66.47Z" fill="#fff"/><defs><linearGradient id="a3itymegy" x1="10.42" y1="9.71" x2="68.15" y2="76.02" gradientUnits="userSpaceOnUse"><stop stop-color="#1A1E21"/><stop offset="1" stop-color="#06060A"/></linearGradient></defs></svg>