<!-- by TradingView --><svg width="56" height="56" viewBox="0 0 56 56" xmlns="http://www.w3.org/2000/svg"><path fill="#24E44C" d="M0 0h56v56H0z"/><path d="M28 12a16 16 0 1 0 0 32 16 16 0 0 0 0-32Zm-1.99 29.88A14.14 14.14 0 0 1 14.31 31 14.1 14.1 0 0 1 25.5 14.2a14.1 14.1 0 0 1 16.2 10.68c2.1 9.4-6.05 18.38-15.69 17Z"/><path d="M34.44 35.94c-1.85 1.7-4.47 2.1-6.88 2.06-2.12 0-4.35-.58-5.88-2.13a8 8 0 0 1-1.68-2.9c1.48-.4 3-.53 4.49-.85a2.66 2.66 0 0 0 1.74 1.98c1.35.43 3.02.49 4.14-.49.8-.67.82-2.14-.16-2.64-2.32-1.21-5.21-.8-7.4-2.34-3.02-1.93-3.25-7.04-.3-9.13 2.27-1.6 5.29-1.8 7.9-1.16 2.38.61 4.07 2.65 4.88 4.9l-4.37.77c-.39-2.35-3.63-2.9-5.24-1.54-.92.77-.68 2.42.46 2.83 2.51 1.06 5.52.75 7.74 2.52 2.58 1.77 2.85 6 .56 8.11ZM24 16.51v-2.17c.59-.7 2.24-.74 3-.67v2.06c-1 0-2.42.52-3 .78ZM24 39.66v2.17c.59.7 2.25.74 3 .67v-2.06c-1 0-2.42-.52-3-.78ZM32 39.66v2.17c-.59.7-2.25.74-3 .67v-2.06c1 0 2.42-.52 3-.78ZM32 16.51v-2.17c-.59-.7-2.25-.74-3-.67v2.06c1 0 2.42.52 3 .78Z"/></svg>