<!-- by TradingView --><svg width="56" height="56" xmlns="http://www.w3.org/2000/svg"><path fill="url(#paint0_linear)" d="M0 0h56v56H0z"/><path d="M27.59 22.657c.567.217 1.118.1 1.569 0 .333 1.106.884 2.111 1.435 2.564-.334 2.799-1.436 3.787-2.553 3.787-1.552 0-2.337-3.234-2.337-3.787a3.843 3.843 0 001.886-2.581v.017zm-1.769 9.82c.217.906.885 3.135 2.336 3.135 1.002 0 2.103-1.24 2.336-3.017-.784-.453-1.117-1.458-1.451-3.017-.434.1-1.118.218-1.569 0-.55 1.442-1.001 2.347-1.668 2.9h.016zm-8.91 3.47c.567.888 1.668 2.346 2.903 1.776.334-.117.434-1.005.334-1.776-.884-.57-1.452-1.576-2.12-3.134a1.18 1.18 0 01-.884 0c.217 1.676.217 2.564-.233 3.134zm-4.672-3.017c.45 2.447.567 2.682.45 3.017.768 1.441 1.552 2.112 2.553 2.011.334 0 .117-.905-.334-1.793a8.28 8.28 0 01-2.119-3.134.997.997 0 00-.55-.1zm-3.004 0c1.118 4.693 3.237 4.458 3.12 4.224a4.251 4.251 0 00-1.335-1.442c-1-1.005-1.768-3.117-1.768-2.799l-.017.017zm13.566 3.017c.567 2.011 2.12 2.011 2.67 1.776.784-.117 1.118-.787 1.235-2.01-1.002-.671-1.335-2.13-1.552-3.118-.334.117-.901.117-1.335 0-.117 1.559-.234 2.782-1.001 3.352H22.8zm-9.561-3.47c.45 1.123 1.785 3.235 2.786 3.235.45 0 .668-.77.45-3.117-.667-.453-1.217-1.34-1.568-2.816a1.48 1.48 0 01-1 0c-.1 1.24-.218 2.146-.668 2.682v.017zm-3.438 0c.334.906 1.102 2.8 2.103 3.135.45.218.45-.453-.1-3.017 0 0-.784-.67-1.335-2.799h-.45c-.1 1.006-.218 2.464-.218 2.682zm8.894 0c.117.453 1.218 2.682 2.57 3.017 1.535.336 1.669-1.676 1.669-2.899-.801-.453-1.335-1.34-1.686-2.799a2.11 2.11 0 01-1.435 0c-.233 1.458-.567 2.246-1.118 2.682zm-1.001-.334c.668 0 1.218-1.006 1.452-2.9-.568-.553-1.235-1.575-1.335-3.905-.334.1-.668.1-.901 0-.334 2.112-.668 3.335-1.335 4.022 0 .654.784 2.782 2.119 2.782zm-6.908-2.8c.567 2.23 1.118 2.8 1.568 2.8 1.002 0 .785-1.677.885-2.9-.334-.452-1.001-1.575-1.001-3.922h-.551c-.668 3.47-.668 3.57-.901 4.023zm-2.22-3.904c-.216-.118-1.334 4.575.334 6.586.234.235.234-2.564.234-2.564-.45-1.006-.234-3.922-.567-4.022zm13.35 3.905c.116.335.784 2.798 2.57 2.798 1.1 0 2.002-1.24 2.219-3.016a6.317 6.317 0 01-1.552-3.805c-.334.118-.901.118-1.335 0-.668 2.23-1.118 3.47-1.902 4.023zm-9.128-4.358c.117 2.011.568 4.022 1.452 4.022 1.001 0 1.452-2.229 1.785-4.14-.333-.217-.784-.887-.784-2.345a.666.666 0 01-.884 0c-.117.234-.668 2.128-1.569 2.463zm-2.77 4.123c.568 0 1.118-4.123 1.118-4.123-.233-.335-.45-1.006-.334-2.447-.116.117-.333 0-.45 0-.26.86-.63 1.683-1.101 2.447-.234 1.224 0 4.123.784 4.123h-.017zm8.46-4.123c.117 1.34.785 4.022 2.12 4.022 1.434 0 2.102-2.01 2.436-4.022-.785-.436-1.102-1.24-1.335-2.447-.55.117-1.001.117-1.452-.134-.434 1.123-1.335 2.346-1.769 2.581zm1.001-3.017c-.333-.452-.784-1.223-.567-2.916h-.768a9.17 9.17 0 01-2.119 3.134c0 .235.117 2.581 1.235 2.581.884 0 1.535-1.005 2.22-2.799zm-5.456-2.782h-.45c0 .118-1.436 2.682-2.12 3.118-.217 1.122-.217 2.463.45 2.58.668 0 1.119-.57 2.003-2.798-.217-.57-.45-1.341.117-2.9zm-3.22.118c-1.67 1.106-2.57 5.128-2.12 5.245.117.118 1.452-1.776 1.335-2.916-.1-.77 1.118-2.447.784-2.346v.017zm15.801 2.681c-.45-.452-1-1.24-1.234-2.933-.399.11-.82.11-1.218 0-.334 1.006-.885 2.347-2.003 3.134.217 1.123.768 2.464 1.786 2.581 1.885 0 2.336-1.558 2.67-2.799v.017zM11.471 18.97c-1.118 1.676-1.118 3.118-.668 3.118.551 0 2.103-2.8 2.453-3.352-.116-.57 1.102-1.676.668-1.793-.784 0-2.236 1.91-2.47 2.01l.017.017zm27.366 13.844c-.334.117-.668.117-.885 0-.45 1.441-1.118 2.58-2.119 3.134-.117.788-.117 1.676.334 1.776 1.218.453 2.453-.888 2.887-1.776-.334-.57-.334-1.458-.217-3.134zm4.455 0a8.364 8.364 0 01-2.12 3.134c-.567 1.005-.783 1.776-.333 1.776 1.001 0 1.769-.57 2.553-2.01-.117-.336 0-.57.45-3.017-.233.234-.45.234-.55.117zm1.769 2.9c-.434.452-.885.67-1.218 1.44-.117.252 2.002.453 3.103-4.24-.217-.335-.884 1.794-1.885 2.8zm-12.799-2.9a2.691 2.691 0 01-1.335 0 5.994 5.994 0 01-1.552 3.134c.217 1.106.451 1.776 1.235 2.011.55.117 2.103.117 2.67-1.793a5.228 5.228 0 01-1.001-3.352h-.017zm10.012-3.134a1.03 1.03 0 01-1.001 0c-.334 1.223-.885 2.346-1.552 2.799-.234 2.346 0 3.134.434 3.134.9 0 2.336-2.129 2.786-3.252-.55-.435-.667-1.34-.667-2.681zm4.005.234h-.434a6.884 6.884 0 01-1.335 2.8c-.567 2.446-.667 3.117-.117 3.016.885-.335 1.669-2.246 2.12-3.134-.234-.335-.234-1.793-.234-2.682zm-9.895-.234a2.158 2.158 0 01-1.452 0c-.334 1.34-.884 2.346-1.669 2.799 0 1.106.117 3.234 1.669 2.9 1.235-.236 2.453-2.465 2.57-3.018-.668-.335-.885-1.106-1.118-2.681zm4.221-.335c-.55-.67-.884-2.012-1.334-4.023-.285.11-.6.11-.885 0-.117 2.347-.784 3.47-1.335 3.922.217 1.777.784 2.9 1.452 2.9 1.101 0 2.002-2.129 2.102-2.8zm3.905-4.023c-.25 0-.334.118-.567 0 0 2.347-.551 3.47-1.002 3.922.117 1.106-.116 2.9.901 2.9.434 0 1.002-.67 1.552-2.8-.217-.452-.333-.552-.884-4.022zm2.336 4.023s0 2.798.217 2.58c1.669-1.793.667-6.703.334-6.586-.217.201 0 3.117-.568 4.022l.017-.016zm-14.25-4.023c-.55.118-1.118.118-1.335 0a6.971 6.971 0 01-1.552 3.788c.334 1.676 1.001 3.134 2.236 3.017 1.552 0 2.436-2.447 2.553-2.782-1.001-.553-1.568-1.794-1.885-4.023h-.017zm9.244-2.782a1.082 1.082 0 01-1.001.117c0 1.341-.45 2.112-.784 2.447.334 2.012.784 4.14 1.785 4.14.885 0 1.452-2.145 1.452-4.022-.784-.57-1.452-2.464-1.452-2.682zm5.006 2.447a14.179 14.179 0 01-1.001-2.447.333.333 0 01-.45 0c.1 1.207-.117 2.011-.334 2.347 0 0 .55 4.122 1.1 4.122.568.101.785-2.798.668-4.022h.017zM35.95 22.54c-.45.218-1.001.218-1.452.117-.117 1.107-.55 2.012-1.218 2.447.334 2.129.768 4.14 2.436 4.023 1.218 0 2.003-2.682 2.12-4.023-.668-.335-1.452-1.558-1.886-2.564zm2.77 2.129c1.118 0 1.235-2.246 1.235-2.581-.785-.57-1.452-1.794-2.12-3.017-.233.117-.45.117-.784 0 .234 1.575-.117 2.464-.55 2.916.784 1.777 1.451 2.782 2.219 2.682zm3.554-2.699c.784 2.23 1.218 2.8 1.785 2.8.668-.118.668-1.341.451-2.582a14.081 14.081 0 01-2.12-3.134h-.45c.668 1.676.45 2.464.334 2.916zm3.788-.335c-.1 1.006 1.118 3.017 1.235 2.916.333-.134-.334-4.156-2.12-5.262-.116-.1 1.002 1.558.885 2.346zm-14.117 3.017c1.102-.1 1.669-1.224 1.769-2.564-.884-.67-1.452-2.011-1.769-3.017a2.21 2.21 0 01-1.235 0c-.1 1.559-.667 2.564-1.218 2.9.334 1.24.768 2.798 2.453 2.68zm10.346-7.71c-.45 0 .767 1.224.667 1.794.334.553 1.769 3.335 2.436 3.335.45 0 .45-1.34-.784-3.134-.1-.084-1.785-1.994-2.336-1.994h.017zm-24.696.336s.217-.553-.134-.67c-.55.016-2.102 2.145-2.77 2.48-.116.234-1 2.799.1 3.017 1.002.117 2.12-1.794 2.787-3.135-.334-.335-.217-1.005 0-1.675l.017-.017zm5.223-.1c0-.135 0-.671-.568-.671-.667 0-1.551 2.111-2.553 2.447-.233 1.223 0 2.916 1.002 3.016 1.451.118 2.336-1.676 2.786-3.016-.567-.335-.667-1.107-.667-1.777zm15.802 1.776c.667 1.223 1.668 3.234 2.77 3.134 1.118-.235.217-2.8.116-3.017-.667-.335-2.219-2.464-2.786-2.464-.334 0-.1.57-.1.67.217.671.217 1.341 0 1.677zm-5.907 0c.45 1.223 1.234 3.234 2.786 3.016 1.118-.1 1.335-1.575 1.002-3.016-.901-.335-2.003-2.581-2.553-2.447-.568 0-.568.536-.568.67-.1.67-.217 1.442-.667 1.777zm-4.672-2.447c-1.219 0-.785 2.01-2.12 2.564.117 1.006.45 3.017 2.003 3.017 1.785 0 2.119-2.464 2.119-3.017-.884-.436-.884-2.564-2.002-2.564z" fill="#fff"/><defs><linearGradient id="paint0_linear" x1="10.418" y1="9.712" x2="68.147" y2="76.017" gradientUnits="userSpaceOnUse"><stop stop-color="#1A1E21"/><stop offset="1" stop-color="#06060A"/></linearGradient></defs></svg>