<!-- by TradingView --><svg xmlns="http://www.w3.org/2000/svg" width="56" height="56" viewBox="0 0 56 56"><path fill="url(#amtwyxa0j)" d="M0 0h56v56H0z"/><path d="M22.19 16.64a.8.8 0 0 1 0-1.02l5.19-6.33a.8.8 0 0 1 1.24 0l5.2 6.33a.8.8 0 0 1 0 1.02l-5.2 6.15a.8.8 0 0 1-1.24 0l-5.2-6.15z" fill="#009CF2"/><path d="M22.19 40.56a.8.8 0 0 1 0-1.02l5.19-6.33a.8.8 0 0 1 1.24 0l5.2 6.33a.8.8 0 0 1 0 1.02l-5.2 6.15a.8.8 0 0 1-1.24 0l-5.2-6.15z" fill="#00649B"/><path d="M14.69 26.17a.8.8 0 0 1-.01-1.02l5.15-6.33a.8.8 0 0 1 1.24 0l5.15 6.33a.8.8 0 0 1 0 1.02l-5.16 6.15a.8.8 0 0 1-1.22 0l-5.15-6.15zM29.79 26.17a.8.8 0 0 1 0-1.02l5.14-6.33a.8.8 0 0 1 1.24 0l5.15 6.33a.8.8 0 0 1 0 1.02l-5.16 6.15a.8.8 0 0 1-1.22 0l-5.15-6.15z" fill="#009CF2"/><defs><linearGradient id="amtwyxa0j" x1="10.42" y1="9.71" x2="68.15" y2="76.02" gradientUnits="userSpaceOnUse"><stop stop-color="#1A1E21"/><stop offset="1" stop-color="#06060A"/></linearGradient></defs></svg>