<!-- by TradingView --><svg width="56" height="56" xmlns="http://www.w3.org/2000/svg"><path fill="#171FC9" d="M0 0h56v56H0z"/><path d="M16.588 14.497c.382.07-.556 2.554-.035 5.387.452 2.433 6.083 11.887 5.857 15.12-.174 2.05-4.814 6.812-5.3 6.5-.522-.157 1.407-3.39.695-6.083C16.953 32.258 12 24.125 12 20.527c0-2.624 4.258-6.204 4.588-6.03zm10.601-3.72c.487.088-.695 3.25-.035 6.883.574 3.11 7.769 15.154 7.473 19.29-.226 2.59-6.135 8.655-6.76 8.255-.678-.174 1.79-4.31.869-7.751-1.043-4.014-7.386-14.407-7.386-18.978 0-3.371 5.422-7.907 5.856-7.698h-.017zm10.966 3.72c.382.07-.556 2.554-.035 5.387.452 2.433 6.083 11.887 5.874 15.12-.173 2.05-4.814 6.812-5.318 6.5-.52-.157 1.408-3.39.696-6.083-.835-3.163-5.805-11.296-5.805-14.894 0-2.624 4.258-6.204 4.588-6.03z" fill="#fff"/></svg>