<!-- by TradingView --><svg width="56" height="56" fill="none" xmlns="http://www.w3.org/2000/svg"><path fill="url(#paint0_linear_1530)" d="M0 0h56v56H0z"/><path fill-rule="evenodd" clip-rule="evenodd" d="M43.989 36.998l-.001-17.98-15.99-9v17.988L12.01 37.002 28.003 46l15.976-8.99.01.006v-.011l.005-.003-.005-.004z" fill="#64C557"/><path d="M12 19.017l16.007-9v17.999l-16.007 9V19.016z" fill="#118AB2"/><path d="M28.008 10L44 18.998l-5 3.248-16-9.411L28.008 10z" fill="#00F8B7"/><path d="M39 21.744v6.086l-16-9.073v-5.933l16 8.92z" fill="#09BD8E"/><path d="M22.996 18.757L39 27.805l-6 3.383-15.996-9.056 5.992-3.375z" fill="#FFE3A3"/><path d="M32.996 31.188v6.055L17 27.903V22.12l15.996 9.067z" fill="#FFBB1D"/><path d="M17.001 27.897L33 37.16 28.003 40 12 31.002l5.001-3.105z" fill="#FF965E"/><path d="M28 40v6l-16-9.006v-6L28 40z" fill="#D94C00"/><path d="M39.004 21.77L44 19.036v17.998l-4.996 2.776V21.77z" fill="#06D6A0"/><path d="M32.995 31.188L39 27.793v12.021l-6.005 3.352V31.188z" fill="#FFD166"/><path d="M28 39.996l4.995-2.843v6.045L28 45.996v-6z" fill="#F3722C"/><defs><linearGradient id="paint0_linear_1530" x1="10.418" y1="9.712" x2="68.147" y2="76.017" gradientUnits="userSpaceOnUse"><stop stop-color="#1A1E21"/><stop offset="1" stop-color="#06060A"/></linearGradient></defs></svg>