<!-- by TradingView --><svg width="56" height="56" viewBox="0 0 56 56" xmlns="http://www.w3.org/2000/svg"><path fill="url(#aepyhku4w)" d="M0 0h56v56H0z"/><path d="M12.11 25.56a3.55 3.55 0 0 1 1.97-1.35c2.14-.54 5.35-2.69 6.42-3.76 1.07-1.08 3.21-5.38 3.75-6.46l.06-.12c.18-.4.58-1.26 1.42-1.87a16.1 16.1 0 0 0-13.62 13.56ZM12 29.45A16.1 16.1 0 0 0 26.07 44c-.54-.47-.86-1.13-1.13-1.71l-.16-.33-.24-.53c-.63-1.46-2.21-5.08-4.04-6.46-2.14-1.61-4.28-3.23-5.89-3.77-1-.33-2-.87-2.61-1.75ZM30.14 43.97A16.1 16.1 0 0 0 44 29.27a4.2 4.2 0 0 1-2.09 1.4c-1.6.53-5.35 3.22-6.42 4.3a30.52 30.52 0 0 0-4.29 7 4.67 4.67 0 0 1-1.06 2ZM43.89 25.69A16.1 16.1 0 0 0 30.25 12a4.64 4.64 0 0 1 1.43 1.87l.06.12.39.88c.62 1.45 1.64 3.86 3.36 5.58 1.7 1.72 4.1 2.75 5.55 3.37.36.16.66.28.87.4.62.3 1.42.8 1.98 1.47Z" fill="#8E8E8E"/><path d="M29.15 19.78a1.1 1.1 0 0 0-2.09-.02 10.86 10.86 0 0 1-7.28 7.1 1.1 1.1 0 0 0-.02 2.08 10.86 10.86 0 0 1 7.1 7.28 1.1 1.1 0 0 0 2.08.02 10.86 10.86 0 0 1 7.28-7.1 1.1 1.1 0 0 0 .02-2.08 10.86 10.86 0 0 1-7.1-7.28Z" fill="#fff"/><defs><linearGradient id="aepyhku4w" x1="10.42" y1="9.71" x2="68.15" y2="76.02" gradientUnits="userSpaceOnUse"><stop stop-color="#1A1E21"/><stop offset="1" stop-color="#06060A"/></linearGradient></defs></svg>