<!-- by TradingView --><svg width="56" height="56" xmlns="http://www.w3.org/2000/svg"><path fill="url(#paint0_linear)" d="M0 0h56v56H0z"/><path d="M26 44V16h-4v-2.266c0-.405.348-.734.776-.734H34l-1.607 3H29v28h-3zm-9.459 0c-.08 0-.16-.001-.242-.004-2.41-.08-4.299-2.06-4.299-4.507v-1.322c0-.368.16-.713.441-.947L15 35.281v3.652C15 40.41 15.414 41 16.54 41 17.878 41 18 39.948 18 38.933v-3.865c0-1.067-.054-1.848-.626-2.881l-4.036-7.115C12.578 23.748 12 22.735 12 21.174v-3.663C12 14.56 13.68 13 16.542 13 19.526 13 21 14.367 21 17.3v.988c0 .421-.27.815-.593 1.08L18 21.275v-3.334C18 16.529 17.616 16 16.542 16 15.467 16 15 16.529 15 17.94v2.729c0 1.083.216 1.996.626 2.712l4.369 7.579A7.413 7.413 0 0121 34.69v4.799c0 1.408-.412 2.562-1.19 3.34-.768.766-1.898 1.17-3.268 1.171zM38 28.514L42 44h3l-4.369-16.544L45 13h-3l-4 13.262V13h-2.517a.476.476 0 00-.483.467V44h3V28.514z" fill="#fff"/><defs><linearGradient id="paint0_linear" x1="28" y1="0" x2="28" y2="56" gradientUnits="userSpaceOnUse"><stop stop-color="#E42B51"/><stop offset="1" stop-color="#5D4BA1"/></linearGradient></defs></svg>