<!-- by TradingView --><svg xmlns="http://www.w3.org/2000/svg" width="56" height="56"><path fill="url(#a12aunfog)" d="M0 0h56v56H0z"/><path d="M27.47 12.65a1 1 0 011.06 0l16 10a1 1 0 01-.04 1.72l-16 9a1 1 0 01-.98 0L13 25.21v2.7l15 8.44 15.51-8.72a1 1 0 011.49.87V33a1 1 0 01-.49.86l-16 9.5a1 1 0 01-1 .01l-16-9a1 1 0 01.98-1.74l15.5 8.71L43 32.45V30.2l-14.51 8.16a1 1 0 01-.98 0l-16-9a1 1 0 01-.51-.87v-5a1 1 0 01.47-.85l16-10zm-13.51 10.8L28 31.35l14.04-7.9L28 14.68l-14.04 8.77z" fill="#fff"/><defs><linearGradient id="a12aunfog" x1="28" y1="0" x2="28" y2="56" gradientUnits="userSpaceOnUse"><stop stop-color="#1B71BD"/><stop offset="1" stop-color="#10449E"/></linearGradient></defs></svg>