<!-- by TradingView --><svg width="56" height="56" viewBox="0 0 56 56" xmlns="http://www.w3.org/2000/svg"><path fill="#0C0C4F" d="M0 0h56v56H0z"/><path fill-rule="evenodd" d="M28.64 12h-1.26A16.06 16.06 0 0 0 12 27.36v1.27a15.92 15.92 0 0 0 7 12.59A15.94 15.94 0 0 0 27.37 44h1.25a15.93 15.93 0 0 0 12.65-7.05 15.77 15.77 0 0 0 2.73-8.3v-1.29a15.92 15.92 0 0 0-7.71-13.04A15.73 15.73 0 0 0 28.64 12Zm13.4 21.82a15.2 15.2 0 1 0-28.08-11.64 15.2 15.2 0 0 0 28.08 11.64Z" fill="#EC796B"/><path d="M40.28 23.53c-.53-.13-1.15-.24-1.88-.33-1.46-.18-3.02-.12-4.2.68a8.1 8.1 0 0 0-2.31 2.74 19.17 19.17 0 0 1-4.78 5.88 9.4 9.4 0 0 1-4.27 1.95c-2 .31-3.95-.17-5.5-1.43a8.44 8.44 0 0 1-1.96-2.26l-.53-1.18a.04.04 0 0 1 0-.04l.02-.02h.03c.58.13 1.16.26 1.76.37.86.17 1.8.1 2.68-.1.96-.2 1.8-.6 2.55-1.18.7-.54 1.36-1.22 2-2.04l2.3-3.07c1.45-1.93 3.29-3.54 5.62-4.15a7.2 7.2 0 0 1 8.52 4.16l-.01.02h-.04ZM21.58 21.22l1.56.59a.14.14 0 0 1 .07.2.14.14 0 0 1-.07.06l-1.57.56a.14.14 0 0 0-.09.09l-.58 1.56a.14.14 0 0 1-.21.07.14.14 0 0 1-.05-.07l-.57-1.57a.14.14 0 0 0-.08-.09l-1.57-.58a.14.14 0 0 1-.06-.21.14.14 0 0 1 .07-.05L20 21.2a.14.14 0 0 0 .08-.08l.6-1.57a.14.14 0 0 1 .2-.06l.05.06.57 1.58a.14.14 0 0 0 .08.08Z" fill="#FAFAFA"/><path d="m40.28 23.53-.47.2c-.75.35-1.47.99-2.06 1.63-.51.56-1 1.17-1.48 1.82-.75 1.04-1.5 2.1-2.22 3.16-2.65 3.9-7.02 7.12-12 5.97a9.58 9.58 0 0 1-4.65-2.7c-.84-.86-1.51-1.81-2.02-2.85a8.44 8.44 0 0 0 1.95 2.26 6.94 6.94 0 0 0 5.51 1.43 9.4 9.4 0 0 0 4.27-1.95c2-1.56 3.51-3.62 4.78-5.88a8.1 8.1 0 0 1 2.3-2.74c1.19-.8 2.74-.86 4.21-.68.73.09 1.35.2 1.88.33ZM36 37a2 2 0 1 0 0-4 2 2 0 0 0 0 4Z" fill="#EC796B"/></svg>