<!-- by TradingView --><svg width="56" height="56" viewBox="0 0 56 56" xmlns="http://www.w3.org/2000/svg"><path fill="#F0F3FA" d="M0 0h56v56H0z"/><path d="M28 45a17 17 0 1 0 0-34 17 17 0 0 0 0 34Z" fill="url(#atdcr4voe)"/><path d="M25.39 6.94V18.8h1V6.94h-1Zm1.75 0V18.8h1V6.94h-1Zm2.3 11.85V6.94h1V18.8h-1Zm-4.89-2.38V8.26h-1v6.16l-2.9-5.4-.88.47.17.3-.63.2 1.78 5.87-4.36-4.36-.71.7 5.77 5.77.83-.5-1.85-6.13 2.84 5.3.94-.23Zm7.68-2.2V8.03h-1v8.15l.94.24 3.35-6.25-2.1 6.96.83.5 5.77-5.76-.71-.71-4.36 4.36 1.78-5.88-.8-.24.08-.14-.88-.48-2.9 5.41ZM29 50.6V38.78h-1v11.85h1Zm2-11.86v11.84h-1V38.75h1ZM27 50.6V38.76h-1v11.85h1Zm4.45-9.34.94-.24 2.95 5.5-1.81-6 .83-.49 5.77 5.77-.71.7-4.36-4.36 1.77 5.88-.66.2-.82.44-2.9-5.4v6.16h-1v-8.16Zm-10.31 7.49 2.9-5.41v6.16h1v-8.15l-.94-.24-3.47 6.46 2.1-6.93-.83-.5-5.77 5.77.7.7 4.37-4.36-1.78 5.88.96.29.02-.07.74.4ZM17 29H5v-1h12v1ZM6.08 31h12v-1h-12v1Zm11.89-3.73H6.12v-1h11.85v1Zm-2.67 4.76H7.15v1h6.16l-5.4 2.9.46.88.08-.04.21.72 5.88-1.77-4.36 4.36.7.7 5.78-5.76-.5-.83-6.63 2 6-3.22-.23-.94Zm-1.2-7.27-5.42-2.9.27-.49h-.03l.3-.96 5.87 1.77-4.36-4.36.7-.7 5.77 5.76-.5.84-5.59-1.7 5.21 2.8-.24.94H7.93v-1h6.16ZM50 28H38v1h12v-1Zm-12.07-1.8h11.84v1H37.93v-1ZM50 30H38v1h12v-1Zm-2.63-9.42-.22-.72-5.87 1.77 4.36-4.35-.71-.71-5.77 5.77.5.83 4.47-1.35L40 24.03l.24.94h8.15v-1h-6.16l5.4-2.9-.26-.5ZM40.63 32l-.23.94 5.99 3.21-6.51-1.96-.5.83 5.77 5.76.7-.7-4.35-4.36 5.87 1.77.26-.84.4-.75-5.4-2.9h6.16v-1h-8.16Zm-19.17 4.4-8.38 8.37-.7-.7 8.37-8.38.7.7ZM14.32 46l8.38-8.38-.7-.7-8.39 8.37.71.71Zm5.5-11.24-8.37 8.37-.7-.7 8.37-8.38.7.7Zm22.99-22-8.38 8.37.71.7 8.38-8.37-.71-.7Zm-9.62 7.13 8.38-8.38.7.71-8.37 8.38-.7-.7Zm11.25-5.5-8.38 8.37.71.7 8.38-8.37-.71-.7Zm-8.87 20.86 8.38 8.37-.71.7-8.38-8.37.71-.7Zm9.62 7.13-8.38-8.37-.7.7 8.37 8.38.7-.7Zm-11.25-5.5 8.38 8.37-.7.7-8.38-8.37.7-.7Zm-22-22.99 8.38 8.38.7-.7-8.37-8.38-.7.7Zm7.14 9.62-8.38-8.38.7-.7 8.39 8.37-.71.71Zm-5.5-11.25 8.37 8.38.7-.7-8.37-8.38-.7.7Z" fill="#F0F3FA"/><path d="M28 39.5a11.5 11.5 0 1 0 0-23 11.5 11.5 0 0 0 0 23Z" fill="#F8BA3A"/><path d="M28 17a11 11 0 1 0 0 22 11 11 0 0 0 0-22ZM16 28a12 12 0 1 1 24 0 12 12 0 0 1-24 0Z" fill="#F0F3FA"/><mask id="btdcr4voe" style="mask-type:alpha" maskUnits="userSpaceOnUse" x="16" y="16" width="25" height="25"><path d="M28.06 39.66a11.6 11.6 0 1 0 0-23.21 11.6 11.6 0 0 0 0 23.21Z" fill="#F0F3FA"/></mask><g mask="url(#btdcr4voe)"><path d="m28.6 15.94-1.53 12.33h1.53L28 39.66l11.2-2 2.02-15.63-4.93-4.34-7.69-1.75Z" fill="#F0F3FA"/><path d="M37.86 22.23c.67.31 1.24.81 1.34 1.58.1.84-.04 2.1-.41 3.18a4.9 4.9 0 0 1-.8 1.5c-.36.44-.84.79-1.45.87-2.8.34-5.13.12-6.86-.81a5.6 5.6 0 0 1-1.97-1.75 5.2 5.2 0 0 1-.26.76c-.76 1.74-2.57 3.23-6.36 3.7a3.48 3.48 0 0 1-3.17-1.39 6.55 6.55 0 0 1-1.33-3.28c-.11-.88.19-1.62.8-2.18.57-.54 1.4-.92 2.35-1.22 1.89-.58 4.57-.9 7.56-1.27l.06-.01c3.05-.38 5.83-.5 7.9-.3 1.03.11 1.93.3 2.6.62Zm-9.35 1.22c2.95-.35 4.72-.79 6.62-.6.97.1 1.71.28 2.2.5.5.24.62.46.64.61.07.63-.03 1.7-.35 2.63-.16.46-.36.84-.59 1.12-.22.27-.44.39-.64.41-2.68.33-4.72.1-6.12-.67-1.36-.73-1.64-1.65-1.89-3.64-.01-.13.2-.27.13-.36Zm-2.36.36c-2.68.33-4.44.08-6.05.57-.89.27-1.5.58-1.87.93-.33.31-.47.66-.41 1.12.12.99.5 1.97 1.06 2.66.56.67 1.25 1.03 2.06.93 3.5-.43 4.84-1.74 5.37-2.95.48-1.1.38-2.23.3-3.07-.01-.16-.18-.15-.19-.28 0-.12-.32.19-.27.09Z" fill="#01C1AE"/><path d="M28.12 35.44c2.55-.21 4.45-2.26 4.27-4.59l-9.22.75c.2 2.33 2.41 4.05 4.95 3.84Z" fill="#F0F3FA"/><path d="M32.6 30.63c.07.05.1.11.1.19.21 2.5-1.84 4.67-4.51 4.89l-.03-.28.03.28c-2.68.22-5.05-1.59-5.26-4.1 0-.15.1-.29.26-.3l9.21-.75c.08 0 .15.02.2.07Zm-9.07 1.22c.32 2 2.3 3.48 4.61 3.3 2.3-.2 4.02-1.97 4.02-4l-8.63.7Z" fill="#FE9D51"/><path d="M29.09 32.94c0-.13.1-.23.23-.23h2.52a.23.23 0 0 1 0 .45h-2.52a.23.23 0 0 1-.23-.22Z" fill="#FE9A54"/><path d="M30.69 27.73a4.9 4.9 0 0 1-2.9-3.62c0-1.21 1.36-1.37 4.7-1.37 3.35 0 5.38.27 5.55 1.15.16 1.53-.39 3.84-1.16 4.22-.76.38-3.72.55-6.2-.38ZM24.88 28.75A4.44 4.44 0 0 0 26.8 24c-.28-.97-1.82-.73-4.71-.28-2.58.41-4.55 1.54-4.33 2.53.1 1.61 1.35 3.32 2.08 3.61.73.3 3.07.2 5.05-1.1Z"/><path d="m38.58 18.9.97 2.6 2.6.96-2.6.96-.97 2.6-.96-2.6-2.6-.96 2.6-.96.96-2.6Z" fill="#F0F3FA"/></g><defs><linearGradient id="atdcr4voe" x1="28" y1="11" x2="28" y2="45" gradientUnits="userSpaceOnUse"><stop stop-color="#F5B745"/><stop offset="1" stop-color="#FC8B47"/></linearGradient></defs></svg>