<!-- by TradingView --><svg width="56" height="56" xmlns="http://www.w3.org/2000/svg"><path fill="#0C1D34" d="M0 0h56v56H0z"/><path d="M48.145 27.855A6.144 6.144 0 0142 34a6.144 6.144 0 01-6.145-6.145A6.144 6.144 0 0142 21.712a6.144 6.144 0 016.145 6.145zm-3.006 0c0-1.73-1.409-3.139-3.14-3.139a3.143 3.143 0 00-3.139 3.14c0 1.73 1.41 3.139 3.14 3.139 1.73 0 3.14-1.409 3.14-3.14z" fill="#E5661F"/><path d="M12.954 34c2.484 0 4.398-1.091 4.398-3.648v-.04c0-2.109-1.835-3.037-3.45-3.58-1.236-.422-2.335-.735-2.335-1.374v-.04c0-.45.407-.803 1.208-.803.68 0 1.562.286 2.485.735.176.096.393.15.597.15h.027c.706 0 1.276-.585 1.276-1.292 0-.53-.298-1.006-.773-1.224A7.916 7.916 0 0012.83 22c-2.32 0-4.208 1.319-4.208 3.658v.04c0 2.244 1.832 2.992 3.42 3.454 1.263.38 2.351.792 2.351 1.5v.04c0 .517-.42.857-1.37.857-.923 0-2.009-.34-3.109-1.034a1.273 1.273 0 00-.638-.163h-.04A1.27 1.27 0 008 31.644c0 .462.231.884.624 1.115 1.276.856 2.783 1.24 4.33 1.24zm8.429 3c1.955 0 2.918-.907 3.882-3.245l3.977-9.46c.096-.244.136-.516.15-.775v-.013A1.537 1.537 0 0027.845 22c-.828 0-1.303.583-1.562 1.276l-2.375 6.495-2.533-6.535C21.104 22.46 20.63 22 19.815 22c-.91 0-1.616.651-1.616 1.576.027.258.081.503.177.748l3.97 8.928-.108.258c-.298.585-.57.694-1.153.694-.245 0-.475-.041-.692-.122A1.824 1.824 0 0019.85 34h-.013c-.72.014-1.29.612-1.276 1.333 0 .802.556 1.183 1.031 1.36.57.204 1.18.334 1.79.307zM31 32.35c0 .898.604 1.649 1.5 1.649s1.5-.75 1.5-1.649V19.678C34 18.78 33.397 18 32.5 18c-.896 0-1.5.78-1.5 1.678V32.35z" fill="#fff"/></svg>