<!-- by TradingView --><svg width="56" height="56" viewBox="0 0 56 56" xmlns="http://www.w3.org/2000/svg"><path fill="url(#abgll1jzq)" d="M0 0h56v56H0z"/><circle cx="28" cy="28" r="17"/><path d="m27.3 18.3 1.4 1.4-7.29 7.3h18l-10.7 10.7-1.42-1.4 7.3-7.3h-18l10.7-10.7Z" fill="url(#bbgll1jzq)"/><circle cx="28" cy="19" r="3" fill="url(#cbgll1jzq)"/><circle cx="28" cy="37" r="3" fill="url(#dbgll1jzq)"/><circle cx="19" cy="28" r="3" fill="url(#ebgll1jzq)"/><circle cx="37" cy="28" r="3" fill="url(#fbgll1jzq)"/><defs><linearGradient id="abgll1jzq" x1="11" y1="8" x2="42" y2="51" gradientUnits="userSpaceOnUse"><stop stop-color="#F207F9"/><stop offset="1" stop-color="#7C45F2"/></linearGradient><linearGradient id="bbgll1jzq" x1="23" y1="23" x2="32.5" y2="34" gradientUnits="userSpaceOnUse"><stop stop-color="#672B80"/><stop offset="1" stop-color="#5E3C80"/></linearGradient><linearGradient id="cbgll1jzq" x1="25" y1="19" x2="31" y2="19" gradientUnits="userSpaceOnUse"><stop stop-color="#CE54FF"/><stop offset="1" stop-color="#B87BFF"/></linearGradient><linearGradient id="dbgll1jzq" x1="25" y1="37" x2="31" y2="37" gradientUnits="userSpaceOnUse"><stop stop-color="#CE54FF"/><stop offset="1" stop-color="#B87BFF"/></linearGradient><linearGradient id="ebgll1jzq" x1="16" y1="28" x2="22" y2="28" gradientUnits="userSpaceOnUse"><stop stop-color="#CE54FF"/><stop offset="1" stop-color="#B87BFF"/></linearGradient><linearGradient id="fbgll1jzq" x1="34" y1="28" x2="40" y2="28" gradientUnits="userSpaceOnUse"><stop stop-color="#CE54FF"/><stop offset="1" stop-color="#B87BFF"/></linearGradient></defs></svg>