<!-- by TradingView --><svg width="56" height="56" xmlns="http://www.w3.org/2000/svg"><path fill="#20468F" d="M0 0h56v56H0z"/><path d="M40.429 39.282c-.926.8-1.934 1.5-3.006 2.089.206-.163-.44-.844-.245-1.019 4.892-4.26 6.01-9.743 4.036-14.567-.267-.651.295-.912.298-1.51 4.505 4.264 4.02 10.564-1.083 15.008z" fill="#E8E7E3"/><path d="M41.51 24.279c-1.654-1.566-3.973-2.858-6.984-3.682l-.039-.01.042.01c.989.26 1.066 1.406 1.746 1.984 1.458 1.239 1.855 2.824 2.005 4.92.224 3.115.206 6.198-2.067 8.943-1.193 1.44-2.7 2.75-4.48 3.52a11.77 11.77 0 01-.397.172c-.021.006-.037.016-.058.022-.923.367-1.88.642-2.858.82-3.688.698-8.563.407-14.463-1.47a21.367 21.367 0 007.427 3.729c2.69.735 5.498.942 8.267.608.005 0 .015 0 .021-.006a21.569 21.569 0 005.583-1.433h.006c.74-.3 1.461-.645 2.16-1.031.206-.165.412-.334.608-.508 5.551-4.835 6.809-11.394 3.481-16.588z" fill="#fff"/><path d="M31.337 40.133c6.897-2.814 7.268-9.946-.747-13.96-5.823-2.918-3.25-7.548 3.94-5.578 8.032 2.112 5.656 16.12-3.193 19.538z" fill="#CFCFCA"/><path d="M42.044 16.743c-7.58-2.413-13.459-2.205-17.318-.65l-.057.022c-5.736 2.341-6.959 7.668-2.597 11.703-1.15-.955-2.462-1.969-3.028-3.259-.726-1.648-.944-3.686-.654-5.4.393-2.318 1.856-4.41 4.265-5.686.958-.51 2.401-.873 3.7-1.069 5.097-.61 10.76.523 15.69 4.339z" fill="#E8E7E3"/><path d="M23.355 36.037c-.499-.161-1.06-.238-1.52-.423-5.854-2.357-8.981-6.743-8.869-11.072.08-3.075 1.88-6.19 4.829-8.757.834-.725 1.933-1.338 2.946-1.94.003-.003.005-.003.007-.003a21.53 21.53 0 015.606-1.438c-.457.068-.91.163-1.355.286-7.576 2.063-8.03 10.892-2.927 15.129 0 0 .003 0 .005.002.882.815 1.992 1.58 3.339 2.253 5.28 2.648 3.656 6.704-2.061 5.963z" fill="#fff"/><path d="M23.35 36.041a13.761 13.761 0 01-1.879-.383c-11.225-3.073-12.872-12.619-5.9-18.69 1.439-1.252 3.196-2.32 5.166-3.12a19.244 19.244 0 00-2.782 1.998c-7.424 6.465-5.945 16.519 5.396 20.195" fill="#CFCFCA"/></svg>