<!-- by TradingView --><svg width="56" height="56" viewBox="0 0 56 56" xmlns="http://www.w3.org/2000/svg"><path fill="url(#a)" d="M0 0h56v56H0z"/><path d="M26.45 12.93c0 1.06.7 1.93 1.56 1.92.86 0 1.55-.86 1.55-1.93 0-1.06-.7-1.92-1.56-1.92-.86 0-1.55.87-1.55 1.93ZM19.64 12.68c-.46.96-.2 2.02.58 2.38.78.36 1.79-.12 2.24-1.08.46-.95.2-2.02-.59-2.38-.78-.36-1.78.12-2.23 1.08ZM33.55 13.98c.46.96 1.46 1.43 2.24 1.07.77-.36 1.03-1.43.57-2.38-.46-.96-1.47-1.44-2.24-1.07-.78.36-1.03 1.43-.57 2.38Z" fill="#231040"/><path d="M28 18.26c.43 0 .84.08 1.23.26l1.36.64c.83.4 1.63.39 2.4-.03l1.17-.62a2.4 2.4 0 1 1 1.62 4.46c-.64.13-1.19.07-1.63-.17-.51-.28-1.08-.65-1.57-.8a2.57 2.57 0 0 0-2.78.63 2.49 2.49 0 0 0-.79 1.9c-.01.57.1 1.04.33 1.42.22.34.67.85.85 1.25.28.62.29 1.27.02 1.95-.1.24-.34.77-.72 1.57a2.8 2.8 0 0 0 0 2.47l.49 1.04c.22.46.34.82.38 1.06.15.92-.13 1.68-.84 2.27a2.3 2.3 0 0 1-1.52.55 2.3 2.3 0 0 1-1.52-.55c-.7-.6-.99-1.35-.84-2.27.04-.24.17-.6.39-1.06l.48-1.04a2.8 2.8 0 0 0 0-2.47c-.38-.8-.62-1.33-.72-1.57a2.38 2.38 0 0 1 .02-1.95c.18-.4.63-.9.85-1.25.23-.38.34-.85.32-1.42a2.49 2.49 0 0 0-.78-1.9 2.57 2.57 0 0 0-2.78-.63c-.49.15-1.06.52-1.57.8-.44.24-.99.3-1.63.17a2.41 2.41 0 0 1-1.65-1.4 2.4 2.4 0 0 1 3.27-3.07c.05.04.44.24 1.17.64.77.4 1.57.41 2.4.02l1.36-.64c.39-.18.8-.26 1.23-.26Z" fill="url(#b)"/><path d="M11.72 20.4c-.67.84-.67 1.95 0 2.48.69.52 1.78.28 2.45-.56.67-.84.67-1.94 0-2.47-.68-.53-1.78-.28-2.45.56ZM41.83 22.32c.67.83 1.76 1.07 2.44.54.67-.53.67-1.63 0-2.46-.67-.83-1.77-1.07-2.44-.54-.68.53-.68 1.63 0 2.46Z" fill="#231040"/><path d="M20.28 30.18a2.32 2.32 0 0 0 2.33-2.3c0-1.27-1.04-2.3-2.33-2.3a2.32 2.32 0 0 0-2.34 2.3c0 1.27 1.05 2.3 2.34 2.3ZM35.72 30.18a2.32 2.32 0 0 0 2.34-2.3c0-1.27-1.05-2.3-2.34-2.3a2.32 2.32 0 0 0-2.33 2.3c0 1.27 1.04 2.3 2.33 2.3Z" fill="#4B207C"/><path d="M12.94 29.81c1.07 0 1.93-.77 1.93-1.73s-.86-1.74-1.93-1.74c-1.07 0-1.94.78-1.94 1.74s.87 1.73 1.94 1.73ZM43.04 29.81c1.07.02 1.95-.75 1.96-1.71.01-.96-.85-1.75-1.92-1.76-1.07-.01-1.95.76-1.96 1.72-.01.96.85 1.74 1.92 1.75Z" fill="#231040"/><path d="M18.4 36.03c.28 1.24 1.45 2.03 2.6 1.77 1.14-.26 1.84-1.47 1.55-2.72-.3-1.24-1.46-2.03-2.6-1.77-1.16.26-1.85 1.48-1.56 2.72ZM33.44 35.11c-.27 1.25.45 2.46 1.6 2.7 1.15.24 2.3-.57 2.58-1.82.27-1.24-.45-2.45-1.6-2.7-1.15-.24-2.3.58-2.58 1.82Z" fill="#3B1A66"/><path d="M11.74 36.15c.68.82 1.78 1.05 2.44.5.67-.53.65-1.64-.03-2.46-.7-.82-1.79-1.04-2.45-.5-.67.53-.65 1.64.04 2.46ZM41.83 34.23c-.66.84-.65 1.94.02 2.46.68.52 1.77.26 2.43-.58.66-.84.65-1.94-.02-2.46-.68-.52-1.77-.26-2.43.58ZM19.62 43.3c.44.98 1.43 1.5 2.22 1.15.79-.35 1.07-1.42.63-2.4-.44-.97-1.44-1.47-2.22-1.13-.8.35-1.07 1.41-.63 2.39ZM33.54 42.03c-.46.96-.2 2.03.58 2.4.78.35 1.79-.14 2.24-1.1.46-.97.2-2.04-.58-2.4-.78-.36-1.78.13-2.24 1.1ZM26.44 43.08c0 1.06.7 1.92 1.56 1.92.86 0 1.56-.87 1.56-1.93s-.7-1.93-1.57-1.92c-.86 0-1.56.86-1.55 1.93Z" fill="#231040"/><defs><linearGradient id="a" x1="10.42" y1="9.71" x2="68.15" y2="76.02" gradientUnits="userSpaceOnUse"><stop stop-color="#1A1E21"/><stop offset="1" stop-color="#06060A"/></linearGradient><linearGradient id="b" x1="28" y1="18.26" x2="28" y2="38.11" gradientUnits="userSpaceOnUse"><stop stop-color="#A73BFF"/><stop offset="1" stop-color="#893CFB"/></linearGradient></defs></svg>