<!-- by TradingView --><svg width="56" height="56" viewBox="0 0 56 56" xmlns="http://www.w3.org/2000/svg"><path fill="#2862FF" d="M0 0h56v56H0z"/><path d="M28 15c7.33 0 13 5.67 13 13s-5.67 13-13 13-13-5.67-13-13 5.67-13 13-13Zm0-1c-7.85 0-14 6.15-14 14s6.15 14 14 14 14-6.15 14-14-6.15-14-14-14Zm0-2a16 16 0 1 1 0 32 16 16 0 0 1 0-32Zm4 13v-2h3v-3H21v3h3v2h-1.36c-2.1.03-3.64 1.9-3.64 4 0 2.12 1.56 4 3.68 4H24v3h3v-3h2v3h3v-3h2.2c.8 0 1.3-.78 1.3-1.5 0-.7-.5-1.5-1.3-1.5H32v-2h2.18c.82 0 1.32-.71 1.32-1.42 0-.7-.5-1.58-1.32-1.58H32Zm-3 5h-2v-2h2v2Zm0-5h-2v-2h2v2Zm-5 5h-1.3c-.72 0-1.23-.36-1.25-1-.02-.64.53-1 1.25-1H24v2Z" fill="#fff"/></svg>