<!-- by TradingView --><svg width="56" height="56" viewBox="0 0 56 56" xmlns="http://www.w3.org/2000/svg"><path fill="#000563" d="M0 0h56v56H0z"/><path d="M42.9 17c.6 0 1.1-.4 1.1-1s-.5-1-1.1-1H13.1c-.6 0-1.1.4-1.1 1s.4 1 1 1h14v23a1 1 0 0 0 1 1 1 1 0 0 0 1-1V17h13.9Z" fill="#F0F3FA"/><path d="M23 19H13c-.57 0-1 .39-1 1s.43 1 1 1h9v8h-7.89c-.54 0-1.11.42-1.11 1 0 .58.46 1 1 1h8v8h-9c-.57 0-1 .39-1 1s.43 1 1 1h10c.4 0 .65-.24.83-.6.1-.18.17-.4.17-.64V20.24c0-.25-.07-.49-.2-.68-.18-.33-.42-.56-.8-.56ZM43 21c.57 0 1-.39 1-1s-.43-1-1-1h-9.9c-.39 0-.72.23-.9.56-.13.2-.2.43-.2.68v19.52c0 .23.06.45.17.64.18.36.43.6.83.6h10c.57 0 1-.39 1-1s-.43-1-1-1h-9v-8h8c.54 0 1-.42 1-1 0-.58-.46-1-1-1h-8v-8h9Z" fill="#F0F3FA"/></svg>