<!-- by TradingView --><svg width="56" height="56" viewBox="0 0 56 56" xmlns="http://www.w3.org/2000/svg"><path fill="#14C8FF" d="M0 0h56v56H0z"/><path d="M42.53 20.77a4.38 4.38 0 0 1 1.43 3.76l-2.18 12.04a4.48 4.48 0 0 1-2.66 3.07L27.25 43.8a4.73 4.73 0 0 1-4.09-.7l-9.69-7.86a4.35 4.35 0 0 1-1.42-3.77l2.17-12.04a4.47 4.47 0 0 1 2.66-3.07l11.88-4.16a4.73 4.73 0 0 1 4.08.7l9.69 7.87ZM32.43 26l.48-2h-4.53l.64-4h-1.46c-1.06 1.62-2.6 3.3-4.4 4l-.41 2h2.61s-.89 3.15-1.11 4.27c-.56 2.85.43 4.73 2.6 4.73h3.66l.46-2H27.9c-1.36 0-1.28-.75-1.02-2.07L27.9 26h4.53Z" fill="#fff"/></svg>