<!-- by TradingView --><svg width="56" height="56" xmlns="http://www.w3.org/2000/svg"><path fill="#6784FF" d="M0 0h56v56H0z"/><path d="M12 20.03c0-2.225 1.858-4.03 4.148-4.03h23.704C42.142 16 44 17.805 44 20.03v15.94c0 2.225-1.858 4.03-4.148 4.03H16.148C13.858 40 12 38.195 12 35.97V20.03zm4.148-3.056c-1.736 0-3.145 1.37-3.145 3.055v15.942c0 1.686 1.41 3.055 3.145 3.055h23.704c1.736 0 3.145-1.37 3.145-3.056V20.03c0-1.687-1.41-3.056-3.145-3.056H16.148z" fill="#fff"/><path d="M28 22.02a5.98 5.98 0 100 11.96 5.98 5.98 0 000-11.96zM21 28a7 7 0 1114 0 7 7 0 01-14 0z" fill="#fff"/><path d="M27.5 26c.296 0 .5.24.5.537V29h2.463c.297 0 .537.204.537.5 0 .296-.24.5-.537.5H27v-3.463c0-.297.204-.537.5-.537z" fill="#fff"/></svg>