<!-- by TradingView --><svg width="56" height="56" fill="none" xmlns="http://www.w3.org/2000/svg"><path fill="#F0F3FA" d="M0 0h56v56H0z"/><path fill-rule="evenodd" clip-rule="evenodd" d="M42 28c0 7.732-6.268 14-14 14a13.964 13.964 0 01-10.39-4.617c-.98.213-1.883.388-2.687.526-1.841.202-5.6-.017-5.906-2.505-.278-2.265 2.924-5.19 5-6.702A14.206 14.206 0 0114 28c0-7.732 6.268-14 14-14 3.932 0 7.485 1.62 10.028 4.23 9.804-1.572 9.647 2.405 8.335 4.6-1.137 1.602-2.639 3.075-4.383 4.421.013.248.02.498.02.749zM28 38c-2.12 0-4.085-.66-5.702-1.784a83.656 83.656 0 007.569-2.498l-1.82-3.423-.666.304c-2.194 1.026-8.152 3.197-14.44 3.674.993-.915 3.275-2.877 5.246-3.95l.08-.018A10.028 10.028 0 0118 28c0-5.523 4.477-10 10-10 4.668 0 8.59 3.199 9.691 7.524a41.146 41.146 0 01-3.693 2.063l-1.043.475 1 3.925a51.783 51.783 0 003.843-1.976C36.867 34.57 32.834 38 28 38zm13.118-14.902a13.927 13.927 0 00-.646-1.464c.833-.09 1.96-.203 2.534-.23-.359.384-.998.98-1.888 1.694z" fill="url(#paint0_linear_1530)"/><path fill-rule="evenodd" clip-rule="evenodd" d="M31 35a4 4 0 100-8 4 4 0 000 8zm0-2a2 2 0 100-4 2 2 0 000 4z" fill="url(#paint1_linear_1530)"/><defs><linearGradient id="paint0_linear_1530" x1="10.204" y1="36.421" x2="47.204" y2="20.148" gradientUnits="userSpaceOnUse"><stop stop-color="#04D9FF"/><stop offset=".782" stop-color="#445CFE"/><stop offset="1" stop-color="#7269EF"/></linearGradient><linearGradient id="paint1_linear_1530" x1="26.364" y1="33.56" x2="35.454" y2="29.427" gradientUnits="userSpaceOnUse"><stop stop-color="#05D5FF"/><stop offset="1" stop-color="#3A5EF4"/></linearGradient></defs></svg>