<!-- by TradingView --><svg width="56" height="56" fill="none" xmlns="http://www.w3.org/2000/svg"><path fill="#F0F3FA" d="M0 0h56v56H0z"/><path fill-rule="evenodd" clip-rule="evenodd" d="M33.76 17.816c-1.391-.983-2.124-2.955-1.15-4.353.82-1.177 2.364-1.657 3.603-.932C40.883 15.265 44 20.15 44 25.991c0 7.81-5.597 14.315-13 15.719v1.28a3 3 0 01-6 0v-1.28c-7.403-1.404-13-7.908-13-15.72 0-5.919 3.212-10.932 7.99-13.66 1.254-.715 2.799-.214 3.613.977.98 1.434.196 3.441-1.238 4.421A9.99 9.99 0 0018 25.991c0 4.477 2.943 8.268 7 9.542V32.99a3 3 0 116 0v2.542c4.057-1.274 7-5.065 7-9.542a9.988 9.988 0 00-4.24-8.175zM31 26a3 3 0 11-6 0 3 3 0 016 0z" fill="#17A84B"/><path fill-rule="evenodd" clip-rule="evenodd" d="M28 45.996a3 3 0 003-3V41.72c7.403-1.399 13-7.877 13-15.649a16.041 16.041 0 00-7.604-13.643c-1.322-.816-2.993-.265-3.84 1.037-.96 1.48-.167 3.492 1.27 4.518A9.922 9.922 0 0138 26.071c0 4.455-2.943 8.213-7 9.476V33a3 3 0 00-3-3v15.996zM28 29a3 3 0 100-6v6z" fill="#077FA2"/></svg>