<!-- by TradingView --><svg width="56" height="56" xmlns="http://www.w3.org/2000/svg"><path fill="#FFC04E" d="M0 0h56v56H0z"/><path d="M27.4 20H14.067l-3.95 16h4.35l3-13H22.8l-3.2 13h3.967L27.4 20zm-15.167 3H8l.783-3h4.234l-.784 3z" fill="#000"/><path fill-rule="evenodd" d="M34.8 20l-3.967 16h8.317c2.474 0 6.339-1.218 6.733-4h1.2l.384-2h-1.45s.133-2.008-2.9-2.392c0 0 2.633-.215 3.033-1.608h1.333L48 24h-1.45s.533-3.744-5.167-4H34.8zm5.617 6H37.05l.783-3h2.584c.876.006 1.672.385 1.761 1.273.102 1.017-.763 1.72-1.761 1.727zm-4.95 7h4.05c1.183 0 2.15-.94 2.15-2.029 0-1.09-.95-1.97-2.15-1.97h-3.084L35.467 33z" fill="#000"/><path d="M30.317 34.206l-3.434-7.848 1.45-6.102 3.434 7.48-1.45 6.47z" fill="#000"/></svg>