<!-- by TradingView --><svg width="56" height="56" fill="none" xmlns="http://www.w3.org/2000/svg"><path fill="url(#paint0_linear_1530)" d="M0 0h56v56H0z"/><path fill-rule="evenodd" clip-rule="evenodd" d="M18.37 19.58c2.133-2.914 8.355-8.123 16.172-5.656C42.36 16.392 44.772 23.596 45 26.89c-.476-2.45-2.9-7.58-8.785-8.506 3.19 2.327 8.76 8.983 5.515 16.99-3.246 8.006-9.927 9.749-12.862 9.62 2.374-.188 7.415-2.166 8.589-8.585-1.626 2.286-6.38 6.738-12.387 6.255-7.51-.604-13.12-5.694-14.07-12.77.388 2.244 2.659 6.912 8.632 7.636-2.403-1.48-7.035-6.324-6.345-13.847.864-9.404 9.625-12.554 13.51-12.683-2.669.423-8.09 2.73-8.427 8.58zM28 34a6 6 0 100-12 6 6 0 000 12z" fill="#92FFBE"/><defs><linearGradient id="paint0_linear_1530" x1="10.418" y1="9.712" x2="68.147" y2="76.017" gradientUnits="userSpaceOnUse"><stop stop-color="#1A1E21"/><stop offset="1" stop-color="#06060A"/></linearGradient></defs></svg>