<!-- by TradingView --><svg xmlns="http://www.w3.org/2000/svg" width="56" height="56"><path fill="#178DD0" d="M0 0h56v56H0z"/><path d="M16.47 15.16c-.47.55-.47 1.32-.47 2.85s0 2.29.47 2.84l.2.2c.54.48 1.32.54 2.88.65a121.49 121.49 0 0016.9 0c1.56-.11 2.34-.17 2.88-.65l.2-.2C40 20.3 40 19.54 40 18c0-1.53 0-2.3-.47-2.85a2.1 2.1 0 00-.2-.2c-.55-.48-1.34-.54-2.91-.65-2.2-.15-5.22-.31-8.42-.31s-6.21.16-8.42.3c-1.58.12-2.36.18-2.91.66a2.1 2.1 0 00-.2.2zm23.22 13.98c-.12-1-.17-1.51-.64-1.87-.46-.35-1-.3-2.05-.19-.48.05-1.03.11-1.67.2-.55.07-1.06.18-1.52.31-.93.27-1.4.4-2.1 1.31-.71.91-.71 1.64-.71 3.1v7.95c0 .96 0 1.45.32 1.75.31.3.82.3 1.84.3h2.69c1.68 0 2.51 0 3.13-.54.62-.54.69-1.29.83-2.78a46.26 46.26 0 00-.12-9.54zm-22.74-1.87c-.47.36-.52.86-.64 1.87a45.85 45.85 0 00-.12 9.54c.14 1.5.2 2.24.83 2.78.62.54 1.45.54 3.13.54h2.69c1.02 0 1.53 0 1.84-.3.32-.3.32-.79.32-1.75V32c0-1.47 0-2.2-.7-3.1-.72-.92-1.18-1.05-2.11-1.32-.46-.13-.97-.24-1.52-.32L19 27.08c-1.06-.1-1.59-.16-2.05.2z" fill="#fff"/></svg>