<!-- by TradingView --><svg width="56" height="56" viewBox="0 0 56 56" xmlns="http://www.w3.org/2000/svg"><path fill="url(#atiktl0nx)" d="M0 0h56v56H0z"/><path d="M41 27.58v-3.1c0-.16.05-.48.5-.48s.5.32.5.48c-.01.85-.02 2.38 0 2.84.02.46.57.64.78.68 1.94 0 5.96.03 6.46 0 .5-.04.76-.47.76-.68v-2.84c0-.24.18-.48.51-.48.31 0 .49.25.49.48v2.98A1.54 1.54 0 0 1 49.53 29H46.5v4.6c0 .16-.12.4-.5.4-.34 0-.5-.19-.5-.4V29h-2.96c-1.15 0-1.5-.91-1.54-1.42ZM37.26 24h-6.58c-1.3 0-1.66 1.15-1.67 1.72 0 1.7-.02 5.37 0 6.45.01 1.08 1.1 1.83 1.67 1.83h6.58c1.3 0 1.74-1.17 1.74-1.83v-6.45c0-1.25-1-1.72-1.74-1.72Z" fill="#82DEFF"/><path d="M36.94 25h-5.76c-1.05 0-1.16.53-1.17.99 0 1.36-.02 5.12 0 5.98 0 .86.62 1.03 1.08 1.03h5.77c1.04 0 1.14-.57 1.14-1.1v-5.65c0-1-.48-1.25-1.06-1.25Z" fill="#111317"/><path d="M17 25.33v8.11c0 .32.12.56.5.56.43 0 .5-.33.5-.56v-7.76c0-.47.32-.69.45-.68h6.72c.58 0 .83.49.83.61 0 .6.02 1.29 0 1.77-.02.5-.5.64-.63.62h-2.99c-.15 0-.51.02-.68.29-.17.27-.02.59.08.71L26 33.7c.2.2.67.44.9.1.24-.33-.07-.63-.26-.84L23.2 29h2.4A1.48 1.48 0 0 0 27 27.71v-2.2c-.03-1.18-1.03-1.5-1.51-1.51h-7.04c-1.07 0-1.5.86-1.44 1.33ZM14.37 24H4.51c-.15 0-.51.1-.51.51 0 .32.34.45.51.49H9v8.55c0 .2.19.45.5.45.32 0 .5-.21.5-.45V25h4.37c.21.01.63-.02.63-.47 0-.44-.42-.52-.63-.53Z" fill="#82DEFF"/><defs><linearGradient id="atiktl0nx" x1="10.42" y1="9.71" x2="68.15" y2="76.02" gradientUnits="userSpaceOnUse"><stop stop-color="#1A1E21"/><stop offset="1" stop-color="#06060A"/></linearGradient></defs></svg>