<!-- by TradingView --><svg width="56" height="56" viewBox="0 0 56 56" xmlns="http://www.w3.org/2000/svg"><path fill="url(#aftkm4smy)" d="M0 0h56v56H0z"/><path d="M30.22 43.75c-.34.57-.68 1.25-1.47 1.25-.68 0-1.24-.68-1.58-1.25L13.8 19.2c-.33-.68-.67-1.36-.79-2.15-.11-1.25.57-2.05 1.81-2.05H24c1.24 0 2.15.57 2.83 1.82 1.47 2.95 2.49 5.45 4.41 8.18 4.53 5.11 8.95 0 10.76-2.05l-11.78 20.8Z" fill="#30FFE0"/><defs><linearGradient id="aftkm4smy" x1="10.42" y1="9.71" x2="68.15" y2="76.02" gradientUnits="userSpaceOnUse"><stop stop-color="#1A1E21"/><stop offset="1" stop-color="#06060A"/></linearGradient></defs></svg>