<!-- by TradingView --><svg width="56" height="56" fill="none" xmlns="http://www.w3.org/2000/svg"><path fill="#3274C0" d="M0 0h56v56H0z"/><path fill-rule="evenodd" clip-rule="evenodd" d="M14 17.254c.024 6.139.074 16.513 2.475 19.624 2.591 3.358 6.24 5.372 8.734 6.747.822.453 1.518.838 2.01 1.178.355.246.875.27 1.23.024.69-.478 1.677-1.03 2.787-1.652 2.875-1.61 6.569-3.678 8.018-6.086 2.165-3.597 2.59-13.436 2.746-19.739.016-.66-.537-1.188-1.194-1.184-5.2.028-9.771-1.9-12.041-3.826-.5-.425-1.262-.464-1.769-.047-3.831 3.158-8.494 3.731-11.874 3.817A1.146 1.146 0 0014 17.253zm3.5 2.163c.024 4.344.441 13.59 1.92 15.823 1.183 1.787 4.005 3.233 6.1 4.308 1.178.603 2.126 1.089 2.426 1.452.473-.442 1.463-.974 2.62-1.595 2.057-1.104 4.642-2.493 5.787-4.165 1.297-1.895 2.048-11.28 2.147-15.823-4.818.311-9.043-2.148-10.554-3.417-3.053 2.565-8.236 3.347-10.446 3.417z" fill="#fff"/></svg>