<!-- by TradingView --><svg width="56" height="56" viewBox="0 0 56 56" xmlns="http://www.w3.org/2000/svg"><path fill="#F0F3FA" d="M0 0h56v56H0z"/><path fill-rule="evenodd" d="M28 40c7.73 0 14-6.36 14-14s-6.27-14-14-14a13.93 13.93 0 0 0-13.97 12.98H14v18.15c0 .3.3.87 1 .87 1.26.02 7-.71 7-6V27c0-4.32 4.31-5 6.5-5 2.08 0 6.5 1.1 6.5 5s-3.94 4.46-4.38 4.46c-.13 0-.4-.06-.73-.14-.56-.13-1.3-.3-1.89-.3a4.12 4.12 0 0 0-4 3.23V39c1 .67 2.8 1 4 1Zm.03-22.77c.17 1.36-.68 2.57-1.91 2.7-1.23.14-2.37-.85-2.55-2.21-.17-1.36.68-2.57 1.91-2.7 1.23-.14 2.37.85 2.55 2.21Zm-4.66 2.5c.6 1.26.19 2.65-.94 3.12-1.13.46-2.54-.17-3.15-1.42-.61-1.25-.19-2.64.94-3.1 1.13-.48 2.54.16 3.15 1.4Zm11.2 3.12c-1.13-.47-1.55-1.86-.94-3.11.6-1.25 2.02-1.89 3.15-1.42s1.55 1.86.94 3.11c-.6 1.25-2.02 1.88-3.15 1.42Zm-5.6-5.62c-.17 1.36.69 2.57 1.92 2.7 1.23.14 2.37-.85 2.54-2.21.18-1.36-.68-2.57-1.91-2.7-1.23-.14-2.37.85-2.54 2.21Z" fill="#FF6434"/></svg>