<!-- by TradingView --><svg width="56" height="56" viewBox="0 0 56 56" xmlns="http://www.w3.org/2000/svg"><path fill="url(#a)" d="M0 0h56v56H0z"/><path d="M40 31.27a8.8 8.8 0 0 1-5.34 8.18 8.81 8.81 0 0 1-3.39.68h-.04a8.87 8.87 0 0 1-7.87-4.86 8.9 8.9 0 0 1-.96-4v-6.54a2.32 2.32 0 0 1 3.23-2.15c.28.12.54.3.75.5.44.45.62 1.03.62 1.65v6.54a4.29 4.29 0 0 0 5.87 3.87 4.19 4.19 0 0 0 2.6-3.87V18.2a2.32 2.32 0 0 1 2.78-2.28c1.08.21 1.75 1.19 1.75 2.28v13.07Zm-18.23-9.5a4.18 4.18 0 0 0-1.24 2.96V37.8a2.31 2.31 0 0 1-.68 1.64C18.39 40.9 16 39.76 16 37.8V24.74c0-2.13.64-4.18 2.03-5.8a8.87 8.87 0 0 1 13.26-.17v-.02l.02.05a8.85 8.85 0 0 1 1.9 3.36l.04.12c.23.8.35 1.63.35 2.45v6.54a2.33 2.33 0 0 1-2.3 2.32h-.04c-.14 0-.3-.01-.44-.04A2.34 2.34 0 0 1 29 31.27v-5.92c0-1.93-.73-3.72-2.65-4.5a4.18 4.18 0 0 0-4.58.92ZM37.8 14a4.18 4.18 0 0 0-4.2 4.2v.47A10.75 10.75 0 0 0 14 24.73V37.8a4.17 4.17 0 0 0 4.2 4.2 4.18 4.18 0 0 0 4.2-4.2v-.47a10.75 10.75 0 0 0 12.45 4.06A10.83 10.83 0 0 0 42 31.27V18.2c0-2.28-1.92-4.2-4.2-4.2Z" fill="url(#b)"/><defs><linearGradient id="a" x1="10.42" y1="9.71" x2="68.15" y2="76.02" gradientUnits="userSpaceOnUse"><stop stop-color="#1A1E21"/><stop offset="1" stop-color="#06060A"/></linearGradient><linearGradient id="b" x1="12.76" y1="41.79" x2="41.84" y2="10.65" gradientUnits="userSpaceOnUse"><stop offset=".05" stop-color="#fff"/><stop offset=".38" stop-color="#A7B3FF"/><stop offset="1" stop-color="#74A4FF"/></linearGradient></defs></svg>