<!-- by TradingView --><svg width="56" height="56" viewBox="0 0 56 56" xmlns="http://www.w3.org/2000/svg"><path fill="url(#a)" d="M0 0h56v56H0z"/><path fill-rule="evenodd" d="M37.93 39.24a7.6 7.6 0 0 0 1.88-3.57 7.6 7.6 0 0 0-1.78-6.88c-1.14-1.3-3.04-2.55-5.7-3.76-2.3-1.04-3.7-1.68-4.19-1.92a8.4 8.4 0 0 1-2.37-1.79c-.84-.88-1.07-1.84-.71-2.88.54-1.56 1.7-2.4 3.48-2.5a7.9 7.9 0 0 1 4.35 1.08 6.27 6.27 0 0 1 3.24 4.18c.03.13.11.2.25.2h2.83c.1 0 .13-.05.12-.14a8.6 8.6 0 0 0-4.52-6.53c-2.55-1.46-5.62-2-9.2-1.6-2.18.23-4.13.95-5.85 2.14a7.64 7.64 0 0 0-3.5 6.19 8 8 0 0 0 .69 3.83 8.34 8.34 0 0 0 2.25 2.73c.97.82 2 1.48 3.13 2 1.48.67 3.02 1.36 4.63 2.06 1.14.5 2.17 1.12 3.08 1.85.55.45.91.98 1.08 1.58.13.49.15 1.12.07 1.9-.08.74-.53 1.4-1.34 1.97-.98.69-2.43.87-4.34.56a8.17 8.17 0 0 1-4.22-1.97 6.36 6.36 0 0 1-2.14-3.99c0-.09-.06-.13-.16-.13h-2.88c-.07 0-.11.03-.11.1.01 1.27.34 2.49.99 3.66A9.42 9.42 0 0 0 20.2 41c1.33.85 2.81 1.42 4.47 1.7 3.51.62 6.8.27 9.9-1.06a9.55 9.55 0 0 0 3.35-2.4ZM21.95 21.08c-.05-.34-.06-.88-.04-1.62a6.18 6.18 0 0 1 1.02-2.63c.12-.22.06-.27-.17-.17a5.37 5.37 0 0 0-3.23 4.01c-.4 2.03.26 3.77 1.96 5.23.65.56 1.5 1.1 2.53 1.65a47.66 47.66 0 0 0 3.41 1.55c1.5.66 2.73 1.27 3.68 1.81a8.15 8.15 0 0 1 2.15 1.78 4.67 4.67 0 0 1 1.16 2.96 5.4 5.4 0 0 1-.86 3.07c-.06.09-.08.17-.08.23 0 .04.03.07.07.1.04.02.08.02.12 0a5.47 5.47 0 0 0 2.97-3.82 4.76 4.76 0 0 0-.36-3.38 7.52 7.52 0 0 0-3-3.03c-1.18-.7-2.44-1.3-3.78-1.84a34.97 34.97 0 0 1-4.13-1.9 9.1 9.1 0 0 1-2.2-1.7 4.34 4.34 0 0 1-1.22-2.3Z" fill="#fff"/><defs><linearGradient id="a" x1="28" y1="0" x2="28" y2="56" gradientUnits="userSpaceOnUse"><stop stop-color="#FF8D5A"/><stop offset="1" stop-color="#FFC33B"/></linearGradient></defs></svg>