<!-- by TradingView --><svg width="56" height="56" viewBox="0 0 56 56" xmlns="http://www.w3.org/2000/svg"><path fill="#151C4B" d="M0 0h56v56H0z"/><path d="m15.03 34.82 2.89-20.83c.1-.76.8-.94 1.13-.93.98-.02 3.16-.04 4.07 0 .91.03.98.64.9.93l-2.74 20.83c-.18 1.32 1.01 4.08 4.87 4.08 3.87 0 5.5-3.32 5.83-4.97.34-2.55 1.03-7.57 1.14-8.58.11-1.01.68-1.3.95-1.35h4.5c.87.04.9.9.8 1.35l-1.47 9.47c-1.7 8.48-9.05 10.31-12.5 10.17-8.94-.52-10.64-7-10.37-10.17ZM39.98 13h-4.26c-.55 0-.8.4-.85.59-.17 1.09-.65 3.97-.8 5.02-.16 1.05.56 1.39.95 1.39h4.03c.8 0 1.11-.46 1.15-.67.15-.96.59-3.63.77-4.86.19-1.23-.58-1.5-.99-1.47Z" fill="#fff"/></svg>