<!-- by TradingView --><svg width="56" height="56" fill="none" xmlns="http://www.w3.org/2000/svg"><path fill="#DB2264" d="M0 0h56v56H0z"/><path d="M29.26 42c-1.563-.037-2.94-.557-4.058-1.672-4.133-4.162-8.304-8.287-12.474-12.45-3.09-3.084-1.862-8.286 2.308-9.587 2.197-.669 4.208-.186 5.847 1.45 4.133 4.087 8.192 8.175 12.288 12.263 1.117 1.114 1.75 2.452 1.824 4.05.112 2.639-1.787 5.128-4.394 5.723-.41.111-.893.149-1.34.223zM39.535 18A5.444 5.444 0 0145 23.464c0 3.052-2.413 5.5-5.465 5.536-3.016.035-5.5-2.484-5.535-5.5.035-3.052 2.484-5.5 5.535-5.5z" fill="#fff"/></svg>