<!-- by TradingView --><svg width="56" height="56" viewBox="0 0 56 56" xmlns="http://www.w3.org/2000/svg"><path fill="#F0F3FA" d="M0 0h56v56H0z"/><path d="m23.8 20.6-7.07-5.03c-2.48-1.76-5.73.86-4.44 3.57C15.51 25.87 19.37 34 20.76 37l4.74-9.97a5.15 5.15 0 0 0-1.7-6.43Z" fill="url(#augcoxqsj)"/><path d="m40.75 13.7 4.76 10.1a5.08 5.08 0 0 1-1.7 6.35L24.29 43.73c-1.21.85-2.77-.45-2.15-1.8L35.38 13.7a2.97 2.97 0 0 1 5.37 0Z" fill="url(#bugcoxqsj)"/><defs><linearGradient id="augcoxqsj" x1="15.06" y1="27.37" x2="24.9" y2="21.55" gradientUnits="userSpaceOnUse"><stop stop-color="#00BEFF"/><stop offset="1" stop-color="#00FF95"/></linearGradient><linearGradient id="bugcoxqsj" x1="17.63" y1="35.41" x2="44.36" y2="19.89" gradientUnits="userSpaceOnUse"><stop stop-color="#00BEFF"/><stop offset="1" stop-color="#00FF95"/></linearGradient></defs></svg>