<!-- by TradingView --><svg width="56" height="56" viewBox="0 0 56 56" xmlns="http://www.w3.org/2000/svg"><path fill="url(#akzfm0cub)" d="M0 0h56v56H0z"/><path d="M25.25 35.55 26.35 21c-3.3 0-7.67 3.03-9.35 4.55v7.5C18.1 39.4 24.8 44.33 28 46v-5.23c-.92-.54-2.75-3.86-2.75-5.22Z" fill="#fff"/><path d="M30.75 35.55 29.65 21c3.3 0 7.67 3.03 9.35 4.55v7.5C37.9 39.4 31.2 44.33 28 46v-5.23c.92-.54 2.75-3.86 2.75-5.22Z" fill="#D1D1D1"/><path d="M28 17.56 22 20l-1-1c1.17-.6 3.76-1.76 4.81-2.11 1.05-.36 1.19-3.06 1.19-4.39-.35-.36-.5-.78-.5-1 0-1.07 1.06-1.5 1.5-1.5v7.56Z" fill="#F5C700"/><path d="M28 17.56 34 20l1-1a54.06 54.06 0 0 0-4.81-2.11C29.14 16.53 29 13.83 29 12.5c.35-.36.5-.78.5-1 0-1.07-1.06-1.5-1.5-1.5v7.56Z" fill="#EFBB1E"/><defs><linearGradient id="akzfm0cub" x1="28" y1="0" x2="28" y2="56" gradientUnits="userSpaceOnUse"><stop stop-color="#0E2C5E"/><stop offset="1" stop-color="#16448F"/></linearGradient></defs></svg>