<!-- by TradingView --><svg width="56" height="56" xmlns="http://www.w3.org/2000/svg"><path fill="#FF8836" d="M0 0h56v56H0z"/><path d="M10.297 17h10.31c.06 0 .105 0 .15.047a.27.27 0 01.12.109l12.547 20.831a.32.32 0 010 .36l-5.133 8.497a.32.32 0 01-.115.115.306.306 0 01-.31 0 .32.32 0 01-.115-.115L10.042 17.5a.338.338 0 010-.327.324.324 0 01.105-.125.306.306 0 01.15-.047zm21.611 0H45.7c.06 0 .105.016.15.047a.31.31 0 01.105.125c.028.046.044.1.045.155 0 .078 0 .125-.045.172l-6.888 11.445a.321.321 0 01-.116.115.306.306 0 01-.31 0 .321.321 0 01-.115-.115l-6.903-11.445a.337.337 0 01.27-.499h.015z" fill="#fff"/></svg>