<!-- by TradingView --><svg width="56" height="56" viewBox="0 0 56 56" xmlns="http://www.w3.org/2000/svg"><path fill="#F0F3FA" d="M0 0h56v56H0z"/><path d="m18 23.66 2.47-2.48 6.22 6.22a.7.7 0 0 1 0 1l-6.22 6.22L18 32.14l4.24-4.24L18 23.66ZM27.9 28.9a.7.7 0 0 0-.5.2l-6.22 6.22 2.48 2.48 4.24-4.24 4.24 4.24 2.48-2.48-6.22-6.21a.7.7 0 0 0-.5-.21ZM28.9 27.9c0 .19.07.37.2.5l6.22 6.22 2.48-2.48-4.24-4.24 4.24-4.24-2.48-2.48-6.21 6.22a.7.7 0 0 0-.21.5ZM27.9 26.9a.7.7 0 0 0 .5-.2l6.22-6.23L32.14 18l-4.24 4.24L23.66 18l-2.48 2.47 6.22 6.22c.13.13.31.2.5.2Z"/><path fill-rule="evenodd" d="M28 44a16 16 0 1 0 0-32 16 16 0 0 0 0 32Zm0 1a17 17 0 1 0 0-34 17 17 0 0 0 0 34Z" fill="#CED2DB"/></svg>