<!-- by TradingView --><svg width="56" height="56" viewBox="0 0 56 56" xmlns="http://www.w3.org/2000/svg"><path fill="url(#a145rqan3)" d="M0 0h56v56H0z"/><path d="M39.68 40.36A16.94 16.94 0 0 1 28 45c-4.45 0-8.5-1.7-11.52-4.5l1.41-1.42A14.95 14.95 0 0 0 28 43c3.97 0 7.58-1.54 10.26-4.06l1.42 1.42Zm1.23-1.3A16.93 16.93 0 0 0 45 28c0-4.44-1.7-8.49-4.5-11.52L39.1 17.9A14.95 14.95 0 0 1 43 28c0 3.67-1.32 7.04-3.51 9.64l1.42 1.42ZM18.36 16.51C20.96 14.32 24.33 13 28 13c3.75 0 7.18 1.38 9.8 3.65l1.43-1.42C36.23 12.6 32.3 11 28 11c-4.22 0-8.09 1.54-11.06 4.1l1.42 1.41Zm-1.3 1.23-1.42-1.42A16.94 16.94 0 0 0 11 28c0 4.3 1.6 8.23 4.23 11.22l1.42-1.42A14.94 14.94 0 0 1 13 28c0-3.97 1.54-7.58 4.06-10.26Z" fill="#fff"/><path d="M28 25.02 21 28c2.33-3.6 7-10.82 7-11v8.02Z" fill="#868686"/><path d="M28 25.02 35 28c-2.34-3.6-7-10.82-7-11v8.02Z" fill="#312706"/><path d="m28 32-7-4 7-3v7Z" fill="#363636"/><path d="m28 32 7-4-7-3v7Z" fill="#130F03"/><path d="m28 33.45-7-3.95 7 9.5v-5.55Z" fill="#868686"/><path d="m28 33.45 7-3.95-7 9.5v-5.55Z" fill="#312807"/><defs><linearGradient id="a145rqan3" x1="0" y1="28" x2="56" y2="28" gradientUnits="userSpaceOnUse"><stop stop-color="#F8D33A"/><stop offset="1" stop-color="#F0BA0C"/></linearGradient></defs></svg>