<!-- by TradingView --><svg width="56" height="56" viewBox="0 0 56 56" xmlns="http://www.w3.org/2000/svg"><path fill="#F0F3FA" d="M0 0h56v56H0z"/><path d="M18.52 17.7a13.97 13.97 0 0 1 18.95 0l-.75.78-.29.3a12.47 12.47 0 0 0-16.87 0l-.28-.3-.76-.78Zm19.78.8v.02l-.77.74-.3.3a12.48 12.48 0 0 1-.01 16.86l.3.29.78.75a13.97 13.97 0 0 0 0-18.96Zm-20.6.04a13.97 13.97 0 0 0 0 18.96c.27-.28.53-.52.78-.76l.3-.29a12.48 12.48 0 0 1 0-16.87l-.3-.29-.78-.75Zm1.87 18.67-.29.3-.75.79a13.97 13.97 0 0 0 18.95 0l-.76-.78-.28-.3a12.47 12.47 0 0 1-16.87 0Z" fill="#83808B"/><path d="M30.5 25.5c0 1.13-1 1.5-2 1.5H27v-3h2c.77 0 1.5.56 1.5 1.5Zm.88 5.06C31.38 31.79 30 32 29 32h-2v-3h2c.9 0 2.38.36 2.38 1.56Zm2.17-5.48C33.37 23.25 32 22.18 30 22v-3h-2v2.98c-.4 0-.58 0-1 .02v-3h-2v3h-3v2h1.12c.38 0 .88 0 .88.8v6.69c0 .01 0 .51-.58.51h-1.11L22 34h3v3h2l-.01-3H28v3h2v-3c2.61-.16 4.21-.7 4.44-3.14.18-1.96-.74-2.83-2.22-3.19.9-.45 1.46-1.25 1.33-2.6Z" fill="#F09242"/><path fill-rule="evenodd" d="M11 28a17 17 0 0 0 17 17 17 17 0 1 0-17-17Zm1.5 0A15.5 15.5 0 0 0 28 43.5 15.5 15.5 0 1 0 12.5 28Z" fill="#282138"/></svg>