<!-- by TradingView --><svg width="56" height="56" viewBox="0 0 56 56" xmlns="http://www.w3.org/2000/svg"><path fill="#F0F3FA" d="M0 0h56v56H0z"/><path d="M28.02 44.97a16.98 16.98 0 1 0 0-33.96 16.98 16.98 0 0 0 0 33.96Z" fill="url(#aietzwhlp)"/><path d="M29.66 23.6a2.06 2.06 0 0 0-3.56.47L23 31.72l-2.71-5.11a2.06 2.06 0 0 0-3.65 1.92l4.78 9.03a2.06 2.06 0 0 0 1.82 1.1h.1a2.06 2.06 0 0 0 1.81-1.29l3.41-8.39 2.59 3.4a2.06 2.06 0 0 0 3.55-.46l6.12-15.08a17.03 17.03 0 0 0-3.27-2.9L32.25 27l-2.6-3.4Z" fill="#F0F3FA"/><defs><linearGradient id="aietzwhlp" x1="11.03" y1="27.99" x2="45" y2="27.99" gradientUnits="userSpaceOnUse"><stop stop-color="#E9C570"/><stop offset="1" stop-color="#F7B839"/></linearGradient></defs></svg>