<!-- by TradingView --><svg width="56" height="56" xmlns="http://www.w3.org/2000/svg"><path fill="url(#paint0_linear)" d="M0 0h56v56H0z"/><path d="M33.238 26.065l-2.956 5.315-2.957 5.316L24.365 42l-2.957-5.311 2.956-5.316 2.96-5.311L22.834 18h5.912l1.536 2.753 2.956 5.312zM16.917 18H11l7.448 13.376 2.96-5.311L16.917 18zm25.127 2.753L40.509 18h-5.913l4.492 8.065-2.961 5.315-2.956 5.316L36.127 42l2.96-5.311 2.957-5.316L45 26.062l-2.956-5.31z" fill="#fff"/><defs><linearGradient id="paint0_linear" x1="10.418" y1="9.712" x2="68.147" y2="76.017" gradientUnits="userSpaceOnUse"><stop stop-color="#1A1E21"/><stop offset="1" stop-color="#06060A"/></linearGradient></defs></svg>