<!-- by TradingView --><svg width="56" height="56" viewBox="0 0 56 56" xmlns="http://www.w3.org/2000/svg"><path fill="#002332" d="M0 0h56v56H0z"/><path d="M36 15.5a3.5 3.5 0 1 1-7 0 3.5 3.5 0 0 1 7 0Zm-5.47 6.06a2.62 2.62 0 0 0 3.72 0l3.32-3.35a3.16 3.16 0 0 1 4.5 0 3.22 3.22 0 0 1 0 4.53l-7.75 7.8a2.66 2.66 0 0 0 0 3.75l3.22 3.24a3.22 3.22 0 0 1 0 4.53 3.16 3.16 0 0 1-4.5 0l-7.57-7.62a2.62 2.62 0 0 0-3.72 0l-3.32 3.35a3.16 3.16 0 0 1-4.5 0 3.22 3.22 0 0 1 0-4.53l7.75-7.8a2.66 2.66 0 0 0 0-3.75l-3.22-3.24a3.22 3.22 0 0 1 0-4.53 3.16 3.16 0 0 1 4.5 0l7.57 7.62ZM28 31.5a3.5 3.5 0 1 0 0-7 3.5 3.5 0 0 0 0 7ZM40.5 36a3.5 3.5 0 1 0 0-7 3.5 3.5 0 0 0 0 7ZM27 41.5a3.5 3.5 0 1 1-7 0 3.5 3.5 0 0 1 7 0ZM15.5 27.12a3.5 3.5 0 1 0 0-7 3.5 3.5 0 0 0 0 7Z" fill="#0AB682"/></svg>