<!-- by TradingView --><svg width="56" height="56" xmlns="http://www.w3.org/2000/svg"><path fill="#1EAB89" d="M0 0h56v56H0z"/><path fill-rule="evenodd" d="M30.952 21.438a5.203 5.203 0 002.165-4.227A5.214 5.214 0 0027.9 12a5.214 5.214 0 00-5.216 5.211c0 1.835.95 3.449 2.384 4.378l.01.023a2.524 2.524 0 11-3.36 3.737l-.03-.015a5.374 5.374 0 00-.037-.06 2.53 2.53 0 01-.294-.426 5.209 5.209 0 00-4.142-2.044A5.214 5.214 0 0012 28.015a5.214 5.214 0 005.216 5.212 5.212 5.212 0 004.357-2.347l.048-.017a2.524 2.524 0 112.87 3.975v.008a5.197 5.197 0 00-1.806 3.943A5.213 5.213 0 0027.9 44a5.214 5.214 0 005.216-5.211c0-1.848-.963-3.47-2.414-4.396l.024-.005-.003-.014a2.59 2.59 0 113.615-3.596l.026.007a5.213 5.213 0 004.42 2.442A5.214 5.214 0 0044 28.015a5.214 5.214 0 00-5.216-5.211 5.209 5.209 0 00-4.136 2.036 2.59 2.59 0 01-2.283 1.363 2.59 2.59 0 01-1.419-4.755l.006-.01zm-.05-4.227a3 3 0 01-3.001 3 3 3 0 01-3.002-3 3 3 0 013.002-2.999 3 3 0 013.001 3zm7.882 13.803a3 3 0 003.002-2.999 3 3 0 00-3.002-2.999 3 3 0 00-3.002 3 3 3 0 003.002 2.998zm-18.566-2.999a3 3 0 01-3.002 3 3 3 0 01-3.002-3 3 3 0 013.002-2.999 3 3 0 013.002 3zM27.9 41.788a3 3 0 003.001-3 3 3 0 00-3.001-2.999 3 3 0 00-3.002 3 3 3 0 003.002 2.999zm2.215-24.577a2.214 2.214 0 11-4.432-.002 2.214 2.214 0 014.432.002zM27.9 41.001a2.214 2.214 0 10-2.215-2.212c0 1.222.991 2.212 2.215 2.212zm13.098-12.986a2.214 2.214 0 11-4.428-.002 2.214 2.214 0 014.428.002zm-23.783 2.213a2.214 2.214 0 10.002-4.428 2.214 2.214 0 00-.002 4.428z" fill="#fff"/></svg>