<!-- by TradingView --><svg width="56" height="56" xmlns="http://www.w3.org/2000/svg"><path fill="#F0F3FA" d="M0 0h56v56H0z"/><path d="M10.751 19.132a1 1 0 00-.751.969v14.106a1 1 0 001.249.969L15 34.213v-9.37a1 1 0 01.758-.971L19 23.065v-4.761a1 1 0 00-1.249-.969l-7 1.797zM23.743 18.872a1 1 0 00-.743.966v14.698a1 1 0 001.257.966l4.704-1.252v-9.488a1 1 0 01.758-.97L32 23.222v-5.248a1 1 0 00-1.257-.966l-7 1.863z" fill="#8200FF"/><path d="M37 20.1a1 1 0 01.751-.968l7-1.797a1 1 0 011.249.969V32.41a1 1 0 01-.751.969l-7 1.797A1 1 0 0137 34.207V20.101z" fill="#8200FF"/><path d="M36 23.56l-5.249 1.348a1 1 0 00-.751.968v14.107a1 1 0 001.249.968l7-1.797a1 1 0 00.751-.968v-1.804l-1.758.438A1 1 0 0136 35.85V23.56zM22 23.56l-5.249 1.348a1 1 0 00-.751.968v14.107a1 1 0 001.249.968l7-1.797a1 1 0 00.751-.968v-1.79l-1.763.43A1 1 0 0122 35.855V23.56z" fill="#00FFDA"/></svg>