<!-- by TradingView --><svg width="56" height="56" xmlns="http://www.w3.org/2000/svg"><path fill="url(#paint0_linear)" d="M0 0h56v56H0z"/><ellipse cx="28" cy="29" rx="11" ry="2" fill="#fff"/><path fill-rule="evenodd" d="M40.514 13H15.43L8 29.305 28 49l20-19.695L40.514 13zM30 31.959c5.677-.238 10.004-1.472 10.004-2.959 0-1.657-5.373-3-12-3s-12 1.343-12 3c0 1.486 4.323 2.72 9.996 2.958V41h4v-9.041z" fill="#fff"/><path d="M37 19H19v4h7v7h4v-7h7v-4z" fill="#DDA85B"/><defs><linearGradient id="paint0_linear" x1="28" y1="0" x2="28" y2="56" gradientUnits="userSpaceOnUse"><stop stop-color="#D29C55"/><stop offset="1" stop-color="#E9B662"/></linearGradient></defs></svg>