<!-- by TradingView --><svg width="56" height="56" viewBox="0 0 56 56" xmlns="http://www.w3.org/2000/svg"><path fill="#06250B" d="M0 0h56v56H0z"/><path d="M32 23h4v12h-4V23ZM26.04 23c-.86 0-2.72.05-4.04 1.09v-5.1h-4v7.51c.4.18 1.28.39 1.7.62l.35.2.17.1s-2.34 3.54-5.52 4.28c-1.89.44-4.1-.1-4.56-1.93l-.04-.22a13.33 13.33 0 0 1 2.52-1.14l.06-.02c1.86-.66 3.42-.88 3.42-.88a13.4 13.4 0 0 0-3.66.17h-.02c-.92.18-1.68.44-2.27.7a4 4 0 0 1 3.29-2.86l.1-.02.3-.03h.1l.37-.02h.08l.31.02h.12l.1.02c.6.06 1.26.21 2.08.48v-2.59c-.4-.12-.72-.23-1.16-.34-1.15-.3-3.13-.61-5.3-.1-3.47.82-4.46 3.32-4.46 6.36 0 .4.03.76.1 1.1-.76.48-1.5 1.04-2.18 1.68l2.33-1c.88 2.92 3.97 3.9 6.3 3.9 2.42 0 3.52-.67 5.37-1.79V35h4v-7.46c0-.87 1.6-1.38 2.34-1.38.97 0 1.66.66 1.66 1.73V35h4v-8.26c0-2.47-1.6-3.74-3.96-3.74ZM34 18c-1.17 0-2 .83-2 2s.83 2 2 2 2-.83 2-2-.83-2-2-2ZM49 28v-5h-4v1.08c-3.89-2.46-6.12.07-6.12.07C37.68 25.2 37 26.9 37 29.02c0 3.75 2.3 5.98 5.27 5.98 1.12 0 2.15-.25 3.04-1.46.1.29.33 1.22.49 1.46H50c-.72-1.16-1.02-5.82-1-7Zm-5.79 3.75c-1.3 0-2.23-1.12-2.23-2.7s.93-2.7 2.23-2.7c.92 0 1.44.55 1.79 1.42v2.56c-.35.87-.87 1.42-1.79 1.42Z" fill="#3AAC59"/></svg>