<!-- by TradingView --><svg width="56" height="56" viewBox="0 0 56 56" xmlns="http://www.w3.org/2000/svg"><path fill="#F0F3FA" d="M0 0h56v56H0z"/><path d="M43.96 26.45C40.28 5.18 12.5 9.3 12 26.45l2.62 1.35s-.85.5-2.62 1.66c3.22 20.88 30.55 17.84 32-.03a241.69 241.69 0 0 0-2.69-1.63l2.65-1.35Zm-13.7 7.44-2.61-4.5-2.62 4.5-2.02-.15 3.79-6.37-3.4-5.48 2.05-.18 2.4 4.07 2.42-3.9 1.9.04-3.14 5.42 3.5 6.48-2.26.07Z" fill="#B8B5B1"/><path d="M42.65 25.6c-4.99-18.9-27.82-13.8-29.38 0l3.9 2.2-3.9 2.48c3.4 18.19 28.04 14.68 29.38-.04-2.47-1.56-3.96-2.48-3.96-2.48s3.36-1.8 3.96-2.16Zm-12.38 8.32-2.62-4.5-2.66 4.5-2.02-.14 3.8-6.37-3.4-5.49 2.05-.17 2.4 4.07 2.41-3.9 1.91.04L29 27.37l3.54 6.48-2.26.07Z" fill="#254C82"/></svg>