<!-- by TradingView --><svg xmlns="http://www.w3.org/2000/svg" width="56" height="56"><path fill="url(#a5jpleanj)" d="M0 0h56v56H0z"/><path d="M20.71 22.88c2.08-1.18 4.18-2.42 6.26-3.6a2 2 0 012.02 0l3.1 1.67a.27.27 0 01.12.23.27.27 0 01-.13.23l-7.75 4.28a.61.61 0 00-.22.22c-.06.1-.11.2-.11.31v3.59c0 .1.05.2.1.3.06.09.14.16.23.21l3.35 1.79a.57.57 0 00.6 0l13.06-7.38c2.21-1.26 2.21-4.89 0-6.15L29.6 11.94a3.17 3.17 0 00-3.25 0l-11.73 6.64A3.18 3.18 0 0013 21.35c0 4.43.02 8.87 0 13.3a3.11 3.11 0 001.63 2.76l11.73 6.66a3.28 3.28 0 003.25 0l11.73-6.66a3.14 3.14 0 001.61-2.77v-5.77l-13.96 7.86a2 2 0 01-1.01.27 2 2 0 01-1.01-.27l-6.02-3.48a1.95 1.95 0 01-.75-.72c-.17-.3-.2-.64-.2-1v-6.95c0-.94.2-1.41.71-1.7z" fill="#fff"/><defs><linearGradient id="a5jpleanj" x1="8.97" y1="4.49" x2="40.39" y2="51.21" gradientUnits="userSpaceOnUse"><stop stop-color="#1355AE"/><stop offset="1" stop-color="#009DDD"/></linearGradient></defs></svg>