<!-- by TradingView --><svg width="56" height="56" xmlns="http://www.w3.org/2000/svg"><path fill="#F0F3FA" d="M0 0h56v56H0z"/><path d="M37.616 38.11a9.44 9.44 0 00-1.168-4.64c-1.87-3.445-6.408-4.485-7.136-8.704a7.232 7.232 0 015.408-8.352c3.23-.788 6.548 1.003 9.28 2.544-.028 6.936-2.444 13.478-6.384 19.152z" fill="#32A4F2"/><path d="M28.666 17.774a9.599 9.599 0 013.222-2.8c-6.911-.67-13.817.54-19.888 4 .008 3.782.302 8.647 3.895 10.748 4.036 2.36 9.376.16 10.633-4.284.758-2.758.286-5.13 2.138-7.664z" fill="#FFAA12"/><path d="M24.368 31.79c-2.95 1.694-6.71 1.704-9.648-.016C17.432 37.959 22.13 43.372 28 46.75c4.08-2.408 8.636-5.261 6.928-10.752-1.315-4.437-6.58-6.481-10.56-4.208z" fill="#2CBAAD"/></svg>