<!-- by TradingView --><svg width="56" height="56" xmlns="http://www.w3.org/2000/svg"><path fill="url(#paint0_linear)" d="M0 0h56v56H0z"/><path d="M28 15.602L13 12v2.139l15 3.545v-2.082zm0 17.419L13 40v-2.152L43 24v2.041l-12.136 5.647L43 34.602v2.082L28 33.14v-.118zM13 15.714l15 3.602v2.082l-15-3.545v-2.139zm29.999 22.602L28 34.714v2.139l14.999 3.545v-2.082zM13 19.316l15 3.602v.006L43 16v2.041L13 32v-2.152l12.026-5.551L13 21.454v-2.138zm29.999 22.602L28 38.316v2.138L42.999 44v-2.082zM13 33.848L43 20v2.041L13 36v-2.152z" fill="#fff"/><defs><linearGradient id="paint0_linear" x1="10.418" y1="9.712" x2="68.147" y2="76.017" gradientUnits="userSpaceOnUse"><stop stop-color="#1A1E21"/><stop offset="1" stop-color="#06060A"/></linearGradient></defs></svg>