<!-- by TradingView --><svg width="56" height="56" fill="none" xmlns="http://www.w3.org/2000/svg"><path fill="#0F0937" d="M0 0h56v56H0z"/><path fill-rule="evenodd" clip-rule="evenodd" d="M28.525 12.847A.996.996 0 0028 11a.999.999 0 00-.49 1.868l-14.055 24.24A.999.999 0 1014 38h28a.999.999 0 001 .996.999.999 0 10-.03-1.994L28.524 12.847zm13.956 24.298L28 13 13.833 37.446a1.1 1.1 0 01.031.05h28.272c.084-.144.203-.265.345-.351z" fill="#03A2E5"/><path d="M21 33l6.996-3.61L35 33H21z" fill="#545873"/><path d="M28 21l-7 12 7-3.54V21z" fill="#00A8EB"/><path d="M28 21l7 12-7-3.54V21z" fill="#B4C0F2"/></svg>