<!-- by TradingView --><svg width="56" height="56" viewBox="0 0 56 56" xmlns="http://www.w3.org/2000/svg"><path fill="url(#aqodhrcup)" d="M0 0h56v56H0z"/><path d="M43.46 22.97 31.74 43.01A4 4 0 0 1 28.25 45a4.07 4.07 0 0 1-3.49-1.99l-2.05-3.5a.04.04 0 0 1 0-.06l.04-.01.03.01a3.38 3.38 0 0 0 4.24.4c.43-.28.79-.65 1.04-1.1l9.81-16.78a3.3 3.3 0 0 0-2.06-4.89l-.03-.01a.04.04 0 0 1 0-.06l.03-.01h4.16a4.07 4.07 0 0 1 3.5 2 3.94 3.94 0 0 1-.01 3.97ZM29.59 17h-4.06a.04.04 0 0 0-.03.04v.02l.03.02a2.04 2.04 0 0 1 1.18 1.2 1.99 1.99 0 0 1-.15 1.67l-5.92 10.11a2.03 2.03 0 0 1-1.44.97 2.07 2.07 0 0 1-1.7-.5.04.04 0 0 0-.04.04v.03l2.08 3.56a2.64 2.64 0 0 0 2.3 1.32 2.69 2.69 0 0 0 2.31-1.32l7.75-13.22a2.6 2.6 0 0 0-.98-3.59c-.4-.23-.86-.35-1.33-.35Zm-14.1 0c-1.4 0-2.7.85-3.24 2.14A3.58 3.58 0 0 0 15.5 24a3.6 3.6 0 0 0 3.5-3.54C19 18.56 17.37 17 15.5 17Z" fill="url(#bqodhrcup)"/><defs><linearGradient id="aqodhrcup" x1="10.42" y1="9.71" x2="68.15" y2="76.02" gradientUnits="userSpaceOnUse"><stop stop-color="#1A1E21"/><stop offset="1" stop-color="#06060A"/></linearGradient><linearGradient id="bqodhrcup" x1="43.59" y1="39.16" x2="7.28" y2="14.19" gradientUnits="userSpaceOnUse"><stop stop-color="#5433FF"/><stop offset=".5" stop-color="#20BDFF"/><stop offset="1" stop-color="#5CFFA2"/></linearGradient></defs></svg>