<!-- by TradingView --><svg width="56" height="56" fill="none" xmlns="http://www.w3.org/2000/svg"><path fill="#F0F3FA" d="M0 0h56v56H0z"/><path d="M24 29.388l-12-7.381c0-.578.203-2.143 1.015-3.776.813-1.632 2.435-2.834 3.145-3.231l11.987 7.007L39.906 15c.666.272 2.207 1.245 3.046 2.96C43.79 19.672 44 21.62 44 22.38l-12 7.007v14.5c-.404.443-1.907 1.112-4.082 1.112s-3.427-.67-3.918-1.112v-14.5z" fill="url(#paint0_linear_1530)"/><path fill-rule="evenodd" clip-rule="evenodd" d="M32 29.378v13.486c-1.191-1.496-3.092-4.662-2.997-7.78.095-3.097 1.887-4.987 2.997-5.707z" fill="url(#paint1_linear_1530)"/><path fill-rule="evenodd" clip-rule="evenodd" d="M23.592 29.131L12.509 22.32c2.09-.17 5.75-.143 7.924 1.02 2.294 1.226 3.042 4.2 3.159 5.792z" fill="url(#paint2_linear_1530)"/><path fill-rule="evenodd" clip-rule="evenodd" d="M28.262 21.938c1.238.706 3.807 1.466 6.395.005 2.633-1.488 4.427-4.967 5.137-6.877l-11.532 6.872z" fill="url(#paint3_linear_1530)"/><defs><linearGradient id="paint0_linear_1530" x1="26.708" y1="12.811" x2="28" y2="45" gradientUnits="userSpaceOnUse"><stop stop-color="#9764C7"/><stop offset=".614" stop-color="#4A1281"/></linearGradient><linearGradient id="paint1_linear_1530" x1="32.592" y1="33.595" x2="28.737" y2="37.754" gradientUnits="userSpaceOnUse"><stop stop-color="#FC17C5"/><stop offset="1" stop-color="#FDD6FF"/></linearGradient><linearGradient id="paint2_linear_1530" x1="14.623" y1="26.322" x2="23.409" y2="24.23" gradientUnits="userSpaceOnUse"><stop stop-color="#AA52A9"/><stop offset="1" stop-color="#FB35E1"/></linearGradient><linearGradient id="paint3_linear_1530" x1="29.796" y1="22.505" x2="38.006" y2="14.81" gradientUnits="userSpaceOnUse"><stop stop-color="#EA3AC0"/><stop offset="1" stop-color="#12040E"/></linearGradient></defs></svg>