<!-- by TradingView --><svg xmlns="http://www.w3.org/2000/svg" width="56" height="56"><path fill="#C2B2FE" d="M0 0h56v56H0z"/><path d="M12.72 27.12a6.5 6.5 0 01-.76-3.1c5.21-3.45 15.87-10.39 16.82-10.52a3.1 3.1 0 011.94.3c8.12 9.32 9.82 17.11 10.23 22.17.19 1.33-.05 4.27-2.48 5.46-3.04 1.5-5.64-.36-7.75-.86-2.1-.51-6.4-2.15-8.39-3.43-1.98-1.29-2.77-2.27-3.85-3.28-1.09-1.02-4.94-5.31-5.76-6.74z" fill="url(#a42g5fzbs)"/><path d="M34.02 19.16c.39-.54 1.04.3 1.32.78 2.41 3.09 4.6 9.87 4.51 9.87-.67-2.16-6.3-9.98-5.83-10.65z" fill="#EBDDD5" fill-opacity=".7"/><ellipse rx="10.4" ry="1.86" transform="matrix(.85412 -.52007 .505 .86312 20.82 19.01)" fill="#E6DE95"/><path d="M12.16 25.63c-.24-.22-.09-.56.02-.7.76.36 3.38-.32 4.6-.7-1.44.55-4.38 1.62-4.62 1.4z" fill="url(#b42g5fzbs)"/><defs><linearGradient id="a42g5fzbs" x1="37.63" y1="19.34" x2="20.31" y2="37.39" gradientUnits="userSpaceOnUse"><stop offset=".01" stop-color="#F374AB"/><stop offset=".3" stop-color="#ED4892"/><stop offset=".91" stop-color="#A71C2D"/><stop offset="1" stop-color="#B91F2B"/></linearGradient><linearGradient id="b42g5fzbs" x1="12.16" y1="25.34" x2="16.02" y2="25.36" gradientUnits="userSpaceOnUse"><stop stop-color="#EAC4CF"/><stop offset="1" stop-color="#E76D9E" stop-opacity="0"/></linearGradient></defs></svg>