<!-- by TradingView --><svg width="56" height="56" xmlns="http://www.w3.org/2000/svg"><path fill="#FF267E" d="M0 0h56v56H0z"/><path d="M23.955 16.266l2.255 8.504-8.826 1.896-.571-2.529 4.732-1.042s-4.076-2.79-8.274.717c-1.73 1.446-2.342 3.724-2.342 4.766 0 1.517.42 5.688 5.167 7.169 3.458.644 6.729-.794 8.25-4.747h2.93s-1.427 4.65-4.877 6.41c-1.966 1.004-5.762 2.235-9.908-.222-2.68-1.905-4.486-4.221-4.486-8.7 0-3.412 3.59-9.867 10.692-9 1.575.193 3.246.894 3.246.894l-.742-3.356 2.754-.76zM41 30H15v-2h26v2zm-11.205 3.223l2.255 8.504 2.753-.76-.741-3.357s1.67.701 3.246.894c7.1.868 10.692-5.587 10.692-9 0-4.478-1.806-6.794-4.487-8.699-4.146-2.457-7.942-1.226-9.908-.223C30.156 22.342 28.73 27 28.73 27h2.93c1.52-3.953 4.791-5.399 8.25-4.754 4.747 1.481 5.167 5.652 5.167 7.168 0 1.043-.612 3.32-2.343 4.766-4.197 3.507-8.273.718-8.273.718l4.732-1.043-.572-2.528-8.825 1.896z" fill="#fff"/></svg>