<!-- by TradingView --><svg width="56" height="56" xmlns="http://www.w3.org/2000/svg"><path fill="url(#paint0_linear)" d="M0 0h56v56H0z"/><path d="M36.516 16.002a10.404 10.404 0 00-3.854-3.014A11.451 11.451 0 0028 12c-1.613 0-3.205.337-4.662.988a10.416 10.416 0 00-3.857 3.014 14.927 14.927 0 00-2.549 4.996 23.778 23.778 0 00-.928 7.033c-.043 2.367.27 4.727.928 7.012a14.798 14.798 0 002.552 4.99 10.354 10.354 0 003.857 2.994c1.46.64 3.05.973 4.659.973 1.61 0 3.2-.332 4.659-.973a10.411 10.411 0 003.857-2.994 14.896 14.896 0 002.552-4.99c.658-2.285.97-4.645.928-7.012a23.778 23.778 0 00-.928-7.033 14.93 14.93 0 00-2.552-4.996zM27.984 42c-2.563.01-5.036-.928-6.704-2.894L35.62 18.06c1.783 2.946 2.444 6.545 2.38 9.953.117 6.178-2.59 14.018-10.002 13.986h-.014zM18 28.014c-.103-5.572 1.73-12.362 7.892-13.799a9.187 9.187 0 015.891.584c1.038.488 1.99.961 2.735 1.799L20.213 37.606c-1.677-2.912-2.274-6.268-2.213-9.592z" fill="#fff"/><defs><linearGradient id="paint0_linear" x1="10.418" y1="9.712" x2="68.147" y2="76.017" gradientUnits="userSpaceOnUse"><stop stop-color="#1A1E21"/><stop offset="1" stop-color="#06060A"/></linearGradient></defs></svg>