<!-- by TradingView --><svg width="56" height="56" xmlns="http://www.w3.org/2000/svg"><path fill="#041742" d="M0 0h56v56H0z"/><path d="M41.019 18.674l-2.617 4.055a11.667 11.667 0 01-8.527 16.768c-2.419.396-4.894 0-7.087-1.1l-4.066 2.615a15.974 15.974 0 0025.224-11.715 16.051 16.051 0 00-2.927-10.633h.01l-.01.01z" fill="url(#paint0_radial)"/><path d="M28.021 36.016a8.03 8.03 0 007.906-6.587 18.308 18.308 0 00-14.57 3.03 8.045 8.045 0 006.664 3.557z" fill="url(#paint1_radial)"/><path d="M31.984 27.556c1.374 0 2.73.151 4.075.443a8.044 8.044 0 00-14.098-5.295 8.025 8.025 0 00-1.902 6.377 17.592 17.592 0 00-3.012 2.813 11.665 11.665 0 019.478-15.413c2.296-.3 4.63.094 6.701 1.13l4.047-2.626A15.974 15.974 0 0012.04 26.88a15.994 15.994 0 003.097 10.642 19.277 19.277 0 012.729-3.773 22.687 22.687 0 012.823-2.475 19.11 19.11 0 0111.304-3.716h-.01z" fill="#fff"/><defs><radialGradient id="paint0_radial" cx="0" cy="0" r="1" gradientUnits="userSpaceOnUse" gradientTransform="matrix(26.9113 0 0 26.946 41.028 18.655)"><stop offset=".1" stop-color="#26DB8D"/><stop offset=".26" stop-color="#23D29A"/><stop offset=".56" stop-color="#1ABBBB"/><stop offset=".89" stop-color="#0E9DE5"/></radialGradient><radialGradient id="paint1_radial" cx="0" cy="0" r="1" gradientUnits="userSpaceOnUse" gradientTransform="matrix(26.9113 0 0 26.946 41.028 18.655)"><stop offset=".26" stop-color="#23D29A"/><stop offset=".56" stop-color="#1ABBBB"/><stop offset=".89" stop-color="#0E9DE5"/></radialGradient></defs></svg>