<!-- by TradingView --><svg width="56" height="56" viewBox="0 0 56 56" xmlns="http://www.w3.org/2000/svg"><path fill="url(#a1dxaidib)" d="M0 0h56v56H0z"/><path opacity=".8" d="m16 13.18 18.99 9.17 5-2.2L20.97 11 16 13.18Z" fill="url(#b1dxaidib)"/><path d="M16 13.18v4.95l13.22 6.37L16 30.97v4.88L35 45v-4.9l-12.87-6.25L35 27.25v-4.9L16 13.2v-.02Z" fill="url(#c1dxaidib)"/><path opacity=".8" d="m35 22.32 5-2.17v4.9l-5 2.18v-4.91Zm0 22.64 5-2.18V27.53l-5 2.2v15.23Z" fill="url(#d1dxaidib)"/><defs><linearGradient id="a1dxaidib" x1="10.42" y1="9.71" x2="68.15" y2="76.02" gradientUnits="userSpaceOnUse"><stop stop-color="#1A1E21"/><stop offset="1" stop-color="#06060A"/></linearGradient><linearGradient id="b1dxaidib" x1="36" y1="22" x2="23.5" y2="8" gradientUnits="userSpaceOnUse"><stop stop-color="#60AAAC"/><stop offset="1" stop-color="#347181"/></linearGradient><linearGradient id="c1dxaidib" x1="25.5" y1="13.18" x2="25.5" y2="45" gradientUnits="userSpaceOnUse"><stop stop-color="#5AC1C1"/><stop offset="1" stop-color="#216B79"/></linearGradient><linearGradient id="d1dxaidib" x1="32" y1="40.5" x2="43" y2="31.5" gradientUnits="userSpaceOnUse"><stop stop-color="#5AC1C1"/><stop offset="1" stop-color="#216B79"/></linearGradient></defs></svg>