<!-- by TradingView --><svg width="56" height="56" fill="none" xmlns="http://www.w3.org/2000/svg"><path fill="#F0F3FA" d="M0 0h56v56H0z"/><path fill-rule="evenodd" clip-rule="evenodd" d="M45.447 28.529c.301.009.553-.228.553-.529a.533.533 0 00-.553-.529l-.035.001a.525.525 0 00-.504.528c0 .283.221.52.504.528h.035zm-.061-2.11a.532.532 0 00.484-.591.53.53 0 00-.61-.456l-.038.006a.521.521 0 00-.436.58c.033.28.28.49.562.464l.038-.003zm-.315-2.085a.532.532 0 00.41-.645.53.53 0 00-.662-.379l-.036.01a.522.522 0 00-.363.63.524.524 0 00.614.392l.037-.008zm-.565-2.03a.532.532 0 00.328-.69.53.53 0 00-.702-.296l-.035.015a.522.522 0 00-.284.669c.1.264.39.406.657.314l.036-.012zm-.807-1.947a.532.532 0 00.242-.724.53.53 0 00-.733-.21l-.033.02a.523.523 0 00-.2.698c.13.25.436.356.69.233l.034-.017zm-1.038-1.835a.531.531 0 00.154-.748.53.53 0 00-.753-.12l-.03.023a.523.523 0 00-.115.718c.16.232.476.3.713.147l.031-.02zm-1.25-1.698a.531.531 0 00.062-.76.531.531 0 00-.762-.029l-.028.026a.523.523 0 00-.027.727c.187.212.509.241.726.06l.028-.024zm-1.446-1.535a.531.531 0 00-.034-.767A2.003 2.003 0 0038 12c-.522 0-.997.2-1.353.527 0-.19-.1-.373-.28-.468a.532.532 0 00-.724.243l-.017.033a.53.53 0 00.601.737 2 2 0 003.154 2.373c.191.07.412.027.558-.128l.026-.028zm-5.283-3.421a.53.53 0 00-.296-.703.532.532 0 00-.69.33l-.012.035a.524.524 0 00.314.657c.264.1.561-.023.67-.284l.014-.035zm-1.992-.687a.53.53 0 00-.38-.662.532.532 0 00-.644.41l-.008.037a.524.524 0 00.392.614.522.522 0 00.63-.363l.01-.036zm-2.062-.441a.53.53 0 00-.456-.61.532.532 0 00-.59.484l-.004.038a.524.524 0 00.464.562.521.521 0 00.58-.436l.006-.038zm-2.1-.187A.533.533 0 0028 10a.533.533 0 00-.529.553l.001.035a.525.525 0 00.528.504c.283 0 .52-.221.528-.504v-.035zm-2.11.061a.532.532 0 00-.59-.484.53.53 0 00-.456.61l.006.038c.042.279.3.47.58.436a.524.524 0 00.464-.562l-.003-.038zm-2.084.315a.532.532 0 00-.645-.41.53.53 0 00-.379.662l.01.036c.076.272.356.43.63.363a.524.524 0 00.392-.614l-.008-.037zm-2.03.565a.532.532 0 00-.69-.329.53.53 0 00-.296.703l.015.035c.108.26.405.384.669.284.264-.1.406-.39.314-.657l-.012-.036zm-1.947.808a.532.532 0 00-.724-.243.53.53 0 00-.21.733l.02.033c.138.246.449.332.698.2a.523.523 0 00.233-.69l-.017-.034zm-1.835 1.037a.531.531 0 00-.748-.154.53.53 0 00-.12.753l.023.03a.523.523 0 00.718.115c.232-.16.3-.476.147-.713l-.02-.031zm-1.698 1.25a.531.531 0 00-.76-.062.531.531 0 00-.029.762l.026.028a.523.523 0 00.727.027.523.523 0 00.06-.726l-.024-.028zm-1.535 1.446a.531.531 0 00-.762.029.531.531 0 00.063.76l.028.024c.217.181.539.152.726-.06a.523.523 0 00-.027-.727l-.028-.026zm-1.35 1.62a.53.53 0 00-.754.119.531.531 0 00.154.747l.031.021a.523.523 0 00.713-.147.523.523 0 00-.114-.718l-.03-.023zm-1.147 1.768a.531.531 0 00-.733.21.532.532 0 00.243.724l.033.017a.523.523 0 00.69-.233.523.523 0 00-.2-.699l-.033-.018zm-.924 1.895a.53.53 0 00-.703.296.532.532 0 00.33.69l.035.012a.524.524 0 00.657-.314.522.522 0 00-.284-.67l-.035-.014zm-.687 1.992a.53.53 0 00-.662.38.532.532 0 00.41.644l.037.008a.524.524 0 00.614-.392.522.522 0 00-.363-.63l-.036-.01zm-.441 2.062a.53.53 0 00-.61.456.532.532 0 00.484.59l.038.004a.524.524 0 00.562-.464.521.521 0 00-.436-.58l-.038-.006zM10 28c0-.301.252-.538.553-.529l.035.001a.525.525 0 01.504.528c0 .283-.221.52-.504.528h-.035A.533.533 0 0110 28zm.13 2.172a.532.532 0 01.484-.59l.038-.004a.524.524 0 01.562.464.521.521 0 01-.436.58l-.038.006a.53.53 0 01-.61-.456zm.8 1.494a.532.532 0 00-.41.644.53.53 0 00.66.38l.037-.01a.522.522 0 00.363-.63.524.524 0 00-.614-.392l-.037.008zm.564 2.03a.532.532 0 00-.329.69.53.53 0 00.703.296l.035-.015a.522.522 0 00.284-.669.524.524 0 00-.657-.314l-.036.012zm.808 1.947a.532.532 0 00-.243.724.53.53 0 00.733.21l.033-.02a.523.523 0 00.2-.698.523.523 0 00-.69-.233l-.034.017zm1.037 1.835a.531.531 0 00-.154.748.53.53 0 00.753.12l.03-.023a.523.523 0 00.115-.718.523.523 0 00-.713-.147l-.031.02zm1.25 1.698a.531.531 0 00-.062.76c.199.225.544.235.762.029l.028-.026a.523.523 0 00.027-.727.523.523 0 00-.726-.06l-.028.024zm1.446 1.535a.531.531 0 00.029.762c.224.2.568.168.76-.063l.024-.028a.523.523 0 00-.06-.726.523.523 0 00-.727.027l-.026.028zm1.62 1.35a.53.53 0 00.119.754c.247.17.584.098.747-.154l.021-.031a.523.523 0 00-.147-.713.523.523 0 00-.718.114l-.023.03zm1.768 1.147a.531.531 0 00.21.733c.266.14.592.027.724-.242l.017-.034a.523.523 0 00-.233-.69.523.523 0 00-.699.2l-.018.033zm1.895.924a.53.53 0 00.296.703.532.532 0 00.69-.33l.012-.035a.524.524 0 00-.314-.657.522.522 0 00-.67.284l-.014.035zm1.992.687a.53.53 0 00.38.662.532.532 0 00.644-.41l.008-.037a.524.524 0 00-.392-.614.522.522 0 00-.63.363l-.01.036zm2.062.441a.53.53 0 00.456.61.532.532 0 00.59-.484l.004-.038a.524.524 0 00-.464-.562.521.521 0 00-.58.436l-.006.038zm2.1.187c-.01.301.227.553.528.553a.533.533 0 00.529-.553l-.001-.035a.525.525 0 00-.528-.504.525.525 0 00-.528.504v.035zm2.11-.061c.026.299.292.52.59.484a.53.53 0 00.456-.61l-.006-.038a.521.521 0 00-.58-.436.524.524 0 00-.464.562l.003.038zm2.084-.315a.532.532 0 00.644.41.53.53 0 00.38-.662l-.01-.036a.522.522 0 00-.63-.363.524.524 0 00-.392.614l.008.037zm2.03-.565a.532.532 0 00.69.328.53.53 0 00.296-.702l-.015-.035a.522.522 0 00-.669-.284.524.524 0 00-.314.657l.012.036zm1.947-.807c.132.27.458.382.724.242a.53.53 0 00.21-.733l-.02-.033a.523.523 0 00-.698-.2.523.523 0 00-.233.69l.017.034zm1.835-1.038c.164.252.501.325.748.154a.53.53 0 00.12-.753l-.023-.03a.523.523 0 00-.718-.115.523.523 0 00-.147.713l.02.031zm1.698-1.25c.192.23.536.262.76.062a.531.531 0 00.029-.762l-.026-.028a.523.523 0 00-.727-.027.523.523 0 00-.06.726l.024.028zm1.535-1.446a.531.531 0 00.762-.029.531.531 0 00-.063-.76l-.028-.024a.523.523 0 00-.726.06.523.523 0 00.027.727l.028.026zm2.104-1.739a.53.53 0 01-.753.12l-.03-.023a.523.523 0 01-.115-.718c.16-.232.476-.3.713-.147l.031.02c.252.164.325.501.154.748zm.393-1.65a.531.531 0 00.733-.209.532.532 0 00-.242-.724l-.034-.017a.523.523 0 00-.69.233.523.523 0 00.2.699l.033.019zm.924-1.894a.53.53 0 00.703-.296.532.532 0 00-.33-.69l-.035-.012a.524.524 0 00-.657.314c-.1.264.023.561.284.67l.035.014zm.687-1.992a.53.53 0 00.662-.38.532.532 0 00-.41-.644l-.037-.008a.524.524 0 00-.614.392.522.522 0 00.363.63l.036.01zm.441-2.062a.53.53 0 00.61-.456.532.532 0 00-.484-.59l-.038-.004a.524.524 0 00-.562.464.521.521 0 00.436.58l.038.006zm-6.462-2.097a.527.527 0 00.56-.52v-.023a.527.527 0 00-.56-.52l-.04.003a.525.525 0 00-.493.529c0 .279.214.516.492.53l.041.001zm.346-2.736a.526.526 0 01-.448.617l-.042.007a.525.525 0 01-.585-.425.522.522 0 01.38-.612l.04-.01a.526.526 0 01.65.4l.005.023zm-.962-1.438a.526.526 0 00.318-.694l-.009-.021a.526.526 0 00-.715-.265l-.039.018a.523.523 0 00-.25.675.524.524 0 00.655.3l.04-.013zm-.907-1.915a.526.526 0 00.176-.743l-.013-.019a.526.526 0 00-.753-.12l-.034.025a.524.524 0 00-.115.712c.155.231.464.31.703.166l.036-.021zm-1.264-1.702a.526.526 0 00.028-.763l-.016-.016a.526.526 0 00-.763.028l-.028.031a.524.524 0 00.027.721.524.524 0 00.72.027l.032-.028zm-1.57-1.425a.526.526 0 00-.121-.753l-.02-.013a.526.526 0 00-.742.176l-.021.036a.524.524 0 00.166.702c.231.155.546.11.712-.114l.025-.034zm-1.818-1.09a.526.526 0 00-.265-.716l-.021-.01a.526.526 0 00-.694.319l-.014.04a.525.525 0 00.301.656c.257.106.556 0 .675-.251l.018-.039zm-1.995-.715a.526.526 0 00-.4-.65l-.023-.003a.526.526 0 00-.617.447l-.007.042c-.04.276.152.53.425.585a.522.522 0 00.612-.38l.01-.04zm-2.097-.309a.527.527 0 00-.52-.559h-.023a.527.527 0 00-.52.56l.003.04c.013.28.25.493.529.493a.525.525 0 00.53-.492l.001-.041zm-2.119.103a.526.526 0 00-.617-.447l-.023.004a.526.526 0 00-.4.65l.01.04c.067.27.339.434.612.38a.525.525 0 00.425-.585l-.007-.042zm-2.055.514a.526.526 0 00-.694-.318l-.021.009a.526.526 0 00-.265.715l.018.039c.12.25.418.357.675.25a.524.524 0 00.3-.655l-.013-.04zm-1.915.907a.526.526 0 00-.743-.176l-.019.013a.526.526 0 00-.12.753l.025.034c.166.224.48.27.712.114a.524.524 0 00.166-.702l-.021-.036zm-1.702 1.264a.526.526 0 00-.763-.028l-.016.016a.526.526 0 00.028.763l.031.028c.206.187.524.17.721-.027a.524.524 0 00.027-.72l-.028-.032zm-1.425 1.57a.526.526 0 00-.753.121l-.013.02a.526.526 0 00.176.742l.036.021a.524.524 0 00.702-.166.523.523 0 00-.114-.712l-.034-.025zm-1.09 1.818a.526.526 0 00-.716.265l-.01.021a.526.526 0 00.319.694l.04.014a.524.524 0 00.656-.301.523.523 0 00-.251-.675l-.039-.018zm-.715 1.995a.526.526 0 00-.65.4l-.003.023a.526.526 0 00.447.617l.042.007c.276.04.53-.152.585-.425a.522.522 0 00-.38-.612l-.04-.01zm-.868 2.616c0-.301.258-.534.56-.52l.04.003c.28.013.493.25.493.529a.525.525 0 01-.492.53l-.041.001a.527.527 0 01-.56-.52v-.023zm.662 1.6a.526.526 0 00-.447.617l.004.023a.526.526 0 00.65.4l.04-.01a.522.522 0 00.38-.612.526.526 0 00-.585-.425l-.042.007zm.514 2.055a.526.526 0 00-.318.694l.009.021a.526.526 0 00.715.265l.039-.018a.523.523 0 00.25-.675.525.525 0 00-.655-.301l-.04.014zm.907 1.915a.526.526 0 00-.176.743l.013.019c.168.25.511.3.753.12l.034-.025a.523.523 0 00.114-.712.524.524 0 00-.702-.166l-.036.021zm1.264 1.702a.526.526 0 00-.028.763l.016.016c.214.213.56.195.763-.028l.028-.031a.524.524 0 00-.027-.721.524.524 0 00-.72-.027l-.032.028zm1.57 1.425a.526.526 0 00.121.753l.02.013c.25.167.586.083.742-.176l.021-.036a.524.524 0 00-.166-.703.524.524 0 00-.712.115l-.025.034zm1.818 1.09c-.13.273-.014.6.265.716l.021.009a.526.526 0 00.694-.318l.014-.04a.524.524 0 00-.301-.656.523.523 0 00-.675.251l-.018.039zm1.995.715a.526.526 0 00.4.65l.023.004a.526.526 0 00.617-.448l.007-.042a.525.525 0 00-.425-.585.522.522 0 00-.612.38l-.01.04zm2.097.308a.527.527 0 00.52.56h.023a.527.527 0 00.52-.56l-.003-.04a.525.525 0 00-.529-.493.525.525 0 00-.53.492l-.001.041zm2.736.346a.526.526 0 01-.617-.448l-.007-.042a.526.526 0 01.425-.585.522.522 0 01.612.38l.01.04a.526.526 0 01-.4.65l-.023.005zm1.438-.962a.526.526 0 00.694.318l.021-.009a.526.526 0 00.265-.715l-.018-.039a.523.523 0 00-.675-.25.525.525 0 00-.301.655l.014.04zm4.304-2.08a.518.518 0 00.076-.063l.016-.016a.526.526 0 00-.028-.763l-.031-.028a.523.523 0 00-.687-.005 1.5 1.5 0 10.653.875zm.738-1.662c.242.18.585.13.753-.12l.013-.02a.526.526 0 00-.176-.742l-.036-.021a.524.524 0 00-.703.166.524.524 0 00.115.712l.034.025zm1.09-1.817c.273.13.6.014.716-.265l.009-.021a.526.526 0 00-.318-.694l-.04-.014a.525.525 0 00-.656.301.523.523 0 00.251.675l.039.018zm.715-1.995a.526.526 0 00.65-.4l.004-.023a.526.526 0 00-.448-.617l-.042-.007a.526.526 0 00-.585.425.522.522 0 00.38.612l.04.01zM28 36a8 8 0 100-16 8 8 0 000 16zm-2.059-9.915c.329-.273 1.169-.817 1.904-.817.736 0 1.226.315 1.38.473l-.631.647c.208.167.666.56.834.803l1.49-1.531c-.435-.554-1.66-1.66-3.073-1.66s-2.335.697-2.672 1.086c-.158.182-.262.452-.066.77.224.36.677.359.834.229zm4.118 3.83c-.329.273-1.169.817-1.904.817-.736 0-1.226-.315-1.38-.473l.631-.647c-.208-.167-.666-.56-.834-.803l-1.49 1.531c.435.554 1.66 1.66 3.073 1.66s2.335-.697 2.672-1.086c.158-.182.262-.452.065-.77-.223-.36-.676-.359-.833-.229zM29 28a1 1 0 11-2 0 1 1 0 012 0z" fill="#6816B0"/></svg>