<!-- by TradingView --><svg width="56" height="56" xmlns="http://www.w3.org/2000/svg"><path fill="url(#paint0_linear)" d="M0 0h56v56H0z"/><path d="M40.12 43.31c-4.525-.291-7.907-.437-10.149-.437-6.38 0-11.204.209-14.48.626L12 44l15.062-19.102c-2.887.042-5.462.45-7.726 1.221-2.261.773-3.802 1.536-4.623 2.286l-1.226 1.127a39.024 39.024 0 011.584-9.267c.883-2.922 1.734-5.03 2.553-6.325L18.787 12c.431.249 1.358.595 2.78 1.033 1.423.437 3.018.74 4.784.907 3.664.291 6.787.438 9.374.438 2.585 0 5.344-.145 8.275-.436L29.971 34.356a20.795 20.795 0 006.561-1.597c2.134-.897 3.696-1.743 4.687-2.537l1.487-1.251c-1.723 6.053-2.586 10.832-2.586 14.34v-.001z" fill="#fff"/><defs><linearGradient id="paint0_linear" x1="5.63" y1="11.382" x2="48.066" y2="50.058" gradientUnits="userSpaceOnUse"><stop stop-color="#486FE5"/><stop offset=".788" stop-color="#8154E9"/></linearGradient></defs></svg>