<?xml version="1.0" encoding="UTF-8"?>
<svg version="1.1" xmlns="http://www.w3.org/2000/svg" width="512" height="512">
<path d="M0 0 C3.12885713 1.63327214 6.14336842 3.38532045 9.15893555 5.21923828 C10.25351074 5.85901611 11.34808594 6.49879395 12.47583008 7.15795898 C15.67464243 9.03274404 18.85484547 10.93626647 22.03393555 12.84423828 C23.61041629 13.77022042 25.18835073 14.69373616 26.76831055 15.61376953 C31.65331775 18.46359197 36.52836917 21.32968341 41.3684082 24.25537109 C64.74123225 38.38123668 87.57522823 45.43076344 114.87280273 39.38330078 C123.73970292 37.17158415 132.04111478 33.32863707 140.30957031 29.51367188 C161.99073366 19.51917929 185.23965839 13.17754254 209.03393555 10.84423828 C210.15413086 10.73337891 211.27432617 10.62251953 212.4284668 10.50830078 C254.48092382 6.95186442 294.18963081 15.78951711 332.44604492 33.08642578 C354.58669226 43.0120339 375.99714696 44.23725128 399.1081543 36.45361328 C408.55384216 32.79483944 417.34566829 27.6224448 426.03393555 22.46923828 C428.12104772 21.25027011 430.20829316 20.03153008 432.2956543 18.81298828 C436.39975272 16.40703273 440.48454239 13.97290539 444.55300903 11.50747681 C447.03558958 10.0090412 449.5296625 8.53045315 452.02587891 7.05487061 C453.22515916 6.33971713 454.41936399 5.61597211 455.60791016 4.88311768 C463.03702519 0.30776718 469.17388286 -2.76642215 478.03393555 -1.15576172 C482.60795725 1.04957017 484.81139126 3.33582937 487.03393555 7.84423828 C489.70787064 27.62172213 481.16644284 48.91361919 469.6628418 64.62158203 C455.93814782 81.87442033 438.63043605 91.68346342 419.59643555 102.18017578 C414.21577137 105.15932762 408.91923102 108.26036915 403.63696289 111.40991211 C386.85224324 121.39799283 370.0091789 129.02019747 351.13549805 134.19970703 C310.71857447 145.2952893 274.45943694 166.63594187 249.57299805 200.96972656 C246.04343911 205.78572869 242.48619131 210.1181104 237.03393555 212.84423828 C232.37460934 213.35542335 228.310942 213.39152676 223.97143555 211.53173828 C219.45612816 207.40071238 215.80041464 202.65451626 212.03393555 197.84423828 C186.75431731 165.58130009 153.14960734 145.62329053 114.01831055 134.44726562 C99.2402417 130.21532179 85.57755168 125.13869724 72.03393555 117.84423828 C71.01275635 117.29558105 71.01275635 117.29558105 69.97094727 116.73583984 C57.3959689 109.93744642 45.07354408 102.68774612 32.75708008 95.43505859 C30.38046807 94.0466774 27.99210397 92.68455147 25.5925293 91.33642578 C17.00878379 86.46145583 10.03332329 80.75865622 3.03393555 73.84423828 C2.38038086 73.26287109 1.72682617 72.68150391 1.0534668 72.08251953 C-13.12312887 59.20355276 -21.92845807 37.59730399 -23.34887695 18.70751953 C-23.55714181 11.61957214 -23.445363 7.58307888 -18.96606445 1.84423828 C-13.84712829 -2.80934005 -6.1436979 -2.39396377 0 0 Z " fill="#FFFFFF" transform="translate(23.966064453125,1.15576171875)"/>
<path d="M0 0 C2.74734339 2.7107973 5.2040251 5.44366104 7.5625 8.5 C15.51639501 18.5012865 23.79368934 27.26628143 34 35 C34.98871094 35.77730469 35.97742188 36.55460937 36.99609375 37.35546875 C69.29343928 62.11032041 112.56633074 73.97683765 153 69 C163.08574477 67.53150108 173.05608202 65.8537436 182.69555664 62.48388672 C185.45912302 61.90359341 187.30468082 62.20752621 190 63 C191.74609375 64.6015625 191.74609375 64.6015625 193.4375 66.625 C202.05447461 75.61381404 213.71949818 79.65808348 226 80 C236.3294172 79.68298464 247.08222948 75.64860261 254.640625 68.50390625 C256.09110165 66.92268936 257.49841341 65.29972207 258.83984375 63.625 C261 62 261 62 264.27734375 62.12890625 C268.07429425 63.0173847 271.85730818 63.93343146 275.625 64.9375 C319.34721668 76.09922911 363.45162734 67.55221031 402 45 C406.92062073 41.98006755 411.51962801 38.6366996 416 35 C416.61810547 34.49855469 417.23621094 33.99710937 417.87304688 33.48046875 C429.26894555 24.12239811 439.05241594 14.17811389 447.50390625 2.01953125 C447.99761719 1.35308594 448.49132812 0.68664062 449 0 C449.33 0 449.66 0 450 0 C450.09274145 10.84854186 450.16378617 21.69698917 450.20724869 32.54584694 C450.22811016 37.58360436 450.25640163 42.62109025 450.30175781 47.65869141 C450.34526674 52.52163735 450.36914795 57.38432237 450.37950897 62.24744797 C450.38689127 64.10139447 450.40130728 65.95532693 450.42292023 67.80916214 C450.45202154 70.40905703 450.45595323 73.00787821 450.45410156 75.60791016 C450.46848267 76.37180054 450.48286377 77.13569092 450.49768066 77.92272949 C450.45786274 83.10059054 449.26565665 86.01234508 446 90 C440.33260849 94.32511457 433.66457896 94.13485294 426.80493164 94.59448242 C373.3634994 98.25845163 320.16197447 116.36081363 278 150 C277.16855469 150.64066406 276.33710938 151.28132812 275.48046875 151.94140625 C267.85438772 157.88614658 260.46146573 164.33502881 253.7734375 171.328125 C252 173 252 173 250 173 C249.76925781 173.55816406 249.53851563 174.11632812 249.30078125 174.69140625 C247.65466491 177.61289201 245.58926868 179.60054666 243.1875 181.9375 C242.33542969 182.77152344 241.48335937 183.60554687 240.60546875 184.46484375 C239.31576172 185.71974609 239.31576172 185.71974609 238 187 C237.10925781 187.90878906 236.21851563 188.81757813 235.30078125 189.75390625 C231.19718688 193.75996188 227.5938772 193.40222407 222.0390625 193.3359375 C215.84763611 192.65153818 212.74315039 188.94746428 208.8671875 184.39453125 C198.30356734 172.23574752 186.73717798 160.75852488 173.71240234 151.25488281 C171.90204692 149.92821802 170.11663048 148.57201686 168.33203125 147.2109375 C159.90487936 140.83354444 151.2332782 135.13885576 142 130 C141.1646875 129.5344873 140.329375 129.06897461 139.46875 128.58935547 C103.5108545 108.75697453 63.58946762 96.74314466 22.5 94.5 C9.01395073 93.70747996 9.01395073 93.70747996 4.125 89.5625 C0.21166453 84.84347781 -0.28221604 81.89173196 -0.22705078 75.94848633 C-0.22734283 75.12874832 -0.22763489 74.30901031 -0.22793579 73.46443176 C-0.22654188 70.75352411 -0.21097781 68.04289092 -0.1953125 65.33203125 C-0.19158259 63.45301972 -0.18873551 61.57400624 -0.18673706 59.69499207 C-0.17909889 54.74820592 -0.15944879 49.80153713 -0.1373291 44.85479736 C-0.11687466 39.80751127 -0.1077362 34.76020622 -0.09765625 29.71289062 C-0.0762031 19.80854218 -0.0420649 9.90428085 0 0 Z " fill="#FFFFFF" transform="translate(31,319)"/>
<path d="M0 0 C3.56862115 0.14151429 4.81775659 0.81624795 7.359375 3.37890625 C26.35019012 28.66896234 37.74880908 57.57432903 37.375 89.4375 C37.37001495 90.15844849 37.36502991 90.87939697 37.3598938 91.62219238 C37.27334211 102.32146015 36.94297791 112.64526061 34 123 C33.66935547 124.19544434 33.66935547 124.19544434 33.33203125 125.41503906 C26.73534478 148.5819737 15.5028834 167.51273408 -1 185 C-1.67289063 185.73734375 -2.34578125 186.4746875 -3.0390625 187.234375 C-19.73054892 204.86358538 -41.86417074 215.61255006 -65 222 C-66.0216626 222.28810547 -66.0216626 222.28810547 -67.06396484 222.58203125 C-86.62740386 227.80559408 -111.50451336 226.93259301 -131 222 C-129.61253493 217.91062928 -127.7079528 215.23766035 -124.875 212 C-121.56819992 208.04771254 -118.64255658 204.07451255 -115.9375 199.6875 C-114.93976563 198.07681641 -114.93976563 198.07681641 -113.921875 196.43359375 C-112.53122887 193.94908573 -111.43614654 191.71081472 -110.390625 189.09765625 C-108.67586728 185.06587704 -107.12776257 182.14134186 -104 179 C-98.69897333 177.26174094 -92.9325286 177.89842706 -87.43212891 178.03564453 C-67.89947033 177.74937991 -48.40068372 165.76519763 -34.6640625 152.8203125 C-15.29043384 132.31040063 -9.03648817 107.76669998 -9.82080078 80.16748047 C-10.20329217 73.40665851 -11.73187595 67.38042373 -14 61 C-14.63615234 59.20755859 -14.63615234 59.20755859 -15.28515625 57.37890625 C-19.71464306 46.11394396 -28.7041207 28.64793965 -40 23 C-39.505 21.515 -39.505 21.515 -39 20 C-36.40840914 18.71180009 -33.86281919 17.58661267 -31.1875 16.5 C-23.87362956 13.40277313 -16.88144883 9.91794246 -9.9375 6.0625 C-8.62591919 5.33546875 -8.62591919 5.33546875 -7.2878418 4.59375 C-3.41591505 2.61400996 -3.41591505 2.61400996 0 0 Z " fill="#FFFFFF" transform="translate(444,135)"/>
<path d="M0 0 C3.71849354 0.58246924 6.47603141 1.61478516 9.73828125 3.4765625 C10.63393799 3.97937744 11.52959473 4.48219238 12.45239258 5.00024414 C13.39622803 5.53641357 14.34006348 6.07258301 15.3125 6.625 C22.82728809 10.83260741 30.31418631 14.71404566 38.33911133 17.85595703 C39.92482231 18.49631194 41.46830342 19.23944803 43 20 C43.495 21.485 43.495 21.485 44 23 C43.30777344 23.51433594 43.30777344 23.51433594 42.6015625 24.0390625 C26.67128401 36.82106461 17.48026113 57.28394968 14 77 C12.15657459 105.12431505 17.96179219 128.81046366 36.625 150.625 C53.73041265 168.77661526 76.51831133 177.14125041 101 179 C103.33783236 179.05100322 105.66120496 179.03659132 108 179 C108.30067383 179.55236328 108.60134766 180.10472656 108.91113281 180.67382812 C116.26935004 194.09993273 124.3080426 206.34830823 133.83984375 218.30859375 C135 220 135 220 135 222 C114.6904185 227.13856881 89.26174394 227.71374468 69 222 C67.80238037 221.66935547 67.80238037 221.66935547 66.58056641 221.33203125 C43.41599507 214.7347753 24.48558772 203.50129967 7 187 C6.26265625 186.32710937 5.5253125 185.65421875 4.765625 184.9609375 C-12.86864091 168.26466446 -23.60053769 146.13723728 -30 123 C-30.19207031 122.32420898 -30.38414063 121.64841797 -30.58203125 120.95214844 C-39.5357708 87.7515455 -31.79939488 50.30557363 -15.33984375 20.89453125 C-12.03220097 15.23521986 -8.13065155 10.08630898 -4 5 C-3.25363281 4.06671875 -2.50726563 3.1334375 -1.73828125 2.171875 C-0.87783203 1.09679687 -0.87783203 1.09679687 0 0 Z " fill="#FFFFFF" transform="translate(64,135)"/>
<path d="M0 0 C14.98827177 8.61465826 24.79911002 21.81296649 29.83203125 38.234375 C33.63314988 54.4885714 30.7256238 71.5781946 22.4453125 85.87109375 C13.30649295 99.5387061 0.02231957 109.35438536 -16.09204102 113.12280273 C-33.08554477 116.00954966 -49.95222813 113.10196485 -64.3125 103.5 C-76.89973322 93.70376857 -86.72878631 80.57644076 -89.3125 64.5 C-88.93355068 59.75103936 -86.56492022 56.5372954 -83.8125 52.8125 C-83.36543701 52.19745605 -82.91837402 51.58241211 -82.45776367 50.94873047 C-79.02489997 46.29767568 -75.33562046 41.9550355 -71.38671875 37.73046875 C-69.48769913 35.68839681 -67.71412345 33.58548418 -65.9375 31.4375 C-53.72125282 17.48408006 -35.76587165 6.6220696 -19 -1 C-17.89011719 -1.5053125 -16.78023438 -2.010625 -15.63671875 -2.53125 C-9.82022434 -4.2263036 -5.19601218 -2.8384892 0 0 Z M-41.3125 34.5 C-44.35913269 40.66809218 -44.75370894 46.86005787 -44.625 53.625 C-44.62822266 54.47964844 -44.63144531 55.33429688 -44.63476562 56.21484375 C-44.5800374 62.69267528 -44.27062234 68.24062807 -39.875 73.3125 C-35.26157617 77.25078863 -32.72231587 77.9454588 -26.8203125 77.81640625 C-23.12028087 77.34957983 -21.05436303 75.9743642 -18.3125 73.5 C-13.78903698 67.41672215 -14.13032486 60.89875727 -14.125 53.625 C-14.10663086 52.31595703 -14.10663086 52.31595703 -14.08789062 50.98046875 C-14.0730279 44.39132836 -14.26675056 38.86048012 -18.75 33.6875 C-23.31338631 29.79192632 -25.88051676 28.97888584 -31.73828125 29.1328125 C-35.99192356 29.73955359 -38.48823021 31.31765396 -41.3125 34.5 Z " fill="#FFFFFF" transform="translate(375.3125,171.5)"/>
<path d="M0 0 C0.63679688 0.32532715 1.27359375 0.6506543 1.9296875 0.98583984 C12.17532751 6.30354974 21.21700538 12.52425428 30 20 C30.99 20.83660156 31.98 21.67320312 33 22.53515625 C39.41904305 28.16073426 44.79649821 34.24975283 50 41 C50.90340992 42.16033997 51.80706533 43.32048883 52.7109375 44.48046875 C62.01873358 56.47545973 62.01873358 56.47545973 61.875 60.5 C59.29793304 76.54809878 50.14263876 90.35265587 37.30078125 100.03515625 C22.73775803 109.82001208 6.10434345 112.14085532 -11.11865234 109.69970703 C-26.29738364 106.52144508 -39.2899842 96.82013953 -48.40234375 84.51953125 C-58.0292026 69.33781008 -60.38108427 52.63711897 -57.3125 35.0625 C-52.51534068 18.43234771 -42.09766342 5.48902974 -27.45703125 -3.57421875 C-17.21230454 -9.23129174 -9.75465191 -4.98747565 0 0 Z M-10 31 C-13.04663269 37.16809218 -13.44120894 43.36005787 -13.3125 50.125 C-13.31572266 50.97964844 -13.31894531 51.83429688 -13.32226562 52.71484375 C-13.2675374 59.19267528 -12.95812234 64.74062807 -8.5625 69.8125 C-3.94907617 73.75078863 -1.40981587 74.4454588 4.4921875 74.31640625 C8.19221913 73.84957983 10.25813697 72.4743642 13 70 C17.52346302 63.91672215 17.18217514 57.39875727 17.1875 50.125 C17.20586914 48.81595703 17.20586914 48.81595703 17.22460938 47.48046875 C17.2394721 40.89132836 17.04574944 35.36048012 12.5625 30.1875 C7.99911369 26.29192632 5.43198324 25.47888584 -0.42578125 25.6328125 C-4.67942356 26.23955359 -7.17573021 27.81765396 -10 31 Z " fill="#FFFFFF" transform="translate(164,175)"/>
<path d="M0 0 C1.98 0 3.96 0 6 0 C6.29390625 1.2375 6.29390625 1.2375 6.59375 2.5 C13.38847747 28.74170611 28.906846 47.27405735 52 61 C53.98853433 62.02261001 55.98494503 63.03069434 58 64 C53.0910708 76.96521013 44.49364791 87.22037607 35.046875 97.11328125 C34.05140001 98.1582036 33.05661153 99.2037804 32.0625 100.25 C31.56911133 100.76860596 31.07572266 101.28721191 30.56738281 101.8215332 C25.83451483 106.92833154 21.92009538 112.54406105 18.09594727 118.35253906 C15.49758303 122.22411532 13.45756189 125.17143359 9 127 C6.09765625 127.43359375 6.09765625 127.43359375 3.0625 127.4375 C1.56396484 127.46650391 1.56396484 127.46650391 0.03515625 127.49609375 C-5.0392856 126.66668047 -8.01586534 124.26531599 -11.1328125 120.2578125 C-11.79023438 119.22398437 -12.44765625 118.19015625 -13.125 117.125 C-18.9588474 108.26619469 -25.74595391 99.8229705 -33.5625 92.625 C-41.12585608 85.35970721 -47.08492482 75.20857177 -52 66 C-52 65.34 -52 64.68 -52 64 C-50.49373047 63.21689453 -50.49373047 63.21689453 -48.95703125 62.41796875 C-27.12428147 50.791553 -10.28728169 33.89534165 -2.62109375 9.875 C-1.64565255 6.60765539 -0.7880001 3.31789517 0 0 Z " fill="#FFFFFF" transform="translate(253,243)"/>
</svg>
