<?xml version="1.0" encoding="UTF-8"?>
<svg version="1.1" xmlns="http://www.w3.org/2000/svg" width="512" height="512">
<path d="M0 0 C3.12885692 1.63327203 6.14339149 3.38528365 9.15893555 5.21923828 C10.25206055 5.85829102 11.34518555 6.49734375 12.47143555 7.15576172 C15.67151598 9.03157357 18.85305083 10.93612069 22.03393555 12.84423828 C23.63373977 13.78213972 25.2351066 14.71738531 26.83862305 15.64892578 C32.35897101 18.86279688 37.85465062 22.10977476 43.2878418 25.46923828 C52.55689645 31.14905302 61.6667587 35.5429585 72.03393555 38.84423828 C73.2230957 39.22515625 73.2230957 39.22515625 74.4362793 39.61376953 C96.13272887 45.40226568 117.5489253 39.78645325 137.28393555 30.59423828 C190.61499963 5.95400209 252.66746298 2.76984472 308.03393555 22.84423828 C314.30999474 25.3178117 320.47365923 28.04795252 326.63745117 30.78662109 C351.53356474 41.77378124 375.496686 45.7120208 401.54736328 35.78857422 C411.08208908 31.82615012 419.81525565 26.1665521 428.64086914 20.86181641 C434.74538312 17.23196294 440.92369113 13.73134502 447.09643555 10.21923828 C448.29151179 9.53791697 449.48650098 8.85644294 450.68139648 8.17480469 C452.86573018 6.92899776 455.05172644 5.68609917 457.23974609 4.44677734 C458.90511366 3.49164649 460.56149677 2.52011648 462.19726562 1.51513672 C467.54455278 -1.7587422 471.91334892 -2.06969547 478.03393555 -1.15576172 C482.60795725 1.04957017 484.81139126 3.33582937 487.03393555 7.84423828 C489.70782909 27.62141486 481.16651431 48.90782559 469.66674805 64.61767578 C460.99884226 75.51466346 451.08634872 83.91669821 439.03393555 90.84423828 C437.11712961 91.96248917 435.20047592 93.08100106 433.28393555 94.19970703 C428.28968358 97.10338641 423.27879581 99.97689913 418.26205444 102.84150696 C414.20191583 105.1642553 410.16519787 107.52372881 406.13549805 109.89892578 C387.4656082 120.87567491 369.45542344 129.17754669 348.51831055 134.91918945 C309.17773163 145.77882842 273.72951269 167.64295868 249.57299805 200.96972656 C246.04343911 205.78572869 242.48619131 210.1181104 237.03393555 212.84423828 C232.37460934 213.35542335 228.310942 213.39152676 223.97143555 211.53173828 C219.45612816 207.40071238 215.80041464 202.65451626 212.03393555 197.84423828 C186.75431731 165.58130009 153.14960734 145.62329053 114.01831055 134.44726562 C89.67834202 127.47711406 68.9867589 116.36860545 47.03393555 103.84423828 C45.95821289 103.2314502 44.88249023 102.61866211 43.77416992 101.98730469 C13.66723374 84.78659751 -10.71444494 67.77789111 -20.80078125 32.92724609 C-23.16892926 24.071036 -25.81207168 12.79991411 -21.0637207 4.53173828 C-15.71058527 -2.32665498 -7.96830982 -3.10494515 0 0 Z " fill="#FFFFFF" transform="translate(23.966064453125,1.15576171875)"/>
<path d="M0 0 C2.77357967 2.68214298 5.20670352 5.44713199 7.5625 8.5 C15.51639501 18.5012865 23.79368934 27.26628143 34 35 C34.98871094 35.77730469 35.97742188 36.55460937 36.99609375 37.35546875 C69.29343928 62.11032041 112.56633074 73.97683765 153 69 C163.08574477 67.53150108 173.05608202 65.8537436 182.69555664 62.48388672 C185.45912302 61.90359341 187.30468082 62.20752621 190 63 C191.74609375 64.6015625 191.74609375 64.6015625 193.4375 66.625 C199.95375914 73.5399595 209.78738594 78.54938233 219.28515625 79.23828125 C231.61468678 79.48053676 241.28033154 76.87182274 251 69 C252.77510617 67.12091271 254.48357946 65.23871448 256.1015625 63.22265625 C259.16737771 61.24817032 261.53343038 62.25202647 265 63 C267.55343343 63.61828419 270.08758074 64.26129213 272.625 64.9375 C316.34721668 76.09922911 360.45162734 67.55221031 399 45 C403.92062073 41.98006755 408.51962801 38.6366996 413 35 C413.61810547 34.49855469 414.23621094 33.99710937 414.87304688 33.48046875 C426.26894555 24.12239811 436.05241594 14.17811389 444.50390625 2.01953125 C444.99761719 1.35308594 445.49132812 0.68664062 446 0 C446.33 0 446.66 0 447 0 C448.44695078 15.81999522 442.36797842 31.30802393 437.5625 46.125 C437.20357666 47.25043213 436.84465332 48.37586426 436.47485352 49.53540039 C431.65071791 63.99491132 422.58572341 79.21980375 409 87 C405.80015833 88.32625017 402.59983727 89.53489371 399.32861328 90.66796875 C395.22836901 92.10197499 391.45694875 93.72806407 387.64672852 95.81030273 C379.73319336 100.13414964 371.63576851 102.8102649 363 105.375 C328.84001354 115.5758106 297.75587865 131.62427241 270 154 C269.02675781 154.76828125 268.05351562 155.5365625 267.05078125 156.328125 C256.76575875 164.70363628 247.57985153 174.23498788 238.2890625 183.67919922 C237.53367187 184.44506348 236.77828125 185.21092773 236 186 C235.14148438 186.88059082 234.28296875 187.76118164 233.3984375 188.66845703 C230.2324644 191.74612836 228.1462295 193.30684283 223.75 193.4375 C218.50207966 193.29313973 215.76113287 191.5000508 212 188 C210.93388584 186.81405981 209.88673278 185.61089798 208.85546875 184.39453125 C198.31176064 172.22508006 186.73258161 160.75517109 173.71240234 151.25488281 C171.90204692 149.92821802 170.11663048 148.57201686 168.33203125 147.2109375 C159.90487936 140.83354444 151.2332782 135.13885576 142 130 C141.1646875 129.5344873 140.329375 129.06897461 139.46875 128.58935547 C120.13104642 117.92375064 100.38092984 109.9182832 79.12963867 103.91308594 C72.59065234 102.01532287 66.73595205 99.55027585 60.69848633 96.40258789 C57.41704077 94.69699622 54.09717838 93.24288212 50.6875 91.8125 C49.57761719 91.34457031 48.46773437 90.87664062 47.32421875 90.39453125 C45.0040758 89.42121629 42.67947126 88.45849839 40.3515625 87.50390625 C26.26427593 81.18268792 17.1957548 66.92939125 11.82666016 52.94360352 C10.65066576 49.62183378 9.5310027 46.28731629 8.4375 42.9375 C8.04763916 41.74954834 7.65777832 40.56159668 7.25610352 39.33764648 C3.04252272 26.30395517 -0.96174282 13.86512561 0 0 Z " fill="#FFFFFF" transform="translate(34,319)"/>
<path d="M0 0 C3.56862115 0.14151429 4.81775659 0.81624795 7.359375 3.37890625 C26.35019012 28.66896234 37.74880908 57.57432903 37.375 89.4375 C37.37001495 90.15844849 37.36502991 90.87939697 37.3598938 91.62219238 C37.27334211 102.32146015 36.94297791 112.64526061 34 123 C33.66935547 124.19544434 33.66935547 124.19544434 33.33203125 125.41503906 C26.73534478 148.5819737 15.5028834 167.51273408 -1 185 C-1.67289063 185.73734375 -2.34578125 186.4746875 -3.0390625 187.234375 C-19.73054892 204.86358538 -41.86417074 215.61255006 -65 222 C-66.0216626 222.28810547 -66.0216626 222.28810547 -67.06396484 222.58203125 C-86.62740386 227.80559408 -111.50451336 226.93259301 -131 222 C-129.61253493 217.91062928 -127.7079528 215.23766035 -124.875 212 C-121.56819992 208.04771254 -118.64255658 204.07451255 -115.9375 199.6875 C-114.93976563 198.07681641 -114.93976563 198.07681641 -113.921875 196.43359375 C-112.53122887 193.94908573 -111.43614654 191.71081472 -110.390625 189.09765625 C-108.67586728 185.06587704 -107.12776257 182.14134186 -104 179 C-98.69897333 177.26174094 -92.9325286 177.89842706 -87.43212891 178.03564453 C-67.64248803 177.74561366 -48.28184767 165.51026965 -34.3359375 152.421875 C-15.82050932 133.22527722 -9.4301986 109.71120484 -9.72265625 83.62109375 C-9.95199216 75.55097977 -11.29354999 68.61347151 -14 61 C-14.63615234 59.20755859 -14.63615234 59.20755859 -15.28515625 57.37890625 C-19.71464306 46.11394396 -28.7041207 28.64793965 -40 23 C-39.505 21.515 -39.505 21.515 -39 20 C-36.40840914 18.71180009 -33.86281919 17.58661267 -31.1875 16.5 C-23.87362956 13.40277313 -16.88144883 9.91794246 -9.9375 6.0625 C-8.62591919 5.33546875 -8.62591919 5.33546875 -7.2878418 4.59375 C-3.41591505 2.61400996 -3.41591505 2.61400996 0 0 Z " fill="#FFFFFF" transform="translate(444,135)"/>
<path d="M0 0 C3.71849354 0.58246924 6.47603141 1.61478516 9.73828125 3.4765625 C10.63393799 3.97937744 11.52959473 4.48219238 12.45239258 5.00024414 C13.39622803 5.53641357 14.34006348 6.07258301 15.3125 6.625 C22.82728809 10.83260741 30.31418631 14.71404566 38.33911133 17.85595703 C39.92482231 18.49631194 41.46830342 19.23944803 43 20 C43.495 21.485 43.495 21.485 44 23 C43.30777344 23.51433594 43.30777344 23.51433594 42.6015625 24.0390625 C26.67128401 36.82106461 17.48026113 57.28394968 14 77 C13.05981861 91.34392599 13.15535368 105.3716024 18 119 C18.63615234 120.79244141 18.63615234 120.79244141 19.28515625 122.62109375 C28.2960911 145.53748238 45.75910533 162.32459702 68.03466797 172.17919922 C80.58642607 177.42131236 94.46050399 179.21183045 108 179 C108.30067383 179.55236328 108.60134766 180.10472656 108.91113281 180.67382812 C116.26935004 194.09993273 124.3080426 206.34830823 133.83984375 218.30859375 C135 220 135 220 135 222 C114.6904185 227.13856881 89.26174394 227.71374468 69 222 C67.80238037 221.66935547 67.80238037 221.66935547 66.58056641 221.33203125 C43.41599507 214.7347753 24.48558772 203.50129967 7 187 C6.26265625 186.32710937 5.5253125 185.65421875 4.765625 184.9609375 C-12.86864091 168.26466446 -23.60053769 146.13723728 -30 123 C-30.19207031 122.32420898 -30.38414063 121.64841797 -30.58203125 120.95214844 C-39.5357708 87.7515455 -31.79939488 50.30557363 -15.33984375 20.89453125 C-12.03220097 15.23521986 -8.13065155 10.08630898 -4 5 C-3.25363281 4.06671875 -2.50726563 3.1334375 -1.73828125 2.171875 C-0.87783203 1.09679687 -0.87783203 1.09679687 0 0 Z " fill="#FFFFFF" transform="translate(64,135)"/>
<path d="M0 0 C1.98 0 3.96 0 6 0 C6.29390625 1.2375 6.29390625 1.2375 6.59375 2.5 C13.38847747 28.74170611 28.906846 47.27405735 52 61 C53.98853433 62.02261001 55.98494503 63.03069434 58 64 C53.13995851 76.91315371 44.60143046 87.62205728 34.80078125 97.15234375 C29.83739805 102.24492565 25.44384707 107.88787918 21.37890625 113.71484375 C20.9403833 114.34318115 20.50186035 114.97151855 20.05004883 115.61889648 C19.20284118 116.8447622 18.36492063 118.07711492 17.5378418 119.31665039 C15.08629192 122.88351071 12.99375502 125.26068636 9 127 C6.09765625 127.43359375 6.09765625 127.43359375 3.0625 127.4375 C1.56396484 127.46650391 1.56396484 127.46650391 0.03515625 127.49609375 C-5.0392856 126.66668047 -8.01586534 124.26531599 -11.1328125 120.2578125 C-11.79023438 119.22398437 -12.44765625 118.19015625 -13.125 117.125 C-16.43893936 112.09631056 -19.9958022 107.42876267 -23.9375 102.875 C-24.44659912 102.2867041 -24.95569824 101.6984082 -25.48022461 101.09228516 C-28.63599173 97.48239668 -31.89538662 93.98636852 -35.1875 90.5 C-40.67509432 84.53445391 -44.82695618 77.91240388 -49 71 C-49.57878906 70.07960938 -50.15757812 69.15921875 -50.75390625 68.2109375 C-52 66 -52 66 -52 64 C-50.49373047 63.21689453 -50.49373047 63.21689453 -48.95703125 62.41796875 C-27.12428147 50.791553 -10.28728169 33.89534165 -2.62109375 9.875 C-1.64565255 6.60765539 -0.7880001 3.31789517 0 0 Z " fill="#FFFFFF" transform="translate(253,243)"/>
<path d="M0 0 C0.66 0.66 1.32 1.32 2 2 C0.68 1.67 -0.64 1.34 -2 1 C-1.34 0.67 -0.68 0.34 0 0 Z " fill="#FFFFFF" transform="translate(174,260)"/>
</svg>
