<!-- by TradingView --><svg width="56" height="56" viewBox="0 0 56 56" xmlns="http://www.w3.org/2000/svg"><path fill="#F0F3FA" d="M0 0h56v56H0z"/><path d="M16.47 41c-.5 0-1-.16-1.44-.47a2.42 2.42 0 0 1-.8-3l10.49-23.09c.4-.89 1.26-1.44 2.24-1.44.98 0 1.84.55 2.25 1.44l5.88 12.94c3.29-.64 6.08-.36 7.88 1 1.55 1.18 3.62 4.16.1 10.81a3.38 3.38 0 0 1-3.1 1.8A3.38 3.38 0 0 1 37 39.02l-3.65-8.03c-4.37 1.37-9.88 4.4-15.2 9.35-.47.45-1.06.67-1.67.67ZM36.4 30.26l3.4 7.49a.3.3 0 0 0 .28.18.3.3 0 0 0 .28-.16c.85-1.61 2.63-5.51.75-6.94-.9-.69-2.56-.9-4.71-.57Zm-9.43-13.32-8.74 19.24c4.53-3.77 9.46-6.55 13.85-8l-5.1-11.24Z" fill="#33CCBE"/></svg>