<!-- by TradingView --><svg width="56" height="56" viewBox="0 0 56 56" xmlns="http://www.w3.org/2000/svg"><path fill="#F0F3FA" d="M0 0h56v56H0z"/><path fill="#EA6168" d="M27 12h2v6h-2z"/><path d="m19 14.34 1.73-1 3 5.2-1.73 1-3-5.2ZM19 41.4l1.73 1 3-5.2-1.73-1-3 5.2Z" fill="#04AFA1"/><path d="m37.2 42.2-1.74 1-3-5.2 1.74-1 3 5.2Z" fill="#EE8257"/><path d="M36.73 14 35 13l-3 5.2 1.73 1 3-5.2Z" fill="#EA6168"/><path d="M13 20.73 14 19l5.2 3-1 1.73-5.2-3Z" fill="#04A08E"/><path d="m13 35 1 1.73 5.2-3-1-1.73-5.2 3Z" fill="#CCD400"/><path d="m42.73 35-1 1.73-5.2-3 1-1.73 5.2 3Z" fill="#EB6E5B"/><path fill="#86BE49" d="M12 27h6v2h-6z"/><path fill="#EA6168" d="M44 27h-6v2h6z"/><path fill="#ED9D40" d="M27 38h2v6h-2z"/><path d="M27 21h-4v2h10v-2h-4v-1h-2v1Z" fill="#EA6168"/><path d="M22 26v-2h10.5c1.42 0 2-.5 3-1l5-3.5 1.5 2-4.5 3c-1.2.8-2.83 1.33-3.5 1.5v3c0 1.6-1.33 2-2 2h-7c-1.6 0-2-1.33-2-2v-3h-1ZM25 34a1 1 0 1 1-2 0c0-.55 1-2 1-2s1 1.45 1 2ZM28 34a1 1 0 1 1-2 0c0-.55 1-2 1-2s1 1.45 1 2ZM31 34a1 1 0 1 1-2 0c0-.55 1-2 1-2s1 1.45 1 2ZM34 34a1 1 0 1 1-2 0c0-.55 1-2 1-2s1 1.45 1 2Z" fill="#EA6168"/></svg>