<!-- by TradingView --><svg width="56" height="56" viewBox="0 0 56 56" xmlns="http://www.w3.org/2000/svg"><path fill="#275DB2" d="M0 0h56v56H0z"/><path d="M18 21H7v14h11v-3h-8v-3h7v-3h-7v-2h8v-3ZM30.96 33.77a7 7 0 1 1 1.82-1.82L34 33.17 32.19 35l-1.23-1.23Zm-.37-4a4 4 0 1 0-1.82 1.82L27 29.83 28.81 28l1.78 1.77ZM43.9 21c2.02 0 3.84.88 5.1 2.28l-.62.62A5.98 5.98 0 0 0 38 28a6 6 0 0 0 10.38 4.1l.62.62A6.84 6.84 0 0 1 43.9 35a6.95 6.95 0 0 1-6.9-7c0-3.87 3.1-7 6.9-7Zm3.84 3.56-.76.77A3.99 3.99 0 0 0 40 28a4 4 0 0 0 6.98 2.67l.76.77c-.9.98-2.2 1.56-3.74 1.56-2.91 0-5-2.09-5-5s2.09-5 5-5c1.54 0 2.84.58 3.74 1.56Z" fill="#fff"/></svg>