<!-- by TradingView --><svg width="56" height="56" viewBox="0 0 56 56" xmlns="http://www.w3.org/2000/svg"><path fill="#FF5C56" d="M0 0h56v56H0z"/><path d="M50 28a13 13 0 1 1-26 0 13 13 0 0 1 26 0Z" fill="#00474A"/><path d="M26.32 27.56C26.32 29 27.45 30 29 30c1.2 0 2.1-.72 2.42-1.73h-1.4c-.13.37-.6.6-1.02.6-.58 0-1.06-.33-1.06-.87h3.55c.14-1.41-.78-3-2.48-3 .02 0-.01 0 0 0-1.54 0-2.7 1.2-2.7 2.56Zm2.63-1.4c.48 0 .87.39.9.84H27.94c.04-.46.53-.84 1-.84ZM31.63 25l1.52 2.37L31.5 30h1.63l.86-1.39.84 1.35.02.03h1.65l-1.69-2.66L36.33 25H34.7L34 26.12 33.3 25h-1.67ZM36.57 25l.3 5h1.5l.3-5h-2.1ZM38.6 32a1 1 0 1 1-2 0 1 1 0 0 1 2 0ZM39.8 23.5v1.48H39v1.17h.8v2.6c0 .33.05.64.32.88.32.29.84.37 1.28.37.33 0 .67 0 .98-.09V28.6s-.46.04-.84.04a.13.13 0 0 1-.13-.13v-2.35h.98v-1.17h-.98V23.5H39.8ZM45.33 25c-1.48 0-2.68.98-2.68 2.5 0 1.53 1.2 2.5 2.68 2.5 1.47 0 2.67-.97 2.67-2.5 0-1.51-1.2-2.5-2.67-2.5Zm-.01 1.17c.74 0 1.1.68 1.1 1.33 0 .66-.35 1.33-1.1 1.33-.74 0-1.09-.68-1.09-1.33 0-.67.3-1.33 1.09-1.33ZM29.16 23.5l-.82 1.06h1.02l1.37-1.06h-1.57Z" fill="#FF5C56"/><path d="M16.9 25.51c-.55 0-1.03.22-1.34.57v-.44H15v5.79h.56v-2c.31.35.8.57 1.33.57.66 0 1.22-.33 1.5-.81h.01c.06-.09.1-.18.14-.29l.01-.02.03-.11a3.86 3.86 0 0 0-.04-2.12v-.02c-.2-.65-.86-1.12-1.65-1.12Zm-.04.51c.6 0 1.09.4 1.22.93.08.24.13.53.13.84 0 .37-.06.7-.17.94l-.05.11-.01.03c-.2.39-.63.66-1.12.66-.35 0-.66-.13-.89-.35a.99.99 0 0 1-.25-.35 1.46 1.46 0 0 1-.04-.08v-.02a2.01 2.01 0 0 1-.06-.17l-.02-.04-.01-.04-.02-.05v-.05a2.82 2.82 0 0 1-.07-.6c0-.62.18-1.15.45-1.38l.02-.02c.23-.22.54-.36.89-.36ZM11.16 25.65v3.13c0 .83.74 1.22 1.5 1.22.47 0 1.08-.22 1.34-.78V30h.55v-4.35H14v2.53c-.01.17-.05.35-.1.53-.2.49-.68.83-1.2.81-.53-.01-.98-.37-.98-.86v-3.01h-.56ZM11 25.64c-.65 0-1.22.3-1.44.73v-.64H9V30h.56v-2.62c0-.83.82-1.16 1.44-1.21v-.53ZM6.79 25.7C5.65 25.7 5 26.84 5 27.9 5 29 5.62 30 6.79 30c.55 0 1.03-.26 1.33-.67v1.17c-.04.39-.56.69-1.2.69-.52 0-1.23-.24-1.25-.85h-.51c.01.75.8 1.35 1.76 1.35s1.74-.6 1.76-1.34v-4.62h-.56v.64c-.3-.4-.78-.67-1.33-.67Zm.07.48c.97 0 1.37.92 1.37 1.76 0 .44-.1.82-.26 1.01a1.3 1.3 0 0 1-1.11.62c-.93 0-1.37-.85-1.37-1.67 0-.83.42-1.72 1.37-1.72ZM20.98 25.46c-.99 0-1.8.74-1.92 1.7a3.07 3.07 0 0 0 .1 1.54v.01l.02.07a1.93 1.93 0 0 0 3.5.18c.18-.27.29-.7.29-1.2 0-.3-.04-.57-.11-.8-.2-.86-.97-1.5-1.88-1.5Zm0 .46c.67 0 1.23.5 1.38 1.2a2.54 2.54 0 0 1-.12 1.61c-.24.5-.72.85-1.27.85-.6 0-1.1-.4-1.32-.99l-.02-.05v-.01l-.02-.07a2.47 2.47 0 0 1-.05-1.17c.09-.78.69-1.37 1.41-1.37Z" fill="#00474A"/></svg>