<?xml version="1.0" encoding="UTF-8"?>
<svg version="1.1" xmlns="http://www.w3.org/2000/svg" width="175" height="175">
<path d="M0 0 C57.75 0 115.5 0 175 0 C175 57.75 175 115.5 175 175 C117.25 175 59.5 175 0 175 C0 117.25 0 59.5 0 0 Z " fill="#ED1D24" transform="translate(0,0)"/>
<path d="M0 0 C0.99 0.66 1.98 1.32 3 2 C3.86851253 6.72856821 2.94988941 9.57019304 0.4375 13.5 C-6.75982196 23.3524825 -15.55382491 29.95582593 -27.25 33.8125 C-34.38975131 36.43808596 -37.94596282 42.91894423 -42 49 C-38.49763519 50.7511824 -34.72919026 49.81398569 -31 49 C-28.14729556 47.43380933 -25.84815312 45.76737663 -23.44140625 43.58984375 C-22.02313863 42.32012286 -20.51493558 41.15266837 -19 40 C-16.625 40.1875 -16.625 40.1875 -15 41 C-15 44.86695678 -16.41909971 47.5088452 -18 51 C-16.37457807 50.35522931 -14.74967576 49.70914857 -13.125 49.0625 C-11.76761719 48.52302734 -11.76761719 48.52302734 -10.3828125 47.97265625 C-8.03862333 47.05098738 -8.03862333 47.05098738 -6 46 C-5.773125 44.865625 -5.54625 43.73125 -5.3125 42.5625 C-3.02230904 32.63833919 5.7354732 23.3032325 14.1875 18 C17.05468666 16.98055586 18.98999173 16.5819433 22 17 C24 19 24 19 24 22.125 C22.28516978 31.4698613 12.16564316 40.01857543 5.0234375 45.5234375 C3.71403747 46.39843942 2.36291776 47.21094235 1 48 C1.33 48.66 1.66 49.32 2 50 C3.39664108 49.88437394 4.79231199 49.757008 6.1875 49.625 C6.96480469 49.55539063 7.74210937 49.48578125 8.54296875 49.4140625 C11.3735578 48.93704749 13.48233848 48.40569435 16 47 C17.40062202 44.46610261 17.40062202 44.46610261 18.3125 41.4375 C21.37242008 33.40641639 26.19457993 26.92086217 34 23 C36.74852193 22.64024582 39.2104588 22.85815892 42 23 C43.09149187 26.04058451 43.39138983 28.12899722 42.046875 31.12109375 C37.42560513 38.44656824 31.30311592 45.0960983 23 48 C23 48.66 23 49.32 23 50 C27.77904175 50.31766156 30.5474776 49.56065092 34.6875 47.1875 C36.08548828 46.40439453 36.08548828 46.40439453 37.51171875 45.60546875 C39.66596516 44.21552327 41.29682388 42.89684833 43 41 C44.65 41.66 46.3 42.32 48 43 C47.5359375 43.8971875 47.5359375 43.8971875 47.0625 44.8125 C45.89790296 47.08956772 45.89790296 47.08956772 45 50 C51.74482906 47.95246261 55.96230352 44.89031707 61 40 C62.32 40.66 63.64 41.32 65 42 C63.65342896 45.02803417 62.18155157 47.02428966 59.76953125 49.28515625 C59.13426514 49.89327148 58.49899902 50.50138672 57.84448242 51.12792969 C57.17392822 51.76633789 56.50337402 52.40474609 55.8125 53.0625 C49.75828493 58.95075759 45.09578202 64.58223191 41 72 C40.34 72.99 39.68 73.98 39 75 C37.35 74.67 35.7 74.34 34 74 C34.65375481 70.26299617 36.33286838 67.60409649 38.375 64.4375 C38.98085937 63.48746094 39.58671875 62.53742188 40.2109375 61.55859375 C41.68926946 59.44438539 43.10245652 57.7287436 45 56 C43.02 55.34 41.04 54.68 39 54 C39 53.01 39 52.02 39 51 C38.18208984 51.433125 38.18208984 51.433125 37.34765625 51.875 C31.9311343 54.54159542 27.07259146 56.10410754 21 55 C20.34 54.34 19.68 53.68 19 53 C16.0574037 53.30652045 13.65457692 53.67271154 11 55 C9.02362586 55.12227926 7.0426169 55.17549929 5.0625 55.1875 C3.47115234 55.20876953 3.47115234 55.20876953 1.84765625 55.23046875 C-1 55 -1 55 -4 53 C-4 52.34 -4 51.68 -4 51 C-5.670625 51.99 -5.670625 51.99 -7.375 53 C-12.09127823 55.36234257 -16.79772577 56.02567041 -22 55 C-23.79296875 53.47265625 -23.79296875 53.47265625 -25 52 C-25.94875 52.495 -26.8975 52.99 -27.875 53.5 C-33.2938362 55.82393178 -39.29640968 56.02135634 -44.8125 53.9375 C-45.534375 53.628125 -46.25625 53.31875 -47 53 C-49.86867529 53.34150896 -52.25568776 54.08522925 -55 55 C-57.1415979 55.17032265 -59.28963927 55.26617837 -61.4375 55.3125 C-63.13712891 55.36857422 -63.13712891 55.36857422 -64.87109375 55.42578125 C-68 55 -68 55 -70.37109375 53.16796875 C-72 51 -72 51 -72.625 48 C-72 45 -72 45 -69.5625 42.625 C-64.67105179 40.3938131 -60.15112324 39.86312416 -55.0078125 41.71875 C-54.40710938 41.9971875 -53.80640625 42.275625 -53.1875 42.5625 C-50.27561709 44.19187249 -50.27561709 44.19187249 -48.00390625 43.8125 C-45.50024544 42.79737047 -44.42920241 41.53650301 -42.75 39.4375 C-42.22921875 38.79683594 -41.7084375 38.15617187 -41.171875 37.49609375 C-40.78515625 37.00238281 -40.3984375 36.50867188 -40 36 C-40.556875 35.98582031 -41.11375 35.97164062 -41.6875 35.95703125 C-47.88932417 35.56941724 -52.19693119 33.98193527 -57 30 C-59.66660881 26.92935956 -60.01168927 25.64290985 -59.9375 21.5625 C-58.30326687 15.35241411 -55.62282667 12.15075653 -50.3125 8.6875 C-45.45000135 5.92028309 -41.55635063 5.17923712 -36 5 C-35.505 6.98 -35.505 6.98 -35 9 C-35.72445312 9.23074219 -36.44890625 9.46148437 -37.1953125 9.69921875 C-43.06363004 11.67879787 -47.84883892 13.30263351 -52 18 C-53.40302902 21.48188593 -53.40302902 21.48188593 -53 25 C-49.18464578 29.02570645 -46.11661894 29.54704228 -40.6875 29.75 C-39.43324219 29.80671875 -38.17898437 29.8634375 -36.88671875 29.921875 C-35.45779297 29.96054688 -35.45779297 29.96054688 -34 30 C-33.7525 29.45601562 -33.505 28.91203125 -33.25 28.3515625 C-27.3891106 17.32576432 -14.01193225 -1.91071803 0 0 Z " fill="#FEF3F3" transform="translate(91,53)"/>
<path d="M0 0 C-1.50367974 7.33043876 -6.74384758 12.67892342 -12.6796875 16.91015625 C-19.35106383 21 -19.35106383 21 -22 21 C-18.55069756 13.26630084 -9.36769992 0 0 0 Z " fill="#EE2A30" transform="translate(88,59)"/>
<path d="M0 0 C0.33 0.99 0.66 1.98 1 3 C-0.1171875 4.7265625 -0.1171875 4.7265625 -1.875 6.625 C-2.51308594 7.31851563 -3.15117188 8.01203125 -3.80859375 8.7265625 C-7.48460441 12.54017784 -11.21618722 16.29340789 -15 20 C-15.66 19.67 -16.32 19.34 -17 19 C-12.81949757 12.0652842 -7.44285914 3.72142957 0 0 Z " fill="#EE2A31" transform="translate(108,75)"/>
<path d="M0 0 C0.99 0 1.98 0 3 0 C1.57731065 4.48632152 -0.66247289 7.03803663 -4 10.3125 C-4.886875 11.19550781 -5.77375 12.07851562 -6.6875 12.98828125 C-9 15 -9 15 -11 15 C-9.2645544 8.82952674 -4.42122925 4.42122925 0 0 Z " fill="#EE2F36" transform="translate(125,81)"/>
<path d="M0 0 C8.57142857 -0.28571429 8.57142857 -0.28571429 12 2 C11.67 2.66 11.34 3.32 11 4 C8.78515625 4.44921875 8.78515625 4.44921875 6.0625 4.6875 C4.71865234 4.81705078 4.71865234 4.81705078 3.34765625 4.94921875 C1 5 1 5 -1 4 C-0.67 2.68 -0.34 1.36 0 0 Z " fill="#EE2E34" transform="translate(25,99)"/>
<path d="M0 0 C1.65 0.33 3.3 0.66 5 1 C4.67 2.65 4.34 4.3 4 6 C2.35 5.67 0.7 5.34 -1 5 C-0.67 3.35 -0.34 1.7 0 0 Z " fill="#FEFAFA" transform="translate(78,85)"/>
</svg>
