<!-- by TradingView --><svg width="56" height="56" viewBox="0 0 56 56" xmlns="http://www.w3.org/2000/svg"><path fill="#F0F3FA" d="M0 0h56v56H0z"/><path d="M29 31a3 3 0 1 0 0-6 3 3 0 0 0 0 6Z" fill="#263866"/><path d="M39.7 14.38a3.36 3.36 0 0 0-.78-.63 17.63 17.63 0 0 0-9.5-2.75C19.83 11 12 18.63 12 28c0 9.37 7.82 17 17.43 17 3.03 0 6.02-.77 8.66-2.25.55-.27 1.1-.6 1.53-1.05.11-.12.22-.26.3-.41.3-.64.3-2.22-.3-2.68a.41.41 0 0 0-.28-.07c-.16.01-.37.13-.64.35a14.67 14.67 0 0 1-9.27 3.28c-8 0-14.52-6.35-14.52-14.16 0-7.8 6.51-14.16 14.51-14.16 3.5 0 6.9 1.24 9.55 3.5H39c.12.1.27.17.43.2.1 0 .2-.01.27-.07a.68.68 0 0 0 .2-.25c.41-.8.46-2.16-.2-2.85Z" fill="#7BB931"/><path d="M42 28c0-6.6-5.53-11.97-12.33-11.97-2.32 0-4.58.64-6.55 1.84-.43.3-.88.6-.98 1.14l-.04.35c0 .15 0 .3.02.45.02.41.1.93.46 1.18.4.28.84.02 1.16-.26a9.71 9.71 0 0 1 5.92-2.02c5.28 0 9.58 4.17 9.58 9.3 0 5.13-4.3 9.3-9.58 9.3-2.3 0-4.53-.81-6.29-2.3a.78.78 0 0 0-.89-.05c-.54.39-.55 1.4-.44 1.98.02.11.05.21.1.31 1.23 1.73 5.42 2.74 7.52 2.74C36.46 39.99 42 34.62 42 28" fill="#7BB931"/><path d="M33.85 32.02a.73.73 0 0 0-.23-.27c-.27-.18-.61-.11-.85.09a5.23 5.23 0 0 1-8.7-3.83 5.22 5.22 0 0 1 8.74-3.77c.2.18.59.18.8.03.1-.07.18-.16.24-.27.19-.38.23-.99.05-1.38a1.95 1.95 0 0 0-.55-.57l-.03-.02a7.27 7.27 0 0 0-4.05-1.22A7.24 7.24 0 0 0 22 28a7.28 7.28 0 0 0 11.39 5.93c.2-.14.38-.32.5-.55.2-.4.15-1-.04-1.37Z" fill="#7BB931"/></svg>