<!-- by TradingView --><svg width="56" height="56" viewBox="0 0 56 56" xmlns="http://www.w3.org/2000/svg"><path fill="#0E2166" d="M0 0h56v56H0z"/><path d="M17.87 31.99c0 1.93.71 3.77 3.13 4.01 1.48.15 2.64.25 3.53.33L23 40h-9l3.87-8.01ZM43 40h-9l-6-12-2.37 5.68c-.93-.54-1.93-1.78-1.63-4.18.34-2.75 5.64-6.2 9.35-8.16L43 40ZM31.53 17.83c-2.68.62-6.3 2.11-9.24 5L28 11l3.53 6.83Z" fill="#fff"/><path d="M14 31c0 6.4 11.33 6 17 5-8.8-.4-11-3.83-11-5.5C20 22.1 37.33 16 46 14c-11 .5-32 9-32 17Z" fill="#FCB728"/></svg>