<!-- by TradingView --><svg width="56" height="56" viewBox="0 0 56 56" xmlns="http://www.w3.org/2000/svg"><path fill="#F0F3FA" d="M0 0h56v56H0z"/><path d="M5 31H4l3.5-6 3.5 6h-1l-2.5-4.5L5 31ZM13 25l5 4v-4h1v6l-5-4v4h-1v-6ZM24 26c-1.82 0-3 .54-3 2s1.18 2 3 2c1.53 0 2.26-.39 2.62-.83l.38.87c-.84.67-1.64.96-3 .96-2.19 0-4-.96-4-3 0-2.03 1.81-3 4-3 1.3 0 2.1.25 2.93.9l-.51.64C25.74 25.98 25 26 24 26ZM32 31c-2.22 0-4-.96-4-3s1.85-3 4-3 4 1.02 4 3-1.85 3-4 3Zm0-1c1.85 0 3-.47 3-2s-1.15-2-3-2-3 .53-3 2 1.15 2 3 2ZM42.94 31l-2.1-2H38v2h-1v-6h4.07c1.8 0 2.93.75 2.93 2 0 .99-.83 1.8-2.1 2l2.1 2h-1.06ZM38 28h3.07c1.27 0 1.93-.27 1.93-1s-.66-1-1.93-1H38v2ZM50.5 30H46.5L46 31h-1l3.43-6h.07l3.5 6h-1l-.5-1ZM47 29h3l-1.5-2.5L47 29Z" fill="#42474B"/></svg>