<!-- by TradingView --><svg width="56" height="56" viewBox="0 0 56 56" xmlns="http://www.w3.org/2000/svg"><path fill="#F0F3FA" d="M0 0h56v56H0z"/><path d="M12 31h-1l-1-2H6l-1 2H4l3.5-7h1l3.5 7Zm-5.5-3h3L8 25l-1.5 3ZM29 27.5a2.5 2.5 0 1 0-2.5 2.5v1a3.5 3.5 0 1 1 0-7 3.5 3.5 0 0 1 0 7v-1a2.5 2.5 0 0 0 2.5-2.5ZM51.29 29.27l.7.7A3.51 3.51 0 0 1 46 27.5a3.5 3.5 0 0 1 6-2.48l-.71.71A2.5 2.5 0 0 0 47 27.5a2.5 2.5 0 0 0 4.29 1.77ZM32 24v7h1v-5.5l5 5.5h1v-7h-1v5.5L33 24h-1ZM17.1 28.96 15.5 31H14l2.37-3.01.73.97ZM15.5 24l5.5 7h-1.5L14 24h1.5Zm3.13 3.01-.73-.98L19.5 24H21l-2.37 3.01ZM42 24h1v7h-1z" fill="#233E96"/></svg>