<!-- by TradingView --><svg width="56" height="56" viewBox="0 0 56 56" xmlns="http://www.w3.org/2000/svg"><path fill="#F0F3FA" d="M0 0h56v56H0z"/><path d="m41.94 37.72-27.86.03A16.99 16.99 0 0 1 27.46 11a17 17 0 0 1 14.48 26.72Z" fill="#0B62B3"/><path d="M28 16.91v18.12c-3 .02-6.1.43-9 1.12-.03 0 .02.01 0 0V28.2c0-.03 0-.06-.02-.09a.16.16 0 0 0-.07-.05l-.82-.43a.16.16 0 0 1-.07-.05.15.15 0 0 1-.02-.09v-2.73c0-.03 0-.06.02-.08a.2.2 0 0 1 .05-.07l1.5-1.27a.08.08 0 0 1 .09-.01l1.27.67a.05.05 0 0 0 .05 0l.02-.02v-1.85a.12.12 0 0 1 .05-.1l2.04-1.5a.18.18 0 0 1 .19-.03l1.62.82a.08.08 0 0 0 .07 0l.02-.03V18.86a.17.17 0 0 1 .08-.13L28 16.91Z" fill="#FAFAFA"/><path d="M37 36.08a40.6 40.6 0 0 0-9-1.05V16.91l2.94 1.82c.02.01.04.03.05.06l.01.08v2.38l.02.03.02.03a.06.06 0 0 0 .06 0l1.6-.8a.16.16 0 0 1 .16.02l2.1 1.46c.01.01.03.03.03.05l.01.06v1.8l.02.06.01.02a.05.05 0 0 0 .05 0l1.25-.66a.05.05 0 0 1 .05 0l1.55 1.25c.03.02.04.04.05.06l.02.08v2.77a.1.1 0 0 1-.06.1l-.83.5a.17.17 0 0 0-.07.06c-.01.03-.04.07-.04.1v7.84Z" fill="#B2B8BE"/><path d="M28.03 34.9a35.46 35.46 0 0 1 8.45 1.04 33.8 33.8 0 0 1 5.46 1.78l-1.03 1.33c-3.55-.45-7.05-.6-10.68-.63-4.62-.03-9.21.04-13.85.52l-1.28.16a6.64 6.64 0 0 1-1.02-1.35 37.2 37.2 0 0 1 5.52-1.8 36.51 36.51 0 0 1 8.43-1.05Z" fill="#707A83"/><path d="M40.91 39.05a17.04 17.04 0 0 1-25.8.05c.67-.09 1.1-.15 1.27-.16 4.64-.48 9.23-.55 13.85-.52 3.63.03 7.13.18 10.68.63Z" fill="#0B62B3"/></svg>