<!-- by TradingView --><svg width="56" height="56" viewBox="0 0 56 56" xmlns="http://www.w3.org/2000/svg"><path fill="#F0F3FA" d="M0 0h56v56H0z"/><path d="M30.3 15.42a4.53 4.53 0 0 1-.48-1.94c-.09-1.11-.1-2.12-.18-3.34 0-.1-.07-.15-.15-.14-.09.01-.14.1-.15.2l-.27 3.4a6.58 6.58 0 0 1-.5 2.12c-.28.55-.68.87-1.04 1.4-.25.34-.42.65-.53.88l5-.71-.05-.12a3.1 3.1 0 0 0-.6-.8c-.36-.36-.76-.52-1.04-.95Z" fill="url(#a)"/><path d="M34.56 24 41 27.77V32l-6.44-3.77V24Z" fill="url(#b)"/><path d="M17 26.51 34.56 24v4.23L17 30.73v-4.22Z" fill="#093D5D"/><path d="M35.47 31 44 36.07V41l-8.53-5.07V31Z" fill="url(#c)"/><path d="M35.47 31 12 34.4v4.93l23.47-3.4V31Z" fill="#093D5D"/><path d="M38 20.49 33.65 18v3.52L38 24v-3.51Z" fill="url(#d)"/><path d="M22 19.62 33.65 18v3.52L22 23.13v-3.51Z" fill="#093D5D"/><defs><linearGradient id="a" x1="27" y1="14" x2="32" y2="14" gradientUnits="userSpaceOnUse"><stop stop-color="#093D5D"/><stop offset=".16" stop-color="#0D405F"/><stop offset=".32" stop-color="#194B67"/><stop offset=".49" stop-color="#2E5E74"/><stop offset=".66" stop-color="#4B7786"/><stop offset=".83" stop-color="#70989D"/></linearGradient><linearGradient id="b" x1="34.56" y1="28" x2="41" y2="28" gradientUnits="userSpaceOnUse"><stop offset=".02" stop-color="#3F788D"/><stop offset=".23" stop-color="#568895"/><stop offset=".45" stop-color="#67939B"/><stop offset=".7" stop-color="#719A9E"/><stop offset="1" stop-color="#759DA0"/></linearGradient><linearGradient id="c" x1="35.47" y1="36" x2="44" y2="36" gradientUnits="userSpaceOnUse"><stop offset=".02" stop-color="#3F788D"/><stop offset=".23" stop-color="#568895"/><stop offset=".45" stop-color="#67939B"/><stop offset=".7" stop-color="#719A9E"/><stop offset="1" stop-color="#759DA0"/></linearGradient><linearGradient id="d" x1="33.65" y1="21" x2="38" y2="21" gradientUnits="userSpaceOnUse"><stop offset=".02" stop-color="#3F788D"/><stop offset=".23" stop-color="#568895"/><stop offset=".45" stop-color="#67939B"/><stop offset=".7" stop-color="#719A9E"/><stop offset="1" stop-color="#759DA0"/></linearGradient></defs></svg>