<!-- by TradingView --><svg width="56" height="56" viewBox="0 0 56 56" xmlns="http://www.w3.org/2000/svg"><path fill="#F0F3FA" d="M0 0h56v56H0z"/><path d="M22.3 17.6c.16.03.22.15.2.36-.01.06.05.12.11.1a.1.1 0 0 0 .05-.03c.06-.06.07-.14.02-.24-.03-.07 0-.11.07-.13.22-.04.44-.05.67-.02.07 0 .1.04.09.11-.02.09 0 .18.02.26.03.1.07.1.13.03a.27.27 0 0 0 .04-.27c-.02-.07 0-.1.07-.12l.13-.03c.04-.01.06-.04.06-.08v-1.16c0-.09-.05-.14-.13-.15-.2-.03-.33-.14-.32-.35l-.01-1.22c0-.09.04-.13.12-.13h.83c.13 0 .19.06.17.19-.03.18-.02.36.01.55 0 .03.02.05.05.06a.1.1 0 0 0 .08 0c.06-.03.1-.08.1-.16v-.55a.1.1 0 0 1 .1-.1l.32.01c.1 0 .17-.04.23-.12l1.75-2.54c.03-.05.02-.08-.03-.1l-.05-.03c-.06-.02-.07-.06-.02-.1 0-.01.91-.57.5-.71-.31-.12-.43-.36-.35-.72a.4.4 0 0 1 .35-.34c.04-.01.06-.03.05-.07l-.08-.29a.2.2 0 0 1 .01-.13l.13-.3c.04-.1.1-.1.15-.02l.19.3c.04.05.03.1 0 .16a.7.7 0 0 0-.13.23c-.01.05 0 .08.04.1.1.04.17.05.25.14.23.27.23.54-.01.8-.08.09-.17.11-.27.16a.06.06 0 0 0-.03.04.06.06 0 0 0 .01.05c.15.22.32.4.53.54.05.03.06.06.03.11l-.04.1a.1.1 0 0 0 0 .1l1.74 2.56a.18.18 0 0 0 .15.08h.45a.1.1 0 0 1 .09.09l.02.61c0 .09.04.12.13.1h.05a.07.07 0 0 0 .06-.06c.02-.21.02-.4 0-.59-.03-.1.01-.14.11-.14h.92c.06 0 .1.02.1.09l-.01 1.33c0 .05-.02.08-.04.1a.51.51 0 0 1-.29.16c-.08.02-.13.07-.13.16l-.02 1.17c0 .03.02.06.05.06l.16.04c.05.02.07.05.05.1l-.05.11c-.02.06 0 .1.05.13.03.02.08.04.12.04a.08.08 0 0 0 .07-.03.08.08 0 0 0 .01-.07l-.04-.2c-.02-.04 0-.06.05-.07.2-.05.42-.05.65-.02.05 0 .07.03.07.08l.01.22c0 .06.04.1.1.12.04 0 .07 0 .1-.04a.27.27 0 0 0 0-.26c-.03-.05-.01-.08.04-.1l.2-.06c.05-.01.06-.04.04-.09-.15-.32-.07-.85-.08-1.2 0-.04.02-.06.05-.06a.97.97 0 0 1 .34 0c.06 0 .08.03.07.08l-.03.26a.05.05 0 0 0 .03.05h.02c.14 0 .18-.06.13-.2-.04-.1 0-.17.12-.18.1-.01.18-.05.23-.15l.92-1.66c.03-.06.06-.06.1 0 .28.48.57 1.01.86 1.6.05.12.15.17.27.21a.1.1 0 0 1 .07.1c0 .1 0 .2.04.3a.06.06 0 0 0 .06.03l.03-.01.02-.03.04-.32c0-.07.05-.1.11-.1h.29c.06 0 .1.04.1.11.02.33.05 1-.1 1.23-.17.25-.07.92 0 1.15.07.21-.06.51-.06.75-.01 1 0 2 .01 3.02l-.01 1.4a50.33 50.33 0 0 0 .03 3.84l.1.1c.02.05.04.1.03.15v.18c-.01.06.02.1.08.1l6.6.41s.02 0 .02.02v.04c-.4.04-.8.06-1.2.06A20121.14 20121.14 0 0 1 12 28.76a.04.04 0 0 1 0-.03l-.01-.04v-.02l.03-.01 6.38-.4a.1.1 0 0 0 .08-.06.1.1 0 0 0 0-.04.59.59 0 0 1 .14-.43.17.17 0 0 0 .04-.11c.03-1.14.04-2.35.03-3.63 0-.24-.02-.47-.06-.7-.05-.31.06-.62.06-.93v-2.82c0-.27-.2-.6-.1-.84a2 2 0 0 0 .08-.96c-.03-.17-.16-.25-.17-.42a7.8 7.8 0 0 1-.01-1.03c0-.05.03-.07.07-.07l.42.04c.04 0 .06.03.05.08-.06.19-.05.29.03.3.04 0 .08-.04.08-.08l.01-.2c0-.04.02-.07.06-.1.1-.04.2-.1.25-.2a94.84 94.84 0 0 1 .92-1.62.08.08 0 0 1 .1.03c.3.53.57 1.06.84 1.58.06.1.15.17.25.22.04.02.06.05.05.1v.18c0 .04.01.07.05.1.05.02.08.01.09-.04a.47.47 0 0 0 0-.25c-.03-.07 0-.11.08-.12h.34c.07 0 .12.04.13.1.04.4.02.8-.06 1.18-.01.04 0 .07.05.08Z" fill="#014979"/><path d="M27.7 9.97h.03c.02 0 .03 0 .03.02a.6.6 0 0 1 .07.28.1.1 0 0 1-.06.09.31.31 0 0 1-.24 0c-.1-.03-.12-.09-.07-.18a.49.49 0 0 1 .24-.21Zm3.76 5.53-.02-.67c0-.04.04-.08.08-.08l.47.03c.04 0 .08.04.07.09l-.02.9c0 .05-.04.08-.08.08l-8.14.01a.08.08 0 0 1-.08-.07v-.93a.08.08 0 0 1 .07-.08l.47-.01c.04 0 .08.03.08.07l.01.63a.08.08 0 0 0 .09.08H25a.08.08 0 0 0 .08-.08v-.62a.08.08 0 0 1 .09-.08l.6-.01c.04 0 .08.04.08.08v.63a.08.08 0 0 0 .09.08h.6c.05 0 .08-.03.08-.07v-.63c0-.05.05-.08.09-.08h.69c.04 0 .08.03.08.08v.62c0 .04.04.08.08.08h.63c.04 0 .08-.04.08-.08l.01-.63c0-.04.04-.08.09-.08l.7.01c.04 0 .07.04.07.08v.63c0 .04.04.08.09.08l.62-.02c.04 0 .08-.04.08-.08v-.62c0-.04.05-.08.1-.08l.58.02a.08.08 0 0 1 .08.08v.6c0 .04.04.08.08.08l.6.04c.04 0 .08-.04.08-.09Zm-.59.88v1.27l-.78-.01c-.05 0-.07.02-.07.07.02.11.02.22 0 .32-.01.05-.05.07-.1.04l-.09-.05a.14.14 0 0 1-.06-.13l.01-.17a.09.09 0 0 0-.02-.07.09.09 0 0 0-.07-.02l-.39.01a.09.09 0 0 0-.08.09v.11c-.01.04-.03.07-.08.06-.73 0-1.44 0-2.13-.02-.16 0-.3.01-.45.03-.05.01-.08 0-.09-.06l-.02-.14c-.01-.05-.04-.08-.1-.08h-.4a.06.06 0 0 0-.06.05v.02c.02.1.02.2 0 .3a.1.1 0 0 1-.06.08.1.1 0 0 1-.1-.02c-.1-.08-.12-.2-.06-.33a.07.07 0 0 0 0-.06.07.07 0 0 0-.06-.04h-.67c-.05 0-.08.02-.06.07.02.14 0 .27-.05.39l-.01.02h-.02a.04.04 0 0 1-.04-.02.48.48 0 0 1-.05-.37c.02-.06 0-.08-.06-.09h-.37c-.06 0-.1-.04-.1-.1l.02-1.06c0-.06.03-.09.09-.09h6.58Z" fill="#fff"/><path d="m30.86 17.65.01-1.27h.63a.11.11 0 0 1 .11.1v1.05c0 .06-.03.09-.09.09l-.4.01a.08.08 0 0 0-.06.03.08.08 0 0 0-.02.06c.02.1.02.2 0 .3a.07.07 0 0 1-.12.04c-.13-.08-.15-.22-.06-.41Z" fill="#B5CFEA"/><path d="M21.22 16.94a.05.05 0 0 0 .04-.02l.01-.02v-.03a.45.45 0 0 1-.02-.35c.04-.1.08-.1.13-.01.05.1.07.2.05.33 0 .05.02.08.07.08l.38.03a.1.1 0 0 0 .07-.02.1.1 0 0 0 .03-.07l.03-.35c0-.01 0-.02.02-.02h.03l.01.01.02.66a.07.07 0 0 1-.06.07H22c-.15-.03-.3-.04-.46-.04-.92.03-1.83.03-2.74.02-.07 0-.1-.04-.1-.1.02-.2.05-.38.1-.54 0-.01.01-.02.02-.01.02 0 .02.01.02.03a.45.45 0 0 0-.04.22c.01.05.04.08.09.1.12.02.25.02.37-.01.07-.02.1-.06.09-.13-.02-.1 0-.18.06-.25.07-.1.13-.09.18.02.03.09.05.17.03.26 0 .06.02.09.08.1l.4.02c.07 0 .1-.03.1-.08l.04-.3a.1.1 0 0 1 .07-.08.28.28 0 0 1 .24.01.1.1 0 0 1 .06.1l.03.25c0 .04.03.06.07.07l.51.05Zm13.42-.04h.45a.07.07 0 0 0 .06-.08c-.04-.25.04-.38.23-.38.14 0 .2.09.2.25-.01.12.04.18.16.2l.3.04c.04.01.06 0 .06-.05.01-.08-.03-.41.1-.44h.01c.08.01.13.06.15.15l.03.28c0 .05.03.07.07.08.2.01.38-.02.55-.08.03-.02.05 0 .06.03.02.1 0 .2-.06.26a.17.17 0 0 1-.12.05h-3.12a.13.13 0 0 1-.12-.12v-.12a.09.09 0 0 1 .1-.09c.15.04.3.04.47 0 .05 0 .07-.03.07-.09l-.02-.17c0-.11.22-.28.25-.1l.06.33c0 .04.02.05.06.05Zm1.19.74c.12.05.24.08.36.08a.12.12 0 0 1 .11.12v.79l-2.32-.01c-.05 0-.07-.03-.07-.08v-.81c0-.05.02-.08.07-.08l1.85-.01Zm-16.82 0 2.77.03a.07.07 0 0 1 .07.07v.79a.07.07 0 0 1-.07.07l-2.77.04a.07.07 0 0 1-.07-.07v-.86a.07.07 0 0 1 .04-.07h.03Z" fill="#fff"/><path d="M36.3 18.63v-.8a.12.12 0 0 0-.11-.11.98.98 0 0 1-.36-.08h.86c.08 0 .13.05.13.14v.72c0 .08-.04.12-.12.12h-.4Z" fill="#B5CFEA"/><path d="m26.1 18.2.03-.34c0-.01 0-.02.02-.02l.04-.01a.06.06 0 0 1 .06.01l.02.03v.03l-.06.64c0 .04-.03.06-.08.06a8.98 8.98 0 0 0-.98-.03c-.97.03-1.92.04-2.9.04-.05 0-.08-.03-.08-.09l-.02-.64c0-.03.02-.05.05-.04h.05l.01.01a1 1 0 0 0 .04.39l.04.04a.1.1 0 0 0 .05.02h.45c.12 0 .16-.06.12-.17a.21.21 0 0 1 .05-.27.16.16 0 0 1 .27.1l.01.24a.09.09 0 0 0 .09.09h.5c.04 0 .06-.02.06-.06v-.25c0-.08.05-.12.12-.12h.34c.07 0 .1.03.1.1 0 .1 0 .18.02.25l.02.05.05.02.43.04c.05 0 .08-.02.08-.07v-.32a.11.11 0 0 1 .1-.1l.1-.01a.1.1 0 0 1 .07.03.1.1 0 0 1 .03.07l.02.3c0 .06.03.09.09.09h.47c.07 0 .1-.03.12-.1Zm3.37.2c.02-.17.04-.2.06-.13l.6.03c.05 0 .08-.03.09-.08l.03-.3c0-.08.05-.12.13-.1h.08c.08.01.13.06.13.14l.01.25c0 .05.03.07.08.07l.5.02c.05 0 .08-.03.09-.08l.02-.3c0-.05.04-.08.1-.09h.32c.05 0 .07.01.08.06l.05.27c.01.08.06.12.13.13l.45.02c.06 0 .09-.02.08-.08l-.02-.26c0-.09.03-.14.12-.14h.05c.08-.01.12.02.13.1l.02.31c0 .05.03.08.08.08h.49c.08-.01.11-.05.1-.13a.6.6 0 0 1 .08-.34c.03-.05.04-.04.05.02.02.21.01.42 0 .63a.1.1 0 0 1-.13.09c-1.3.02-2.64.01-3.93.02-.03 0-.06-.02-.07-.06a.3.3 0 0 1 0-.16Z" fill="#fff"/><path d="M29.53 18.27c-.02-.08-.04-.04-.06.12l-.08-.45c0-.03 0-.05.02-.07l.03-.01c.03 0 .04 0 .06.03.06.1.07.22.03.38Z" fill="#B5CFEA"/><path d="m26.55 18.12 2.58.03c.05 0 .08.04.08.08v.35c0 .05-.03.08-.07.09l-2.6.03a.08.08 0 0 1-.08-.08v-.42l.01-.03a.08.08 0 0 1 .08-.05Zm-4.77.71H19a.08.08 0 1 0 0 .17h2.78c.04 0 .08-.04.08-.09a.08.08 0 0 0-.08-.08Z" fill="#fff"/><path d="M26.06 18.83h-3.59a.07.07 0 1 0 0 .14h3.6c.03 0 .06-.03.06-.07a.07.07 0 0 0-.07-.07Zm7.15.01h-3.56a.06.06 0 1 0 0 .12h3.56c.04 0 .06-.02.06-.06a.06.06 0 0 0-.06-.06Z" fill="#B5CFEA"/><path d="M36.73 18.83h-2.78a.08.08 0 0 0 0 .16h2.78c.05 0 .08-.04.08-.08a.08.08 0 0 0-.08-.08Z" fill="#fff"/><path d="M29.3 18.96h-2.9a.08.08 0 0 0 0 .16h2.9c.04 0 .07-.03.07-.07a.08.08 0 0 0-.08-.09Z" fill="#B5CFEA"/><path d="M25.43 19.17a21.31 21.31 0 0 0 0 3.61l-2.92.05-.01-3.56c0-.06.03-.1.1-.1h2.83Z" fill="#fff"/><path d="M25.9 22.85a1.08 1.08 0 0 0-.47-.06 21.3 21.3 0 0 1 0-3.62h.4c.06 0 .09.04.09.09l-.02 3.59Z" fill="#B5CFEA"/><path d="M32.8 19.17c-.04.2-.07.37-.07.53-.02.92-.02 1.85 0 2.77a.8.8 0 0 0 .08.23c.03.04.02.07-.02.09a.26.26 0 0 1-.1.02l-2.7.02a.1.1 0 0 1-.1-.1l-.02-3.49a.07.07 0 0 1 .04-.06h2.9Z" fill="#fff"/><path d="m33.26 19.23-.04 3.01v.46a.12.12 0 0 1-.13.12h-.4l.1-.03c.04-.02.04-.05.02-.09a.49.49 0 0 1-.07-.23c-.03-.92-.03-1.85-.01-2.77 0-.16.03-.34.08-.53a.9.9 0 0 1 .45.06Z" fill="#B5CFEA"/><path d="M21.83 21.17v1.58c0 .02 0 .03-.02.04a.05.05 0 0 1-.03.01H19c-.04 0-.06-.02-.06-.07V19.4c0-.05.03-.07.07-.07.93-.03 1.84-.02 2.75 0 .04 0 .06.03.06.07v1.78Zm14.48-1.85v3.47h-2.36c-.04 0-.06-.02-.06-.06v-3.39l.03-.01h2.4Z" fill="#fff"/><path d="M36.32 22.8v-3.48l.41.01c.05 0 .08.03.08.07l-.02 3.33c0 .02 0 .03-.02.04a.06.06 0 0 1-.03.01l-.42.01Z" fill="#B5CFEA"/><path d="M29.27 19.36c0 .07-.03.15-.09.24a.19.19 0 0 0-.03.1v2.76c0 .04.02.07.03.1.06.09.1.17.1.24l-3.13.01v-3.39c0-.04.02-.05.05-.05l3.07-.01Z" fill="#fff"/><path d="M29.54 22.7c-.02.07-.1.11-.25.1a.73.73 0 0 0-.1-.24.2.2 0 0 1-.03-.1v-2.75c0-.04 0-.08.02-.1a.5.5 0 0 0 .09-.25.84.84 0 0 1 .28 0c.04 0 .06.02.06.06l-.07 3.27Z" fill="#B5CFEA"/><path d="M29.54 22.7c.06.21-.04.4-.27.41a88.45 88.45 0 0 1-2.98 0 .1.1 0 0 1-.04-.03.71.71 0 0 1-.1-.27h3.14c.15 0 .23-.04.25-.12Zm-4.11.09c.16-.02.31 0 .47.06l-.03.24c0 .04-.03.05-.07.05a63 63 0 0 1-1.54-.02c-.27 0-.54 0-.8.02a3.55 3.55 0 0 1-.89-.06.08.08 0 0 1-.02-.05l-.04-.2 2.92-.04Z" fill="#9A9A9A"/><path d="M21.74 23H19a.07.07 0 0 0-.07.07v.06c0 .04.03.07.07.07h2.74c.04 0 .07-.03.07-.06v-.07a.07.07 0 0 0-.07-.07Z" fill="#fff"/><path d="m36.7 23.01-2.7-.03c-.05 0-.1.04-.1.09v.05c0 .05.05.09.1.09l2.7.03c.06 0 .1-.04.1-.09v-.05c0-.05-.04-.09-.1-.09Z" fill="#B5CFEA"/><path d="M25.41 23.46a29.94 29.94 0 0 0-.02 3.46c0 .05-.04.07-.13.07h-2.68c-.02 0-.04 0-.06-.02a.08.08 0 0 1-.02-.05v-3.4c0-.04.05-.09.1-.09l2.81.03Z" fill="#fff"/><path d="M25.26 27c.09 0 .13-.03.13-.08-.06-1.15-.05-2.3.02-3.46l.42-.02a.09.09 0 0 1 .1.08l-.02 3.4a.1.1 0 0 1-.06.09.1.1 0 0 1-.03 0l-.56-.02Z" fill="#B5CFEA"/><path d="m29.16 23.43-.03 1.86c-.01.19 0 .37.03.56.03.18.04.38.03.59 0 .06 0 .11.02.16a.4.4 0 0 0 .1.12c.06.04.06.12 0 .23l-.32.03h-.03a.09.09 0 0 1-.06-.08c.02-.35.02-.7 0-1.02-.05-1.15-2.12-1.16-2.05.21.02.28.02.57 0 .85 0 .02 0 .03-.02.03l-.66.04c-.02 0-.03-.01-.03-.03V23.5l.02-.04a.05.05 0 0 1 .04-.01l2.96-.02Z" fill="#fff"/><path d="M29.31 26.95c.06-.1.06-.19 0-.23a.28.28 0 0 1-.1-.12.34.34 0 0 1-.02-.16c.01-.2 0-.4-.03-.6a2.78 2.78 0 0 1-.03-.55l.03-1.86.27.01a.16.16 0 0 1 .16.15c.07 1.1-.02 2.22 0 3.3.01.04 0 .06-.04.07a.63.63 0 0 1-.24 0Z" fill="#B5CFEA"/><path d="M32.94 23.46c-.06-.03-.1.01-.14.1a37.48 37.48 0 0 0 0 3.11.1.1 0 0 0 .13.05.17.17 0 0 0 .1-.09c.01-.04.04-.05.09-.04.03.01.06.03.09.07.02.1.01.2-.02.27a.08.08 0 0 1-.08.06h-3.19l-.04-.03a.06.06 0 0 1-.02-.04l.01-3.4c0-.04.03-.07.07-.07h3Z" fill="#fff"/><path d="M33.21 26.66a.24.24 0 0 0-.1-.07c-.04-.01-.07 0-.09.04a.17.17 0 0 1-.1.1.1.1 0 0 1-.11-.05 37.48 37.48 0 0 1 0-3.11c.03-.1.07-.14.13-.11h.22a.06.06 0 0 1 .06.06l-.01 3.14Z" fill="#B5CFEA"/><path d="M21.81 26.92c0 .03-.01.05-.04.06H19a.06.06 0 0 1-.06-.06v-3.36c0-.03.03-.06.06-.06h2.76c.03 0 .06.04.06.07v3.35ZM36.2 23.5c.1.04.15.08.15.14.03.54.05 1.43.05 2.65 0 .13-.01.36-.04.7l-2.35-.02a.12.12 0 0 1-.12-.12v-3.3c0-.04.02-.06.06-.06l2.25.01Z" fill="#fff"/><path d="M36.36 26.98c.03-.33.04-.56.04-.7 0-1.21-.02-2.1-.05-2.64 0-.06-.05-.1-.15-.14h.53a.1.1 0 0 1 .08.05.1.1 0 0 1 .01.04l-.02 3.27c0 .03-.02.06-.04.08a.12.12 0 0 1-.08.04h-.32Z" fill="#B5CFEA"/><path d="M18.93 27.44a.08.08 0 0 1 .08-.08h1.74a8.95 8.95 0 0 1 1.03.07c.05.02.08.03.08.05v.12c0 .04-.12.07-.33.1-.2.02-.49.03-.78.03H19a.08.08 0 0 1-.08-.07v-.22Zm6.85-.09h-3.17a.11.11 0 0 0-.11.12v.17c0 .06.05.11.1.11h3.18c.06 0 .11-.05.11-.11v-.18a.11.11 0 0 0-.1-.1Zm1.1.14v.46a.14.14 0 0 1-.13.14l-.34.01a.14.14 0 0 1-.14-.1l-.14-.49a.14.14 0 0 1 .14-.17l.48.01a.14.14 0 0 1 .13.14Zm2.98-.06c0-.05.04-.09.09-.09h2.33c.28 0 .6 0 .87.1.05.01.07.03.07.05v.14c0 .15-.85.13-.94.13h-2.33a.09.09 0 0 1-.09-.1v-.23Zm6.79-.07H34a.14.14 0 0 0-.13.14v.07c0 .08.06.14.13.14h2.64c.08 0 .14-.07.14-.14v-.07a.14.14 0 0 0-.14-.14Zm-7.15.02-.52-.01a.06.06 0 0 0-.06.05l-.01.57c0 .04.02.06.05.06l.53.01c.03 0 .06-.02.06-.05v-.57a.06.06 0 0 0-.05-.06Z" fill="#fff"/><path d="M25.84 27.94H22.6a.07.07 0 1 0 0 .14h3.24c.04 0 .07-.03.07-.07a.07.07 0 0 0-.07-.07Zm-4.02.01h-3.05a.06.06 0 0 0 0 .12h3.05c.03 0 .06-.03.06-.06a.06.06 0 0 0-.06-.06Zm11.3-.01-3.18.01a.06.06 0 1 0 0 .12h3.18c.03 0 .06-.03.06-.06a.06.06 0 0 0-.06-.07Zm3.85.01h-3a.07.07 0 1 0 0 .14h3c.03 0 .06-.04.06-.07a.07.07 0 0 0-.06-.07Z" fill="#B5CFEA"/><path d="M27.6 17.65a.09.09 0 0 1-.08-.09v-.67a.3.3 0 0 1 .1-.21.31.31 0 0 1 .21-.1h.03c.08 0 .16.04.22.1.06.05.1.13.1.21v.67a.09.09 0 0 1-.1.09h-.47Zm7.58.78a.13.13 0 0 1-.13-.14v-.14c0-.08.04-.16.09-.22a.27.27 0 0 1 .2-.08h.04c.17 0 .28.16.28.32v.14a.13.13 0 0 1-.14.13h-.34Zm-14.95-.02a.1.1 0 0 1-.1-.11l.01-.16a.3.3 0 0 1 .1-.22.28.28 0 0 1 .21-.08h.04a.3.3 0 0 1 .2.11c.05.07.08.15.07.23l-.01.16a.1.1 0 0 1-.11.1l-.41-.03Zm3.78 2.49a.09.09 0 0 1-.06-.03.08.08 0 0 1-.02-.06v-.6l.02-.14a.48.48 0 0 1 .04-.12.24.24 0 0 1 .06-.08.11.11 0 0 1 .08-.02h.09c.05 0 .1.04.13.1a.7.7 0 0 1 .05.26l-.01.61a.08.08 0 0 1-.09.08h-.29Zm.01 1.42a.1.1 0 0 1-.09-.1v-.69l.03-.1a.29.29 0 0 1 .04-.09.21.21 0 0 1 .07-.06.16.16 0 0 1 .08-.02h.04c.05 0 .1.03.14.08.04.06.06.13.06.2v.69a.1.1 0 0 1-.03.07.1.1 0 0 1-.07.02h-.27Zm7.32-1.42a.07.07 0 0 1-.06-.07v-.64l.03-.13c.04-.15.12-.22.26-.22.06 0 .11.04.15.11a.5.5 0 0 1 .06.25l-.02.64a.07.07 0 0 1-.07.07l-.35-.01Zm.04 1.43a.1.1 0 0 1-.1-.1l.02-.67c0-.08.02-.15.06-.2.04-.06.1-.1.15-.09h.06c.14 0 .2.18.2.3v.66a.1.1 0 0 1-.1.1h-.29Z" fill="#014979"/><path d="M21.51 19.53a.13.13 0 0 0-.13.12v2.84c0 .07.05.13.12.13.08 0 .13-.06.13-.13v-2.84a.13.13 0 0 0-.12-.12Z" fill="#B5CFEA"/><path d="M20.56 19.85h-.22a.2.2 0 0 0-.2.2v2.1c0 .1.08.2.2.2h.21a.2.2 0 0 0 .2-.2l.01-2.1a.2.2 0 0 0-.2-.2Zm14.9 0h-.2a.2.2 0 0 0-.2.2v2.08c0 .12.08.2.2.2h.2a.2.2 0 0 0 .2-.2v-2.08a.2.2 0 0 0-.2-.2Zm-7.99 2.48a.12.12 0 0 1-.12-.12v-1.85c0-.25.18-.5.45-.5h.1c.27 0 .45.25.45.5v1.85c0 .06-.05.12-.12.12h-.76Zm-3.52 4.22a.1.1 0 0 1-.1-.1v-2.1a.3.3 0 0 1 .09-.2.28.28 0 0 1 .2-.1h.05a.28.28 0 0 1 .2.1.3.3 0 0 1 .09.2v2.1a.1.1 0 0 1-.1.1h-.43Zm7.38 0a.11.11 0 0 1-.1-.11v-2.06l.01-.13a.34.34 0 0 1 .06-.1.26.26 0 0 1 .08-.07.2.2 0 0 1 .1-.02h.1c.07 0 .14.03.19.1.04.05.07.13.07.22v2.06a.1.1 0 0 1-.11.1h-.4Z" fill="#014979"/><path d="M21.53 23.75a.11.11 0 0 0-.12.11v2.72c0 .06.05.1.1.1h.01c.06 0 .11-.04.11-.1v-2.72a.11.11 0 0 0-.1-.1Z" fill="#B5CFEA"/><path d="M20.27 26.55a.13.13 0 0 1-.13-.13v-2.05c0-.15.1-.32.27-.31h.08c.07 0 .14.03.2.09.04.06.07.14.07.22v2.05a.13.13 0 0 1-.13.13h-.36Zm15.19-2.48h-.2a.2.2 0 0 0-.2.2v2.1c0 .1.08.19.2.19h.2a.2.2 0 0 0 .2-.2v-2.1a.2.2 0 0 0-.2-.2ZM41 37h.5v3.5H43v.5h-2v-4Zm-3 1.05-.69 1.36h1.37l-.69-1.36ZM38 37l2 4h-.53l-.58-1.16h-1.8L36.52 41H36l2-4Zm-5.94 0h2.37v.4h-.93V41H33v-3.6h-.94V37ZM29 37h.5v4H29v-4Zm-4.5 1.8h.37c.44 0 .7-.25.7-.69 0-.44-.24-.67-.72-.67h-.35v1.36ZM24 37h.84c.73 0 1.16.4 1.16 1.1 0 .71-.43 1.13-1.16 1.13h-.34V41H24v-4Zm-4 1.05-.69 1.36h1.37l-.69-1.36ZM20 37l2 4h-.53l-.58-1.16h-1.8L18.52 41H18l2-4Zm-5 3.23v.5c-.34.17-.73.27-1.04.27A1.96 1.96 0 0 1 12 39.09c0-1.1.77-2.09 1.9-2.09.38 0 .62.05 1 .21l.1.04v.51a1.8 1.8 0 0 0-1.04-.32c-.86 0-1.46.66-1.46 1.53 0 .92.58 1.58 1.47 1.58.36 0 .62-.08 1.03-.32ZM39 31l3.5 3.76V31h.5v5l-3.5-3.72V36H39v-5Zm-5.48.5c-1.2.04-2.02.87-2.02 2.01 0 1.11.87 1.99 1.99 1.99 1.14 0 2.01-.86 2.01-1.97 0-1.07-.9-2.03-1.98-2.03Zm-.02-.5a2.48 2.48 0 0 1 2.5 2.52A2.42 2.42 0 0 1 33.5 36a2.43 2.43 0 0 1-2.5-2.51c0-1.4 1.11-2.48 2.5-2.48Zm-8 .54v1.7h.63c.77 0 1.1-.26 1.1-.86 0-.59-.34-.84-1.12-.84h-.6ZM25 31h1.12c1.14 0 1.73.47 1.73 1.39 0 .8-.48 1.27-1.4 1.38L28 36h-.69l-1.53-2.2h-.28V36H25v-5Zm-4.5 1.3-.86 1.71h1.7l-.85-1.7Zm0-1.3 2.5 5h-.67l-.72-1.45h-2.24L18.64 36H18l2.5-5Zm-7 .5v1.66h.6c.52 0 .9-.36.9-.85 0-.48-.33-.81-.98-.81h-.52Zm0 2.22v1.78h.55c.9 0 1.45-.34 1.45-.93 0-.57-.53-.85-1.4-.85h-.6ZM13 31h.97c1.05 0 1.53.47 1.53 1.29 0 .45-.07.77-.5 1.03.56.22 1 .6 1 1.25 0 .83-.68 1.42-1.64 1.42H13v-5Z" fill="#014979"/></svg>