<!-- by TradingView --><svg width="56" height="56" viewBox="0 0 56 56" xmlns="http://www.w3.org/2000/svg"><path fill="#F0F3FA" d="M0 0h56v56H0z"/><path d="M21.5 15c1.3.18 2.69.69 4.2 1.52l4.73 2.62c.38.23.67.42.87.57.15.11.17.24.05.39-.27.34-.64.58-1.12.73-1.05.34-1.8.67-2.26 1a2.6 2.6 0 0 0-1.14 2.01l-.02.28c-.04.64-.1 1.1-.15 1.4-.1.5-.27.87-.5 1.12l-.54.5c-.43.39-.72.7-.87.94-.26.4-.38.88-.38 1.43 0 .25.1.67.3 1.28a3.5 3.5 0 0 1-.1 2.42c-.3.73-.81 1.4-1.55 1.98-.12.1-.38.24-.79.45l-.43.23c-.3.16-.61.51-.97 1.06l-.14.22c-.2.3-.43.46-.7.48-.17.02-.44-.02-.82-.13l-.18-.05a.14.14 0 0 0-.13.02.14.14 0 0 0-.06.12c0 .33-.13.5-.38.53a.7.7 0 0 0-.3.1.15.15 0 0 0-.06.05l-.37.65a.15.15 0 0 1-.14.07H16a.11.11 0 0 1-.1-.05.1.1 0 0 1 0-.12l.18-.32c.05-.08.03-.14-.07-.16-.3-.06-.47.11-.53.5-.02.1-.08.16-.19.16h-.54a.13.13 0 0 1-.12-.06.12.12 0 0 1-.01-.12c.21-.6.58-1.14 1.08-1.63.3-.3.87-.75 1.68-1.32l.7-.5c.17-.14.29-.33.33-.58.01-.05 0-.1-.03-.13l-.7-1.04a.13.13 0 0 0-.1-.06h-.07a.08.08 0 0 0-.07.04.08.08 0 0 0 0 .09l.48.83c.02.04.01.06-.04.06h-.7a.24.24 0 0 1-.2-.1l-.66-.88a.14.14 0 0 0-.15-.06c-.08.03-.1.07-.06.15l.52.83c.04.05.02.08-.04.08h-.3a.35.35 0 0 1-.3-.14 10.7 10.7 0 0 1-1.22-2.15 5.57 5.57 0 0 0-.28-.52c-.3-.52-.46-.92-.46-1.21v-1.42c-.02-.36-.1-.7-.25-1.02a6.9 6.9 0 0 0-.55-.94c-.27-.4-.42-.96-.45-1.7-.02-.56-.1-.98-.22-1.25-.1-.22-.26-.3-.5-.27l-1.06.18v-.36c.1-.32.24-.6.43-.84.04-.06.05-.12 0-.17A2.69 2.69 0 0 1 11.1 21c.06-.62.24-1.21.54-1.76a.2.2 0 0 1 .11-.1.24.24 0 0 1 .2.03c.07.04.1.1.11.17.02.4.1.77.25 1.1.02.04.04.05.07.05.03 0 .05-.01.06-.04a3.8 3.8 0 0 1 1.77-1.67c.7-.35 1.5-.54 2.43-.6 1.82-.1 3.55.28 5.18 1.1.05.03.09.02.11-.02l.03-.04c.01-.03 0-.05-.02-.07a8.92 8.92 0 0 0-4.83-1.57.24.24 0 0 1-.23-.15.24.24 0 0 1 .03-.27A5.43 5.43 0 0 1 20.63 15h.87Zm2.3 20.24c.03.01.05.04.04.07a4.1 4.1 0 0 0 .3 1.76c.11.32-.1.59-.66.82-.18.08-.35.21-.5.4-.15.18-.26.36-.31.54-.04.1-.1.15-.22.15h-.85a.11.11 0 0 1-.1-.05.1.1 0 0 1 0-.11c.06-.1.1-.18.11-.23.04-.11.01-.2-.1-.24-.1-.05-.19-.03-.25.07l-.28.5a.12.12 0 0 1-.11.06h-.4c-.07 0-.1-.04-.08-.11.2-.82.6-1.55 1.2-2.2.22-.25.65-.55 1.28-.9.39-.23.67-.4.85-.53a.08.08 0 0 1 .09 0Zm11.12-3.51c.53.04.95.16 1.27.34.32.2.63.52.94.98.26.4.64.79 1.12 1.17.08.06.1.13.07.21-.15.42-.33.75-.55.99-.17.18-.47.42-.9.7-.26.17-.46.4-.6.68l-.17.37c-.18.41-.37.71-.58.9-.23.2-.37.46-.42.8-.02.07-.07.11-.15.11H33.7a.1.1 0 0 1-.09-.05.1.1 0 0 1 0-.1l.21-.36a.1.1 0 0 0 0-.1.1.1 0 0 0-.09-.05h-.08a.33.33 0 0 0-.31.18l-.24.4a.15.15 0 0 1-.14.08h-.53a.1.1 0 0 1-.1-.14c.2-.44.46-.83.8-1.15.63-.58 1.18-1.14 1.66-1.67.55-.62.84-1.3.86-2.06a2.96 2.96 0 0 0-.8-2.12.06.06 0 0 1 0-.07.06.06 0 0 1 .07-.04Zm-3.05-11.25c.05-.05.1-.05.16-.01a23.9 23.9 0 0 0 4.22 2.28c.15.06.85.41 2.1 1.04 1.5.77 2.37 1.85 2.6 3.25.06.4-.07 1.2-.38 2.37l-.21.85c-.08.31-.06.6.05.87.1.23.3.49.59.76.38.37.94.92 1.66 1.65.18.18.2.38.08.6l-.37.64a.53.53 0 0 0 .04.64l.03.04c.38.5.63.89.74 1.17.2.52.09.87-.34 1.05a.16.16 0 0 0-.05.03l-.66.62a.28.28 0 0 0-.08.12l-.12.43c-.02.07-.06.1-.13.1h-1.32c-.08 0-.11-.04-.09-.12l.12-.4c.02-.09-.01-.13-.1-.13h-.12c-.13 0-.2.07-.24.19l-.1.32c-.02.1-.09.14-.19.14h-.34a.13.13 0 0 1-.11-.06.13.13 0 0 1-.02-.12 5.9 5.9 0 0 1 .9-1.7c.57-.74.5-1.41-.2-2.03l-2.05-1.82a1.4 1.4 0 0 1-.2-.22l-.18-.26c-.3-.42-.55-.71-.73-.87a2.18 2.18 0 0 0-1.01-.5 3.56 3.56 0 0 0-2 .15c-.41.14-1.02.47-1.82.96l-.44.27c-.32.19-.67.3-1.07.34-.23.03-.6.03-1.07.01a4.8 4.8 0 0 0-1.7.14c-.22.08-.56.32-1.03.72a2.9 2.9 0 0 1-2.44.84.06.06 0 0 1-.05-.04l.01-.06a3.82 3.82 0 0 0 1.08-2.86 5.2 5.2 0 0 0-.23-1.1 5.7 5.7 0 0 1-.19-.76c-.12-.96.17-1.74.89-2.33.42-.35.71-.64.88-.86.28-.35.44-.73.5-1.15.11-1 .19-1.62.23-1.86.1-.7.47-1.26 1.12-1.67.42-.27 1.1-.54 2.02-.8.54-.16 1-.44 1.36-.86Zm9.1 5.27c.5.29.92.61 1.27.98.56.61.56 1.44-.02 2.5-.56 1.03-.4 1.73.48 2.11.24.1.45.06.63-.14.33-.37.63-.63.88-.77.33-.18.72-.24 1.16-.18.7.1 1.24.46 1.62 1.09.01.02.01.04 0 .07a.06.06 0 0 1-.07.01c-.3-.11-.55-.12-.75-.03-.12.05-.26.19-.43.4-.22.26-.42.42-.6.49-.68.23-1.31.17-1.9-.2a.63.63 0 0 0-.27-.1c-.37-.03-.64-.1-.83-.18a1.45 1.45 0 0 1-.63-.6c-.22-.38-.3-.78-.24-1.2.04-.26.16-.64.38-1.13l.23-.55c.22-.6.09-1.06-.4-1.38-.08-.06-.15-.1-.19-.15a.56.56 0 0 1-.13-.21l-.27-.76c0-.02 0-.05.02-.06a.06.06 0 0 1 .07 0Zm-21.46-2.33a4.8 4.8 0 0 0-4.94-.28c-.05.02-.06.05-.03.1l.03.05c.01.02.03.02.05.01a4.72 4.72 0 0 1 4.73.54.2.2 0 0 0 .12.04h1.19c.05 0 .09.02.1.07.01.05 0 .09-.05.12l-.38.21c-.07.05-.09.1-.05.18l.03.06c.02.04.01.06-.01.09l-1.05 1.05a.06.06 0 0 1-.07.01c-.03 0-.04-.03-.04-.06l.09-.88a.35.35 0 0 0-.11-.3.36.36 0 0 0-.3-.1c-.73.07-1.18.42-1.35 1.05-.03.13-.05.33-.05.6 0 .43-.06.73-.17.9-.1.14-.16.24-.18.3a.28.28 0 0 0 0 .19 1.8 1.8 0 0 1-.17 1.53.11.11 0 0 0 .01.13c.03.04.07.06.12.05l.54-.08c.04 0 .07.01.1.05.03.07.02.14-.02.21-.04.07-.1.1-.18.08-.54-.1-1.08-.1-1.6.02-.02 0-.04.01-.04.04v.06c0 .05.01.07.06.07l.84.06h.05c.31-.1.64-.1.98-.03.06.01.1.05.14.1.02.06.02.12-.01.17-.3.55-.69.64-1.15.3a.17.17 0 0 0-.2-.02l-.37.21a.36.36 0 0 1-.36-.03.06.06 0 0 0-.07 0c-.02.02-.03.04-.02.07a.7.7 0 0 0 .14.35c.05.05.11.06.18.04l.29-.17c.12-.08.24-.1.36-.06.11.04.2.12.25.26.02.05.06.07.12.06a.8.8 0 0 1 .36.01c.2.05.33-.02.38-.22l.21-.73c.03-.09.08-.12.17-.12l.06.01c.06 0 .1.03.13.08.04.04.04.1.03.15l-.18.62c-.01.06 0 .1.05.15.05.04.1.04.16.01.47-.23.82-.76 1.05-1.59.08-.31.2-.57.36-.78.12-.16.32-.35.6-.56.3-.24.51-.5.61-.76.41-1.02.58-2.01.5-2.98 0-.08.02-.15.08-.2l.09-.1a.1.1 0 0 0 .02-.1.1.1 0 0 0-.08-.07l-1.97-.18a.39.39 0 0 1-.18-.06Zm-6.17.63c-.03 0-.05.01-.06.04 0 .03 0 .05.03.07l.39.22c.08.05.1.12.07.2a.49.49 0 0 1-.03.08c-.01.02 0 .05.01.07l.88.87h.04c.02 0 .02-.02.02-.04l-.16-1.05c-.04-.24-.18-.37-.42-.39l-.77-.07Zm9.53-3.59a.06.06 0 0 0-.06.04 3.26 3.26 0 0 1-1.18 1.4.52.52 0 0 0-.24.4c-.01.16.03.3.15.42l.03.03c.1.12.24.19.4.2.17.03.32 0 .45-.1.47-.3.7-.78.68-1.42a2.21 2.21 0 0 0-.17-.93c0-.03-.03-.04-.06-.04Zm-11.09-.04c-.03 0-.05.01-.06.04-.1.18-.16.49-.17.93-.02.64.2 1.12.67 1.42.14.1.29.13.45.11.16-.02.3-.09.41-.2l.03-.03a.52.52 0 0 0 .14-.43.51.51 0 0 0-.23-.4 3.25 3.25 0 0 1-1.18-1.4.06.06 0 0 0-.06-.04Z" fill="#174076"/></svg>