<!-- by TradingView --><svg width="56" height="56" viewBox="0 0 56 56" xmlns="http://www.w3.org/2000/svg"><path fill="#F0F3FA" d="M0 0h56v56H0z"/><path d="M27.97 11c2.12 0 4.16.43 6.12 1.28 1.97.86 3.7 2.09 5.2 3.68 1.5 1.6 2.67 3.43 3.48 5.51a17.81 17.81 0 0 1 .02 13.01A16.9 16.9 0 0 1 39.34 40a15.84 15.84 0 0 1-5.19 3.7 15 15 0 0 1-12.24.02 15.83 15.83 0 0 1-5.2-3.68 16.92 16.92 0 0 1-3.48-5.5 17.81 17.81 0 0 1-.02-13.02A16.9 16.9 0 0 1 16.66 16c1.5-1.6 3.23-2.83 5.19-3.7a15 15 0 0 1 6.12-1.3Zm0 .89c-2 0-3.94.41-5.8 1.23-1.86.82-3.5 2-4.91 3.5a16.03 16.03 0 0 0-3.28 5.24A16.88 16.88 0 0 0 14 34.19a16.05 16.05 0 0 0 3.3 5.22 14.98 14.98 0 0 0 4.93 3.49 14.28 14.28 0 0 0 11.6-.02c1.86-.82 3.5-2 4.91-3.5a16.03 16.03 0 0 0 3.28-5.24A16.88 16.88 0 0 0 42 21.81a16.05 16.05 0 0 0-3.3-5.22 14.98 14.98 0 0 0-4.93-3.49 14.28 14.28 0 0 0-5.8-1.21Zm.06.8c1.91 0 3.75.4 5.51 1.17 1.77.78 3.32 1.9 4.67 3.33a15.24 15.24 0 0 1 3.12 4.97 16.04 16.04 0 0 1-.02 11.72 15.24 15.24 0 0 1-3.14 4.96 14.27 14.27 0 0 1-4.68 3.32 13.58 13.58 0 0 1-11.03-.02 14.24 14.24 0 0 1-4.67-3.33 15.24 15.24 0 0 1-3.1-4.97 16.04 16.04 0 0 1 .01-11.72 15.24 15.24 0 0 1 3.13-4.96 14.27 14.27 0 0 1 4.69-3.32c1.76-.77 3.6-1.15 5.51-1.15Zm2.9 15.22a41.4 41.4 0 0 0-3.33.05c-.1 0-.16.06-.16.16v.14c0 .15.08.24.24.25l.57.02c.8.02 1.31.1 1.55.26.96.63 1.4 1.39 1.33 2.29-.13 1.66-1.38 2.48-3.76 2.45-1.04-.02-2.78-.02-5.21-.02-.1 0-.16.05-.16.15v4.18c0 .1.06.15.16.15 3.02.02 5.98.01 8.85-.02a4.84 4.84 0 0 0 4.99-5c0-1.34-.42-2.48-1.26-3.43a5.05 5.05 0 0 0-3.8-1.63ZM29.27 18c-.7.01-3.05.02-7.03.01-.16 0-.24.08-.24.24v14.5c0 .14.07.24.2.24h4.52c.2 0 .28-.13.28-.33V22.3c0-.17.1-.25.26-.26 1-.02 1.47-.01 1.85.04A2.33 2.33 0 0 1 31 25.16c-.24.7-.67 1.18-1.3 1.47-.45.2-1.13.33-2.05.4-.14.02-.21.1-.21.23v.13c0 .1.04.14.13.15 1.91.12 3.13.14 3.66.07 2.96-.43 4.51-1.97 4.66-4.62.23-4.03-3.43-5.05-6.62-4.98Z"/></svg>