<!-- by TradingView --><svg width="56" height="56" viewBox="0 0 56 56" xmlns="http://www.w3.org/2000/svg"><path fill="#F0F3FA" d="M0 0h56v56H0z"/><path d="M26.21 43.8h.32c.1 0 .15-.05.15-.15-.07-8.1-.47-16.3-1.2-24.56-.23-2.6-.62-5.1-1.16-7.48a5.13 5.13 0 0 0-.7-1.76c-.1-.16-.1-.3.05-.44l.35-.32a.26.26 0 0 1 .24-.07c.1.02.15.07.19.15.58 1.35.96 2.61 1.16 3.77.49 2.94.87 6.15 1.16 9.66.21 2.58.41 5.94.6 10.09.16 3.7.26 7.35.3 10.96 0 .1.05.15.16.15h.34c.1 0 .16-.05.16-.15.08-5.56.28-11.06.58-16.51.2-3.66.51-7.15.93-10.48.24-1.97.58-3.85 1.03-5.62.17-.69.47-1.34.89-1.94.04-.07.1-.1.18-.1.08 0 .14.03.19.09.08.1.18.2.31.28.17.1.19.23.06.37-.22.23-.35.4-.4.53a22.38 22.38 0 0 0-1.03 4.26 72.8 72.8 0 0 0-.5 4.34 304.3 304.3 0 0 0-1.25 24.7c0 .15.08.23.24.23h.18c.14 0 .21-.07.22-.2.06-5.57.34-11.14.83-16.7.18-2.08.48-4.21.9-6.41.25-1.32.6-2.56 1.04-3.72.17-.45.41-.83.72-1.16.1-.1.2-.1.3 0l.42.39c.1.09.11.18.03.3-.4.54-.73 1.2-.98 2-.16.5-.33 1.26-.53 2.29-.29 1.5-.54 3.25-.75 5.24-.62 5.98-.95 11.92-.98 17.82 0 .1.05.15.16.15h.24c.14 0 .2-.06.2-.18.04-5.52.38-10.63 1.04-15.34.34-2.4.88-4.47 1.63-6.22.2-.46.52-.94.96-1.45.1-.1.2-.11.3-.01l.44.4c.09.07.1.16.02.25a7 7 0 0 0-1.27 2.47c-.4 1.39-.68 2.5-.82 3.34a93.65 93.65 0 0 0-1.25 17.83c0 .07-.04.11-.12.11h-8.9c-.1 0-.14-.05-.14-.14.02-4.21-.16-8.33-.55-12.33-.38-3.98-.96-7.08-1.74-9.32a5.81 5.81 0 0 0-1.1-1.95c-.08-.09-.08-.17.01-.26l.46-.41c.1-.1.18-.09.27 0 .83.94 1.5 2.5 2.02 4.7.33 1.43.59 2.83.75 4.19.57 4.72.86 9.42.87 14.1 0 .08.04.15.13.2.1.05.22.06.35.01.08-.03.12-.08.12-.16-.04-5.66-.33-11.28-.87-16.87a76 76 0 0 0-.82-6.04c-.39-2.17-.9-3.61-1.51-4.31-.15-.17-.14-.33.02-.48l.3-.27c.07-.07.16-.1.27-.1.1.02.2.07.25.15.43.6.75 1.3.98 2.11.45 1.61.78 3.14 1 4.59a169.1 169.1 0 0 1 1.4 21.25c0 .09.05.13.15.13Z" fill="#78918C"/></svg>