<!-- by TradingView --><svg width="56" height="56" viewBox="0 0 56 56" xmlns="http://www.w3.org/2000/svg"><path fill="#181B1E" d="M0 0h56v56H0z"/><path d="M21.86 35.14c.04.01.08.03.1.06 2.24 2.04 4.6 3.49 6 6.8h-1.93c.1-1.84-.77-3.12-2.58-3.83-3.03-1.19-6.08 1.16-7.18 3.83H14v-4.48c2.65 2.08 6.14.26 7.54-2.25a.27.27 0 0 1 .2-.14l.12.01ZM17.7 42c1.12-2.61 3.05-3.54 5.8-2.77 1.1.39 1.47 1.35 1.98 1.85a.3.3 0 0 1 .1.19.3.3 0 0 1-.07.2.32.32 0 0 1-.4.1c-.67-.34-1.34-.85-2.11-.9-.94-.07-1.61.37-2.01 1.33h-3.3ZM42 42h-9a10.59 10.59 0 0 0-4.57-7.03c-1.46-1.01-3.49-1.86-1.91-3.77.7-.84 1.58-.86 2.35-.02.06.07.1.17.1.27.01.1-.02.2-.08.28a.45.45 0 0 1-.24.16c-.1.03-.2.02-.3-.01l-.62-.26a.65.65 0 0 0-.7.15.58.58 0 0 0-.1.68c.7 1.37 1.94 1.09 2.89.08.6-.64.54-1.39-.2-2.22-1.98-2.2-4.36-.27-5.38 1.6a.28.28 0 0 1-.19.15.3.3 0 0 1-.23-.04c-3.06-2.1-7.83-4.84-5.28-9.28 1.54-2.69 5.75-3.78 8.02-1.4 2.1 2.18 1.38 5.2-1.4 6.28-1.67.66-4.38.48-4.43-1.88a.22.22 0 0 1 .12-.2.22.22 0 0 1 .23.02l1.35 1.04.05.03c.39.22.89.11 1.5-.33 2.3-1.67.13-4.7-2.07-3.8-2.51 1.02-3.44 3.81-1.18 5.7a4.3 4.3 0 0 0 4.54.75c3.06-1.14 4.96-3.97 3.66-7.01-1.33-3.1-4.22-4.34-7.62-3.83-5.41.82-7.6 6.5-5.7 11 .64 1.47 1.95 2.34 3.02 3.47 1.29 1.36.53 3.23-.8 4.16-1.43 1.02-2.94.43-3.83-.86v-1.67a2.77 2.77 0 0 1 2.04-1.3.77.77 0 0 1 .6.2l.46.45a.34.34 0 0 1 .08.37.35.35 0 0 1-.32.22h-.95a.69.69 0 0 0-.44.15c-.12.1-.2.24-.22.4-.11.68.08 1.09.58 1.2 1.33.28 2.13-.28 2.39-1.66.3-1.54-1.39-2.22-2.39-2.36-.6-.08-1.46.42-1.83.82V14h28v28Z" fill="#fff"/></svg>