<!-- by TradingView --><svg width="56" height="56" viewBox="0 0 56 56" xmlns="http://www.w3.org/2000/svg"><path fill="#F0F3FA" d="M0 0h56v56H0z"/><path d="M34.09 23.47a.08.08 0 0 0-.04.03.08.08 0 0 0 0 .1l.04.02a10.76 10.76 0 0 0 3.48.59.14.14 0 0 1 .08.1v.06c-.48 1.6-.84 2.66-1.27 4.31-.3 1.13-.73 2.4-1.32 3.8-.33.8-.8 1.77-1.63 2.17-1.46.7-2.9.73-5.18 1-1.06.13-2.34.47-2.83 1.47a14.27 14.27 0 0 0-1.19 7.29.65.65 0 0 1-.17.49l-2.83 3.06a.13.13 0 0 1-.15.03.13.13 0 0 1-.08-.12c.22-13.88 6.08-26.66 16.96-35.6.8-.65 2.07-.06 2.04 1.03-.02.6-.16 1.49-.42 2.66l-1.03 4.68c-.08.36-.21.6-.41.73-1.3.87-2.65 1.57-4.05 2.1Z" fill="#46B7AB"/><path d="M23.66 28.97a.08.08 0 0 1-.08.03.08.08 0 0 1-.06-.04c-.25-.49-1.6-2.98-4.06-7.47-.16-.29-.48-.74-.96-1.34a4.01 4.01 0 0 0-2.34-1.29.2.2 0 0 1-.11-.07.2.2 0 0 1-.05-.13v-1.51c0-.04.02-.08.04-.1a.15.15 0 0 1 .11-.05h11.7c.03 0 .07.02.1.05.03.02.05.06.05.1v1.52c0 .05-.02.1-.05.13a.19.19 0 0 1-.13.05c-.9.03-1.75.15-2.55.36-1.17.32-.95 1.4-.57 2.24.14.32.65 1.28 1.53 2.9a.36.36 0 0 1-.02.4 24.06 24.06 0 0 0-2.46 4.13l-.1.1Z" fill="#46B7AB"/></svg>