<!-- by TradingView --><svg width="56" height="56" viewBox="0 0 56 56" xmlns="http://www.w3.org/2000/svg"><path fill="#F0F3FA" d="M0 0h56v56H0z"/><path d="M47.82 19.49a4.02 4.02 0 0 0-1.2-.36c-.68-.1-1.54-.14-2.56-.13-6.08.05-12.2 1.5-18.03 3.11C19.04 24.06 6 30 6 31H5c0-2.5 9.6-6.72 20.77-9.83 7.32-2.03 13.99-3.14 18.29-3.17 2.84-.02 4.64.42 4.9 1.38.24.84-.77 1.97-2.71 3.23l-.54-.81a13 13 0 0 0 1.36-1c.45-.38.72-.7.86-.93.12-.21.11-.26-.11-.38Z" fill="#C0B193"/><path d="M9.33 23v.66l-1.6.47 2.27 6.2 2.09-5.78c.14-.37.35-1.55.91-1.55.33 0 1 2 1 2 .8 1.92 2.66 6.82 2.66 6.82l2.45-7.74c0-.4-1.45-.42-1.45-.42V23H22v.66s-1.1-.01-1.35.3c-.14.2-.28.4-.42.65L17.66 32c-.24.68-.82 2.09-.82 2.09-.09.22-.2.42-.36.62-.14.2-.27.29-.38.29-.17 0-.25-.13-.36-.26l-3.06-7.4c-.38 1.08-.75 2.16-1.14 3.22a311.46 311.46 0 0 1-1.22 3.45c-.12.28-.24.54-.4.79-.09.13-.17.2-.25.2-.17 0-.25-.13-.36-.26-1.3-3.49-4-10.5-4-10.5-.19-.4-1.31-.58-1.31-.58V23h5.33ZM29.3 23c1.26 0 2.55.08 3.79.33a35.04 35.04 0 0 1 .31 1.35 10.66 10.66 0 0 1 .3 1.35c0 .05-.05.1-.15.16a.6.6 0 0 1-.31.1h-.15a.3.3 0 0 1-.12-.08 4 4 0 0 0-.28-.66C32.13 24.3 30.8 24 29.5 24c-2.62 0-4.5 2.75-4.5 5 0 2.42 2.09 5 5 5 .82 0 1.47.02 2.08-.55.26-.23.48-.51.67-.84a6.26 6.26 0 0 0 .62-1.37c.26 0 .47.07.63.2a14.24 14.24 0 0 1-.52 2.3c-.08.26-.15.4-.23.42-1.3.45-2.58.84-3.99.84-3.28 0-6.26-2.6-6.26-6 0-3.42 2.92-6 6.3-6ZM40 23l3.29 7.66L46.22 23h4.28v.68s-1.3-.07-1.5.32v9.3c.03.7 1.5 1.05 1.5 1.05V35h-5.02v-.66c.66-.02 1.37-.3 1.52-1.04v-7.59c-.01-.14-.05-.22-.11-.22-.03 0-.06.05-.1.13L43.3 34c-.08.29-.47 1-.79 1L38 25s.03 8.57 0 8.5c0 .5.38.65 1.31.8l.34.05V35H35v-.65c.53-.08 2-.05 2-.85v-8.12c.01-.44 0-1.12 0-1.12 0-.5-1-.58-1-.58V23h4Z"/><path d="M5 31c0 .92 1.5 2 4 2 4.5 0 11.53-1.29 19.2-3.43 1.92-.53 3.77-1.1 5.52-1.69L33.3 27c-1.7.57-3.5 1.12-5.36 1.64C21.88 30.32 14.05 32 9 32c-1 0-3-.24-3-1 0-.64-1 0-1 0Z" fill="#C0B193"/></svg>