<!-- by TradingView --><svg width="56" height="56" viewBox="0 0 56 56" xmlns="http://www.w3.org/2000/svg"><path fill="#181B1E" d="M0 0h56v56H0z"/><path d="M48.12 32C46.26 32 45 30.74 45 29c0-1.65 1.19-3 3.05-3C49.9 26 51 27.3 51 28.95v.44h-5.3v-1h3.66c0-.67-.55-1.19-1.28-1.19-.76 0-1.35.55-1.36 1.25v.95c0 .79.54 1.4 1.43 1.4.51 0 1.01-.16 1.2-.63h1.61C50.68 31.4 49.37 32 48.12 32ZM40 32v-6h2v1.12c.21-.65.68-1.12 1.42-1.12.2 0 .4.02.58.06v1.45l-.36-.06a3.56 3.56 0 0 0-.41-.03c-.79 0-1.23.54-1.23 1.23V32h-2ZM32 27.95V32h-2v-9h2v3.3c.3-.85.94-1.28 1.76-1.28 1.4 0 2.25 1.14 2.24 2.54V32h-2v-4.11c0-.74-.21-1.32-.95-1.32-.77 0-1.04.6-1.05 1.38ZM28.87 27.78h-1.4c-.1-.46-.53-.64-.94-.64-.33 0-.85.14-.85.58 0 .38.41.51.7.58l1.01.21c.8.17 1.61.6 1.61 1.58 0 1.35-1.38 1.91-2.48 1.91-1.13 0-2.34-.53-2.52-1.84h1.52c.1.51.55.68 1 .68.36 0 .9-.13.91-.6 0-.37-.42-.5-.71-.57l-.96-.2c-.85-.18-1.61-.67-1.61-1.66 0-1.32 1.28-1.81 2.36-1.81 1.08 0 2.2.53 2.36 1.78ZM23 23v9h-2v-9h2ZM18 26v6h2v-6h-2ZM18 23v2h2v-2h-2ZM37 26v6h2v-6h-2ZM38 23l-1 1 1 1 1-1-1-1ZM7.5 32 5 23h2.02l1.45 6.25L10.14 23h1.72l1.67 6.27L14.98 23H17l-2.5 9h-1.8l-1.68-5.89L9.3 32H7.5Z" fill="#fff"/></svg>