<!-- by TradingView --><svg width="56" height="56" viewBox="0 0 56 56" xmlns="http://www.w3.org/2000/svg"><path fill="url(#a)" d="M0 0h56v56H0z"/><path d="M19.4 27.33c0-.17.09-.3.25-.36.17-.07.31-.04.43.08l2.12 2.12a2.9 2.9 0 0 1 .78 2.98L21 39.67a.8.8 0 0 1-.6.59c-.3.07-.56 0-.78-.23l-7.5-7.65c-.2-.21-.34-.44-.44-.7-1.05-2.67-.88-4.8.49-6.37 1.72-1.95 5.61-5.99 11.69-12.12 2.68-2.7 5.15-2.9 7.4-.59L43.1 24.83c2.63 2.73 2.53 5.45-.29 8.17L32.7 43.64c-.36.37-.78.46-1.26.25-6.74-3.01-8.79-7.84-6.15-14.5.72-1.8 2.85-4.45 6.4-7.96.57-.57 1.14-.57 1.71 0l4.1 4.12c.15.15.19.32.11.51-.07.2-.21.3-.42.33-2.55.2-5.16 1.52-7.83 3.98a5.96 5.96 0 0 0-1.9 3.59 6 6 0 0 0 .75 4l.97 1.7a2.42 2.42 0 0 0 1.86 1.24 2.4 2.4 0 0 0 2.1-.73l9.1-9.12c.6-.6.9-1.3.9-2.13 0-.84-.28-1.57-.85-2.18a385.7 385.7 0 0 0-12.03-12.36c-1.73-1.65-3.65-1.37-5.76.83-2.13 2.2-5.92 6.17-11.38 11.88-.49.51-.73 1.12-.72 1.81.01.7.27 1.31.76 1.81l5.3 5.31c.18.18.38.22.6.13.24-.1.36-.27.36-.52v-8.3Z" fill="#31649E"/><defs><linearGradient id="a" x1="10.42" y1="9.71" x2="68.15" y2="76.02" gradientUnits="userSpaceOnUse"><stop stop-color="#1A1E21"/><stop offset="1" stop-color="#06060A"/></linearGradient></defs></svg>