<!-- by TradingView --><svg width="56" height="56" viewBox="0 0 56 56" xmlns="http://www.w3.org/2000/svg"><path fill="#F0F3FA" d="M0 0h56v56H0z"/><path fill="#359652" d="M13 35h32v4H13z"/><path d="M16.28 17.96h-.31c-.4 0-.74.06-1 .17-.26.1-.39.35-.39.71 0 .67.41 1.34.74 1.9.95 1.6 2.29 3.76 2.31 3.8.01-.03 1.81-2.76 2.78-4.45.26-.44.28-.88.28-1.2a.74.74 0 0 0-.43-.7 1.82 1.82 0 0 0-.54-.19H19v-1h26v1H23.63c-.34.08-.61.23-.8.45-.25.26-.8 1.2-.81 1.21l-4.2 6.85v3.2c0 1.32.35 2.08 1.46 2.3H45v1H12.8v-.92c1.78 0 2-.91 2-2.59v-2.56a323.34 323.34 0 0 1-3.5-6.7 8.5 8.5 0 0 0-1.1-1.88c-.22-.2-.59-.34-1.12-.4H9V17h7.28v.96ZM28.31 19c1.18 0 2.3.4 3.34 1.2l.27-1h.76l.14 3.87h-.76c-.4-1.6-1.5-3.1-3.31-3.1-2.63 0-3.75 3-3.75 5.32 0 2.5 1.03 5.42 3.84 5.42 1.81 0 3.34-2 3.35-2.01l.8.75c-.8 1.59-2.93 2.55-4.8 2.55-3.6 0-6.19-3.03-6.19-6.64 0-3.6 2.95-6.36 6.31-6.36Zm14.65 4.06h-.58c-.36-1.67-1.46-3.1-3.09-3.1-2.72 0-3.32 3.5-3.32 5.93 0 2.22.75 4.94 3.13 4.94 1.36 0 1.9.42 1.9-2.38 0-1.33-.73-1.74-1.65-1.74h-.11V26H45v.7l-.22.03c-.65.05-.76.5-.78 1.07v2.97c-1.53.94-3.16 1.23-5.18 1.23A6.01 6.01 0 0 1 33 25.9c0-3.76 2.28-6.9 5.72-6.9 1.26 0 2.35.4 3.26 1.2l.31-1.2h.7l-.03 4.06Z"/></svg>