<!-- by TradingView --><svg width="56" height="56" viewBox="0 0 56 56" xmlns="http://www.w3.org/2000/svg"><path fill="#F0F3FA" d="M0 0h56v56H0z"/><path d="M41 26.94v-.87c0-.02 0-.04.02-.05a.08.08 0 0 1 .05-.02H44l.01.03v2.84a.09.09 0 0 1-.03.07c-2.16 1.94-5.76 1.17-6.16-1.86a3.52 3.52 0 0 1 1.36-3.43 3.1 3.1 0 0 1 1.7-.63 3.7 3.7 0 0 1 2.98 1.04c0 .02 0 .03-.02.04l-.58.66-.02.01a.06.06 0 0 1-.06 0 2.66 2.66 0 0 0-2.1-.84c-2.09.06-2.82 2.59-1.89 4.08.8 1.28 2.58 1.36 3.78.52a.12.12 0 0 0 .03-.04l.01-.05v-1.42l-.04-.02h-1.9l-.04-.01a.06.06 0 0 1-.02-.05Z" fill="#005695" fill-opacity=".85"/><path d="m14.84 28.45.02-.01a1614.62 1614.62 0 0 1 2.3-5.42.1.1 0 0 1 .05-.02h1.01l.02.01a.02.02 0 0 1 0 .02l-2.99 6.9a.1.1 0 0 1-.08.07 24.9 24.9 0 0 1-.72-.02.1.1 0 0 1-.03-.04l-2.98-6.91v-.01a.02.02 0 0 1 0-.02h1.02a.1.1 0 0 1 .09.06 1980.6 1980.6 0 0 1 2.29 5.4Z" fill="#6A747C"/><path d="M10.64 30h-5.5l-.02-.01v-.64l4.04-5.3a.03.03 0 0 0 0-.03.03.03 0 0 0-.03-.02H5.3l-.03-.01v-.98L5.3 23h5.34l.03.01V23.61l-4.05 5.34a.03.03 0 0 0 0 .03.03.03 0 0 0 .03.02h4l.02.01V29.99l-.03.01Z" fill="#005696"/><path d="M19 29.97v-6.94l.01-.02.02-.01h.84a.03.03 0 0 1 .03.01l4.05 5.03a.03.03 0 0 0 .04 0H24v-5.01l.01-.01v-.01a.03.03 0 0 1 .03 0H24.98a.03.03 0 0 1 .02.01v6.96l-.01.01h-.01l-.01.01h-.73a.03.03 0 0 1-.02-.01l-4.14-5.18h-.06l-.02.05V30H19l-.01-.03Z" fill="#005695" fill-opacity=".5"/><path d="M26 29.93v-6.9l.01-.02h3.13c1 .02 1.92.62 2.03 1.67a1.8 1.8 0 0 1-.53 1.48 2.42 2.42 0 0 0-.14.16.06.06 0 0 0 .01.05l.02.01c.7.36 1.03.94.99 1.72-.06.92-.73 1.56-1.62 1.78-.34.08-.74.12-1.21.12a934.91 934.91 0 0 1-2.67-.02.06.06 0 0 1-.02-.05ZM27 24v2h1.98c.32 0 .62-.1.85-.28a.95.95 0 0 0 .34-.72v-.12c0-.64-.66-.89-1.2-.88H27Zm0 3v1.96l.02.04H29c.6 0 1.39-.17 1.5-.84.15-.85-.7-1.16-1.43-1.16H27Z" fill="#6A737B" fill-opacity=".85"/><path d="M32 29.94v-6.9a.03.03 0 0 1 .03-.03h2.61c.61-.02 1.05.02 1.32.11.57.2 1.06.54 1.32 1.1.57 1.23-.08 2.55-1.42 2.9a.05.05 0 0 0-.04.03v.02l.01.03 2.15 2.76V30h-1.19a.06.06 0 0 1-.05-.02l-2.05-2.63a.13.13 0 0 0-.1-.05h-1.54l-.03.01-.02.04v2.6l-.01.03a.06.06 0 0 1-.04.02h-.89c-.02 0-.03 0-.04-.02a.06.06 0 0 1-.02-.04ZM33 24v2.28l.01.04.01.01a.04.04 0 0 0 .03.01h2.03c.37-.01.72-.13.98-.34.27-.22.41-.5.41-.8v-.13c0-.72-.77-1.07-1.4-1.07H33Z" fill="#69737B" fill-opacity=".75"/><path d="M50 23h.99l.01.03v6.96l-.03.01h-.73l-.02-.01-4.15-5.17a.03.03 0 0 0-.04-.01h-.02l-.01.03V29.99l-.02.01H45l-.01-.03v-6.96l.03-.01h.85v.01l4.05 5.03h.02a.03.03 0 0 0 .03 0l.02-.02V23Z" fill="#6A747C"/><path d="M5 34V31.02c14.17 0 28.35 0 42.52-.02a191.12 191.12 0 0 1 3.48.06L5 34Z" fill="#D4DA58"/></svg>