<!-- by TradingView --><svg width="56" height="56" viewBox="0 0 56 56" xmlns="http://www.w3.org/2000/svg"><path fill="#F0F3FA" d="M0 0h56v56H0z"/><path d="M27 15a5 5 0 1 1-10 0 5 5 0 0 1 10 0Zm0 12a5 5 0 1 1-10 0 5 5 0 0 1 10 0Zm-5 17a5 5 0 1 0 0-10 5 5 0 0 0 0 10Zm17-17a5 5 0 1 1-10 0 5 5 0 0 1 10 0Zm-5 17a5 5 0 1 0 0-10 5 5 0 0 0 0 10Z" fill="url(#a)"/><defs><linearGradient id="a" x1="13.57" y1="15.19" x2="34.78" y2="42.77" gradientUnits="userSpaceOnUse"><stop stop-color="#0C8099"/><stop offset=".18" stop-color="#2C91A1"/><stop offset="1" stop-color="#BCDFC7"/></linearGradient></defs></svg>