<!-- by TradingView --><svg width="56" height="56" viewBox="0 0 56 56" xmlns="http://www.w3.org/2000/svg"><path fill="#213A54" d="M0 0h56v56H0z"/><path d="M13.94 20.81 12 24.18l3.84 2.3a1.73 1.73 0 0 1 .8 1.42v.15a1.77 1.77 0 0 1-.8 1.42L12 31.77l1.95 3.37 4.16-2.47c2.34-1.4 2.93-3.36 2.97-4.59V27.86c-.04-1.23-.63-3.19-2.98-4.59l-4.16-2.46Z" fill="#0BB796"/><path d="M23 16.5c-.05 1.23-1.19 2.1-2.32 1.49l-3.81-2.24-1.87 3.4c1.37.83 2.75 1.64 4.12 2.44 2.33 1.37 4.26.9 5.3.34l.08-.05.11-.06c1-.66 2.36-2.16 2.38-4.93V12H23v4.5Zm-6.13 23.7 3.81-2.23c1.13-.62 2.27.26 2.32 1.49V44h4c0-2.09 0-4.54-.02-4.94-.02-2.77-1.37-4.27-2.37-4.92l-.07-.04a4.63 4.63 0 0 0-.12-.07c-1.05-.58-2.98-1.03-5.3.33L15 36.8l1.87 3.4Z" fill="#24F6C4"/><path d="M33 44v-4.54c.05-1.25 1.28-2.1 2.42-1.5l3.86 2.24 1.92-3.39a728.77 728.77 0 0 0-4.2-2.45c-2.37-1.36-4.32-.9-5.39-.33l-.07.05-.12.06c-1.02.66-2.38 2.16-2.4 4.93L29 44h4Zm2.42-26.01c-1.13.6-2.37-.24-2.42-1.5V12h-4l.02 4.9c.02 2.77 1.4 4.26 2.41 4.91l.07.04.12.08c1.07.57 3.02 1.03 5.39-.34l4.2-2.45-1.93-3.39L35.42 18Z" fill="#0BB796"/><path d="m44 31.77-3.84-2.3a1.73 1.73 0 0 1-.8-1.42v-.14a1.77 1.77 0 0 1 .8-1.43l3.84-2.3-1.92-3.38-4.19 2.48c-2.34 1.4-2.93 3.37-2.97 4.59v.23c.04 1.22.63 3.18 2.98 4.58.4.25 2.33 1.4 4.18 2.48L44 31.77Z" fill="#24F6C4"/></svg>