<!-- by TradingView --><svg width="56" height="56" viewBox="0 0 56 56" xmlns="http://www.w3.org/2000/svg"><path fill="#F0F3FA" d="M0 0h56v56H0z"/><path d="M21.11 19H19v6h12.01v5H31v7h6v-2.39c0-.5.54-.61 1.04-.61h3.06c.5 0 .9.12.9.61v4.8c0 1.43-1.16 2.59-2.59 2.59H16.6A2.59 2.59 0 0 1 14 39.4V16.6c0-1.44 1.16-2.6 2.59-2.6h4.52c.5 0 .89.4.89.9v3.23c0 .5-.4.87-.89.87ZM26 37v-7h-7v7h7Z" fill="#2C2A25"/><path d="M26 14.71v3.6c0 .38.25.69.64.69H37v10.36c0 .38.32.64.7.64h3.6c.38 0 .69-.26.69-.64V14.7a.7.7 0 0 0-.7-.7H26.64c-.39 0-.64.32-.64.7Z" fill="#00B337"/></svg>