<!-- by TradingView --><svg width="56" height="56" viewBox="0 0 56 56" xmlns="http://www.w3.org/2000/svg"><path fill="#F0F3FA" d="M0 0h56v56H0z"/><path d="m33.68 11.98-5.66 5.72L25 20.68c-.75-.06-1.28-.08-1.57-.08a226.14 226.14 0 0 1-5.95.03c-1.6.02-3.18.01-4.78-.03a16.94 16.94 0 0 1 12.56-9.37 16.79 16.79 0 0 1 8.42.75Z" fill="url(#a)"/><path d="M33.68 11.98a17.07 17.07 0 0 1 9.28 7.96A16.77 16.77 0 0 1 45 27.48a16.85 16.85 0 0 1-3.6 11 16.88 16.88 0 0 1-10.09 6.19c-2.63.52-5.24.42-7.83-.3a16.88 16.88 0 0 1-8.36-5.29 16.93 16.93 0 0 1-2.72-4.36c.7-.05 1.23-.07 1.56-.08a311.59 311.59 0 0 1 7.15.02 8.44 8.44 0 0 0 11.38 2.26 8.4 8.4 0 0 0 3.88-5.66 8.4 8.4 0 0 0-.8-5.42 7.7 7.7 0 0 0-1.4-2l-6.14-6.14 5.66-5.72Z" fill="#FC3908"/><path d="m25 20.68-3.1 3.1a8.2 8.2 0 0 0-1.48 2.07c-.89-.06-1.77-.09-2.66-.08-1.48.02-2.96.02-4.44.01-.53 0-1.27.04-2.19.12.23-1.85.75-3.62 1.57-5.3a132.18 132.18 0 0 0 6.44.02c1.43.01 2.86 0 4.29-.02.3 0 .82.02 1.57.08Z" fill="#FD8F09"/><path d="M20.42 25.85a8.52 8.52 0 0 0-.76 5.52c-1.82 0-3.63.02-5.44.03-.95 0-1.9.07-2.83.2-.41-1.89-.5-3.79-.26-5.7.92-.08 1.66-.12 2.2-.12h4.43c.89-.02 1.77.01 2.66.07Z" fill="url(#b)"/><path d="M19.66 31.37c.25 1.2.73 2.3 1.44 3.3l-1.28-.03c-2.53-.02-4.49-.02-5.87 0-.33 0-.85.03-1.56.08-.44-1.01-.77-2.05-1-3.13.94-.12 1.88-.19 2.83-.2l5.44-.02Z" fill="url(#c)"/><path d="M28 34.79c.98 0 1.95-.1 2.91-.31.94-.2 1.84-.53 2.7-.98.05-.02.06-.01.03.03a6.8 6.8 0 0 1-11.28 0c-.03-.04-.03-.05.02-.03.86.45 1.76.77 2.7.98.96.2 1.93.3 2.92.3Z" fill="#FC3908"/><defs><linearGradient id="a" x1="23.19" y1="11" x2="23.19" y2="20.68" gradientUnits="userSpaceOnUse"><stop stop-color="#FDA609"/><stop offset="1" stop-color="#FD8F09"/></linearGradient><linearGradient id="b" x1="15.71" y1="25.77" x2="15.71" y2="31.59" gradientUnits="userSpaceOnUse"><stop stop-color="#FD8F09"/><stop offset="1" stop-color="#FC5208"/></linearGradient><linearGradient id="c" x1="16.24" y1="31.37" x2="16.24" y2="34.72" gradientUnits="userSpaceOnUse"><stop stop-color="#FC5208"/><stop offset="1" stop-color="#FC3908"/></linearGradient></defs></svg>