<!-- by TradingView --><svg width="56" height="56" viewBox="0 0 56 56" xmlns="http://www.w3.org/2000/svg"><path fill="#F0F3FA" d="M0 0h56v56H0z"/><path fill-rule="evenodd" d="M32.5 30.02a95.6 95.6 0 0 0 2.5-.45V22h-2.5v8.02Zm-6 .9V30h1.84c2.02 0 3.66-1.85 3.66-4.04S30.36 22 28.34 22H24v1.93c-.42-.87-1.46-1.93-3.53-1.93-3.04 0-3.75 2.13-3.73 3.2 0 2.33 1.84 3.14 3.17 3.73.43.18.8.35 1.05.53.82.63.91 1.78.14 2.17l5.4-.7Zm-6.31.82c-.92-.15-1.27-1.05-1.33-1.51l-2.36.34V22H14v5.21h-.21L11.49 22H8v11.15l2.5-.28v-6.2l2.69 5.9c2.25-.25 4.63-.53 7-.83ZM7.5 33.2V22H5v11.46l2.5-.26ZM50.43 22H44v4.94c.92-.42 1.74-.87 2.5-1.37V24h2.03c.67-.6 1.3-1.27 1.9-2Zm-7.08 5.23c.1-.4.15-.83.15-1.27 0-2.19-1.24-3.96-3.39-3.96H35.5v7.47a41.73 41.73 0 0 0 7.85-2.24Zm-21.78-2.04L24 24.6v4.03a8.12 8.12 0 0 0-3.19-2.1l-.7-.33c-1.45-.7-.93-2.26.25-2.26.94 0 1.2.84 1.2 1.25ZM27.72 24H26.5v4h1.22c.99 0 1.78-.9 1.78-2s-.8-2-1.78-2ZM38 24h1.22c.99 0 1.78.9 1.78 2s-.8 2-1.78 2H38v-4Z" fill="#72852C"/><path d="M32.5 31.13V34H35v-3.33c-.84.18-1.68.33-2.5.46Zm3-.57V34H38v-4.07c-.83.24-1.66.45-2.5.63Zm2.78-.71L40.64 34h3.27l-2.68-4.24a3.77 3.77 0 0 0 1.76-1.7 32 32 0 0 1-4.71 1.79Zm5.72-2.3V34h7v-2h-4.5v-5.98c-.8.56-1.64 1.07-2.5 1.53ZM48.95 24H51v-2h-.26c-.55.72-1.15 1.38-1.79 2ZM24 32.08l2.5-.24V34H24v-1.92Zm-.34.03-6.71.61c.42.55 1.42 1.28 3.14 1.28a4.72 4.72 0 0 0 3.57-1.89Zm-10.21.92 3.05-.27v1.2h-2.68l-.37-.93Zm-5.46.48 3.51-.3V34H8v-.5ZM5 33.76l2.55-.21V34H5v-.24ZM51 27h-4v2h4v-2Z" fill="#5E4B13"/></svg>