<?xml version="1.0" encoding="UTF-8"?>
<svg version="1.1" xmlns="http://www.w3.org/2000/svg" width="175" height="175">
<path d="M0 0 C57.75 0 115.5 0 175 0 C175 57.75 175 115.5 175 175 C117.25 175 59.5 175 0 175 C0 117.25 0 59.5 0 0 Z " fill="#EFF2F9" transform="translate(0,0)"/>
<path d="M0 0 C6.18760467 3.50241774 10.97549113 7.20352686 15.3125 12.875 C15.9725 12.875 16.6325 12.875 17.3125 12.875 C18.87683243 11.25113619 18.87683243 11.25113619 20.5 9.1875 C24.80353604 4.12028846 29.55616571 -0.51409468 36.44140625 -1.3984375 C44.51266806 -1.73527989 50.36509533 0.49652732 56.5078125 5.75390625 C67.35076815 16.94729963 70.67057988 30.77897382 70.6875 45.8125 C70.71199219 46.95396484 70.73648438 48.09542969 70.76171875 49.27148438 C70.78931067 57.23175205 69.83369867 62.88430817 64.49609375 68.93359375 C63.91988281 69.38863281 63.34367187 69.84367187 62.75 70.3125 C62.17121094 70.78558594 61.59242188 71.25867188 60.99609375 71.74609375 C56.57683899 74.70935274 51.41327369 74.31403373 46.3125 73.875 C38.64646788 71.0739498 33.7565697 65.68651503 29.5 59 C29.08057129 58.35667725 28.66114258 57.71335449 28.22900391 57.05053711 C23.73821122 50.10570878 19.4998649 43.00565762 15.3125 35.875 C13.26737074 38.50979278 11.51047755 41.15414536 9.89453125 44.0703125 C-4.80181649 70.24643883 -4.80181649 70.24643883 -15.6875 73.875 C-22.23625458 74.61556998 -27.50658347 74.42328515 -32.96484375 70.51171875 C-36.62956064 67.02982221 -40.47393204 61.68820548 -40.86450195 56.54345703 C-41.39790169 31.20803193 -41.39790169 31.20803193 -36.6875 21.875 C-36.25179687 20.92882812 -35.81609375 19.98265625 -35.3671875 19.0078125 C-31.26238851 10.73092274 -25.53353181 3.32415287 -16.890625 -0.50390625 C-11.15877619 -2.1197998 -5.64004819 -1.72069267 0 0 Z " fill="#0679F0" transform="translate(72.6875,51.125)"/>
<path d="M0 0 C7.791583 3.97529745 12.2807279 10.34776993 15.1875 18.4140625 C17.98831643 27.32819942 19.22223564 36.67786373 18 46 C15.85284892 49.98954523 14.96572769 51.63557446 10.6875 53.25 C5.57340507 52.9032817 3.45615227 50.63010866 0 47 C-2.18964585 44.09898494 -4.07134307 41.05400392 -5.9375 37.9375 C-6.44821045 37.10275146 -6.9589209 36.26800293 -7.48510742 35.40795898 C-8.51143212 33.72988183 -9.53373313 32.04933632 -10.55175781 30.36621094 C-11.86357317 28.22290102 -13.21082496 26.11086245 -14.5859375 24.0078125 C-14.9662915 23.4187915 -15.34664551 22.82977051 -15.73852539 22.22290039 C-16.74437429 20.66782461 -17.75672051 19.11695683 -18.76953125 17.56640625 C-20 15 -20 15 -19.90234375 12.90625 C-16.07000318 4.81022317 -9.12893784 -1.12109763 0 0 Z " fill="#ECF1F9" transform="translate(115,60)"/>
<path d="M0 0 C5.15750425 2.47560204 10.09369858 7.01378958 13 12 C12.6287813 16.51011082 10.64039117 19.49710799 8.17578125 23.21875 C7.79189743 23.79911011 7.40801361 24.37947021 7.01249695 24.97741699 C6.20024961 26.20034633 5.38390072 27.42056023 4.5637207 28.63818359 C3.32179003 30.48617644 2.09873163 32.34567226 0.87695312 34.20703125 C0.08184268 35.39918092 -0.71434744 36.59061133 -1.51171875 37.78125 C-2.22803467 38.85439453 -2.94435059 39.92753906 -3.68237305 41.03320312 C-7.08216491 45.38528052 -10.20186402 48.47296014 -15.625 50.0625 C-19 50 -19 50 -21.375 48.25 C-26.01342039 41.82757177 -24.60313278 31.56322094 -24 24 C-23.15913099 20.00130226 -21.88961134 16.61303536 -20 13 C-19.61457031 12.25363281 -19.22914062 11.50726563 -18.83203125 10.73828125 C-14.40444315 2.98641988 -9.38464947 -1.77867905 0 0 Z " fill="#EDF1F9" transform="translate(68,63)"/>
</svg>
