<!-- by TradingView --><svg width="56" height="56" viewBox="0 0 56 56" xmlns="http://www.w3.org/2000/svg"><path fill="#F0F3FA" d="M0 0h56v56H0z"/><path d="M23.3 26.75a8 8 0 1 1 2.46-2.46L27 25.54 24.54 28l-1.25-1.25Zm-.52-5.43a4 4 0 1 0-2.46 2.46l-.32-.32L22.46 21l.32.32ZM29 14v14h4v-6.8l2.08 4.8h1.84L39 21.2V28h4V14h-4.16L36 20.77 33.16 14H29ZM29 29v14h4v-6.8l2.08 4.8h1.84L39 36.2V43h4V29h-4.16L36 35.77 33.16 29H29ZM13 29v14h4v-6.8l2.08 4.8h1.84L23 36.2V43h4V29h-4.16L20 35.77 17.16 29H13Z"/></svg>