<!-- by TradingView --><svg width="56" height="56" viewBox="0 0 56 56" xmlns="http://www.w3.org/2000/svg"><path fill="#F0F3FA" d="M0 0h56v56H0z"/><path d="M19.56 10c.27.48.23.91-.12 1.3a.36.36 0 0 1-.24.14c-.14.02-.22-.04-.26-.17-.16-.52-.04-.94.34-1.27h.28ZM19.39 14.62c-.03.6.24 1.09.59 1.1.35.02.65-.46.67-1.05.03-.6-.24-1.09-.59-1.1-.35-.01-.65.46-.67 1.05Z" fill="#42A3DB"/><path d="M20.84 19.07c.16.9.76 1.56 1.36 1.45.59-.1.94-.93.78-1.83-.16-.91-.77-1.56-1.36-1.46-.6.1-.94.93-.78 1.84Z" fill="#263E8D"/><path d="M17.24 18.33c.04.54.34.95.67.92.33-.03.56-.48.51-1.02-.04-.53-.35-.94-.67-.91-.33.03-.56.48-.51 1.01Z" fill="#42A3DB"/><path d="M18.73 23.01c.24 1.02 1 1.71 1.69 1.54.69-.17 1.05-1.13.81-2.15-.24-1.01-1-1.7-1.69-1.54-.7.17-1.05 1.13-.81 2.15ZM24.13 23.13c0-.01 0-.03-.02-.04a2.51 2.51 0 0 1-.21-.49.97.97 0 0 1 .02-.52c.05-.15.23-.33.53-.54l.08-.06c.3-.22.56-.24.78-.07a2.38 2.38 0 0 1 .54.82c.12.22.19.38.22.48.04.17.03.34-.03.53-.05.14-.22.32-.53.54l-.08.06c-.3.21-.55.23-.77.06a2.4 2.4 0 0 1-.53-.77ZM25.13 26.22c.23.38.37.68.43.9.09.33.06.65-.08.95-.07.16-.26.34-.57.56l-.19.14c-.44.34-.78.52-1 .53a.97.97 0 0 1-.78-.3c-.13-.13-.3-.39-.52-.78l-.2-.36a4.05 4.05 0 0 1-.43-.9c-.09-.33-.06-.65.09-.96.07-.15.26-.34.57-.56l.18-.13c.45-.35.78-.53 1-.54.3-.02.57.08.78.3.14.13.3.4.52.79l.2.36ZM17 26.71v-.7c.26-.66.61-.88 1.07-.68.31.14.54.39.68.73.13.3.18.62.16.94-.03.38-.17.66-.44.82-.33.2-.65.16-.95-.14a1.92 1.92 0 0 1-.52-.97ZM29.83 29.74l-1.37 1.16a.55.55 0 0 1-.44.14.56.56 0 0 1-.4-.24l-1.18-1.65a.58.58 0 0 1-.1-.41.57.57 0 0 1 .2-.38l1.33-1.13c.13-.11.28-.15.44-.14.17.02.3.1.4.23l1.21 1.62c.1.12.13.26.11.42a.57.57 0 0 1-.2.38Z" fill="#263E8D"/><path d="M32.36 29.25 31.3 30.3a.23.23 0 0 0 0 .32l1.03 1.07c.09.1.23.1.32 0l1.06-1.04a.23.23 0 0 0 0-.32l-1.03-1.07a.23.23 0 0 0-.32 0Z" fill="#098D45"/><path d="M19.92 31.22c0-.37.1-.68.32-.92.13-.15.38-.34.75-.56l.3-.2a.95.95 0 0 1 .83-.13c.27.08.49.26.65.53.14.24.36.63.64 1.17.46.85.3 1.52-.48 2l-.3.2c-.32.22-.57.35-.75.4a.97.97 0 0 1-.83-.13c-.17-.1-.32-.32-.47-.64l-.15-.3a4.28 4.28 0 0 1-.5-1.42ZM27.55 31.43l1.64 2.2c.1.12.14.27.11.44-.02.16-.1.3-.23.4l-2.33 1.77c-.14.11-.3.15-.47.12a.57.57 0 0 1-.4-.28l-1.44-2.35a.59.59 0 0 1-.08-.42.6.6 0 0 1 .23-.38l2.13-1.62c.13-.1.28-.14.44-.12.17.02.3.1.4.24Z" fill="#263E8D"/><path d="m31.17 37.39-1.7-2.05a.4.4 0 0 1-.1-.29c.01-.1.06-.2.14-.27l2.37-2.01a.38.38 0 0 1 .54.02l1.87 1.9c.09.08.13.18.12.3 0 .11-.05.2-.14.28l-2.54 2.17a.38.38 0 0 1-.29.09c-.1-.01-.2-.06-.27-.14ZM36.57 37.03l-1.75-1.48a.16.16 0 0 1-.06-.13c0-.05.02-.1.06-.13l2.07-1.97c.07-.07.14-.07.22-.02l1.86 1.36c.05.03.07.08.08.13 0 .05-.02.1-.06.14l-2.2 2.09c-.07.07-.14.07-.22 0Z" fill="#098D45"/><path d="M18.98 36.4c0-.03-.02-.06-.04-.1-.1-.28-.15-.47-.14-.59.02-.17.15-.34.4-.48l.24-.15c.21-.14.37-.22.46-.26.16-.07.3-.07.4-.02.12.06.24.28.39.67a23.1 23.1 0 0 1 .1.25c.1.27.15.47.13.58-.02.18-.15.34-.4.49l-.24.14c-.21.14-.37.22-.46.26-.16.07-.3.07-.4.02-.11-.06-.24-.28-.38-.67l-.06-.15Z" fill="#263E8D"/><path d="m39.58 38.92-1.62-1.19a.13.13 0 0 1-.06-.1c0-.04.02-.08.05-.1l2.15-1.84c.06-.04.1-.04.16 0l1.68 1.13c.04.03.06.06.06.1 0 .05-.01.09-.05.11l-2.2 1.88c-.06.04-.11.05-.17 0Z" fill="#098D45"/><path d="m25.66 37.07.72 1.16c.09.15.12.3.08.46a.6.6 0 0 1-.26.39l-1.62 1.1a.58.58 0 0 1-.53.08.6.6 0 0 1-.39-.36l-.53-1.3a.61.61 0 0 1-.01-.41.6.6 0 0 1 .24-.34l1.44-.97c.14-.1.3-.13.47-.1.17.05.3.14.4.29Z" fill="#263E8D"/><path d="m28.76 41.8-1.1-1.65a.4.4 0 0 1-.06-.3.4.4 0 0 1 .15-.26l2.41-1.84a.4.4 0 0 1 .3-.08c.1.01.2.06.26.14l1.32 1.59a.4.4 0 0 1-.07.6l-2.63 1.9c-.1.07-.2.1-.32.08a.4.4 0 0 1-.26-.18ZM34.66 41.94l-1.4-1.5a.16.16 0 0 1-.05-.14c0-.05.03-.09.07-.12l2.6-1.99c.08-.05.15-.05.22 0l1.6 1.36c.04.04.06.08.06.14 0 .05-.03.1-.07.13l-2.8 2.14c-.09.06-.16.05-.23-.02Z" fill="#098D45"/></svg>