<!-- by TradingView --><svg width="56" height="56" viewBox="0 0 56 56" xmlns="http://www.w3.org/2000/svg"><path fill="#F0F3FA" d="M0 0h56v56H0z"/><path d="M39.88 17a6.1 6.1 0 0 1 .91.07 5.98 5.98 0 0 1 .73.11l-.1 1.11h-.08c0-.28-.1-.51-.32-.68-.21-.18-.5-.26-.85-.26-.32 0-.58.07-.78.23-.19.15-.3.34-.3.56 0 .16.04.3.15.43.12.12.26.23.43.33l1.58 1.03A1.43 1.43 0 0 1 42 21.3c-.03.53-.24.95-.62 1.25-.4.3-.92.45-1.58.45a3.83 3.83 0 0 1-1.32-.23 1.37 1.37 0 0 1-.42-.27 1.16 1.16 0 0 1-.06-.44c0-.17.03-.34.08-.52.05-.17.1-.32.18-.44h.07c-.02.28.03.55.15.79.13.23.31.42.55.57.24.13.53.2.86.2.37-.01.65-.1.85-.28.2-.18.3-.4.3-.65a.74.74 0 0 0-.16-.46c-.1-.14-.27-.27-.5-.4l-1.45-.95c-.3-.17-.5-.38-.64-.64a1.6 1.6 0 0 1 .1-1.6c.14-.2.34-.38.59-.5.25-.12.55-.18.9-.18Zm1.64 0v.26h-.98l-.4-.25 1.38-.01ZM34.53 19.3l2.14 3.08c.12.17.25.3.38.4.13.08.28.13.45.13V23h-.97a2.59 2.59 0 0 1-1-.28 1.5 1.5 0 0 1-.45-.43 14.74 14.74 0 0 0-.45-.64 21.23 21.23 0 0 0-.67-.97l-.26-.36-.09-.15.92-.86Zm2.05-2.24-2.46 3.06-.5.05 2.24-3.11h.72Zm.57-.06v.08h-.03a1.22 1.22 0 0 0-.9.42l-.66-.02c.06-.1.07-.19.03-.27-.04-.09-.12-.13-.23-.13h-.08V17h1.87Zm-3.8 0v6H32v-6h1.35Zm-1.2 5.37V23h-.65v-.09h.11c.29 0 .5-.25.52-.54h.02Zm0-4.74h-.02c-.01-.28-.24-.54-.52-.54h-.11V17h.65v.63Zm1.18 4.74h.02c.01.3.23.54.53.54h.1V23h-.65v-.63Zm0-4.74V17h.65v.09h-.1c-.3 0-.52.25-.53.54h-.02ZM30.92 20.48 31 21.9c-.13.2-.3.38-.52.55-.21.16-.48.3-.8.4a4.7 4.7 0 0 1-3-.21 2.84 2.84 0 0 1-1.24-1.03c-.3-.45-.44-.99-.44-1.62 0-.61.14-1.14.43-1.59.28-.45.7-.8 1.22-1.04a5.4 5.4 0 0 1 4.1.1l.01 1.4h-.07a1.97 1.97 0 0 0-.77-1.16 2.2 2.2 0 0 0-1.26-.35c-.46 0-.86.1-1.2.32a2.1 2.1 0 0 0-.76.9c-.18.4-.27.86-.27 1.4 0 .55.08 1.02.25 1.41.17.4.42.7.73.93.32.22.7.33 1.13.34.45 0 .83-.06 1.14-.2.3-.14.56-.37.74-.69.2-.31.34-.74.43-1.28h.07ZM21.46 17l2.96 5.95h-1.63l-1.88-4.34.55-1.61Zm-1.95 5.4c-.05.1-.06.2-.02.28.03.07.08.13.15.18.07.04.14.06.22.06h.08V23H18v-.08h.08a.9.9 0 0 0 .43-.12.93.93 0 0 0 .37-.4h.63Zm1.95-5.4.04 1.02-2.25 4.96h-.66l2.34-4.89a4.6 4.6 0 0 0 .24-.5l.14-.33a.8.8 0 0 0 .07-.26h.08Zm.95 4v.37h-2.66V21h2.66Zm.14 1.4h1.58a1 1 0 0 0 .37.4.9.9 0 0 0 .43.12H25V23h-2.88v-.08h.08c.12 0 .23-.05.32-.14.09-.1.1-.22.03-.39ZM15.88 17a6.1 6.1 0 0 1 .92.07 5.98 5.98 0 0 1 .72.11l-.1 1.11h-.08c0-.28-.1-.51-.32-.68-.21-.18-.5-.26-.85-.26-.32 0-.58.07-.78.23-.19.15-.3.34-.3.56 0 .16.04.3.15.43.12.12.26.23.43.33l1.58 1.03A1.43 1.43 0 0 1 18 21.3c-.03.53-.24.95-.62 1.25-.4.3-.92.45-1.58.45a3.83 3.83 0 0 1-1.32-.23 1.37 1.37 0 0 1-.42-.27 1.16 1.16 0 0 1-.06-.44c0-.17.03-.34.08-.52.05-.17.1-.32.18-.44h.07c-.02.28.03.55.15.79.13.23.31.42.55.57.24.13.53.2.86.2.37-.01.65-.1.85-.28.2-.18.3-.4.3-.65a.74.74 0 0 0-.16-.46c-.1-.14-.27-.27-.5-.4l-1.45-.95c-.3-.17-.5-.38-.64-.64a1.6 1.6 0 0 1 .1-1.6c.14-.2.34-.38.59-.5.25-.12.55-.18.9-.18Zm1.64 0v.26h-.98L16 17h1.52ZM44.99 25v6h-1.3v-6h1.3Zm2.36 5.63.22.37h-2.58v-.37h2.36Zm-.33-2.77v.36H45v-.36h2.03Zm.44-2.86v.37h-2.47V25h2.47Zm.54 4.24L47.6 31h-1.75l.32-.37c.3 0 .56-.05.78-.16.23-.12.42-.28.58-.48.16-.21.29-.46.38-.75H48Zm-.98-1.03v.82h-.08v-.07a.7.7 0 0 0-.22-.52.78.78 0 0 0-.54-.22v-.01h.84Zm0-1.15v.82h-.84v-.02a.72.72 0 0 0 .75-.75v-.05h.1Zm.44-1.72v1h-.09v-.1a.84.84 0 0 0-.25-.63.91.91 0 0 0-.65-.25v-.02h.99Zm-3.75 5.03V31H43v-.09H43.12c.3 0 .55-.23.56-.54h.03Zm0-4.74h-.03a.58.58 0 0 0-.56-.54H43V25h.7v.63ZM26.99 25v6h-1.3v-6h1.3Zm2.36 5.63.22.37h-2.58v-.37h2.36Zm-.33-2.77v.36H27v-.36h2.03Zm.44-2.86v.37h-2.47V25h2.47Zm.54 4.24L29.6 31h-1.75l.32-.37c.3 0 .56-.05.78-.16.23-.12.42-.28.58-.48.16-.21.29-.46.38-.75H30Zm-.98-1.03v.82h-.08v-.07a.7.7 0 0 0-.22-.52.78.78 0 0 0-.54-.22v-.01h.84Zm0-1.15v.82h-.84v-.02a.72.72 0 0 0 .75-.75v-.05h.1Zm.44-1.72v1h-.09v-.1a.84.84 0 0 0-.25-.63.91.91 0 0 0-.65-.25v-.02h.99Zm-3.75 5.03V31H25v-.09H25.12c.3 0 .55-.23.56-.54h.03Zm0-4.74h-.03a.58.58 0 0 0-.56-.54H25V25h.7v.63ZM40.59 25.03V31H39.4v-5.97h1.18ZM42.5 25v.36h-5V25h5Zm0 .33v1.01h-.08v-.1a.88.88 0 0 0-.22-.63.76.76 0 0 0-.58-.25v-.03h.88Zm-3.06 5.05V31h-.63v-.09h.1c.14 0 .25-.05.35-.15.1-.1.15-.24.15-.38h.03Zm1.12 0h.03c0 .14.05.27.14.38.1.1.22.15.36.15h.1V31h-.63v-.62Zm-2.2-5.05v.03a.77.77 0 0 0-.57.25.9.9 0 0 0-.21.63v.1h-.08v-1h.87ZM30.68 25l5.55 5 .1 1-5.55-5-.1-1Zm.04 5.5v.5H30v-.08H30.17c.14 0 .26-.05.37-.15.1-.1.16-.13.16-.27h.02Zm1.22 0c0 .14.05.17.16.27.1.1.22.15.37.15h.16V31h-.72v-.5h.03ZM30.68 25 32 26.26V31h-1.3v-4.97c0-.3-.02-.56-.06-.74L30.6 25h.09Zm5.62 0v4.95a5.28 5.28 0 0 0 .1 1.05h-.07L35 29.67V25h1.3Zm.7 0v.08h-.16a.53.53 0 0 0-.37.15c-.1.1-.16.21-.17.35h-.02V25H37Zm-2.63 0h.72v.58h-.02a.48.48 0 0 0-.17-.35.5.5 0 0 0-.37-.15h-.16V25ZM20.78 25h.99c1 0 1.92.52 1.92 1.62 0 .8-.5 1.54-1.33 1.63.18.06.33.16.47.3.48.5.77 1.16 1.17 1.71.12.16.23.28.32.38.1.1.2.16.3.2.12.05.24.07.38.07V31h-.79c-.3 0-.55-.03-.8-.08a1.78 1.78 0 0 1-.62-.28c-.57-.41-.94-1.34-1.14-2-.07-.18-.1-.32-.2-.4a.54.54 0 0 0-.3-.17v-.09h.25c.15 0 .23-.03.37-.1.28-.12.5-.39.6-.9l.02-.17v-.23c-.02-.58-.23-1.19-.89-1.2h-.64l-.02-.1a2.35 2.35 0 0 0-.04-.19l-.02-.09Zm.22 0v6h-1.32v-6H21Zm-1.3 5.37V31h-.64v-.09h.1c.14 0 .26-.05.36-.15.1-.1.15-.24.16-.39h.02Zm0-4.74h-.02a.54.54 0 0 0-.16-.38.46.46 0 0 0-.36-.16h-.1V25h.64v.63Zm1.16 4.74h.03c0 .15.05.28.15.39.1.1.22.15.36.15h.1V31h-.64v-.63ZM15.46 25l2.96 5.95h-1.63l-1.88-4.34.55-1.61Zm-1.95 5.4c-.05.1-.06.2-.02.28.03.07.08.13.15.18.07.04.14.06.22.06h.08V31H12v-.08h.08a.9.9 0 0 0 .43-.12.93.93 0 0 0 .37-.4h.63Zm1.95-5.4.04 1.02-2.25 4.96h-.66l2.34-4.89a4.5 4.5 0 0 0 .24-.5l.14-.33a.8.8 0 0 0 .07-.26h.08Zm.95 4v.37h-2.66V29h2.66Zm.14 1.4h1.58a1 1 0 0 0 .37.4.9.9 0 0 0 .43.12H19V31h-2.88v-.08h.08c.12 0 .23-.05.32-.14.09-.1.1-.22.03-.39ZM9.89 25h.98c1.05 0 2.09.47 2.13 1.65a1.75 1.75 0 0 1-2.76 1.5v-.09h.1a1.38 1.38 0 0 0 .63-.16c.39-.2.62-.64.65-1.07v-.26c0-.66-.4-1.21-1.1-1.21h-.55l-.02-.09a1.65 1.65 0 0 0-.04-.18L9.89 25Zm.11 0v6H8.71v-6H10Zm-1.26 5.37V31H8v-.09h.11c.3 0 .59-.24.6-.54h.03Zm0-4.74H8.7c0-.3-.3-.54-.6-.54h-.1L8 25h.74v.63Zm1.23 4.74H10c.01.3.2.54.5.54h.11V31h-.64v-.63Z" fill="#2E2E2E"/><path d="M38 33v6h-1.2v-6H38Zm1.61 2.86v.36h-1.63v-.36h1.63ZM40 33v.37h-2.02V33H40Zm-.39 3.2v.83h-.08v-.07a.74.74 0 0 0-.19-.52.66.66 0 0 0-.49-.22v-.01h.76Zm0-1.14v.82h-.76v-.02c.2 0 .36-.07.49-.21.13-.14.2-.32.2-.53v-.06h.07Zm.39-1.72v.95h-.08v-.08a.84.84 0 0 0-.21-.61.72.72 0 0 0-.57-.23v-.03H40Zm-3.17 5.03V39H36v-.09h.1c.3 0 .7-.26.7-.54h.03Zm0-4.74h-.02c-.01-.28-.42-.54-.7-.54H36V33h.83v.63Zm1.15 4.74H38c.01.29.02.54.31.54h.11V39h-.44v-.63ZM32 33v6h-1.32v-6H32Zm2.35 5.63.22.37H32l-.01-.37h2.36Zm.65-1.39L34.6 39h-1.75l.32-.37c.3 0 .56-.05.78-.16.23-.12.42-.28.58-.48.16-.21.29-.46.38-.75H35Zm-4.3 1.13V39H30v-.09H30.12c.15 0 .28-.05.39-.15.1-.1.17-.24.17-.39h.03Zm0-4.74h-.02a.52.52 0 0 0-.17-.38.53.53 0 0 0-.4-.16H30V33h.7v.63Zm1.29 0L32 33h.7v.09H32.58a.55.55 0 0 0-.4.16c-.1.1-.16.23-.17.38H32ZM26 33c.6 0 1.13.12 1.58.37.45.24.8.59 1.05 1.03.25.45.37.98.37 1.6 0 .62-.12 1.15-.37 1.6-.25.44-.6.79-1.05 1.04-.45.24-.97.36-1.58.36-.61 0-1.14-.12-1.6-.36-.44-.25-.79-.6-1.03-1.04A3.28 3.28 0 0 1 23 36c0-.62.12-1.15.37-1.6.24-.44.59-.79 1.03-1.03.46-.25.99-.37 1.6-.37Zm0 5.65c.36 0 .67-.1.93-.32s.46-.53.6-.92c.14-.4.21-.87.21-1.41 0-.54-.07-1.01-.21-1.4-.14-.4-.34-.71-.6-.92a1.4 1.4 0 0 0-.93-.33c-.36 0-.67.1-.93.33-.26.21-.46.52-.6.91-.15.4-.22.87-.22 1.41 0 .54.07 1.01.21 1.4.15.4.35.71.6.93.27.22.58.32.94.32ZM21.5 36.45v1.49c-.13.16-.31.33-.56.5a3.41 3.41 0 0 1-2.01.56c-.6 0-1.1-.12-1.54-.36-.44-.25-.78-.6-1.03-1.05A3.33 3.33 0 0 1 16 36c0-.61.12-1.14.36-1.59.24-.44.58-.79 1.03-1.03.44-.25.97-.37 1.58-.37a5.12 5.12 0 0 1 2.14.45l.02 1.41h-.07c-.1-.37-.24-.67-.43-.89-.19-.22-.4-.38-.65-.48-.24-.1-.5-.14-.77-.14-.42 0-.78.1-1.07.33-.3.21-.51.52-.66.92-.15.4-.22.88-.22 1.44 0 .53.07.99.2 1.39a2 2 0 0 0 .6.9 1.68 1.68 0 0 0 1.51.23c.19-.06.34-.16.48-.28a1 1 0 0 0 .29-.44v-1.39c0-.24-.13-.37-.4-.37h-.12V36H22v.08h-.12c-.26 0-.4.13-.38.37Z" fill="#D0A36C"/></svg>