<!-- by TradingView --><svg width="56" height="56" viewBox="0 0 56 56" xmlns="http://www.w3.org/2000/svg"><path fill="#F0F3FA" d="M0 0h56v56H0z"/><path d="M15.95 33.84s-1.64-3.75 1.79-4.98c3.41-1.23 4.04-2.56.25-5.67-3.8-3.12-4.04-9.61 2.72-9.17 7.47.5 6.3 6.5 6.24 7.8-.05 1.27-.56 6.4 3.48 6.1 4.04-.3 5.56-6.14 6.2-7.59.81-1.87 3.17-5.42 7.47-4.04 3.62 1.16 1.12 5.37.2 5.82 0 0 1.51-3.68-1.82-3.68-3.32 0-5.57 6.8-5.78 7.5-.2.69-1.59 6.46-6.24 6.01-4.66-.44-4.92-4.83-5.02-9.61-.1-4.78-2.61-6.25-5.02-6.16-2.17.07-3.55 2.93.05 6.01 3.32 2.83 3.28 6.16 1.34 7.54-1.95 1.38-4.53.08-5.86 4.12Z" fill="#F57F29"/><path d="M15.82 35.05s1.12 2.46 2.6 1.38c1.5-1.09-.3-5.03-4.85-8.04-4.56-3-5.25-4.6-4.05-5.81 1.66-1.67 19.04.44 16.74 19.42l-3.69-1.33s.29-8.85-2.15-11.64c-2.33-2.67-5.55-4.8-6.73-3.27-.73.95 2.03 2.58 3.36 4.16s6.44 7.89 2.76 9.22c-3.69 1.33-4-4.1-4-4.1ZM45.2 22.72s-.13 1.56-4.81 1.98c-4.4.39-8.55.54-5.12 6.6 3.43 6.07.71 6.41-.82 5.67-1.54-.74-6.1-4.83-.77-14.6l-4.6.25s-3.9 17.6 6.21 17.24c4.25-.16 4.86-3.21 2.08-7.47-2.8-4.27-.72-4.99 2.66-5.72 3.5-.77 5.12-1.24 5.17-3.95Z" fill="#008599"/></svg>