<!-- by TradingView --><svg width="56" height="56" viewBox="0 0 56 56" xmlns="http://www.w3.org/2000/svg"><path fill="#F0F3FA" d="M0 0h56v56H0z"/><path fill-rule="evenodd" d="M28 44a16 16 0 1 0 0-32 16 16 0 0 0 0 32Zm-8.52-11.92A7.7 7.7 0 0 0 24.54 34c1.2 0 2.4-.24 3.49-.87 1.85-1.07 2.87-3.16 3.38-5.22.14-.58.2-1.16.19-1.73-.05-1.4.02-3.77 1.26-4.68.1-.08.19-.16.27-.26.03-.04.05-.1.05-.15.02-.55.01-1.12 0-1.7-.06-1.66.86-2.8 2.46-3.3.62-.2 1.75-.1 1.7.81-.03.74-.57.91-1.13 1.1l-.24.07c-.86.29-1.23 1.55-1.2 2.36 0 .05.02.07.06.07l1.52.15c.05 0 .07-.01.08-.06.17-1.32 1.15-2.56 2.57-2.43.91.09 1 1.16.1 1.43-.84.26-1.3.8-1.37 1.66 0 .07.02.13.08.18 1.4 1.02 2.13 2.63 2.18 4.82.11 4.53-1.2 8.62-4.97 11.34-2 1.44-4.47 2.4-6.93 2.4-3.35.03-6.5-.75-8.72-3.21a13 13 0 0 1-3.35-7.55c-.03-.28-.02-.54.03-.8.16-.75.38-.77.66-.04a9.5 9.5 0 0 0 2.77 3.7ZM34.01 25c-.01.55.2 1 .49 1 .27 0 .5-.43.51-.98.01-.55-.2-1-.49-1-.27 0-.5.43-.51.98Zm3.49 1c-.28 0-.5-.44-.5-1 0-.55.21-1 .48-1 .28 0 .5.45.5 1s-.21 1-.48 1Zm-9.27 4.24a6 6 0 1 0-8.48-8.48 6 6 0 0 0 8.48 8.48ZM21 26.18A3 3 0 1 0 24.07 23c-.27-.01-.44.12-.5.38a.46.46 0 0 0 .04.34.33.33 0 0 0 .28.18c3.07.14 2.7 4.4-.07 4.15-1.02-.1-1.97-.96-1.89-2.09.02-.18.02-.37 0-.56a.35.35 0 0 0-.25-.31c-.71-.2-.7.68-.67 1.1Z" fill="#F7981E"/></svg>