<!-- by TradingView --><svg width="56" height="56" viewBox="0 0 56 56" xmlns="http://www.w3.org/2000/svg"><path fill="#F0F3FA" d="M0 0h56v56H0z"/><path d="M48.18 34c-2.6 0-4.18-1.96-4.18-4.48 0-.9.17-1.68.5-2.36A3.84 3.84 0 0 1 48.07 25c.53 0 1.03.09 1.5.26s.9.44 1.25.8c.37.35.66.81.87 1.37.2.55.31 1.2.31 1.97v.58h-7.05v-1.33h5.1c0-.4-.08-.74-.24-1.05a1.85 1.85 0 0 0-1.71-1c-.42 0-.78.1-1.1.3-.3.2-.55.47-.73.8-.17.33-.27.68-.27 1.07v1.21c0 1.33.81 2.42 2.2 2.42.79 0 1.54-.35 1.82-1.12l1.9.21c-.41 1.73-2.1 2.51-3.74 2.51ZM30 34v-9h2.01v1.63c.18-.51.48-.91.9-1.2.4-.29.9-.43 1.47-.43a2.3 2.3 0 0 1 2.3 1.63h.1c.18-.5.5-.9.95-1.18.45-.3.98-.45 1.6-.45.79 0 1.43.26 1.93.78.5.51.74 1.27.74 2.26V34h-2.02v-5.64c0-.55-.14-.95-.42-1.2a1.47 1.47 0 0 0-1.03-.4c-.49 0-.87.16-1.14.48-.27.31-.4.72-.4 1.22V34H35v-5.73c0-.46-.13-.82-.4-1.1-.26-.27-.6-.4-1.03-.4-.3 0-.55.07-.8.23a1.6 1.6 0 0 0-.56.64c-.14.27-.2.6-.2.96V34H30ZM26 34v-9h2v9h-2Z" fill="#262626"/><path d="M4 30v-8h2v7.5C6 31.26 7.14 32 8.68 32c1.38 0 2.32-1.06 2.32-2.5v-3.93A3.5 3.5 0 0 1 14.42 22H24v2h-3v10h-2V24h-4.25c-1.38 0-1.75.56-1.75 2v4c0 1.97-1.24 4-3.13 4H7.8C5.9 34 4 31.97 4 30Z" fill="#E38929"/><path d="M26 24v-2h2v2h-2Z" fill="#262626"/></svg>