<?xml version="1.0" encoding="UTF-8"?>
<svg version="1.1" xmlns="http://www.w3.org/2000/svg" width="175" height="175">
<path d="M0 0 C57.75 0 115.5 0 175 0 C175 57.75 175 115.5 175 175 C117.25 175 59.5 175 0 175 C0 117.25 0 59.5 0 0 Z " fill="#14171A" transform="translate(0,0)"/>
<path d="M0 0 C5.16993701 2.20973114 9.42532594 1.3323115 14.6875 -0.58984375 C21.52787604 -2.67716438 29.94407326 -2.94258532 36.5 0.1875 C39.35256251 1.91372882 41.77893044 3.81741305 43.875 6.4375 C43.875 7.0975 43.875 7.7575 43.875 8.4375 C42.1934498 9.97067812 40.40629929 11.32191433 38.6015625 12.70703125 C35.03891653 16.2777375 34.5462835 20.36754058 34.4375 25.25 C34.55443469 31.19905257 35.80249561 35.07266237 39.875 39.4375 C42.13105193 41.3439571 44.36144768 42.86036914 46.875 44.4375 C43.53485775 54.37494184 38.40935376 62.23069727 29.875 68.4375 C24.71458463 70.15763846 20.4210135 69.76302024 15.375 67.9375 C9.59532289 65.8872767 5.15467711 65.8872767 -0.625 67.9375 C-4.66264683 69.36094159 -7.80255033 70.07786291 -12.125 69.4375 C-22.41628922 64.29185539 -28.60103297 52.14583331 -32.4230957 41.67163086 C-35.62548914 31.72510837 -35.95945353 21.38344204 -31.625 11.75 C-27.99908257 5.51581649 -23.66430292 2.13021009 -17.25 -0.9375 C-11.28264992 -2.13097002 -5.66892368 -2.43272709 0 0 Z " fill="#FDFDFD" transform="translate(81.125,58.5625)"/>
<path d="M0 0 C0.56975912 5.46968753 -0.33565962 8.52651156 -3.4296875 13.0703125 C-6.36613187 16.67877897 -9.81895115 19.90947558 -14 22 C-15.99960012 22.039992 -18.00047242 22.04346799 -20 22 C-20.56023332 16.62176016 -19.7457045 13.41648886 -16.69921875 8.9296875 C-12.48018954 4.13842215 -6.51641791 0 0 0 Z " fill="#F6F6F7" transform="translate(108,34)"/>
</svg>
