<!-- by TradingView --><svg width="56" height="56" viewBox="0 0 56 56" xmlns="http://www.w3.org/2000/svg"><path fill="#F0F3FA" d="M0 0h56v56H0z"/><path d="M39.9 29.42c.02.22-.04.24-.16.06a13.82 13.82 0 0 0-3.79-3.42 41.8 41.8 0 0 0-4.68-2.48c-4.81-2.25-6.95-6.03-6.4-11.33 0-.12.07-.2.2-.23a.26.26 0 0 1 .3.08 22.1 22.1 0 0 0 4.36 3.93c.4.27 1.02.67 1.88 1.2 2.72 1.7 4.54 3.1 5.43 4.17 1.66 2 2.61 4.67 2.87 8.02Z" fill="#CF020F"/><path d="M17.5 19.52a28.57 28.57 0 0 0 5.94 3.83c.78.37 1.98.78 3.62 1.22 1.15.31 2.01.57 2.58.78a18.84 18.84 0 0 1 7.41 4.67 13.06 13.06 0 0 1 3.51 7.52c.07.54-.08.6-.46.19a14.42 14.42 0 0 0-5.28-3.8 31.86 31.86 0 0 0-6.67-1.7c-6.26-1.04-9.92-5.22-10.97-12.55-.04-.32.06-.38.32-.16Z" fill="#029AAC"/><path d="M14.38 29.17a19.33 19.33 0 0 0 6.2 3.63c1.86.66 4.42 1.22 7.68 1.68 3.1.44 5.67 1.38 7.7 2.82 2.13 1.5 3.8 3.63 5.02 6.37.05.12.02.2-.08.28-.11.07-.21.07-.3-.02a12.98 12.98 0 0 0-4.78-2.63c-1-.32-2.52-.48-4.57-.5-1.23 0-2.15-.04-2.77-.1a29 29 0 0 1-6.7-1.5c-2.65-.98-4.41-2.27-5.28-3.86a29.22 29.22 0 0 1-2.45-5.97c-.12-.44-.01-.5.33-.2Z" fill="#02593C"/></svg>