<!-- by TradingView --><svg width="56" height="56" viewBox="0 0 56 56" xmlns="http://www.w3.org/2000/svg"><path fill="#F0F3FA" d="M0 0h56v56H0z"/><path fill-rule="evenodd" d="m16 12 1.55 11H25l-9-11Zm12 35L18 24l10 8.27L38 24 28 47ZM17.6 26.99l5.24 13.82L16 31.65l1.6-4.66ZM33.16 40.8l5.24-13.82 1.6 4.66-6.84 9.16Zm5.3-17.8L40 12l-9 11h7.45Zm-17.73 1h8.05v.74h.48V24h5.96L31 27.5v-.57l-.6-.88v-.71c0-.07.05-.12.1-.12s.1.05.1.12v.71h.4v-.44c0-.34-.22-.61-.5-.61s-.5.27-.5.61v.62l.6.88v.57c0 .06-.05.11-.1.11s-.1-.05-.1-.11v-.57l-.1-.14H30v.56c0 .26.17.47.38.47h.01l-2.41 2-2.42-2a.5.5 0 0 0 .44-.5v-.63h-.3c-.05 0-.08.03-.1.1v.7c0 .06-.05.11-.1.11s-.1-.05-.1-.12v-2.32c0-.07.05-.12.1-.12s.1.05.1.12V26h.4v-.51a.5.5 0 0 0-1 0v2.04L20.73 24Zm7.95 1h.58v2.78h.09V28h-.66v-.22h.09V25.3h-.1V25Zm-1.68.24v-.5c0-.41.25-.74.56-.74.24 0 .44.26.44.59v1.01a.4.4 0 0 1-.17.25c.06.04.17.16.17.3v1.19c0 .36-.22.66-.5.66s-.5-.3-.5-.66v-.67h.46v.93c0 .05.04.1.08.1s.08-.05.08-.1v-1.36c0-.17-.1-.3-.23-.3h-.16v-.2h.2c.1 0 .19-.1.19-.25v-1.16c0-.05-.04-.1-.08-.1s-.08.05-.08.1v.91H27Z" fill="#30271C"/></svg>