<!-- by TradingView --><svg width="56" height="56" viewBox="0 0 56 56" xmlns="http://www.w3.org/2000/svg"><path fill="#F0F3FA" d="M0 0h56v56H0z"/><path d="M13.5 19a2209 2209 0 0 0 13.97 8.2V19H13.5Zm15.05 8.2S42.39 19.11 42.5 19H28.55v8.2Z" fill="#94D4E3"/><path d="M13 20.25a943 943 0 0 0 6.45 11.32l.47.8 3.44-1.98c1.9-1.1 3.49-2.03 3.54-2.08.04-.05-2.95-1.84-6.66-3.99l-7.04-4.1c-.27-.17-.28-.16-.2.03ZM36 24.17c-6.45 3.75-6.96 4.07-6.74 4.23.13.09 1.71 1.02 3.5 2.06 2.43 1.41 3.3 1.87 3.4 1.76.08-.07 1.6-2.7 3.41-5.86a782.1 782.1 0 0 1 3.45-5.99c.1-.15.13-.27.07-.26-.06 0-3.25 1.83-7.09 4.06Zm-12.08 7.01a37.04 37.04 0 0 0-3.45 2.12c.02.06 1.59 2.81 3.48 6.1l3.45 6V29.18l-3.48 2Zm4.62 14.22c.13-.14 6.96-11.95 7-12.09a31.7 31.7 0 0 0-2.99-1.84l-3.5-2.05-.51-.3V45.4Z" fill="#55B8B3"/><path d="M13.43 18H27.4v-8l-13.98 8Zm15.2 0h13.88s-13.12-7.57-13.87-7.98V18ZM12 36.94l3.5-2.02a39.43 39.43 0 0 0 3.5-2.14c-.04-.15-6.86-11.86-7-12.01v16.17ZM40.5 26.7c-1.89 3.3-3.44 6.05-3.45 6.11 0 .06 1.54 1.02 3.44 2.13l3.51 2V20.7l-3.5 6ZM16.1 35.7a116.03 116.03 0 0 0-3.51 2.07c-.06.06 2.97 1.89 6.92 4.18 3.86 2.24 7.04 4.05 7.06 4.03a578.7 578.7 0 0 0-6.98-12.16c-.05-.05-1.63.8-3.5 1.88Zm20.08-1.48A578.55 578.55 0 0 0 29.48 46c.2 0 14.04-8.13 13.97-8.2-.05-.05-1.47-.89-3.15-1.86l-3.44-2-.38-.24-.3.52Z" fill="#3F7F7D"/></svg>