<!-- by TradingView --><svg width="56" height="56" viewBox="0 0 56 56" xmlns="http://www.w3.org/2000/svg"><path fill="#7469AE" d="M0 0h56v56H0z"/><path d="M11 30.37V23h1.5v7.02c0 .48.42.55.55.52.12.62.37 1.04.48 1.17-.1.1-.45.29-1.08.29-1.17 0-1.46-1.08-1.45-1.63Zm-2.02-4.69.9-1.08a2.89 2.89 0 0 0-2.24-1.1C5.8 23.5 4 25.05 4 27.78 4 30.51 5.63 32 7.39 32c1.4 0 2.32-.68 2.61-1.01V27H7.39v1.5H8.5v1.71c-1.63.75-3-.5-3-2.43 0-1.94 1.25-2.73 2.14-2.73.71 0 1.2.42 1.34.63Zm5.02 4.5V26h1.5v3.8c0 .4.54.72.96.72h.05c.46 0 .8-.32.99-.63V26H19v6h-1.2l-.16-.97c-.46.5-1.12.97-1.94.97-1.36 0-1.7-1.22-1.7-1.83Zm10.5-3.55a3.16 3.16 0 0 0-1.9-.63 3.05 3.05 0 0 0-3.1 3c0 1.66 1.39 3 3.1 3 .72 0 1.38-.23 1.9-.63-.39-.4-.68-.88-.84-1.42a1.5 1.5 0 1 1 0-1.9c.16-.54.45-1.02.84-1.42ZM27 32c1.5 0 2.74-1.05 3-2.45h-1.6a1.5 1.5 0 0 1-2.8 0H24A3.04 3.04 0 0 0 27 32Zm1.4-3.55H30A3.04 3.04 0 0 0 27 26a3.04 3.04 0 0 0-3 2.45h1.6a1.5 1.5 0 0 1 2.8 0Z" fill="#fff"/><path d="M22.5 30a1 1 0 1 0 0-2 1 1 0 0 0 0 2Zm4.5 0a1 1 0 1 0 0-2 1 1 0 0 0 0 2Z" fill="#28ADE5"/><path fill-rule="evenodd" d="M32 23h-2v1h2v8h1v-8h2v-1h-3Zm4.9 4 .27-.88a1.4 1.4 0 0 0-.65-.12c-.4 0-1.14.37-1.58 1.2l-.13-1.2H34v6h1v-3.83c.32-.69 1.03-1.63 1.9-1.16Zm.8.49-.44-.71a3.6 3.6 0 0 1 2.17-.78c1.53 0 2.02 1.26 2.07 1.89V32h-.79l-.17-.8c-.4.38-1.05.8-1.92.8-1.21 0-1.58-1-1.62-1.5 0-1.66 2.14-2.14 3.5-2.2v-.06c0-.34.02-1.46-1.14-1.46-.97 0-1.52.47-1.67.7Zm2.8 1.42v1.61c-.32.34-.87.75-1.52.75-.36-.01-.98-.22-.98-1 0-.88 1.4-1.26 2.5-1.36Zm5.37-1.6.53-.64a2.83 2.83 0 0 0-1.8-.67c-1.25 0-2.6.88-2.6 3.12S43.46 32 44.6 32c.93 0 1.68-.5 1.94-.75l-.54-.6c-.17.18-.68.54-1.33.54-.81 0-1.67-.4-1.67-2.07s.83-2.34 1.67-2.34c.67 0 1.08.36 1.2.54ZM48 23h-1v9h1v-1.5l1.3-1.54L50.96 32H52l-2.12-3.74 1.9-2.26h-1.14L48 29.16V23Z" fill="#28ADE5"/></svg>