<!-- by TradingView --><svg width="56" height="56" viewBox="0 0 56 56" xmlns="http://www.w3.org/2000/svg"><path fill="#F0F3FA" d="M0 0h56v56H0z"/><path fill-rule="evenodd" d="M37.5 34a4.5 4.5 0 1 0 0-9 4.5 4.5 0 0 0 0 9Zm0-1.53c1.73 0 3-1.32 3-3.05a2.95 2.95 0 0 0-3-3.05c-1.73 0-3 1.32-3 3.05a2.96 2.96 0 0 0 3 3.05Z" fill="#202A44"/><path d="M28 32.65c1.18 0 2.03-.83 2.36-1.99h-2.38v-1.54h4l.02.46c0 2.44-1.8 4.42-4 4.42s-4-1.98-4-4.42 1.8-4.42 4-4.42c1.22 0 2.3.6 3.04 1.55l-1.03.99A2.3 2.3 0 0 0 28 26.54c-1.52 0-2.5 1.34-2.5 3.04s.98 3.07 2.5 3.07ZM14 25v9h1.5v-4.5l3 4.48 3-4.48V34H23v-9l-4.5 6.58L14 25Z" fill="#202A44"/><path fill-rule="evenodd" d="M12 12h32v32H12V12Zm1 1h30v22H13V13Zm6.34 26.7h.64l.02.3a2 2 0 1 1-.48-1.3l-.47.4c-.25-.3-.63-.5-1.05-.5-.76 0-1.37.63-1.37 1.4 0 .77.61 1.39 1.37 1.39.65 0 1.19-.45 1.33-1.07H18v-.62h1.35ZM26 42a2 2 0 1 0 0-4 2 2 0 0 0 0 4Zm0-.61a1.39 1.39 0 1 0 0-2.78 1.39 1.39 0 0 0 0 2.78ZM21 38h.72v3.36H24V42h-3v-4Zm17.72 0H38v4h3v-.64h-2.28V38Zm-7.93 0H29v4h1.87a1.13 1.13 0 0 0 .68-2.03A1.13 1.13 0 0 0 30.8 38Zm-.14.53h-.98v1.2h.98a.6.6 0 1 0 0-1.2Zm.06 1.74h-1.02v1.2h1.02a.6.6 0 0 0 0-1.2ZM37 42h-.74l-.43-.85h-1.66l-.43.85H33l2-4 2 4Zm-2.57-1.38.57-1.13.57 1.13h-1.14Z" fill="#202A44"/></svg>