<!-- by TradingView --><svg width="56" height="56" viewBox="0 0 56 56" xmlns="http://www.w3.org/2000/svg"><path fill="#F0F3FA" d="M0 0h56v56H0z"/><path d="M19 16a4 4 0 0 1 4.01-4h10.01c2.2 0 4.04 1.8 3.98 4.06-.2 7.37-1.5 12.57-5.13 15.8-3.57 3.18-8.92 4.01-15.82 4.14A3.98 3.98 0 0 1 12 32v-9a4 4 0 0 1 4-4h3v-3Zm13.96 1.03a.99.99 0 0 0-1-1.03h-7.95a1 1 0 0 0-1 1v5a1 1 0 0 1-1 1h-5a1 1 0 0 0-1 1v6.98a1 1 0 0 0 1.02 1c6.26-.2 9.93-1.1 12.18-3.1 2.19-1.96 3.46-5.36 3.75-11.85Z" fill="#1593CE"/><path d="M37 40a4 4 0 0 1-4.01 4H22.98c-2.2 0-4.04-1.8-3.98-4.06.2-7.37 1.5-12.57 5.13-15.8 3.57-3.18 8.92-4.01 15.82-4.14A3.98 3.98 0 0 1 44 24v9a4 4 0 0 1-4 4h-3v3Zm-13.96-1.03a.99.99 0 0 0 1 1.03h7.95a1 1 0 0 0 1-1v-5a1 1 0 0 1 1-1h5a1 1 0 0 0 1-1v-6.98a1 1 0 0 0-1.02-1c-6.26.2-9.93 1.1-12.18 3.1-2.19 1.96-3.46 5.36-3.75 11.85Z" fill="#18BECE"/></svg>