<!-- by TradingView --><svg width="56" height="56" viewBox="0 0 56 56" xmlns="http://www.w3.org/2000/svg"><path fill="#F0F3FA" d="M0 0h56v56H0z"/><path fill-rule="evenodd" d="M28 43a15 15 0 1 0 0-30 15 15 0 0 0 0 30Zm0 2a17 17 0 1 0 0-34 17 17 0 0 0 0 34Z" fill="url(#a)"/><circle cx="36.5" cy="28.5" r="1.5" fill="url(#b)"/><path d="M37.87 24.6c-.06-.44-.58-.62-.87-.3l-7.46 8.17a2.99 2.99 0 0 1-5-.89l-2.95-6.77a.5.5 0 0 0-.93 0l-3.71 8.56a1 1 0 0 1-1.35.53 1.1 1.1 0 0 1-.5-1.41l3.7-8.57a2.5 2.5 0 0 1 4.64 0l2.96 6.77a1 1 0 0 0 1.67.3l7.45-8.16c1.48-1.62 4.08-.73 4.37 1.49l1.1 8.47c.08.58-.31 1.12-.87 1.2a1.03 1.03 0 0 1-1.15-.92l-1.1-8.47Z" fill="url(#c)"/><path d="M37 24.3c.29-.32.81-.14.87.3l1.1 8.47c.08.59.59 1 1.15.92.56-.08.95-.62.87-1.2l-1.1-8.47c-.29-2.22-2.9-3.1-4.37-1.5L28.06 31a1 1 0 0 1-1.66-.3l-2.96-6.77a2.5 2.5 0 0 0-4.45-.36c.83-.31 1.83-.43 2.51.94.12.23.2.49.28.76l2.77 6.32a2.99 2.99 0 0 0 4.99.89l7.45-8.16Z" fill="url(#d)"/><path d="M30.15 31.8a6.8 6.8 0 0 1-1.65.2c-.73 0-1.25-.37-1.59-.77.38.17.84.1 1.16-.24l7.45-8.16c1.48-1.62 4.08-.73 4.37 1.49l1.1 8.47c.08.58-.31 1.12-.87 1.2a1.03 1.03 0 0 1-1.15-.92l-1.1-8.47c-.06-.44-.58-.62-.87-.3l-6.85 7.5Z" fill="url(#e)"/><path d="M35.88 22.5c.98.16 2.12.89 2.12 3v.1l.97 7.47c.08.59.59 1 1.15.92.56-.08.95-.62.87-1.2l-1.1-8.47c-.27-2.05-2.51-2.97-4.01-1.82Z" fill="url(#f)"/><defs><linearGradient id="a" x1="18.5" y1="15" x2="39" y2="42" gradientUnits="userSpaceOnUse"><stop stop-color="#359CFB"/><stop offset="1" stop-color="#3560FD"/></linearGradient><linearGradient id="b" x1="35.5" y1="27.5" x2="36.5" y2="30" gradientUnits="userSpaceOnUse"><stop stop-color="#4199FF"/><stop offset="1" stop-color="#2B5EC7"/></linearGradient><linearGradient id="c" x1="28" y1="22" x2="28" y2="34" gradientUnits="userSpaceOnUse"><stop stop-color="#3DA8F8"/><stop offset="1" stop-color="#3D9AFA"/></linearGradient><linearGradient id="d" x1="21.5" y1="23" x2="28.09" y2="34" gradientUnits="userSpaceOnUse"><stop stop-color="#388EFB"/><stop offset="1" stop-color="#3585F8"/></linearGradient><linearGradient id="e" x1="35.5" y1="23" x2="28" y2="32.5" gradientUnits="userSpaceOnUse"><stop stop-color="#318AFF"/><stop offset="1" stop-color="#3C62FF"/></linearGradient><linearGradient id="f" x1="38.49" y1="22" x2="38.49" y2="34" gradientUnits="userSpaceOnUse"><stop stop-color="#3256FD"/><stop offset="1" stop-color="#3047F5"/></linearGradient></defs></svg>