<!-- by TradingView --><svg width="56" height="56" viewBox="0 0 56 56" xmlns="http://www.w3.org/2000/svg"><path fill="#F0F3FA" d="M0 0h56v56H0z"/><path d="M35.42 19.83a11.04 11.04 0 0 0-14.84 16.33l.39-.42a10.46 10.46 0 0 1 14.07-15.48l.38-.43Z" fill="url(#a)"/><path d="M20.58 36.17a11.04 11.04 0 0 0 14.84-16.33l-.39.42a10.46 10.46 0 0 1-14.07 15.48l-.38.43Z" fill="url(#b)"/><path d="M37.45 17.6a14.05 14.05 0 0 0-18.9 20.79l.5-.54a13.31 13.31 0 0 1 17.9-19.7l.5-.54Z" fill="url(#c)"/><path d="M18.55 38.4a14.05 14.05 0 0 0 18.9-20.79l-.5.54a13.31 13.31 0 0 1-17.9 19.7l-.5.54Z" fill="url(#d)"/><path d="M39.47 15.38a17.05 17.05 0 0 0-22.93 25.25l.42-.47a16.43 16.43 0 0 1 22.1-24.32l.4-.46Z" fill="url(#e)"/><path d="M16.53 40.62a17.05 17.05 0 0 0 22.93-25.25l-.42.47a16.43 16.43 0 0 1-22.1 24.32l-.41.46Z" fill="url(#f)"/><defs><linearGradient id="a" x1="22.12" y1="35.89" x2="35.42" y2="19.86" gradientUnits="userSpaceOnUse"><stop stop-color="#363636"/><stop offset="1" stop-color="#373737" stop-opacity="0"/></linearGradient><linearGradient id="b" x1="33.88" y1="20.11" x2="20.58" y2="36.14" gradientUnits="userSpaceOnUse"><stop stop-color="#363636"/><stop offset="1" stop-color="#373737" stop-opacity="0"/></linearGradient><linearGradient id="c" x1="20.51" y1="38.04" x2="37.44" y2="17.64" gradientUnits="userSpaceOnUse"><stop stop-color="#363636"/><stop offset="1" stop-color="#373737" stop-opacity="0"/></linearGradient><linearGradient id="d" x1="35.49" y1="17.96" x2="18.56" y2="38.36" gradientUnits="userSpaceOnUse"><stop stop-color="#363636"/><stop offset="1" stop-color="#373737" stop-opacity="0"/></linearGradient><linearGradient id="e" x1="18.91" y1="40.19" x2="39.47" y2="15.42" gradientUnits="userSpaceOnUse"><stop stop-color="#363636"/><stop offset="1" stop-color="#373737" stop-opacity="0"/></linearGradient><linearGradient id="f" x1="37.09" y1="15.81" x2="16.53" y2="40.58" gradientUnits="userSpaceOnUse"><stop stop-color="#363636"/><stop offset="1" stop-color="#373737" stop-opacity="0"/></linearGradient></defs></svg>