<!-- by TradingView --><svg width="56" height="56" viewBox="0 0 56 56" xmlns="http://www.w3.org/2000/svg"><path fill="#F0F3FA" d="M0 0h56v56H0z"/><path d="M39.1 13.13a.3.3 0 0 0-.05.15 34.7 34.7 0 0 1-.22 3.18 46.94 46.94 0 0 1-1.5 8.05 19.12 19.12 0 0 0-4.68-1.7 18.25 18.25 0 0 0-7.22-.16c-.89.14-1.77.31-2.64.51a27.94 27.94 0 0 0-2.66.74 9.9 9.9 0 0 1 .24-4l-.02-.04a44.91 44.91 0 0 1 18.73-6.85l.02.12Z" fill="#34B1E1"/><path d="M39.1 13.13c.72 4.42 1.01 8.87.86 13.35h-.04a7.12 7.12 0 0 0-2.59-1.98l.02-.01a52.13 52.13 0 0 0 1.54-8.68c.08-.77.13-1.62.16-2.53 0-.05.02-.1.05-.15Z" fill="#339CC1"/><path d="m20.35 19.86.02.04a9.9 9.9 0 0 0-.24 4 37.46 37.46 0 0 0-10.1 4.23c3.21-3.05 6.65-5.8 10.32-8.27Z" fill="#3F55A3"/><path d="m20.13 23.9.02.01a17.21 17.21 0 0 0 4.51 9.13 46.35 46.35 0 0 0 4.98 4.57 9.34 9.34 0 0 1-4.31 2.53l-.01.02A26.5 26.5 0 0 1 10 28.2v-.02l.04-.05h.05c3.14-1.9 6.5-3.31 10.04-4.23Z" fill="#B1B2B2"/><path d="M39.96 26.48A46.5 46.5 0 0 1 37.5 43h-.03a38148.86 38148.86 0 0 1-7.81-5.4 25.78 25.78 0 0 0 7.71-13.07 7.13 7.13 0 0 1 2.6 1.95Z" fill="#F0EA40"/><path d="m29.65 37.6.02.03a38148.86 38148.86 0 0 0 7.8 5.37 56.76 56.76 0 0 1-12.14-2.86 9.55 9.55 0 0 0 4.32-2.54Z" fill="#5BA545"/></svg>