<!-- by TradingView --><svg width="56" height="56" viewBox="0 0 56 56" xmlns="http://www.w3.org/2000/svg"><path fill="#F0F3FA" d="M0 0h56v56H0z"/><path d="M43.14 22.86c-.6-.11-1.15-.1-1.66.06L39.95 24H37.8c.11-.23.12-.15.02-.16l-1.8-3.09c-.04-.07-.02-.1.06-.09l.96.2c.08.02.1 0 .05-.07a12.96 12.96 0 0 0-18.2-3.84c-.87.56-1.5 1.05-1.91 1.45-.73.73-1.34 1.54-1.83 2.45-.1.19-.15.35-.14.5 0 .07-.02.13-.08.18-.08.06-.15.22-.22.47-.06.2-.12.36-.18.46-.3.53-.6 1.24-.9 2.14-.05.14-.17.42-.38.85 0-.85.11-1.57.3-2.17.36-1.06.91-2.28 1.68-3.67.25-.44.55-.82.9-1.14.91-.84 1.23-1.55.93-2.15a15.92 15.92 0 0 1 14.56-3.9 15.89 15.89 0 0 1 8.96 5.7 15.87 15.87 0 0 1 2.56 4.74Z" fill="#3188C6"/><path d="M37.82 23.84c-1.5-.3-2.72-.65-3.66-1.03A413 413 0 0 0 28 20.38a36.05 36.05 0 0 0-3.98-1.3 7.99 7.99 0 0 0-4.25.03 12.26 12.26 0 0 0-3.9 2.08c-.3.22-.53.55-.7.98a10.39 10.39 0 0 0-.8 3.68l.06 1.79c.01.58.1 1.16.24 1.76.06.25.23.38.49.39l1.8.21h-1.87c-.17 0-.27.1-.29.26l-.1.66-1.55-.97a1.7 1.7 0 0 1-.23-.89c.02-1.06.13-2.26.33-3.61.2-.43.33-.71.38-.85.3-.9.6-1.61.9-2.14.06-.1.12-.26.18-.46.07-.25.14-.4.22-.47a.21.21 0 0 0 .08-.19c0-.14.04-.3.14-.5.5-.9 1.1-1.71 1.83-2.44.4-.4 1.04-.89 1.9-1.45a12.96 12.96 0 0 1 18.2 3.84c.06.07.04.1-.04.08l-.96-.2c-.08-.02-.1 0-.06.08l1.8 3.09Z" fill="#8BB9DB"/><path d="M13.25 25.45c-.2 1.35-.3 2.55-.33 3.61 0 .32.07.61.23.89.17 1.46.56 2.84 1.15 4.12-.12.38-.33.72-.65 1a15.86 15.86 0 0 1-.48-13.08 15.83 15.83 0 0 1 3.9-5.67c.29.6-.03 1.31-.94 2.15-.35.32-.65.7-.9 1.14a21.87 21.87 0 0 0-1.67 3.67c-.2.6-.3 1.32-.31 2.17Z" fill="#1463A4"/><path d="M37.82 23.84c.1.01.1-.07-.02.16h-2.38c-.74 0-1.31.61-1.7 1.39-.23-.27-.55-.5-.97-.69l-.02-.3c0-.08-.05-.12-.14-.12l-1.66-.05a27.95 27.95 0 0 0-4.45-1.36 13.5 13.5 0 0 0-4.63-.16A11.7 11.7 0 0 0 17.9 24h-2.87c-.16 0-.24.1-.24.27v1.5c0 .14.07.23.22.23h5.85c.2 0 .35.24.42.44l.11.3c.08.2 0 .26-.2.26H15c-.15 0-.22.11-.22.27v1.42c0 .18.09.27.27.27h6.1c.2 0 .29.1.26.3l-.04.23c-.03.22-.15.51-.36.51H15.16c-.25 0-.42-.35-.48-.6a8.5 8.5 0 0 1-.24-1.76l-.05-1.79c0-1.1.26-2.33.79-3.68.17-.43.4-.76.7-.98a12.26 12.26 0 0 1 3.9-2.08 8 8 0 0 1 4.25-.03c1.23.32 2.55.75 3.98 1.3 2.5.97 4.56 1.78 6.16 2.43.94.38 2.16.73 3.66 1.03Z" fill="#5490BD"/><path d="M39.03 21.09c.4-.35.66-.78.75-1.3.02-.08.04-.08.08-.01l1.15 2c.26.44.19.82-.21 1.15-.13.1-.22.17-.28.2-.43.27-.77.18-1.02-.26-.23-.4-.43-.85-.6-1.36a.37.37 0 0 1 .13-.42Z" fill="#8BB9DB"/><path d="M30.93 24.23h-5.75c-.31 0-.58.12-.8.34-.23.22-.38.49-.38.8v5.4c.02.77.42 1.2 1.1 1.23h6.23c.82 0 1.28-.37 1.36-1.08.04-.36.05-1.8.02-3.77 0-.07-.04-.15-.11-.15h-6.2c-.3 0-.37-.08-.23-.33a.78.78 0 0 0 .05-.1c.13-.3.35-.57.66-.57h5.71c.08 0 .12-.02.12-.1l.04-1.2c.42.19.74.42.96.69-.13 2.01-.15 3.6-.05 4.75A2.02 2.02 0 0 0 35.7 32c1.44.02 2.67.03 3.7 0 1.2-.04 1.46-1.25 1.6-2.32.32-.27.8-.56.87-.88a9.86 9.86 0 0 0-.4-5.88c.52-.15 1.07-.17 1.67-.06a15.9 15.9 0 0 1-5 17.5A15.93 15.93 0 0 1 34 42.82l-1.46-.3a40.32 40.32 0 0 1-6.7-1.83 9.01 9.01 0 0 1-4.17-3.71A21 21 0 0 1 19.4 32h2.28c1-.02 1.31-1.04 1.32-1.93V25.2c0-.33-.13-.6-.36-.84a1.15 1.15 0 0 0-.84-.35h-3.91a11.7 11.7 0 0 1 3.96-1.29c1.46-.21 3-.16 4.63.16 1.24.24 2.72.7 4.45 1.36Z" fill="#1463A4"/><path d="M41.48 22.92c.73 1.9.85 3.86.39 5.88-.08.32-.55.61-.87.88-.1-1.37-.02-2.53 0-3.48.02-.87-.2-1.82-1.05-2.2l1.53-1.08Z" fill="#8BB9DB"/><path d="M38.44 25.99h-2.38c-.31 0-.56.3-.56.65l.01 2.72c0 .35.25.64.56.64l2.39-.01c.3 0 .55-.29.55-.64v-2.72c0-.36-.26-.64-.57-.64Z" fill="#297BB8"/><path d="M30.71 29c.03 0 .05.02.05.05v.03c0 .25-.08.47-.24.65a.77.77 0 0 1-.6.27h-2.97a.77.77 0 0 1-.58-.27.92.92 0 0 1-.25-.64v-.03c0-.03.02-.05.05-.05L30.7 29Z" fill="#1463A4"/><path d="m14.7 30.92.11.98c.02.07.06.1.14.1h.88l3.33 8c.1.23.05.27-.15.1a16.85 16.85 0 0 1-4.7-6.03c-.6-1.28-.99-2.66-1.16-4.12l1.56.97Z" fill="#5490BD"/><path d="M19.62 32c.71 2.22 1.24 3.7 2.04 4.98a9.01 9.01 0 0 0 4.17 3.71c1.42.59 3.66 1.2 6.7 1.83l1.46.3a16.12 16.12 0 0 1-10.86.4 15.87 15.87 0 0 1-9.48-8.15c.31-.28.53-.62.65-1a16.85 16.85 0 0 0 4.71 6.03c.2.17.25.13.15-.1l-3.41-8h3.87Z" fill="#297BB8"/></svg>