<?xml version="1.0" encoding="UTF-8"?>
<svg version="1.1" xmlns="http://www.w3.org/2000/svg" width="175" height="175">
<path d="M0 0 C57.75 0 115.5 0 175 0 C175 57.75 175 115.5 175 175 C117.25 175 59.5 175 0 175 C0 117.25 0 59.5 0 0 Z " fill="#E82127" transform="translate(0,0)"/>
<path d="M0 0 C2.23046875 2.1875 2.23046875 2.1875 4.1875 5 C6.07366761 7.76180447 6.07366761 7.76180447 8 10 C8.99 10 9.98 10 11 10 C12.17799877 8.34906083 13.29395118 6.65348797 14.375 4.9375 C18.07498748 0.20526963 18.07498748 0.20526963 21.78125 -0.6171875 C32.77210058 0.02116998 44.86877114 3.67814642 55 8 C53.59308516 11.3287315 51.99308419 13.13167372 49.125 15.3125 C48.44695312 15.84488281 47.76890625 16.37726563 47.0703125 16.92578125 C45 18 45 18 42.9296875 17.85546875 C41 17 41 17 39.73046875 15.48046875 C36.98313319 13.13003946 33.77499884 13.42565356 30.3125 13.3125 C29.2596582 13.26125977 29.2596582 13.26125977 28.18554688 13.20898438 C26.45758613 13.12670053 24.72881928 13.0616676 23 13 C22.95350815 13.64904297 22.9070163 14.29808594 22.8591156 14.96679688 C22.27518977 22.24828699 21.1493443 29.32771562 19.78515625 36.5 C19.5693541 37.65693359 19.35355194 38.81386719 19.13121033 40.00585938 C18.44639425 43.67148227 17.75462002 47.33574993 17.0625 51 C16.60174116 53.45824484 16.14145063 55.91657751 15.68164062 58.375 C14.83374186 62.90680751 13.98270482 67.43800473 13.12915039 71.96875 C12.06279396 77.64164956 11.02520439 83.31953125 10 89 C8.39769437 86.08894172 7.57389829 83.50780895 6.99438477 80.24169922 C6.73885582 78.82774368 6.73885582 78.82774368 6.47816467 77.38522339 C6.30103439 76.36864655 6.12390411 75.3520697 5.94140625 74.3046875 C5.75158676 73.24323517 5.56176727 72.18178284 5.36619568 71.08816528 C4.75915483 67.68478044 4.16083192 64.2799255 3.5625 60.875 C3.16395784 58.6366214 2.76487482 56.39833903 2.36523438 54.16015625 C1.22833968 47.77605073 0.10923353 41.38896571 -1 35 C-1.24305878 33.60328064 -1.24305878 33.60328064 -1.49102783 32.17834473 C-1.92673796 29.66388508 -2.35724004 27.14860884 -2.78515625 24.6328125 C-2.91071396 23.90738251 -3.03627167 23.18195251 -3.16563416 22.43453979 C-3.7065185 19.21322428 -4 16.28230593 -4 13 C-6.41926039 13.06018061 -8.83248672 13.14722217 -11.25 13.25 C-11.93191406 13.26417969 -12.61382812 13.27835938 -13.31640625 13.29296875 C-16.87112206 13.46552777 -18.70213559 13.7545897 -21.484375 16.046875 C-21.98453125 16.69140625 -22.4846875 17.3359375 -23 18 C-28.41110091 16.68021929 -32.26441506 14.06714573 -36 10 C-36 9.34 -36 8.68 -36 8 C-25.28296747 3.76342308 -11.6593412 -1.61437032 0 0 Z " fill="#FEFAFA" transform="translate(78,53)"/>
<path d="M0 0 C-0.66 1.98 -1.32 3.96 -2 6 C-5.58000021 5.38961682 -8.92599724 4.39836691 -12.36328125 3.23510742 C-36.68720937 -4.89746806 -65.37947578 -4.8543943 -89.51953125 4.1328125 C-92.00075268 5.00026314 -94.41433904 5.54507222 -97 6 C-97.66 4.02 -98.32 2.04 -99 0 C-93.14468156 -3.03609104 -87.40406114 -4.76965591 -81 -6.1875 C-80.25314941 -6.35411133 -79.50629883 -6.52072266 -78.73681641 -6.69238281 C-53.74220578 -12.00667025 -23.16287954 -11.60510136 0 0 Z " fill="#FEF6F6" transform="translate(137,53)"/>
<path d="M0 0 C0 0.99 0 1.98 0 3 C-0.58265625 2.81824219 -1.1653125 2.63648438 -1.765625 2.44921875 C-12.74660243 -0.91759037 -23.61304116 -3.43888468 -35 -5 C-35.38285156 -4.14148437 -35.38285156 -4.14148437 -35.7734375 -3.265625 C-37.13087159 -0.75826267 -38.71974104 1.1330456 -40.625 3.25 C-41.25664063 3.95640625 -41.88828125 4.6628125 -42.5390625 5.390625 C-43.02117187 5.92171875 -43.50328125 6.4528125 -44 7 C-47.84783484 3.93922229 -51.14732623 1.05957421 -54 -3 C-54 -3.66 -54 -4.32 -54 -5 C-58.02179644 -4.21317565 -62.04224805 -3.41967501 -66.0625 -2.625 C-67.7630957 -2.29242188 -67.7630957 -2.29242188 -69.49804688 -1.953125 C-75.07973398 -0.84655146 -80.56408295 0.31163099 -86 2 C-86.33 1.01 -86.66 0.02 -87 -1 C-57.88445771 -10.90684686 -28.88195986 -10.52057644 0 0 Z " fill="#E8282D" transform="translate(132,58)"/>
<path d="M0 0 C0.33 0.66 0.66 1.32 1 2 C0.14277344 2.19335938 -0.71445313 2.38671875 -1.59765625 2.5859375 C-7.44653174 3.91792493 -13.25718743 5.26380085 -19 7 C-19.33 6.01 -19.66 5.02 -20 4 C-17.42032203 3.13310822 -14.83723873 2.28126211 -12.25 1.4375 C-11.52039062 1.19064453 -10.79078125 0.94378906 -10.0390625 0.68945312 C-9.33007812 0.46064453 -8.62109375 0.23183594 -7.890625 -0.00390625 C-6.91657715 -0.32597046 -6.91657715 -0.32597046 -5.92285156 -0.65454102 C-3.62028635 -1.06821925 -2.18059358 -0.82372127 0 0 Z " fill="#EB454A" transform="translate(65,53)"/>
<path d="M0 0 C6.85921925 1.61191652 13.46207289 3.35968328 20 6 C20 6.99 20 7.98 20 9 C19.41734375 8.81824219 18.8346875 8.63648438 18.234375 8.44921875 C11.54308794 6.39764489 4.80119035 4.64771106 -2 3 C-1.34 2.67 -0.68 2.34 0 2 C0 1.34 0 0.68 0 0 Z " fill="#EA383D" transform="translate(112,52)"/>
</svg>
